<?xml version="1.0" encoding="UTF-8" standalone="no"?>
<!-- Created with Inkscape (http://www.inkscape.org/) -->

<svg
   xmlns:dc="http://purl.org/dc/elements/1.1/"
   xmlns:cc="http://creativecommons.org/ns#"
   xmlns:rdf="http://www.w3.org/1999/02/22-rdf-syntax-ns#"
   xmlns:svg="http://www.w3.org/2000/svg"
   xmlns="http://www.w3.org/2000/svg"
   xmlns:sodipodi="http://sodipodi.sourceforge.net/DTD/sodipodi-0.dtd"
   xmlns:inkscape="http://www.inkscape.org/namespaces/inkscape"
   width="3.75mm"
   height="3.75mm"
   viewBox="0 0 3.75 3.75"
   version="1.1"
   id="svg13826"
   inkscape:version="0.92.1 r15371"
   sodipodi:docname="brochure_dark.svg">
  <defs
     id="defs13820" />
  <sodipodi:namedview
     id="base"
     pagecolor="#ffffff"
     bordercolor="#666666"
     borderopacity="1.0"
     inkscape:pageopacity="0.0"
     inkscape:pageshadow="2"
     inkscape:zoom="20.285322"
     inkscape:cx="7.3371728"
     inkscape:cy="7.4973999"
     inkscape:document-units="mm"
     inkscape:current-layer="layer1"
     showgrid="false"
     inkscape:window-width="561"
     inkscape:window-height="558"
     inkscape:window-x="687"
     inkscape:window-y="78"
     inkscape:window-maximized="0"
     showguides="true"
     inkscape:guide-bbox="true"
     gridtolerance="10"
     guidetolerance="2">
    <inkscape:grid
       type="xygrid"
       id="grid13828" />
    <sodipodi:guide
       position="0.13043093,3.8477124"
       orientation="1,0"
       id="guide20533"
       inkscape:locked="false" />
    <sodipodi:guide
       position="1.9173346,3.6129367"
       orientation="0,1"
       id="guide20535"
       inkscape:locked="false" />
  </sodipodi:namedview>
  <metadata
     id="metadata13823">
    <rdf:RDF>
      <cc:Work
         rdf:about="">
        <dc:format>image/svg+xml</dc:format>
        <dc:type
           rdf:resource="http://purl.org/dc/dcmitype/StillImage" />
        <dc:title></dc:title>
      </cc:Work>
    </rdf:RDF>
  </metadata>
  <g
     inkscape:label="Layer 1"
     inkscape:groupmode="layer"
     id="layer1"
     transform="translate(0,-293.25)">
    <path
       inkscape:connector-curvature="0"
       id="path9579"
       d="m 0.5511559,293.46189 c -0.1901684,0 -0.34588803,0.15572 -0.34588803,0.34589 v 2.6541 c 0,0.19017 0.15571963,0.34589 0.34588803,0.34589 h 2.6541024 c 0.1901684,0 0.3458845,-0.15572 0.3458845,-0.34589 v -2.6541 c 0,-0.19017 -0.1557161,-0.34589 -0.3458845,-0.34589 z m 0,0"
       style="fill:#ffffff;fill-opacity:1;fill-rule:nonzero;stroke:none;stroke-width:0.35277775" />
    <path
       inkscape:connector-curvature="0"
       id="path9581"
       d="m 3.2052583,296.87805 c 0.2301311,0 0.4161649,-0.18604 0.4161649,-0.41617 v -2.6541 c 0,-0.23013 -0.1860338,-0.41617 -0.4161649,-0.41617 H 0.55253173 c -0.23151042,0 -0.41754425,0.18604 -0.41754425,0.41617 v 2.6541 c 0,0.23013 0.18603383,0.41617 0.41754425,0.41617 z m 0,0"
       style="fill:#211e1e;fill-opacity:1;fill-rule:nonzero;stroke:none;stroke-width:0.35277775" />
    <path
       inkscape:connector-curvature="0"
       id="path9583"
       d="m 0.58560465,293.99106 c 0.26871787,-0.007 0.76619095,0.28387 0.76619095,0.28387 v 2.00367 c -0.60771615,-0.28663 -0.76619095,-0.2825 -0.76619095,-0.2825 z m 0,0"
       style="fill:#ffffff;fill-opacity:1;fill-rule:nonzero;stroke:none;stroke-width:0.35277775" />
    <path
       inkscape:connector-curvature="0"
       id="path9585"
       d="m 2.2819718,293.99106 c -0.2687179,-0.007 -0.766191,0.28387 -0.766191,0.28387 v 2.00367 c 0.6077162,-0.28663 0.766191,-0.2825 0.766191,-0.2825 z m 0,0"
       style="fill:#ffffff;fill-opacity:1;fill-rule:nonzero;stroke:none;stroke-width:0.35277775" />
    <path
       inkscape:connector-curvature="0"
       id="path9587"
       d="m 2.4542262,293.99106 c 0.2508038,-0.007 0.7165799,0.28387 0.7165799,0.28387 v 2.00367 c -0.5691294,-0.28663 -0.7165799,-0.2825 -0.7165799,-0.2825 z m 0,0"
       style="fill:#ffffff;fill-opacity:1;fill-rule:nonzero;stroke:none;stroke-width:0.35277775" />
    <path
       inkscape:connector-curvature="0"
       id="path9589"
       d="m 1.2691116,294.46786 v -0.0758 c -0.30730118,-0.16123 -0.50022481,-0.21222 -0.60082292,-0.22738 v 0.0675 c 0.0978394,0.0152 0.2907665,0.0675 0.60082292,0.23564"
       style="fill:#211e1e;fill-opacity:1;fill-rule:nonzero;stroke:none;stroke-width:0.35277775" />
    <path
       inkscape:connector-curvature="0"
       id="path9591"
       d="m 0.66828868,294.43341 c 0.0978394,0.0179 0.28801132,0.0716 0.60082292,0.23564 v -0.0744 c -0.31143577,-0.16124 -0.50160417,-0.21223 -0.60082292,-0.22877 z m 0,0"
       style="fill:#211e1e;fill-opacity:1;fill-rule:nonzero;stroke:none;stroke-width:0.35277775" />
    <path
       inkscape:connector-curvature="0"
       id="path9593"
       d="m 0.66828868,294.83579 c 0.0937048,0.0193 0.27974219,0.0744 0.60082292,0.23565 v -0.0744 c -0.3197049,-0.15709 -0.50435935,-0.21083 -0.60082292,-0.22875 z m 0,0"
       style="fill:#211e1e;fill-opacity:1;fill-rule:nonzero;stroke:none;stroke-width:0.35277775" />
    <path
       inkscape:connector-curvature="0"
       id="path9595"
       d="m 0.66828868,294.96947 v 0.46991 c 0.0895738,0.022 0.26733852,0.0799 0.60082292,0.23564 v -0.47542 c -0.32246008,-0.1571 -0.50573873,-0.21084 -0.60082292,-0.23013"
       style="fill:#211e1e;fill-opacity:1;fill-rule:nonzero;stroke:none;stroke-width:0.35277775" />
    <path
       inkscape:connector-curvature="0"
       id="path9597"
       d="m 0.66828868,295.64057 c 0.0881944,0.0234 0.26596269,0.0827 0.60082292,0.23564 v -0.073 C 0.9356272,295.653 0.75923833,295.59513 0.66828868,295.57308 Z m 0,0"
       style="fill:#211e1e;fill-opacity:1;fill-rule:nonzero;stroke:none;stroke-width:0.35277775" />
    <path
       inkscape:connector-curvature="0"
       id="path9599"
       d="m 0.66828868,295.77424 v 0.0689 c 0.0881944,0.0234 0.26320399,0.0827 0.60082292,0.23427 v -0.073 c -0.33486023,-0.14883 -0.5112491,-0.2067 -0.60082292,-0.23013"
       style="fill:#211e1e;fill-opacity:1;fill-rule:nonzero;stroke:none;stroke-width:0.35277775" />
    <path
       inkscape:connector-curvature="0"
       id="path9601"
       d="m 2.5369067,294.16607 v 0.27009 c 0.093708,0.0179 0.2742317,0.073 0.5512152,0.23013 v -0.27698 c -0.2756077,-0.15434 -0.4547517,-0.20533 -0.5512152,-0.22324"
       style="fill:#211e1e;fill-opacity:1;fill-rule:nonzero;stroke:none;stroke-width:0.35277775" />
    <path
       inkscape:connector-curvature="0"
       id="path9603"
       d="m 2.5369067,294.63598 c 0.093708,0.0207 0.2728524,0.0758 0.5512152,0.23151 v -0.0758 c -0.2783628,-0.15158 -0.4561275,-0.20395 -0.5512152,-0.22324 z m 0,0"
       style="fill:#211e1e;fill-opacity:1;fill-rule:nonzero;stroke:none;stroke-width:0.35277775" />
    <path
       inkscape:connector-curvature="0"
       id="path9605"
       d="m 2.5369067,294.83717 c 0.093708,0.0207 0.2714766,0.0772 0.5512152,0.23013 v -0.0744 C 2.8083833,294.84269 2.630615,294.78895 2.5369067,294.76966 Z m 0,0"
       style="fill:#211e1e;fill-opacity:1;fill-rule:nonzero;stroke:none;stroke-width:0.35277775" />
    <path
       inkscape:connector-curvature="0"
       id="path9607"
       d="m 2.5369067,295.24094 c 0.092329,0.0207 0.2687178,0.0786 0.5512152,0.22875 v -0.0744 c -0.2838733,-0.14884 -0.4588862,-0.20258 -0.5512152,-0.22325 z m 0,0"
       style="fill:#211e1e;fill-opacity:1;fill-rule:nonzero;stroke:none;stroke-width:0.35277775" />
    <path
       inkscape:connector-curvature="0"
       id="path9609"
       d="m 2.5369067,295.44213 c 0.092329,0.022 0.2673419,0.0799 0.5512152,0.22876 v -0.0744 c -0.2852525,-0.14745 -0.4588862,-0.20257 -0.5512152,-0.22324 z m 0,0"
       style="fill:#211e1e;fill-opacity:1;fill-rule:nonzero;stroke:none;stroke-width:0.35277775" />
    <path
       inkscape:connector-curvature="0"
       id="path9611"
       d="m 2.5369067,295.64333 c 0.092329,0.0221 0.2659627,0.0813 0.5512152,0.22875 v -0.0744 c -0.2866318,-0.14608 -0.460262,-0.2012 -0.5512152,-0.22325 z m 0,0"
       style="fill:#211e1e;fill-opacity:1;fill-rule:nonzero;stroke:none;stroke-width:0.35277775" />
    <path
       inkscape:connector-curvature="0"
       id="path9613"
       d="m 2.5369067,295.77562 v 0.0689 c 0.090953,0.0234 0.2659627,0.0827 0.5512152,0.22875 v -0.0744 c -0.2880077,-0.1447 -0.460262,-0.20119 -0.5512152,-0.22324"
       style="fill:#211e1e;fill-opacity:1;fill-rule:nonzero;stroke:none;stroke-width:0.35277775" />
    <path
       inkscape:connector-curvature="0"
       id="path9615"
       d="m 2.1992878,294.23222 v -0.0675 c -0.2039479,0.0303 -0.4616415,0.15434 -0.6008229,0.22738 v 0.0744 c 0.1226432,-0.0661 0.3941198,-0.20119 0.6008229,-0.23426"
       style="fill:#211e1e;fill-opacity:1;fill-rule:nonzero;stroke:none;stroke-width:0.35277775" />
    <path
       inkscape:connector-curvature="0"
       id="path9617"
       d="m 2.1992878,294.36726 c -0.2039479,0.0317 -0.4616415,0.15296 -0.6008229,0.226 v 0.0744 c 0.1226432,-0.0648 0.3941198,-0.19843 0.6008229,-0.23426 z m 0,0"
       style="fill:#211e1e;fill-opacity:1;fill-rule:nonzero;stroke:none;stroke-width:0.35277775" />
    <path
       inkscape:connector-curvature="0"
       id="path9619"
       d="m 2.1992878,294.56846 c -0.2025721,0.0331 -0.4616415,0.15434 -0.6008229,0.226 v 0.0744 c 0.1226432,-0.0634 0.3954956,-0.19568 0.6008229,-0.23427 z m 0,0"
       style="fill:#211e1e;fill-opacity:1;fill-rule:nonzero;stroke:none;stroke-width:0.35277775" />
    <path
       inkscape:connector-curvature="0"
       id="path9621"
       d="m 2.1992878,294.76965 c -0.2025721,0.0358 -0.4616415,0.15572 -0.6008229,0.226 v 0.0744 c 0.1240226,-0.0634 0.3954956,-0.1943 0.6008229,-0.23289 z m 0,0"
       style="fill:#211e1e;fill-opacity:1;fill-rule:nonzero;stroke:none;stroke-width:0.35277775" />
    <path
       inkscape:connector-curvature="0"
       id="path9623"
       d="m 2.1992878,294.97084 c -0.2011927,0.0386 -0.4616415,0.1571 -0.6008229,0.226 v 0.0744 c 0.1240226,-0.062 0.3954956,-0.19155 0.6008229,-0.23289 z m 0,0"
       style="fill:#211e1e;fill-opacity:1;fill-rule:nonzero;stroke:none;stroke-width:0.35277775" />
    <path
       inkscape:connector-curvature="0"
       id="path9625"
       d="m 2.1992878,295.17204 c -0.2011927,0.04 -0.4616415,0.15847 -0.6008229,0.22599 v 0.0744 c 0.1240226,-0.062 0.396875,-0.18879 0.6008229,-0.23289 z m 0,0"
       style="fill:#211e1e;fill-opacity:1;fill-rule:nonzero;stroke:none;stroke-width:0.35277775" />
    <path
       inkscape:connector-curvature="0"
       id="path9627"
       d="m 2.1992878,295.5758 c -0.1998134,0.0441 -0.4616415,0.15985 -0.6008229,0.226 v 0.073 c 0.1240226,-0.0606 0.396875,-0.18328 0.6008229,-0.23151 z m 0,0"
       style="fill:#211e1e;fill-opacity:1;fill-rule:nonzero;stroke:none;stroke-width:0.35277775" />
    <path
       inkscape:connector-curvature="0"
       id="path9629"
       d="m 1.5984649,296.00299 v 0.073 c 0.1254019,-0.0593 0.3982508,-0.18052 0.599447,-0.23151 v -0.0675 c -0.1970616,0.0455 -0.4602656,0.15986 -0.599447,0.226"
       style="fill:#211e1e;fill-opacity:1;fill-rule:nonzero;stroke:none;stroke-width:0.35277775" />
  </g>
</svg>
