<?xml version="1.0" encoding="UTF-8" standalone="no"?>
<!-- Created with Inkscape (http://www.inkscape.org/) -->

<svg
   xmlns:dc="http://purl.org/dc/elements/1.1/"
   xmlns:cc="http://creativecommons.org/ns#"
   xmlns:rdf="http://www.w3.org/1999/02/22-rdf-syntax-ns#"
   xmlns:svg="http://www.w3.org/2000/svg"
   xmlns="http://www.w3.org/2000/svg"
   xmlns:sodipodi="http://sodipodi.sourceforge.net/DTD/sodipodi-0.dtd"
   xmlns:inkscape="http://www.inkscape.org/namespaces/inkscape"
   width="3.75mm"
   height="3.75mm"
   viewBox="0 0 3.75 3.75"
   version="1.1"
   id="svg13826"
   inkscape:version="0.92.1 r15371"
   sodipodi:docname="brochure_light.svg">
  <defs
     id="defs13820" />
  <sodipodi:namedview
     id="base"
     pagecolor="#ffffff"
     bordercolor="#666666"
     borderopacity="1.0"
     inkscape:pageopacity="0.0"
     inkscape:pageshadow="2"
     inkscape:zoom="20.285322"
     inkscape:cx="7.3371728"
     inkscape:cy="7.4973999"
     inkscape:document-units="mm"
     inkscape:current-layer="layer1"
     showgrid="false"
     inkscape:window-width="561"
     inkscape:window-height="558"
     inkscape:window-x="687"
     inkscape:window-y="78"
     inkscape:window-maximized="0"
     showguides="true"
     inkscape:guide-bbox="true"
     gridtolerance="10"
     guidetolerance="2">
    <inkscape:grid
       type="xygrid"
       id="grid13828" />
    <sodipodi:guide
       position="0.13043093,3.8477124"
       orientation="1,0"
       id="guide20533"
       inkscape:locked="false" />
    <sodipodi:guide
       position="1.9173346,3.6129367"
       orientation="0,1"
       id="guide20535"
       inkscape:locked="false" />
  </sodipodi:namedview>
  <metadata
     id="metadata13823">
    <rdf:RDF>
      <cc:Work
         rdf:about="">
        <dc:format>image/svg+xml</dc:format>
        <dc:type
           rdf:resource="http://purl.org/dc/dcmitype/StillImage" />
        <dc:title></dc:title>
      </cc:Work>
    </rdf:RDF>
  </metadata>
  <g
     inkscape:label="Layer 1"
     inkscape:groupmode="layer"
     id="layer1"
     transform="translate(0,-293.25)">
    <path
       inkscape:connector-curvature="0"
       id="path9631"
       d="m 0.55046454,296.87874 c -0.23013106,0 -0.41754425,-0.18604 -0.41754425,-0.41755 v -2.6541 c 0,-0.23013 0.18741319,-0.41617 0.41754425,-0.41617 H 3.2059462 c 0.2301311,0 0.4175442,0.18604 0.4175442,0.41617 v 2.6541 c 0,0.23151 -0.1874131,0.41755 -0.4175442,0.41755 z m 0,0"
       style="fill:#211e1e;fill-opacity:1;fill-rule:nonzero;stroke:none;stroke-width:0.35277775" />
    <path
       inkscape:connector-curvature="0"
       id="path9633"
       d="m 0.55046454,293.4612 c -0.1901684,0 -0.34588803,0.15572 -0.34588803,0.34589 v 2.6541 c 0,0.19155 0.15571963,0.34726 0.34588803,0.34726 H 3.2059462 c 0.1901685,0 0.347264,-0.15571 0.347264,-0.34726 v -2.6541 c 0,-0.19017 -0.1570955,-0.34589 -0.347264,-0.34589 z m 0,0"
       style="fill:#ffffff;fill-opacity:1;fill-rule:nonzero;stroke:none;stroke-width:0.35277775" />
    <path
       inkscape:connector-curvature="0"
       id="path9635"
       d="m 0.59869631,293.99175 c 0.26871785,-0.008 0.76619099,0.28249 0.76619099,0.28249 v 2.00505 c -0.60771614,-0.28663 -0.76619099,-0.28388 -0.76619099,-0.28388 z m 0,0"
       style="fill:#211e1e;fill-opacity:1;fill-rule:nonzero;stroke:none;stroke-width:0.35277775" />
    <path
       inkscape:connector-curvature="0"
       id="path9637"
       d="m 2.2936841,293.99175 c -0.2687179,-0.008 -0.7648116,0.28249 -0.7648116,0.28249 v 2.00505 c 0.6063368,-0.28663 0.7648116,-0.28388 0.7648116,-0.28388 z m 0,0"
       style="fill:#211e1e;fill-opacity:1;fill-rule:nonzero;stroke:none;stroke-width:0.35277775" />
    <path
       inkscape:connector-curvature="0"
       id="path9639"
       d="m 2.4673178,293.99175 c 0.2508003,-0.008 0.7165799,0.28249 0.7165799,0.28249 v 2.00505 c -0.5691329,-0.28663 -0.7165799,-0.28388 -0.7165799,-0.28388 z m 0,0"
       style="fill:#211e1e;fill-opacity:1;fill-rule:nonzero;stroke:none;stroke-width:0.35277775" />
    <path
       inkscape:connector-curvature="0"
       id="path9641"
       d="m 1.2822033,294.46717 v -0.0744 c -0.30730124,-0.16123 -0.50022834,-0.21222 -0.60082295,-0.22738 v 0.0662 c 0.0978394,0.0165 0.29076301,0.0689 0.60082295,0.23564"
       style="fill:#ffffff;fill-opacity:1;fill-rule:nonzero;stroke:none;stroke-width:0.35277775" />
    <path
       inkscape:connector-curvature="0"
       id="path9643"
       d="m 0.68138035,294.43272 c 0.09646,0.0179 0.28800781,0.0716 0.60082295,0.23564 v -0.0744 C 0.97076746,294.4341 0.78059906,294.38174 0.68138035,294.3652 Z m 0,0"
       style="fill:#ffffff;fill-opacity:1;fill-rule:nonzero;stroke:none;stroke-width:0.35277775" />
    <path
       inkscape:connector-curvature="0"
       id="path9645"
       d="m 0.68138035,294.8351 c 0.0937048,0.0193 0.27836281,0.0758 0.60082295,0.23565 v -0.073 C 0.96249836,294.84062 0.77646456,294.7855 0.68138035,294.76896 Z m 0,0"
       style="fill:#ffffff;fill-opacity:1;fill-rule:nonzero;stroke:none;stroke-width:0.35277775" />
    <path
       inkscape:connector-curvature="0"
       id="path9647"
       d="m 0.68138035,294.97015 v 0.46991 c 0.0881945,0.0207 0.26733851,0.0785 0.60082295,0.23565 v -0.4768 c -0.32383944,-0.15572 -0.50711814,-0.21084 -0.60082295,-0.22876"
       style="fill:#ffffff;fill-opacity:1;fill-rule:nonzero;stroke:none;stroke-width:0.35277775" />
    <path
       inkscape:connector-curvature="0"
       id="path9649"
       d="m 0.68138035,295.64126 c 0.0881945,0.022 0.26458331,0.0813 0.60082295,0.23426 v -0.0716 c -0.33348444,-0.15159 -0.50987334,-0.20946 -0.60082295,-0.23014 z m 0,0"
       style="fill:#ffffff;fill-opacity:1;fill-rule:nonzero;stroke:none;stroke-width:0.35277775" />
    <path
       inkscape:connector-curvature="0"
       id="path9651"
       d="m 0.68138035,295.77493 v 0.0689 c 0.0868151,0.0234 0.26320401,0.0827 0.60082295,0.23427 v -0.073 c -0.33623964,-0.14883 -0.51125264,-0.20808 -0.60082295,-0.23013"
       style="fill:#ffffff;fill-opacity:1;fill-rule:nonzero;stroke:none;stroke-width:0.35277775" />
    <path
       inkscape:connector-curvature="0"
       id="path9653"
       d="m 2.5499983,294.16676 v 0.26871 c 0.093708,0.0193 0.2728524,0.0744 0.5512152,0.23013 v -0.27698 c -0.2756075,-0.15296 -0.456131,-0.20533 -0.5512152,-0.22186"
       style="fill:#ffffff;fill-opacity:1;fill-rule:nonzero;stroke:none;stroke-width:0.35277775" />
    <path
       inkscape:connector-curvature="0"
       id="path9655"
       d="m 2.5499983,294.63667 c 0.093708,0.0193 0.2728524,0.0744 0.5512152,0.23013 v -0.0758 c -0.2783628,-0.15158 -0.456131,-0.20395 -0.5512152,-0.22187 z m 0,0"
       style="fill:#ffffff;fill-opacity:1;fill-rule:nonzero;stroke:none;stroke-width:0.35277775" />
    <path
       inkscape:connector-curvature="0"
       id="path9657"
       d="m 2.5499983,294.83786 c 0.092329,0.0207 0.2714731,0.0772 0.5512152,0.23013 v -0.0758 c -0.2797421,-0.1502 -0.4575068,-0.20394 -0.5512152,-0.22185 z m 0,0"
       style="fill:#ffffff;fill-opacity:1;fill-rule:nonzero;stroke:none;stroke-width:0.35277775" />
    <path
       inkscape:connector-curvature="0"
       id="path9659"
       d="m 2.5499983,295.24025 c 0.092329,0.022 0.268718,0.0786 0.5512152,0.23013 v -0.0758 c -0.2838767,-0.14744 -0.4588862,-0.20256 -0.5512152,-0.22186 z m 0,0"
       style="fill:#ffffff;fill-opacity:1;fill-rule:nonzero;stroke:none;stroke-width:0.35277775" />
    <path
       inkscape:connector-curvature="0"
       id="path9661"
       d="m 2.5499983,295.44144 c 0.092329,0.022 0.2673385,0.0799 0.5512152,0.23014 v -0.0758 C 2.8159609,295.44833 2.640948,295.39459 2.5499983,295.37392 Z m 0,0"
       style="fill:#ffffff;fill-opacity:1;fill-rule:nonzero;stroke:none;stroke-width:0.35277775" />
    <path
       inkscape:connector-curvature="0"
       id="path9663"
       d="m 2.5499983,295.64264 c 0.09095,0.0234 0.2659626,0.0813 0.5512152,0.22875 v -0.0744 c -0.2866318,-0.14608 -0.4602655,-0.2012 -0.5512152,-0.22187 z m 0,0"
       style="fill:#ffffff;fill-opacity:1;fill-rule:nonzero;stroke:none;stroke-width:0.35277775" />
    <path
       inkscape:connector-curvature="0"
       id="path9665"
       d="m 2.5499983,295.7763 v 0.0675 c 0.09095,0.0248 0.2645834,0.0827 0.5512152,0.22875 v -0.0744 c -0.2880111,-0.1447 -0.4602655,-0.19982 -0.5512152,-0.22187"
       style="fill:#ffffff;fill-opacity:1;fill-rule:nonzero;stroke:none;stroke-width:0.35277775" />
    <path
       inkscape:connector-curvature="0"
       id="path9667"
       d="m 2.2110001,294.23153 v -0.0662 c -0.2039479,0.0303 -0.4616415,0.15296 -0.5994471,0.226 v 0.0758 c 0.1226467,-0.0661 0.3941198,-0.20257 0.5994471,-0.23564"
       style="fill:#ffffff;fill-opacity:1;fill-rule:nonzero;stroke:none;stroke-width:0.35277775" />
    <path
       inkscape:connector-curvature="0"
       id="path9669"
       d="m 2.2110001,294.36657 c -0.2025721,0.0317 -0.4616415,0.15434 -0.5994471,0.226 v 0.0758 c 0.1226467,-0.0661 0.3941198,-0.19981 0.5994471,-0.23427 z m 0,0"
       style="fill:#ffffff;fill-opacity:1;fill-rule:nonzero;stroke:none;stroke-width:0.35277775" />
    <path
       inkscape:connector-curvature="0"
       id="path9671"
       d="m 2.2110001,294.56777 c -0.2025721,0.0345 -0.4616415,0.15572 -0.5994471,0.226 v 0.0758 c 0.1226467,-0.0648 0.3941198,-0.19706 0.5994471,-0.23427 z m 0,0"
       style="fill:#ffffff;fill-opacity:1;fill-rule:nonzero;stroke:none;stroke-width:0.35277775" />
    <path
       inkscape:connector-curvature="0"
       id="path9673"
       d="m 2.2110001,294.77034 c -0.2011927,0.0358 -0.4602621,0.15572 -0.5994471,0.22599 v 0.0744 c 0.1226467,-0.0634 0.3954992,-0.1943 0.5994471,-0.23427 z m 0,0"
       style="fill:#ffffff;fill-opacity:1;fill-rule:nonzero;stroke:none;stroke-width:0.35277775" />
    <path
       inkscape:connector-curvature="0"
       id="path9675"
       d="m 2.2110001,294.97153 c -0.2011927,0.0372 -0.4602621,0.1571 -0.5994471,0.226 v 0.073 c 0.1240261,-0.062 0.3954992,-0.19017 0.5994471,-0.23151 z m 0,0"
       style="fill:#ffffff;fill-opacity:1;fill-rule:nonzero;stroke:none;stroke-width:0.35277775" />
    <path
       inkscape:connector-curvature="0"
       id="path9677"
       d="m 2.2110001,295.17272 c -0.1998134,0.04 -0.4602621,0.1571 -0.5994471,0.226 v 0.073 c 0.1240261,-0.0606 0.3954992,-0.18741 0.5994471,-0.23151 z m 0,0"
       style="fill:#ffffff;fill-opacity:1;fill-rule:nonzero;stroke:none;stroke-width:0.35277775" />
    <path
       inkscape:connector-curvature="0"
       id="path9679"
       d="m 2.2110001,295.57511 c -0.1984375,0.0441 -0.4602621,0.15985 -0.5994471,0.226 v 0.073 c 0.1240261,-0.0593 0.396875,-0.18328 0.5994471,-0.23014 z m 0,0"
       style="fill:#ffffff;fill-opacity:1;fill-rule:nonzero;stroke:none;stroke-width:0.35277775" />
    <path
       inkscape:connector-curvature="0"
       id="path9681"
       d="m 1.6101772,296.0023 v 0.073 c 0.1254019,-0.0579 0.3982508,-0.18052 0.6008229,-0.23013 v -0.0675 c -0.1984375,0.0455 -0.4602621,0.15985 -0.6008229,0.22462"
       style="fill:#ffffff;fill-opacity:1;fill-rule:nonzero;stroke:none;stroke-width:0.35277775" />
  </g>
</svg>
