<?xml version="1.0" encoding="UTF-8" standalone="no"?>
<!-- Created with Inkscape (http://www.inkscape.org/) -->

<svg
   xmlns:dc="http://purl.org/dc/elements/1.1/"
   xmlns:cc="http://creativecommons.org/ns#"
   xmlns:rdf="http://www.w3.org/1999/02/22-rdf-syntax-ns#"
   xmlns:svg="http://www.w3.org/2000/svg"
   xmlns="http://www.w3.org/2000/svg"
   xmlns:sodipodi="http://sodipodi.sourceforge.net/DTD/sodipodi-0.dtd"
   xmlns:inkscape="http://www.inkscape.org/namespaces/inkscape"
   width="3.75mm"
   height="3.75mm"
   viewBox="0 0 3.75 3.75"
   version="1.1"
   id="svg13826"
   inkscape:version="0.92.1 r15371"
   sodipodi:docname="calendar_light.svg">
  <defs
     id="defs13820" />
  <sodipodi:namedview
     id="base"
     pagecolor="#ffffff"
     bordercolor="#666666"
     borderopacity="1.0"
     inkscape:pageopacity="0.0"
     inkscape:pageshadow="2"
     inkscape:zoom="20.285322"
     inkscape:cx="7.3371728"
     inkscape:cy="7.4973999"
     inkscape:document-units="mm"
     inkscape:current-layer="layer1"
     showgrid="false"
     inkscape:window-width="561"
     inkscape:window-height="558"
     inkscape:window-x="687"
     inkscape:window-y="78"
     inkscape:window-maximized="0"
     showguides="true"
     inkscape:guide-bbox="true"
     gridtolerance="10"
     guidetolerance="2">
    <inkscape:grid
       type="xygrid"
       id="grid13828" />
    <sodipodi:guide
       position="0.13043093,3.8477124"
       orientation="1,0"
       id="guide20533"
       inkscape:locked="false" />
    <sodipodi:guide
       position="1.9173346,3.6129367"
       orientation="0,1"
       id="guide20535"
       inkscape:locked="false" />
  </sodipodi:namedview>
  <metadata
     id="metadata13823">
    <rdf:RDF>
      <cc:Work
         rdf:about="">
        <dc:format>image/svg+xml</dc:format>
        <dc:type
           rdf:resource="http://purl.org/dc/dcmitype/StillImage" />
        <dc:title></dc:title>
      </cc:Work>
    </rdf:RDF>
  </metadata>
  <g
     inkscape:label="Layer 1"
     inkscape:groupmode="layer"
     id="layer1"
     transform="translate(0,-293.25)">
    <path
       inkscape:connector-curvature="0"
       id="path9707"
       d="m 0.53742144,296.87944 c -0.23013106,0 -0.41754425,-0.18741 -0.41754425,-0.41892 v -2.65273 c 0,-0.23013 0.18741319,-0.41754 0.41754425,-0.41754 H 3.1929031 c 0.2301311,0 0.4175442,0.18741 0.4175442,0.41754 v 2.65273 c 0,0.23151 -0.1874131,0.41892 -0.4175442,0.41892 z m 0,0"
       style="fill:#211e1e;fill-opacity:1;fill-rule:nonzero;stroke:none;stroke-width:0.35277775" />
    <path
       inkscape:connector-curvature="0"
       id="path9709"
       d="m 0.53742144,293.46053 c -0.1901684,0 -0.34588803,0.15572 -0.34588803,0.34589 v 2.65548 c 0,0.19017 0.15571963,0.34588 0.34588803,0.34588 H 3.1929031 c 0.1901685,0 0.347264,-0.15571 0.347264,-0.34588 v -2.65548 c 0,-0.19017 -0.1570955,-0.34589 -0.347264,-0.34589 z m 0,0"
       style="fill:#ffffff;fill-opacity:1;fill-rule:nonzero;stroke:none;stroke-width:0.35277775" />
    <path
       inkscape:connector-curvature="0"
       id="path9711"
       d="m 2.5686488,293.74441 c 0.062015,0 0.1130018,0.0496 0.1130018,0.11162 v 0.35415 c 0,0.0606 -0.050987,0.11163 -0.1130018,0.11163 -0.060632,0 -0.1116189,-0.051 -0.1116189,-0.11163 v -0.35415 c 0,-0.062 0.050987,-0.11162 0.1116189,-0.11162"
       style="fill:#211e1e;fill-opacity:1;fill-rule:nonzero;stroke:none;stroke-width:0.35277775" />
    <path
       inkscape:connector-curvature="0"
       id="path9713"
       d="m 1.8575829,294.93227 h 0.1832786 v 1.03629 H 1.8341549 v -0.80064 l -0.1763889,0.14331 -0.1033533,-0.13642 z m 0,0"
       style="fill:#211e1e;fill-opacity:1;fill-rule:nonzero;stroke:none;stroke-width:0.35277775" />
    <path
       inkscape:connector-curvature="0"
       id="path9715"
       d="m 3.0165144,295.75221 -0.5126321,0.50711 H 0.71381028 V 294.6608 H 3.0165144 Z m -0.2080861,-1.68396 v 0.14193 c 0,0.13092 -0.1074878,0.2384 -0.2397795,0.2384 -0.1309123,0 -0.2384002,-0.10748 -0.2384002,-0.2384 v -0.14193 H 1.4000724 v 0.14193 c 0,0.13092 -0.1074843,0.2384 -0.2384001,0.2384 -0.1322917,0 -0.23977602,-0.10748 -0.23977602,-0.2384 v -0.14193 H 0.57187371 v 2.33164 H 3.1584509 v -2.33164 z m 0,0"
       style="fill:#211e1e;fill-opacity:1;fill-rule:nonzero;stroke:none;stroke-width:0.35277775" />
    <path
       inkscape:connector-curvature="0"
       id="path9717"
       d="m 1.1616723,293.74441 c 0.062011,0 0.1116224,0.0496 0.1116224,0.11162 v 0.35415 c 0,0.0606 -0.049611,0.11163 -0.1116224,0.11163 -0.062011,0 -0.1116189,-0.051 -0.1116189,-0.11163 v -0.35415 c 0,-0.062 0.049608,-0.11162 0.1116189,-0.11162"
       style="fill:#211e1e;fill-opacity:1;fill-rule:nonzero;stroke:none;stroke-width:0.35277775" />
    <path
       inkscape:connector-curvature="0"
       id="path9719"
       d="m 2.5686488,293.74441 c 0.062015,0 0.1130018,0.0496 0.1130018,0.11162 v 0.35415 c 0,0.0606 -0.050987,0.11163 -0.1130018,0.11163 -0.060632,0 -0.1116189,-0.051 -0.1116189,-0.11163 v -0.35415 c 0,-0.062 0.050987,-0.11162 0.1116189,-0.11162"
       style="fill:#211e1e;fill-opacity:1;fill-rule:nonzero;stroke:none;stroke-width:0.35277775" />
  </g>
</svg>
