<?xml version="1.0" encoding="UTF-8" standalone="no"?>
<!-- Created with Inkscape (http://www.inkscape.org/) -->

<svg
   xmlns:dc="http://purl.org/dc/elements/1.1/"
   xmlns:cc="http://creativecommons.org/ns#"
   xmlns:rdf="http://www.w3.org/1999/02/22-rdf-syntax-ns#"
   xmlns:svg="http://www.w3.org/2000/svg"
   xmlns="http://www.w3.org/2000/svg"
   xmlns:sodipodi="http://sodipodi.sourceforge.net/DTD/sodipodi-0.dtd"
   xmlns:inkscape="http://www.inkscape.org/namespaces/inkscape"
   width="3.75mm"
   height="3.75mm"
   viewBox="0 0 3.75 3.75"
   version="1.1"
   id="svg13826"
   inkscape:version="0.92.1 r15371"
   sodipodi:docname="directions_light.svg">
  <defs
     id="defs13820" />
  <sodipodi:namedview
     id="base"
     pagecolor="#ffffff"
     bordercolor="#666666"
     borderopacity="1.0"
     inkscape:pageopacity="0.0"
     inkscape:pageshadow="2"
     inkscape:zoom="20.285322"
     inkscape:cx="7.3371728"
     inkscape:cy="7.4973999"
     inkscape:document-units="mm"
     inkscape:current-layer="layer1"
     showgrid="false"
     inkscape:window-width="561"
     inkscape:window-height="558"
     inkscape:window-x="687"
     inkscape:window-y="78"
     inkscape:window-maximized="0"
     showguides="true"
     inkscape:guide-bbox="true"
     gridtolerance="10"
     guidetolerance="2">
    <inkscape:grid
       type="xygrid"
       id="grid13828" />
    <sodipodi:guide
       position="0.13043093,3.8477124"
       orientation="1,0"
       id="guide20533"
       inkscape:locked="false" />
    <sodipodi:guide
       position="1.9173346,3.6129367"
       orientation="0,1"
       id="guide20535"
       inkscape:locked="false" />
  </sodipodi:namedview>
  <metadata
     id="metadata13823">
    <rdf:RDF>
      <cc:Work
         rdf:about="">
        <dc:format>image/svg+xml</dc:format>
        <dc:type
           rdf:resource="http://purl.org/dc/dcmitype/StillImage" />
        <dc:title></dc:title>
      </cc:Work>
    </rdf:RDF>
  </metadata>
  <g
     inkscape:label="Layer 1"
     inkscape:groupmode="layer"
     id="layer1"
     transform="translate(0,-293.25)">
    <path
       inkscape:connector-curvature="0"
       id="path9411"
       d="m 0.55046454,296.87943 c -0.23013106,0 -0.41754425,-0.18603 -0.41754425,-0.41754 v -2.65548 c 0,-0.22876 0.18741319,-0.41617 0.41754425,-0.41617 H 3.2059462 c 0.2301311,0 0.4175442,0.18741 0.4175442,0.41617 v 2.65548 c 0,0.23151 -0.1874131,0.41754 -0.4175442,0.41754 z m 0,0"
       style="fill:#211e1e;fill-opacity:1;fill-rule:nonzero;stroke:none;stroke-width:0.35277775" />
    <path
       inkscape:connector-curvature="0"
       id="path9413"
       d="m 0.55046454,293.46052 c -0.19154776,0 -0.34588803,0.15572 -0.34588803,0.34589 v 2.65548 c 0,0.19017 0.15434027,0.34588 0.34588803,0.34588 H 3.2059462 c 0.1915443,0 0.347264,-0.15571 0.347264,-0.34588 v -2.65548 c 0,-0.19017 -0.1557197,-0.34589 -0.347264,-0.34589 z m 0,0"
       style="fill:#ffffff;fill-opacity:1;fill-rule:nonzero;stroke:none;stroke-width:0.35277775" />
    <path
       inkscape:connector-curvature="0"
       id="path9415"
       d="m 2.0525252,293.92078 c 0.5415704,0.0744 0.9701388,0.50299 1.0445539,1.04456 l 0.1295363,0.0427 0.1446954,0.0469 c -0.039966,-0.76068 -0.6490581,-1.36839 -1.4083558,-1.40836 l 0.046852,0.1447 z m 0,0"
       style="fill:#211e1e;fill-opacity:1;fill-rule:nonzero;stroke:none;stroke-width:0.35277775" />
    <path
       inkscape:connector-curvature="0"
       id="path9417"
       d="m 1.7162857,296.34475 c -0.5415703,-0.073 -0.97013887,-0.50298 -1.04317446,-1.04317 l -0.13091583,-0.0427 -0.14469179,-0.0482 c 0.0399627,0.76067 0.64905468,1.36977 1.40835588,1.40835 l -0.046856,-0.14331 z m 0,0"
       style="fill:#211e1e;fill-opacity:1;fill-rule:nonzero;stroke:none;stroke-width:0.35277775" />
    <path
       inkscape:connector-curvature="0"
       id="path9419"
       d="m 3.0970791,295.3002 c -0.074415,0.54157 -0.5029835,0.97014 -1.0445539,1.04455 l -0.042718,0.13092 -0.046852,0.14331 c 0.7592977,-0.0386 1.3683897,-0.64768 1.4083558,-1.40697 l -0.1446954,0.0469 z m 0,0"
       style="fill:#211e1e;fill-opacity:1;fill-rule:nonzero;stroke:none;stroke-width:0.35277775" />
    <path
       inkscape:connector-curvature="0"
       id="path9421"
       d="m 0.67311124,294.96534 c 0.0730356,-0.54157 0.50160416,-0.97014 1.04317446,-1.04456 l 0.042718,-0.13091 0.046856,-0.14332 c -0.7593012,0.04 -1.36839321,0.64768 -1.40835588,1.40836 l 0.14469179,-0.0469 z m 0,0"
       style="fill:#211e1e;fill-opacity:1;fill-rule:nonzero;stroke:none;stroke-width:0.35277775" />
    <path
       inkscape:connector-curvature="0"
       id="path9423"
       d="m 2.2619871,294.56433 0.00413,0.0138 0.042721,0.13091 0.1309123,0.0427 0.012418,0.004 0.013794,0.004 0.1943029,-0.36519 0.042718,-0.0813 -0.079925,0.0427 -0.3651779,0.19568 z m 0,0"
       style="fill:#211e1e;fill-opacity:1;fill-rule:nonzero;stroke:none;stroke-width:0.35277775" />
    <path
       inkscape:connector-curvature="0"
       id="path9425"
       d="m 1.1085695,294.39483 0.194303,0.36518 0.027552,-0.008 0.1295365,-0.0427 0.042718,-0.13092 0.00413,-0.0138 0.00413,-0.0124 -0.3651815,-0.19568 -0.079925,-0.0427 z m 0,0"
       style="fill:#211e1e;fill-opacity:1;fill-rule:nonzero;stroke:none;stroke-width:0.35277775" />
    <path
       inkscape:connector-curvature="0"
       id="path9427"
       d="m 1.5068239,295.70121 -0.00413,-0.0138 -0.042718,-0.12954 -0.1295364,-0.0427 -0.013794,-0.005 -0.013794,-0.004 -0.1943029,0.36656 -0.042718,0.0799 0.079925,-0.0427 0.3651814,-0.19431 z m 0,0"
       style="fill:#211e1e;fill-opacity:1;fill-rule:nonzero;stroke:none;stroke-width:0.35277775" />
    <path
       inkscape:connector-curvature="0"
       id="path9429"
       d="m 2.452159,295.50966 -0.012418,0.004 -0.1309123,0.0427 -0.042721,0.13091 -0.00825,0.0275 0.3651779,0.19431 0.079925,0.0427 -0.042718,-0.0799 -0.194303,-0.36656 z m 0,0"
       style="fill:#211e1e;fill-opacity:1;fill-rule:nonzero;stroke:none;stroke-width:0.35277775" />
    <path
       inkscape:connector-curvature="0"
       id="path9431"
       d="m 3.1081033,295.15826 0.07855,-0.0248 -0.07855,-0.0262 -0.903993,-0.29353 -0.3197048,-0.98254 -0.026176,0.0785 -0.2935217,0.90399 -0.90399306,0.29353 -0.0771701,0.0262 0.0771701,0.0248 0.90399306,0.29353 0.2935217,0.90399 0.026176,0.0785 0.026176,-0.0785 0.2935217,-0.90399 z m 0,0"
       style="fill:#211e1e;fill-opacity:1;fill-rule:nonzero;stroke:none;stroke-width:0.35277775" />
  </g>
</svg>
