<?xml version="1.0" encoding="UTF-8" standalone="no"?>
<!-- Created with Inkscape (http://www.inkscape.org/) -->

<svg
   xmlns:dc="http://purl.org/dc/elements/1.1/"
   xmlns:cc="http://creativecommons.org/ns#"
   xmlns:rdf="http://www.w3.org/1999/02/22-rdf-syntax-ns#"
   xmlns:svg="http://www.w3.org/2000/svg"
   xmlns="http://www.w3.org/2000/svg"
   xmlns:sodipodi="http://sodipodi.sourceforge.net/DTD/sodipodi-0.dtd"
   xmlns:inkscape="http://www.inkscape.org/namespaces/inkscape"
   width="3.75mm"
   height="3.75mm"
   viewBox="0 0 3.75 3.75"
   version="1.1"
   id="svg13826"
   inkscape:version="0.92.1 r15371"
   sodipodi:docname="driving_light.svg">
  <defs
     id="defs13820" />
  <sodipodi:namedview
     id="base"
     pagecolor="#ffffff"
     bordercolor="#666666"
     borderopacity="1.0"
     inkscape:pageopacity="0.0"
     inkscape:pageshadow="2"
     inkscape:zoom="20.285322"
     inkscape:cx="7.3371728"
     inkscape:cy="7.4973999"
     inkscape:document-units="mm"
     inkscape:current-layer="layer1"
     showgrid="false"
     inkscape:window-width="561"
     inkscape:window-height="558"
     inkscape:window-x="687"
     inkscape:window-y="78"
     inkscape:window-maximized="0"
     showguides="true"
     inkscape:guide-bbox="true"
     gridtolerance="10"
     guidetolerance="2">
    <inkscape:grid
       type="xygrid"
       id="grid13828" />
    <sodipodi:guide
       position="0.13043093,3.8477124"
       orientation="1,0"
       id="guide20533"
       inkscape:locked="false" />
    <sodipodi:guide
       position="1.9173346,3.6129367"
       orientation="0,1"
       id="guide20535"
       inkscape:locked="false" />
  </sodipodi:namedview>
  <metadata
     id="metadata13823">
    <rdf:RDF>
      <cc:Work
         rdf:about="">
        <dc:format>image/svg+xml</dc:format>
        <dc:type
           rdf:resource="http://purl.org/dc/dcmitype/StillImage" />
        <dc:title></dc:title>
      </cc:Work>
    </rdf:RDF>
  </metadata>
  <g
     inkscape:label="Layer 1"
     inkscape:groupmode="layer"
     id="layer1"
     transform="translate(0,-293.25)">
    <path
       inkscape:connector-curvature="0"
       id="path5077"
       d="m 0.53811286,296.86639 c -0.23013458,0 -0.41754777,-0.18603 -0.41754777,-0.41754 v -2.65411 c 0,-0.23013 0.18741319,-0.41754 0.41754777,-0.41754 H 3.1922117 c 0.2315104,0 0.4175477,0.18741 0.4175477,0.41754 v 2.65411 c 0,0.23151 -0.1860373,0.41754 -0.4175477,0.41754 z m 0,0"
       style="fill:#211e1e;fill-opacity:1;fill-rule:nonzero;stroke:none;stroke-width:0.35277775" />
    <path
       inkscape:connector-curvature="0"
       id="path5079"
       d="m 0.53811286,293.44748 c -0.19154775,0 -0.34588802,0.15572 -0.34588802,0.34589 v 2.65686 c 0,0.19016 0.15434027,0.34588 0.34588802,0.34588 H 3.1922117 c 0.1915478,0 0.3472675,-0.15572 0.3472675,-0.34588 v -2.65686 c 0,-0.19017 -0.1557197,-0.34589 -0.3472675,-0.34589 z m 0,0"
       style="fill:#ffffff;fill-opacity:1;fill-rule:nonzero;stroke:none;stroke-width:0.35277775" />
    <path
       inkscape:connector-curvature="0"
       id="path5081"
       d="m 2.1008055,293.60044 -0.2177274,0.21498 0.2177274,0.21772 H 1.916151 l -0.2177309,-0.21772 0.2177309,-0.21498 z m 0,0"
       style="fill:#211e1e;fill-opacity:1;fill-rule:nonzero;stroke:none;stroke-width:0.35277775" />
    <path
       inkscape:connector-curvature="0"
       id="path5083"
       d="m 1.6295191,296.21458 0.2177274,0.21635 -0.2177274,0.21773 h 0.1832786 l 0.2191068,-0.21773 -0.2191068,-0.21635 z m 0,0"
       style="fill:#211e1e;fill-opacity:1;fill-rule:nonzero;stroke:none;stroke-width:0.35277775" />
    <path
       inkscape:connector-curvature="0"
       id="path5085"
       d="m 2.4246449,294.89442 -0.1322917,-0.31971 c -0.00688,-0.0165 -0.022048,-0.0276 -0.039963,-0.0276 H 1.477934 c -0.017921,0 -0.033055,0.011 -0.038587,0.0276 l -0.1336675,0.31971 z m 0.1240226,0.25769 c 0,-0.062 -0.049608,-0.11162 -0.1116189,-0.11162 -0.062011,0 -0.1116225,0.0496 -0.1116225,0.11162 0,0.0606 0.049611,0.11162 0.1116225,0.11162 0.062011,0 0.1116189,-0.051 0.1116189,-0.11162 m -1.2636606,0.11162 c 0.060635,0 0.1116224,-0.051 0.1116224,-0.11162 0,-0.062 -0.050987,-0.11162 -0.1116224,-0.11162 -0.062011,0 -0.1116189,0.0496 -0.1116189,0.11162 0,0.0606 0.049608,0.11162 0.1116189,0.11162 m 0.1350504,0.27285 v 0.13505 c 0,0.073 -0.059256,0.13367 -0.1322917,0.13367 -0.073039,0 -0.1322916,-0.0606 -0.1322916,-0.13367 v -0.13505 H 1.0204236 v -0.43545 c 0,-0.0951 0.063391,-0.17502 0.1502057,-0.19982 l 0.157099,-0.36931 c 0.022049,-0.0551 0.075791,-0.0937 0.137802,-0.0937 h 0.7992639 c 0.062011,0 0.1157535,0.0386 0.1378021,0.0937 l 0.1570955,0.36931 c 0.086819,0.0248 0.151585,0.10473 0.151585,0.19982 v 0.43545 H 2.5748506 v 0.13505 c 0,0.073 -0.059256,0.13367 -0.1322916,0.13367 -0.074411,0 -0.1336675,-0.0606 -0.1336675,-0.13367 v -0.13505 z m 0,0"
       style="fill:#211e1e;fill-opacity:1;fill-rule:nonzero;stroke:none;stroke-width:0.35277775" />
    <path
       inkscape:connector-curvature="0"
       id="path5087"
       d="m 3.0447613,293.82506 c 0,0.0648 0.050991,0.11576 0.1171363,0.11576 0.063387,0 0.1143741,-0.051 0.1143741,-0.11576 0,-0.0634 -0.050987,-0.11438 -0.1143741,-0.11438 -0.066146,0 -0.1171363,0.051 -0.1171363,0.11438"
       style="fill:#211e1e;fill-opacity:1;fill-rule:nonzero;stroke:none;stroke-width:0.35277775" />
    <path
       inkscape:connector-curvature="0"
       id="path5089"
       d="m 0.68555986,296.41853 c 0,-0.0648 -0.050987,-0.11575 -0.11575344,-0.11575 -0.0633906,0 -0.11575698,0.051 -0.11575698,0.11575 0,0.0634 0.0523663,0.11438 0.11575698,0.11438 0.0647665,0 0.11575344,-0.051 0.11575344,-0.11438"
       style="fill:#211e1e;fill-opacity:1;fill-rule:nonzero;stroke:none;stroke-width:0.35277775" />
    <path
       inkscape:connector-curvature="0"
       id="path5091"
       d="m 1.0011337,296.54393 c 0.064766,0 0.1157535,-0.051 0.1157535,-0.11575 0,-0.0648 -0.050987,-0.11576 -0.1157535,-0.11576 -0.0633911,0 -0.11437764,0.051 -0.11437764,0.11576 0,0.0648 0.050987,0.11575 0.11437764,0.11575"
       style="fill:#211e1e;fill-opacity:1;fill-rule:nonzero;stroke:none;stroke-width:0.35277775" />
    <path
       inkscape:connector-curvature="0"
       id="path5093"
       d="m 1.4338368,296.54531 c 0.063391,0 0.1157534,-0.051 0.1157534,-0.11576 0,-0.0634 -0.052363,-0.11437 -0.1157534,-0.11437 -0.06477,0 -0.1171328,0.051 -0.1171328,0.11437 0,0.0648 0.052363,0.11576 0.1171328,0.11576"
       style="fill:#211e1e;fill-opacity:1;fill-rule:nonzero;stroke:none;stroke-width:0.35277775" />
    <path
       inkscape:connector-curvature="0"
       id="path5095"
       d="m 2.2978671,296.54531 c 0.063387,0 0.1143777,-0.051 0.1143777,-0.11576 0,-0.0634 -0.050991,-0.11437 -0.1143777,-0.11437 -0.06477,0 -0.1171327,0.051 -0.1171327,0.11437 0,0.0648 0.052363,0.11576 0.1171327,0.11576"
       style="fill:#211e1e;fill-opacity:1;fill-rule:nonzero;stroke:none;stroke-width:0.35277775" />
    <path
       inkscape:connector-curvature="0"
       id="path5097"
       d="m 2.7291909,296.54531 c 0.063391,0 0.115757,-0.051 0.115757,-0.11576 0,-0.0634 -0.052366,-0.11437 -0.115757,-0.11437 -0.066146,0 -0.1157534,0.051 -0.1157534,0.11437 0,0.0648 0.049608,0.11576 0.1157534,0.11576"
       style="fill:#211e1e;fill-opacity:1;fill-rule:nonzero;stroke:none;stroke-width:0.35277775" />
    <path
       inkscape:connector-curvature="0"
       id="path5099"
       d="m 3.1605181,296.54393 c 0.064766,0 0.1157536,-0.051 0.1157536,-0.11575 0,-0.0634 -0.050987,-0.11438 -0.1157536,-0.11438 -0.064766,0 -0.1157568,0.051 -0.1157568,0.11438 0,0.0648 0.050991,0.11575 0.1157568,0.11575"
       style="fill:#211e1e;fill-opacity:1;fill-rule:nonzero;stroke:none;stroke-width:0.35277775" />
    <path
       inkscape:connector-curvature="0"
       id="path5101"
       d="m 0.68555986,295.98445 c 0,-0.0634 -0.050987,-0.11438 -0.11575344,-0.11438 -0.0633906,0 -0.11575698,0.051 -0.11575698,0.11438 0,0.0648 0.0523663,0.11575 0.11575698,0.11575 0.0647665,0 0.11575344,-0.051 0.11575344,-0.11575"
       style="fill:#211e1e;fill-opacity:1;fill-rule:nonzero;stroke:none;stroke-width:0.35277775" />
    <path
       inkscape:connector-curvature="0"
       id="path5103"
       d="m 0.68555986,295.55036 c 0,-0.0648 -0.050987,-0.11575 -0.11575344,-0.11575 -0.0633906,0 -0.11575698,0.051 -0.11575698,0.11575 0,0.0634 0.0523663,0.11576 0.11575698,0.11576 0.0647665,0 0.11575344,-0.0524 0.11575344,-0.11576"
       style="fill:#211e1e;fill-opacity:1;fill-rule:nonzero;stroke:none;stroke-width:0.35277775" />
    <path
       inkscape:connector-curvature="0"
       id="path5105"
       d="m 0.68555986,295.11629 c 0,-0.0634 -0.050987,-0.11576 -0.11575344,-0.11576 -0.0633906,0 -0.11575698,0.0524 -0.11575698,0.11576 0,0.0648 0.0523663,0.11575 0.11575698,0.11575 0.0647665,0 0.11575344,-0.051 0.11575344,-0.11575"
       style="fill:#211e1e;fill-opacity:1;fill-rule:nonzero;stroke:none;stroke-width:0.35277775" />
    <path
       inkscape:connector-curvature="0"
       id="path5107"
       d="m 0.68555986,294.6822 c 0,-0.0648 -0.050987,-0.11575 -0.11575344,-0.11575 -0.0633906,0 -0.11575698,0.051 -0.11575698,0.11575 0,0.0634 0.0523663,0.11576 0.11575698,0.11576 0.0647665,0 0.11575344,-0.0524 0.11575344,-0.11576"
       style="fill:#211e1e;fill-opacity:1;fill-rule:nonzero;stroke:none;stroke-width:0.35277775" />
    <path
       inkscape:connector-curvature="0"
       id="path5109"
       d="m 0.68555986,294.24812 c 0,-0.0648 -0.050987,-0.11576 -0.11575344,-0.11576 -0.0633906,0 -0.11575698,0.051 -0.11575698,0.11576 0,0.062 0.0523663,0.11438 0.11575698,0.11438 0.0647665,0 0.11575344,-0.0524 0.11575344,-0.11438"
       style="fill:#211e1e;fill-opacity:1;fill-rule:nonzero;stroke:none;stroke-width:0.35277775" />
    <path
       inkscape:connector-curvature="0"
       id="path5111"
       d="m 0.68555986,293.81404 c 0,-0.0648 -0.050987,-0.11576 -0.11575344,-0.11576 -0.0633906,0 -0.11575698,0.051 -0.11575698,0.11576 0,0.0634 0.0523663,0.11438 0.11575698,0.11438 0.0647665,0 0.11575344,-0.051 0.11575344,-0.11438"
       style="fill:#211e1e;fill-opacity:1;fill-rule:nonzero;stroke:none;stroke-width:0.35277775" />
    <path
       inkscape:connector-curvature="0"
       id="path5113"
       d="m 2.7291909,293.69828 c -0.064767,0 -0.1171328,0.051 -0.1171328,0.11576 0,0.0634 0.052366,0.11438 0.1171328,0.11438 0.063391,0 0.115757,-0.051 0.115757,-0.11438 0,-0.0648 -0.052366,-0.11576 -0.115757,-0.11576"
       style="fill:#211e1e;fill-opacity:1;fill-rule:nonzero;stroke:none;stroke-width:0.35277775" />
    <path
       inkscape:connector-curvature="0"
       id="path5115"
       d="m 2.2964878,293.69828 c -0.063391,0 -0.1157534,0.051 -0.1157534,0.11576 0,0.0634 0.052363,0.11438 0.1157534,0.11438 0.064766,0 0.115757,-0.051 0.115757,-0.11438 0,-0.0648 -0.050991,-0.11576 -0.115757,-0.11576"
       style="fill:#211e1e;fill-opacity:1;fill-rule:nonzero;stroke:none;stroke-width:0.35277775" />
    <path
       inkscape:connector-curvature="0"
       id="path5117"
       d="m 1.4338368,293.69828 c -0.06477,0 -0.1171328,0.051 -0.1171328,0.11576 0,0.0634 0.052363,0.11438 0.1171328,0.11438 0.064766,0 0.1157534,-0.051 0.1157534,-0.11438 0,-0.0648 -0.050987,-0.11576 -0.1157534,-0.11576"
       style="fill:#211e1e;fill-opacity:1;fill-rule:nonzero;stroke:none;stroke-width:0.35277775" />
    <path
       inkscape:connector-curvature="0"
       id="path5119"
       d="m 1.0025096,293.69828 c -0.0647661,0 -0.11713289,0.051 -0.11713289,0.11576 0,0.0634 0.0523663,0.11438 0.11713289,0.11438 0.06477,0 0.1157569,-0.051 0.1157569,-0.11438 0,-0.0648 -0.050987,-0.11576 -0.1157569,-0.11576"
       style="fill:#211e1e;fill-opacity:1;fill-rule:nonzero;stroke:none;stroke-width:0.35277775" />
    <path
       inkscape:connector-curvature="0"
       id="path5121"
       d="m 3.0447613,294.25914 c 0,0.0634 0.050991,0.11576 0.1171363,0.11576 0.063387,0 0.1143741,-0.0524 0.1143741,-0.11576 0,-0.0648 -0.050987,-0.11575 -0.1143741,-0.11575 -0.066146,0 -0.1171363,0.051 -0.1171363,0.11575"
       style="fill:#211e1e;fill-opacity:1;fill-rule:nonzero;stroke:none;stroke-width:0.35277775" />
    <path
       inkscape:connector-curvature="0"
       id="path5123"
       d="m 3.0447613,294.69323 c 0,0.062 0.050991,0.11575 0.1157568,0.11575 0.063391,0 0.1157536,-0.0537 0.1157536,-0.11575 0,-0.0648 -0.052363,-0.11714 -0.1157536,-0.11714 -0.064766,0 -0.1157568,0.0524 -0.1157568,0.11714"
       style="fill:#211e1e;fill-opacity:1;fill-rule:nonzero;stroke:none;stroke-width:0.35277775" />
    <path
       inkscape:connector-curvature="0"
       id="path5125"
       d="m 3.0447613,295.12593 c 0,0.0634 0.050991,0.11713 0.1157568,0.11713 0.063391,0 0.1157536,-0.0537 0.1157536,-0.11713 0,-0.062 -0.052363,-0.11576 -0.1157536,-0.11576 -0.064766,0 -0.1157568,0.0537 -0.1157568,0.11576"
       style="fill:#211e1e;fill-opacity:1;fill-rule:nonzero;stroke:none;stroke-width:0.35277775" />
    <path
       inkscape:connector-curvature="0"
       id="path5127"
       d="m 3.0447613,295.56139 c 0,0.0634 0.050991,0.11438 0.1157568,0.11438 0.063391,0 0.1157536,-0.051 0.1157536,-0.11438 0,-0.0648 -0.052363,-0.11576 -0.1157536,-0.11576 -0.064766,0 -0.1157568,0.051 -0.1157568,0.11576"
       style="fill:#211e1e;fill-opacity:1;fill-rule:nonzero;stroke:none;stroke-width:0.35277775" />
    <path
       inkscape:connector-curvature="0"
       id="path5129"
       d="m 3.0447613,295.99409 c 0,0.0634 0.050991,0.11714 0.1157568,0.11714 0.063391,0 0.1157536,-0.0538 0.1157536,-0.11714 0,-0.062 -0.052363,-0.11575 -0.1157536,-0.11575 -0.064766,0 -0.1157568,0.0537 -0.1157568,0.11575"
       style="fill:#211e1e;fill-opacity:1;fill-rule:nonzero;stroke:none;stroke-width:0.35277775" />
  </g>
</svg>
