<?xml version="1.0" encoding="UTF-8" standalone="no"?>
<!-- Created with Inkscape (http://www.inkscape.org/) -->

<svg
   xmlns:dc="http://purl.org/dc/elements/1.1/"
   xmlns:cc="http://creativecommons.org/ns#"
   xmlns:rdf="http://www.w3.org/1999/02/22-rdf-syntax-ns#"
   xmlns:svg="http://www.w3.org/2000/svg"
   xmlns="http://www.w3.org/2000/svg"
   xmlns:sodipodi="http://sodipodi.sourceforge.net/DTD/sodipodi-0.dtd"
   xmlns:inkscape="http://www.inkscape.org/namespaces/inkscape"
   width="3.75mm"
   height="3.75mm"
   viewBox="0 0 3.75 3.75"
   version="1.1"
   id="svg13826"
   inkscape:version="0.92.1 r15371"
   sodipodi:docname="interpretive_light.svg">
  <defs
     id="defs13820" />
  <sodipodi:namedview
     id="base"
     pagecolor="#ffffff"
     bordercolor="#666666"
     borderopacity="1.0"
     inkscape:pageopacity="0.0"
     inkscape:pageshadow="2"
     inkscape:zoom="20.285322"
     inkscape:cx="7.3371728"
     inkscape:cy="7.4973999"
     inkscape:document-units="mm"
     inkscape:current-layer="layer1"
     showgrid="false"
     inkscape:window-width="561"
     inkscape:window-height="558"
     inkscape:window-x="687"
     inkscape:window-y="78"
     inkscape:window-maximized="0"
     showguides="true"
     inkscape:guide-bbox="true"
     gridtolerance="10"
     guidetolerance="2">
    <inkscape:grid
       type="xygrid"
       id="grid13828" />
    <sodipodi:guide
       position="0.13043093,3.8477124"
       orientation="1,0"
       id="guide20533"
       inkscape:locked="false" />
    <sodipodi:guide
       position="1.9173346,3.6129367"
       orientation="0,1"
       id="guide20535"
       inkscape:locked="false" />
  </sodipodi:namedview>
  <metadata
     id="metadata13823">
    <rdf:RDF>
      <cc:Work
         rdf:about="">
        <dc:format>image/svg+xml</dc:format>
        <dc:type
           rdf:resource="http://purl.org/dc/dcmitype/StillImage" />
        <dc:title></dc:title>
      </cc:Work>
    </rdf:RDF>
  </metadata>
  <g
     inkscape:label="Layer 1"
     inkscape:groupmode="layer"
     id="layer1"
     transform="translate(0,-293.25)">
    <path
       inkscape:connector-curvature="0"
       id="path5275"
       d="m 3.2045686,296.87805 c 0.2301311,0 0.4175442,-0.18604 0.4175442,-0.41617 v -2.6541 c 0,-0.23014 -0.1874131,-0.41617 -0.4175442,-0.41617 h -2.652723 c -0.23013458,0 -0.41754777,0.18603 -0.41754777,0.41617 v 2.6541 c 0,0.23013 0.18741319,0.41617 0.41754777,0.41617 z m 0,0"
       style="fill:#211e1e;fill-opacity:1;fill-rule:nonzero;stroke:none;stroke-width:0.35277775" />
    <path
       inkscape:connector-curvature="0"
       id="path5277"
       d="m 0.5518456,293.46189 c -0.19154775,0 -0.34726738,0.15572 -0.34726738,0.34589 v 2.6541 c 0,0.19017 0.15571963,0.34589 0.34726738,0.34589 h 2.652723 c 0.1915477,0 0.3458879,-0.15572 0.3458879,-0.34589 v -2.6541 c 0,-0.19017 -0.1543402,-0.34589 -0.3458879,-0.34589 z m 0,0"
       style="fill:#ffffff;fill-opacity:1;fill-rule:nonzero;stroke:none;stroke-width:0.35277775" />
    <path
       inkscape:connector-curvature="0"
       id="path5279"
       d="M 0.75717285,294.93501 1.2946086,294.04204 H 1.019001 l -0.5374358,0.89435 v 1.3932 h 0.27560765 z m 0,0"
       style="fill:#211e1e;fill-opacity:1;fill-rule:nonzero;stroke:none;stroke-width:0.35277775" />
    <path
       inkscape:connector-curvature="0"
       id="path5281"
       d="m 2.8256077,294.93639 0.5360564,-0.89435 H 3.0860564 L 2.55,294.93639 v 1.3932 h 0.2756077 z m 0,0"
       style="fill:#211e1e;fill-opacity:1;fill-rule:nonzero;stroke:none;stroke-width:0.35277775" />
    <path
       inkscape:connector-curvature="0"
       id="path5283"
       d="m 2.6313047,294.2267 -0.026176,0.0441 h -1.107941 l 0.026176,-0.0441 0.027552,-0.0441 h 1.1065651 z m -0.099219,0.16537 -0.0248,0.0441 H 1.3979654 l 0.052363,-0.0882 h 1.1079445 z m -0.097839,0.16398 -0.026176,0.0441 H 1.300126 l 0.052366,-0.0882 h 1.1079409 z m -0.099219,0.16675 -0.026176,0.0441 H 1.2009073 l 0.052366,-0.0882 h 1.1079409 z m -0.899862,-0.68351 -0.53605635,0.8971 H 2.4066841 l 0.5374358,-0.8971 z m 0,0"
       style="fill:#211e1e;fill-opacity:1;fill-rule:nonzero;stroke:none;stroke-width:0.35277775" />
  </g>
</svg>
