<?xml version="1.0" encoding="UTF-8" standalone="no"?>
<!-- Created with Inkscape (http://www.inkscape.org/) -->

<svg
   xmlns:dc="http://purl.org/dc/elements/1.1/"
   xmlns:cc="http://creativecommons.org/ns#"
   xmlns:rdf="http://www.w3.org/1999/02/22-rdf-syntax-ns#"
   xmlns:svg="http://www.w3.org/2000/svg"
   xmlns="http://www.w3.org/2000/svg"
   xmlns:sodipodi="http://sodipodi.sourceforge.net/DTD/sodipodi-0.dtd"
   xmlns:inkscape="http://www.inkscape.org/namespaces/inkscape"
   width="3.75mm"
   height="3.75mm"
   viewBox="0 0 3.75 3.75"
   version="1.1"
   id="svg13826"
   inkscape:version="0.92.1 r15371"
   sodipodi:docname="library_dark.svg">
  <defs
     id="defs13820" />
  <sodipodi:namedview
     id="base"
     pagecolor="#ffffff"
     bordercolor="#666666"
     borderopacity="1.0"
     inkscape:pageopacity="0.0"
     inkscape:pageshadow="2"
     inkscape:zoom="20.285322"
     inkscape:cx="7.3371728"
     inkscape:cy="7.4973999"
     inkscape:document-units="mm"
     inkscape:current-layer="layer1"
     showgrid="false"
     inkscape:window-width="561"
     inkscape:window-height="558"
     inkscape:window-x="687"
     inkscape:window-y="78"
     inkscape:window-maximized="0"
     showguides="true"
     inkscape:guide-bbox="true"
     gridtolerance="10"
     guidetolerance="2">
    <inkscape:grid
       type="xygrid"
       id="grid13828" />
    <sodipodi:guide
       position="0.13043093,3.8477124"
       orientation="1,0"
       id="guide20533"
       inkscape:locked="false" />
    <sodipodi:guide
       position="1.9173346,3.6129367"
       orientation="0,1"
       id="guide20535"
       inkscape:locked="false" />
  </sodipodi:namedview>
  <metadata
     id="metadata13823">
    <rdf:RDF>
      <cc:Work
         rdf:about="">
        <dc:format>image/svg+xml</dc:format>
        <dc:type
           rdf:resource="http://purl.org/dc/dcmitype/StillImage" />
        <dc:title></dc:title>
      </cc:Work>
    </rdf:RDF>
  </metadata>
  <g
     inkscape:label="Layer 1"
     inkscape:groupmode="layer"
     id="layer1"
     transform="translate(0,-293.25)">
    <path
       inkscape:connector-curvature="0"
       id="path3703"
       d="m 0.55115591,293.44886 c -0.1901684,0 -0.34588803,0.15572 -0.34588803,0.34589 v 2.6541 c 0,0.19017 0.15571963,0.34451 0.34588803,0.34451 H 3.2052583 c 0.1901684,0 0.3458845,-0.15434 0.3458845,-0.34451 v -2.6541 c 0,-0.19017 -0.1557161,-0.34589 -0.3458845,-0.34589 z m 0,0"
       style="fill:#ffffff;fill-opacity:1;fill-rule:nonzero;stroke:none;stroke-width:0.35277775" />
    <path
       inkscape:connector-curvature="0"
       id="path3705"
       d="m 3.2052583,296.86502 c 0.2301311,0 0.4161649,-0.18604 0.4161649,-0.41617 v -2.6541 c 0,-0.23014 -0.1860338,-0.41617 -0.4161649,-0.41617 H 0.55115591 c -0.23013459,0 -0.41616842,0.18603 -0.41616842,0.41617 v 2.6541 c 0,0.23013 0.18603383,0.41617 0.41616842,0.41617 z m 0,0"
       style="fill:#211e1e;fill-opacity:1;fill-rule:nonzero;stroke:none;stroke-width:0.35277775" />
    <path
       inkscape:connector-curvature="0"
       id="path3707"
       d="m 1.8850968,294.54578 c 0.2108377,0 0.3817162,-0.17226 0.3817162,-0.3831 0,-0.21222 -0.1708785,-0.38309 -0.3817162,-0.38309 -0.212217,0 -0.3830955,0.17087 -0.3830955,0.38309 0,0.21084 0.1708785,0.3831 0.3830955,0.3831"
       style="fill:#ffffff;fill-opacity:1;fill-rule:nonzero;stroke:none;stroke-width:0.35277775" />
    <path
       inkscape:connector-curvature="0"
       id="path3709"
       d="m 1.8768277,295.89212 0.4409722,-0.14607 -0.00963,-0.001 c -0.304546,-0.0896 -0.1860373,-0.49334 0.1185087,-0.40239 l 0.041342,0.0138 v -0.45475 l -0.591178,0.19293 -0.5925572,-0.19293 v 0.45475 l 0.041342,-0.0138 c 0.304546,-0.0909 0.4244375,0.31282 0.1185121,0.40239 l -0.00963,0.001 z m 0.3803403,-1.25263 c 0.1750095,0.005 0.2480451,0.14607 0.2480451,0.14607 l 0.5649947,0.77445 c 0.023424,0.0358 0.037208,0.0772 0.037208,0.12265 0,0.11989 -0.09784,0.21773 -0.217731,0.21773 -0.028928,0 -0.055121,-0.006 -0.079925,-0.0152 l -0.3417534,-0.0951 v 0.34037 H 1.2842705 v -0.34037 l -0.34175354,0.0951 c -0.0234243,0.01 -0.0509869,0.0152 -0.0799253,0.0152 -0.119888,0 -0.21773089,-0.0978 -0.21773089,-0.21773 0,-0.0455 0.0137935,-0.0868 0.0372075,-0.12265 l 0.56499483,-0.77445 c 0,0 0.074415,-0.14056 0.249428,-0.14607 z m 0,0"
       style="fill:#ffffff;fill-opacity:1;fill-rule:nonzero;stroke:none;stroke-width:0.35277775" />
    <path
       inkscape:connector-curvature="0"
       id="path3711"
       d="m 3.0922566,296.39786 c 0.030304,0 0.055121,-0.0234 0.055121,-0.0537 0,-0.0303 -0.0248,-0.0551 -0.055121,-0.0551 H 0.70274096 c -0.0289278,0 -0.0537457,0.0248 -0.0537457,0.0551 0,0.0303 0.0248002,0.0537 0.0537457,0.0537 z m 0,0"
       style="fill:#ffffff;fill-opacity:1;fill-rule:nonzero;stroke:none;stroke-width:0.35277775" />
  </g>
</svg>
