<?xml version="1.0" encoding="UTF-8" standalone="no"?>
<!-- Created with Inkscape (http://www.inkscape.org/) -->

<svg
   xmlns:dc="http://purl.org/dc/elements/1.1/"
   xmlns:cc="http://creativecommons.org/ns#"
   xmlns:rdf="http://www.w3.org/1999/02/22-rdf-syntax-ns#"
   xmlns:svg="http://www.w3.org/2000/svg"
   xmlns="http://www.w3.org/2000/svg"
   xmlns:sodipodi="http://sodipodi.sourceforge.net/DTD/sodipodi-0.dtd"
   xmlns:inkscape="http://www.inkscape.org/namespaces/inkscape"
   width="3.75mm"
   height="3.75mm"
   viewBox="0 0 3.75 3.75"
   version="1.1"
   id="svg13826"
   inkscape:version="0.92.1 r15371"
   sodipodi:docname="maps_light.svg">
  <defs
     id="defs13820" />
  <sodipodi:namedview
     id="base"
     pagecolor="#ffffff"
     bordercolor="#666666"
     borderopacity="1.0"
     inkscape:pageopacity="0.0"
     inkscape:pageshadow="2"
     inkscape:zoom="20.285322"
     inkscape:cx="7.3371728"
     inkscape:cy="7.4973999"
     inkscape:document-units="mm"
     inkscape:current-layer="layer1"
     showgrid="false"
     inkscape:window-width="561"
     inkscape:window-height="558"
     inkscape:window-x="687"
     inkscape:window-y="78"
     inkscape:window-maximized="0"
     showguides="true"
     inkscape:guide-bbox="true"
     gridtolerance="10"
     guidetolerance="2">
    <inkscape:grid
       type="xygrid"
       id="grid13828" />
    <sodipodi:guide
       position="0.13043093,3.8477124"
       orientation="1,0"
       id="guide20533"
       inkscape:locked="false" />
    <sodipodi:guide
       position="1.9173346,3.6129367"
       orientation="0,1"
       id="guide20535"
       inkscape:locked="false" />
  </sodipodi:namedview>
  <metadata
     id="metadata13823">
    <rdf:RDF>
      <cc:Work
         rdf:about="">
        <dc:format>image/svg+xml</dc:format>
        <dc:type
           rdf:resource="http://purl.org/dc/dcmitype/StillImage" />
        <dc:title></dc:title>
      </cc:Work>
    </rdf:RDF>
  </metadata>
  <g
     inkscape:label="Layer 1"
     inkscape:groupmode="layer"
     id="layer1"
     transform="translate(0,-293.25)">
    <path
       inkscape:connector-curvature="0"
       id="path9399"
       d="m 0.5497783,296.89179 c -0.23013459,0 -0.41616842,-0.18604 -0.41616842,-0.41755 v -2.6541 c 0,-0.23014 0.18603383,-0.41617 0.41616842,-0.41617 h 2.6554782 c 0.2301311,0 0.4175443,0.18603 0.4175443,0.41617 v 2.6541 c 0,0.23151 -0.1874132,0.41755 -0.4175443,0.41755 z m 0,0"
       style="fill:#211e1e;fill-opacity:1;fill-rule:nonzero;stroke:none;stroke-width:0.35277775" />
    <path
       inkscape:connector-curvature="0"
       id="path9401"
       d="m 0.5497783,293.47425 c -0.19017193,0 -0.34588803,0.15572 -0.34588803,0.34589 v 2.6541 c 0,0.19155 0.1557161,0.34726 0.34588803,0.34726 h 2.6554782 c 0.1915478,0 0.3472638,-0.15571 0.3472638,-0.34726 v -2.6541 c 0,-0.19017 -0.155716,-0.34589 -0.3472638,-0.34589 z m 0,0"
       style="fill:#ffffff;fill-opacity:1;fill-rule:nonzero;stroke:none;stroke-width:0.35277775" />
    <path
       inkscape:connector-curvature="0"
       id="path9403"
       d="m 0.55528867,296.55279 1.26503993,-0.44787 v -2.3151 l -1.26503993,0.44786 z m 0,0"
       style="fill:#211e1e;fill-opacity:1;fill-rule:nonzero;stroke:none;stroke-width:0.35277775" />
    <path
       inkscape:connector-curvature="0"
       id="path9405"
       d="m 3.2617575,296.55279 -1.2664194,-0.44787 v -2.3151 l 1.2664194,0.44786 z m 0,0"
       style="fill:#211e1e;fill-opacity:1;fill-rule:nonzero;stroke:none;stroke-width:0.35277775" />
    <path
       inkscape:connector-curvature="0"
       id="path9407"
       d="m 2.4432001,295.30291 0.2218655,0.0772 0.07717,0.17501 0.09095,-0.11576 0.2067065,0.0717 -0.1667438,0.19293 0.1777682,0.34037 -0.2177309,-0.0772 -0.09095,-0.20119 -0.1047327,0.13229 -0.2039479,-0.0703 0.1777683,-0.21497 z m 0,0"
       style="fill:#ffffff;fill-opacity:1;fill-rule:nonzero;stroke:none;stroke-width:0.35277775" />
    <path
       inkscape:connector-curvature="0"
       id="path9409"
       d="m 2.2006654,294.42923 c -0.068901,-0.022 -0.143316,-0.0345 -0.221862,-0.0386 l 0.00688,-0.15434 c 0.092329,0.004 0.1805234,0.0193 0.2618281,0.0455 z m -0.5360564,0.022 -0.078546,-0.13229 c 0.081301,-0.0482 0.1722543,-0.0758 0.2673385,-0.0813 l 0.00963,0.15434 c -0.073036,0.004 -0.137802,0.0234 -0.1984374,0.0593 m 0.8199331,0.14883 c -0.053742,-0.0524 -0.1143776,-0.0965 -0.1805234,-0.12954 l 0.068901,-0.1378 c 0.081305,0.04 0.1543403,0.0937 0.2191103,0.15709 z m -1.0445538,0.0909 -0.1322917,-0.0785 c 0.049611,-0.0841 0.1061085,-0.15572 0.166744,-0.21084 l 0.1033533,0.11438 c -0.048232,0.0455 -0.095084,0.10473 -0.1378056,0.17501 m 1.2292118,0.18879 c -0.028928,-0.0717 -0.066146,-0.1378 -0.1102431,-0.19568 l 0.1226432,-0.0937 c 0.053746,0.0703 0.097843,0.14883 0.1309158,0.23289 z m -1.375283,0.13504 -0.1460711,-0.0524 c 0.034466,-0.0923 0.064766,-0.16812 0.097839,-0.23564 l 0.1391814,0.0675 c -0.030304,0.062 -0.059256,0.13229 -0.09095,0.22048 m 1.5792308,0.2136 -0.1515815,-0.0289 c 0.00282,-0.0152 0.00413,-0.0331 0.00413,-0.0537 0,-0.0469 -0.00688,-0.10197 -0.022048,-0.15709 l 0.1502091,-0.0386 c 0.016544,0.0689 0.026175,0.13642 0.026175,0.19568 0,0.0303 -0.00282,0.0579 -0.00688,0.0827 m -1.8121196,0.12127 -0.0950841,-0.12127 c 0.0551221,-0.0441 0.10197755,-0.0992 0.13780565,-0.16398 l 0.1350468,0.0744 c -0.045477,0.0827 -0.1061084,0.15434 -0.1777682,0.21084 m -0.38722656,0.14745 -0.002822,-0.15434 c 0,0 0.09646,-0.003 0.2039479,-0.0565 l 0.068901,0.1378 c -0.14055726,0.0703 -0.26595918,0.073 -0.27009372,0.073"
       style="fill:#ffffff;fill-opacity:1;fill-rule:nonzero;stroke:none;stroke-width:0.35277775" />
  </g>
</svg>
