<?xml version="1.0" encoding="UTF-8" standalone="no"?>
<!-- Created with Inkscape (http://www.inkscape.org/) -->

<svg
   xmlns:dc="http://purl.org/dc/elements/1.1/"
   xmlns:cc="http://creativecommons.org/ns#"
   xmlns:rdf="http://www.w3.org/1999/02/22-rdf-syntax-ns#"
   xmlns:svg="http://www.w3.org/2000/svg"
   xmlns="http://www.w3.org/2000/svg"
   xmlns:sodipodi="http://sodipodi.sourceforge.net/DTD/sodipodi-0.dtd"
   xmlns:inkscape="http://www.inkscape.org/namespaces/inkscape"
   width="3.75mm"
   height="3.75mm"
   viewBox="0 0 3.75 3.75"
   version="1.1"
   id="svg13826"
   inkscape:version="0.92.1 r15371"
   sodipodi:docname="museum_light.svg">
  <defs
     id="defs13820" />
  <sodipodi:namedview
     id="base"
     pagecolor="#ffffff"
     bordercolor="#666666"
     borderopacity="1.0"
     inkscape:pageopacity="0.0"
     inkscape:pageshadow="2"
     inkscape:zoom="20.285322"
     inkscape:cx="7.3371728"
     inkscape:cy="7.4973999"
     inkscape:document-units="mm"
     inkscape:current-layer="layer1"
     showgrid="false"
     inkscape:window-width="561"
     inkscape:window-height="558"
     inkscape:window-x="687"
     inkscape:window-y="78"
     inkscape:window-maximized="0"
     showguides="true"
     inkscape:guide-bbox="true"
     gridtolerance="10"
     guidetolerance="2">
    <inkscape:grid
       type="xygrid"
       id="grid13828" />
    <sodipodi:guide
       position="0.13043093,3.8477124"
       orientation="1,0"
       id="guide20533"
       inkscape:locked="false" />
    <sodipodi:guide
       position="1.9173346,3.6129367"
       orientation="0,1"
       id="guide20535"
       inkscape:locked="false" />
  </sodipodi:namedview>
  <metadata
     id="metadata13823">
    <rdf:RDF>
      <cc:Work
         rdf:about="">
        <dc:format>image/svg+xml</dc:format>
        <dc:type
           rdf:resource="http://purl.org/dc/dcmitype/StillImage" />
        <dc:title></dc:title>
      </cc:Work>
    </rdf:RDF>
  </metadata>
  <g
     inkscape:label="Layer 1"
     inkscape:groupmode="layer"
     id="layer1"
     transform="translate(0,-293.25)">
    <path
       inkscape:connector-curvature="0"
       id="path6423"
       d="m 3.5250582,296.45733 c 0,0.19017 -0.1543402,0.34451 -0.3458879,0.34451 H 0.52506797 c -0.1901684,0 -0.34588803,-0.15434 -0.34588803,-0.34451 v -2.6541 c 0,-0.19017 0.15571963,-0.34589 0.34588803,-0.34589 H 3.1791703 c 0.1915477,0 0.3458879,0.15572 0.3458879,0.34589 z m 0,0"
       style="fill:#ffffff;fill-opacity:1;fill-rule:nonzero;stroke:none;stroke-width:0.35277775" />
    <path
       inkscape:connector-curvature="0"
       id="path6425"
       d="M 1.3629151,295.96124 H 0.963285 v -1.13964 h 0.3996301 z m 0.9673837,-1.13964 h 0.4010095 v 1.13964 H 2.3302988 Z m -0.7055556,0 H 2.06985 v 1.13964 H 1.6247432 Z m -1.04593307,1.13964 -0.16811979,0.27698 2.88285746,-0.005 -0.157099,-0.27147 H 2.9917572 v -1.13964 h 0.2824972 v -0.39688 H 3.0606581 l -1.1906249,-0.40376 -1.21405295,0.40376 H 0.43825288 v 0.39688 h 0.26458331 v 1.13964 z m 0,0"
       style="fill:#211e1e;fill-opacity:1;fill-rule:nonzero;stroke:none;stroke-width:0.35277775" />
    <path
       inkscape:connector-curvature="0"
       id="path6427"
       d="m 3.5250582,296.45733 c 0,0.19017 -0.1543402,0.34451 -0.3458879,0.34451 H 0.52506797 c -0.1901684,0 -0.34588803,-0.15434 -0.34588803,-0.34451 v -2.6541 c 0,-0.19017 0.15571963,-0.34589 0.34588803,-0.34589 H 3.1791703 c 0.1915477,0 0.3458879,0.15572 0.3458879,0.34589 z M 3.1791703,293.38706 H 0.52506797 c -0.23013106,0 -0.41616842,0.18604 -0.41616842,0.41617 v 2.6541 c 0,0.23013 0.18603736,0.41617 0.41616842,0.41617 H 3.1791703 c 0.2301311,0 0.4161684,-0.18604 0.4161684,-0.41617 v -2.6541 c 0,-0.23013 -0.1860373,-0.41617 -0.4161684,-0.41617"
       style="fill:#211e1e;fill-opacity:1;fill-rule:nonzero;stroke:none;stroke-width:0.35277775" />
  </g>
</svg>
