<?xml version="1.0" encoding="UTF-8" standalone="no"?>
<!-- Created with Inkscape (http://www.inkscape.org/) -->

<svg
   xmlns:dc="http://purl.org/dc/elements/1.1/"
   xmlns:cc="http://creativecommons.org/ns#"
   xmlns:rdf="http://www.w3.org/1999/02/22-rdf-syntax-ns#"
   xmlns:svg="http://www.w3.org/2000/svg"
   xmlns="http://www.w3.org/2000/svg"
   xmlns:sodipodi="http://sodipodi.sourceforge.net/DTD/sodipodi-0.dtd"
   xmlns:inkscape="http://www.inkscape.org/namespaces/inkscape"
   width="3.75mm"
   height="3.75mm"
   viewBox="0 0 3.75 3.75"
   version="1.1"
   id="svg13826"
   inkscape:version="0.92.1 r15371"
   sodipodi:docname="ranger_light.svg">
  <defs
     id="defs13820" />
  <sodipodi:namedview
     id="base"
     pagecolor="#ffffff"
     bordercolor="#666666"
     borderopacity="1.0"
     inkscape:pageopacity="0.0"
     inkscape:pageshadow="2"
     inkscape:zoom="20.285322"
     inkscape:cx="7.7306236"
     inkscape:cy="6.3112302"
     inkscape:document-units="mm"
     inkscape:current-layer="layer1"
     showgrid="false"
     inkscape:window-width="561"
     inkscape:window-height="558"
     inkscape:window-x="687"
     inkscape:window-y="78"
     inkscape:window-maximized="0"
     showguides="true"
     inkscape:guide-bbox="true"
     gridtolerance="10"
     guidetolerance="2">
    <inkscape:grid
       type="xygrid"
       id="grid13828" />
    <sodipodi:guide
       position="0.13043093,3.8477124"
       orientation="1,0"
       id="guide20533"
       inkscape:locked="false" />
    <sodipodi:guide
       position="1.9173346,3.6129367"
       orientation="0,1"
       id="guide20535"
       inkscape:locked="false" />
  </sodipodi:namedview>
  <metadata
     id="metadata13823">
    <rdf:RDF>
      <cc:Work
         rdf:about="">
        <dc:format>image/svg+xml</dc:format>
        <dc:type
           rdf:resource="http://purl.org/dc/dcmitype/StillImage" />
        <dc:title></dc:title>
      </cc:Work>
    </rdf:RDF>
  </metadata>
  <g
     inkscape:label="Layer 1"
     inkscape:groupmode="layer"
     id="layer1"
     transform="translate(0,-293.25)">
    <path
       inkscape:connector-curvature="0"
       id="path9365"
       d="m 0.5497766,296.87875 c -0.23013106,0 -0.41616842,-0.18604 -0.41616842,-0.41755 v -2.6541 c 0,-0.23014 0.18603736,-0.41617 0.41616842,-0.41617 h 2.6554782 c 0.2301346,0 0.4175477,0.18603 0.4175477,0.41617 v 2.6541 c 0,0.23151 -0.1874131,0.41755 -0.4175477,0.41755 z m 0,0"
       style="fill:#211e1e;fill-opacity:1;fill-rule:nonzero;stroke:none;stroke-width:0.35277775" />
    <path
       inkscape:connector-curvature="0"
       id="path9367"
       d="m 0.5497766,293.46121 c -0.1901684,0 -0.34588803,0.15572 -0.34588803,0.34589 v 2.6541 c 0,0.19155 0.15571963,0.34726 0.34588803,0.34726 h 2.6554782 c 0.1915478,0 0.3472675,-0.15571 0.3472675,-0.34726 v -2.6541 c 0,-0.19017 -0.1557197,-0.34589 -0.3472675,-0.34589 z m 0,0"
       style="fill:#ffffff;fill-opacity:1;fill-rule:nonzero;stroke:none;stroke-width:0.35277775" />
    <path
       inkscape:connector-curvature="0"
       id="path9369"
       d="m 0.37063251,295.64816 c 0,-0.1006 0.66145829,-0.18191 1.47587759,-0.18191 0.8157986,0 1.4772569,0.0813 1.4772569,0.18191 0,0.0992 -0.6614583,0.18052 -1.4772569,0.18052 -0.8144193,0 -1.47587759,-0.0813 -1.47587759,-0.18052"
       style="fill:#211e1e;fill-opacity:1;fill-rule:nonzero;stroke:none;stroke-width:0.35277775" />
    <path
       inkscape:connector-curvature="0"
       id="path9371"
       d="m 1.7059493,295.29676 c 0.048232,-0.003 0.095084,-0.003 0.1405608,-0.003 0.046852,0 0.093708,0 0.1405608,0.003 0.2342656,0.003 0.4575068,0.0124 0.6531892,0.0276 v -0.47405 c 0,-0.0606 -0.00963,-0.0648 -0.074415,-0.10473 -0.064766,-0.04 -0.2962769,-0.13643 -0.3886059,-0.27423 -0.086815,-0.13091 -0.2425347,-0.13505 -0.304546,-0.13229 h -0.050987 c -0.062011,-0.003 -0.2191103,10e-4 -0.3059254,0.13229 -0.09095,0.1378 -0.3238394,0.23427 -0.3872301,0.27423 -0.064766,0.04 -0.075791,0.0441 -0.075791,0.10473 v 0.47405 c 0.1970582,-0.0152 0.4189237,-0.0248 0.6531893,-0.0276"
       style="fill:#211e1e;fill-opacity:1;fill-rule:nonzero;stroke:none;stroke-width:0.35277775" />
  </g>
</svg>
