<?xml version="1.0" encoding="UTF-8" standalone="no"?>
<!-- Created with Inkscape (http://www.inkscape.org/) -->

<svg
   xmlns:dc="http://purl.org/dc/elements/1.1/"
   xmlns:cc="http://creativecommons.org/ns#"
   xmlns:rdf="http://www.w3.org/1999/02/22-rdf-syntax-ns#"
   xmlns:svg="http://www.w3.org/2000/svg"
   xmlns="http://www.w3.org/2000/svg"
   xmlns:sodipodi="http://sodipodi.sourceforge.net/DTD/sodipodi-0.dtd"
   xmlns:inkscape="http://www.inkscape.org/namespaces/inkscape"
   width="3.75mm"
   height="3.75mm"
   viewBox="0 0 3.75 3.75"
   version="1.1"
   id="svg13826"
   inkscape:version="0.92.1 r15371"
   sodipodi:docname="self_trail_light.svg">
  <defs
     id="defs13820" />
  <sodipodi:namedview
     id="base"
     pagecolor="#ffffff"
     bordercolor="#666666"
     borderopacity="1.0"
     inkscape:pageopacity="0.0"
     inkscape:pageshadow="2"
     inkscape:zoom="20.285322"
     inkscape:cx="7.7306236"
     inkscape:cy="6.3112302"
     inkscape:document-units="mm"
     inkscape:current-layer="layer1"
     showgrid="false"
     inkscape:window-width="561"
     inkscape:window-height="558"
     inkscape:window-x="687"
     inkscape:window-y="78"
     inkscape:window-maximized="0"
     showguides="true"
     inkscape:guide-bbox="true"
     gridtolerance="10"
     guidetolerance="2">
    <inkscape:grid
       type="xygrid"
       id="grid13828" />
    <sodipodi:guide
       position="0.13043093,3.8477124"
       orientation="1,0"
       id="guide20533"
       inkscape:locked="false" />
    <sodipodi:guide
       position="1.9173346,3.6129367"
       orientation="0,1"
       id="guide20535"
       inkscape:locked="false" />
  </sodipodi:namedview>
  <metadata
     id="metadata13823">
    <rdf:RDF>
      <cc:Work
         rdf:about="">
        <dc:format>image/svg+xml</dc:format>
        <dc:type
           rdf:resource="http://purl.org/dc/dcmitype/StillImage" />
        <dc:title></dc:title>
      </cc:Work>
    </rdf:RDF>
  </metadata>
  <g
     inkscape:label="Layer 1"
     inkscape:groupmode="layer"
     id="layer1"
     transform="translate(0,-293.25)">
    <path
       inkscape:connector-curvature="0"
       id="path12919"
       d="m 0.56281969,296.87944 c -0.23013106,0 -0.41616842,-0.18603 -0.41616842,-0.41754 v -2.65548 c 0,-0.22876 0.18603736,-0.41617 0.41616842,-0.41617 H 3.2182979 c 0.2301346,0 0.4175477,0.18741 0.4175477,0.41617 v 2.65548 c 0,0.23151 -0.1874131,0.41754 -0.4175477,0.41754 z m 0,0"
       style="fill:#211e1e;fill-opacity:1;fill-rule:nonzero;stroke:none;stroke-width:0.35277775" />
    <path
       inkscape:connector-curvature="0"
       id="path12921"
       d="m 0.56281969,293.46053 c -0.1901684,0 -0.34588803,0.15572 -0.34588803,0.34589 v 2.65548 c 0,0.19017 0.15571963,0.34588 0.34588803,0.34588 H 3.2182979 c 0.1915478,0 0.3458879,-0.15571 0.3458879,-0.34588 v -2.65548 c 0,-0.19017 -0.1543401,-0.34589 -0.3458879,-0.34589 z m 0,0"
       style="fill:#ffffff;fill-opacity:1;fill-rule:nonzero;stroke:none;stroke-width:0.35277775" />
    <path
       inkscape:connector-curvature="0"
       id="path12923"
       d="m 1.1374629,294.39346 c 0.1088637,0 0.1984375,-0.0882 0.1984375,-0.19844 0,-0.11024 -0.089574,-0.19981 -0.1984375,-0.19981 -0.110243,0 -0.19981682,0.0896 -0.19981682,0.19981 0,0.11025 0.089574,0.19844 0.19981682,0.19844"
       style="fill:#211e1e;fill-opacity:1;fill-rule:nonzero;stroke:none;stroke-width:0.35277775" />
    <path
       inkscape:connector-curvature="0"
       id="path12925"
       d="m 0.83015818,294.4348 c 0.00826,-0.0303 -0.011007,-0.0606 -0.041342,-0.0675 L 0.62345165,294.326 c -0.0316795,-0.007 -0.0620113,0.0124 -0.068901,0.0427 l -0.13918142,0.5774 c -0.008255,0.0289 0.0110067,0.0606 0.041342,0.0689 l 0.16674041,0.0386 c 0.0303036,0.008 0.0606354,-0.01 0.0675252,-0.0413 z m 0,0"
       style="fill:#211e1e;fill-opacity:1;fill-rule:nonzero;stroke:none;stroke-width:0.35277775" />
    <path
       inkscape:connector-curvature="0"
       id="path12927"
       d="m 0.45533181,296.36957 c -0.001411,0.01 -0.002822,0.0193 -0.002822,0.0276 0,0.0772 0.0620113,0.14056 0.13918142,0.14056 0.0647664,0 0.11713275,-0.0427 0.13504685,-0.10059 l 0.2411589,-0.99633 0.22875172,0.99219 c 0.015169,0.0606 0.07028,0.10473 0.1350504,0.10473 0.078546,0 0.1405572,-0.0634 0.1405572,-0.14056 0,-0.01 -0.00141,-0.0207 -0.00282,-0.0303 l -0.3155702,-1.31602 0.027552,-0.11438 0.019297,0.0896 c 0.019297,0.0593 0.074415,0.0661 0.074415,0.0661 l 0.3238394,0.0827 c 0.00688,10e-4 0.012418,10e-4 0.019297,10e-4 0.052363,0 0.09646,-0.0427 0.09646,-0.0951 0,-0.0455 -0.033055,-0.0841 -0.074411,-0.0937 l -0.2811215,-0.0703 -0.07717,-0.31419 c -0.035828,-0.17363 -0.2025721,-0.1695 -0.2025721,-0.1695 -0.16260582,-0.004 -0.20394782,0.16536 -0.20394782,0.16536 z m 0,0"
       style="fill:#211e1e;fill-opacity:1;fill-rule:nonzero;stroke:none;stroke-width:0.35277775" />
    <path
       inkscape:connector-curvature="0"
       id="path12929"
       d="m 3.1149445,296.43709 c 0,-0.0648 0.05099,-0.11713 0.1171363,-0.11713 0.064767,0 0.1171329,0.0524 0.1171329,0.11713 0,0.0648 -0.052366,0.11576 -0.1171329,0.11576 -0.066146,0 -0.1171363,-0.051 -0.1171363,-0.11576"
       style="fill:#211e1e;fill-opacity:1;fill-rule:nonzero;stroke:none;stroke-width:0.35277775" />
    <path
       inkscape:connector-curvature="0"
       id="path12931"
       d="m 3.2320808,296.1229 c -0.066146,0 -0.1171363,-0.0524 -0.1171363,-0.11713 0,-0.0648 0.05099,-0.11713 0.1171363,-0.11713 0.064767,0 0.1171329,0.0524 0.1171329,0.11713 0,0.0648 -0.052366,0.11713 -0.1171329,0.11713"
       style="fill:#211e1e;fill-opacity:1;fill-rule:nonzero;stroke:none;stroke-width:0.35277775" />
    <path
       inkscape:connector-curvature="0"
       id="path12933"
       d="m 3.2320808,295.69157 c -0.066146,0 -0.1171363,-0.051 -0.1171363,-0.11575 0,-0.0661 0.05099,-0.11713 0.1171363,-0.11713 0.063387,0 0.1171329,0.051 0.1171329,0.11713 0,0.0648 -0.053746,0.11575 -0.1171329,0.11575"
       style="fill:#211e1e;fill-opacity:1;fill-rule:nonzero;stroke:none;stroke-width:0.35277775" />
    <path
       inkscape:connector-curvature="0"
       id="path12935"
       d="m 3.2320808,295.26163 c -0.066146,0 -0.1171363,-0.0524 -0.1171363,-0.11714 0,-0.0648 0.05099,-0.11713 0.1171363,-0.11713 0.063387,0 0.1171329,0.0524 0.1171329,0.11713 0,0.0648 -0.053746,0.11714 -0.1171329,0.11714"
       style="fill:#211e1e;fill-opacity:1;fill-rule:nonzero;stroke:none;stroke-width:0.35277775" />
    <path
       inkscape:connector-curvature="0"
       id="path12937"
       d="m 3.2320808,294.8303 c -0.066146,0 -0.1171363,-0.051 -0.1171363,-0.11575 0,-0.0661 0.05099,-0.11714 0.1171363,-0.11714 0.063387,0 0.1157537,0.051 0.1157537,0.11714 0,0.0648 -0.052366,0.11575 -0.1157537,0.11575"
       style="fill:#211e1e;fill-opacity:1;fill-rule:nonzero;stroke:none;stroke-width:0.35277775" />
    <path
       inkscape:connector-curvature="0"
       id="path12939"
       d="m 3.2320808,294.40036 c -0.066146,0 -0.1171363,-0.0524 -0.1171363,-0.11714 0,-0.0661 0.05099,-0.11713 0.1171363,-0.11713 0.063387,0 0.1157537,0.051 0.1157537,0.11713 0,0.0648 -0.052366,0.11714 -0.1157537,0.11714"
       style="fill:#211e1e;fill-opacity:1;fill-rule:nonzero;stroke:none;stroke-width:0.35277775" />
    <path
       inkscape:connector-curvature="0"
       id="path12941"
       d="m 3.1149445,293.85327 c 0,-0.0661 0.05099,-0.11713 0.1171363,-0.11713 0.063387,0 0.1157537,0.051 0.1157537,0.11713 0,0.0648 -0.052366,0.11576 -0.1157537,0.11576 -0.066146,0 -0.1171363,-0.051 -0.1171363,-0.11576"
       style="fill:#211e1e;fill-opacity:1;fill-rule:nonzero;stroke:none;stroke-width:0.35277775" />
    <path
       inkscape:connector-curvature="0"
       id="path12943"
       d="m 2.3708058,293.73476 c 0.064766,0 0.1157534,0.0524 0.1157534,0.11851 0,0.0634 -0.050987,0.11576 -0.1157534,0.11576 -0.064767,0 -0.1171328,-0.0524 -0.1171328,-0.11576 0,-0.0661 0.052366,-0.11851 0.1171328,-0.11851"
       style="fill:#211e1e;fill-opacity:1;fill-rule:nonzero;stroke:none;stroke-width:0.35277775" />
    <path
       inkscape:connector-curvature="0"
       id="path12945"
       d="m 2.8007537,293.73476 c 0.064766,0 0.1171328,0.0524 0.1171328,0.11713 0,0.0648 -0.052366,0.11714 -0.1171328,0.11714 -0.064767,0 -0.1171328,-0.0524 -0.1171328,-0.11714 0,-0.0648 0.052366,-0.11713 0.1171328,-0.11713"
       style="fill:#211e1e;fill-opacity:1;fill-rule:nonzero;stroke:none;stroke-width:0.35277775" />
    <path
       inkscape:connector-curvature="0"
       id="path12947"
       d="m 2.3708058,296.31858 c 0.063391,0 0.1171328,0.0524 0.1171328,0.11714 0,0.0648 -0.053742,0.11713 -0.1171328,0.11713 -0.066146,0 -0.1171328,-0.0524 -0.1171328,-0.11713 0,-0.0648 0.050987,-0.11714 0.1171328,-0.11714"
       style="fill:#211e1e;fill-opacity:1;fill-rule:nonzero;stroke:none;stroke-width:0.35277775" />
    <path
       inkscape:connector-curvature="0"
       id="path12949"
       d="m 2.8021329,296.31858 c 0.064767,0 0.1157536,0.0524 0.1157536,0.11714 0,0.0648 -0.050987,0.11713 -0.1157536,0.11713 -0.06477,0 -0.1171362,-0.0524 -0.1171362,-0.11713 0,-0.0648 0.052366,-0.11714 0.1171362,-0.11714"
       style="fill:#211e1e;fill-opacity:1;fill-rule:nonzero;stroke:none;stroke-width:0.35277775" />
    <path
       inkscape:connector-curvature="0"
       id="path12951"
       d="m 2.0896842,293.58731 v 0.5333 L 1.630798,293.85327 Z m 0,0"
       style="fill:#211e1e;fill-opacity:1;fill-rule:nonzero;stroke:none;stroke-width:0.35277775" />
    <path
       inkscape:connector-curvature="0"
       id="path12953"
       d="m 2.0028691,296.52942 v -0.93155 c 0.059256,-0.0579 0.4519966,-0.45062 0.4519966,-0.45062 0.022048,-0.022 0.033055,-0.051 0.033055,-0.0799 0,-0.0303 -0.011007,-0.0593 -0.033055,-0.0813 -0.045477,-0.0455 -0.1171329,-0.0455 -0.1626094,0 l -0.5181424,0.51677 v 1.02663 z m 0,0"
       style="fill:#211e1e;fill-opacity:1;fill-rule:nonzero;stroke:none;stroke-width:0.35277775" />
  </g>
</svg>
