<?xml version="1.0" encoding="UTF-8" standalone="no"?>
<!-- Created with Inkscape (http://www.inkscape.org/) -->

<svg
   xmlns:dc="http://purl.org/dc/elements/1.1/"
   xmlns:cc="http://creativecommons.org/ns#"
   xmlns:rdf="http://www.w3.org/1999/02/22-rdf-syntax-ns#"
   xmlns:svg="http://www.w3.org/2000/svg"
   xmlns="http://www.w3.org/2000/svg"
   xmlns:sodipodi="http://sodipodi.sourceforge.net/DTD/sodipodi-0.dtd"
   xmlns:inkscape="http://www.inkscape.org/namespaces/inkscape"
   width="3.75mm"
   height="3.75mm"
   viewBox="0 0 3.75 3.75"
   version="1.1"
   id="svg13826"
   inkscape:version="0.92.1 r15371"
   sodipodi:docname="tactile_light.svg">
  <defs
     id="defs13820" />
  <sodipodi:namedview
     id="base"
     pagecolor="#ffffff"
     bordercolor="#666666"
     borderopacity="1.0"
     inkscape:pageopacity="0.0"
     inkscape:pageshadow="2"
     inkscape:zoom="20.285322"
     inkscape:cx="7.7306236"
     inkscape:cy="6.3112302"
     inkscape:document-units="mm"
     inkscape:current-layer="layer1"
     showgrid="false"
     inkscape:window-width="561"
     inkscape:window-height="558"
     inkscape:window-x="687"
     inkscape:window-y="78"
     inkscape:window-maximized="0"
     showguides="true"
     inkscape:guide-bbox="true"
     gridtolerance="10"
     guidetolerance="2">
    <inkscape:grid
       type="xygrid"
       id="grid13828" />
    <sodipodi:guide
       position="0.13043093,3.8477124"
       orientation="1,0"
       id="guide20533"
       inkscape:locked="false" />
    <sodipodi:guide
       position="1.9173346,3.6129367"
       orientation="0,1"
       id="guide20535"
       inkscape:locked="false" />
  </sodipodi:namedview>
  <metadata
     id="metadata13823">
    <rdf:RDF>
      <cc:Work
         rdf:about="">
        <dc:format>image/svg+xml</dc:format>
        <dc:type
           rdf:resource="http://purl.org/dc/dcmitype/StillImage" />
        <dc:title></dc:title>
      </cc:Work>
    </rdf:RDF>
  </metadata>
  <g
     inkscape:label="Layer 1"
     inkscape:groupmode="layer"
     id="layer1"
     transform="translate(0,-293.25)">
    <path
       inkscape:connector-curvature="0"
       id="path10525"
       d="m 3.1908359,296.86501 c 0.2301309,0 0.4175442,-0.18604 0.4175442,-0.41617 v -2.65273 c 0,-0.23013 -0.1874133,-0.41754 -0.4175442,-0.41754 H 0.53811281 c -0.23013459,0 -0.41616842,0.18741 -0.41616842,0.41754 v 2.65273 c 0,0.23013 0.18603383,0.41617 0.41616842,0.41617 z m 0,0"
       style="fill:#211e1e;fill-opacity:1;fill-rule:nonzero;stroke:none;stroke-width:0.35277775" />
    <path
       inkscape:connector-curvature="0"
       id="path10527"
       d="m 0.53535408,293.44885 c -0.19016839,0 -0.34588803,0.15572 -0.34588803,0.34726 v 2.65411 c 0,0.19017 0.15571964,0.34588 0.34588803,0.34588 H 3.1908359 c 0.1915477,0 0.3472638,-0.15571 0.3472638,-0.34588 v -2.65411 c 0,-0.19154 -0.1557161,-0.34726 -0.3472638,-0.34726 z m 0,0"
       style="fill:#ffffff;fill-opacity:1;fill-rule:nonzero;stroke:none;stroke-width:0.35277775" />
    <path
       inkscape:connector-curvature="0"
       id="path10529"
       d="m 2.6478861,293.66107 c -0.1364227,0.15709 -0.3417534,0.339 -0.6187369,0.44924 -0.4960937,0.19568 -0.9246658,0.25907 -0.9246658,0.25907 l 0.0055,0.001 -0.50436285,0.0786 c -0.0757908,0.0124 -0.12953648,0.0854 -0.11713281,0.16123 0.0110067,0.0703 0.0716597,0.11989 0.13918141,0.11989 0.008255,0 0.0151694,-10e-4 0.0220485,-10e-4 l 0.51125265,-0.0813 c 0,0 0.0055,-0.001 0.00963,10e-4 0.00282,0.001 0.00413,0.007 0.00282,0.011 -0.00141,0.003 -0.00282,0.004 -0.00826,0.005 -0.37344713,0.15848 -0.67248273,0.33211 -0.69039679,0.34176 -0.0675252,0.04 -0.0895738,0.12677 -0.050987,0.1943 0.0261761,0.0441 0.0744114,0.0689 0.12264322,0.0689 0.0234243,0 0.0482318,-0.005 0.0702804,-0.0179 0.004127,-0.003 0.33210852,-0.19293 0.72071447,-0.35278 0.00282,-0.001 0.00282,-0.001 0.0055,-0.001 0.00688,0 0.011007,0.008 0.00688,0.0138 -0.00141,10e-4 -0.00282,10e-4 -0.00413,0.003 -0.2149757,0.12815 -0.45613114,0.3197 -0.63665457,0.60358 -0.041342,0.0661 -0.0220485,0.15296 0.0440972,0.1943 0.0234244,0.0152 0.0496112,0.0234 0.074415,0.0234 0.0468524,0 0.0937048,-0.0234 0.119888,-0.0661 0.11024307,-0.17225 0.24666927,-0.30592 0.38860587,-0.41066 0,0 0.3679366,-0.32521 0.7482769,-0.25355 0.3803368,0.0717 0.2370208,0.35829 0.2135964,0.52227 -0.0248,0.1695 0.057877,0.24805 0.1364262,0.2825 0.015169,0.007 0.028928,0.011 0.039963,0.011 0.044097,0.004 0.057877,-0.0317 0.062011,-0.0455 0.00282,-0.01 0.0055,-0.022 0.00825,-0.0303 0.1915442,-0.7469 0.4919592,-1.28158 0.7799669,-1.65365 z m 0,0"
       style="fill:#211e1e;fill-opacity:1;fill-rule:nonzero;stroke:none;stroke-width:0.35277775" />
    <path
       inkscape:connector-curvature="0"
       id="path10531"
       d="M 2.5886336,296.30139 H 2.4522074 l -0.235645,-0.20533 -0.235645,0.20533 H 1.8444912 l -0.373447,-0.33762 -0.3720712,0.33762 H 0.96254678 l -0.23564495,-0.16123 -0.23564499,0.25218 v 0.14056 H 3.1963461 v -0.14056 l -0.3279738,-0.45062 z m 0,0"
       style="fill:#211e1e;fill-opacity:1;fill-rule:nonzero;stroke:none;stroke-width:0.35277775" />
  </g>
</svg>
