<?xml version="1.0" encoding="UTF-8" standalone="no"?>
<!-- Created with Inkscape (http://www.inkscape.org/) -->

<svg
   xmlns:dc="http://purl.org/dc/elements/1.1/"
   xmlns:cc="http://creativecommons.org/ns#"
   xmlns:rdf="http://www.w3.org/1999/02/22-rdf-syntax-ns#"
   xmlns:svg="http://www.w3.org/2000/svg"
   xmlns="http://www.w3.org/2000/svg"
   xmlns:sodipodi="http://sodipodi.sourceforge.net/DTD/sodipodi-0.dtd"
   xmlns:inkscape="http://www.inkscape.org/namespaces/inkscape"
   width="3.75mm"
   height="3.75mm"
   viewBox="0 0 3.75 3.75"
   version="1.1"
   id="svg13826"
   inkscape:version="0.92.1 r15371"
   sodipodi:docname="tactile_dark.svg">
  <defs
     id="defs13820" />
  <sodipodi:namedview
     id="base"
     pagecolor="#ffffff"
     bordercolor="#666666"
     borderopacity="1.0"
     inkscape:pageopacity="0.0"
     inkscape:pageshadow="2"
     inkscape:zoom="20.285322"
     inkscape:cx="7.7306236"
     inkscape:cy="6.3112302"
     inkscape:document-units="mm"
     inkscape:current-layer="layer1"
     showgrid="false"
     inkscape:window-width="561"
     inkscape:window-height="558"
     inkscape:window-x="687"
     inkscape:window-y="78"
     inkscape:window-maximized="0"
     showguides="true"
     inkscape:guide-bbox="true"
     gridtolerance="10"
     guidetolerance="2">
    <inkscape:grid
       type="xygrid"
       id="grid13828" />
    <sodipodi:guide
       position="0.13043093,3.8477124"
       orientation="1,0"
       id="guide20533"
       inkscape:locked="false" />
    <sodipodi:guide
       position="1.9173346,3.6129367"
       orientation="0,1"
       id="guide20535"
       inkscape:locked="false" />
  </sodipodi:namedview>
  <metadata
     id="metadata13823">
    <rdf:RDF>
      <cc:Work
         rdf:about="">
        <dc:format>image/svg+xml</dc:format>
        <dc:type
           rdf:resource="http://purl.org/dc/dcmitype/StillImage" />
        <dc:title></dc:title>
      </cc:Work>
    </rdf:RDF>
  </metadata>
  <g
     inkscape:label="Layer 1"
     inkscape:groupmode="layer"
     id="layer1"
     transform="translate(0,-293.25)">
    <path
       inkscape:connector-curvature="0"
       id="path9871"
       d="m 0.53879899,293.4619 c -0.19154776,0 -0.34726386,0.15572 -0.34726386,0.34726 v 2.65273 c 0,0.19017 0.1557161,0.34589 0.34726386,0.34589 H 3.1915221 c 0.1915478,0 0.345888,-0.15572 0.345888,-0.34589 v -2.65273 c 0,-0.19154 -0.1543402,-0.34726 -0.345888,-0.34726 z m 0,0"
       style="fill:#ffffff;fill-opacity:1;fill-rule:nonzero;stroke:none;stroke-width:0.35277775" />
    <path
       inkscape:connector-curvature="0"
       id="path9873"
       d="m 3.1915221,296.87806 c 0.2301346,0 0.4175477,-0.18604 0.4175477,-0.41617 v -2.65273 c 0,-0.23013 -0.1874131,-0.41754 -0.4175477,-0.41754 H 0.53879899 c -0.23151042,0 -0.41754425,0.18741 -0.41754425,0.41754 v 2.65273 c 0,0.23013 0.18603383,0.41617 0.41754425,0.41617 z m 0,0"
       style="fill:#211e1e;fill-opacity:1;fill-rule:nonzero;stroke:none;stroke-width:0.35277775" />
    <path
       inkscape:connector-curvature="0"
       id="path9875"
       d="m 3.1915221,296.87806 c 0.2301346,0 0.4175477,-0.18604 0.4175477,-0.41617 v -2.65273 c 0,-0.23013 -0.1874131,-0.41754 -0.4175477,-0.41754 H 0.53879899 c -0.23151042,0 -0.41754425,0.18741 -0.41754425,0.41754 v 2.65273 c 0,0.23013 0.18603383,0.41617 0.41754425,0.41617 z m 0,0"
       style="fill:#211e1e;fill-opacity:1;fill-rule:nonzero;stroke:none;stroke-width:0.35277775" />
    <path
       inkscape:connector-curvature="0"
       id="path9877"
       d="m 2.6485759,293.67274 c -0.1378021,0.15847 -0.3417535,0.34038 -0.6187404,0.45062 -0.4960938,0.19568 -0.9246624,0.25907 -0.9246624,0.25907 h 0.0055 l -0.50436284,0.0799 c -0.0771701,0.0124 -0.12953648,0.0854 -0.11713281,0.16123 0.0110067,0.0703 0.0716562,0.11988 0.13918141,0.11988 0.006879,0 0.0151694,-0.001 0.0220485,-0.001 l 0.50987324,-0.0813 c 0,0 0.00688,-10e-4 0.011007,0.001 0.00141,10e-4 0.00282,0.007 0.00141,0.011 -0.00141,0.001 -0.00141,0.003 -0.00688,0.005 -0.37345042,0.15847 -0.67386186,0.3321 -0.69040009,0.34175 -0.0675217,0.04 -0.0895703,0.12678 -0.0509869,0.19431 0.026176,0.0441 0.0730356,0.0689 0.1226467,0.0689 0.0234244,0 0.0482318,-0.006 0.0702804,-0.0193 0.004128,-10e-4 0.33072917,-0.19154 0.71933509,-0.3514 0.00282,-10e-4 0.00413,-10e-4 0.00688,-10e-4 0.00688,0 0.011007,0.008 0.00688,0.0124 -0.00141,10e-4 -0.00282,0.003 -0.0055,0.004 -0.2149758,0.12677 -0.45475176,0.3197 -0.63527522,0.60358 -0.0427214,0.0661 -0.0234244,0.15296 0.0427179,0.1943 0.0234244,0.0152 0.0496111,0.022 0.0757908,0.022 0.0468559,0 0.092329,-0.022 0.11989152,-0.0648 0.1088637,-0.17225 0.2466692,-0.30592 0.3872265,-0.41065 0,0 0.369316,-0.32522 0.7496528,-0.25356 0.3803403,0.0717 0.2370243,0.35829 0.2135964,0.52227 -0.0248,0.1695 0.05788,0.24805 0.1350503,0.2825 0.016545,0.007 0.028928,0.01 0.041338,0.011 0.044097,0.004 0.056501,-0.0317 0.062011,-0.0455 0.00282,-0.01 0.0055,-0.022 0.00826,-0.0303 0.1915478,-0.7469 0.4919593,-1.28157 0.7799707,-1.65365 z m 0,0"
       style="fill:#ffffff;fill-opacity:1;fill-rule:nonzero;stroke:none;stroke-width:0.35277775" />
    <path
       inkscape:connector-curvature="0"
       id="path9879"
       d="m 2.5893198,296.31444 h -0.137802 l -0.235645,-0.20533 -0.2342656,0.20533 H 1.8438016 l -0.3720712,-0.33762 -0.3720677,0.33762 H 0.96185713 l -0.2342656,-0.16123 -0.23564496,0.25218 v 0.14056 H 3.197036 v -0.14056 l -0.327974,-0.45062 z m 0,0"
       style="fill:#ffffff;fill-opacity:1;fill-rule:nonzero;stroke:none;stroke-width:0.35277775" />
  </g>
</svg>
