<?xml version="1.0" encoding="UTF-8" standalone="no"?>
<!-- Created with Inkscape (http://www.inkscape.org/) -->

<svg
   xmlns:dc="http://purl.org/dc/elements/1.1/"
   xmlns:cc="http://creativecommons.org/ns#"
   xmlns:rdf="http://www.w3.org/1999/02/22-rdf-syntax-ns#"
   xmlns:svg="http://www.w3.org/2000/svg"
   xmlns="http://www.w3.org/2000/svg"
   xmlns:sodipodi="http://sodipodi.sourceforge.net/DTD/sodipodi-0.dtd"
   xmlns:inkscape="http://www.inkscape.org/namespaces/inkscape"
   width="3.75mm"
   height="3.75mm"
   viewBox="0 0 3.75 3.75"
   version="1.1"
   id="svg13826"
   inkscape:version="0.92.1 r15371"
   sodipodi:docname="theater_light.svg">
  <defs
     id="defs13820" />
  <sodipodi:namedview
     id="base"
     pagecolor="#ffffff"
     bordercolor="#666666"
     borderopacity="1.0"
     inkscape:pageopacity="0.0"
     inkscape:pageshadow="2"
     inkscape:zoom="20.285322"
     inkscape:cx="7.7306236"
     inkscape:cy="6.3112302"
     inkscape:document-units="mm"
     inkscape:current-layer="layer1"
     showgrid="false"
     inkscape:window-width="561"
     inkscape:window-height="558"
     inkscape:window-x="687"
     inkscape:window-y="78"
     inkscape:window-maximized="0"
     showguides="true"
     inkscape:guide-bbox="true"
     gridtolerance="10"
     guidetolerance="2">
    <inkscape:grid
       type="xygrid"
       id="grid13828" />
    <sodipodi:guide
       position="0.13043093,3.8477124"
       orientation="1,0"
       id="guide20533"
       inkscape:locked="false" />
    <sodipodi:guide
       position="1.9173346,3.6129367"
       orientation="0,1"
       id="guide20535"
       inkscape:locked="false" />
  </sodipodi:namedview>
  <metadata
     id="metadata13823">
    <rdf:RDF>
      <cc:Work
         rdf:about="">
        <dc:format>image/svg+xml</dc:format>
        <dc:type
           rdf:resource="http://purl.org/dc/dcmitype/StillImage" />
        <dc:title></dc:title>
      </cc:Work>
    </rdf:RDF>
  </metadata>
  <g
     inkscape:label="Layer 1"
     inkscape:groupmode="layer"
     id="layer1"
     transform="translate(0,-293.25)">
    <path
       inkscape:connector-curvature="0"
       id="path4701"
       d="m 3.1791721,296.86502 c 0.2301311,0 0.4161649,-0.18604 0.4161649,-0.41617 v -2.65273 c 0,-0.23013 -0.1860338,-0.41754 -0.4161649,-0.41754 H 0.52506972 c -0.23013106,0 -0.41616842,0.18741 -0.41616842,0.41754 v 2.65273 c 0,0.23013 0.18603736,0.41617 0.41616842,0.41617 z m 0,0"
       style="fill:#211e1e;fill-opacity:1;fill-rule:nonzero;stroke:none;stroke-width:0.35277775" />
    <path
       inkscape:connector-curvature="0"
       id="path4703"
       d="m 0.52506972,293.44886 c -0.1901684,0 -0.34588803,0.15572 -0.34588803,0.34726 v 2.65273 c 0,0.19017 0.15571963,0.34589 0.34588803,0.34589 H 3.1791721 c 0.1901684,0 0.3458879,-0.15572 0.3458879,-0.34589 v -2.65273 c 0,-0.19154 -0.1557195,-0.34726 -0.3458879,-0.34726 z m 0,0"
       style="fill:#ffffff;fill-opacity:1;fill-rule:nonzero;stroke:none;stroke-width:0.35277775" />
    <path
       inkscape:connector-curvature="0"
       id="path4705"
       d="m 0.64909225,295.06667 c -0.0248003,-0.16123 0.20670661,-0.20946 0.24391409,-0.0455 l 0.0633906,0.31557 H 1.1920384 c 0.068905,0 0.1047327,0.0551 0.1047327,0.10611 v 0.42857 c 0,0.10335 -0.1488299,0.10335 -0.1488299,-0.003 v -0.33211 H 0.84615392 c -0.0689046,0 -0.11300177,-0.0482 -0.12402608,-0.10336 z m 0,0"
       style="fill:#211e1e;fill-opacity:1;fill-rule:nonzero;stroke:none;stroke-width:0.35277775" />
    <path
       inkscape:connector-curvature="0"
       id="path4707"
       d="M 3.0978675,293.94082 H 0.54711832 v 0.15434 l 2.55074918,0.84749 z m 0,0"
       style="fill:#211e1e;fill-opacity:1;fill-rule:nonzero;stroke:none;stroke-width:0.35277775" />
    <path
       inkscape:connector-curvature="0"
       id="path4709"
       d="m 0.75933532,294.89304 c 0.0757943,0 0.13918142,-0.062 0.13918142,-0.1378 0,-0.0772 -0.0620113,-0.13918 -0.13918142,-0.13918 -0.0757908,-10e-4 -0.13918142,0.0606 -0.13918142,0.1378 -0.00141,0.0772 0.0620113,0.13918 0.13918142,0.13918"
       style="fill:#211e1e;fill-opacity:1;fill-rule:nonzero;stroke:none;stroke-width:0.35277775" />
    <path
       inkscape:connector-curvature="0"
       id="path4711"
       d="m 0.49337615,295.23342 c -0.0165453,-0.0896 0.10059459,-0.11024 0.11713282,-0.0207 l 0.0523628,0.27974 c 0.0110067,0.0593 0.0537457,0.10887 0.11575699,0.12678 0.017921,0.006 0.0372075,0.007 0.0565009,0.008 H 1.0046252 c 0.090953,0 0.090953,0.11851 0,0.11851 H 0.82548115 c -0.027552,0 -0.0551215,-0.004 -0.0826805,-0.0124 -0.10610848,-0.0317 -0.17914761,-0.11851 -0.19843748,-0.22049 z m 0,0"
       style="fill:#211e1e;fill-opacity:1;fill-rule:nonzero;stroke:none;stroke-width:0.35277775" />
    <path
       inkscape:connector-curvature="0"
       id="path4713"
       d="m 1.5668648,295.36709 c -0.0248,-0.16123 0.2067066,-0.20947 0.2439141,-0.0455 l 0.063391,0.31557 h 0.235645 c 0.068901,0 0.1047291,0.0551 0.1047291,0.10611 v 0.42719 c 0,0.10473 -0.1488264,0.10473 -0.1488264,-10e-4 V 295.836 H 1.7639265 c -0.068901,0 -0.1129983,-0.0482 -0.1240226,-0.10335 z m 0,0"
       style="fill:#211e1e;fill-opacity:1;fill-rule:nonzero;stroke:none;stroke-width:0.35277775" />
    <path
       inkscape:connector-curvature="0"
       id="path4715"
       d="m 1.6771079,295.19346 c 0.075794,0 0.1391849,-0.062 0.1391849,-0.13781 0,-0.0772 -0.062015,-0.13918 -0.1378056,-0.14056 -0.07717,0 -0.1391814,0.062 -0.1405608,0.13918 0,0.0758 0.062011,0.13919 0.1391815,0.13919"
       style="fill:#211e1e;fill-opacity:1;fill-rule:nonzero;stroke:none;stroke-width:0.35277775" />
    <path
       inkscape:connector-curvature="0"
       id="path4717"
       d="m 1.4111487,295.53383 c -0.016545,-0.0896 0.1019739,-0.11024 0.1171328,-0.0221 l 0.052366,0.28112 c 0.012418,0.0579 0.055122,0.10887 0.1157534,0.12678 0.019297,0.006 0.038587,0.006 0.056501,0.007 l 0.170875,0.001 c 0.089574,0 0.089574,0.11851 -0.00141,0.11851 l -0.1805234,-10e-4 c -0.026176,0 -0.053746,-0.003 -0.081305,-0.011 -0.1061082,-0.0317 -0.1791438,-0.11995 -0.1984372,-0.22055 z m 0,0"
       style="fill:#211e1e;fill-opacity:1;fill-rule:nonzero;stroke:none;stroke-width:0.35277775" />
    <path
       inkscape:connector-curvature="0"
       id="path4719"
       d="m 2.4846408,295.6675 c -0.0248,-0.16123 0.2067031,-0.20946 0.2439106,-0.0455 l 0.063391,0.3142 0.2356451,0.001 c 0.068901,0 0.1047292,0.0551 0.1047292,0.10611 v 0.42719 c 0,0.10473 -0.1488265,0.10335 -0.1488265,-0.001 v -0.33349 H 2.6830783 c -0.07028,0 -0.1143776,-0.0482 -0.1254019,-0.10336 z m 0,0"
       style="fill:#211e1e;fill-opacity:1;fill-rule:nonzero;stroke:none;stroke-width:0.35277775" />
    <path
       inkscape:connector-curvature="0"
       id="path4721"
       d="m 2.5948839,295.49387 c 0.07717,0 0.1391814,-0.062 0.1391814,-0.13918 0,-0.0758 -0.062011,-0.13919 -0.1378056,-0.13919 -0.07717,0 -0.1391814,0.062 -0.1391814,0.13781 -0.00141,0.0772 0.060635,0.13918 0.1378056,0.14056"
       style="fill:#211e1e;fill-opacity:1;fill-rule:nonzero;stroke:none;stroke-width:0.35277775" />
    <path
       inkscape:connector-curvature="0"
       id="path4723"
       d="m 2.3289212,295.83424 c -0.015169,-0.0896 0.101974,-0.11162 0.1185122,-0.0221 l 0.050987,0.28112 c 0.012418,0.0579 0.055122,0.10887 0.1157535,0.12678 0.019297,0.006 0.038587,0.006 0.056501,0.007 l 0.1708785,0.001 c 0.08957,-0.001 0.08957,0.11852 -0.0014,0.11852 l -0.1791442,-0.001 c -0.027552,0 -0.055121,-0.004 -0.082684,-0.0124 -0.1047292,-0.0303 -0.1791441,-0.11851 -0.1984375,-0.21911 z m 0,0"
       style="fill:#211e1e;fill-opacity:1;fill-rule:nonzero;stroke:none;stroke-width:0.35277775" />
  </g>
</svg>
