<?xml version="1.0" encoding="UTF-8" standalone="no"?>
<!-- Created with Inkscape (http://www.inkscape.org/) -->

<svg
   xmlns:dc="http://purl.org/dc/elements/1.1/"
   xmlns:cc="http://creativecommons.org/ns#"
   xmlns:rdf="http://www.w3.org/1999/02/22-rdf-syntax-ns#"
   xmlns:svg="http://www.w3.org/2000/svg"
   xmlns="http://www.w3.org/2000/svg"
   xmlns:sodipodi="http://sodipodi.sourceforge.net/DTD/sodipodi-0.dtd"
   xmlns:inkscape="http://www.inkscape.org/namespaces/inkscape"
   width="3.75mm"
   height="3.75mm"
   viewBox="0 0 3.75 3.75"
   version="1.1"
   id="svg13826"
   inkscape:version="0.92.1 r15371"
   sodipodi:docname="theater_dark.svg">
  <defs
     id="defs13820" />
  <sodipodi:namedview
     id="base"
     pagecolor="#ffffff"
     bordercolor="#666666"
     borderopacity="1.0"
     inkscape:pageopacity="0.0"
     inkscape:pageshadow="2"
     inkscape:zoom="20.285322"
     inkscape:cx="7.7306236"
     inkscape:cy="6.3112302"
     inkscape:document-units="mm"
     inkscape:current-layer="layer1"
     showgrid="false"
     inkscape:window-width="561"
     inkscape:window-height="558"
     inkscape:window-x="687"
     inkscape:window-y="78"
     inkscape:window-maximized="0"
     showguides="true"
     inkscape:guide-bbox="true"
     gridtolerance="10"
     guidetolerance="2">
    <inkscape:grid
       type="xygrid"
       id="grid13828" />
    <sodipodi:guide
       position="0.13043093,3.8477124"
       orientation="1,0"
       id="guide20533"
       inkscape:locked="false" />
    <sodipodi:guide
       position="1.9173346,3.6129367"
       orientation="0,1"
       id="guide20535"
       inkscape:locked="false" />
  </sodipodi:namedview>
  <metadata
     id="metadata13823">
    <rdf:RDF>
      <cc:Work
         rdf:about="">
        <dc:format>image/svg+xml</dc:format>
        <dc:type
           rdf:resource="http://purl.org/dc/dcmitype/StillImage" />
        <dc:title></dc:title>
      </cc:Work>
    </rdf:RDF>
  </metadata>
  <g
     inkscape:label="Layer 1"
     inkscape:groupmode="layer"
     id="layer1"
     transform="translate(0,-293.25)">
    <path
       inkscape:connector-curvature="0"
       id="path3663"
       d="m 0.5511559,293.4619 c -0.19017193,0 -0.34588803,0.15572 -0.34588803,0.34589 v 2.6541 c 0,0.19017 0.1557161,0.34451 0.34588803,0.34451 h 2.6540989 c 0.1901719,0 0.345888,-0.15434 0.345888,-0.34451 v -2.6541 c 0,-0.19017 -0.1557161,-0.34589 -0.345888,-0.34589 z m 0,0"
       style="fill:#ffffff;fill-opacity:1;fill-rule:nonzero;stroke:none;stroke-width:0.35277775" />
    <path
       inkscape:connector-curvature="0"
       id="path3665"
       d="m 3.2052548,296.87806 c 0.2301346,0 0.4161684,-0.18604 0.4161684,-0.41617 v -2.6541 c 0,-0.23014 -0.1860338,-0.41617 -0.4161684,-0.41617 H 0.5511559 c -0.23013459,0 -0.41616842,0.18603 -0.41616842,0.41617 v 2.6541 c 0,0.23013 0.18603383,0.41617 0.41616842,0.41617 z m 0,0"
       style="fill:#211e1e;fill-opacity:1;fill-rule:nonzero;stroke:none;stroke-width:0.35277775" />
    <path
       inkscape:connector-curvature="0"
       id="path3667"
       d="m 0.67517838,295.07972 c -0.0248002,-0.16123 0.2067067,-0.21084 0.2425348,-0.0455 l 0.064766,0.3142 0.23564492,0.001 c 0.067525,0 0.1047327,0.0537 0.1047327,0.1061 v 0.4272 c 0,0.10473 -0.1488299,0.10335 -0.1488299,-0.001 v -0.33349 H 0.87223658 c -0.07028,0 -0.1143776,-0.0482 -0.1240226,-0.10335 z m 0,0"
       style="fill:#ffffff;fill-opacity:1;fill-rule:nonzero;stroke:none;stroke-width:0.35277775" />
    <path
       inkscape:connector-curvature="0"
       id="path3669"
       d="M 3.12395,293.95386 H 0.5732045 v 0.15296 l 2.5507455,0.84887 z m 0,0"
       style="fill:#ffffff;fill-opacity:1;fill-rule:nonzero;stroke:none;stroke-width:0.35277775" />
    <path
       inkscape:connector-curvature="0"
       id="path3671"
       d="m 0.78542148,294.90608 c 0.075791,0 0.1391814,-0.062 0.1391814,-0.13918 0,-0.0758 -0.062011,-0.13918 -0.1391814,-0.13918 -0.07717,0 -0.1391814,0.062 -0.1391814,0.1378 0,0.0772 0.0606319,0.13919 0.1391814,0.14056"
       style="fill:#ffffff;fill-opacity:1;fill-rule:nonzero;stroke:none;stroke-width:0.35277775" />
    <path
       inkscape:connector-curvature="0"
       id="path3673"
       d="m 0.51945881,295.24646 c -0.0165453,-0.0896 0.10059811,-0.11162 0.11713279,-0.0221 l 0.0523663,0.28112 c 0.011007,0.0579 0.053742,0.10749 0.115757,0.12678 0.017921,0.006 0.037204,0.006 0.056497,0.007 l 0.1694991,0.001 c 0.09095,-0.001 0.09095,0.11851 -0.00141,0.11851 l -0.1791441,-0.001 c -0.027552,0 -0.055121,-0.004 -0.081305,-0.0124 -0.10610845,-0.0317 -0.18052338,-0.11851 -0.19843745,-0.21911 z m 0,0"
       style="fill:#ffffff;fill-opacity:1;fill-rule:nonzero;stroke:none;stroke-width:0.35277775" />
    <path
       inkscape:connector-curvature="0"
       id="path3675"
       d="m 1.592951,295.37875 c -0.0248,-0.15985 0.2067066,-0.20946 0.2439141,-0.0441 l 0.063387,0.3142 H 2.135897 c 0.067525,0 0.1047327,0.0551 0.1047327,0.10611 v 0.42856 c 0,0.10336 -0.1488299,0.10336 -0.1488299,-10e-4 v -0.33349 H 1.7900091 c -0.068901,0 -0.1129982,-0.0482 -0.1240225,-0.10335 z m 0,0"
       style="fill:#ffffff;fill-opacity:1;fill-rule:nonzero;stroke:none;stroke-width:0.35277775" />
    <path
       inkscape:connector-curvature="0"
       id="path3677"
       d="m 1.7031941,295.20512 c 0.075791,10e-4 0.1391813,-0.0606 0.1391813,-0.13781 0,-0.0772 -0.062011,-0.13918 -0.137802,-0.13918 -0.07717,0 -0.1405608,0.062 -0.1405608,0.13781 0,0.0772 0.062011,0.13918 0.1391815,0.13918"
       style="fill:#ffffff;fill-opacity:1;fill-rule:nonzero;stroke:none;stroke-width:0.35277775" />
    <path
       inkscape:connector-curvature="0"
       id="path3679"
       d="m 1.4372313,295.54687 c -0.016535,-0.0896 0.1019775,-0.11162 0.1171364,-0.0221 l 0.052363,0.28112 c 0.012418,0.0579 0.055122,0.10749 0.1157569,0.1254 0.017921,0.006 0.038583,0.007 0.056497,0.008 l 0.1694991,10e-4 c 0.090953,-10e-4 0.090953,0.11851 -0.00141,0.11713 H 1.7679252 c -0.026176,0 -0.053742,-0.004 -0.081301,-0.0124 -0.106112,-0.0317 -0.1805235,-0.11852 -0.1984375,-0.22049 z m 0,0"
       style="fill:#ffffff;fill-opacity:1;fill-rule:nonzero;stroke:none;stroke-width:0.35277775" />
    <path
       inkscape:connector-curvature="0"
       id="path3681"
       d="m 2.5107235,295.67917 c -0.0248,-0.16124 0.2067066,-0.20947 0.2439141,-0.0455 l 0.063391,0.31557 h 0.2356451 c 0.067522,0 0.1047292,0.0551 0.1047292,0.10611 v 0.42857 c 0,0.10335 -0.1488265,0.10335 -0.1488265,-0.003 v -0.33211 H 2.709161 c -0.07028,0 -0.1143776,-0.0482 -0.1254019,-0.10335 z m 0,0"
       style="fill:#ffffff;fill-opacity:1;fill-rule:nonzero;stroke:none;stroke-width:0.35277775" />
    <path
       inkscape:connector-curvature="0"
       id="path3683"
       d="m 2.6209666,295.50553 c 0.07717,0 0.1391814,-0.062 0.1391814,-0.1378 0,-0.0772 -0.062011,-0.13919 -0.1378021,-0.13919 -0.07717,-0.001 -0.1405607,0.0606 -0.1405607,0.13781 0,0.0772 0.062011,0.13918 0.1391814,0.13918"
       style="fill:#ffffff;fill-opacity:1;fill-rule:nonzero;stroke:none;stroke-width:0.35277775" />
    <path
       inkscape:connector-curvature="0"
       id="path3685"
       d="m 2.3550074,295.84591 c -0.015169,-0.0896 0.101974,-0.11025 0.1185086,-0.0207 l 0.050991,0.27974 c 0.012418,0.0593 0.055122,0.10887 0.1157535,0.12678 0.017921,0.006 0.038587,0.007 0.056501,0.008 h 0.1694992 c 0.090949,0 0.090949,0.11851 -0.0014,0.11851 l -0.1777682,-0.001 c -0.027552,0 -0.055121,-0.003 -0.08268,-0.011 -0.1061085,-0.0317 -0.1791441,-0.11851 -0.1984375,-0.22049 z m 0,0"
       style="fill:#ffffff;fill-opacity:1;fill-rule:nonzero;stroke:none;stroke-width:0.35277775" />
  </g>
</svg>
