<?xml version="1.0" encoding="UTF-8" standalone="no"?>
<!-- Created with Inkscape (http://www.inkscape.org/) -->

<svg
   xmlns:dc="http://purl.org/dc/elements/1.1/"
   xmlns:cc="http://creativecommons.org/ns#"
   xmlns:rdf="http://www.w3.org/1999/02/22-rdf-syntax-ns#"
   xmlns:svg="http://www.w3.org/2000/svg"
   xmlns="http://www.w3.org/2000/svg"
   xmlns:sodipodi="http://sodipodi.sourceforge.net/DTD/sodipodi-0.dtd"
   xmlns:inkscape="http://www.inkscape.org/namespaces/inkscape"
   width="3.75mm"
   height="3.75mm"
   viewBox="0 0 3.75 3.75"
   version="1.1"
   id="svg13826"
   inkscape:version="0.92.1 r15371"
   sodipodi:docname="things_light.svg">
  <defs
     id="defs13820" />
  <sodipodi:namedview
     id="base"
     pagecolor="#ffffff"
     bordercolor="#666666"
     borderopacity="1.0"
     inkscape:pageopacity="0.0"
     inkscape:pageshadow="2"
     inkscape:zoom="20.285322"
     inkscape:cx="7.7306236"
     inkscape:cy="6.3112302"
     inkscape:document-units="mm"
     inkscape:current-layer="layer1"
     showgrid="false"
     inkscape:window-width="561"
     inkscape:window-height="558"
     inkscape:window-x="687"
     inkscape:window-y="78"
     inkscape:window-maximized="0"
     showguides="true"
     inkscape:guide-bbox="true"
     gridtolerance="10"
     guidetolerance="2">
    <inkscape:grid
       type="xygrid"
       id="grid13828" />
    <sodipodi:guide
       position="0.13043093,3.8477124"
       orientation="1,0"
       id="guide20533"
       inkscape:locked="false" />
    <sodipodi:guide
       position="1.9173346,3.6129367"
       orientation="0,1"
       id="guide20535"
       inkscape:locked="false" />
  </sodipodi:namedview>
  <metadata
     id="metadata13823">
    <rdf:RDF>
      <cc:Work
         rdf:about="">
        <dc:format>image/svg+xml</dc:format>
        <dc:type
           rdf:resource="http://purl.org/dc/dcmitype/StillImage" />
        <dc:title></dc:title>
      </cc:Work>
    </rdf:RDF>
  </metadata>
  <g
     inkscape:label="Layer 1"
     inkscape:groupmode="layer"
     id="layer1"
     transform="translate(0,-293.25)">
    <path
       inkscape:connector-curvature="0"
       id="path9175"
       d="m 0.53673167,296.87874 c -0.23013104,0 -0.41616487,-0.18603 -0.41616487,-0.41754 v -2.65411 c 0,-0.23013 0.18603383,-0.41616 0.41616487,-0.41616 H 3.1922134 c 0.2301311,0 0.4175443,0.18603 0.4175443,0.41616 v 2.65411 c 0,0.23151 -0.1874132,0.41754 -0.4175443,0.41754 z m 0,0"
       style="fill:#211e1e;fill-opacity:1;fill-rule:nonzero;stroke:none;stroke-width:0.35277775" />
    <path
       inkscape:connector-curvature="0"
       id="path9177"
       d="m 0.53673167,293.46121 c -0.19016838,0 -0.34588801,0.15572 -0.34588801,0.34588 v 2.65411 c 0,0.19155 0.15571963,0.34726 0.34588801,0.34726 H 3.1922134 c 0.1915478,0 0.3472638,-0.15571 0.3472638,-0.34726 v -2.65411 c 0,-0.19016 -0.155716,-0.34588 -0.3472638,-0.34588 z m 0,0"
       style="fill:#ffffff;fill-opacity:1;fill-rule:nonzero;stroke:none;stroke-width:0.35277775" />
    <path
       inkscape:connector-curvature="0"
       id="path9179"
       d="m 2.8545945,294.42721 v 1.50207 c 0,0.10748 -0.086819,0.19568 -0.1943065,0.19568 H 1.6047135 l -0.00413,0.003 v -0.003 H 1.0672848 c -0.10610855,0 -0.19430298,-0.0882 -0.19430298,-0.19568 v -1.59164 c 0,-0.10749 0.0881944,-0.1943 0.19430298,-0.1943 h 1.387683 c 0.033055,-0.0372 0.066146,-0.0744 0.1019775,-0.11025 H 1.0672848 c -0.16811981,0 -0.30454605,0.13643 -0.30454605,0.30455 v 1.59164 c 0,0.16812 0.13642624,0.30592 0.30454605,0.30592 h 1.5930103 c 0.1681234,0 0.3045494,-0.1378 0.3045494,-0.30592 v -1.59164 c 0,-0.0165 -0.0014,-0.0317 -0.00413,-0.0455 -0.034466,0.0414 -0.068904,0.0868 -0.1061085,0.13505"
       style="fill:#211e1e;fill-opacity:1;fill-rule:nonzero;stroke:none;stroke-width:0.35277775" />
    <path
       inkscape:connector-curvature="0"
       id="path9181"
       d="m 3.1577612,293.64311 -0.020672,0.0152 c -0.7083141,0.53054 -1.1988939,1.33945 -1.3132716,1.54065 -0.1226467,-0.39688 -0.2508038,-0.45338 -0.2563142,-0.45476 l -0.012418,-0.006 -0.355533,0.30592 0.023424,0.0165 c 0.3128116,0.21359 0.442348,0.8282 0.4437274,0.83509 l 0.00688,0.0345 0.3500225,-0.27423 0.00413,-0.003 0.00282,-0.006 c 0.4437262,-1.1038 1.1933789,-1.81901 1.2016482,-1.8259 l 0.012417,-0.0124 z m 0,0"
       style="fill:#211e1e;fill-opacity:1;fill-rule:nonzero;stroke:none;stroke-width:0.35277775" />
  </g>
</svg>
