<?xml version="1.0" encoding="UTF-8" standalone="no"?>
<!-- Created with Inkscape (http://www.inkscape.org/) -->

<svg
   xmlns:dc="http://purl.org/dc/elements/1.1/"
   xmlns:cc="http://creativecommons.org/ns#"
   xmlns:rdf="http://www.w3.org/1999/02/22-rdf-syntax-ns#"
   xmlns:svg="http://www.w3.org/2000/svg"
   xmlns="http://www.w3.org/2000/svg"
   xmlns:sodipodi="http://sodipodi.sourceforge.net/DTD/sodipodi-0.dtd"
   xmlns:inkscape="http://www.inkscape.org/namespaces/inkscape"
   width="3.75mm"
   height="3.75mm"
   viewBox="0 0 3.75 3.75"
   version="1.1"
   id="svg13826"
   inkscape:version="0.92.1 r15371"
   sodipodi:docname="things_dark.svg">
  <defs
     id="defs13820" />
  <sodipodi:namedview
     id="base"
     pagecolor="#ffffff"
     bordercolor="#666666"
     borderopacity="1.0"
     inkscape:pageopacity="0.0"
     inkscape:pageshadow="2"
     inkscape:zoom="20.285322"
     inkscape:cx="7.7306236"
     inkscape:cy="6.3112302"
     inkscape:document-units="mm"
     inkscape:current-layer="layer1"
     showgrid="false"
     inkscape:window-width="561"
     inkscape:window-height="558"
     inkscape:window-x="687"
     inkscape:window-y="78"
     inkscape:window-maximized="0"
     showguides="true"
     inkscape:guide-bbox="true"
     gridtolerance="10"
     guidetolerance="2">
    <inkscape:grid
       type="xygrid"
       id="grid13828" />
    <sodipodi:guide
       position="0.13043093,3.8477124"
       orientation="1,0"
       id="guide20533"
       inkscape:locked="false" />
    <sodipodi:guide
       position="1.9173346,3.6129367"
       orientation="0,1"
       id="guide20535"
       inkscape:locked="false" />
  </sodipodi:namedview>
  <metadata
     id="metadata13823">
    <rdf:RDF>
      <cc:Work
         rdf:about="">
        <dc:format>image/svg+xml</dc:format>
        <dc:type
           rdf:resource="http://purl.org/dc/dcmitype/StillImage" />
        <dc:title></dc:title>
      </cc:Work>
    </rdf:RDF>
  </metadata>
  <g
     inkscape:label="Layer 1"
     inkscape:groupmode="layer"
     id="layer1"
     transform="translate(0,-293.25)">
    <path
       inkscape:connector-curvature="0"
       id="path9137"
       d="m 0.55184209,293.46259 c -0.19154776,0 -0.34726386,0.15434 -0.34726386,0.34451 v 2.6541 c 0,0.19155 0.1557161,0.34589 0.34726386,0.34589 H 3.2045651 c 0.1915478,0 0.345888,-0.15434 0.345888,-0.34589 v -2.6541 c 0,-0.19017 -0.1543402,-0.34451 -0.345888,-0.34451 z m 0,0"
       style="fill:#ffffff;fill-opacity:1;fill-rule:nonzero;stroke:none;stroke-width:0.35277775" />
    <path
       inkscape:connector-curvature="0"
       id="path9139"
       d="m 3.2045651,296.87875 c 0.2301346,0 0.4175477,-0.18742 0.4175477,-0.41755 v -2.65272 c 0,-0.23014 -0.1874131,-0.41755 -0.4175477,-0.41755 H 0.55184209 c -0.23151042,0 -0.41754425,0.18741 -0.41754425,0.41755 v 2.65272 c 0,0.23013 0.18603383,0.41755 0.41754425,0.41755 z m 0,0"
       style="fill:#211e1e;fill-opacity:1;fill-rule:nonzero;stroke:none;stroke-width:0.35277775" />
    <path
       inkscape:connector-curvature="0"
       id="path9141"
       d="m 2.8683255,294.42859 v 1.50206 c 0,0.10749 -0.086819,0.19569 -0.1943029,0.19569 H 1.6184445 l -0.00282,0.003 -0.00141,-0.003 H 1.0822893 c -0.10748786,0 -0.19568227,-0.0882 -0.19568227,-0.19569 v -1.59163 c 0,-0.10748 0.0881944,-0.19568 0.19568227,-0.19568 h 1.3863072 c 0.033055,-0.0358 0.066146,-0.073 0.101974,-0.10887 H 1.0822893 c -0.16949911,0 -0.30592534,0.13643 -0.30592534,0.30455 v 1.59163 c 0,0.16813 0.13642623,0.30455 0.30592534,0.30455 h 1.5916345 c 0.1681198,0 0.3045459,-0.13642 0.3045459,-0.30455 v -1.59163 c 0,-0.0165 -0.0014,-0.0317 -0.00413,-0.0469 -0.033055,0.0427 -0.068901,0.0882 -0.1061085,0.13642"
       style="fill:#ffffff;fill-opacity:1;fill-rule:nonzero;stroke:none;stroke-width:0.35277775" />
    <path
       inkscape:connector-curvature="0"
       id="path9143"
       d="m 3.1714922,293.64449 -0.020672,0.0152 c -0.7069358,0.53054 -1.198895,1.33945 -1.3132726,1.54065 -0.1226432,-0.39826 -0.2508003,-0.45338 -0.2563142,-0.45614 l -0.012418,-0.004 -0.355533,0.30592 0.023424,0.0165 c 0.314191,0.21359 0.4423481,0.8282 0.4437274,0.83371 l 0.00688,0.0358 0.3500226,-0.27423 0.00413,-0.004 0.00282,-0.004 c 0.4437273,-1.10381 1.1947595,-1.81901 1.2016493,-1.82728 l 0.012417,-0.011 z m 0,0"
       style="fill:#ffffff;fill-opacity:1;fill-rule:nonzero;stroke:none;stroke-width:0.35277775" />
  </g>
</svg>
