<?xml version="1.0" encoding="UTF-8" standalone="no"?>
<!-- Created with Inkscape (http://www.inkscape.org/) -->

<svg
   xmlns:dc="http://purl.org/dc/elements/1.1/"
   xmlns:cc="http://creativecommons.org/ns#"
   xmlns:rdf="http://www.w3.org/1999/02/22-rdf-syntax-ns#"
   xmlns:svg="http://www.w3.org/2000/svg"
   xmlns="http://www.w3.org/2000/svg"
   xmlns:sodipodi="http://sodipodi.sourceforge.net/DTD/sodipodi-0.dtd"
   xmlns:inkscape="http://www.inkscape.org/namespaces/inkscape"
   width="3.75mm"
   height="3.75mm"
   viewBox="0 0 3.75 3.75"
   version="1.1"
   id="svg13826"
   inkscape:version="0.92.1 r15371"
   sodipodi:docname="trailhead_light.svg">
  <defs
     id="defs13820" />
  <sodipodi:namedview
     id="base"
     pagecolor="#ffffff"
     bordercolor="#666666"
     borderopacity="1.0"
     inkscape:pageopacity="0.0"
     inkscape:pageshadow="2"
     inkscape:zoom="20.285322"
     inkscape:cx="7.7306236"
     inkscape:cy="6.3112302"
     inkscape:document-units="mm"
     inkscape:current-layer="layer1"
     showgrid="false"
     inkscape:window-width="561"
     inkscape:window-height="558"
     inkscape:window-x="687"
     inkscape:window-y="78"
     inkscape:window-maximized="0"
     showguides="true"
     inkscape:guide-bbox="true"
     gridtolerance="10"
     guidetolerance="2">
    <inkscape:grid
       type="xygrid"
       id="grid13828" />
    <sodipodi:guide
       position="0.13043093,3.8477124"
       orientation="1,0"
       id="guide20533"
       inkscape:locked="false" />
    <sodipodi:guide
       position="1.9173346,3.6129367"
       orientation="0,1"
       id="guide20535"
       inkscape:locked="false" />
  </sodipodi:namedview>
  <metadata
     id="metadata13823">
    <rdf:RDF>
      <cc:Work
         rdf:about="">
        <dc:format>image/svg+xml</dc:format>
        <dc:type
           rdf:resource="http://purl.org/dc/dcmitype/StillImage" />
        <dc:title></dc:title>
      </cc:Work>
    </rdf:RDF>
  </metadata>
  <g
     inkscape:label="Layer 1"
     inkscape:groupmode="layer"
     id="layer1"
     transform="translate(0,-293.25)">
    <path
       inkscape:connector-curvature="0"
       id="path5301"
       d="m 3.1915255,296.87806 c 0.2301311,0 0.4175442,-0.18604 0.4175442,-0.41617 v -2.6541 c 0,-0.23013 -0.1874131,-0.41617 -0.4175442,-0.41617 H 0.53880251 c -0.23013458,0 -0.41754777,0.18604 -0.41754777,0.41617 v 2.6541 c 0,0.23013 0.18741319,0.41617 0.41754777,0.41617 z m 0,0"
       style="fill:#211e1e;fill-opacity:1;fill-rule:nonzero;stroke:none;stroke-width:0.35277775" />
    <path
       inkscape:connector-curvature="0"
       id="path5303"
       d="m 0.53880251,293.4619 c -0.19154775,0 -0.34588802,0.15572 -0.34588802,0.34589 v 2.6541 c 0,0.19017 0.15434027,0.34589 0.34588802,0.34589 H 3.1929013 c 0.1901719,0 0.3445121,-0.15572 0.3445121,-0.34589 v -2.6541 c 0,-0.19017 -0.1543402,-0.34589 -0.3445121,-0.34589 z m 0,0"
       style="fill:#ffffff;fill-opacity:1;fill-rule:nonzero;stroke:none;stroke-width:0.35277775" />
    <path
       inkscape:connector-curvature="0"
       id="path5305"
       d="m 1.7625004,293.87531 v 2.51906 h 0.1943029 v -2.52044 z m 0,0"
       style="fill:#211e1e;fill-opacity:1;fill-rule:nonzero;stroke:none;stroke-width:0.35277775" />
    <path
       inkscape:connector-curvature="0"
       id="path5307"
       d="m 3.1198657,296.39437 h 0.1943029 v -2.51906 H 3.1198657 Z m 0,0"
       style="fill:#211e1e;fill-opacity:1;fill-rule:nonzero;stroke:none;stroke-width:0.35277775" />
    <path
       inkscape:connector-curvature="0"
       id="path5309"
       d="M 2.9407216,294.11233 H 2.1359474 v -0.0992 h 0.8047742 z m 0,0.19018 H 2.1359474 v -0.1006 h 0.8047742 z m 0,0.18879 H 2.1359474 v -0.1006 h 0.8047742 z m 0,0.18879 H 2.1359474 v -0.0992 h 0.8047742 z m -0.894348,0.14056 h 0.9839219 v -0.95223 H 2.0463736 Z m 0,0"
       style="fill:#211e1e;fill-opacity:1;fill-rule:nonzero;stroke:none;stroke-width:0.35277775" />
    <path
       inkscape:connector-curvature="0"
       id="path5311"
       d="m 1.0969075,294.26667 c 0.110243,0 0.1998133,-0.0896 0.1998133,-0.19843 0,-0.11025 -0.08957,-0.19844 -0.1998133,-0.19844 -0.1088672,0 -0.19843747,0.0882 -0.19843747,0.19844 0,0.10886 0.0895703,0.19843 0.19843747,0.19843"
       style="fill:#211e1e;fill-opacity:1;fill-rule:nonzero;stroke:none;stroke-width:0.35277775" />
    <path
       inkscape:connector-curvature="0"
       id="path5313"
       d="m 0.7620438,294.29975 c 0.008255,-0.0317 -0.0110067,-0.062 -0.041342,-0.0689 l -0.16536459,-0.04 c -0.0316794,-0.007 -0.0620113,0.011 -0.068901,0.0414 l -0.13918142,0.57464 c -0.006879,0.0317 0.0110067,0.062 0.0413385,0.0689 l 0.16674393,0.04 c 0.0303036,0.008 0.0606355,-0.011 0.0675252,-0.0413 z m 0,0"
       style="fill:#211e1e;fill-opacity:1;fill-rule:nonzero;stroke:none;stroke-width:0.35277775" />
    <path
       inkscape:connector-curvature="0"
       id="path5315"
       d="m 0.41753516,296.22625 c -0.00141,0.01 -0.002822,0.0193 -0.002822,0.0276 0,0.0785 0.0620113,0.14056 0.13918141,0.14056 0.0633906,0 0.11713634,-0.0427 0.13367102,-0.1006 l 0.2397796,-0.99219 0.22875521,0.98668 c 0.015169,0.062 0.070277,0.10611 0.1364227,0.10611 0.075794,0 0.1391849,-0.062 0.1391849,-0.14056 0,-0.01 -0.00141,-0.0193 -0.00413,-0.0303 l -0.3128151,-1.31051 0.026176,-0.11576 0.020673,0.091 c 0.017921,0.0593 0.073036,0.0661 0.073036,0.0661 l 0.32246,0.0813 c 0.00688,10e-4 0.012418,10e-4 0.019297,10e-4 0.052366,0 0.095084,-0.0413 0.095084,-0.0951 0,-0.0441 -0.030304,-0.0827 -0.073036,-0.0923 l -0.2797421,-0.0703 -0.075791,-0.31281 c -0.037208,-0.17364 -0.2039514,-0.1695 -0.2039514,-0.1695 -0.16123,-0.004 -0.20119267,0.16536 -0.20119267,0.16536 z m 0,0"
       style="fill:#211e1e;fill-opacity:1;fill-rule:nonzero;stroke:none;stroke-width:0.35277775" />
  </g>
</svg>
