<?xml version="1.0" encoding="UTF-8" standalone="no"?>
<!-- Created with Inkscape (http://www.inkscape.org/) -->

<svg
   xmlns:dc="http://purl.org/dc/elements/1.1/"
   xmlns:cc="http://creativecommons.org/ns#"
   xmlns:rdf="http://www.w3.org/1999/02/22-rdf-syntax-ns#"
   xmlns:svg="http://www.w3.org/2000/svg"
   xmlns="http://www.w3.org/2000/svg"
   xmlns:sodipodi="http://sodipodi.sourceforge.net/DTD/sodipodi-0.dtd"
   xmlns:inkscape="http://www.inkscape.org/namespaces/inkscape"
   width="3.75mm"
   height="3.75mm"
   viewBox="0 0 3.75 3.75"
   version="1.1"
   id="svg13826"
   inkscape:version="0.92.1 r15371"
   sodipodi:docname="assistive_listening_system_tcoil_compatible_dark.svg">
  <defs
     id="defs13820" />
  <sodipodi:namedview
     id="base"
     pagecolor="#ffffff"
     bordercolor="#666666"
     borderopacity="1.0"
     inkscape:pageopacity="0.0"
     inkscape:pageshadow="2"
     inkscape:zoom="20.285322"
     inkscape:cx="6.4659906"
     inkscape:cy="7.6296575"
     inkscape:document-units="mm"
     inkscape:current-layer="layer1"
     showgrid="false"
     inkscape:window-width="561"
     inkscape:window-height="558"
     inkscape:window-x="747"
     inkscape:window-y="91"
     inkscape:window-maximized="0"
     showguides="true"
     inkscape:guide-bbox="true"
     gridtolerance="10"
     guidetolerance="2">
    <inkscape:grid
       type="xygrid"
       id="grid13828" />
    <sodipodi:guide
       position="0.13043093,3.8477124"
       orientation="1,0"
       id="guide20533"
       inkscape:locked="false" />
    <sodipodi:guide
       position="1.9173346,3.6129367"
       orientation="0,1"
       id="guide20535"
       inkscape:locked="false" />
  </sodipodi:namedview>
  <metadata
     id="metadata13823">
    <rdf:RDF>
      <cc:Work
         rdf:about="">
        <dc:format>image/svg+xml</dc:format>
        <dc:type
           rdf:resource="http://purl.org/dc/dcmitype/StillImage" />
        <dc:title></dc:title>
      </cc:Work>
    </rdf:RDF>
  </metadata>
  <g
     inkscape:label="Layer 1"
     inkscape:groupmode="layer"
     id="layer1"
     transform="translate(0,-293.25)">
    <path
       inkscape:connector-curvature="0"
       id="path8661"
       d="m 0.54908736,293.46053 c -0.1901691,0 -0.34450941,0.15572 -0.34450941,0.34589 v 2.65548 c 0,0.19017 0.15434031,0.34588 0.34450941,0.34588 H 3.2059447 c 0.1915475,0 0.3472656,-0.15571 0.3472656,-0.34588 v -2.65548 c 0,-0.19017 -0.1557181,-0.34589 -0.3472656,-0.34589 z m 0,0"
       style="fill:#ffffff;fill-opacity:1;fill-rule:nonzero;stroke:none;stroke-width:0.35277775" />
    <path
       inkscape:connector-curvature="0"
       id="path8663"
       d="m 0.54908736,296.87944 c -0.22875421,0 -0.41616741,-0.18741 -0.41616741,-0.41754 v -2.65548 c 0,-0.23013 0.1874132,-0.41617 0.41616741,-0.41617 H 3.2059447 c 0.2301325,0 0.4175459,0.18604 0.4175459,0.41617 v 2.65548 c 0,0.23013 -0.1874134,0.41754 -0.4175459,0.41754 z m 0,0"
       style="fill:#211e1e;fill-opacity:1;fill-rule:nonzero;stroke:none;stroke-width:0.35277775" />
    <path
       inkscape:connector-curvature="0"
       id="path8665"
       d="m 1.8265288,294.49681 h 0.064768 c 0.3541557,0 0.5567273,0.33762 0.5581053,0.56638 -0.00138,0.0441 -0.012404,0.0827 -0.062012,0.0813 -0.107487,10e-4 -0.068902,-0.1695 -0.1557181,-0.31419 -0.042719,-0.0717 -0.1750109,-0.20119 -0.3265953,-0.20119 h -0.056499 c -0.081304,0 -0.2342663,0.0469 -0.3362413,0.20119 -0.1281575,0.18604 -0.044097,0.32246 -0.151584,0.32246 -0.016538,0 -0.064768,-0.004 -0.06339,-0.0827 0.00413,-0.35002 0.3265949,-0.57327 0.5291666,-0.57327"
       style="fill:#ffffff;fill-opacity:1;fill-rule:nonzero;stroke:none;stroke-width:0.35277775" />
    <path
       inkscape:connector-curvature="0"
       id="path8667"
       d="m 1.8747602,296.43434 c 0.1336697,10e-4 0.2370226,-0.13367 0.2384006,-0.226 v -0.19293 c -0.00138,-0.39412 0.4120333,-0.54983 0.410655,-0.94533 0.00138,-0.36932 -0.332107,-0.64906 -0.6490556,-0.64768 -0.2604491,-10e-4 -0.4395942,0.16812 -0.507118,0.25494 -0.2025717,0.2508 -0.086817,0.4892 -0.2301325,0.4892 -0.039963,0 -0.079926,-0.0221 -0.081304,-0.10335 -0.00551,-0.39136 0.3169489,-0.80753 0.8268229,-0.80753 0.4106555,0 0.8144205,0.32797 0.8144205,0.82958 0,0.46577 -0.4065212,0.56224 -0.4065212,0.97151 v 0.17364 c 0,0.17914 -0.1598524,0.38447 -0.4230575,0.38585 -0.00964,-0.003 -0.020669,-0.007 -0.033073,-0.008 -0.048231,-0.0138 -0.082683,-0.0648 -0.07028,-0.11438 0.013779,-0.0427 0.053743,-0.0537 0.1074868,-0.0592 z m 0,0"
       style="fill:#ffffff;fill-opacity:1;fill-rule:nonzero;stroke:none;stroke-width:0.35277775" />
    <path
       inkscape:connector-curvature="0"
       id="path8669"
       d="m 3.0929459,296.31031 h -0.137804 v -0.11024 h 0.4230579 v 0.11024 H 3.2417741 v 0.44649 H 3.0929459 Z m 0,0"
       style="fill:#ffffff;fill-opacity:1;fill-rule:nonzero;stroke:none;stroke-width:0.35277775" />
    <path
       inkscape:connector-curvature="0"
       id="path8671"
       d="M 3.2045668,293.52254 H 2.9964831 l -0.7110677,0.76481 c 0.074414,0.0386 0.1446942,0.0868 0.2053275,0.1447 0.1005971,0.0965 0.1763889,0.21359 0.2218644,0.34175 l 0.7772136,-0.83509 v -0.13091 c 0,-0.1571 -0.1281578,-0.28526 -0.2852541,-0.28526"
       style="fill:#ffffff;fill-opacity:1;fill-rule:nonzero;stroke:none;stroke-width:0.35277775" />
    <path
       inkscape:connector-curvature="0"
       id="path8673"
       d="m 0.55046531,296.7444 h 0.3183269 l 0.92741959,-0.99495 -0.5443248,-0.3638 -0.98529735,1.05833 v 0.0165 c 0,0.1571 0.12815742,0.28388 0.28387566,0.28388"
       style="fill:#ffffff;fill-opacity:1;fill-rule:nonzero;stroke:none;stroke-width:0.35277775" />
  </g>
</svg>
