<?xml version="1.0" encoding="UTF-8" standalone="no"?>
<!-- Created with Inkscape (http://www.inkscape.org/) -->

<svg
   xmlns:dc="http://purl.org/dc/elements/1.1/"
   xmlns:cc="http://creativecommons.org/ns#"
   xmlns:rdf="http://www.w3.org/1999/02/22-rdf-syntax-ns#"
   xmlns:svg="http://www.w3.org/2000/svg"
   xmlns="http://www.w3.org/2000/svg"
   xmlns:sodipodi="http://sodipodi.sourceforge.net/DTD/sodipodi-0.dtd"
   xmlns:inkscape="http://www.inkscape.org/namespaces/inkscape"
   width="3.75mm"
   height="3.75mm"
   viewBox="0 0 3.75 3.75"
   version="1.1"
   id="svg13826"
   inkscape:version="0.92.1 r15371"
   sodipodi:docname="assistive_listening_system_tcoil_compatible_light.svg">
  <defs
     id="defs13820" />
  <sodipodi:namedview
     id="base"
     pagecolor="#ffffff"
     bordercolor="#666666"
     borderopacity="1.0"
     inkscape:pageopacity="0.0"
     inkscape:pageshadow="2"
     inkscape:zoom="20.285322"
     inkscape:cx="6.4659906"
     inkscape:cy="7.6296575"
     inkscape:document-units="mm"
     inkscape:current-layer="layer1"
     showgrid="false"
     inkscape:window-width="561"
     inkscape:window-height="558"
     inkscape:window-x="747"
     inkscape:window-y="91"
     inkscape:window-maximized="0"
     showguides="true"
     inkscape:guide-bbox="true"
     gridtolerance="10"
     guidetolerance="2">
    <inkscape:grid
       type="xygrid"
       id="grid13828" />
    <sodipodi:guide
       position="0.13043093,3.8477124"
       orientation="1,0"
       id="guide20533"
       inkscape:locked="false" />
    <sodipodi:guide
       position="1.9173346,3.6129367"
       orientation="0,1"
       id="guide20535"
       inkscape:locked="false" />
  </sodipodi:namedview>
  <metadata
     id="metadata13823">
    <rdf:RDF>
      <cc:Work
         rdf:about="">
        <dc:format>image/svg+xml</dc:format>
        <dc:type
           rdf:resource="http://purl.org/dc/dcmitype/StillImage" />
        <dc:title></dc:title>
      </cc:Work>
    </rdf:RDF>
  </metadata>
  <g
     inkscape:label="Layer 1"
     inkscape:groupmode="layer"
     id="layer1"
     transform="translate(0,-293.25)">
    <path
       inkscape:connector-curvature="0"
       id="path8647"
       d="m 0.5504653,296.87943 c -0.23013212,0 -0.41754531,-0.18741 -0.41754531,-0.41754 v -2.65548 c 0,-0.23013 0.18741319,-0.41617 0.41754531,-0.41617 h 2.6554795 c 0.2315104,0 0.4175459,0.18604 0.4175459,0.41617 v 2.65548 c 0,0.23013 -0.1860355,0.41754 -0.4175459,0.41754 z m 0,0"
       style="fill:#211e1e;fill-opacity:1;fill-rule:nonzero;stroke:none;stroke-width:0.35277775" />
    <path
       inkscape:connector-curvature="0"
       id="path8649"
       d="m 0.5504653,293.46052 c -0.1901691,0 -0.34588732,0.15572 -0.34588732,0.34589 v 2.65548 c 0,0.19017 0.15571822,0.34588 0.34588732,0.34588 h 2.6554795 c 0.1915475,0 0.3472656,-0.15571 0.3472656,-0.34588 v -2.65548 c 0,-0.19017 -0.1557181,-0.34589 -0.3472656,-0.34589 z m 0,0"
       style="fill:#ffffff;fill-opacity:1;fill-rule:nonzero;stroke:none;stroke-width:0.35277775" />
    <path
       inkscape:connector-curvature="0"
       id="path8651"
       d="m 1.8279068,294.4968 h 0.06339 c 0.3541557,10e-4 0.5581054,0.33762 0.5594833,0.56638 -0.00138,0.0441 -0.01378,0.0827 -0.06339,0.0813 -0.1061092,0.001 -0.067524,-0.1695 -0.1557182,-0.31419 -0.041341,-0.0717 -0.1750109,-0.20119 -0.3265953,-0.19982 h -0.055121 c -0.081304,-10e-4 -0.2342663,0.0455 -0.3376193,0.19982 -0.1281575,0.18604 -0.044097,0.32246 -0.151584,0.32108 -0.016538,0.001 -0.06339,-0.003 -0.06339,-0.0799 0.00551,-0.3514 0.3265949,-0.57327 0.5305446,-0.57465"
       style="fill:#211e1e;fill-opacity:1;fill-rule:nonzero;stroke:none;stroke-width:0.35277775" />
    <path
       inkscape:connector-curvature="0"
       id="path8653"
       d="m 1.8761382,296.43433 c 0.1322917,0.001 0.2356446,-0.13367 0.2370226,-0.226 v -0.19293 c -0.00138,-0.39412 0.4134114,-0.54983 0.4120334,-0.94395 0.00138,-0.3707 -0.3334854,-0.64906 -0.649056,-0.64906 -0.2618271,0 -0.4409722,0.16812 -0.508496,0.25494 -0.2025717,0.2508 -0.085439,0.49058 -0.2287545,0.49058 -0.041341,0 -0.081304,-0.0234 -0.081304,-0.10473 -0.00689,-0.39136 0.316949,-0.80753 0.825445,-0.80753 0.4120335,0 0.8157986,0.32797 0.8157986,0.82958 0,0.46577 -0.4078993,0.56224 -0.4078993,0.97151 v 0.17364 c 0,0.17914 -0.1598524,0.38447 -0.4230575,0.38585 -0.00964,-0.003 -0.020669,-0.007 -0.033073,-0.008 -0.048231,-0.0138 -0.081304,-0.0648 -0.07028,-0.11438 0.013779,-0.0427 0.053743,-0.0537 0.1074868,-0.0592 z m 0,0"
       style="fill:#211e1e;fill-opacity:1;fill-rule:nonzero;stroke:none;stroke-width:0.35277775" />
    <path
       inkscape:connector-curvature="0"
       id="path8655"
       d="M 3.0529826,296.3103 H 2.9151791 v -0.11024 h 0.4230574 v 0.11024 H 3.2004328 v 0.44649 H 3.0529826 Z m 0,0"
       style="fill:#211e1e;fill-opacity:1;fill-rule:nonzero;stroke:none;stroke-width:0.35277775" />
    <path
       inkscape:connector-curvature="0"
       id="path8657"
       d="M 3.2073228,293.52253 H 2.9978611 l -0.7110674,0.76481 c 0.074414,0.0372 0.144694,0.0868 0.2053276,0.1447 0.1019747,0.0965 0.1763889,0.21359 0.2218641,0.34175 l 0.7785915,-0.83509 v -0.13229 c 0,-0.1571 -0.1295355,-0.28388 -0.2852541,-0.28388"
       style="fill:#211e1e;fill-opacity:1;fill-rule:nonzero;stroke:none;stroke-width:0.35277775" />
    <path
       inkscape:connector-curvature="0"
       id="path8659"
       d="m 0.55184359,296.74439 h 0.31970485 l 0.92741956,-0.99633 -0.5443251,-0.36242 -0.98667535,1.05833 v 0.0152 c 0,0.1571 0.12815746,0.28526 0.28387604,0.28526"
       style="fill:#211e1e;fill-opacity:1;fill-rule:nonzero;stroke:none;stroke-width:0.35277775" />
  </g>
</svg>
