<?xml version="1.0" encoding="UTF-8" standalone="no"?>
<!-- Created with Inkscape (http://www.inkscape.org/) -->

<svg
   xmlns:dc="http://purl.org/dc/elements/1.1/"
   xmlns:cc="http://creativecommons.org/ns#"
   xmlns:rdf="http://www.w3.org/1999/02/22-rdf-syntax-ns#"
   xmlns:svg="http://www.w3.org/2000/svg"
   xmlns="http://www.w3.org/2000/svg"
   xmlns:sodipodi="http://sodipodi.sourceforge.net/DTD/sodipodi-0.dtd"
   xmlns:inkscape="http://www.inkscape.org/namespaces/inkscape"
   width="3.75mm"
   height="3.75mm"
   viewBox="0 0 3.75 3.75"
   version="1.1"
   id="svg13826"
   inkscape:version="0.92.1 r15371"
   sodipodi:docname="assistive_listening_system_tcoil_compatible_dark.svg">
  <defs
     id="defs13820" />
  <sodipodi:namedview
     id="base"
     pagecolor="#ffffff"
     bordercolor="#666666"
     borderopacity="1.0"
     inkscape:pageopacity="0.0"
     inkscape:pageshadow="2"
     inkscape:zoom="20.285322"
     inkscape:cx="-3.3734134"
     inkscape:cy="10.013467"
     inkscape:document-units="mm"
     inkscape:current-layer="layer1"
     showgrid="false"
     inkscape:window-width="1364"
     inkscape:window-height="740"
     inkscape:window-x="0"
     inkscape:window-y="1"
     inkscape:window-maximized="1"
     showguides="true"
     inkscape:guide-bbox="true"
     gridtolerance="10"
     guidetolerance="2">
    <inkscape:grid
       type="xygrid"
       id="grid13828" />
    <sodipodi:guide
       position="0.13043093,3.8477124"
       orientation="1,0"
       id="guide20533"
       inkscape:locked="false" />
    <sodipodi:guide
       position="1.9173346,3.6129367"
       orientation="0,1"
       id="guide20535"
       inkscape:locked="false" />
  </sodipodi:namedview>
  <metadata
     id="metadata13823">
    <rdf:RDF>
      <cc:Work
         rdf:about="">
        <dc:format>image/svg+xml</dc:format>
        <dc:type
           rdf:resource="http://purl.org/dc/dcmitype/StillImage" />
        <dc:title></dc:title>
      </cc:Work>
    </rdf:RDF>
  </metadata>
  <g
     inkscape:label="Layer 1"
     inkscape:groupmode="layer"
     id="layer1"
     transform="translate(0,-293.25)">
    <path
       inkscape:connector-curvature="0"
       id="path8313"
       d="m 0.53673329,296.87875 c -0.2301318,0 -0.4161678,-0.18604 -0.4161678,-0.41755 v -2.6541 c 0,-0.23013 0.186036,-0.41617 0.4161678,-0.41617 H 3.1922128 c 0.2301324,0 0.4175458,0.18604 0.4175458,0.41617 v 2.6541 c 0,0.23151 -0.1874134,0.41755 -0.4175458,0.41755 z m 0,0"
       style="fill:#211e1e;fill-opacity:1;fill-rule:nonzero;stroke:none;stroke-width:0.35277775" />
    <path
       inkscape:connector-curvature="0"
       id="path8315"
       d="m 0.53673329,293.46121 c -0.1901691,0 -0.3458878,0.15572 -0.3458878,0.34589 v 2.6541 c 0,0.19155 0.1557187,0.34726 0.3458878,0.34726 H 3.1922128 c 0.1915475,0 0.3472656,-0.15571 0.3472656,-0.34726 v -2.6541 c 0,-0.19017 -0.1557181,-0.34589 -0.3472656,-0.34589 z m 0,0"
       style="fill:#ffffff;fill-opacity:1;fill-rule:nonzero;stroke:none;stroke-width:0.35277775" />
    <path
       inkscape:connector-curvature="0"
       id="path8317"
       d="m 1.2684716,294.08409 c 0.1102431,0 0.1998158,-0.0896 0.1998158,-0.19982 0,-0.11024 -0.089573,-0.19982 -0.1998158,-0.19982 -0.110243,0 -0.1998154,0.0896 -0.1998154,0.19982 0,0.11024 0.089573,0.19982 0.1998154,0.19982"
       style="fill:#211e1e;fill-opacity:1;fill-rule:nonzero;stroke:none;stroke-width:0.35277775" />
    <path
       inkscape:connector-curvature="0"
       id="path8319"
       d="m 1.2684716,294.8985 c 0.1102431,0 0.1998158,-0.0896 0.1998158,-0.19981 0,-0.11025 -0.089573,-0.19982 -0.1998158,-0.19982 -0.110243,0 -0.1998154,0.0896 -0.1998154,0.19982 0,0.11024 0.089573,0.19981 0.1998154,0.19981"
       style="fill:#211e1e;fill-opacity:1;fill-rule:nonzero;stroke:none;stroke-width:0.35277775" />
    <path
       inkscape:connector-curvature="0"
       id="path8321"
       d="m 1.2684716,295.64816 c 0.1102431,0 0.1998158,-0.0896 0.1998158,-0.19982 0,-0.11024 -0.089573,-0.19981 -0.1998158,-0.19981 -0.110243,0 -0.1998154,0.0896 -0.1998154,0.19981 0,0.11024 0.089573,0.19982 0.1998154,0.19982"
       style="fill:#211e1e;fill-opacity:1;fill-rule:nonzero;stroke:none;stroke-width:0.35277775" />
    <path
       inkscape:connector-curvature="0"
       id="path8323"
       d="m 2.4632308,294.08409 c 0.110243,0 0.1998154,-0.0896 0.1998154,-0.19982 0,-0.11024 -0.089572,-0.19982 -0.1998154,-0.19982 -0.1102431,0 -0.1998155,0.0896 -0.1998155,0.19982 0,0.11024 0.089572,0.19982 0.1998155,0.19982"
       style="fill:#211e1e;fill-opacity:1;fill-rule:nonzero;stroke:none;stroke-width:0.35277775" />
    <path
       inkscape:connector-curvature="0"
       id="path8325"
       d="m 2.4632308,294.8985 c 0.110243,0 0.1998154,-0.0896 0.1998154,-0.19981 0,-0.11025 -0.089572,-0.19982 -0.1998154,-0.19982 -0.1102431,0 -0.1998155,0.0896 -0.1998155,0.19982 0,0.11024 0.089572,0.19981 0.1998155,0.19981"
       style="fill:#211e1e;fill-opacity:1;fill-rule:nonzero;stroke:none;stroke-width:0.35277775" />
    <path
       inkscape:connector-curvature="0"
       id="path8327"
       d="m 2.4632308,295.64816 c 0.110243,0 0.1998154,-0.0896 0.1998154,-0.19982 0,-0.11024 -0.089572,-0.19981 -0.1998154,-0.19981 -0.1102431,0 -0.1998155,0.0896 -0.1998155,0.19981 0,0.11024 0.089572,0.19982 0.1998155,0.19982"
       style="fill:#211e1e;fill-opacity:1;fill-rule:nonzero;stroke:none;stroke-width:0.35277775" />
    <path
       inkscape:connector-curvature="0"
       id="path8329"
       d="m 0.76962199,296.47498 h 0.1322917 c 0.049609,0 0.092329,-0.0152 0.092329,-0.0744 0,-0.0579 -0.035829,-0.0813 -0.089573,-0.0813 h -0.1350476 z m 0,-0.23978 h 0.1254015 c 0.044097,0 0.075792,-0.0207 0.075792,-0.0675 0,-0.0537 -0.041341,-0.0648 -0.085438,-0.0648 h -0.1157552 z m -0.1254016,-0.23013 h 0.2673392 c 0.10748721,0 0.18052311,0.0358 0.18052311,0.14056 0,0.0565 -0.027562,0.0951 -0.07717,0.11851 0.068902,0.0193 0.1047309,0.073 0.1047309,0.14332 0,0.11575 -0.097841,0.16536 -0.20119331,0.16536 h -0.2742298 z m 0,0"
       style="fill:#211e1e;fill-opacity:1;fill-rule:nonzero;stroke:none;stroke-width:0.35277775" />
    <path
       inkscape:connector-curvature="0"
       id="path8331"
       d="m 1.2188622,296.16217 h 0.1074872 v 0.0758 h 0.00138 c 0.020669,-0.051 0.075792,-0.0868 0.1309137,-0.0868 0.00827,0 0.017914,0.001 0.024804,0.004 v 0.10473 c -0.011024,-0.003 -0.027563,-0.004 -0.039963,-0.004 -0.082682,0 -0.111621,0.0593 -0.111621,0.13091 v 0.18604 H 1.2188595 Z m 0,0"
       style="fill:#211e1e;fill-opacity:1;fill-rule:nonzero;stroke:none;stroke-width:0.35277775" />
    <path
       inkscape:connector-curvature="0"
       id="path8333"
       d="m 1.8114188,296.37163 c -0.019293,0.0165 -0.059256,0.0165 -0.093707,0.0234 -0.035829,0.007 -0.067524,0.0193 -0.067524,0.0606 0,0.0413 0.033073,0.0524 0.07028,0.0524 0.088194,0 0.090951,-0.0703 0.090951,-0.0951 z m -0.2604495,-0.0841 c 0.00551,-0.10474 0.1005971,-0.13643 0.1929257,-0.13643 0.081304,0 0.1805228,0.0179 0.1805228,0.11576 v 0.21497 c 0,0.0358 0.00275,0.0744 0.01378,0.091 H 1.8238211 c -0.00413,-0.0138 -0.00689,-0.0262 -0.00827,-0.04 -0.035829,0.0372 -0.088194,0.051 -0.1378034,0.051 -0.07717,0 -0.1391821,-0.04 -0.1391821,-0.12402 0,-0.0923 0.068902,-0.11438 0.1391821,-0.12402 0.068902,-0.01 0.1336696,-0.008 0.1336696,-0.0537 0,-0.0482 -0.033073,-0.0565 -0.073036,-0.0565 -0.042719,0 -0.07028,0.0179 -0.074414,0.062 z m 0,0"
       style="fill:#211e1e;fill-opacity:1;fill-rule:nonzero;stroke:none;stroke-width:0.35277775" />
    <path
       inkscape:connector-curvature="0"
       id="path8335"
       d="m 2.0415513,296.16217 h 0.1129989 v 0.41065 H 2.0415513 Z m 0.1129989,-0.0634 H 2.0415513 v -0.0937 h 0.1129989 z m 0,0"
       style="fill:#211e1e;fill-opacity:1;fill-rule:nonzero;stroke:none;stroke-width:0.35277775" />
    <path
       inkscape:connector-curvature="0"
       id="path8337"
       d="m 2.2744396,296.00507 h 0.112999 v 0.56637 h -0.112999 z m 0,0"
       style="fill:#211e1e;fill-opacity:1;fill-rule:nonzero;stroke:none;stroke-width:0.35277775" />
    <path
       inkscape:connector-curvature="0"
       id="path8339"
       d="m 2.507328,296.00507 h 0.112999 v 0.56637 H 2.507328 Z m 0,0"
       style="fill:#211e1e;fill-opacity:1;fill-rule:nonzero;stroke:none;stroke-width:0.35277775" />
    <path
       inkscape:connector-curvature="0"
       id="path8341"
       d="m 3.0130682,296.3234 c -0.011024,-0.0579 -0.034453,-0.0882 -0.089573,-0.0882 -0.071658,0 -0.092328,0.0565 -0.093707,0.0882 z m -0.1832796,0.0716 c 0.00275,0.0703 0.037207,0.10336 0.1005973,0.10336 0.045475,0 0.081304,-0.0276 0.088194,-0.0538 h 0.099219 c -0.031694,0.0979 -0.099219,0.13918 -0.1915475,0.13918 -0.1295358,0 -0.2094617,-0.0896 -0.2094617,-0.21635 0,-0.12264 0.085438,-0.21635 0.2094617,-0.21635 0.1391819,0 0.206706,0.11713 0.1998154,0.24391 z m 0,0"
       style="fill:#211e1e;fill-opacity:1;fill-rule:nonzero;stroke:none;stroke-width:0.35277775" />
  </g>
</svg>
