<?xml version="1.0" encoding="UTF-8" standalone="no"?>
<!-- Created with Inkscape (http://www.inkscape.org/) -->

<svg
   xmlns:dc="http://purl.org/dc/elements/1.1/"
   xmlns:cc="http://creativecommons.org/ns#"
   xmlns:rdf="http://www.w3.org/1999/02/22-rdf-syntax-ns#"
   xmlns:svg="http://www.w3.org/2000/svg"
   xmlns="http://www.w3.org/2000/svg"
   xmlns:sodipodi="http://sodipodi.sourceforge.net/DTD/sodipodi-0.dtd"
   xmlns:inkscape="http://www.inkscape.org/namespaces/inkscape"
   width="3.75mm"
   height="3.75mm"
   viewBox="0 0 3.75 3.75"
   version="1.1"
   id="svg13826"
   inkscape:version="0.92.1 r15371"
   sodipodi:docname="closed_captioning_dark.svg">
  <defs
     id="defs13820" />
  <sodipodi:namedview
     id="base"
     pagecolor="#ffffff"
     bordercolor="#666666"
     borderopacity="1.0"
     inkscape:pageopacity="0.0"
     inkscape:pageshadow="2"
     inkscape:zoom="57.375555"
     inkscape:cx="4.1518939"
     inkscape:cy="13.126481"
     inkscape:document-units="mm"
     inkscape:current-layer="layer1"
     showgrid="false"
     inkscape:window-width="561"
     inkscape:window-height="558"
     inkscape:window-x="440"
     inkscape:window-y="78"
     inkscape:window-maximized="0"
     showguides="true"
     inkscape:guide-bbox="true"
     gridtolerance="10"
     guidetolerance="2">
    <inkscape:grid
       type="xygrid"
       id="grid13828" />
    <sodipodi:guide
       position="0.13043093,3.8477124"
       orientation="1,0"
       id="guide20533"
       inkscape:locked="false" />
    <sodipodi:guide
       position="1.9173346,3.6129367"
       orientation="0,1"
       id="guide20535"
       inkscape:locked="false" />
  </sodipodi:namedview>
  <metadata
     id="metadata13823">
    <rdf:RDF>
      <cc:Work
         rdf:about="">
        <dc:format>image/svg+xml</dc:format>
        <dc:type
           rdf:resource="http://purl.org/dc/dcmitype/StillImage" />
        <dc:title></dc:title>
      </cc:Work>
    </rdf:RDF>
  </metadata>
  <g
     inkscape:label="Layer 1"
     inkscape:groupmode="layer"
     id="layer1"
     transform="translate(0,-293.25)">
    <path
       inkscape:connector-curvature="0"
       id="path7531"
       d="m 0.54272299,293.45897 c -0.19154739,0 -0.34588766,0.15572 -0.34588766,0.34588 v 2.65411 c 0,0.19155 0.15434027,0.34726 0.34588766,0.34726 H 3.1982026 c 0.1901691,0 0.3472657,-0.15571 0.3472657,-0.34726 v -2.65411 c 0,-0.19016 -0.1570966,-0.34588 -0.3472657,-0.34588 z m 0,0"
       style="fill:#ffffff;fill-opacity:1;fill-rule:nonzero;stroke:none;stroke-width:0.35277775" />
    <path
       inkscape:connector-curvature="0"
       id="path7533"
       d="m 0.54272299,296.87651 c -0.23013246,0 -0.41754565,-0.18604 -0.41754565,-0.41755 v -2.65411 c 0,-0.23013 0.18741319,-0.41616 0.41754565,-0.41616 H 3.1982026 c 0.230132,0 0.4161674,0.18603 0.4161674,0.41616 v 2.65411 c 0,0.23151 -0.1860354,0.41755 -0.4161674,0.41755 z m 0,0"
       style="fill:#211e1e;fill-opacity:1;fill-rule:nonzero;stroke:none;stroke-width:0.35277775" />
    <path
       inkscape:connector-curvature="0"
       id="path7535"
       d="m 1.2965099,295.00788 c -0.00275,-0.0537 -0.020669,-0.0951 -0.050988,-0.12402 -0.030318,-0.0317 -0.071658,-0.0482 -0.1226452,-0.0482 -0.17914481,0 -0.20946181,0.18603 -0.20946181,0.32797 0,0.18053 0.068902,0.30041 0.20946181,0.30041 0.1226452,0 0.1708767,-0.0854 0.1846572,-0.17914 h 0.4809352 c -0.041341,0.3638 -0.3348633,0.49885 -0.6655924,0.49885 -0.38860661,0 -0.68626285,-0.21773 -0.68626285,-0.62288 0,-0.41065 0.28938784,-0.6463 0.68626285,-0.6463 0.3197048,0 0.6228732,0.13781 0.6559461,0.49334 z m 0,0"
       style="fill:#ffffff;fill-opacity:1;fill-rule:nonzero;stroke:none;stroke-width:0.35277775" />
    <path
       inkscape:connector-curvature="0"
       id="path7537"
       d="m 2.8247541,295.00788 c -0.00275,-0.0537 -0.020669,-0.0951 -0.050987,-0.12402 -0.028938,-0.0317 -0.07028,-0.0482 -0.1226453,-0.0482 -0.1791451,0 -0.2080838,0.18603 -0.2080838,0.32797 0,0.18053 0.067524,0.30041 0.2080838,0.30041 0.1226453,0 0.1708765,-0.0854 0.184657,-0.17914 h 0.4809353 c -0.039963,0.3638 -0.3334851,0.49885 -0.6655923,0.49885 -0.3886069,0 -0.6862632,-0.21773 -0.6862632,-0.62288 0,-0.41065 0.2893882,-0.6463 0.6862632,-0.6463 0.3210828,0 0.6228729,0.13781 0.657324,0.49334 z m 0,0"
       style="fill:#ffffff;fill-opacity:1;fill-rule:nonzero;stroke:none;stroke-width:0.35277775" />
  </g>
</svg>
