<?xml version="1.0" encoding="UTF-8" standalone="no"?>
<!-- Created with Inkscape (http://www.inkscape.org/) -->

<svg
   xmlns:dc="http://purl.org/dc/elements/1.1/"
   xmlns:cc="http://creativecommons.org/ns#"
   xmlns:rdf="http://www.w3.org/1999/02/22-rdf-syntax-ns#"
   xmlns:svg="http://www.w3.org/2000/svg"
   xmlns="http://www.w3.org/2000/svg"
   xmlns:sodipodi="http://sodipodi.sourceforge.net/DTD/sodipodi-0.dtd"
   xmlns:inkscape="http://www.inkscape.org/namespaces/inkscape"
   width="3.75mm"
   height="3.75mm"
   viewBox="0 0 3.75 3.75"
   version="1.1"
   id="svg13826"
   inkscape:version="0.92.1 r15371"
   sodipodi:docname="closed_captioning_dark.svg">
  <defs
     id="defs13820" />
  <sodipodi:namedview
     id="base"
     pagecolor="#ffffff"
     bordercolor="#666666"
     borderopacity="1.0"
     inkscape:pageopacity="0.0"
     inkscape:pageshadow="2"
     inkscape:zoom="20.285322"
     inkscape:cx="7.6568618"
     inkscape:cy="7.4289571"
     inkscape:document-units="mm"
     inkscape:current-layer="layer1"
     showgrid="false"
     inkscape:window-width="561"
     inkscape:window-height="558"
     inkscape:window-x="545"
     inkscape:window-y="48"
     inkscape:window-maximized="0"
     showguides="true"
     inkscape:guide-bbox="true"
     gridtolerance="10"
     guidetolerance="2">
    <inkscape:grid
       type="xygrid"
       id="grid13828" />
    <sodipodi:guide
       position="0.13043093,3.8477124"
       orientation="1,0"
       id="guide20533"
       inkscape:locked="false" />
    <sodipodi:guide
       position="1.9173346,3.6129367"
       orientation="0,1"
       id="guide20535"
       inkscape:locked="false" />
  </sodipodi:namedview>
  <metadata
     id="metadata13823">
    <rdf:RDF>
      <cc:Work
         rdf:about="">
        <dc:format>image/svg+xml</dc:format>
        <dc:type
           rdf:resource="http://purl.org/dc/dcmitype/StillImage" />
        <dc:title></dc:title>
      </cc:Work>
    </rdf:RDF>
  </metadata>
  <g
     inkscape:label="Layer 1"
     inkscape:groupmode="layer"
     id="layer1"
     transform="translate(0,-293.25)">
    <path
       inkscape:connector-curvature="0"
       id="path8977"
       d="m 3.2182992,296.87805 c 0.2301322,0 0.4161674,-0.18604 0.4161674,-0.41617 v -2.6541 c 0,-0.23013 -0.1860352,-0.41617 -0.4161674,-0.41617 H 0.56557593 c -0.2301325,0 -0.4175456,0.18604 -0.4175456,0.41617 v 2.6541 c 0,0.23013 0.1874131,0.41617 0.4175456,0.41617 z m 0,0"
       style="fill:#211e1e;fill-opacity:1;fill-rule:nonzero;stroke:none;stroke-width:0.35277775" />
    <path
       inkscape:connector-curvature="0"
       id="path8979"
       d="m 0.56557593,293.46189 c -0.1915474,0 -0.3458877,0.15572 -0.3458877,0.34589 v 2.6541 c 0,0.19017 0.1543403,0.34451 0.3458877,0.34451 H 3.2182992 c 0.1915475,0 0.3458877,-0.15434 0.3458877,-0.34451 v -2.6541 c 0,-0.19017 -0.1543402,-0.34589 -0.3458877,-0.34589 z m 0,0"
       style="fill:#ffffff;fill-opacity:1;fill-rule:nonzero;stroke:none;stroke-width:0.35277775" />
    <path
       inkscape:connector-curvature="0"
       id="path8981"
       d="M 2.7442542,296.31443 H 1.039621 v -1.29536 h 1.7046332 z m 0.00964,-1.54754 H 1.0299736 c -0.13918207,0 -0.23977877,0.10887 -0.23977877,0.24116 v 1.3174 c 0,0.13368 0.1088651,0.2384 0.23977877,0.2384 h 1.7253038 c 0.1322916,0 0.2384006,-0.0978 0.2384006,-0.2384 v -1.3174 c 0,-0.13367 -0.106109,-0.24116 -0.2397789,-0.24116"
       style="fill:#211e1e;fill-opacity:1;fill-rule:nonzero;stroke:none;stroke-width:0.35277775" />
    <path
       inkscape:connector-curvature="0"
       id="path8983"
       d="m 2.3184405,293.74852 c -0.00275,-0.17225 0.2466686,-0.17363 0.2494248,0 l -0.00413,0.52228 0.1336696,-0.16399 c 0.093707,-0.10197 0.2563153,0.04 0.1557184,0.15434 l -0.3265951,0.38723 c -0.050987,0.051 -0.1171331,0.051 -0.1694987,0 l -0.3238387,-0.38861 c -0.1005967,-0.11437 0.064768,-0.25769 0.1557182,-0.15434 l 0.1322916,0.16537 z m 0,0"
       style="fill:#211e1e;fill-opacity:1;fill-rule:nonzero;stroke:none;stroke-width:0.35277775" />
    <path
       inkscape:connector-curvature="0"
       id="path8985"
       d="m 1.2104975,294.55881 c -0.00138,0.17088 0.2494251,0.17363 0.2508031,0 l -0.00413,-0.52366 0.13367,0.16399 c 0.093706,0.10198 0.256315,-0.04 0.1557183,-0.15434 l -0.326595,-0.38723 c -0.050987,-0.051 -0.1171331,-0.051 -0.1694984,0 l -0.32383907,0.38861 c -0.1005967,0.11576 0.064768,0.25769 0.15571817,0.15434 l 0.1322918,-0.16537 z m 0,0"
       style="fill:#211e1e;fill-opacity:1;fill-rule:nonzero;stroke:none;stroke-width:0.35277775" />
    <path
       inkscape:connector-curvature="0"
       id="path8987"
       d="m 2.5926698,295.76184 c 0,0.0248 -0.020669,0.0441 -0.044097,0.0441 H 2.2564285 c -0.023428,0 -0.044097,-0.0193 -0.044097,-0.0441 v -0.31695 c 0,-0.0372 0.028938,-0.062 0.060634,-0.062 h 0.2590711 c 0.034452,0 0.060634,0.0276 0.060634,0.062 z m 0,0"
       style="fill:#211e1e;fill-opacity:1;fill-rule:nonzero;stroke:none;stroke-width:0.35277775" />
    <path
       inkscape:connector-curvature="0"
       id="path8989"
       d="m 2.5210118,295.79491 h -0.111621 v 0.42857 c 0,0.0758 0.111621,0.0758 0.111621,0 z m 0,0"
       style="fill:#211e1e;fill-opacity:1;fill-rule:nonzero;stroke:none;stroke-width:0.35277775" />
    <path
       inkscape:connector-curvature="0"
       id="path8991"
       d="m 2.3942323,295.79491 h -0.111621 v 0.42857 c 0,0.0758 0.111621,0.0758 0.111621,0 z m 0,0"
       style="fill:#211e1e;fill-opacity:1;fill-rule:nonzero;stroke:none;stroke-width:0.35277775" />
    <path
       inkscape:connector-curvature="0"
       id="path8993"
       d="m 2.4038787,295.35807 c 0.045475,0 0.082682,-0.0386 0.082682,-0.0841 0,-0.0455 -0.037207,-0.0827 -0.082682,-0.0827 -0.046854,0 -0.08406,0.0372 -0.08406,0.0827 0,0.0455 0.037207,0.0841 0.08406,0.0841"
       style="fill:#211e1e;fill-opacity:1;fill-rule:nonzero;stroke:none;stroke-width:0.35277775" />
    <path
       inkscape:connector-curvature="0"
       id="path8995"
       d="m 2.0827959,295.76184 c 0,0.0248 -0.022049,0.0441 -0.045476,0.0441 H 1.7451766 c -0.023428,0 -0.044097,-0.0193 -0.044097,-0.0441 v -0.31695 c 0,-0.0372 0.028938,-0.062 0.060633,-0.062 h 0.2590717 c 0.034452,0 0.062012,0.0276 0.062012,0.062 z m 0,0"
       style="fill:#211e1e;fill-opacity:1;fill-rule:nonzero;stroke:none;stroke-width:0.35277775" />
    <path
       inkscape:connector-curvature="0"
       id="path8997"
       d="m 2.0111379,295.79491 h -0.111621 v 0.42857 c 0,0.0758 0.111621,0.0758 0.111621,0 z m 0,0"
       style="fill:#211e1e;fill-opacity:1;fill-rule:nonzero;stroke:none;stroke-width:0.35277775" />
    <path
       inkscape:connector-curvature="0"
       id="path8999"
       d="m 1.8829801,295.79491 h -0.111621 v 0.42857 c 0,0.0758 0.111621,0.0758 0.111621,0 z m 0,0"
       style="fill:#211e1e;fill-opacity:1;fill-rule:nonzero;stroke:none;stroke-width:0.35277775" />
    <path
       inkscape:connector-curvature="0"
       id="path9001"
       d="m 1.8926264,295.35807 c 0.046853,0 0.084061,-0.0386 0.084061,-0.0841 0,-0.0455 -0.037207,-0.0827 -0.084061,-0.0827 -0.045475,0 -0.082682,0.0372 -0.082682,0.0827 0,0.0455 0.037207,0.0841 0.082682,0.0841"
       style="fill:#211e1e;fill-opacity:1;fill-rule:nonzero;stroke:none;stroke-width:0.35277775" />
    <path
       inkscape:connector-curvature="0"
       id="path9003"
       d="m 1.5715436,295.76184 c 0,0.0248 -0.020669,0.0441 -0.044097,0.0441 H 1.2353023 c -0.023428,0 -0.044097,-0.0193 -0.044097,-0.0441 v -0.31695 c 0,-0.0372 0.028938,-0.062 0.060634,-0.062 h 0.2590712 c 0.034452,0 0.060634,0.0276 0.060634,0.062 z m 0,0"
       style="fill:#211e1e;fill-opacity:1;fill-rule:nonzero;stroke:none;stroke-width:0.35277775" />
    <path
       inkscape:connector-curvature="0"
       id="path9005"
       d="m 1.4998856,295.79491 h -0.111621 v 0.42857 c 0,0.0758 0.111621,0.0758 0.111621,0 z m 0,0"
       style="fill:#211e1e;fill-opacity:1;fill-rule:nonzero;stroke:none;stroke-width:0.35277775" />
    <path
       inkscape:connector-curvature="0"
       id="path9007"
       d="M 1.3717282,295.79491 H 1.2614851 v 0.42857 c 0,0.0758 0.1102431,0.0758 0.1102431,0 z m 0,0"
       style="fill:#211e1e;fill-opacity:1;fill-rule:nonzero;stroke:none;stroke-width:0.35277775" />
    <path
       inkscape:connector-curvature="0"
       id="path9009"
       d="m 1.3827525,295.35807 c 0.045475,0 0.082682,-0.0386 0.082682,-0.0841 0,-0.0455 -0.037207,-0.0827 -0.082682,-0.0827 -0.046853,0 -0.084061,0.0372 -0.084061,0.0827 0,0.0455 0.037207,0.0841 0.084061,0.0841"
       style="fill:#211e1e;fill-opacity:1;fill-rule:nonzero;stroke:none;stroke-width:0.35277775" />
  </g>
</svg>
