<?xml version="1.0" encoding="UTF-8" standalone="no"?>
<!-- Created with Inkscape (http://www.inkscape.org/) -->

<svg
   xmlns:dc="http://purl.org/dc/elements/1.1/"
   xmlns:cc="http://creativecommons.org/ns#"
   xmlns:rdf="http://www.w3.org/1999/02/22-rdf-syntax-ns#"
   xmlns:svg="http://www.w3.org/2000/svg"
   xmlns="http://www.w3.org/2000/svg"
   xmlns:sodipodi="http://sodipodi.sourceforge.net/DTD/sodipodi-0.dtd"
   xmlns:inkscape="http://www.inkscape.org/namespaces/inkscape"
   width="3.75mm"
   height="3.75mm"
   viewBox="0 0 3.75 3.75"
   version="1.1"
   id="svg13826"
   inkscape:version="0.92.1 r15371"
   sodipodi:docname="large_print_light.svg">
  <defs
     id="defs13820" />
  <sodipodi:namedview
     id="base"
     pagecolor="#ffffff"
     bordercolor="#666666"
     borderopacity="1.0"
     inkscape:pageopacity="0.0"
     inkscape:pageshadow="2"
     inkscape:zoom="81.141287"
     inkscape:cx="2.1298215"
     inkscape:cy="12.738695"
     inkscape:document-units="mm"
     inkscape:current-layer="layer1"
     showgrid="false"
     inkscape:window-width="561"
     inkscape:window-height="558"
     inkscape:window-x="687"
     inkscape:window-y="78"
     inkscape:window-maximized="0"
     showguides="true"
     inkscape:guide-bbox="true"
     gridtolerance="10"
     guidetolerance="2">
    <inkscape:grid
       type="xygrid"
       id="grid13828" />
    <sodipodi:guide
       position="0.13043093,3.8477124"
       orientation="1,0"
       id="guide20533"
       inkscape:locked="false" />
    <sodipodi:guide
       position="1.9173346,3.6129367"
       orientation="0,1"
       id="guide20535"
       inkscape:locked="false" />
  </sodipodi:namedview>
  <metadata
     id="metadata13823">
    <rdf:RDF>
      <cc:Work
         rdf:about="">
        <dc:format>image/svg+xml</dc:format>
        <dc:type
           rdf:resource="http://purl.org/dc/dcmitype/StillImage" />
        <dc:title></dc:title>
      </cc:Work>
    </rdf:RDF>
  </metadata>
  <g
     inkscape:label="Layer 1"
     inkscape:groupmode="layer"
     id="layer1"
     transform="translate(0,-293.25)">
    <path
       inkscape:connector-curvature="0"
       id="path8361"
       d="m 0.54325517,296.87943 c -0.2301325,0 -0.41616772,-0.18741 -0.41616772,-0.41892 v -2.65273 c 0,-0.23013 0.18603522,-0.41754 0.41616772,-0.41754 H 3.1987343 c 0.2301324,0 0.4175458,0.18741 0.4175458,0.41754 v 2.65273 c 0,0.23151 -0.1874134,0.41892 -0.4175458,0.41892 z m 0,0"
       style="fill:#211e1e;fill-opacity:1;fill-rule:nonzero;stroke:none;stroke-width:0.35277775" />
    <path
       inkscape:connector-curvature="0"
       id="path8363"
       d="m 0.54325517,293.46052 c -0.1901695,0 -0.34588768,0.15572 -0.34588768,0.34589 v 2.65548 c 0,0.19017 0.15571818,0.34588 0.34588768,0.34588 H 3.1987343 c 0.1915475,0 0.3472656,-0.15571 0.3472656,-0.34588 v -2.65548 c 0,-0.19017 -0.1557181,-0.34589 -0.3472656,-0.34589 z m 0,0"
       style="fill:#ffffff;fill-opacity:1;fill-rule:nonzero;stroke:none;stroke-width:0.35277775" />
    <path
       inkscape:connector-curvature="0"
       id="path8365"
       d="m 0.43990217,294.133 h 0.1722547 v 0.64217 h 0.3844727 v 0.14469 h -0.5567274 z m 0,0"
       style="fill:#211e1e;fill-opacity:1;fill-rule:nonzero;stroke:none;stroke-width:0.35277775" />
    <path
       inkscape:connector-curvature="0"
       id="path8367"
       d="m 1.4431139,294.6415 c -0.026183,0.0234 -0.081304,0.0234 -0.1309137,0.0331 -0.048231,0.01 -0.092329,0.0262 -0.092329,0.0841 0,0.0579 0.045475,0.073 0.096463,0.073 0.1226453,0 0.1267795,-0.0978 0.1267795,-0.13229 z m -0.3624241,-0.11576 c 0.00964,-0.14607 0.1405597,-0.19016 0.2687175,-0.19016 0.112999,0 0.2494249,0.0248 0.2494249,0.16123 v 0.29627 c 0,0.0524 0.00551,0.10473 0.020669,0.12678 H 1.4610283 c -0.00551,-0.0165 -0.011024,-0.0358 -0.011024,-0.0551 -0.049609,0.0524 -0.1226453,0.0717 -0.1929253,0.0717 -0.1074868,0 -0.1929254,-0.0551 -0.1929254,-0.17088 0,-0.12953 0.096463,-0.15985 0.1929254,-0.17363 0.096462,-0.0138 0.1860352,-0.011 0.1860352,-0.0758 0,-0.0661 -0.046853,-0.0758 -0.101975,-0.0758 -0.059255,0 -0.097841,0.0234 -0.1033526,0.0854 z m 0,0"
       style="fill:#211e1e;fill-opacity:1;fill-rule:nonzero;stroke:none;stroke-width:0.35277775" />
    <path
       inkscape:connector-curvature="0"
       id="path8369"
       d="m 1.7311238,294.35073 h 0.1488281 v 0.10611 h 0.00275 c 0.028938,-0.0717 0.1061092,-0.12126 0.1819014,-0.12126 0.011024,0 0.024804,0.001 0.034452,0.006 v 0.14469 c -0.015159,-0.003 -0.037207,-0.005 -0.056499,-0.005 -0.1143772,0 -0.1543403,0.0827 -0.1543403,0.18328 v 0.25632 H 1.731121 Z m 0,0"
       style="fill:#211e1e;fill-opacity:1;fill-rule:nonzero;stroke:none;stroke-width:0.35277775" />
    <path
       inkscape:connector-curvature="0"
       id="path8371"
       d="m 2.570349,294.62772 c 0,-0.0923 -0.031694,-0.17501 -0.1336697,-0.17501 -0.088194,0 -0.1267795,0.0772 -0.1267795,0.16261 0,0.0813 0.031694,0.17087 0.1267795,0.17087 0.089573,0 0.1336697,-0.0772 0.1336697,-0.15847 m 0.1488281,0.25632 c 0,0.0937 -0.033073,0.25217 -0.2949,0.25217 -0.1129993,0 -0.243913,-0.0524 -0.2521811,-0.18327 h 0.1557183 c 0.015159,0.0593 0.062012,0.0785 0.1171331,0.0785 0.086816,0 0.1254016,-0.0592 0.1254016,-0.14056 v -0.0758 h -0.00138 c -0.034452,0.0606 -0.1033529,0.0882 -0.1708767,0.0882 -0.1708767,0 -0.2439127,-0.12954 -0.2439127,-0.28664 0,-0.14745 0.08406,-0.28111 0.2439127,-0.28111 0.075792,0 0.1322917,0.0248 0.1708767,0.0909 h 0.00138 v -0.0758 h 0.1488281 z m 0,0"
       style="fill:#211e1e;fill-opacity:1;fill-rule:nonzero;stroke:none;stroke-width:0.35277775" />
    <path
       inkscape:connector-curvature="0"
       id="path8373"
       d="m 3.2400757,294.57398 c -0.015158,-0.0799 -0.048231,-0.12127 -0.1254017,-0.12127 -0.099219,0 -0.1267793,0.0772 -0.1295357,0.12127 z m -0.2549374,0.0992 c 0.00414,0.0992 0.052366,0.1447 0.1405601,0.1447 0.062012,0 0.1129991,-0.0386 0.1226452,-0.0744 h 0.137804 c -0.044097,0.13505 -0.137804,0.19155 -0.2659612,0.19155 -0.1805231,0 -0.2921442,-0.12264 -0.2921442,-0.29903 0,-0.17088 0.1185113,-0.30041 0.2921442,-0.30041 0.1929251,0 0.2866318,0.1626 0.2756074,0.33761 z m 0,0"
       style="fill:#211e1e;fill-opacity:1;fill-rule:nonzero;stroke:none;stroke-width:0.35277775" />
    <path
       inkscape:connector-curvature="0"
       id="path8375"
       d="M 0.87811817,295.73842 H 1.0131661 c 0.079926,0 0.151584,-0.0179 0.151584,-0.11852 0,-0.0992 -0.071658,-0.11713 -0.151584,-0.11713 H 0.87811817 Z m -0.1722547,-0.37069 H 1.0600191 c 0.1970596,0 0.2728518,0.1254 0.2728518,0.25217 0,0.12816 -0.075792,0.25356 -0.2728518,0.25356 H 0.87811817 v 0.28113 h -0.1722547 z m 0,0"
       style="fill:#211e1e;fill-opacity:1;fill-rule:nonzero;stroke:none;stroke-width:0.35277775" />
    <path
       inkscape:connector-curvature="0"
       id="path8377"
       d="m 1.4348455,295.58546 h 0.1488282 v 0.1061 h 0.00275 c 0.028938,-0.0717 0.1061089,-0.12126 0.181901,-0.12126 0.011024,0 0.023428,0.001 0.034452,0.005 v 0.1447 c -0.015159,-0.003 -0.038585,-0.006 -0.056499,-0.006 -0.1143772,0 -0.1543402,0.0827 -0.1543402,0.18328 v 0.25632 H 1.4348424 Z m 0,0"
       style="fill:#211e1e;fill-opacity:1;fill-rule:nonzero;stroke:none;stroke-width:0.35277775" />
    <path
       inkscape:connector-curvature="0"
       id="path8379"
       d="m 1.8799519,295.58546 h 0.1557183 v 0.56913 H 1.8799519 Z m 0.1557183,-0.0882 H 1.8799519 v -0.12953 h 0.1557183 z m 0,0"
       style="fill:#211e1e;fill-opacity:1;fill-rule:nonzero;stroke:none;stroke-width:0.35277775" />
    <path
       inkscape:connector-curvature="0"
       id="path8381"
       d="m 2.1707181,295.58546 h 0.1488281 v 0.0785 h 0.00275 c 0.039963,-0.0634 0.1088651,-0.0937 0.1750109,-0.0937 0.1653646,0 0.2080839,0.0937 0.2080839,0.23426 v 0.35003 H 2.5482961 v -0.32109 c 0,-0.0937 -0.027563,-0.14056 -0.1005967,-0.14056 -0.08406,0 -0.1212673,0.0469 -0.1212673,0.16261 v 0.29904 H 2.1707139 Z m 0,0"
       style="fill:#211e1e;fill-opacity:1;fill-rule:nonzero;stroke:none;stroke-width:0.35277775" />
    <path
       inkscape:connector-curvature="0"
       id="path8383"
       d="m 3.0333697,295.58546 h 0.1143772 v 0.10473 H 3.0333697 v 0.28249 c 0,0.0524 0.01378,0.0661 0.066146,0.0661 0.016534,0 0.031694,-10e-4 0.048231,-0.006 v 0.12264 c -0.026183,0.004 -0.060633,0.005 -0.09095,0.005 -0.096463,0 -0.1791452,-0.022 -0.1791452,-0.13505 v -0.33624 h -0.095085 v -0.10473 h 0.095085 v -0.17088 h 0.1557182 z m 0,0"
       style="fill:#211e1e;fill-opacity:1;fill-rule:nonzero;stroke:none;stroke-width:0.35277775" />
  </g>
</svg>
