<?xml version="1.0" encoding="UTF-8" standalone="no"?>
<!-- Created with Inkscape (http://www.inkscape.org/) -->

<svg
   xmlns:dc="http://purl.org/dc/elements/1.1/"
   xmlns:cc="http://creativecommons.org/ns#"
   xmlns:rdf="http://www.w3.org/1999/02/22-rdf-syntax-ns#"
   xmlns:svg="http://www.w3.org/2000/svg"
   xmlns="http://www.w3.org/2000/svg"
   xmlns:sodipodi="http://sodipodi.sourceforge.net/DTD/sodipodi-0.dtd"
   xmlns:inkscape="http://www.inkscape.org/namespaces/inkscape"
   width="3.75mm"
   height="3.75mm"
   viewBox="0 0 3.75 3.75"
   version="1.1"
   id="svg13826"
   inkscape:version="0.92.1 r15371"
   sodipodi:docname="large_print_light.svg">
  <defs
     id="defs13820" />
  <sodipodi:namedview
     id="base"
     pagecolor="#ffffff"
     bordercolor="#666666"
     borderopacity="1.0"
     inkscape:pageopacity="0.0"
     inkscape:pageshadow="2"
     inkscape:zoom="28.687777"
     inkscape:cx="5.2165003"
     inkscape:cy="7.7131246"
     inkscape:document-units="mm"
     inkscape:current-layer="layer1"
     showgrid="false"
     inkscape:window-width="561"
     inkscape:window-height="558"
     inkscape:window-x="687"
     inkscape:window-y="78"
     inkscape:window-maximized="0"
     showguides="true"
     inkscape:guide-bbox="true"
     gridtolerance="10"
     guidetolerance="2">
    <inkscape:grid
       type="xygrid"
       id="grid13828" />
    <sodipodi:guide
       position="0.13043093,3.8477124"
       orientation="1,0"
       id="guide20533"
       inkscape:locked="false" />
    <sodipodi:guide
       position="1.9173346,3.6129367"
       orientation="0,1"
       id="guide20535"
       inkscape:locked="false" />
  </sodipodi:namedview>
  <metadata
     id="metadata13823">
    <rdf:RDF>
      <cc:Work
         rdf:about="">
        <dc:format>image/svg+xml</dc:format>
        <dc:type
           rdf:resource="http://purl.org/dc/dcmitype/StillImage" />
        <dc:title></dc:title>
      </cc:Work>
    </rdf:RDF>
  </metadata>
  <g
     inkscape:label="Layer 1"
     inkscape:groupmode="layer"
     id="layer1"
     transform="translate(0,-293.25)">
    <path
       inkscape:connector-curvature="0"
       id="path8009"
       d="m 0.53527778,293.46267 c -0.19016909,0 -0.34588766,0.15572 -0.34588766,0.34726 v 2.65411 c 0,0.19017 0.15571857,0.34588 0.34588766,0.34588 H 3.1907575 c 0.191547,0 0.3472657,-0.15571 0.3472657,-0.34588 v -2.65411 c 0,-0.19154 -0.1557187,-0.34726 -0.3472657,-0.34726 z m 0,0"
       style="fill:#ffffff;fill-opacity:1;fill-rule:nonzero;stroke:none;stroke-width:0.35277775" />
    <path
       inkscape:connector-curvature="0"
       id="path8011"
       d="m 0.53527778,296.88158 c -0.23013246,0 -0.41754565,-0.18741 -0.41754565,-0.41754 v -2.65411 c 0,-0.23013 0.18741319,-0.41754 0.41754565,-0.41754 H 3.1907575 c 0.2301325,0 0.4175456,0.18741 0.4175456,0.41754 v 2.65411 c 0,0.23013 -0.1874131,0.41754 -0.4175456,0.41754 z m 0,0"
       style="fill:#211e1e;fill-opacity:1;fill-rule:nonzero;stroke:none;stroke-width:0.35277775" />
    <path
       inkscape:connector-curvature="0"
       id="path8013"
       d="m 1.6349525,293.85265 c 0,-0.1254 -0.1047313,-0.23013 -0.2301325,-0.22875 -0.1295357,-10e-4 -0.2342666,0.10335 -0.2342666,0.22875 0,0.12954 0.1047309,0.23427 0.2342666,0.23427 0.1254012,0 0.2301325,-0.10473 0.2301325,-0.23427"
       style="fill:#ffffff;fill-opacity:1;fill-rule:nonzero;stroke:none;stroke-width:0.35277775" />
    <path
       inkscape:connector-curvature="0"
       id="path8015"
       d="m 2.3005446,295.12183 -0.7427623,-0.89986 c -0.038585,-0.0565 -0.252181,-0.0813 -0.3431317,-0.008 l -0.36242387,0.65733 0.0895724,0.55535 c 0.0895724,0.14469 0.26871727,-10e-4 0.21910817,-0.0813 l -0.060634,-0.39274 0.1502065,-0.28801 -0.00827,0.70556 -0.32521705,1.01286 c -0.0633896,0.21635 0.25355905,0.30454 0.31694905,0.0978 l 0.4010092,-1.11897 -0.00275,-0.56913 -0.1874132,-0.22049 c -0.00827,-0.011 -0.00689,-0.0276 0.00413,-0.0358 0.00964,-0.01 0.026183,-0.008 0.035829,0.003 l 0.6173611,0.72898 c 0.099219,0.13642 0.2976562,-0.008 0.1984375,-0.14608"
       style="fill:#ffffff;fill-opacity:1;fill-rule:nonzero;stroke:none;stroke-width:0.35277775" />
    <path
       inkscape:connector-curvature="0"
       id="path8017"
       d="m 2.016669,296.37171 -0.3638021,-0.90675 -0.1488281,0.41616 0.2122177,0.61185 c 0.086816,0.2012 0.3886069,0.0841 0.3004125,-0.12126"
       style="fill:#ffffff;fill-opacity:1;fill-rule:nonzero;stroke:none;stroke-width:0.35277775" />
    <path
       inkscape:connector-curvature="0"
       id="path8019"
       d="m 2.9840516,296.57979 c 0.00138,0 0.00138,10e-4 0.00138,10e-4 0.01378,0.0179 0.038585,0.0193 0.0565,0.006 0.015158,-0.0138 0.019293,-0.0372 0.00827,-0.0537 L 2.3625617,295.3411 c -0.00138,-10e-4 -0.00138,-10e-4 -0.00275,-0.003 -0.01378,-0.0165 -0.038585,-0.0179 -0.055121,-0.004 -0.015159,0.0138 -0.017914,0.0345 -0.00689,0.0524 z m 0,0"
       style="fill:#ffffff;fill-opacity:1;fill-rule:nonzero;stroke:none;stroke-width:0.35277775" />
  </g>
</svg>
