<?xml version="1.0" encoding="UTF-8" standalone="no"?>
<!-- Created with Inkscape (http://www.inkscape.org/) -->

<svg
   xmlns:dc="http://purl.org/dc/elements/1.1/"
   xmlns:cc="http://creativecommons.org/ns#"
   xmlns:rdf="http://www.w3.org/1999/02/22-rdf-syntax-ns#"
   xmlns:svg="http://www.w3.org/2000/svg"
   xmlns="http://www.w3.org/2000/svg"
   xmlns:sodipodi="http://sodipodi.sourceforge.net/DTD/sodipodi-0.dtd"
   xmlns:inkscape="http://www.inkscape.org/namespaces/inkscape"
   width="3.75mm"
   height="3.75mm"
   viewBox="0 0 3.75 3.75"
   version="1.1"
   id="svg13826"
   inkscape:version="0.92.1 r15371"
   sodipodi:docname="large_print_light.svg">
  <defs
     id="defs13820" />
  <sodipodi:namedview
     id="base"
     pagecolor="#ffffff"
     bordercolor="#666666"
     borderopacity="1.0"
     inkscape:pageopacity="0.0"
     inkscape:pageshadow="2"
     inkscape:zoom="81.141287"
     inkscape:cx="2.209518"
     inkscape:cy="11.368558"
     inkscape:document-units="mm"
     inkscape:current-layer="layer1"
     showgrid="false"
     inkscape:window-width="561"
     inkscape:window-height="558"
     inkscape:window-x="687"
     inkscape:window-y="78"
     inkscape:window-maximized="0"
     showguides="true"
     inkscape:guide-bbox="true"
     gridtolerance="10"
     guidetolerance="2">
    <inkscape:grid
       type="xygrid"
       id="grid13828" />
    <sodipodi:guide
       position="0.13043093,3.8477124"
       orientation="1,0"
       id="guide20533"
       inkscape:locked="false" />
    <sodipodi:guide
       position="1.9173346,3.6129367"
       orientation="0,1"
       id="guide20535"
       inkscape:locked="false" />
  </sodipodi:namedview>
  <metadata
     id="metadata13823">
    <rdf:RDF>
      <cc:Work
         rdf:about="">
        <dc:format>image/svg+xml</dc:format>
        <dc:type
           rdf:resource="http://purl.org/dc/dcmitype/StillImage" />
        <dc:title></dc:title>
      </cc:Work>
    </rdf:RDF>
  </metadata>
  <g
     inkscape:label="Layer 1"
     inkscape:groupmode="layer"
     id="layer1"
     transform="translate(0,-293.25)">
    <path
       inkscape:connector-curvature="0"
       id="path8301"
       d="m 0.54977669,296.87617 c -0.23013246,0 -0.4161677,-0.18741 -0.4161677,-0.41754 v -2.65411 c 0,-0.23013 0.18603524,-0.41754 0.4161677,-0.41754 H 3.2052559 c 0.2301324,0 0.4175458,0.18741 0.4175458,0.41754 v 2.65411 c 0,0.23013 -0.1874134,0.41754 -0.4175458,0.41754 z m 0,0"
       style="fill:#211e1e;fill-opacity:1;fill-rule:nonzero;stroke:none;stroke-width:0.35277775" />
    <path
       inkscape:connector-curvature="0"
       id="path8303"
       d="m 0.54977669,293.45726 c -0.19016944,0 -0.34588766,0.15572 -0.34588766,0.34726 v 2.65411 c 0,0.19017 0.15571822,0.34588 0.34588766,0.34588 H 3.2052559 c 0.1915475,0 0.3472656,-0.15571 0.3472656,-0.34588 v -2.65411 c 0,-0.19154 -0.1557181,-0.34726 -0.3472656,-0.34726 z m 0,0"
       style="fill:#ffffff;fill-opacity:1;fill-rule:nonzero;stroke:none;stroke-width:0.35277775" />
    <path
       inkscape:connector-curvature="0"
       id="path8305"
       d="m 1.648073,293.84724 c 0.00138,-0.1254 -0.101975,-0.23013 -0.2287545,-0.22875 -0.1295354,-0.001 -0.2342663,0.10335 -0.2342663,0.22875 0,0.12954 0.1047309,0.23427 0.2342663,0.23427 0.1267795,0 0.2301325,-0.10473 0.2287545,-0.23427"
       style="fill:#211e1e;fill-opacity:1;fill-rule:nonzero;stroke:none;stroke-width:0.35277775" />
    <path
       inkscape:connector-curvature="0"
       id="path8307"
       d="m 2.3150435,295.11642 -0.7413847,-0.89986 c -0.038585,-0.0565 -0.253559,-0.0813 -0.3445094,-0.008 l -0.36104615,0.65733 0.0881944,0.55535 c 0.0909507,0.14469 0.27009555,-0.001 0.21910815,-0.0813 l -0.060634,-0.39274 0.1502061,-0.28801 -0.00827,0.70556 -0.32383908,1.01286 c -0.0647679,0.21635 0.25218118,0.30454 0.31557068,0.0978 l 0.4023872,-1.11897 -0.00413,-0.56913 -0.1874132,-0.22049 c -0.00827,-0.011 -0.00689,-0.0276 0.00413,-0.0358 0.011024,-0.01 0.026183,-0.008 0.035829,0.003 l 0.6173611,0.72898 c 0.099219,0.13642 0.2976563,-0.008 0.1984375,-0.14608"
       style="fill:#211e1e;fill-opacity:1;fill-rule:nonzero;stroke:none;stroke-width:0.35277775" />
    <path
       inkscape:connector-curvature="0"
       id="path8309"
       d="m 2.0311675,296.3663 -0.3638021,-0.90675 -0.1488281,0.41616 0.212218,0.61185 c 0.086817,0.2012 0.3886066,0.0841 0.3004122,-0.12126"
       style="fill:#211e1e;fill-opacity:1;fill-rule:nonzero;stroke:none;stroke-width:0.35277775" />
    <path
       inkscape:connector-curvature="0"
       id="path8311"
       d="m 2.9985504,296.57438 c 0,0 0.00138,10e-4 0.00138,10e-4 0.01378,0.0179 0.039963,0.0193 0.056499,0.006 0.015158,-0.0138 0.017915,-0.0372 0.00827,-0.0537 l -0.6876402,-1.19199 c 0,-10e-4 -0.00138,-10e-4 -0.00138,-0.003 -0.01378,-0.0165 -0.039963,-0.0179 -0.0565,-0.004 -0.015159,0.0138 -0.016535,0.0345 -0.00689,0.0524 z m 0,0"
       style="fill:#211e1e;fill-opacity:1;fill-rule:nonzero;stroke:none;stroke-width:0.35277775" />
  </g>
</svg>
