<?xml version="1.0" encoding="UTF-8" standalone="no"?>
<!-- Created with Inkscape (http://www.inkscape.org/) -->

<svg
   xmlns:dc="http://purl.org/dc/elements/1.1/"
   xmlns:cc="http://creativecommons.org/ns#"
   xmlns:rdf="http://www.w3.org/1999/02/22-rdf-syntax-ns#"
   xmlns:svg="http://www.w3.org/2000/svg"
   xmlns="http://www.w3.org/2000/svg"
   xmlns:sodipodi="http://sodipodi.sourceforge.net/DTD/sodipodi-0.dtd"
   xmlns:inkscape="http://www.inkscape.org/namespaces/inkscape"
   width="3.75mm"
   height="3.75mm"
   viewBox="0 0 3.75 3.75"
   version="1.1"
   id="svg13826"
   inkscape:version="0.92.1 r15371"
   sodipodi:docname="large_print_light.svg">
  <defs
     id="defs13820" />
  <sodipodi:namedview
     id="base"
     pagecolor="#ffffff"
     bordercolor="#666666"
     borderopacity="1.0"
     inkscape:pageopacity="0.0"
     inkscape:pageshadow="2"
     inkscape:zoom="28.687777"
     inkscape:cx="7.4387043"
     inkscape:cy="7.2119163"
     inkscape:document-units="mm"
     inkscape:current-layer="layer1"
     showgrid="false"
     inkscape:window-width="561"
     inkscape:window-height="558"
     inkscape:window-x="687"
     inkscape:window-y="78"
     inkscape:window-maximized="0"
     showguides="true"
     inkscape:guide-bbox="true"
     gridtolerance="10"
     guidetolerance="2">
    <inkscape:grid
       type="xygrid"
       id="grid13828" />
    <sodipodi:guide
       position="0.13043093,3.8477124"
       orientation="1,0"
       id="guide20533"
       inkscape:locked="false" />
    <sodipodi:guide
       position="1.9173346,3.6129367"
       orientation="0,1"
       id="guide20535"
       inkscape:locked="false" />
  </sodipodi:namedview>
  <metadata
     id="metadata13823">
    <rdf:RDF>
      <cc:Work
         rdf:about="">
        <dc:format>image/svg+xml</dc:format>
        <dc:type
           rdf:resource="http://purl.org/dc/dcmitype/StillImage" />
        <dc:title></dc:title>
      </cc:Work>
    </rdf:RDF>
  </metadata>
  <g
     inkscape:label="Layer 1"
     inkscape:groupmode="layer"
     id="layer1"
     transform="translate(0,-293.25)">
    <path
       inkscape:connector-curvature="0"
       id="path8253"
       d="m 0.54518973,296.88089 c -0.23013246,0 -0.41754565,-0.18604 -0.41754565,-0.41755 v -2.6541 c 0,-0.22876 0.18741319,-0.41617 0.41754565,-0.41617 H 3.2006689 c 0.2301325,0 0.4161679,0.18741 0.4161679,0.41617 v 2.6541 c 0,0.23151 -0.1860354,0.41755 -0.4161679,0.41755 z m 0,0"
       style="fill:#211e1e;fill-opacity:1;fill-rule:nonzero;stroke:none;stroke-width:0.35277775" />
    <path
       inkscape:connector-curvature="0"
       id="path8255"
       d="m 0.54518973,293.46335 c -0.19154739,0 -0.34726561,0.15572 -0.34726561,0.34589 v 2.65548 c 0,0.19017 0.15571822,0.34588 0.34726561,0.34588 H 3.2006689 c 0.1901696,0 0.3458877,-0.15571 0.3458877,-0.34588 v -2.65548 c 0,-0.19017 -0.1557181,-0.34589 -0.3458877,-0.34589 z m 0,0"
       style="fill:#ffffff;fill-opacity:1;fill-rule:nonzero;stroke:none;stroke-width:0.35277775" />
    <path
       inkscape:connector-curvature="0"
       id="path8257"
       d="m 2.0100441,295.18038 c 0.053743,0.0441 0.081304,0.17364 0.081304,0.17226 0.099219,0.0317 0.1626087,0.0978 0.1626087,0.0978 0.1543402,-0.0854 0.1570961,-0.0469 0.2246203,-0.0978 0.055122,-0.0372 0.052365,-0.0496 0.081304,-0.15021 0.026183,-0.0827 -0.068902,-0.0744 -0.1474499,-0.22462 -0.1364258,0.051 -0.2094617,0.0289 -0.2563152,0.0234 -0.020669,-0.003 -0.016535,0.0813 -0.1460722,0.17914 m 0.4960937,0.99081 c -0.019293,0.0262 -0.027559,0.0317 -0.052365,0.0648 -0.039963,0.0524 0.011024,0.13092 0.037207,0.11851 0.028938,-0.011 0.048231,-0.0703 0.081304,-0.0896 0.016538,-0.008 0.060634,-0.0744 0.101975,-0.11851 0.030318,-0.033 0.052365,-0.0482 0.081304,-0.0854 0.048231,-0.0606 0.059255,-0.10611 0.1019747,-0.17088 0.026183,-0.0345 0.044097,-0.0441 0.068902,-0.0854 0.1267796,-0.24116 0.089572,-0.35002 0.2122178,-0.52228 0.037207,-0.0496 0.078548,-0.0634 0.1378037,-0.0937 0.055121,-0.40101 -0.1267796,-0.62563 -0.1254011,-0.627 -0.1543405,0.0896 -0.237023,0.12677 -0.3954971,0.11851 -0.060634,-10e-4 -0.092329,-0.0262 -0.1515844,-0.0207 -0.055122,10e-4 -0.082682,0.0234 -0.1378038,0.0413 -0.085438,0.0262 -0.1309134,0.0496 -0.2204861,0.0772 -0.0565,0.0152 -0.092329,0.0165 -0.1502061,0.0372 -0.050987,0.0207 -0.026183,0.004 -0.062012,0.0441 -0.045476,0.051 -0.034452,0.0896 -0.07717,0.17639 -0.052366,0.11162 -0.046853,0.12678 -0.016535,0.14056 -0.019293,0.0579 -0.024804,0.0978 -0.019293,0.15985 0.00551,0.0469 -0.015159,0.0813 0.035829,0.11852 0.07028,0.0524 0.2163519,0.17363 0.253559,0.175 0.055121,-0.001 0.2177298,0.004 0.3004121,-0.0537 0.019293,-0.011 0.024804,-0.0221 0.00827,0.022 -0.00275,0.004 -0.2053276,0.16261 -0.2273762,0.16261 -0.2576933,0.007 -0.1722551,0.022 -0.1874133,0.0152 -0.01378,0 -0.1378041,-0.15021 -0.212218,-0.0978 -0.028938,0.0179 -0.041341,0.0345 -0.052365,0.0661 0.00964,0.0193 0.055122,0.051 0.096463,0.0772 0.060634,0.0386 0.066146,0.0786 0.1267795,0.0937 0.074414,0.0165 0.1529624,0.006 0.1998155,0.011 0.017914,0.005 0.1805231,-0.0427 0.2811198,-0.0965 0.093707,-0.0482 -0.1281575,0.0937 -0.183279,0.16261 -0.1639866,0.051 -0.1171332,0.0537 -0.1956816,0.0689 -0.071658,0.0179 -0.068902,0.0124 -0.1185111,0.0289 -0.050987,0.0124 -0.092329,0.0827 -0.044097,0.11851 0.028938,0.0248 0.1185111,-0.01 0.2080838,-0.0124 0.038585,-0.001 0.1998155,-0.0744 0.2356446,-0.0937 0.09095,-0.0482 0.1584741,-0.11714 0.2122177,-0.15434 0.074414,-0.0524 -0.08406,0.14193 -0.1515844,0.22324"
       style="fill:#211e1e;fill-opacity:1;fill-rule:evenodd;stroke:none;stroke-width:0.35277775" />
    <path
       inkscape:connector-curvature="0"
       id="path8259"
       d="m 1.708254,295.10873 c -0.055122,-0.0455 -0.082682,-0.17501 -0.081304,-0.17501 -0.1005967,-0.0303 -0.1639866,-0.0965 -0.1639866,-0.0951 -0.152962,0.0841 -0.1570962,0.0455 -0.223242,0.0951 -0.0565,0.0386 -0.052366,0.051 -0.081304,0.1502 -0.027563,0.0854 0.067524,0.0758 0.1460719,0.22324 0.1364259,-0.0482 0.2108401,-0.0262 0.2563153,-0.0193 0.020669,10e-4 0.017914,-0.0827 0.1474502,-0.17915 m -0.4974717,-0.9908 c 0.019293,-0.0276 0.028938,-0.0331 0.053743,-0.0648 0.038585,-0.0537 -0.012404,-0.1323 -0.037207,-0.12265 -0.030318,0.0138 -0.049609,0.073 -0.085438,0.0937 -0.01378,0.007 -0.057878,0.073 -0.097841,0.11851 -0.030318,0.0317 -0.0523653,0.0469 -0.0813043,0.0854 -0.049609,0.0593 -0.0592554,0.10473 -0.10197465,0.16674 -0.0261832,0.0372 -0.0454752,0.0469 -0.0689017,0.0896 -0.12815782,0.23978 -0.0909507,0.34865 -0.21221806,0.51677 -0.0372071,0.0551 -0.0799264,0.0675 -0.13918176,0.0992 -0.0551215,0.39963 0.12677949,0.62426 0.12677949,0.62288 0.15296198,-0.0868 0.23564462,-0.12403 0.39549671,-0.11851 0.0592557,0.004 0.0909507,0.0289 0.15020639,0.0248 0.055122,-0.003 0.08406,-0.0248 0.1391818,-0.0413 0.08406,-0.0276 0.1309138,-0.051 0.214974,-0.0772 0.060634,-0.0165 0.096463,-0.0179 0.1557182,-0.0413 0.049609,-0.0179 0.026183,-10e-4 0.060634,-0.04 0.045476,-0.051 0.034452,-0.0909 0.073036,-0.17501 0.057878,-0.11438 0.050988,-0.12954 0.020669,-0.14194 0.019293,-0.0593 0.024804,-0.0978 0.020669,-0.15985 -0.00689,-0.0482 0.013779,-0.0827 -0.037207,-0.11713 -0.068902,-0.0551 -0.2149739,-0.17639 -0.2521807,-0.17639 -0.0565,0 -0.2191082,-0.005 -0.3017904,0.0482 -0.017914,0.0152 -0.023428,0.0262 -0.00827,-0.0152 0.00413,-0.007 0.2067059,-0.16536 0.2287545,-0.16674 0.2576933,-0.005 0.1708768,-0.0207 0.1874132,-0.0124 0.012404,-10e-4 0.1364259,0.14883 0.2122177,0.0978 0.027563,-0.0193 0.041341,-0.0358 0.052366,-0.0661 -0.00964,-0.0207 -0.055122,-0.0524 -0.097841,-0.0758 -0.060634,-0.0413 -0.066146,-0.0813 -0.1267795,-0.0951 -0.073036,-0.0179 -0.1529624,-0.007 -0.1984375,-0.0152 -0.017914,-0.003 -0.1805231,0.0455 -0.2811198,0.0965 -0.095085,0.051 0.1281575,-0.091 0.183279,-0.16261 0.1626087,-0.0482 0.1157552,-0.051 0.1956816,-0.0689 0.071658,-0.0152 0.067524,-0.01 0.1171331,-0.0248 0.050987,-0.0138 0.093707,-0.0827 0.045475,-0.12265 -0.030318,-0.0207 -0.1198891,0.0124 -0.2080835,0.0124 -0.039963,0.004 -0.1998158,0.0772 -0.2370229,0.0978 -0.09095,0.0469 -0.1570963,0.11576 -0.2108398,0.15021 -0.0757922,0.0551 0.084061,-0.13781 0.1502064,-0.21911"
       style="fill:#211e1e;fill-opacity:1;fill-rule:evenodd;stroke:none;stroke-width:0.35277775" />
  </g>
</svg>
