<?xml version="1.0" encoding="UTF-8" standalone="no"?>
<!-- Created with Inkscape (http://www.inkscape.org/) -->

<svg
   xmlns:dc="http://purl.org/dc/elements/1.1/"
   xmlns:cc="http://creativecommons.org/ns#"
   xmlns:rdf="http://www.w3.org/1999/02/22-rdf-syntax-ns#"
   xmlns:svg="http://www.w3.org/2000/svg"
   xmlns="http://www.w3.org/2000/svg"
   xmlns:sodipodi="http://sodipodi.sourceforge.net/DTD/sodipodi-0.dtd"
   xmlns:inkscape="http://www.inkscape.org/namespaces/inkscape"
   width="3.75mm"
   height="3.75mm"
   viewBox="0 0 3.75 3.75"
   version="1.1"
   id="svg13826"
   inkscape:version="0.92.1 r15371"
   sodipodi:docname="large_print_light.svg">
  <defs
     id="defs13820" />
  <sodipodi:namedview
     id="base"
     pagecolor="#ffffff"
     bordercolor="#666666"
     borderopacity="1.0"
     inkscape:pageopacity="0.0"
     inkscape:pageshadow="2"
     inkscape:zoom="28.687777"
     inkscape:cx="7.4387043"
     inkscape:cy="7.2119163"
     inkscape:document-units="mm"
     inkscape:current-layer="layer1"
     showgrid="false"
     inkscape:window-width="561"
     inkscape:window-height="558"
     inkscape:window-x="687"
     inkscape:window-y="78"
     inkscape:window-maximized="0"
     showguides="true"
     inkscape:guide-bbox="true"
     gridtolerance="10"
     guidetolerance="2">
    <inkscape:grid
       type="xygrid"
       id="grid13828" />
    <sodipodi:guide
       position="0.13043093,3.8477124"
       orientation="1,0"
       id="guide20533"
       inkscape:locked="false" />
    <sodipodi:guide
       position="1.9173346,3.6129367"
       orientation="0,1"
       id="guide20535"
       inkscape:locked="false" />
  </sodipodi:namedview>
  <metadata
     id="metadata13823">
    <rdf:RDF>
      <cc:Work
         rdf:about="">
        <dc:format>image/svg+xml</dc:format>
        <dc:type
           rdf:resource="http://purl.org/dc/dcmitype/StillImage" />
        <dc:title></dc:title>
      </cc:Work>
    </rdf:RDF>
  </metadata>
  <g
     inkscape:label="Layer 1"
     inkscape:groupmode="layer"
     id="layer1"
     transform="translate(0,-293.25)">
    <path
       inkscape:connector-curvature="0"
       id="path8343"
       d="m 0.55303464,296.88157 c -0.23013246,0 -0.4161677,-0.18741 -0.4161677,-0.41754 v -2.6541 c 0,-0.23014 0.18603524,-0.41755 0.4161677,-0.41755 H 3.2085139 c 0.2301324,0 0.4175458,0.18741 0.4175458,0.41755 v 2.6541 c 0,0.23013 -0.1874134,0.41754 -0.4175458,0.41754 z m 0,0"
       style="fill:#211e1e;fill-opacity:1;fill-rule:nonzero;stroke:none;stroke-width:0.35277775" />
    <path
       inkscape:connector-curvature="0"
       id="path8345"
       d="m 0.55303464,293.46266 c -0.19016944,0 -0.34588766,0.15572 -0.34588766,0.34727 v 2.6541 c 0,0.19017 0.15571822,0.34588 0.34588766,0.34588 H 3.2085139 c 0.1915475,0 0.3472656,-0.15571 0.3472656,-0.34588 v -2.6541 c 0,-0.19155 -0.1557181,-0.34727 -0.3472656,-0.34727 z m 0,0"
       style="fill:#ffffff;fill-opacity:1;fill-rule:nonzero;stroke:none;stroke-width:0.35277775" />
    <path
       inkscape:connector-curvature="0"
       id="path8347"
       d="m 1.4818322,294.86413 h 0.1722547 c 0.048231,0 0.088194,-0.0386 0.088194,-0.0868 v -0.51401 c 0,-0.0482 -0.039963,-0.0868 -0.088194,-0.0868 H 1.4818322 Z m 0,0"
       style="fill:#211e1e;fill-opacity:1;fill-rule:nonzero;stroke:none;stroke-width:0.35277775" />
    <path
       inkscape:connector-curvature="0"
       id="path8349"
       d="m 1.4818322,295.88801 h 0.1722547 c 0.048231,0 0.088194,0.0386 0.088194,0.0868 v 0.514 c 0,0.0482 -0.039963,0.0868 -0.088194,0.0868 H 1.4818322 Z m 0,0"
       style="fill:#211e1e;fill-opacity:1;fill-rule:nonzero;stroke:none;stroke-width:0.35277775" />
    <path
       inkscape:connector-curvature="0"
       id="path8351"
       d="m 1.2751264,295.37675 c -0.00138,-0.46991 0.086816,-0.51124 0.1378041,-0.51124 h 0.01378 v -0.68902 h -0.017914 c -0.089573,0 -0.52641085,0.16123 -0.52641085,1.20026 0,1.03767 0.43683805,1.1989 0.52641085,1.1989 h 0.017914 v -0.68764 h -0.01378 c -0.050988,0 -0.1364259,-0.0427 -0.1378041,-0.51126"
       style="fill:#211e1e;fill-opacity:1;fill-rule:nonzero;stroke:none;stroke-width:0.35277775" />
    <path
       inkscape:connector-curvature="0"
       id="path8353"
       d="m 1.8676829,294.37354 c 0.028938,0.0358 0.045475,0.0799 0.045475,0.12678 0,0.0455 -0.016535,0.091 -0.045475,0.12541 l 0.096463,0.0799 c 0.048231,-0.0579 0.074414,-0.13091 0.074414,-0.20533 0,-0.0758 -0.026183,-0.14883 -0.074414,-0.2067 z m 0,0"
       style="fill:#211e1e;fill-opacity:1;fill-rule:nonzero;stroke:none;stroke-width:0.35277775" />
    <path
       inkscape:connector-curvature="0"
       id="path8355"
       d="m 2.1791194,294.93716 c 0.1061092,-0.11713 0.1653645,-0.26734 0.1653645,-0.42443 0,-0.1571 -0.057877,-0.30731 -0.1639862,-0.42306 l -0.095085,0.0827 c 0.085438,0.0923 0.1336696,0.2136 0.1336696,0.34038 0,0.12678 -0.048231,0.24804 -0.1350479,0.34175 z m 0,0"
       style="fill:#211e1e;fill-opacity:1;fill-rule:nonzero;stroke:none;stroke-width:0.35277775" />
    <path
       inkscape:connector-curvature="0"
       id="path8357"
       d="m 2.3940937,295.16729 c 0.1653646,-0.17363 0.2563149,-0.40238 0.2563149,-0.64078 0,-0.23978 -0.09095,-0.46716 -0.253559,-0.64079 l -0.093707,0.0841 c 0.141938,0.15158 0.2204861,0.34864 0.2204861,0.55673 0,0.2067 -0.078548,0.40514 -0.2218641,0.55535 z m 0,0"
       style="fill:#211e1e;fill-opacity:1;fill-rule:nonzero;stroke:none;stroke-width:0.35277775" />
    <path
       inkscape:connector-curvature="0"
       id="path8359"
       d="m 2.6104456,295.39743 c 0.2218641,-0.23151 0.3445093,-0.53744 0.3445093,-0.85852 0,-0.32108 -0.1212672,-0.62563 -0.3431314,-0.85714 l -0.090951,0.0868 c 0.1998158,0.20808 0.3086805,0.48231 0.3086805,0.77032 0,0.28939 -0.110243,0.56362 -0.3100584,0.7717 z m 0,0"
       style="fill:#211e1e;fill-opacity:1;fill-rule:nonzero;stroke:none;stroke-width:0.35277775" />
  </g>
</svg>
