<?xml version="1.0" encoding="UTF-8" standalone="no"?>
<!-- Created with Inkscape (http://www.inkscape.org/) -->

<svg
   xmlns:dc="http://purl.org/dc/elements/1.1/"
   xmlns:cc="http://creativecommons.org/ns#"
   xmlns:rdf="http://www.w3.org/1999/02/22-rdf-syntax-ns#"
   xmlns:svg="http://www.w3.org/2000/svg"
   xmlns="http://www.w3.org/2000/svg"
   xmlns:sodipodi="http://sodipodi.sourceforge.net/DTD/sodipodi-0.dtd"
   xmlns:inkscape="http://www.inkscape.org/namespaces/inkscape"
   width="3.75mm"
   height="3.75mm"
   viewBox="0 0 3.75 3.75"
   version="1.1"
   id="svg13826"
   inkscape:version="0.92.1 r15371"
   sodipodi:docname="large_print_light.svg">
  <defs
     id="defs13820" />
  <sodipodi:namedview
     id="base"
     pagecolor="#ffffff"
     bordercolor="#666666"
     borderopacity="1.0"
     inkscape:pageopacity="0.0"
     inkscape:pageshadow="2"
     inkscape:zoom="81.141287"
     inkscape:cx="2.5022336"
     inkscape:cy="12.08707"
     inkscape:document-units="mm"
     inkscape:current-layer="layer1"
     showgrid="false"
     inkscape:window-width="561"
     inkscape:window-height="558"
     inkscape:window-x="687"
     inkscape:window-y="78"
     inkscape:window-maximized="0"
     showguides="true"
     inkscape:guide-bbox="true"
     gridtolerance="10"
     guidetolerance="2">
    <inkscape:grid
       type="xygrid"
       id="grid13828" />
    <sodipodi:guide
       position="0.13043093,3.8477124"
       orientation="1,0"
       id="guide20533"
       inkscape:locked="false" />
    <sodipodi:guide
       position="1.9173346,3.6129367"
       orientation="0,1"
       id="guide20535"
       inkscape:locked="false" />
  </sodipodi:namedview>
  <metadata
     id="metadata13823">
    <rdf:RDF>
      <cc:Work
         rdf:about="">
        <dc:format>image/svg+xml</dc:format>
        <dc:type
           rdf:resource="http://purl.org/dc/dcmitype/StillImage" />
        <dc:title></dc:title>
      </cc:Work>
    </rdf:RDF>
  </metadata>
  <g
     inkscape:label="Layer 1"
     inkscape:groupmode="layer"
     id="layer1"
     transform="translate(0,-293.25)">
    <path
       inkscape:connector-curvature="0"
       id="path8753"
       d="m 0.54888033,293.454 c -0.19016909,0 -0.34588766,0.15572 -0.34588766,0.34726 v 2.65411 c 0,0.19017 0.15571857,0.34588 0.34588766,0.34588 H 3.20436 c 0.191547,0 0.3472657,-0.15571 0.3472657,-0.34588 v -2.65411 c 0,-0.19154 -0.1557187,-0.34726 -0.3472657,-0.34726 z m 0,0"
       style="fill:#ffffff;fill-opacity:1;fill-rule:nonzero;stroke:none;stroke-width:0.35277775" />
    <path
       inkscape:connector-curvature="0"
       id="path8755"
       d="m 0.54888033,296.87291 c -0.23013246,0 -0.41754565,-0.18741 -0.41754565,-0.41754 v -2.65411 c 0,-0.23013 0.18741319,-0.41754 0.41754565,-0.41754 H 3.20436 c 0.2301325,0 0.4175456,0.18741 0.4175456,0.41754 v 2.65411 c 0,0.23013 -0.1874131,0.41754 -0.4175456,0.41754 z m 0,0"
       style="fill:#211e1e;fill-opacity:1;fill-rule:nonzero;stroke:none;stroke-width:0.35277775" />
    <path
       inkscape:connector-curvature="0"
       id="path8757"
       d="m 1.5989452,294.23259 c 0.1281579,0 0.2328888,-0.10611 0.2328888,-0.23426 0,-0.12954 -0.1047309,-0.23289 -0.2328888,-0.23289 -0.1295354,0 -0.2342662,0.10335 -0.2342662,0.23289 0,0.12815 0.1047308,0.23426 0.2342662,0.23426"
       style="fill:#ffffff;fill-opacity:1;fill-rule:nonzero;stroke:none;stroke-width:0.35277775" />
    <path
       inkscape:connector-curvature="0"
       id="path8759"
       d="m 1.7491517,296.23764 c -0.3844727,0 -0.6945313,-0.31006 -0.6945313,-0.69454 0,-0.20946 0.095085,-0.39687 0.2439127,-0.52503 l -0.012404,-0.21635 c -0.2494253,0.15434 -0.41478982,0.42719 -0.41478982,0.74138 0,0.48507 0.39274112,0.87782 0.87781062,0.87782 0.3569116,0 0.6614583,-0.21498 0.7992621,-0.5209 l -0.1240236,-0.2136 c -0.066146,0.31419 -0.3431314,0.55122 -0.6752385,0.55122"
       style="fill:#ffffff;fill-opacity:1;fill-rule:nonzero;stroke:none;stroke-width:0.35277775" />
    <path
       inkscape:connector-curvature="0"
       id="path8761"
       d="M 3.1271898,295.82423 H 2.9659591 l -0.3941187,-0.68076 c -0.024804,-0.0427 -0.068902,-0.0648 -0.1129993,-0.0661 H 1.8731749 l -0.00551,-0.17777 h 0.4244358 c 0.059256,-0.003 0.1061092,-0.0469 0.1061092,-0.10611 0,-0.0579 -0.045476,-0.10335 -0.1061092,-0.10611 h -0.436838 l -0.01378,-0.19981 c -0.00965,-0.12265 -0.114377,-0.21911 -0.2384005,-0.21222 -0.1254016,0.007 -0.2191079,0.113 -0.2135961,0.2384 l 0.041341,0.70831 c 0.011024,0.12403 0.1143772,0.21222 0.2370225,0.21222 h 0.7579208 l 0.3100589,0.53606 c 0.024804,0.0413 0.073036,0.0648 0.1198891,0.0634 v 0.003 H 3.127192 c 0.059256,-0.004 0.1061091,-0.0482 0.1061091,-0.10611 0,-0.0592 -0.045475,-0.10473 -0.1061091,-0.10611"
       style="fill:#ffffff;fill-opacity:1;fill-rule:nonzero;stroke:none;stroke-width:0.35277775" />
  </g>
</svg>
