<?xml version="1.0" encoding="UTF-8" standalone="no"?>
<!-- Created with Inkscape (http://www.inkscape.org/) -->

<svg
   xmlns:dc="http://purl.org/dc/elements/1.1/"
   xmlns:cc="http://creativecommons.org/ns#"
   xmlns:rdf="http://www.w3.org/1999/02/22-rdf-syntax-ns#"
   xmlns:svg="http://www.w3.org/2000/svg"
   xmlns="http://www.w3.org/2000/svg"
   xmlns:sodipodi="http://sodipodi.sourceforge.net/DTD/sodipodi-0.dtd"
   xmlns:inkscape="http://www.inkscape.org/namespaces/inkscape"
   width="3.75mm"
   height="3.75mm"
   viewBox="0 0 3.75 3.75"
   version="1.1"
   id="svg13826"
   inkscape:version="0.92.1 r15371"
   sodipodi:docname="falling_rock_light.svg">
  <defs
     id="defs13820" />
  <sodipodi:namedview
     id="base"
     pagecolor="#ffffff"
     bordercolor="#666666"
     borderopacity="1.0"
     inkscape:pageopacity="0.0"
     inkscape:pageshadow="2"
     inkscape:zoom="20.285322"
     inkscape:cx="7.2558826"
     inkscape:cy="7.3529464"
     inkscape:document-units="mm"
     inkscape:current-layer="layer1"
     showgrid="false"
     inkscape:window-width="673"
     inkscape:window-height="660"
     inkscape:window-x="685"
     inkscape:window-y="33"
     inkscape:window-maximized="0"
     showguides="true"
     inkscape:guide-bbox="true"
     gridtolerance="10"
     guidetolerance="2">
    <inkscape:grid
       type="xygrid"
       id="grid13828" />
    <sodipodi:guide
       position="0.13043093,3.8477124"
       orientation="1,0"
       id="guide20533"
       inkscape:locked="false" />
    <sodipodi:guide
       position="1.9173346,3.6129367"
       orientation="0,1"
       id="guide20535"
       inkscape:locked="false" />
  </sodipodi:namedview>
  <metadata
     id="metadata13823">
    <rdf:RDF>
      <cc:Work
         rdf:about="">
        <dc:format>image/svg+xml</dc:format>
        <dc:type
           rdf:resource="http://purl.org/dc/dcmitype/StillImage" />
        <dc:title></dc:title>
      </cc:Work>
    </rdf:RDF>
  </metadata>
  <g
     inkscape:label="Layer 1"
     inkscape:groupmode="layer"
     id="layer1"
     transform="translate(0,-293.25)">
    <path
       inkscape:connector-curvature="0"
       id="path4847"
       d="m 3.2052583,296.87805 c 0.2301311,0 0.4161649,-0.18604 0.4161649,-0.41617 v -2.65273 c 0,-0.23013 -0.1860338,-0.41754 -0.4161649,-0.41754 H 0.5511559 c -0.23013459,0 -0.41616842,0.18741 -0.41616842,0.41754 v 2.65273 c 0,0.23013 0.18603383,0.41617 0.41616842,0.41617 z m 0,0"
       style="fill:#211e1e;fill-opacity:1;fill-rule:nonzero;stroke:none;stroke-width:0.35277775" />
    <path
       inkscape:connector-curvature="0"
       id="path4849"
       d="m 0.5511559,293.46189 c -0.1901684,0 -0.34588803,0.15572 -0.34588803,0.34726 v 2.65273 c 0,0.19017 0.15571963,0.34589 0.34588803,0.34589 H 3.203879 c 0.1915477,0 0.3472638,-0.15572 0.3472638,-0.34589 v -2.65273 c 0,-0.19154 -0.1557161,-0.34726 -0.3472638,-0.34726 z m 0,0"
       style="fill:#ffffff;fill-opacity:1;fill-rule:nonzero;stroke:none;stroke-width:0.35277775" />
    <path
       inkscape:connector-curvature="0"
       id="path4851"
       d="m 1.6921697,294.12059 0.1681233,-0.0786 -0.078549,-0.16812 -0.1681197,0.0772 z m 0,0"
       style="fill:#211e1e;fill-opacity:1;fill-rule:nonzero;stroke:none;stroke-width:0.35277775" />
    <path
       inkscape:connector-curvature="0"
       id="path4853"
       d="m 1.6177583,294.26253 -0.2783663,-0.0937 -0.095084,0.27837 0.2797422,0.0937 z m 0,0"
       style="fill:#211e1e;fill-opacity:1;fill-rule:nonzero;stroke:none;stroke-width:0.35277775" />
    <path
       inkscape:connector-curvature="0"
       id="path4855"
       d="m 1.6191342,294.37966 0.5098732,-0.0482 0.041342,0.48507 -0.3651779,0.0441 -0.1488299,-0.19844 z m 0,0"
       style="fill:#211e1e;fill-opacity:1;fill-rule:nonzero;stroke:none;stroke-width:0.35277775" />
    <path
       inkscape:connector-curvature="0"
       id="path4857"
       d="m 2.2475195,295.19133 0.1777683,0.10748 0.1019739,-0.0193 0.1212674,-0.19982 v -0.005 l -0.1763889,-0.10749 -0.1033533,0.0193 -0.1212674,0.19982 z m 0,0"
       style="fill:#211e1e;fill-opacity:1;fill-rule:nonzero;stroke:none;stroke-width:0.35277775" />
    <path
       inkscape:connector-curvature="0"
       id="path4859"
       d="m 2.3233139,295.44075 0.3279704,0.0441 -0.042718,0.33624 -0.2315104,-0.0331 -0.086815,-0.16812 z m 0,0"
       style="fill:#211e1e;fill-opacity:1;fill-rule:nonzero;stroke:none;stroke-width:0.35277775" />
    <path
       inkscape:connector-curvature="0"
       id="path4861"
       d="m 1.9939605,295.47107 -0.8888341,-1.07487 -0.19292363,-0.47404 -0.18741319,-0.0579 v 2.33991 c 0,0.0648 0.0523628,0.11713 0.11713279,0.11713 l 1.59990013,-0.001 -0.1322917,-0.46716 -0.3155703,-0.38171"
       style="fill:#211e1e;fill-opacity:1;fill-rule:nonzero;stroke:none;stroke-width:0.35277775" />
    <path
       inkscape:connector-curvature="0"
       id="path4863"
       d="m 1.8630482,295.09624 0.07717,-0.0579 -0.1088672,-0.1447 -0.074412,0.0551 v 0.14745 z m 0,0"
       style="fill:#211e1e;fill-opacity:1;fill-rule:nonzero;stroke:none;stroke-width:0.35277775" />
    <path
       inkscape:connector-curvature="0"
       id="path4865"
       d="M 3.035759,296.32545 H 2.7449927 v -0.2067 l 0.118512,-0.11851 0.1722543,0.13091 z m 0,0"
       style="fill:#211e1e;fill-opacity:1;fill-rule:nonzero;stroke:none;stroke-width:0.35277775" />
  </g>
</svg>
