<?xml version="1.0" encoding="UTF-8" standalone="no"?>
<!-- Created with Inkscape (http://www.inkscape.org/) -->

<svg
   xmlns:dc="http://purl.org/dc/elements/1.1/"
   xmlns:cc="http://creativecommons.org/ns#"
   xmlns:rdf="http://www.w3.org/1999/02/22-rdf-syntax-ns#"
   xmlns:svg="http://www.w3.org/2000/svg"
   xmlns="http://www.w3.org/2000/svg"
   xmlns:sodipodi="http://sodipodi.sourceforge.net/DTD/sodipodi-0.dtd"
   xmlns:inkscape="http://www.inkscape.org/namespaces/inkscape"
   width="3.75mm"
   height="3.75mm"
   viewBox="0 0 3.75 3.75"
   version="1.1"
   id="svg13826"
   inkscape:version="0.92.1 r15371"
   sodipodi:docname="falling_ice_dark.svg">
  <defs
     id="defs13820" />
  <sodipodi:namedview
     id="base"
     pagecolor="#ffffff"
     bordercolor="#666666"
     borderopacity="1.0"
     inkscape:pageopacity="0.0"
     inkscape:pageshadow="2"
     inkscape:zoom="20.285322"
     inkscape:cx="9.5583531"
     inkscape:cy="6.6839079"
     inkscape:document-units="mm"
     inkscape:current-layer="layer1"
     showgrid="false"
     inkscape:window-width="673"
     inkscape:window-height="660"
     inkscape:window-x="805"
     inkscape:window-y="55"
     inkscape:window-maximized="0"
     showguides="true"
     inkscape:guide-bbox="true"
     gridtolerance="10"
     guidetolerance="2">
    <inkscape:grid
       type="xygrid"
       id="grid13828" />
    <sodipodi:guide
       position="0.13043093,3.8477124"
       orientation="1,0"
       id="guide20533"
       inkscape:locked="false" />
    <sodipodi:guide
       position="1.9173346,3.6129367"
       orientation="0,1"
       id="guide20535"
       inkscape:locked="false" />
  </sodipodi:namedview>
  <metadata
     id="metadata13823">
    <rdf:RDF>
      <cc:Work
         rdf:about="">
        <dc:format>image/svg+xml</dc:format>
        <dc:type
           rdf:resource="http://purl.org/dc/dcmitype/StillImage" />
        <dc:title></dc:title>
      </cc:Work>
    </rdf:RDF>
  </metadata>
  <g
     inkscape:label="Layer 1"
     inkscape:groupmode="layer"
     id="layer1"
     transform="translate(0,-293.25)">
    <path
       inkscape:connector-curvature="0"
       id="path13691"
       d="m 0.55047683,293.45737 c -0.1901684,0 -0.34588803,0.15571 -0.34588803,0.34589 v 2.65685 c 0,0.19017 0.15571963,0.34451 0.34588803,0.34451 H 3.2059585 c 0.1901685,0 0.3458845,-0.15434 0.3458845,-0.34451 v -2.65685 c 0,-0.19018 -0.155716,-0.34589 -0.3458845,-0.34589 z m 0,0"
       style="fill:#ffffff;fill-opacity:1;fill-rule:nonzero;stroke:none;stroke-width:0.35277775" />
    <path
       inkscape:connector-curvature="0"
       id="path13693"
       d="M 3.0392147,296.60343 H 2.4535471 v -1.26366 l -1.0018324,-0.73863 c -0.1047326,0.0248 -0.1240225,0.12127 -0.1970581,0.10198 -0.078549,-0.0207 -0.2039515,-0.0193 -0.2397796,0.0854 -0.011007,0.062 -0.0702804,-0.0744 -0.13780557,-0.0703 -0.078546,0.0138 -0.0895703,0.0469 -0.10472915,0.22049 -0.0151693,0.18465 -0.1143776,0.22049 -0.0992188,0.10748 0.0234244,-0.17914 -0.0110067,-0.24391 -0.017921,-0.32521 -0.0248004,-0.27147 0.14193652,-0.31282 0.39274032,-0.33211 0.1874133,-0.0248 0.1529611,-0.0524 0.3086807,-0.15572 0.2149722,-0.14056 0.281118,-0.10197 0.4850694,-0.11437 0.2370208,-0.0138 0.1777647,-0.10887 0.3748264,-0.13367 0.1129982,-0.0138 0.2384001,-0.0289 0.3334843,-0.0909 0.1722544,-0.113 0.2163516,0.01 0.4974732,-0.16675 0.011007,0 -0.00826,2.87597 -0.00826,2.87597 m -1.7666391,-1.35737 c -0.00413,-0.0675 0.046852,-0.12816 0.1143776,-0.13367 0.068901,-0.004 0.1295329,0.0469 0.1336675,0.11576 0.00688,0.0675 -0.045473,0.12677 -0.1129982,0.13367 -0.068901,0.004 -0.1281571,-0.0469 -0.1350469,-0.11576 m 0.5457014,1.36702 c -0.033055,0.003 -0.062011,-0.0138 -0.079925,-0.04 L 1.5674756,296.2837 c -0.00413,-0.008 -0.015169,-0.0276 -0.016545,-0.0372 l -0.042718,-0.19017 -0.1791476,0.19568 -0.056497,0.2949 c -0.00826,0.0358 -0.035832,0.0648 -0.075794,0.0675 -0.045473,0.003 -0.086815,-0.0317 -0.08957,-0.0772 -0.00141,-0.007 0,-0.011 0,-0.0179 l 0.059256,-0.31557 c 0.00141,-0.008 0.0055,-0.0179 0.011007,-0.0262 l 0.2204861,-0.26046 -0.056501,-0.24804 -0.046852,0.0923 c -0.00282,0.007 -0.00825,0.0124 -0.013794,0.0166 l -0.1874133,0.12954 c -0.00963,0.004 -0.016545,0.008 -0.026176,0.008 -0.030304,0.003 -0.05788,-0.0207 -0.059256,-0.0524 -0.00141,-0.0193 0.00688,-0.0372 0.022049,-0.0482 l 0.170875,-0.11713 0.1254019,-0.24942 c 0.020673,-0.0317 0.056501,-0.0593 0.099219,-0.062 0.033055,-0.003 0.063391,0.008 0.088194,0.0248 l 0.2494244,0.20257 c 0.00688,0.008 0.013794,0.0165 0.016545,0.0276 l 0.055122,0.24667 c 0.00141,10e-4 0.00141,0.004 0.00141,0.007 0.00282,0.0303 -0.022049,0.0579 -0.052363,0.0592 -0.028928,0.003 -0.053746,-0.0193 -0.059256,-0.0455 l -0.045476,-0.21084 -0.088194,-0.0703 0.1336711,0.5898 0.1598506,0.26872 c 0.00413,0.01 0.011007,0.0234 0.011007,0.0372 0.00413,0.0455 -0.030304,0.0868 -0.07717,0.0896 m -0.7813464,-1.45521 c -0.026176,-0.0537 -0.14056078,-0.32522 -0.14745053,-0.37345 -0.004128,-0.0482 0.0523663,0.10749 0.11437763,0.0951 -0.004127,0.11713 0.030304,0.24667 0.033055,0.27836 m -0.31005992,0.1254 c -0.0454731,0.0827 -0.0744149,0.19292 -0.12402253,0.27285 0.0124177,-0.051 0.0468524,-0.31281 0.0606319,-0.37069 0.006879,-0.0276 0.0606354,0.0234 0.16536456,-0.12265 -0.0440972,0.113 -0.0620113,0.14883 -0.10197394,0.22049 m 0.0234244,0.64079 c -0.0124177,-0.0565 -0.0716598,-0.24529 -0.0785495,-0.28112 -0.006879,-0.0469 0.0537457,-0.11576 0.06477,-0.17777 0.0124177,0.1254 0.0151694,0.42719 0.0137935,0.45889 M 3.2059479,293.38706 H 0.55046625 c -0.23013106,0 -0.41616842,0.18603 -0.41616842,0.41754 v 2.65549 c 0,0.22875 0.18603736,0.41616 0.41616842,0.41616 H 3.2059479 c 0.2301312,0 0.416165,-0.18741 0.416165,-0.41616 v -2.65549 c 0,-0.23151 -0.1860338,-0.41754 -0.416165,-0.41754"
       style="fill:#211e1e;fill-opacity:1;fill-rule:nonzero;stroke:none;stroke-width:0.35277775" />
    <path
       inkscape:connector-curvature="0"
       id="path13695"
       d="m 2.4507919,295.02971 v -0.75654 l -0.6945312,0.23978 z m 0,0"
       style="fill:#211e1e;fill-opacity:1;fill-rule:nonzero;stroke:none;stroke-width:0.35277775" />
  </g>
</svg>
