<?xml version="1.0" encoding="UTF-8" standalone="no"?>
<!-- Created with Inkscape (http://www.inkscape.org/) -->

<svg
   xmlns:dc="http://purl.org/dc/elements/1.1/"
   xmlns:cc="http://creativecommons.org/ns#"
   xmlns:rdf="http://www.w3.org/1999/02/22-rdf-syntax-ns#"
   xmlns:svg="http://www.w3.org/2000/svg"
   xmlns="http://www.w3.org/2000/svg"
   xmlns:sodipodi="http://sodipodi.sourceforge.net/DTD/sodipodi-0.dtd"
   xmlns:inkscape="http://www.inkscape.org/namespaces/inkscape"
   width="3.75mm"
   height="3.75mm"
   viewBox="0 0 3.75 3.75"
   version="1.1"
   id="svg13826"
   inkscape:version="0.92.1 r15371"
   sodipodi:docname="fire_exteinguiser_dark.svg">
  <defs
     id="defs13820" />
  <sodipodi:namedview
     id="base"
     pagecolor="#ffffff"
     bordercolor="#666666"
     borderopacity="1.0"
     inkscape:pageopacity="0.0"
     inkscape:pageshadow="2"
     inkscape:zoom="20.285322"
     inkscape:cx="9.5583531"
     inkscape:cy="7.3529464"
     inkscape:document-units="mm"
     inkscape:current-layer="layer1"
     showgrid="false"
     inkscape:window-width="673"
     inkscape:window-height="660"
     inkscape:window-x="685"
     inkscape:window-y="33"
     inkscape:window-maximized="0"
     showguides="true"
     inkscape:guide-bbox="true"
     gridtolerance="10"
     guidetolerance="2">
    <inkscape:grid
       type="xygrid"
       id="grid13828" />
    <sodipodi:guide
       position="0.13043093,3.8477124"
       orientation="1,0"
       id="guide20533"
       inkscape:locked="false" />
    <sodipodi:guide
       position="1.9173346,3.6129367"
       orientation="0,1"
       id="guide20535"
       inkscape:locked="false" />
  </sodipodi:namedview>
  <metadata
     id="metadata13823">
    <rdf:RDF>
      <cc:Work
         rdf:about="">
        <dc:format>image/svg+xml</dc:format>
        <dc:type
           rdf:resource="http://purl.org/dc/dcmitype/StillImage" />
        <dc:title></dc:title>
      </cc:Work>
    </rdf:RDF>
  </metadata>
  <g
     inkscape:label="Layer 1"
     inkscape:groupmode="layer"
     id="layer1"
     transform="translate(0,-293.25)">
    <path
       inkscape:connector-curvature="0"
       id="path1835"
       d="m 0.55115591,293.4619 c -0.19154776,0 -0.34588803,0.15572 -0.34588803,0.34589 v 2.6541 c 0,0.19017 0.15434027,0.34589 0.34588803,0.34589 H 3.203879 c 0.1915477,0 0.3458879,-0.15572 0.3458879,-0.34589 v -2.6541 c 0,-0.19017 -0.1543402,-0.34589 -0.3458879,-0.34589 z m 0,0"
       style="fill:#ffffff;fill-opacity:1;fill-rule:nonzero;stroke:none;stroke-width:0.35277775" />
    <path
       inkscape:connector-curvature="0"
       id="path1837"
       d="m 3.203879,296.87806 c 0.2301309,0 0.4175442,-0.18604 0.4175442,-0.41617 v -2.65272 c 0,-0.23014 -0.1874133,-0.41755 -0.4175442,-0.41755 H 0.55115591 c -0.23151043,0 -0.41616842,0.18741 -0.41616842,0.41755 v 2.65272 c 0,0.23013 0.18465799,0.41617 0.41616842,0.41617 z m 0,0"
       style="fill:#211e1e;fill-opacity:1;fill-rule:nonzero;stroke:none;stroke-width:0.35277775" />
    <path
       inkscape:connector-curvature="0"
       id="path1839"
       d="m 1.5212948,293.99382 c 0.050987,0 0.093705,-0.0427 0.093705,-0.0951 0,-0.0524 -0.042718,-0.0951 -0.093705,-0.0951 -0.052366,0 -0.095084,0.0427 -0.095084,0.0951 0,0.0524 0.042718,0.0951 0.095084,0.0951 m 0.031679,0.17639 c -0.2191067,0.0537 -0.2921423,0.16812 -0.3582881,0.26045 -0.06477,0.0951 -0.194303,0.0152 -0.1474506,-0.0772 0.034466,-0.0978 0.2039479,-0.25769 0.3307292,-0.30455 -0.031679,-0.0193 -0.068901,-0.0758 -0.068901,-0.1378 0,-0.13367 0.1019739,-0.22048 0.2149721,-0.22048 0.115757,0 0.1970582,0.0951 0.1970582,0.17087 h 0.096464 v 0.11989 h 0.3307292 v -0.0772 l 0.8157986,-0.11851 v 0.55948 l -0.8157986,-0.12402 v -0.0703 h -0.332105 l -0.00141,0.16812 c 0.092329,0.0165 0.3307291,0.16399 0.3307291,0.44786 v 1.65503 c 0,0.0413 -0.017921,0.11024 -0.1005981,0.11024 h -0.72898 c -0.081305,0 -0.1005981,-0.0689 -0.1005981,-0.11024 v -1.65503 c 0,-0.28387 0.2480487,-0.43132 0.3389983,-0.44786 z m 0,0"
       style="fill:#ffffff;fill-opacity:1;fill-rule:nonzero;stroke:none;stroke-width:0.35277775" />
  </g>
</svg>
