<?xml version="1.0" encoding="UTF-8" standalone="no"?>
<!-- Created with Inkscape (http://www.inkscape.org/) -->

<svg
   xmlns:dc="http://purl.org/dc/elements/1.1/"
   xmlns:cc="http://creativecommons.org/ns#"
   xmlns:rdf="http://www.w3.org/1999/02/22-rdf-syntax-ns#"
   xmlns:svg="http://www.w3.org/2000/svg"
   xmlns="http://www.w3.org/2000/svg"
   xmlns:sodipodi="http://sodipodi.sourceforge.net/DTD/sodipodi-0.dtd"
   xmlns:inkscape="http://www.inkscape.org/namespaces/inkscape"
   width="3.75mm"
   height="3.75mm"
   viewBox="0 0 3.75 3.75"
   version="1.1"
   id="svg13826"
   inkscape:version="0.92.1 r15371"
   sodipodi:docname="handrail_light.svg">
  <defs
     id="defs13820" />
  <sodipodi:namedview
     id="base"
     pagecolor="#ffffff"
     bordercolor="#666666"
     borderopacity="1.0"
     inkscape:pageopacity="0.0"
     inkscape:pageshadow="2"
     inkscape:zoom="20.285322"
     inkscape:cx="9.5583531"
     inkscape:cy="6.6839079"
     inkscape:document-units="mm"
     inkscape:current-layer="layer1"
     showgrid="false"
     inkscape:window-width="673"
     inkscape:window-height="660"
     inkscape:window-x="685"
     inkscape:window-y="33"
     inkscape:window-maximized="0"
     showguides="true"
     inkscape:guide-bbox="true"
     gridtolerance="10"
     guidetolerance="2">
    <inkscape:grid
       type="xygrid"
       id="grid13828" />
    <sodipodi:guide
       position="0.13043093,3.8477124"
       orientation="1,0"
       id="guide20533"
       inkscape:locked="false" />
    <sodipodi:guide
       position="1.9173346,3.6129367"
       orientation="0,1"
       id="guide20535"
       inkscape:locked="false" />
  </sodipodi:namedview>
  <metadata
     id="metadata13823">
    <rdf:RDF>
      <cc:Work
         rdf:about="">
        <dc:format>image/svg+xml</dc:format>
        <dc:type
           rdf:resource="http://purl.org/dc/dcmitype/StillImage" />
        <dc:title></dc:title>
      </cc:Work>
    </rdf:RDF>
  </metadata>
  <g
     inkscape:label="Layer 1"
     inkscape:groupmode="layer"
     id="layer1"
     transform="translate(0,-293.25)">
    <path
       inkscape:connector-curvature="0"
       id="path1391"
       d="m 3.1922117,296.87944 c 0.2301346,0 0.4175477,-0.18603 0.4175477,-0.41754 v -2.65548 c 0,-0.22876 -0.1874131,-0.41617 -0.4175477,-0.41617 H 0.53673351 c -0.23013459,0 -0.41616842,0.18741 -0.41616842,0.41617 v 2.65548 c 0,0.23151 0.18603383,0.41754 0.41616842,0.41754 z m 0,0"
       style="fill:#211e1e;fill-opacity:1;fill-rule:nonzero;stroke:none;stroke-width:0.35277775" />
    <path
       inkscape:connector-curvature="0"
       id="path1393"
       d="m 0.53673351,293.46053 c -0.1901684,0 -0.34588803,0.15572 -0.34588803,0.34589 v 2.65548 c 0,0.19154 0.15571963,0.34588 0.34588803,0.34588 H 3.1922117 c 0.1915478,0 0.3458879,-0.15434 0.3458879,-0.34588 v -2.65548 c 0,-0.19017 -0.1543401,-0.34589 -0.3458879,-0.34589 z m 0,0"
       style="fill:#ffffff;fill-opacity:1;fill-rule:nonzero;stroke:none;stroke-width:0.35277775" />
    <path
       inkscape:connector-curvature="0"
       id="path1395"
       d="m 1.2381545,294.46099 c 0.099219,-0.0358 0.1502057,-0.14607 0.1143776,-0.24529 -0.035828,-0.1006 -0.1460712,-0.15159 -0.2452899,-0.11576 -0.1005981,0.0372 -0.15158509,0.14607 -0.11437764,0.24667 0.0358281,0.0992 0.14607114,0.15021 0.24528994,0.11438"
       style="fill:#211e1e;fill-opacity:1;fill-rule:nonzero;stroke:none;stroke-width:0.35277775" />
    <path
       inkscape:connector-curvature="0"
       id="path1397"
       d="M 3.2500885,295.47936 H 2.7085216 v 0.41892 H 2.2592803 v 0.48921 H 1.827953 v 0.15847 h 0.5898021 v -0.4892 h 0.4492414 v -0.41893 h 0.4078993 v -0.15847 z m 0,0"
       style="fill:#211e1e;fill-opacity:1;fill-rule:evenodd;stroke:none;stroke-width:0.35277775" />
    <path
       inkscape:connector-curvature="0"
       id="path1399"
       d="m 1.9216614,295.54964 c 0,0 -0.015169,-0.0537 -0.081305,-0.11025 l -0.1474505,-0.073 1.6026589,-0.63528 -0.035828,-0.0923 -1.688098,0.66834 -0.179144,-0.0882 -0.00141,-0.34175 0.1446954,0.17914 c 0.020673,0.0289 0.053742,0.0455 0.089574,0.0455 l 0.3527777,0.004 c 0,0 0.082681,-0.003 0.088194,-0.0937 -0.00413,-0.0896 -0.088195,-0.0951 -0.088195,-0.0951 l -0.3045495,0.003 -0.2728489,-0.35691 c 0,0 -0.0248,-0.0551 -0.1391814,-0.0551 l -0.2301346,-0.003 c 0,0 -0.10472912,-0.007 -0.16260937,0.073 l -0.28111802,0.32109 c 0,0 -0.0289278,0.0234 -0.041342,0.11575 l -0.0399627,0.35967 c 0,0 -0.002822,0.0799 0.0854393,0.0951 0,0 0.0978394,0.0193 0.11024303,-0.0882 l 0.041342,-0.34175 0.19567877,-0.23289 -0.006879,0.53743 0.0440972,0.19982 -0.43545831,0.17225 0.0358281,0.091 0.42030295,-0.16536 0.0771701,0.35691 -0.12264668,0.31971 c 0,0 -0.0813047,0.15158 0.041342,0.19292 0.0757908,0.0276 0.14745038,-0.0289 0.19016828,-0.13918 l 0.137802,-0.36518 c 0.011007,-0.0276 0.028928,-0.0827 0.020673,-0.13229 l -0.07028,-0.34176 0.039963,-0.0152 0.4230581,0.19569 c 0,0 0.1557197,0.42443 0.1557197,0.42167 0.037204,0.0965 0.1061085,0.0978 0.16123,0.0813 0.066146,-0.0276 0.08268,-0.0896 0.056497,-0.16261 z m 0,0"
       style="fill:#211e1e;fill-opacity:1;fill-rule:evenodd;stroke:none;stroke-width:0.35277775" />
  </g>
</svg>
