<?xml version="1.0" encoding="UTF-8" standalone="no"?>
<!-- Created with Inkscape (http://www.inkscape.org/) -->

<svg
   xmlns:dc="http://purl.org/dc/elements/1.1/"
   xmlns:cc="http://creativecommons.org/ns#"
   xmlns:rdf="http://www.w3.org/1999/02/22-rdf-syntax-ns#"
   xmlns:svg="http://www.w3.org/2000/svg"
   xmlns="http://www.w3.org/2000/svg"
   xmlns:sodipodi="http://sodipodi.sourceforge.net/DTD/sodipodi-0.dtd"
   xmlns:inkscape="http://www.inkscape.org/namespaces/inkscape"
   width="3.75mm"
   height="3.75mm"
   viewBox="0 0 3.75 3.75"
   version="1.1"
   id="svg13826"
   inkscape:version="0.92.1 r15371"
   sodipodi:docname="phone_dark.svg">
  <defs
     id="defs13820" />
  <sodipodi:namedview
     id="base"
     pagecolor="#ffffff"
     bordercolor="#666666"
     borderopacity="1.0"
     inkscape:pageopacity="0.0"
     inkscape:pageshadow="2"
     inkscape:zoom="20.285322"
     inkscape:cx="7.2558826"
     inkscape:cy="7.3529464"
     inkscape:document-units="mm"
     inkscape:current-layer="layer1"
     showgrid="false"
     inkscape:window-width="673"
     inkscape:window-height="660"
     inkscape:window-x="685"
     inkscape:window-y="33"
     inkscape:window-maximized="0"
     showguides="true"
     inkscape:guide-bbox="true"
     gridtolerance="10"
     guidetolerance="2">
    <inkscape:grid
       type="xygrid"
       id="grid13828" />
    <sodipodi:guide
       position="0.13043093,3.8477124"
       orientation="1,0"
       id="guide20533"
       inkscape:locked="false" />
    <sodipodi:guide
       position="1.9173346,3.6129367"
       orientation="0,1"
       id="guide20535"
       inkscape:locked="false" />
  </sodipodi:namedview>
  <metadata
     id="metadata13823">
    <rdf:RDF>
      <cc:Work
         rdf:about="">
        <dc:format>image/svg+xml</dc:format>
        <dc:type
           rdf:resource="http://purl.org/dc/dcmitype/StillImage" />
        <dc:title></dc:title>
      </cc:Work>
    </rdf:RDF>
  </metadata>
  <g
     inkscape:label="Layer 1"
     inkscape:groupmode="layer"
     id="layer1"
     transform="translate(0,-293.25)">
    <path
       inkscape:connector-curvature="0"
       id="path12255"
       d="m 0.54977652,293.44886 c -0.1901684,0 -0.3445086,0.15572 -0.3445086,0.34588 v 2.65411 c 0,0.19017 0.1543402,0.34589 0.3445086,0.34589 H 3.2052583 c 0.1901684,0 0.3445086,-0.15572 0.3445086,-0.34589 v -2.65411 c 0,-0.19016 -0.1543402,-0.34588 -0.3445086,-0.34588 z m 0,0"
       style="fill:#ffffff;fill-opacity:1;fill-rule:nonzero;stroke:none;stroke-width:0.35277775" />
    <path
       inkscape:connector-curvature="0"
       id="path12257"
       d="m 3.2052583,296.86502 c 0.2287516,0 0.4161649,-0.18604 0.4161649,-0.41617 v -2.65411 c 0,-0.23013 -0.1874133,-0.41616 -0.4161649,-0.41616 H 0.54977652 c -0.2287552,0 -0.414789,0.18603 -0.414789,0.41616 v 2.65411 c 0,0.23013 0.1860338,0.41617 0.414789,0.41617 z m 0,0"
       style="fill:#0087cf;fill-opacity:1;fill-rule:nonzero;stroke:none;stroke-width:0.35277775" />
    <path
       inkscape:connector-curvature="0"
       id="path12259"
       d="m 1.8161958,293.64454 c -0.1419401,0.0152 -0.6531927,0.24942 -0.6683516,1.45383 -0.015169,1.27055 0.5264115,1.53789 0.6697275,1.53514 v -0.83923 c -0.1171329,0 -0.1419366,-0.12678 -0.1681198,-0.38999 -0.017921,-0.17501 -0.022049,-0.38998 0,-0.60357 0.016545,-0.15021 0.044097,-0.29766 0.1667439,-0.29766 z m 0,0"
       style="fill:#ffffff;fill-opacity:1;fill-rule:nonzero;stroke:none;stroke-width:0.35277775" />
    <path
       inkscape:connector-curvature="0"
       id="path12261"
       d="m 2.2034223,296.63488 c 0.053746,0 0.093708,-0.0441 0.093708,-0.0937 v -10e-4 c 0,0 0,-0.65319 0,-0.65319 0,-0.0524 -0.042721,-0.0923 -0.093708,-0.0923 H 1.9650222 v 0.84059 c 0,0 0.2370243,0 0.2370243,0 z m 0,0"
       style="fill:#ffffff;fill-opacity:1;fill-rule:nonzero;stroke:none;stroke-width:0.35277775" />
    <path
       inkscape:connector-curvature="0"
       id="path12263"
       d="m 2.2034223,294.50306 c 0.053746,0 0.093708,-0.0441 0.093708,-0.0937 0,0 0,-0.67248 0,-0.67248 0,-0.0524 -0.042721,-0.0923 -0.093708,-0.0923 H 1.9650222 v 0.85852 l 0.2370243,10e-4 z m 0,0"
       style="fill:#ffffff;fill-opacity:1;fill-rule:nonzero;stroke:none;stroke-width:0.35277775" />
  </g>
</svg>
