<?xml version="1.0" encoding="UTF-8" standalone="no"?>
<!-- Created with Inkscape (http://www.inkscape.org/) -->

<svg
   xmlns:dc="http://purl.org/dc/elements/1.1/"
   xmlns:cc="http://creativecommons.org/ns#"
   xmlns:rdf="http://www.w3.org/1999/02/22-rdf-syntax-ns#"
   xmlns:svg="http://www.w3.org/2000/svg"
   xmlns="http://www.w3.org/2000/svg"
   xmlns:sodipodi="http://sodipodi.sourceforge.net/DTD/sodipodi-0.dtd"
   xmlns:inkscape="http://www.inkscape.org/namespaces/inkscape"
   width="3.75mm"
   height="3.75mm"
   viewBox="0 0 3.75 3.75"
   version="1.1"
   id="svg13826"
   inkscape:version="0.92.1 r15371"
   sodipodi:docname="tornado_dark.svg">
  <defs
     id="defs13820" />
  <sodipodi:namedview
     id="base"
     pagecolor="#ffffff"
     bordercolor="#666666"
     borderopacity="1.0"
     inkscape:pageopacity="0.0"
     inkscape:pageshadow="2"
     inkscape:zoom="20.285322"
     inkscape:cx="9.5583531"
     inkscape:cy="6.6839079"
     inkscape:document-units="mm"
     inkscape:current-layer="layer1"
     showgrid="false"
     inkscape:window-width="673"
     inkscape:window-height="660"
     inkscape:window-x="805"
     inkscape:window-y="55"
     inkscape:window-maximized="0"
     showguides="true"
     inkscape:guide-bbox="true"
     gridtolerance="10"
     guidetolerance="2">
    <inkscape:grid
       type="xygrid"
       id="grid13828" />
    <sodipodi:guide
       position="0.13043093,3.8477124"
       orientation="1,0"
       id="guide20533"
       inkscape:locked="false" />
    <sodipodi:guide
       position="1.9173346,3.6129367"
       orientation="0,1"
       id="guide20535"
       inkscape:locked="false" />
  </sodipodi:namedview>
  <metadata
     id="metadata13823">
    <rdf:RDF>
      <cc:Work
         rdf:about="">
        <dc:format>image/svg+xml</dc:format>
        <dc:type
           rdf:resource="http://purl.org/dc/dcmitype/StillImage" />
        <dc:title></dc:title>
      </cc:Work>
    </rdf:RDF>
  </metadata>
  <g
     inkscape:label="Layer 1"
     inkscape:groupmode="layer"
     id="layer1"
     transform="translate(0,-293.25)">
    <path
       inkscape:connector-curvature="0"
       id="path13697"
       d="m 0.19933196,296.45638 c 0,0.19017 0.15571963,0.34588 0.34588801,0.34588 H 3.1979429 c 0.1915477,0 0.3458882,-0.15571 0.3458882,-0.34588 v -2.65411 c 0,-0.19016 -0.1543405,-0.34588 -0.3458882,-0.34588 H 0.54521997 c -0.19016838,0 -0.34588801,0.15572 -0.34588801,0.34588 z m 0,0"
       style="fill:#ffffff;fill-opacity:1;fill-rule:nonzero;stroke:none;stroke-width:0.35277775" />
    <path
       inkscape:connector-curvature="0"
       id="path13699"
       d="m 0.13043093,296.46189 c 0,0.23013 0.18603383,0.41617 0.41754425,0.41617 H 3.2007017 c 0.2301311,0 0.4161649,-0.18604 0.4161649,-0.41617 v -2.65273 c 0,-0.23013 -0.1860338,-0.41754 -0.4161649,-0.41754 H 0.54797518 c -0.23151042,0 -0.41754425,0.18741 -0.41754425,0.41754 z m 0,0"
       style="fill:#211e1e;fill-opacity:1;fill-rule:nonzero;stroke:none;stroke-width:0.35277775" />
    <path
       inkscape:connector-curvature="0"
       id="path13701"
       d="m 3.1152624,295.58132 v -0.20395 l -1.1892491,0.53744 v 0.20257 l 0.110243,-0.0496 v 0.42168 h 1.0790061 v -0.19017 H 2.2264283 v -0.31695 z m 0,0"
       style="fill:#ffffff;fill-opacity:1;fill-rule:nonzero;stroke:none;stroke-width:0.35277775" />
    <path
       inkscape:connector-curvature="0"
       id="path13703"
       d="M 2.4606939,294.21155 H 0.89937711 c -0.0813047,0 -0.14882989,-0.0675 -0.14882989,-0.14883 0,-0.0827 0.0675252,-0.1502 0.14882989,-0.1502 H 2.4606939 c 0.08268,0 0.1488263,0.0675 0.1488263,0.1502 0,0.0813 -0.066146,0.14883 -0.1488263,0.14883"
       style="fill:#ffffff;fill-opacity:1;fill-rule:nonzero;stroke:none;stroke-width:0.35277775" />
    <path
       inkscape:connector-curvature="0"
       id="path13705"
       d="M 2.1713067,294.73383 H 1.0537174 c -0.082684,0 -0.15020579,-0.0675 -0.15020579,-0.15021 0,-0.0827 0.067522,-0.1502 0.15020579,-0.1502 h 1.1175893 c 0.082681,0 0.1502057,0.0675 0.1502057,0.1502 0,0.0827 -0.067525,0.15021 -0.1502057,0.15021"
       style="fill:#ffffff;fill-opacity:1;fill-rule:nonzero;stroke:none;stroke-width:0.35277775" />
    <path
       inkscape:connector-curvature="0"
       id="path13707"
       d="M 1.8860506,295.25473 H 1.1047043 c -0.081305,0 -0.14882979,-0.0675 -0.14882979,-0.14883 0,-0.0827 0.067525,-0.15021 0.14882979,-0.15021 h 0.7813463 c 0.081305,0 0.1488299,0.0675 0.1488299,0.15021 0,0.0813 -0.067525,0.14883 -0.1488299,0.14883"
       style="fill:#ffffff;fill-opacity:1;fill-rule:nonzero;stroke:none;stroke-width:0.35277775" />
    <path
       inkscape:connector-curvature="0"
       id="path13709"
       d="M 1.4864205,295.777 H 0.99997171 c -0.08268,0 -0.15020574,-0.0675 -0.15020574,-0.1502 0,-0.0827 0.0675252,-0.15021 0.15020574,-0.15021 H 1.4864205 c 0.081305,0 0.1488298,0.0675 0.1488298,0.15021 0,0.0827 -0.067525,0.1502 -0.1488298,0.1502"
       style="fill:#ffffff;fill-opacity:1;fill-rule:nonzero;stroke:none;stroke-width:0.35277775" />
    <path
       inkscape:connector-curvature="0"
       id="path13711"
       d="M 1.0674969,296.2979 H 0.86492482 c -0.0826805,0 -0.1502057,-0.0675 -0.1502057,-0.1502 0,-0.0827 0.0675252,-0.14883 0.1502057,-0.14883 H 1.0674969 c 0.082684,0 0.1502057,0.0661 0.1502057,0.14883 0,0.0827 -0.067522,0.1502 -0.1502057,0.1502"
       style="fill:#ffffff;fill-opacity:1;fill-rule:nonzero;stroke:none;stroke-width:0.35277775" />
  </g>
</svg>
