<?xml version="1.0" encoding="UTF-8" standalone="no"?>
<!-- Created with Inkscape (http://www.inkscape.org/) -->

<svg
   xmlns:dc="http://purl.org/dc/elements/1.1/"
   xmlns:cc="http://creativecommons.org/ns#"
   xmlns:rdf="http://www.w3.org/1999/02/22-rdf-syntax-ns#"
   xmlns:svg="http://www.w3.org/2000/svg"
   xmlns="http://www.w3.org/2000/svg"
   xmlns:sodipodi="http://sodipodi.sourceforge.net/DTD/sodipodi-0.dtd"
   xmlns:inkscape="http://www.inkscape.org/namespaces/inkscape"
   width="3.75mm"
   height="3.75mm"
   viewBox="0 0 3.75 3.75"
   version="1.1"
   id="svg13826"
   inkscape:version="0.92.1 r15371"
   sodipodi:docname="bear_box_dark.svg">
  <defs
     id="defs13820" />
  <sodipodi:namedview
     id="base"
     pagecolor="#ffffff"
     bordercolor="#666666"
     borderopacity="1.0"
     inkscape:pageopacity="0.0"
     inkscape:pageshadow="2"
     inkscape:zoom="20.285322"
     inkscape:cx="7.2558826"
     inkscape:cy="7.2894483"
     inkscape:document-units="mm"
     inkscape:current-layer="layer1"
     showgrid="false"
     inkscape:window-width="561"
     inkscape:window-height="558"
     inkscape:window-x="794"
     inkscape:window-y="78"
     inkscape:window-maximized="0"
     showguides="true"
     inkscape:guide-bbox="true"
     gridtolerance="10"
     guidetolerance="2">
    <inkscape:grid
       type="xygrid"
       id="grid13828" />
    <sodipodi:guide
       position="0.13043093,3.8477124"
       orientation="1,0"
       id="guide20533"
       inkscape:locked="false" />
    <sodipodi:guide
       position="1.9173346,3.6129367"
       orientation="0,1"
       id="guide20535"
       inkscape:locked="false" />
  </sodipodi:namedview>
  <metadata
     id="metadata13823">
    <rdf:RDF>
      <cc:Work
         rdf:about="">
        <dc:format>image/svg+xml</dc:format>
        <dc:type
           rdf:resource="http://purl.org/dc/dcmitype/StillImage" />
        <dc:title></dc:title>
      </cc:Work>
    </rdf:RDF>
  </metadata>
  <g
     inkscape:label="Layer 1"
     inkscape:groupmode="layer"
     id="layer1"
     transform="translate(0,-293.25)">
    <path
       inkscape:connector-curvature="0"
       id="path9987"
       d="m 0.55184389,293.44955 c -0.19154739,0 -0.34588766,0.15572 -0.34588766,0.34589 v 2.65272 c 0,0.19155 0.15434027,0.34589 0.34588766,0.34589 H 3.2045671 c 0.1915475,0 0.3472656,-0.15434 0.3472656,-0.34589 v -2.65272 c 0,-0.19017 -0.1557181,-0.34589 -0.3472656,-0.34589 z m 0,0"
       style="fill:#ffffff;fill-opacity:1;fill-rule:nonzero;stroke:none;stroke-width:0.35277775" />
    <path
       inkscape:connector-curvature="0"
       id="path9989"
       d="m 3.2045671,296.86433 c 0.2301322,0 0.4175453,-0.18603 0.4175453,-0.41617 v -2.65272 c 0,-0.23013 -0.1874131,-0.41617 -0.4175453,-0.41617 H 0.55184389 c -0.23013246,0 -0.41754565,0.18604 -0.41754565,0.41617 v 2.65272 c 0,0.23014 0.18741319,0.41617 0.41754565,0.41617 z m 0,0"
       style="fill:#211e1e;fill-opacity:1;fill-rule:nonzero;stroke:none;stroke-width:0.35277775" />
    <path
       inkscape:connector-curvature="0"
       id="path9991"
       d="m 3.2941397,294.01868 v -0.21773 H 1.9726009 v 2.6417 h 1.3215388 v -0.21773 H 2.1917091 v -2.20624 z m 0,0"
       style="fill:#ffffff;fill-opacity:1;fill-rule:nonzero;stroke:none;stroke-width:0.35277775" />
    <path
       inkscape:connector-curvature="0"
       id="path9993"
       d="m 3.1480675,294.56025 c 0,0 -0.019293,0.38172 -0.3541559,0.35002 0,0 -0.037207,-0.3197 0.3541559,-0.35002"
       style="fill:#ffffff;fill-opacity:1;fill-rule:nonzero;stroke:none;stroke-width:0.35277775" />
    <path
       inkscape:connector-curvature="0"
       id="path9995"
       d="m 2.8807282,295.0591 c 0.044097,-0.0441 0.1047308,-0.0703 0.1708767,-0.0703 0.1336696,0 0.2425348,0.10887 0.2425348,0.24253 0,0.006 0,0.01 0,0.0152 -0.00414,0.0524 -0.020669,0.11714 -0.060634,0.19844 0,0 -0.068902,0.13092 -0.1226452,0.19017 l -0.00551,0.004 c -0.026183,0.0275 -0.06339,0.0441 -0.1033531,0.0441 -0.049609,0 -0.093707,-0.0248 -0.1198894,-0.062 h -0.00138 c -0.026183,0.0372 -0.07028,0.062 -0.1198894,0.062 -0.041341,0 -0.07717,-0.0165 -0.1047309,-0.0441 l -0.00413,-0.004 c -0.055121,-0.0592 -0.1226453,-0.19017 -0.1226453,-0.19017 -0.039963,-0.0813 -0.056499,-0.14607 -0.060634,-0.19844 h -0.00138 c 0,-0.006 0,-0.01 0,-0.0152 0,-0.13366 0.1088651,-0.24253 0.2439127,-0.24253 0.066146,0 0.1254015,0.0262 0.1694988,0.0703"
       style="fill:#ffffff;fill-opacity:1;fill-rule:nonzero;stroke:none;stroke-width:0.35277775" />
    <path
       inkscape:connector-curvature="0"
       id="path9997"
       d="m 1.6804568,294.98193 -0.3183269,-0.17226 c 0.00138,-0.006 0.00138,-0.0124 0.00138,-0.0207 0,-0.12127 -0.086817,-0.22324 -0.2011938,-0.24529 l -0.1005967,-0.0138 c 0.00551,-0.0152 0.00689,-0.0331 0.00689,-0.0496 0,-0.10749 -0.086816,-0.1943 -0.19430328,-0.1943 -0.1061088,0 -0.19292529,0.0868 -0.19292529,0.1943 v 0.0165 l -0.28938819,0.0455 v 1.41525 l 0.36380207,-0.42582 0.73036029,-0.0882 c 0.078548,-0.008 0.1460723,-0.0524 0.184657,-0.11713 l 0.078548,-0.17915 c 0.00689,-0.0152 0.011024,-0.0317 0.011024,-0.0496 0,-0.0524 -0.033073,-0.0978 -0.079926,-0.11575"
       style="fill:#ffffff;fill-opacity:1;fill-rule:nonzero;stroke:none;stroke-width:0.35277775" />
  </g>
</svg>
