<?xml version="1.0" encoding="UTF-8" standalone="no"?>
<!-- Created with Inkscape (http://www.inkscape.org/) -->

<svg
   xmlns:dc="http://purl.org/dc/elements/1.1/"
   xmlns:cc="http://creativecommons.org/ns#"
   xmlns:rdf="http://www.w3.org/1999/02/22-rdf-syntax-ns#"
   xmlns:svg="http://www.w3.org/2000/svg"
   xmlns="http://www.w3.org/2000/svg"
   xmlns:sodipodi="http://sodipodi.sourceforge.net/DTD/sodipodi-0.dtd"
   xmlns:inkscape="http://www.inkscape.org/namespaces/inkscape"
   width="3.75mm"
   height="3.75mm"
   viewBox="0 0 3.75 3.75"
   version="1.1"
   id="svg13826"
   inkscape:version="0.92.1 r15371"
   sodipodi:docname="electric_light.svg">
  <defs
     id="defs13820" />
  <sodipodi:namedview
     id="base"
     pagecolor="#ffffff"
     bordercolor="#666666"
     borderopacity="1.0"
     inkscape:pageopacity="0.0"
     inkscape:pageshadow="2"
     inkscape:zoom="20.285322"
     inkscape:cx="7.3400676"
     inkscape:cy="6.7205529"
     inkscape:document-units="mm"
     inkscape:current-layer="layer1"
     showgrid="false"
     inkscape:window-width="561"
     inkscape:window-height="558"
     inkscape:window-x="794"
     inkscape:window-y="78"
     inkscape:window-maximized="0"
     showguides="true"
     inkscape:guide-bbox="true"
     gridtolerance="10"
     guidetolerance="2">
    <inkscape:grid
       type="xygrid"
       id="grid13828" />
    <sodipodi:guide
       position="0.13043093,3.8477124"
       orientation="1,0"
       id="guide20533"
       inkscape:locked="false" />
    <sodipodi:guide
       position="1.9173346,3.6129367"
       orientation="0,1"
       id="guide20535"
       inkscape:locked="false" />
  </sodipodi:namedview>
  <metadata
     id="metadata13823">
    <rdf:RDF>
      <cc:Work
         rdf:about="">
        <dc:format>image/svg+xml</dc:format>
        <dc:type
           rdf:resource="http://purl.org/dc/dcmitype/StillImage" />
        <dc:title></dc:title>
      </cc:Work>
    </rdf:RDF>
  </metadata>
  <g
     inkscape:label="Layer 1"
     inkscape:groupmode="layer"
     id="layer1"
     transform="translate(0,-293.25)">
    <path
       inkscape:connector-curvature="0"
       id="path10377"
       d="m 3.177792,296.87806 c 0.2301322,0 0.4175453,-0.18466 0.4175453,-0.41617 v -2.65272 c 0,-0.23014 -0.1874131,-0.41755 -0.4175453,-0.41755 H 0.5250687 c -0.23013246,0 -0.4161677,0.18741 -0.4161677,0.41755 v 2.65272 c 0,0.23151 0.18603524,0.41617 0.4161677,0.41617 z m 0,0"
       style="fill:#211e1e;fill-opacity:1;fill-rule:nonzero;stroke:none;stroke-width:0.35277775" />
    <path
       inkscape:connector-curvature="0"
       id="path10379"
       d="m 0.52231246,293.4619 c -0.19016946,0 -0.34588768,0.15572 -0.34588768,0.34727 v 2.6541 c 0,0.19017 0.15571822,0.34588 0.34588768,0.34588 H 3.177792 c 0.1915475,0 0.3472656,-0.15571 0.3472656,-0.34588 v -2.6541 c 0,-0.19155 -0.1557181,-0.34727 -0.3472656,-0.34727 z m 0,0"
       style="fill:#ffffff;fill-opacity:1;fill-rule:nonzero;stroke:none;stroke-width:0.35277775" />
    <path
       inkscape:connector-curvature="0"
       id="path10381"
       d="m 2.3785299,294.55193 v -0.64906 c 0,-0.073 -0.066146,-0.13367 -0.1474501,-0.13367 -0.082682,0 -0.1488282,0.0606 -0.1488282,0.13367 v 0.64906 H 1.583402 v -0.64906 c 0,-0.073 -0.066146,-0.13367 -0.1488285,-0.13367 -0.081304,0 -0.1474498,0.0606 -0.1474498,0.13367 v 0.64906 H 0.9246996 v 0.27423 c 0,0.38998 0.3073026,0.70142 0.7124456,0.79099 l 0.033073,0.004 v 0.88057 h 0.3610461 v -0.8847 h 0.011024 c 0.4161673,-0.0813 0.7358721,-0.39412 0.7358721,-0.79099 v -0.27424 z m 0,0"
       style="fill:#211e1e;fill-opacity:1;fill-rule:nonzero;stroke:none;stroke-width:0.35277775" />
  </g>
</svg>
