<?xml version="1.0" encoding="UTF-8" standalone="no"?>
<!-- Created with Inkscape (http://www.inkscape.org/) -->

<svg
   xmlns:dc="http://purl.org/dc/elements/1.1/"
   xmlns:cc="http://creativecommons.org/ns#"
   xmlns:rdf="http://www.w3.org/1999/02/22-rdf-syntax-ns#"
   xmlns:svg="http://www.w3.org/2000/svg"
   xmlns="http://www.w3.org/2000/svg"
   xmlns:sodipodi="http://sodipodi.sourceforge.net/DTD/sodipodi-0.dtd"
   xmlns:inkscape="http://www.inkscape.org/namespaces/inkscape"
   width="3.75mm"
   height="3.75mm"
   viewBox="0 0 3.75 3.75"
   version="1.1"
   id="svg13826"
   inkscape:version="0.92.1 r15371"
   sodipodi:docname="firewood_dark.svg">
  <defs
     id="defs13820" />
  <sodipodi:namedview
     id="base"
     pagecolor="#ffffff"
     bordercolor="#666666"
     borderopacity="1.0"
     inkscape:pageopacity="0.0"
     inkscape:pageshadow="2"
     inkscape:zoom="20.285322"
     inkscape:cx="7.426559"
     inkscape:cy="7.2943869"
     inkscape:document-units="mm"
     inkscape:current-layer="layer1"
     showgrid="false"
     inkscape:window-width="561"
     inkscape:window-height="558"
     inkscape:window-x="794"
     inkscape:window-y="78"
     inkscape:window-maximized="0"
     showguides="true"
     inkscape:guide-bbox="true"
     gridtolerance="10"
     guidetolerance="2"
     inkscape:lockguides="true">
    <inkscape:grid
       type="xygrid"
       id="grid13828" />
    <sodipodi:guide
       position="0.13043093,3.8477124"
       orientation="1,0"
       id="guide20533"
       inkscape:locked="true" />
    <sodipodi:guide
       position="1.9173346,3.6129367"
       orientation="0,1"
       id="guide20535"
       inkscape:locked="true" />
  </sodipodi:namedview>
  <metadata
     id="metadata13823">
    <rdf:RDF>
      <cc:Work
         rdf:about="">
        <dc:format>image/svg+xml</dc:format>
        <dc:type
           rdf:resource="http://purl.org/dc/dcmitype/StillImage" />
        <dc:title></dc:title>
      </cc:Work>
    </rdf:RDF>
  </metadata>
  <g
     inkscape:label="Layer 1"
     inkscape:groupmode="layer"
     id="layer1"
     transform="translate(0,-293.25)">
    <path
       inkscape:connector-curvature="0"
       id="path10213"
       d="m 0.55115488,293.44886 c -0.19154739,0 -0.34588766,0.15572 -0.34588766,0.34727 v 2.65272 c 0,0.19017 0.15434027,0.34589 0.34588766,0.34589 H 3.2052561 c 0.1901696,0 0.3458877,-0.15572 0.3458877,-0.34589 v -2.65272 c 0,-0.19155 -0.1557181,-0.34727 -0.3458877,-0.34727 z m 0,0"
       style="fill:#ffffff;fill-opacity:1;fill-rule:nonzero;stroke:none;stroke-width:0.35277775" />
    <path
       inkscape:connector-curvature="0"
       id="path10215"
       d="m 3.2052561,296.86502 c 0.2301325,0 0.4161674,-0.18604 0.4161674,-0.41617 v -2.65272 c 0,-0.23151 -0.1860349,-0.41755 -0.4161674,-0.41755 H 0.55115488 c -0.23013246,0 -0.4161677,0.18604 -0.4161677,0.41755 v 2.65272 c 0,0.23013 0.18603524,0.41617 0.4161677,0.41617 z m 0,0"
       style="fill:#211e1e;fill-opacity:1;fill-rule:nonzero;stroke:none;stroke-width:0.35277775" />
    <path
       inkscape:connector-curvature="0"
       id="path10217"
       d="m 0.84192067,296.17048 c 0,0 0.16674253,0.38586 0.54019093,0.38586 l 0.099219,-0.50712 z m 0,0"
       style="fill:#ffffff;fill-opacity:1;fill-rule:nonzero;stroke:none;stroke-width:0.35277775" />
    <path
       inkscape:connector-curvature="0"
       id="path10219"
       d="m 2.2819708,295.40568 c 0,0 -0.00138,0.4203 0.3431314,0.56775 l 0.2921441,-0.42582 z m 0,0"
       style="fill:#ffffff;fill-opacity:1;fill-rule:nonzero;stroke:none;stroke-width:0.35277775" />
    <path
       inkscape:connector-curvature="0"
       id="path10221"
       d="m 1.7128408,295.97481 0.034452,0.54983 c 0,0 0.5043621,0.11162 0.6270074,-0.44097 z m 0,0"
       style="fill:#ffffff;fill-opacity:1;fill-rule:nonzero;stroke:none;stroke-width:0.35277775" />
    <path
       inkscape:connector-curvature="0"
       id="path10223"
       d="M 2.1937764,295.837 1.74867,295.37122 c 0,0 -0.3045464,0.1819 -0.2604491,0.43546 z m 0,0"
       style="fill:#ffffff;fill-opacity:1;fill-rule:nonzero;stroke:none;stroke-width:0.35277775" />
    <path
       inkscape:connector-curvature="0"
       id="path10225"
       d="m 1.9195467,295.21413 0.7027993,0.0303 c 0,0 0.037207,-0.34175 -0.1694988,-0.49471 z m 0,0"
       style="fill:#ffffff;fill-opacity:1;fill-rule:nonzero;stroke:none;stroke-width:0.35277775" />
    <path
       inkscape:connector-curvature="0"
       id="path10227"
       d="m 3.0936353,296.54945 c 0,0 0.1557181,-0.45062 -0.2094619,-0.58429 l -0.4464844,0.47267 z m 0,0"
       style="fill:#ffffff;fill-opacity:1;fill-rule:nonzero;stroke:none;stroke-width:0.35277775" />
    <path
       inkscape:connector-curvature="0"
       id="path10229"
       d="m 1.4840866,293.84022 0.213596,-0.23564 0.7138237,0.66146 c 0,0 -0.2218641,0.30316 -0.5277888,0.3197 l -0.048231,-0.37758 c 0,0 0,-0.0482 -0.067524,-0.11024 -0.066146,-0.062 -0.2838757,-0.2577 -0.2838757,-0.2577"
       style="fill:#ffffff;fill-opacity:1;fill-rule:nonzero;stroke:none;stroke-width:0.35277775" />
    <path
       inkscape:connector-curvature="0"
       id="path10231"
       d="m 1.6949264,294.17509 -0.1584745,-0.14194 -0.062012,-0.0551 c 0,0 -0.073036,0.0786 -0.1005967,0.10611 -0.026183,0.0262 -0.050987,0.051 -0.057878,0.0882 -0.00551,0.0331 -0.012404,0.10473 -0.049609,0.15985 -0.2094617,0.23014 -0.38998487,0.43271 -0.49471542,0.54571 -0.10748713,0.0937 -0.25080311,0.32659 -0.28387603,0.38447 -0.039963,0.0717 0.008269,0.0854 0.008269,0.0854 0,0 0.12264533,0.0551 0.16260834,0.073 0.039963,0.0179 0.0909507,10e-4 0.1047309,-0.0827 0.009645,-0.0675 0.0509873,-0.16261 0.0661458,-0.19706 0.0289384,-0.04 0.0620117,-0.0799 0.0978409,-0.11851 0.18052271,-0.19293 0.76067711,-0.83923 0.76756721,-0.84749"
       style="fill:#ffffff;fill-opacity:1;fill-rule:nonzero;stroke:none;stroke-width:0.35277775" />
  </g>
</svg>
