<?xml version="1.0" encoding="UTF-8" standalone="no"?>
<!-- Created with Inkscape (http://www.inkscape.org/) -->

<svg
   xmlns:dc="http://purl.org/dc/elements/1.1/"
   xmlns:cc="http://creativecommons.org/ns#"
   xmlns:rdf="http://www.w3.org/1999/02/22-rdf-syntax-ns#"
   xmlns:svg="http://www.w3.org/2000/svg"
   xmlns="http://www.w3.org/2000/svg"
   xmlns:sodipodi="http://sodipodi.sourceforge.net/DTD/sodipodi-0.dtd"
   xmlns:inkscape="http://www.inkscape.org/namespaces/inkscape"
   width="3.75mm"
   height="3.75mm"
   viewBox="0 0 3.75 3.75"
   version="1.1"
   id="svg13826"
   inkscape:version="0.92.1 r15371"
   sodipodi:docname="fire_grate_dark.svg">
  <defs
     id="defs13820" />
  <sodipodi:namedview
     id="base"
     pagecolor="#ffffff"
     bordercolor="#666666"
     borderopacity="1.0"
     inkscape:pageopacity="0.0"
     inkscape:pageshadow="2"
     inkscape:zoom="57.375555"
     inkscape:cx="3.9378726"
     inkscape:cy="10.64886"
     inkscape:document-units="mm"
     inkscape:current-layer="layer1"
     showgrid="false"
     inkscape:window-width="561"
     inkscape:window-height="558"
     inkscape:window-x="794"
     inkscape:window-y="78"
     inkscape:window-maximized="0"
     showguides="true"
     inkscape:guide-bbox="true"
     gridtolerance="10"
     guidetolerance="2"
     inkscape:lockguides="true">
    <inkscape:grid
       type="xygrid"
       id="grid13828" />
    <sodipodi:guide
       position="0.13043093,3.8477124"
       orientation="1,0"
       id="guide20533"
       inkscape:locked="true" />
    <sodipodi:guide
       position="1.9173346,3.6129367"
       orientation="0,1"
       id="guide20535"
       inkscape:locked="true" />
  </sodipodi:namedview>
  <metadata
     id="metadata13823">
    <rdf:RDF>
      <cc:Work
         rdf:about="">
        <dc:format>image/svg+xml</dc:format>
        <dc:type
           rdf:resource="http://purl.org/dc/dcmitype/StillImage" />
        <dc:title></dc:title>
      </cc:Work>
    </rdf:RDF>
  </metadata>
  <g
     inkscape:label="Layer 1"
     inkscape:groupmode="layer"
     id="layer1"
     transform="translate(0,-293.25)">
    <path
       inkscape:connector-curvature="0"
       id="path9977"
       d="m 0.56419798,293.45024 c -0.19154739,0 -0.34588766,0.15434 -0.34588766,0.34589 v 2.6541 c 0,0.19017 0.15434027,0.34451 0.34588766,0.34451 H 3.2182992 c 0.1901696,0 0.3458877,-0.15434 0.3458877,-0.34451 v -2.6541 c 0,-0.19155 -0.1557181,-0.34589 -0.3458877,-0.34589 z m 0,0"
       style="fill:#ffffff;fill-opacity:1;fill-rule:nonzero;stroke:none;stroke-width:0.35277775" />
    <path
       inkscape:connector-curvature="0"
       id="path9979"
       d="m 3.2182992,296.86502 c 0.2301325,0 0.4161674,-0.18604 0.4161674,-0.41617 v -2.65272 c 0,-0.23014 -0.1860349,-0.41755 -0.4161674,-0.41755 H 0.56419798 c -0.23013246,0 -0.4161677,0.18741 -0.4161677,0.41755 v 2.65272 c 0,0.23013 0.18603524,0.41617 0.4161677,0.41617 z m 0,0"
       style="fill:#211e1e;fill-opacity:1;fill-rule:nonzero;stroke:none;stroke-width:0.35277775" />
    <path
       inkscape:connector-curvature="0"
       id="path9981"
       d="m 1.9794429,294.50719 c 0.4230578,-0.64079 -0.2976562,-0.91639 -0.2976562,-0.91639 0.095085,0.10611 0.053744,0.3266 -0.2287542,0.58842 -0.3017904,0.27837 0.00413,0.67111 0.1143773,0.79375 h 0.2411564 c -0.066146,-0.23978 0.100597,-0.36242 0.1708767,-0.46578"
       style="fill:#ffffff;fill-opacity:1;fill-rule:nonzero;stroke:none;stroke-width:0.35277775" />
    <path
       inkscape:connector-curvature="0"
       id="path9983"
       d="m 2.3335986,294.21505 c -0.00964,0.0703 -0.052365,0.25356 -0.1653645,0.37758 -0.184657,0.20395 -0.1543403,0.31833 -0.1336697,0.38034 H 2.231624 c 0.4409722,-0.30592 0.1019746,-0.75792 0.1019746,-0.75792"
       style="fill:#ffffff;fill-opacity:1;fill-rule:nonzero;stroke:none;stroke-width:0.35277775" />
    <path
       inkscape:connector-curvature="0"
       id="path9985"
       d="M 2.7911077,296.44472 H 2.516878 v -0.50437 h 0.4671546 v 0.31144 c 0,0.10611 -0.086816,0.19293 -0.1929249,0.19293 m -1.9926434,-0.19293 v -0.31144 h 0.467155 v 0.50437 H 0.99138963 c -0.10610885,0 -0.19292533,-0.0868 -0.19292533,-0.19293 m 0.19292533,-0.95774 H 1.2656193 v 0.52366 h -0.467155 v -0.33073 c 0,-0.10611 0.0868165,-0.19293 0.19292533,-0.19293 m 0.96738267,0 h 0.4340821 v 0.52366 H 1.9587723 Z m 0,0.6463 h 0.4340821 v 0.50437 H 1.9587723 Z m -0.5691297,-0.6463 h 0.4464843 v 0.52366 H 1.3896426 Z m 0.4464843,1.15067 H 1.3896426 v -0.50437 h 0.4464843 z m 1.1479057,-0.95774 v 0.33073 H 2.516878 v -0.52366 h 0.2742297 c 0.1061088,0 0.1929249,0.0868 0.1929249,0.19293 M 2.7911077,295.17141 H 0.99138963 c -0.17363263,0 -0.31557063,0.14194 -0.31557063,0.31557 v 0.76481 c 0,0.17501 0.141938,0.31695 0.31557063,0.31695 H 2.7911077 c 0.1736326,0 0.3155707,-0.14194 0.3155707,-0.31695 v -0.76481 c 0,-0.17363 -0.1419381,-0.31557 -0.3155707,-0.31557"
       style="fill:#ffffff;fill-opacity:1;fill-rule:nonzero;stroke:none;stroke-width:0.35277775" />
  </g>
</svg>
