<?xml version="1.0" encoding="UTF-8" standalone="no"?>
<!-- Created with Inkscape (http://www.inkscape.org/) -->

<svg
   xmlns:dc="http://purl.org/dc/elements/1.1/"
   xmlns:cc="http://creativecommons.org/ns#"
   xmlns:rdf="http://www.w3.org/1999/02/22-rdf-syntax-ns#"
   xmlns:svg="http://www.w3.org/2000/svg"
   xmlns="http://www.w3.org/2000/svg"
   xmlns:sodipodi="http://sodipodi.sourceforge.net/DTD/sodipodi-0.dtd"
   xmlns:inkscape="http://www.inkscape.org/namespaces/inkscape"
   width="3.75mm"
   height="3.75mm"
   viewBox="0 0 3.75 3.75"
   version="1.1"
   id="svg13826"
   inkscape:version="0.92.1 r15371"
   sodipodi:docname="firewood_light.svg">
  <defs
     id="defs13820" />
  <sodipodi:namedview
     id="base"
     pagecolor="#ffffff"
     bordercolor="#666666"
     borderopacity="1.0"
     inkscape:pageopacity="0.0"
     inkscape:pageshadow="2"
     inkscape:zoom="20.285322"
     inkscape:cx="7.426559"
     inkscape:cy="7.2943869"
     inkscape:document-units="mm"
     inkscape:current-layer="layer1"
     showgrid="false"
     inkscape:window-width="561"
     inkscape:window-height="558"
     inkscape:window-x="794"
     inkscape:window-y="78"
     inkscape:window-maximized="0"
     showguides="true"
     inkscape:guide-bbox="true"
     gridtolerance="10"
     guidetolerance="2"
     inkscape:lockguides="true">
    <inkscape:grid
       type="xygrid"
       id="grid13828" />
    <sodipodi:guide
       position="0.13043093,3.8477124"
       orientation="1,0"
       id="guide20533"
       inkscape:locked="true" />
    <sodipodi:guide
       position="1.9173346,3.6129367"
       orientation="0,1"
       id="guide20535"
       inkscape:locked="true" />
  </sodipodi:namedview>
  <metadata
     id="metadata13823">
    <rdf:RDF>
      <cc:Work
         rdf:about="">
        <dc:format>image/svg+xml</dc:format>
        <dc:type
           rdf:resource="http://purl.org/dc/dcmitype/StillImage" />
        <dc:title></dc:title>
      </cc:Work>
    </rdf:RDF>
  </metadata>
  <g
     inkscape:label="Layer 1"
     inkscape:groupmode="layer"
     id="layer1"
     transform="translate(0,-293.25)">
    <path
       inkscape:connector-curvature="0"
       id="path10669"
       d="m 3.1977522,296.87035 c 0.2301322,0 0.4175453,-0.18604 0.4175453,-0.41617 v -2.6541 c 0,-0.23014 -0.1874131,-0.41617 -0.4175453,-0.41617 H 0.54502893 c -0.23013246,0 -0.4161677,0.18603 -0.4161677,0.41617 v 2.6541 c 0,0.23013 0.18603524,0.41617 0.4161677,0.41617 z m 0,0"
       style="fill:#211e1e;fill-opacity:1;fill-rule:nonzero;stroke:none;stroke-width:0.35277775" />
    <path
       inkscape:connector-curvature="0"
       id="path10671"
       d="m 0.54227269,293.45419 c -0.19016946,0 -0.34588768,0.15572 -0.34588768,0.34589 v 2.6541 c 0,0.19155 0.15571822,0.34726 0.34588768,0.34726 H 3.1977522 c 0.1915475,0 0.3472656,-0.15571 0.3472656,-0.34726 v -2.6541 c 0,-0.19017 -0.1557181,-0.34589 -0.3472656,-0.34589 z m 0,0"
       style="fill:#ffffff;fill-opacity:1;fill-rule:nonzero;stroke:none;stroke-width:0.35277775" />
    <path
       inkscape:connector-curvature="0"
       id="path10673"
       d="m 0.83579472,296.17581 c 0,0 0.16536458,0.38586 0.54019088,0.38586 l 0.099219,-0.50712 z m 0,0"
       style="fill:#211e1e;fill-opacity:1;fill-rule:nonzero;stroke:none;stroke-width:0.35277775" />
    <path
       inkscape:connector-curvature="0"
       id="path10675"
       d="m 2.2744665,295.411 c 0,0 0,0.42031 0.3445097,0.56776 l 0.2907659,-0.4272 z m 0,0"
       style="fill:#211e1e;fill-opacity:1;fill-rule:nonzero;stroke:none;stroke-width:0.35277775" />
    <path
       inkscape:connector-curvature="0"
       id="path10677"
       d="m 1.7067148,295.97876 0.033073,0.55121 c 0,0 0.5057401,0.11024 0.6283854,-0.44097 z m 0,0"
       style="fill:#211e1e;fill-opacity:1;fill-rule:nonzero;stroke:none;stroke-width:0.35277775" />
    <path
       inkscape:connector-curvature="0"
       id="path10679"
       d="M 2.1876504,295.84233 1.742544,295.37517 c 0,0 -0.3059247,0.18191 -0.2618275,0.43547 z m 0,0"
       style="fill:#211e1e;fill-opacity:1;fill-rule:nonzero;stroke:none;stroke-width:0.35277775" />
    <path
       inkscape:connector-curvature="0"
       id="path10681"
       d="m 1.9134207,295.21808 0.7027993,0.0317 c 0,0 0.037207,-0.34175 -0.1694988,-0.4961 z m 0,0"
       style="fill:#211e1e;fill-opacity:1;fill-rule:nonzero;stroke:none;stroke-width:0.35277775" />
    <path
       inkscape:connector-curvature="0"
       id="path10683"
       d="m 3.0861308,296.55478 c 0,0 0.1570966,-0.45062 -0.2094616,-0.58429 l -0.4464841,0.47129 z m 0,0"
       style="fill:#211e1e;fill-opacity:1;fill-rule:nonzero;stroke:none;stroke-width:0.35277775" />
    <path
       inkscape:connector-curvature="0"
       id="path10685"
       d="m 1.4779606,293.84555 0.2122178,-0.23564 0.7152019,0.66145 c 0,0 -0.2218641,0.3018 -0.5277888,0.31971 l -0.049609,-0.37758 c 0,0 0,-0.0482 -0.066146,-0.11024 -0.066146,-0.062 -0.2838757,-0.2577 -0.2838757,-0.2577"
       style="fill:#211e1e;fill-opacity:1;fill-rule:nonzero;stroke:none;stroke-width:0.35277775" />
    <path
       inkscape:connector-curvature="0"
       id="path10687"
       d="m 1.6888004,294.18042 -0.1584745,-0.14332 -0.06339,-0.0551 c 0,0 -0.073036,0.0799 -0.099219,0.10749 -0.026183,0.0262 -0.050987,0.0496 -0.057878,0.0882 -0.00551,0.0331 -0.01378,0.10335 -0.050987,0.15847 -0.2080839,0.23152 -0.38998487,0.43409 -0.49471576,0.54571 -0.10610887,0.0937 -0.25080277,0.32659 -0.28387569,0.38585 -0.0385851,0.0717 0.009645,0.0841 0.009645,0.0841 0,0 0.12264532,0.0565 0.16260833,0.0744 0.0385851,0.0165 0.0909507,10e-4 0.10335295,-0.0827 0.0110244,-0.0675 0.0523653,-0.16399 0.0675238,-0.19844 0.0289384,-0.0386 0.0606337,-0.0786 0.0978408,-0.11713 0.18052277,-0.19431 0.76067717,-0.84061 0.76756727,-0.84749"
       style="fill:#211e1e;fill-opacity:1;fill-rule:nonzero;stroke:none;stroke-width:0.35277775" />
  </g>
</svg>
