<?xml version="1.0" encoding="UTF-8" standalone="no"?>
<!-- Created with Inkscape (http://www.inkscape.org/) -->

<svg
   xmlns:dc="http://purl.org/dc/elements/1.1/"
   xmlns:cc="http://creativecommons.org/ns#"
   xmlns:rdf="http://www.w3.org/1999/02/22-rdf-syntax-ns#"
   xmlns:svg="http://www.w3.org/2000/svg"
   xmlns="http://www.w3.org/2000/svg"
   xmlns:sodipodi="http://sodipodi.sourceforge.net/DTD/sodipodi-0.dtd"
   xmlns:inkscape="http://www.inkscape.org/namespaces/inkscape"
   width="3.75mm"
   height="3.75mm"
   viewBox="0 0 3.75 3.75"
   version="1.1"
   id="svg13826"
   inkscape:version="0.92.1 r15371"
   sodipodi:docname="firewood_cutting_light.svg">
  <defs
     id="defs13820" />
  <sodipodi:namedview
     id="base"
     pagecolor="#ffffff"
     bordercolor="#666666"
     borderopacity="1.0"
     inkscape:pageopacity="0.0"
     inkscape:pageshadow="2"
     inkscape:zoom="40.570644"
     inkscape:cx="3.2168906"
     inkscape:cy="9.7606632"
     inkscape:document-units="mm"
     inkscape:current-layer="layer1"
     showgrid="false"
     inkscape:window-width="561"
     inkscape:window-height="558"
     inkscape:window-x="794"
     inkscape:window-y="78"
     inkscape:window-maximized="0"
     showguides="true"
     inkscape:guide-bbox="true"
     gridtolerance="10"
     guidetolerance="2"
     inkscape:lockguides="true">
    <inkscape:grid
       type="xygrid"
       id="grid13828" />
    <sodipodi:guide
       position="0.13043093,3.8477124"
       orientation="1,0"
       id="guide20533"
       inkscape:locked="true" />
    <sodipodi:guide
       position="1.9173346,3.6129367"
       orientation="0,1"
       id="guide20535"
       inkscape:locked="true" />
  </sodipodi:namedview>
  <metadata
     id="metadata13823">
    <rdf:RDF>
      <cc:Work
         rdf:about="">
        <dc:format>image/svg+xml</dc:format>
        <dc:type
           rdf:resource="http://purl.org/dc/dcmitype/StillImage" />
        <dc:title />
      </cc:Work>
    </rdf:RDF>
  </metadata>
  <g
     inkscape:label="Layer 1"
     inkscape:groupmode="layer"
     id="layer1"
     transform="translate(0,-293.25)">
    <path
       inkscape:connector-curvature="0"
       id="path4735"
       d="m 3.2073232,296.88218 c 0.2315105,0 0.4175454,-0.18603 0.4175454,-0.41754 v -2.65961 c 0,-0.23014 -0.1860349,-0.41755 -0.4175454,-0.41755 H 0.54908735 c -0.23151042,0 -0.41754531,0.18741 -0.41754531,0.41755 v 2.65961 c 0,0.23151 0.18603489,0.41754 0.41754531,0.41754 z m 0,0"
       style="fill:#211e1e;fill-opacity:1;fill-rule:nonzero;stroke:none;stroke-width:0.35277775" />
    <path
       inkscape:connector-curvature="0"
       id="path4737"
       d="m 0.54908735,293.45914 c -0.19154705,0 -0.34726527,0.15572 -0.34726527,0.34589 v 2.65961 c 0,0.19155 0.15571822,0.34726 0.34726527,0.34726 H 3.2073232 c 0.1915473,0 0.3472657,-0.15571 0.3472657,-0.34726 v -2.65961 c 0,-0.19017 -0.1557184,-0.34589 -0.3472657,-0.34589 z m 0,0"
       style="fill:#ffffff;fill-opacity:1;fill-rule:nonzero;stroke:none;stroke-width:0.35277775" />
    <path
       inkscape:connector-curvature="0"
       id="path4739"
       d="m 2.3184886,294.44306 -0.4382163,-0.40377 0.2742297,-0.29765 0.9356881,0.86403 c -0.1984375,0.22186 -0.3872291,0.36931 -0.6862633,0.39963 z m 0,0"
       style="fill:#211e1e;fill-opacity:1;fill-rule:nonzero;stroke:none;stroke-width:0.35277775" />
    <path
       inkscape:connector-curvature="0"
       id="path4741"
       d="m 2.4356218,295.85003 c 0.00275,0.0469 0.015159,0.0951 0.035829,0.14057 0.090951,0.19981 0.326595,0.28801 0.5264108,0.19568 0.1998154,-0.091 0.2880098,-0.3266 0.1970592,-0.52641 -0.057878,-0.12541 -0.1708763,-0.20671 -0.2976562,-0.22738 l -0.064768,0.39274 z m 0,0"
       style="fill:#211e1e;fill-opacity:1;fill-rule:nonzero;stroke:none;stroke-width:0.35277775" />
    <path
       inkscape:connector-curvature="0"
       id="path4743"
       d="m 2.7443024,295.76046 -0.2590712,-0.35277 c -0.095085,0.0703 -0.1612308,0.17776 -0.1763889,0.30316 z m 0,0"
       style="fill:#211e1e;fill-opacity:1;fill-rule:nonzero;stroke:none;stroke-width:0.35277775" />
    <path
       inkscape:connector-curvature="0"
       id="path4745"
       d="m 1.615689,294.68008 0.064768,-0.25494 0.1956812,-0.21221 0.2962783,0.27285 -1.26366084,1.36425 c -0.1005967,0.10887 -0.17776683,0.23978 -0.21910816,0.38586 l -0.25907126,-0.0813 c 0.0523653,-0.17914 0.1446939,-0.34037 0.26733958,-0.47542 z m 0,0"
       style="fill:#211e1e;fill-opacity:1;fill-rule:nonzero;stroke:none;stroke-width:0.35277775" />
    <path
       inkscape:connector-curvature="0"
       id="path4747"
       d="m 2.0635513,295.8583 c 0.101975,0.0799 0.1681209,0.20533 0.1681209,0.34451 H 1.7948338 Z m 0,0"
       style="fill:#211e1e;fill-opacity:1;fill-rule:nonzero;stroke:none;stroke-width:0.35277775" />
  </g>
</svg>
