<?xml version="1.0" encoding="UTF-8" standalone="no"?>
<!-- Created with Inkscape (http://www.inkscape.org/) -->

<svg
   xmlns:dc="http://purl.org/dc/elements/1.1/"
   xmlns:cc="http://creativecommons.org/ns#"
   xmlns:rdf="http://www.w3.org/1999/02/22-rdf-syntax-ns#"
   xmlns:svg="http://www.w3.org/2000/svg"
   xmlns="http://www.w3.org/2000/svg"
   xmlns:sodipodi="http://sodipodi.sourceforge.net/DTD/sodipodi-0.dtd"
   xmlns:inkscape="http://www.inkscape.org/namespaces/inkscape"
   width="3.75mm"
   height="3.75mm"
   viewBox="0 0 3.75 3.75"
   version="1.1"
   id="svg13826"
   inkscape:version="0.92.1 r15371"
   sodipodi:docname="grill_light.svg">
  <defs
     id="defs13820" />
  <sodipodi:namedview
     id="base"
     pagecolor="#ffffff"
     bordercolor="#666666"
     borderopacity="1.0"
     inkscape:pageopacity="0.0"
     inkscape:pageshadow="2"
     inkscape:zoom="57.375555"
     inkscape:cx="2.7593768"
     inkscape:cy="10.931408"
     inkscape:document-units="mm"
     inkscape:current-layer="layer1"
     showgrid="false"
     inkscape:window-width="561"
     inkscape:window-height="558"
     inkscape:window-x="794"
     inkscape:window-y="78"
     inkscape:window-maximized="0"
     showguides="true"
     inkscape:guide-bbox="true"
     gridtolerance="10"
     guidetolerance="2"
     inkscape:lockguides="true">
    <inkscape:grid
       type="xygrid"
       id="grid13828" />
    <sodipodi:guide
       position="0.13043093,3.8477124"
       orientation="1,0"
       id="guide20533"
       inkscape:locked="true" />
    <sodipodi:guide
       position="1.9173346,3.6129367"
       orientation="0,1"
       id="guide20535"
       inkscape:locked="true" />
  </sodipodi:namedview>
  <metadata
     id="metadata13823">
    <rdf:RDF>
      <cc:Work
         rdf:about="">
        <dc:format>image/svg+xml</dc:format>
        <dc:type
           rdf:resource="http://purl.org/dc/dcmitype/StillImage" />
        <dc:title></dc:title>
      </cc:Work>
    </rdf:RDF>
  </metadata>
  <g
     inkscape:label="Layer 1"
     inkscape:groupmode="layer"
     id="layer1"
     transform="translate(0,-293.25)">
    <path
       inkscape:connector-curvature="0"
       id="path10545"
       d="m 3.2039452,296.8807 c 0.2301325,0 0.4161674,-0.18604 0.4161674,-0.41617 v -2.65411 c 0,-0.23013 -0.1860349,-0.41616 -0.4161674,-0.41616 H 0.54984399 c -0.23013246,0 -0.4161677,0.18603 -0.4161677,0.41616 v 2.65411 c 0,0.23013 0.18603524,0.41617 0.4161677,0.41617 z m 0,0"
       style="fill:#211e1e;fill-opacity:1;fill-rule:nonzero;stroke:none;stroke-width:0.35277775" />
    <path
       inkscape:connector-curvature="0"
       id="path10547"
       d="m 0.5484657,293.46454 c -0.19154741,0 -0.34588768,0.15572 -0.34588768,0.34588 v 2.65411 c 0,0.19155 0.15434027,0.34726 0.34588768,0.34726 h 2.6554795 c 0.1901696,0 0.3458877,-0.15571 0.3458877,-0.34726 v -2.65411 c 0,-0.19016 -0.1557181,-0.34588 -0.3458877,-0.34588 z m 0,0"
       style="fill:#ffffff;fill-opacity:1;fill-rule:nonzero;stroke:none;stroke-width:0.35277775" />
    <path
       inkscape:connector-curvature="0"
       id="path10549"
       d="m 1.536519,295.88988 c 0.1061092,0.0427 0.2191081,0.0662 0.3403755,0.0662 0.1198894,0 0.2342667,-0.0234 0.3403755,-0.0662 l 0.1446939,0.57603 h 0.3114368 l -0.1874132,-0.74139 c 0.1956813,-0.17088 0.3210827,-0.41892 0.3210827,-0.69729 H 0.94671899 c 0,0.27837 0.12540121,0.52641 0.32108281,0.69729 l -0.1874132,0.74139 h 0.3114365 z m 0,0"
       style="fill:#211e1e;fill-opacity:1;fill-rule:nonzero;stroke:none;stroke-width:0.35277775" />
    <path
       inkscape:connector-curvature="0"
       id="path10551"
       d="m 1.2333509,294.82329 c 0,-10e-4 -0.067524,-0.12816 -0.037207,-0.24116 0.01378,-0.0565 0.031694,-0.0909 0.046853,-0.12265 0.022049,-0.0441 0.042719,-0.0854 0.042719,-0.15847 0,-0.051 -0.012404,-0.1006 -0.024804,-0.15434 -0.016535,-0.0634 -0.034452,-0.13505 -0.034452,-0.22738 H 1.1038152 c 0,0.10749 0.020669,0.19017 0.037207,0.2577 0.011024,0.0469 0.020669,0.0882 0.020669,0.12402 0,0.0441 -0.00964,0.0648 -0.028938,0.10473 -0.017914,0.0345 -0.038585,0.0772 -0.0565,0.14469 -0.027562,0.10749 0.00138,0.21084 0.024804,0.27286 z m 0,0"
       style="fill:#211e1e;fill-opacity:1;fill-rule:nonzero;stroke:none;stroke-width:0.35277775" />
    <path
       inkscape:connector-curvature="0"
       id="path10553"
       d="m 1.7018835,294.82329 c -0.00138,-10e-4 -0.067524,-0.12816 -0.038585,-0.24116 0.015159,-0.0565 0.031694,-0.0909 0.046853,-0.12265 0.023428,-0.0441 0.042719,-0.0854 0.042719,-0.15847 0,-0.051 -0.012404,-0.1006 -0.024804,-0.15434 -0.015159,-0.0634 -0.033073,-0.13505 -0.033073,-0.22738 H 1.5709713 c 0,0.10749 0.020669,0.19017 0.037207,0.2577 0.012404,0.0469 0.022048,0.0882 0.022048,0.12402 0,0.0441 -0.011024,0.0648 -0.030318,0.10473 -0.016535,0.0345 -0.037207,0.0772 -0.055122,0.14469 -0.028938,0.10749 0,0.21084 0.023428,0.27286 z m 0,0"
       style="fill:#211e1e;fill-opacity:1;fill-rule:nonzero;stroke:none;stroke-width:0.35277775" />
    <path
       inkscape:connector-curvature="0"
       id="path10555"
       d="m 2.1690386,294.82329 c 0,-10e-4 -0.067524,-0.12816 -0.037207,-0.24116 0.013779,-0.0565 0.031694,-0.0909 0.046853,-0.12265 0.022049,-0.0441 0.042719,-0.0854 0.042719,-0.15847 0,-0.051 -0.012404,-0.1006 -0.024804,-0.15434 -0.016535,-0.0634 -0.034452,-0.13505 -0.034452,-0.22738 H 2.0395028 c 0,0.10749 0.020669,0.19017 0.037207,0.2577 0.011024,0.0469 0.020669,0.0882 0.020669,0.12402 0,0.0441 -0.00964,0.0648 -0.028938,0.10473 -0.017914,0.0345 -0.038585,0.0772 -0.0565,0.14469 -0.027562,0.10749 0,0.21084 0.024804,0.27286 z m 0,0"
       style="fill:#211e1e;fill-opacity:1;fill-rule:nonzero;stroke:none;stroke-width:0.35277775" />
    <path
       inkscape:connector-curvature="0"
       id="path10557"
       d="m 2.6375715,294.82329 c -0.00138,-10e-4 -0.067524,-0.12816 -0.038585,-0.24116 0.015159,-0.0565 0.031694,-0.0909 0.046854,-0.12265 0.022048,-0.0441 0.042719,-0.0854 0.042719,-0.15847 0,-0.051 -0.012404,-0.1006 -0.024804,-0.15434 -0.015159,-0.0634 -0.033073,-0.13505 -0.033073,-0.22738 H 2.5066589 c 0,0.10749 0.020669,0.19017 0.037207,0.2577 0.012404,0.0469 0.022048,0.0882 0.022048,0.12402 0,0.0441 -0.011024,0.0648 -0.030318,0.10473 -0.016535,0.0345 -0.037207,0.0772 -0.0565,0.14469 -0.027563,0.10749 0.00138,0.21084 0.024804,0.27286 z m 0,0"
       style="fill:#211e1e;fill-opacity:1;fill-rule:nonzero;stroke:none;stroke-width:0.35277775" />
  </g>
</svg>
