<?xml version="1.0" encoding="UTF-8" standalone="no"?>
<!-- Created with Inkscape (http://www.inkscape.org/) -->

<svg
   xmlns:dc="http://purl.org/dc/elements/1.1/"
   xmlns:cc="http://creativecommons.org/ns#"
   xmlns:rdf="http://www.w3.org/1999/02/22-rdf-syntax-ns#"
   xmlns:svg="http://www.w3.org/2000/svg"
   xmlns="http://www.w3.org/2000/svg"
   xmlns:sodipodi="http://sodipodi.sourceforge.net/DTD/sodipodi-0.dtd"
   xmlns:inkscape="http://www.inkscape.org/namespaces/inkscape"
   width="3.75mm"
   height="3.75mm"
   viewBox="0 0 3.75 3.75"
   version="1.1"
   id="svg13826"
   inkscape:version="0.92.1 r15371"
   sodipodi:docname="picnic_shelter_light.svg">
  <defs
     id="defs13820" />
  <sodipodi:namedview
     id="base"
     pagecolor="#ffffff"
     bordercolor="#666666"
     borderopacity="1.0"
     inkscape:pageopacity="0.0"
     inkscape:pageshadow="2"
     inkscape:zoom="57.375555"
     inkscape:cx="2.4547366"
     inkscape:cy="12.074415"
     inkscape:document-units="mm"
     inkscape:current-layer="layer1"
     showgrid="false"
     inkscape:window-width="561"
     inkscape:window-height="558"
     inkscape:window-x="794"
     inkscape:window-y="78"
     inkscape:window-maximized="0"
     showguides="true"
     inkscape:guide-bbox="true"
     gridtolerance="10"
     guidetolerance="2"
     inkscape:lockguides="true">
    <inkscape:grid
       type="xygrid"
       id="grid13828" />
    <sodipodi:guide
       position="0.13043093,3.8477124"
       orientation="1,0"
       id="guide20533"
       inkscape:locked="true" />
    <sodipodi:guide
       position="1.9173346,3.6129367"
       orientation="0,1"
       id="guide20535"
       inkscape:locked="true" />
  </sodipodi:namedview>
  <metadata
     id="metadata13823">
    <rdf:RDF>
      <cc:Work
         rdf:about="">
        <dc:format>image/svg+xml</dc:format>
        <dc:type
           rdf:resource="http://purl.org/dc/dcmitype/StillImage" />
        <dc:title></dc:title>
      </cc:Work>
    </rdf:RDF>
  </metadata>
  <g
     inkscape:label="Layer 1"
     inkscape:groupmode="layer"
     id="layer1"
     transform="translate(0,-293.25)">
    <path
       inkscape:connector-curvature="0"
       id="path4441"
       d="m 3.1893795,296.87098 c 0.230132,0 0.4175454,-0.18604 0.4175454,-0.41617 v -2.65273 c 0,-0.23013 -0.1874134,-0.41754 -0.4175454,-0.41754 H 0.53665581 c -0.23013246,0 -0.41754565,0.18741 -0.41754565,0.41754 v 2.65273 c 0,0.23013 0.18741319,0.41617 0.41754565,0.41617 z m 0,0"
       style="fill:#211e1e;fill-opacity:1;fill-rule:nonzero;stroke:none;stroke-width:0.35277775" />
    <path
       inkscape:connector-curvature="0"
       id="path4443"
       d="m 0.53665581,293.45482 c -0.19154704,0 -0.34588731,0.15572 -0.34588731,0.34589 v 2.6541 c 0,0.19017 0.15434027,0.34589 0.34588731,0.34589 H 3.1893795 c 0.191547,0 0.3472651,-0.15572 0.3472651,-0.34589 v -2.6541 c 0,-0.19017 -0.1557181,-0.34589 -0.3472651,-0.34589 z m 0,0"
       style="fill:#ffffff;fill-opacity:1;fill-rule:nonzero;stroke:none;stroke-width:0.35277775" />
    <path
       inkscape:connector-curvature="0"
       id="path4445"
       d="M 0.72820319,296.38729 H 3.2045375 v -0.25632 H 0.98589643 v -1.079 l 2.21864107,-1.00322 v -0.26734 l -2.75194193,1.243 v 0.26733 l 0.27560762,-0.12402 z m 0,0"
       style="fill:#211e1e;fill-opacity:1;fill-rule:nonzero;stroke:none;stroke-width:0.35277775" />
    <path
       inkscape:connector-curvature="0"
       id="path4447"
       d="m 2.3294837,295.44884 -0.13367,-0.32797 H 2.0676562 l -0.1350475,0.32797 z m 0.2576928,-0.46578 v 0.13781 H 2.3611783 l 0.1350479,0.32797 h 0.3389972 v 0.13781 H 2.5513477 l 0.1570962,0.38447 H 2.5417014 L 2.3846052,295.58665 H 1.8774871 l -0.1570965,0.38447 H 1.5536481 l 0.1570962,-0.38447 H 1.4282465 v -0.13781 h 0.3389976 l 0.1336696,-0.32797 H 1.6735372 v -0.13781 z m 0,0"
       style="fill:#211e1e;fill-opacity:1;fill-rule:nonzero;stroke:none;stroke-width:0.35277775" />
  </g>
</svg>
