<?xml version="1.0" encoding="UTF-8" standalone="no"?>
<!-- Created with Inkscape (http://www.inkscape.org/) -->

<svg
   xmlns:dc="http://purl.org/dc/elements/1.1/"
   xmlns:cc="http://creativecommons.org/ns#"
   xmlns:rdf="http://www.w3.org/1999/02/22-rdf-syntax-ns#"
   xmlns:svg="http://www.w3.org/2000/svg"
   xmlns="http://www.w3.org/2000/svg"
   xmlns:sodipodi="http://sodipodi.sourceforge.net/DTD/sodipodi-0.dtd"
   xmlns:inkscape="http://www.inkscape.org/namespaces/inkscape"
   width="3.75mm"
   height="3.75mm"
   viewBox="0 0 3.75 3.75"
   version="1.1"
   id="svg13826"
   inkscape:version="0.92.1 r15371"
   sodipodi:docname="rv_dark.svg">
  <defs
     id="defs13820" />
  <sodipodi:namedview
     id="base"
     pagecolor="#ffffff"
     bordercolor="#666666"
     borderopacity="1.0"
     inkscape:pageopacity="0.0"
     inkscape:pageshadow="2"
     inkscape:zoom="10.142661"
     inkscape:cx="8.1433166"
     inkscape:cy="5.0170641"
     inkscape:document-units="mm"
     inkscape:current-layer="layer1"
     showgrid="false"
     inkscape:window-width="561"
     inkscape:window-height="558"
     inkscape:window-x="794"
     inkscape:window-y="78"
     inkscape:window-maximized="0"
     showguides="true"
     inkscape:guide-bbox="true"
     gridtolerance="10"
     guidetolerance="2"
     inkscape:lockguides="true">
    <inkscape:grid
       type="xygrid"
       id="grid13828" />
    <sodipodi:guide
       position="0.13043093,3.8477124"
       orientation="1,0"
       id="guide20533"
       inkscape:locked="true" />
    <sodipodi:guide
       position="1.9173346,3.6129367"
       orientation="0,1"
       id="guide20535"
       inkscape:locked="true" />
  </sodipodi:namedview>
  <metadata
     id="metadata13823">
    <rdf:RDF>
      <cc:Work
         rdf:about="">
        <dc:format>image/svg+xml</dc:format>
        <dc:type
           rdf:resource="http://purl.org/dc/dcmitype/StillImage" />
        <dc:title></dc:title>
      </cc:Work>
    </rdf:RDF>
  </metadata>
  <g
     inkscape:label="Layer 1"
     inkscape:groupmode="layer"
     id="layer1"
     transform="translate(0,-293.25)">
    <path
       inkscape:connector-curvature="0"
       id="path12473"
       d="m 0.54518973,293.46404 c -0.19016944,0 -0.34588766,0.15572 -0.34588766,0.34589 v 2.6541 c 0,0.19017 0.15571822,0.34589 0.34588766,0.34589 H 3.1992909 c 0.1901696,0 0.3458877,-0.15572 0.3458877,-0.34589 v -2.6541 c 0,-0.19017 -0.1557181,-0.34589 -0.3458877,-0.34589 z m 0,0"
       style="fill:#ffffff;fill-opacity:1;fill-rule:nonzero;stroke:none;stroke-width:0.35277775" />
    <path
       inkscape:connector-curvature="0"
       id="path12475"
       d="m 3.1992909,296.8802 c 0.2287545,0 0.4161679,-0.18604 0.4161679,-0.41617 v -2.6541 c 0,-0.23014 -0.1874134,-0.41617 -0.4161679,-0.41617 H 0.54518973 c -0.23013246,0 -0.4161677,0.18603 -0.4161677,0.41617 v 2.6541 c 0,0.23013 0.18603524,0.41617 0.4161677,0.41617 z m 0,0"
       style="fill:#211e1e;fill-opacity:1;fill-rule:nonzero;stroke:none;stroke-width:0.35277775" />
    <path
       inkscape:connector-curvature="0"
       id="path12477"
       d="m 2.435858,294.17097 c 0.022049,0 0.042719,0.01 0.056499,0.0262 l 0.213596,0.30592 c 0.00413,0.007 0.00827,0.0152 0.00827,0.0248 0,0.0234 -0.019293,0.0427 -0.042719,0.0427 l -0.3665584,-10e-4 c -0.1254015,0 -0.2273762,0.10198 -0.2273762,0.22876 v 0.37069 H 0.40600866 v -0.76619 c 0,0 -0.0137795,-0.23289 0.22737657,-0.23289 z m 0.074414,0.30179 c 0.012404,0 0.022049,-0.011 0.022049,-0.0234 0,-0.004 -0.00138,-0.008 -0.00413,-0.0124 l -0.1116211,-0.16123 c -0.00413,-0.004 -0.011024,-0.008 -0.017914,-0.008 H 2.1519816 c -0.020669,0 -0.039963,0.0179 -0.039963,0.04 v 0.1254 c 0,0.022 0.019293,0.04 0.039963,0.04 z m -1.0114798,0.40653 c 0.026183,0 0.048231,-0.022 0.048231,-0.0482 v -0.30868 c 0,-0.0262 -0.022048,-0.0482 -0.048231,-0.0482 H 0.79185829 c -0.0261832,0 -0.049609,0.0221 -0.049609,0.0482 v 0.30868 c 0,0.0262 0.0220485,0.0482 0.0482311,0.0482 z m 0,0"
       style="fill:#ffffff;fill-opacity:1;fill-rule:nonzero;stroke:none;stroke-width:0.35277775" />
    <path
       inkscape:connector-curvature="0"
       id="path12479"
       d="m 3.3536314,295.47873 v -0.16123 c 0,-0.0648 -0.041341,-0.11989 -0.097841,-0.14056 l -0.1405601,-0.0469 -0.2769854,-0.40101 c -0.01378,-0.0165 -0.034453,-0.0262 -0.057878,-0.0262 H 2.3407735 c -0.071658,0 -0.1295358,0.0579 -0.1295358,0.12954 l 0.00138,0.46991 H 0.40600548 v 0.339 c 0,0.0482 0.0413413,0.0882 0.0895728,0.0882 h 0.23840051 c 0.0124037,-0.19706 0.21083977,-0.35415 0.41203341,-0.35415 0.2011934,0 0.3996309,0.15709 0.4134115,0.35415 H 2.444124 c 0.015159,-0.19568 0.2122181,-0.3514 0.4147897,-0.3514 0.1998155,0 0.398253,0.15572 0.4120333,0.3514 h 0.078548 c 0.04961,0 0.089573,-0.04 0.089573,-0.0882 v -0.16261 z m -0.4106553,-0.26045 -0.4712892,-10e-4 c -0.041341,0 -0.075792,-0.0331 -0.075792,-0.0758 v -0.24254 c 0,-0.0413 0.034452,-0.0758 0.075792,-0.0758 h 0.2563152 c 0.01378,0 0.024804,0.007 0.033073,0.0165 l 0.2163518,0.31143 c 0.00414,0.007 0.00827,0.0152 0.00827,0.0248 0,0.0234 -0.019293,0.0427 -0.042719,0.0427"
       style="fill:#ffffff;fill-opacity:1;fill-rule:nonzero;stroke:none;stroke-width:0.35277775" />
    <path
       inkscape:connector-curvature="0"
       id="path12481"
       d="m 2.5833082,295.79568 c 0,-0.15158 0.1226453,-0.27285 0.2728515,-0.27285 0.151584,0 0.2742295,0.12127 0.2742295,0.27285 0,0.1502 -0.1226455,0.27285 -0.2742295,0.27285 -0.1502062,0 -0.2728515,-0.12265 -0.2728515,-0.27285 m 0.2728515,0.11851 c 0.066146,0 0.1185111,-0.0537 0.1185111,-0.11851 0,-0.0661 -0.052365,-0.11851 -0.1185111,-0.11851 -0.064768,0 -0.1171332,0.0524 -0.1171332,0.11851 0,0.0648 0.052365,0.11851 0.1171332,0.11851"
       style="fill:#ffffff;fill-opacity:1;fill-rule:nonzero;stroke:none;stroke-width:0.35277775" />
    <path
       inkscape:connector-curvature="0"
       id="path12483"
       d="m 0.87316263,295.79017 c 0,-0.15021 0.12264567,-0.27285 0.27285167,-0.27285 0.1515841,0 0.2728514,0.12264 0.2728514,0.27285 0,0.15158 -0.1212673,0.27285 -0.2728514,0.27285 -0.150206,0 -0.27285167,-0.12127 -0.27285167,-0.27285 m 0.27285167,0.11851 c 0.066146,0 0.1185112,-0.0524 0.1185112,-0.11851 0,-0.0648 -0.052365,-0.11851 -0.1185112,-0.11851 -0.064768,0 -0.1185114,0.0537 -0.1185114,0.11851 0,0.0661 0.053744,0.11851 0.1185114,0.11851"
       style="fill:#ffffff;fill-opacity:1;fill-rule:nonzero;stroke:none;stroke-width:0.35277775" />
  </g>
</svg>
