<?xml version="1.0" encoding="UTF-8" standalone="no"?>
<!-- Created with Inkscape (http://www.inkscape.org/) -->

<svg
   xmlns:dc="http://purl.org/dc/elements/1.1/"
   xmlns:cc="http://creativecommons.org/ns#"
   xmlns:rdf="http://www.w3.org/1999/02/22-rdf-syntax-ns#"
   xmlns:svg="http://www.w3.org/2000/svg"
   xmlns="http://www.w3.org/2000/svg"
   xmlns:sodipodi="http://sodipodi.sourceforge.net/DTD/sodipodi-0.dtd"
   xmlns:inkscape="http://www.inkscape.org/namespaces/inkscape"
   width="3.75mm"
   height="3.75mm"
   viewBox="0 0 3.75 3.75"
   version="1.1"
   id="svg13826"
   inkscape:version="0.92.1 r15371"
   sodipodi:docname="sewer_dark.svg">
  <defs
     id="defs13820" />
  <sodipodi:namedview
     id="base"
     pagecolor="#ffffff"
     bordercolor="#666666"
     borderopacity="1.0"
     inkscape:pageopacity="0.0"
     inkscape:pageshadow="2"
     inkscape:zoom="14.343889"
     inkscape:cx="6.5269602"
     inkscape:cy="7.6124607"
     inkscape:document-units="mm"
     inkscape:current-layer="layer1"
     showgrid="false"
     inkscape:window-width="561"
     inkscape:window-height="558"
     inkscape:window-x="794"
     inkscape:window-y="78"
     inkscape:window-maximized="0"
     showguides="true"
     inkscape:guide-bbox="true"
     gridtolerance="10"
     guidetolerance="2"
     inkscape:lockguides="true">
    <inkscape:grid
       type="xygrid"
       id="grid13828" />
    <sodipodi:guide
       position="0.13043093,3.8477124"
       orientation="1,0"
       id="guide20533"
       inkscape:locked="true" />
    <sodipodi:guide
       position="1.9173346,3.6129367"
       orientation="0,1"
       id="guide20535"
       inkscape:locked="true" />
  </sodipodi:namedview>
  <metadata
     id="metadata13823">
    <rdf:RDF>
      <cc:Work
         rdf:about="">
        <dc:format>image/svg+xml</dc:format>
        <dc:type
           rdf:resource="http://purl.org/dc/dcmitype/StillImage" />
        <dc:title></dc:title>
      </cc:Work>
    </rdf:RDF>
  </metadata>
  <g
     inkscape:label="Layer 1"
     inkscape:groupmode="layer"
     id="layer1"
     transform="translate(0,-293.25)">
    <path
       inkscape:connector-curvature="0"
       id="path10337"
       d="m 0.53893967,293.45181 c -0.19016944,0 -0.34588766,0.15572 -0.34588766,0.34726 v 2.65411 c 0,0.19017 0.15571822,0.34451 0.34588766,0.34451 H 3.1930408 c 0.1915475,0 0.3458877,-0.15434 0.3458877,-0.34451 v -2.65411 c 0,-0.19154 -0.1543402,-0.34726 -0.3458877,-0.34726 z m 0,0"
       style="fill:#ffffff;fill-opacity:1;fill-rule:nonzero;stroke:none;stroke-width:0.35277775" />
    <path
       inkscape:connector-curvature="0"
       id="path10339"
       d="m 3.1930408,296.86935 c 0.2301325,0 0.4161679,-0.18742 0.4161679,-0.41755 v -2.65273 c 0,-0.23013 -0.1860354,-0.41754 -0.4161679,-0.41754 H 0.53893967 c -0.22875451,0 -0.4161677,0.18741 -0.4161677,0.41754 v 2.65273 c 0,0.23013 0.18741319,0.41755 0.4161677,0.41755 z m 0,0"
       style="fill:#211e1e;fill-opacity:1;fill-rule:nonzero;stroke:none;stroke-width:0.35277775" />
    <path
       inkscape:connector-curvature="0"
       id="path10341"
       d="m 1.6303458,294.37509 c 0.1956813,0 0.3555337,-0.0551 0.3555337,-0.12402 0,-0.0689 -0.1598524,-0.12402 -0.3555337,-0.12402 -0.1956816,0 -0.355534,0.0551 -0.355534,0.12402 0,0.0689 0.1598524,0.12402 0.355534,0.12402 m -0.88745648,-0.0758 c 0,-0.17087 0.39687488,-0.31006 0.88745648,-0.31006 0.4905816,0 0.8874566,0.13919 0.8874566,0.31006 0,0.17088 -0.396875,0.30868 -0.8874566,0.30868 -0.4905816,0 -0.88745648,-0.1378 -0.88745648,-0.30868"
       style="fill:#ffffff;fill-opacity:1;fill-rule:nonzero;stroke:none;stroke-width:0.35277775" />
    <path
       inkscape:connector-curvature="0"
       id="path10343"
       d="m 2.5178024,294.52806 h -0.00275 c -0.085438,0.15296 -0.4106552,0.23564 -0.8847003,0.23564 -0.4740451,0 -0.7937499,-0.062 -0.88470061,-0.23564 h -0.002752 v 1.4304 h 0.001376 c 0.009645,0.16812 0.40238701,0.30317 0.88607851,0.30317 0.4836915,0 0.8764323,-0.13505 0.8860783,-0.30317 h 0.00138 z m 0,0"
       style="fill:#ffffff;fill-opacity:1;fill-rule:nonzero;stroke:none;stroke-width:0.35277775" />
    <path
       inkscape:connector-curvature="0"
       id="path10345"
       d="m 2.6624963,295.93779 0.3279729,0.11851 v -1.68396 l -0.3706921,-0.14607 c 0,0 0.042719,0.0524 0.042719,0.0965 0.00413,0.10473 0,1.61506 0,1.61506"
       style="fill:#ffffff;fill-opacity:1;fill-rule:nonzero;stroke:none;stroke-width:0.35277775" />
  </g>
</svg>
