<?xml version="1.0" encoding="UTF-8" standalone="no"?>
<!-- Created with Inkscape (http://www.inkscape.org/) -->

<svg
   xmlns:dc="http://purl.org/dc/elements/1.1/"
   xmlns:cc="http://creativecommons.org/ns#"
   xmlns:rdf="http://www.w3.org/1999/02/22-rdf-syntax-ns#"
   xmlns:svg="http://www.w3.org/2000/svg"
   xmlns="http://www.w3.org/2000/svg"
   xmlns:sodipodi="http://sodipodi.sourceforge.net/DTD/sodipodi-0.dtd"
   xmlns:inkscape="http://www.inkscape.org/namespaces/inkscape"
   width="3.75mm"
   height="3.75mm"
   viewBox="0 0 3.75 3.75"
   version="1.1"
   id="svg13826"
   inkscape:version="0.92.1 r15371"
   sodipodi:docname="sewer_light.svg">
  <defs
     id="defs13820" />
  <sodipodi:namedview
     id="base"
     pagecolor="#ffffff"
     bordercolor="#666666"
     borderopacity="1.0"
     inkscape:pageopacity="0.0"
     inkscape:pageshadow="2"
     inkscape:zoom="57.375555"
     inkscape:cx="2.9122937"
     inkscape:cy="11.383818"
     inkscape:document-units="mm"
     inkscape:current-layer="layer1"
     showgrid="false"
     inkscape:window-width="561"
     inkscape:window-height="558"
     inkscape:window-x="794"
     inkscape:window-y="78"
     inkscape:window-maximized="0"
     showguides="true"
     inkscape:guide-bbox="true"
     gridtolerance="10"
     guidetolerance="2"
     inkscape:lockguides="true">
    <inkscape:grid
       type="xygrid"
       id="grid13828" />
    <sodipodi:guide
       position="0.13043093,3.8477124"
       orientation="1,0"
       id="guide20533"
       inkscape:locked="true" />
    <sodipodi:guide
       position="1.9173346,3.6129367"
       orientation="0,1"
       id="guide20535"
       inkscape:locked="true" />
  </sodipodi:namedview>
  <metadata
     id="metadata13823">
    <rdf:RDF>
      <cc:Work
         rdf:about="">
        <dc:format>image/svg+xml</dc:format>
        <dc:type
           rdf:resource="http://purl.org/dc/dcmitype/StillImage" />
        <dc:title></dc:title>
      </cc:Work>
    </rdf:RDF>
  </metadata>
  <g
     inkscape:label="Layer 1"
     inkscape:groupmode="layer"
     id="layer1"
     transform="translate(0,-293.25)">
    <path
       inkscape:connector-curvature="0"
       id="path10407"
       d="m 3.1991978,296.87636 c 0.2301325,0 0.4161679,-0.18604 0.4161679,-0.41617 v -2.65273 c 0,-0.23013 -0.1860354,-0.41754 -0.4161679,-0.41754 H 0.54509656 c -0.23013246,0 -0.4161677,0.18741 -0.4161677,0.41754 v 2.65273 c 0,0.23013 0.18603524,0.41617 0.4161677,0.41617 z m 0,0"
       style="fill:#211e1e;fill-opacity:1;fill-rule:nonzero;stroke:none;stroke-width:0.35277775" />
    <path
       inkscape:connector-curvature="0"
       id="path10409"
       d="m 0.54371861,293.4602 c -0.19154739,0 -0.34588766,0.15572 -0.34588766,0.34726 v 2.65411 c 0,0.19017 0.15434027,0.34588 0.34588766,0.34588 H 3.1991978 c 0.1901696,0 0.3458877,-0.15571 0.3458877,-0.34588 v -2.65411 c 0,-0.19154 -0.1557181,-0.34726 -0.3458877,-0.34726 z m 0,0"
       style="fill:#ffffff;fill-opacity:1;fill-rule:nonzero;stroke:none;stroke-width:0.35277775" />
    <path
       inkscape:connector-curvature="0"
       id="path10411"
       d="m 1.6365028,294.38348 c 0.1956813,0 0.3541557,-0.0551 0.3541557,-0.12402 0,-0.0689 -0.1584744,-0.12402 -0.3541557,-0.12402 -0.1970595,0 -0.355534,0.0551 -0.355534,0.12402 0,0.0689 0.1584745,0.12402 0.355534,0.12402 m -0.88745659,-0.0758 c 0,-0.17087 0.39687499,-0.31006 0.88745659,-0.31006 0.4892033,0 0.8874566,0.13919 0.8874566,0.31006 0,0.17088 -0.3982533,0.30868 -0.8874566,0.30868 -0.4905816,0 -0.88745659,-0.1378 -0.88745659,-0.30868"
       style="fill:#211e1e;fill-opacity:1;fill-rule:nonzero;stroke:none;stroke-width:0.35277775" />
    <path
       inkscape:connector-curvature="0"
       id="path10413"
       d="m 2.5239594,294.53645 h -0.00275 c -0.085438,0.15296 -0.4106552,0.23564 -0.8860782,0.23564 -0.4726672,0 -0.79375006,-0.062 -0.88470077,-0.23564 h -0.002752 v 1.4304 h 0.001376 c 0.009645,0.16674 0.40238717,0.30317 0.88607867,0.30317 0.4850694,0 0.8778102,-0.13643 0.8874562,-0.30317 h 0.00138 z m 0,0"
       style="fill:#211e1e;fill-opacity:1;fill-rule:nonzero;stroke:none;stroke-width:0.35277775" />
    <path
       inkscape:connector-curvature="0"
       id="path10415"
       d="m 2.6686533,295.94618 0.326595,0.11713 v -1.68258 l -0.3706922,-0.14607 c 0,0 0.044097,0.0524 0.044097,0.0965 0.00413,0.10473 0,1.61506 0,1.61506"
       style="fill:#211e1e;fill-opacity:1;fill-rule:nonzero;stroke:none;stroke-width:0.35277775" />
  </g>
</svg>
