<?xml version="1.0" encoding="UTF-8" standalone="no"?>
<!-- Created with Inkscape (http://www.inkscape.org/) -->

<svg
   xmlns:dc="http://purl.org/dc/elements/1.1/"
   xmlns:cc="http://creativecommons.org/ns#"
   xmlns:rdf="http://www.w3.org/1999/02/22-rdf-syntax-ns#"
   xmlns:svg="http://www.w3.org/2000/svg"
   xmlns="http://www.w3.org/2000/svg"
   xmlns:sodipodi="http://sodipodi.sourceforge.net/DTD/sodipodi-0.dtd"
   xmlns:inkscape="http://www.inkscape.org/namespaces/inkscape"
   width="3.75mm"
   height="3.75mm"
   viewBox="0 0 3.75 3.75"
   version="1.1"
   id="svg13826"
   inkscape:version="0.92.1 r15371"
   sodipodi:docname="sleeping_shelter_dark.svg">
  <defs
     id="defs13820" />
  <sodipodi:namedview
     id="base"
     pagecolor="#ffffff"
     bordercolor="#666666"
     borderopacity="1.0"
     inkscape:pageopacity="0.0"
     inkscape:pageshadow="2"
     inkscape:zoom="14.343889"
     inkscape:cx="5.6979999"
     inkscape:cy="10.619022"
     inkscape:document-units="mm"
     inkscape:current-layer="layer1"
     showgrid="false"
     inkscape:window-width="561"
     inkscape:window-height="558"
     inkscape:window-x="794"
     inkscape:window-y="78"
     inkscape:window-maximized="0"
     showguides="true"
     inkscape:guide-bbox="true"
     gridtolerance="10"
     guidetolerance="2"
     inkscape:lockguides="true">
    <inkscape:grid
       type="xygrid"
       id="grid13828" />
    <sodipodi:guide
       position="0.13043093,3.8477124"
       orientation="1,0"
       id="guide20533"
       inkscape:locked="true" />
    <sodipodi:guide
       position="1.9173346,3.6129367"
       orientation="0,1"
       id="guide20535"
       inkscape:locked="true" />
  </sodipodi:namedview>
  <metadata
     id="metadata13823">
    <rdf:RDF>
      <cc:Work
         rdf:about="">
        <dc:format>image/svg+xml</dc:format>
        <dc:type
           rdf:resource="http://purl.org/dc/dcmitype/StillImage" />
        <dc:title></dc:title>
      </cc:Work>
    </rdf:RDF>
  </metadata>
  <g
     inkscape:label="Layer 1"
     inkscape:groupmode="layer"
     id="layer1"
     transform="translate(0,-293.25)">
    <path
       inkscape:connector-curvature="0"
       id="path2313"
       d="m 0.55184358,293.45933 c -0.19154739,0 -0.34588766,0.15434 -0.34588766,0.34588 v 2.65273 c 0,0.19155 0.15434027,0.34589 0.34588766,0.34589 H 3.2045668 c 0.1915475,0 0.3458877,-0.15434 0.3458877,-0.34589 v -2.65273 c 0,-0.19154 -0.1543402,-0.34588 -0.3458877,-0.34588 z m 0,0"
       style="fill:#ffffff;fill-opacity:1;fill-rule:nonzero;stroke:none;stroke-width:0.35277775" />
    <path
       inkscape:connector-curvature="0"
       id="path2315"
       d="m 3.2045668,296.87549 c 0.2301325,0 0.4175459,-0.18742 0.4175459,-0.41755 v -2.65273 c 0,-0.23013 -0.1874134,-0.41754 -0.4175459,-0.41754 H 0.55184358 c -0.23013246,0 -0.41754565,0.18741 -0.41754565,0.41754 v 2.65273 c 0,0.23013 0.18741319,0.41755 0.41754565,0.41755 z m 0,0"
       style="fill:#211e1e;fill-opacity:1;fill-rule:nonzero;stroke:none;stroke-width:0.35277775" />
    <path
       inkscape:connector-curvature="0"
       id="path2317"
       d="m 1.4503244,295.66832 c 0.1061089,0 0.1915474,-0.0868 0.1915474,-0.19292 0,-0.10611 -0.085438,-0.19155 -0.1915474,-0.19155 -0.1061088,0 -0.1929253,0.0854 -0.1929253,0.19155 0,0.10611 0.086817,0.19292 0.1929253,0.19292"
       style="fill:#ffffff;fill-opacity:1;fill-rule:nonzero;stroke:none;stroke-width:0.35277775" />
    <path
       inkscape:connector-curvature="0"
       id="path2319"
       d="m 3.0695193,295.39409 c 0.08406,0 0.1529619,0.0675 0.1529619,0.15159 l 0.00138,0.40376 H 2.030476 v -0.55535 z m 0,0"
       style="fill:#ffffff;fill-opacity:1;fill-rule:nonzero;stroke:none;stroke-width:0.35277775" />
    <path
       inkscape:connector-curvature="0"
       id="path2321"
       d="M 0.74890313,296.33943 H 3.2252377 v -0.25769 H 1.0052181 v -0.9729 l 2.2200196,-1.00321 v -0.26596 l -2.75332017,1.24161 v 0.26734 l 0.2769856,-0.12403 z m 0,0"
       style="fill:#ffffff;fill-opacity:1;fill-rule:nonzero;stroke:none;stroke-width:0.35277775" />
    <path
       inkscape:connector-curvature="0"
       id="path2323"
       d="M 1.7369564,295.75927 H 1.3910687 c -0.052365,0 -0.093707,0.0427 -0.093707,0.0951 0,0.0524 0.041341,0.0951 0.093707,0.0951 H 1.830663 c 0.052366,0 0.095085,-0.0427 0.095085,-0.0951 v -0.38034 c 0,-0.0524 -0.042719,-0.0951 -0.095085,-0.0951 -0.052366,0 -0.095085,0.0427 -0.095085,0.0951 z m 0,0"
       style="fill:#ffffff;fill-opacity:1;fill-rule:nonzero;stroke:none;stroke-width:0.35277775" />
  </g>
</svg>
