<?xml version="1.0" encoding="UTF-8" standalone="no"?>
<!-- Created with Inkscape (http://www.inkscape.org/) -->

<svg
   xmlns:dc="http://purl.org/dc/elements/1.1/"
   xmlns:cc="http://creativecommons.org/ns#"
   xmlns:rdf="http://www.w3.org/1999/02/22-rdf-syntax-ns#"
   xmlns:svg="http://www.w3.org/2000/svg"
   xmlns="http://www.w3.org/2000/svg"
   xmlns:sodipodi="http://sodipodi.sourceforge.net/DTD/sodipodi-0.dtd"
   xmlns:inkscape="http://www.inkscape.org/namespaces/inkscape"
   width="3.75mm"
   height="3.75mm"
   viewBox="0 0 3.75 3.75"
   version="1.1"
   id="svg13826"
   inkscape:version="0.92.1 r15371"
   sodipodi:docname="sleeping_shelter_light.svg">
  <defs
     id="defs13820" />
  <sodipodi:namedview
     id="base"
     pagecolor="#ffffff"
     bordercolor="#666666"
     borderopacity="1.0"
     inkscape:pageopacity="0.0"
     inkscape:pageshadow="2"
     inkscape:zoom="114.75111"
     inkscape:cx="1.4212684"
     inkscape:cy="12.591912"
     inkscape:document-units="mm"
     inkscape:current-layer="layer1"
     showgrid="false"
     inkscape:window-width="561"
     inkscape:window-height="558"
     inkscape:window-x="794"
     inkscape:window-y="78"
     inkscape:window-maximized="0"
     showguides="true"
     inkscape:guide-bbox="true"
     gridtolerance="10"
     guidetolerance="2"
     inkscape:lockguides="true">
    <inkscape:grid
       type="xygrid"
       id="grid13828" />
    <sodipodi:guide
       position="0.13043093,3.8477124"
       orientation="1,0"
       id="guide20533"
       inkscape:locked="true" />
    <sodipodi:guide
       position="1.9173346,3.6129367"
       orientation="0,1"
       id="guide20535"
       inkscape:locked="true" />
  </sodipodi:namedview>
  <metadata
     id="metadata13823">
    <rdf:RDF>
      <cc:Work
         rdf:about="">
        <dc:format>image/svg+xml</dc:format>
        <dc:type
           rdf:resource="http://purl.org/dc/dcmitype/StillImage" />
        <dc:title></dc:title>
      </cc:Work>
    </rdf:RDF>
  </metadata>
  <g
     inkscape:label="Layer 1"
     inkscape:groupmode="layer"
     id="layer1"
     transform="translate(0,-293.25)">
    <path
       inkscape:connector-curvature="0"
       id="path4471"
       d="m 3.2009076,296.87398 c 0.2301325,0 0.4175459,-0.18742 0.4175459,-0.41755 v -2.65273 c 0,-0.23013 -0.1874134,-0.41754 -0.4175459,-0.41754 H 0.54818439 c -0.23151041,0 -0.41754565,0.18741 -0.41754565,0.41754 v 2.65273 c 0,0.23013 0.18603524,0.41755 0.41754565,0.41755 z m 0,0"
       style="fill:#211e1e;fill-opacity:1;fill-rule:nonzero;stroke:none;stroke-width:0.35277775" />
    <path
       inkscape:connector-curvature="0"
       id="path4473"
       d="m 0.54680644,293.45782 c -0.19016944,0 -0.34450971,0.15434 -0.34450971,0.34588 v 2.65273 c 0,0.19155 0.15434027,0.34589 0.34450971,0.34589 H 3.2009076 c 0.1915475,0 0.3458877,-0.15434 0.3458877,-0.34589 v -2.65273 c 0,-0.19154 -0.1543402,-0.34588 -0.3458877,-0.34588 z m 0,0"
       style="fill:#ffffff;fill-opacity:1;fill-rule:nonzero;stroke:none;stroke-width:0.35277775" />
    <path
       inkscape:connector-curvature="0"
       id="path4475"
       d="m 1.4452873,295.66681 c 0.1074868,0 0.1929253,-0.0868 0.1929253,-0.19292 0,-0.10611 -0.085438,-0.19155 -0.1929253,-0.19155 -0.1061089,0 -0.1915474,0.0854 -0.1915474,0.19155 0,0.10611 0.085438,0.19292 0.1915474,0.19292"
       style="fill:#211e1e;fill-opacity:1;fill-rule:nonzero;stroke:none;stroke-width:0.35277775" />
    <path
       inkscape:connector-curvature="0"
       id="path4477"
       d="m 3.0658601,295.39258 c 0.08406,0 0.1529619,0.0675 0.1529619,0.15159 l 0.00138,0.40376 H 2.0268168 v -0.55535 z m 0,0"
       style="fill:#211e1e;fill-opacity:1;fill-rule:nonzero;stroke:none;stroke-width:0.35277775" />
    <path
       inkscape:connector-curvature="0"
       id="path4479"
       d="M 0.74386599,296.33792 H 3.2202005 v -0.25769 H 1.0015588 v -0.9729 l 2.2186417,-1.00321 v -0.26596 l -2.75194216,1.24161 v 0.26734 l 0.27560765,-0.12403 z m 0,0"
       style="fill:#211e1e;fill-opacity:1;fill-rule:nonzero;stroke:none;stroke-width:0.35277775" />
    <path
       inkscape:connector-curvature="0"
       id="path4481"
       d="M 1.7319192,295.75776 H 1.3874095 c -0.052365,0 -0.093707,0.0427 -0.093707,0.0951 0,0.0524 0.041341,0.0951 0.093707,0.0951 h 0.4395943 c 0.052366,0 0.093707,-0.0427 0.093707,-0.0951 v -0.38034 c 0,-0.0524 -0.041341,-0.0951 -0.093707,-0.0951 -0.052366,0 -0.095085,0.0427 -0.095085,0.0951 z m 0,0"
       style="fill:#211e1e;fill-opacity:1;fill-rule:nonzero;stroke:none;stroke-width:0.35277775" />
  </g>
</svg>
