<?xml version="1.0" encoding="UTF-8" standalone="no"?>
<!-- Created with Inkscape (http://www.inkscape.org/) -->

<svg
   xmlns:dc="http://purl.org/dc/elements/1.1/"
   xmlns:cc="http://creativecommons.org/ns#"
   xmlns:rdf="http://www.w3.org/1999/02/22-rdf-syntax-ns#"
   xmlns:svg="http://www.w3.org/2000/svg"
   xmlns="http://www.w3.org/2000/svg"
   xmlns:sodipodi="http://sodipodi.sourceforge.net/DTD/sodipodi-0.dtd"
   xmlns:inkscape="http://www.inkscape.org/namespaces/inkscape"
   width="3.75mm"
   height="3.75mm"
   viewBox="0 0 3.75 3.75"
   version="1.1"
   id="svg13826"
   inkscape:version="0.92.1 r15371"
   sodipodi:docname="trailer_site_dark.svg">
  <defs
     id="defs13820" />
  <sodipodi:namedview
     id="base"
     pagecolor="#ffffff"
     bordercolor="#666666"
     borderopacity="1.0"
     inkscape:pageopacity="0.0"
     inkscape:pageshadow="2"
     inkscape:zoom="57.375555"
     inkscape:cx="2.494793"
     inkscape:cy="11.190143"
     inkscape:document-units="mm"
     inkscape:current-layer="layer1"
     showgrid="false"
     inkscape:window-width="561"
     inkscape:window-height="558"
     inkscape:window-x="794"
     inkscape:window-y="78"
     inkscape:window-maximized="0"
     showguides="true"
     inkscape:guide-bbox="true"
     gridtolerance="10"
     guidetolerance="2"
     inkscape:lockguides="true">
    <inkscape:grid
       type="xygrid"
       id="grid13828" />
    <sodipodi:guide
       position="0.13043093,3.8477124"
       orientation="1,0"
       id="guide20533"
       inkscape:locked="true" />
    <sodipodi:guide
       position="1.9173346,3.6129367"
       orientation="0,1"
       id="guide20535"
       inkscape:locked="true" />
  </sodipodi:namedview>
  <metadata
     id="metadata13823">
    <rdf:RDF>
      <cc:Work
         rdf:about="">
        <dc:format>image/svg+xml</dc:format>
        <dc:type
           rdf:resource="http://purl.org/dc/dcmitype/StillImage" />
        <dc:title></dc:title>
      </cc:Work>
    </rdf:RDF>
  </metadata>
  <g
     inkscape:label="Layer 1"
     inkscape:groupmode="layer"
     id="layer1"
     transform="translate(0,-293.25)">
    <path
       inkscape:connector-curvature="0"
       id="path2359"
       d="m 0.53665581,293.46473 c -0.19154739,0 -0.34588766,0.15434 -0.34588766,0.34451 v 2.6541 c 0,0.19155 0.15434027,0.34589 0.34588766,0.34589 H 3.1893791 c 0.1915475,0 0.3458877,-0.15434 0.3458877,-0.34589 v -2.6541 c 0,-0.19017 -0.1543402,-0.34451 -0.3458877,-0.34451 z m 0,0"
       style="fill:#ffffff;fill-opacity:1;fill-rule:nonzero;stroke:none;stroke-width:0.35277775" />
    <path
       inkscape:connector-curvature="0"
       id="path2361"
       d="m 3.1893791,296.88089 c 0.2301325,0 0.4175459,-0.18742 0.4175459,-0.41755 v -2.65273 c 0,-0.23013 -0.1874134,-0.41754 -0.4175459,-0.41754 H 0.53665581 c -0.23013246,0 -0.41754565,0.18741 -0.41754565,0.41754 v 2.65273 c 0,0.23013 0.18741319,0.41755 0.41754565,0.41755 z m 0,0"
       style="fill:#211e1e;fill-opacity:1;fill-rule:nonzero;stroke:none;stroke-width:0.35277775" />
    <path
       inkscape:connector-curvature="0"
       id="path2363"
       d="m 1.6790494,294.99159 c 0.055121,0 0.099219,-0.0455 0.099219,-0.0992 v -0.16537 c 0,-0.0551 -0.044097,-0.0992 -0.099219,-0.0992 H 0.93215286 c -0.0537436,0 -0.0992188,0.0441 -0.0992188,0.0992 v 0.16537 c 0,0.0537 0.0454752,0.0992 0.0992188,0.0992 z m 0.9852974,-10e-4 c 0.055121,0 0.099219,-0.0441 0.099219,-0.0992 v -0.16399 c 0,-0.0551 -0.044097,-0.0992 -0.099219,-0.0992 H 2.3198374 c -0.055122,0 -0.099219,0.0441 -0.099219,0.0992 v 0.16398 c 0,0.0551 0.044097,0.0992 0.099219,0.0992 z m -1.2815754,0.78686 H 0.81915355 c -0.19568125,0 -0.35415572,-0.15847 -0.35415572,-0.35415 l -0.001376,-0.61874 c 0,-0.26596 0.21497393,-0.48094 0.48093522,-0.48094 H 2.5789103 c 0.2645833,0 0.4795578,0.21498 0.4795578,0.48094 l 0.00138,0.87367 h 0.2494248 c 0.055121,0 0.097841,0.0455 0.097841,0.0992 H 2.1393143 c -0.012404,-0.19843 -0.1763889,-0.35691 -0.3789606,-0.35691 -0.2011934,0 -0.36518,0.15848 -0.3775823,0.35691"
       style="fill:#ffffff;fill-opacity:1;fill-rule:nonzero;stroke:none;stroke-width:0.35277775" />
    <path
       inkscape:connector-curvature="0"
       id="path2365"
       d="m 1.7603537,295.91901 c 0.066146,0 0.1185115,-0.0524 0.1185115,-0.11713 0,-0.0661 -0.052366,-0.11851 -0.1185115,-0.11851 -0.064768,0 -0.1171331,0.0524 -0.1171331,0.11851 0,0.0648 0.052365,0.11713 0.1171331,0.11713 m -0.2714734,-0.11713 c 0,-0.15158 0.1212674,-0.27423 0.2714734,-0.27423 0.1515844,0 0.2728518,0.12265 0.2728518,0.27423 0,0.1502 -0.1212674,0.27285 -0.2728518,0.27285 -0.150206,0 -0.2714734,-0.12265 -0.2714734,-0.27285"
       style="fill:#ffffff;fill-opacity:1;fill-rule:nonzero;stroke:none;stroke-width:0.35277775" />
  </g>
</svg>
