<?xml version="1.0" encoding="UTF-8" standalone="no"?>
<!-- Created with Inkscape (http://www.inkscape.org/) -->

<svg
   xmlns:dc="http://purl.org/dc/elements/1.1/"
   xmlns:cc="http://creativecommons.org/ns#"
   xmlns:rdf="http://www.w3.org/1999/02/22-rdf-syntax-ns#"
   xmlns:svg="http://www.w3.org/2000/svg"
   xmlns="http://www.w3.org/2000/svg"
   xmlns:sodipodi="http://sodipodi.sourceforge.net/DTD/sodipodi-0.dtd"
   xmlns:inkscape="http://www.inkscape.org/namespaces/inkscape"
   width="3.75mm"
   height="3.75mm"
   viewBox="0 0 3.75 3.75"
   version="1.1"
   id="svg13826"
   inkscape:version="0.92.1 r15371"
   sodipodi:docname="water_hookup_light.svg">
  <defs
     id="defs13820" />
  <sodipodi:namedview
     id="base"
     pagecolor="#ffffff"
     bordercolor="#666666"
     borderopacity="1.0"
     inkscape:pageopacity="0.0"
     inkscape:pageshadow="2"
     inkscape:zoom="81.141288"
     inkscape:cx="2.7780193"
     inkscape:cy="12.176103"
     inkscape:document-units="mm"
     inkscape:current-layer="layer1"
     showgrid="false"
     inkscape:window-width="561"
     inkscape:window-height="558"
     inkscape:window-x="794"
     inkscape:window-y="78"
     inkscape:window-maximized="0"
     showguides="true"
     inkscape:guide-bbox="true"
     gridtolerance="10"
     guidetolerance="2"
     inkscape:lockguides="true">
    <inkscape:grid
       type="xygrid"
       id="grid13828" />
    <sodipodi:guide
       position="0.13043093,3.8477124"
       orientation="1,0"
       id="guide20533"
       inkscape:locked="true" />
    <sodipodi:guide
       position="1.9173346,3.6129367"
       orientation="0,1"
       id="guide20535"
       inkscape:locked="true" />
  </sodipodi:namedview>
  <metadata
     id="metadata13823">
    <rdf:RDF>
      <cc:Work
         rdf:about="">
        <dc:format>image/svg+xml</dc:format>
        <dc:type
           rdf:resource="http://purl.org/dc/dcmitype/StillImage" />
        <dc:title></dc:title>
      </cc:Work>
    </rdf:RDF>
  </metadata>
  <g
     inkscape:label="Layer 1"
     inkscape:groupmode="layer"
     id="layer1"
     transform="translate(0,-293.25)">
    <path
       inkscape:connector-curvature="0"
       id="path10367"
       d="m 3.2019953,296.8748 c 0.2287543,0 0.4161674,-0.18604 0.4161674,-0.41617 v -2.6541 c 0,-0.23014 -0.1874131,-0.41617 -0.4161674,-0.41617 H 0.54789378 c -0.23013247,0 -0.41616736,0.18603 -0.41616736,0.41617 v 2.6541 c 0,0.23013 0.18603489,0.41617 0.41616736,0.41617 z m 0,0"
       style="fill:#211e1e;fill-opacity:1;fill-rule:nonzero;stroke:none;stroke-width:0.35277775" />
    <path
       inkscape:connector-curvature="0"
       id="path10369"
       d="m 0.54651583,293.45864 c -0.19154741,0 -0.34588768,0.15572 -0.34588768,0.34589 v 2.6541 c 0,0.19155 0.15434027,0.34726 0.34588768,0.34726 H 3.2006174 c 0.1915472,0 0.3472653,-0.15571 0.3472653,-0.34726 v -2.6541 c 0,-0.19017 -0.1557181,-0.34589 -0.3472653,-0.34589 z m 0,0"
       style="fill:#ffffff;fill-opacity:1;fill-rule:nonzero;stroke:none;stroke-width:0.35277775" />
    <path
       inkscape:connector-curvature="0"
       id="path10371"
       d="m 0.91583006,294.07876 c 0,0 0.0220485,0.001 0.0330729,0 0.009645,-10e-4 0.35415574,-0.0868 0.43959424,-0.10887 0.016535,0.0606 0.052365,0.11025 0.1061089,0.14056 v 0.17088 h 0.2384005 v -0.17777 c 0.045476,-0.0289 0.078548,-0.073 0.093707,-0.12678 0.1074871,0.0262 0.4092772,0.1006 0.4189236,0.10198 0.011024,0.001 0.033073,0.001 0.033073,0.001 0.096463,0 0.173633,-0.0785 0.173633,-0.17364 0,-0.0965 -0.07717,-0.17363 -0.173633,-0.17363 -0.012404,0 -0.027563,0.001 -0.027563,0.001 l -0.4285696,0.0978 c -0.034452,-0.0868 -0.1157555,-0.14745 -0.213596,-0.14745 -0.099219,0 -0.183279,0.0634 -0.2149739,0.15159 l -0.45061681,-0.10204 c 0,0 -0.0151588,-0.003 -0.0275625,-10e-4 -0.0964625,0 -0.17363262,0.0772 -0.17363262,0.17225 0,0.0965 0.0785481,0.17364 0.17363262,0.17364"
       style="fill:#211e1e;fill-opacity:1;fill-rule:evenodd;stroke:none;stroke-width:0.35277775" />
    <path
       inkscape:connector-curvature="0"
       id="path10373"
       d="m 2.7610232,295.67315 v 0.007 c 0,0 -0.2508031,0.514 -0.2563153,0.53054 -0.00551,0.0262 -0.015159,0.0606 -0.015159,0.0965 0,0.1502 0.1212673,0.27009 0.2714737,0.27009 0.148828,0 0.2700955,-0.11989 0.2700955,-0.27009 -0.00275,-0.0551 -0.023429,-0.10198 -0.023429,-0.10198 z m 0,0"
       style="fill:#211e1e;fill-opacity:1;fill-rule:evenodd;stroke:none;stroke-width:0.35277775" />
    <path
       inkscape:connector-curvature="0"
       id="path10375"
       d="m 3.0228502,295.38514 v -0.28664 c 0,-0.42857 -0.4120334,-0.41203 -0.4120334,-0.41203 H 2.0926744 v -0.15021 L 1.8184451,294.38882 H 1.41468 l -0.2742297,0.14744 v 0.15021 H 0.67467327 v 0.51677 H 2.501952 v 0.1819 H 2.446831 v 0.1943 h 0.627007 v -0.1943 z m 0,0"
       style="fill:#211e1e;fill-opacity:1;fill-rule:evenodd;stroke:none;stroke-width:0.35277775" />
  </g>
</svg>
