<?xml version="1.0" encoding="UTF-8" standalone="no"?>
<!-- Created with Inkscape (http://www.inkscape.org/) -->

<svg
   xmlns:dc="http://purl.org/dc/elements/1.1/"
   xmlns:cc="http://creativecommons.org/ns#"
   xmlns:rdf="http://www.w3.org/1999/02/22-rdf-syntax-ns#"
   xmlns:svg="http://www.w3.org/2000/svg"
   xmlns="http://www.w3.org/2000/svg"
   xmlns:sodipodi="http://sodipodi.sourceforge.net/DTD/sodipodi-0.dtd"
   xmlns:inkscape="http://www.inkscape.org/namespaces/inkscape"
   width="3.75mm"
   height="3.75mm"
   viewBox="0 0 3.75 3.75"
   version="1.1"
   id="svg13826"
   inkscape:version="0.92.1 r15371"
   sodipodi:docname="wood_gathering_dark.svg">
  <defs
     id="defs13820" />
  <sodipodi:namedview
     id="base"
     pagecolor="#ffffff"
     bordercolor="#666666"
     borderopacity="1.0"
     inkscape:pageopacity="0.0"
     inkscape:pageshadow="2"
     inkscape:zoom="114.75111"
     inkscape:cx="1.9110933"
     inkscape:cy="12.297854"
     inkscape:document-units="mm"
     inkscape:current-layer="layer1"
     showgrid="false"
     inkscape:window-width="561"
     inkscape:window-height="558"
     inkscape:window-x="794"
     inkscape:window-y="78"
     inkscape:window-maximized="0"
     showguides="true"
     inkscape:guide-bbox="true"
     gridtolerance="10"
     guidetolerance="2"
     inkscape:lockguides="true">
    <inkscape:grid
       type="xygrid"
       id="grid13828" />
    <sodipodi:guide
       position="0.13043093,3.8477124"
       orientation="1,0"
       id="guide20533"
       inkscape:locked="true" />
    <sodipodi:guide
       position="1.9173346,3.6129367"
       orientation="0,1"
       id="guide20535"
       inkscape:locked="true" />
  </sodipodi:namedview>
  <metadata
     id="metadata13823">
    <rdf:RDF>
      <cc:Work
         rdf:about="">
        <dc:format>image/svg+xml</dc:format>
        <dc:type
           rdf:resource="http://purl.org/dc/dcmitype/StillImage" />
        <dc:title></dc:title>
      </cc:Work>
    </rdf:RDF>
  </metadata>
  <g
     inkscape:label="Layer 1"
     inkscape:groupmode="layer"
     id="layer1"
     transform="translate(0,-293.25)">
    <path
       inkscape:connector-curvature="0"
       id="path4947"
       d="m 0.54325499,293.45947 c -0.19016909,0 -0.34588766,0.15434 -0.34588766,0.34451 v 2.65686 c 0,0.19016 0.15571857,0.34588 0.34588766,0.34588 H 3.1987347 c 0.191547,0 0.3472656,-0.15572 0.3472656,-0.34588 v -2.65686 c 0,-0.19017 -0.1557186,-0.34451 -0.3472656,-0.34451 z m 0,0"
       style="fill:#ffffff;fill-opacity:1;fill-rule:nonzero;stroke:none;stroke-width:0.35277775" />
    <path
       inkscape:connector-curvature="0"
       id="path4949"
       d="m 0.54325499,296.87838 c -0.22875451,0 -0.4161677,-0.18741 -0.4161677,-0.41892 v -2.65548 c 0,-0.22876 0.18741319,-0.41617 0.4161677,-0.41617 H 3.1987347 c 0.2301325,0 0.4175456,0.18741 0.4175456,0.41617 v 2.65548 c 0,0.23151 -0.1874131,0.41892 -0.4175456,0.41892 z m 0,0"
       style="fill:#211e1e;fill-opacity:1;fill-rule:nonzero;stroke:none;stroke-width:0.35277775" />
    <path
       inkscape:connector-curvature="0"
       id="path4951"
       d="m 1.5133939,294.13333 c -0.1309137,0 -0.2356446,-0.10611 -0.2356446,-0.23702 0,-0.12954 0.1047309,-0.23565 0.2356446,-0.23565 0.1295357,0 0.2356446,0.10611 0.2356446,0.23565 0,0.13091 -0.1061089,0.23702 -0.2356446,0.23702"
       style="fill:#ffffff;fill-opacity:1;fill-rule:nonzero;stroke:none;stroke-width:0.35277775" />
    <path
       inkscape:connector-curvature="0"
       id="path4953"
       d="M 2.5841294,294.60324 H 2.2161935 c -0.038585,-0.04 -0.2714738,-0.27285 -0.3307292,-0.33073 -0.00275,-0.004 -0.022049,-0.0221 -0.027563,-0.0248 -0.050987,-0.04 -0.1157548,-0.0661 -0.1860349,-0.0661 H 1.2377862 c -0.1846573,0 -0.30592462,0.15434 -0.30592462,0.31144 v 0.71934 c -0.001376,0.14331 0.18465732,0.14331 0.18465732,0 v -0.70556 h 0.086817 l 0.00138,1.9141 c 0,0.073 0.059256,0.13229 0.1322917,0.13229 0.073036,0 0.1322916,-0.0593 0.1322916,-0.13229 v -1.10932 h 0.088194 v 1.10932 c 0,0.073 0.059256,0.13229 0.1322916,0.13229 0.073036,0 0.1322917,-0.0593 0.1322917,-0.13229 v -1.95544 l 0.2921441,0.29214 c 0.016535,0.0179 0.039963,0.0275 0.064768,0.0275 h 0.4051392 c 0.050988,0 0.092329,-0.0413 0.092329,-0.0909 0,-0.051 -0.041341,-0.091 -0.092329,-0.091"
       style="fill:#ffffff;fill-opacity:1;fill-rule:nonzero;stroke:none;stroke-width:0.35277775" />
    <path
       inkscape:connector-curvature="0"
       id="path4955"
       d="m 1.2088475,294.9009 -0.58153227,0.58153 c -0.0165346,0.0165 -0.0165346,0.0427 0,0.0579 0.0151588,0.0152 0.0413413,0.0165 0.0578778,0 l 0.13091371,-0.13229 v 0.14194 l -0.15296232,0.15159 c -0.009645,0.011 -0.009645,0.0262 0,0.0344 0.009645,0.01 0.0248039,0.01 0.0358288,0 l 0.1171335,-0.11851 0.001376,0.35691 c 0,0.011 0.008269,0.022 0.0206693,0.022 0.0124037,0 0.0220485,-0.011 0.0220485,-0.022 v -0.18052 l 0.0909503,0.0923 c 0.00689,0.007 0.016535,0.007 0.023428,0 0.00689,-0.007 0.00689,-0.0165 0,-0.0221 l -0.0937066,-0.0937 v -0.42581 l 0.38585068,-0.38723 z m 0,0"
       style="fill:#ffffff;fill-opacity:1;fill-rule:nonzero;stroke:none;stroke-width:0.35277775" />
    <path
       inkscape:connector-curvature="0"
       id="path4957"
       d="m 3.2635026,294.47095 c 0.00964,-0.011 0.00964,-0.0262 0,-0.0372 -0.00964,-0.011 -0.026183,-0.011 -0.037207,0 l -0.1515843,0.15158 v -0.15296 c 0,-0.011 -0.00964,-0.0193 -0.019293,-0.0193 -0.011025,0 -0.019293,0.008 -0.019293,0.0193 v 0.15572 L 2.6805916,294.945 H 2.3774221 c 0,0 0.3141927,-0.31557 0.3334851,-0.33486 0.019293,-0.0179 0.019293,-0.0482 0.019293,-0.0482 v -0.1695 l 0.2604491,-0.20533 h 0.1777669 c 0.011025,0 0.019293,-0.007 0.019293,-0.0179 0,-0.01 -0.00827,-0.0179 -0.019293,-0.0179 H 2.9961618 l 0.1653645,-0.1365 c 0.00964,-0.01 0.011025,-0.0234 0.00138,-0.0345 -0.00964,-0.008 -0.024805,-0.008 -0.035829,0 l -0.2576931,0.20671 v -0.29215 c 0,-0.0124 -0.00964,-0.022 -0.023429,-0.022 -0.012404,0 -0.023429,0.01 -0.023429,0.022 v 0.32798 l -0.1254014,0.10611 v -0.1888 c 0,-0.0179 -0.01378,-0.0331 -0.030318,-0.0331 -0.017914,0 -0.031694,0.0152 -0.031694,0.0331 v 0.3831 l -0.6201174,0.62012 0.082682,0.0813 0.1846573,-0.18465 h 0.7606771 c 0.020669,0 0.037207,-0.0165 0.037207,-0.0358 0,-0.022 -0.016534,-0.0386 -0.037207,-0.0386 l -0.276986,0.001 0.1391817,-0.13918 h 0.2549348 c 0.016534,0 0.028938,-0.0138 0.028938,-0.0289 0,-0.0165 -0.012404,-0.0289 -0.028938,-0.0289 H 2.9630828 Z m 0,0"
       style="fill:#ffffff;fill-opacity:1;fill-rule:nonzero;stroke:none;stroke-width:0.35277775" />
  </g>
</svg>
