<?xml version="1.0" encoding="UTF-8" standalone="no"?>
<!-- Created with Inkscape (http://www.inkscape.org/) -->

<svg
   xmlns:dc="http://purl.org/dc/elements/1.1/"
   xmlns:cc="http://creativecommons.org/ns#"
   xmlns:rdf="http://www.w3.org/1999/02/22-rdf-syntax-ns#"
   xmlns:svg="http://www.w3.org/2000/svg"
   xmlns="http://www.w3.org/2000/svg"
   xmlns:sodipodi="http://sodipodi.sourceforge.net/DTD/sodipodi-0.dtd"
   xmlns:inkscape="http://www.inkscape.org/namespaces/inkscape"
   width="3.75mm"
   height="3.75mm"
   viewBox="0 0 3.75 3.75"
   version="1.1"
   id="svg13826"
   inkscape:version="0.92.1 r15371"
   sodipodi:docname="airfield_dark.svg">
  <defs
     id="defs13820" />
  <sodipodi:namedview
     id="base"
     pagecolor="#ffffff"
     bordercolor="#666666"
     borderopacity="1.0"
     inkscape:pageopacity="0.0"
     inkscape:pageshadow="2"
     inkscape:zoom="28.687777"
     inkscape:cx="8.0356309"
     inkscape:cy="6.4105833"
     inkscape:document-units="mm"
     inkscape:current-layer="layer1"
     showgrid="false"
     inkscape:window-width="644"
     inkscape:window-height="699"
     inkscape:window-x="769"
     inkscape:window-y="33"
     inkscape:window-maximized="0"
     showguides="true"
     inkscape:guide-bbox="true"
     gridtolerance="10"
     guidetolerance="2">
    <inkscape:grid
       type="xygrid"
       id="grid13828" />
    <sodipodi:guide
       position="0.13043093,3.8477124"
       orientation="1,0"
       id="guide20533"
       inkscape:locked="false" />
    <sodipodi:guide
       position="1.9173346,3.6129367"
       orientation="0,1"
       id="guide20535"
       inkscape:locked="false" />
  </sodipodi:namedview>
  <metadata
     id="metadata13823">
    <rdf:RDF>
      <cc:Work
         rdf:about="">
        <dc:format>image/svg+xml</dc:format>
        <dc:type
           rdf:resource="http://purl.org/dc/dcmitype/StillImage" />
        <dc:title></dc:title>
      </cc:Work>
    </rdf:RDF>
  </metadata>
  <g
     inkscape:label="Layer 1"
     inkscape:groupmode="layer"
     id="layer1"
     transform="translate(0,-293.25)">
    <path
       inkscape:connector-curvature="0"
       id="path13483"
       d="m 0.5544121,293.45482 c -0.1901684,0 -0.34450867,0.15572 -0.34450867,0.34727 v 2.65272 c 0,0.19155 0.15434027,0.34589 0.34450867,0.34589 h 2.6541024 c 0.1901684,0 0.3458879,-0.15434 0.3458879,-0.34589 v -2.65272 c 0,-0.19155 -0.1557195,-0.34727 -0.3458879,-0.34727 z m 0,0"
       style="fill:#ffffff;fill-opacity:1;fill-rule:nonzero;stroke:none;stroke-width:0.35277775" />
    <path
       inkscape:connector-curvature="0"
       id="path13485"
       d="m 3.2085145,296.87098 c 0.2301311,0 0.4161684,-0.18604 0.4161684,-0.41617 v -2.6541 c 0,-0.22876 -0.1860373,-0.41617 -0.4161684,-0.41617 H 0.5544121 c -0.23013106,0 -0.41616842,0.18741 -0.41616842,0.41617 v 2.6541 c 0,0.23013 0.18603736,0.41617 0.41616842,0.41617 z m 0,0"
       style="fill:#211e1e;fill-opacity:1;fill-rule:nonzero;stroke:none;stroke-width:0.35277775" />
    <path
       inkscape:connector-curvature="0"
       id="path13487"
       d="M 1.8814633,296.39831 1.7794894,296.2109 H 1.3674555 c -0.012418,-0.0317 0.019297,-0.10336 0.019297,-0.10336 0.08406,-0.10886 0.3596676,-0.22462 0.3596676,-0.22462 l -0.082684,-1.08589 -1.08038193,-0.0648 c -0.17914409,-0.0248 -0.16674042,-0.15296 -0.16674042,-0.15296 0,-0.10335 0.18603383,-0.13643 0.18603383,-0.13643 l 1.07349222,-0.12126 0.07717,-0.32247 H 1.6058592 v -0.0441 h 0.1984375 l 0.08406,-0.0965 0.07028,0.0965 h 0.1998168 v 0.0441 H 2.0110033 l 0.075791,0.32247 1.0734921,0.12126 c 0,0 0.1874131,0.0331 0.1874131,0.13643 0,0 0.012417,0.12816 -0.1681197,0.15296 l -1.079006,0.0648 -0.08406,1.08589 c 0,0 0.276987,0.11576 0.3596675,0.22462 0,0 0.033055,0.0717 0.019297,0.10336 H 1.9848166 l -0.1033533,0.18741"
       style="fill:#ffffff;fill-opacity:1;fill-rule:nonzero;stroke:none;stroke-width:0.35277775" />
  </g>
</svg>
