<?xml version="1.0" encoding="UTF-8" standalone="no"?>
<!-- Created with Inkscape (http://www.inkscape.org/) -->

<svg
   xmlns:dc="http://purl.org/dc/elements/1.1/"
   xmlns:cc="http://creativecommons.org/ns#"
   xmlns:rdf="http://www.w3.org/1999/02/22-rdf-syntax-ns#"
   xmlns:svg="http://www.w3.org/2000/svg"
   xmlns="http://www.w3.org/2000/svg"
   xmlns:sodipodi="http://sodipodi.sourceforge.net/DTD/sodipodi-0.dtd"
   xmlns:inkscape="http://www.inkscape.org/namespaces/inkscape"
   width="3.75mm"
   height="3.75mm"
   viewBox="0 0 3.75 3.75"
   version="1.1"
   id="svg13826"
   inkscape:version="0.92.1 r15371"
   sodipodi:docname="bus_stop_light.svg">
  <defs
     id="defs13820" />
  <sodipodi:namedview
     id="base"
     pagecolor="#ffffff"
     bordercolor="#666666"
     borderopacity="1.0"
     inkscape:pageopacity="0.0"
     inkscape:pageshadow="2"
     inkscape:zoom="28.687777"
     inkscape:cx="6.277535"
     inkscape:cy="6.4105833"
     inkscape:document-units="mm"
     inkscape:current-layer="layer1"
     showgrid="false"
     inkscape:window-width="644"
     inkscape:window-height="699"
     inkscape:window-x="714"
     inkscape:window-y="32"
     inkscape:window-maximized="0"
     showguides="true"
     inkscape:guide-bbox="true"
     gridtolerance="10"
     guidetolerance="2">
    <inkscape:grid
       type="xygrid"
       id="grid13828" />
    <sodipodi:guide
       position="0.13043093,3.8477124"
       orientation="1,0"
       id="guide20533"
       inkscape:locked="false" />
    <sodipodi:guide
       position="1.9173346,3.6129367"
       orientation="0,1"
       id="guide20535"
       inkscape:locked="false" />
  </sodipodi:namedview>
  <metadata
     id="metadata13823">
    <rdf:RDF>
      <cc:Work
         rdf:about="">
        <dc:format>image/svg+xml</dc:format>
        <dc:type
           rdf:resource="http://purl.org/dc/dcmitype/StillImage" />
        <dc:title></dc:title>
      </cc:Work>
    </rdf:RDF>
  </metadata>
  <g
     inkscape:label="Layer 1"
     inkscape:groupmode="layer"
     id="layer1"
     transform="translate(0,-293.25)">
    <path
       inkscape:connector-curvature="0"
       id="path12689"
       d="m 3.1900706,296.86176 c 0.2301311,0 0.4161649,-0.18604 0.4161649,-0.41617 v -2.65273 c 0,-0.23013 -0.1860338,-0.41754 -0.4161649,-0.41754 H 0.53596814 c -0.23013459,0 -0.41616842,0.18741 -0.41616842,0.41754 v 2.65273 c 0,0.23013 0.18603383,0.41617 0.41616842,0.41617 z m 0,0"
       style="fill:#211e1e;fill-opacity:1;fill-rule:nonzero;stroke:none;stroke-width:0.35277775" />
    <path
       inkscape:connector-curvature="0"
       id="path12691"
       d="m 0.53596814,293.44698 c -0.19154776,0 -0.34588803,0.15434 -0.34588803,0.34588 v 2.65273 c 0,0.19155 0.15434027,0.34589 0.34588803,0.34589 H 3.1900706 c 0.1901684,0 0.3445086,-0.15434 0.3445086,-0.34589 v -2.65273 c 0,-0.19154 -0.1543402,-0.34588 -0.3445086,-0.34588 z m 0,0"
       style="fill:#ffffff;fill-opacity:1;fill-rule:nonzero;stroke:none;stroke-width:0.35277775" />
    <path
       inkscape:connector-curvature="0"
       id="path12693"
       d="m 2.7780368,294.26691 c -0.027552,-0.13643 -0.115757,-0.19155 -0.2466693,-0.24529 -0.1322917,-0.0551 -0.4395964,-0.12127 -0.6697275,-0.12127 -0.230131,0 -0.5374357,0.0661 -0.6697274,0.12127 -0.1309124,0.0537 -0.21910682,0.10886 -0.24666934,0.24529 l -0.0992188,0.7593 v 1.04593 H 1.016903 v 0.16399 c 0,0.19981 0.2935217,0.19981 0.2935217,0 v -0.16399 h 1.10381 v 0.16399 c 0,0.19981 0.2921423,0.19981 0.2921423,0 v -0.16399 h 0.169499 v -1.04593 z m -1.375283,-0.19844 h 0.9177725 c 0.089574,0 0.089574,0.17088 0,0.17088 H 1.4027538 c -0.09095,0 -0.09095,-0.17088 0,-0.17088 m -0.2397795,1.68948 c -0.08406,0 -0.1543404,-0.0689 -0.1543404,-0.15434 0,-0.0841 0.07028,-0.15434 0.1543404,-0.15434 0.085439,0 0.1543402,0.0703 0.1543402,0.15434 0,0.0854 -0.068901,0.15434 -0.1543402,0.15434 m 1.3973315,0 c -0.085439,0 -0.1557196,-0.0689 -0.1557196,-0.15434 0,-0.0841 0.07028,-0.15434 0.1557196,-0.15434 0.08406,0 0.1529609,0.0703 0.1529609,0.15434 0,0.0854 -0.068901,0.15434 -0.1529609,0.15434 m 0.060632,-0.65181 H 1.1050975 c -0.044097,0 -0.081305,-0.0358 -0.081305,-0.0799 0,-0.008 0.00141,-0.0152 0.00282,-0.022 l 0.081305,-0.59807 c 0.00688,-0.0372 0.039963,-0.0661 0.07855,-0.0661 h 1.3518549 c 0.039963,0 0.071656,0.0289 0.079925,0.0661 l 0.079925,0.59807 c 0.00141,0.007 0.00282,0.0138 0.00282,0.022 0,0.0441 -0.035832,0.0799 -0.079929,0.0799"
       style="fill:#211e1e;fill-opacity:1;fill-rule:nonzero;stroke:none;stroke-width:0.35277775" />
  </g>
</svg>
