<?xml version="1.0" encoding="UTF-8" standalone="no"?>
<!-- Created with Inkscape (http://www.inkscape.org/) -->

<svg
   xmlns:dc="http://purl.org/dc/elements/1.1/"
   xmlns:cc="http://creativecommons.org/ns#"
   xmlns:rdf="http://www.w3.org/1999/02/22-rdf-syntax-ns#"
   xmlns:svg="http://www.w3.org/2000/svg"
   xmlns="http://www.w3.org/2000/svg"
   xmlns:sodipodi="http://sodipodi.sourceforge.net/DTD/sodipodi-0.dtd"
   xmlns:inkscape="http://www.inkscape.org/namespaces/inkscape"
   width="3.75mm"
   height="3.75mm"
   viewBox="0 0 3.75 3.75"
   version="1.1"
   id="svg13826"
   inkscape:version="0.92.1 r15371"
   sodipodi:docname="electric_car_dark.svg">
  <defs
     id="defs13820" />
  <sodipodi:namedview
     id="base"
     pagecolor="#ffffff"
     bordercolor="#666666"
     borderopacity="1.0"
     inkscape:pageopacity="0.0"
     inkscape:pageshadow="2"
     inkscape:zoom="28.687777"
     inkscape:cx="6.277535"
     inkscape:cy="6.4105833"
     inkscape:document-units="mm"
     inkscape:current-layer="layer1"
     showgrid="false"
     inkscape:window-width="644"
     inkscape:window-height="699"
     inkscape:window-x="714"
     inkscape:window-y="32"
     inkscape:window-maximized="0"
     showguides="true"
     inkscape:guide-bbox="true"
     gridtolerance="10"
     guidetolerance="2">
    <inkscape:grid
       type="xygrid"
       id="grid13828" />
    <sodipodi:guide
       position="0.13043093,3.8477124"
       orientation="1,0"
       id="guide20533"
       inkscape:locked="false" />
    <sodipodi:guide
       position="1.9173346,3.6129367"
       orientation="0,1"
       id="guide20535"
       inkscape:locked="false" />
  </sodipodi:namedview>
  <metadata
     id="metadata13823">
    <rdf:RDF>
      <cc:Work
         rdf:about="">
        <dc:format>image/svg+xml</dc:format>
        <dc:type
           rdf:resource="http://purl.org/dc/dcmitype/StillImage" />
        <dc:title></dc:title>
      </cc:Work>
    </rdf:RDF>
  </metadata>
  <g
     inkscape:label="Layer 1"
     inkscape:groupmode="layer"
     id="layer1"
     transform="translate(0,-293.25)">
    <path
       inkscape:connector-curvature="0"
       id="path10453"
       d="m 3.1886912,296.87098 c 0.2301309,0 0.4175442,-0.18604 0.4175442,-0.41617 v -2.65273 c 0,-0.23013 -0.1874133,-0.41754 -0.4175442,-0.41754 H 0.53596814 c -0.2301346,0 -0.4161684,0.18741 -0.4161684,0.41754 v 2.65273 c 0,0.23013 0.1860338,0.41617 0.4161684,0.41617 z m 0,0"
       style="fill:#211e1e;fill-opacity:1;fill-rule:nonzero;stroke:none;stroke-width:0.35277775" />
    <path
       inkscape:connector-curvature="0"
       id="path10455"
       d="m 0.53321294,293.45482 c -0.1901719,0 -0.345888,0.15572 -0.345888,0.34726 v 2.65411 c 0,0.19017 0.1557161,0.34588 0.345888,0.34588 H 3.1886912 c 0.1915477,0 0.3472638,-0.15571 0.3472638,-0.34588 v -2.65411 c 0,-0.19154 -0.1557161,-0.34726 -0.3472638,-0.34726 z m 0,0"
       style="fill:#ffffff;fill-opacity:1;fill-rule:nonzero;stroke:none;stroke-width:0.35277775" />
    <path
       inkscape:connector-curvature="0"
       id="path10457"
       d="m 1.8781781,294.54623 c 0,0.0482 -0.038587,0.0882 -0.088194,0.0882 H 1.0623796 c -0.048232,0 -0.089574,-0.04 -0.089574,-0.0882 V 293.933 c 0,-0.0496 0.041342,-0.0896 0.089574,-0.0896 h 0.7276041 c 0.049608,0 0.088194,0.04 0.088194,0.0896 z m -0.1005981,0.88883 -0.6655928,0.67937 0.2039514,-0.4892 H 1.044462 l 0.4065234,-0.67937 H 1.77758 l -0.2852525,0.4892 z m 1.2581503,-1.10656 v -0.25356 c 0,-0.0289 -0.026175,-0.0524 -0.05788,-0.0524 -0.03168,0 -0.057877,0.0234 -0.057877,0.0524 v 0.25356 h -0.194303 v -0.25356 c 0,-0.0289 -0.026176,-0.0524 -0.057877,-0.0524 -0.033055,0 -0.059256,0.0234 -0.059256,0.0524 v 0.25356 H 2.4679768 v 0.10748 c 0,0.15159 0.119888,0.27423 0.2783628,0.30868 h 0.00967 v 0.65457 c 0,0.0579 0.023424,0.1819 0.027552,0.19982 l 0.1350471,0.5457 c 0.00826,0.0276 0.030304,0.10611 0.034466,0.14883 0.0014,0.022 -0.00413,0.073 -0.038583,0.11024 -0.034467,0.0386 -0.090953,0.0565 -0.1681234,0.0565 -0.068901,0 -0.119888,-0.0165 -0.1502058,-0.0482 -0.042718,-0.0427 -0.041342,-0.10473 -0.041342,-0.10749 v -1.15342 c 0,-0.18327 -0.1502057,-0.2508 -0.2521797,-0.2508 H 2.0228946 l -0.00141,-0.96738 c 0,-0.12816 -0.1033533,-0.23151 -0.2315104,-0.23151 H 1.062369 c -0.12816066,0 -0.23151046,0.10335 -0.23151046,0.23151 v 2.65548 H 2.0214835 l 0.00141,-1.54754 h 0.2797422 c 0.019297,0 0.1116224,0.005 0.1116224,0.11024 v 1.14929 c 0,0.0124 -0.00282,0.12264 0.078546,0.20808 0.059256,0.062 0.1446954,0.0937 0.253559,0.0937 0.1185122,0 0.2108412,-0.0358 0.2728524,-0.10336 0.062011,-0.0689 0.079925,-0.15709 0.074415,-0.21772 -0.00688,-0.0661 -0.037208,-0.16675 -0.039963,-0.17364 l -0.1336704,-0.53881 c -0.00825,-0.0482 -0.023423,-0.13642 -0.023423,-0.1695 v -0.65457 h 0.00826 c 0.1626086,-0.0317 0.286631,-0.15434 0.286631,-0.30868 v -0.10748 z m 0,0"
       style="fill:#211e1e;fill-opacity:1;fill-rule:nonzero;stroke:none;stroke-width:0.35277775" />
  </g>
</svg>
