<?xml version="1.0" encoding="UTF-8" standalone="no"?>
<!-- Created with Inkscape (http://www.inkscape.org/) -->

<svg
   xmlns:dc="http://purl.org/dc/elements/1.1/"
   xmlns:cc="http://creativecommons.org/ns#"
   xmlns:rdf="http://www.w3.org/1999/02/22-rdf-syntax-ns#"
   xmlns:svg="http://www.w3.org/2000/svg"
   xmlns="http://www.w3.org/2000/svg"
   xmlns:sodipodi="http://sodipodi.sourceforge.net/DTD/sodipodi-0.dtd"
   xmlns:inkscape="http://www.inkscape.org/namespaces/inkscape"
   width="3.75mm"
   height="3.75mm"
   viewBox="0 0 3.75 3.75"
   version="1.1"
   id="svg13826"
   inkscape:version="0.92.1 r15371"
   sodipodi:docname="ferry_dark.svg">
  <defs
     id="defs13820" />
  <sodipodi:namedview
     id="base"
     pagecolor="#ffffff"
     bordercolor="#666666"
     borderopacity="1.0"
     inkscape:pageopacity="0.0"
     inkscape:pageshadow="2"
     inkscape:zoom="28.687777"
     inkscape:cx="7.288884"
     inkscape:cy="6.4105833"
     inkscape:document-units="mm"
     inkscape:current-layer="layer1"
     showgrid="false"
     inkscape:window-width="644"
     inkscape:window-height="699"
     inkscape:window-x="714"
     inkscape:window-y="32"
     inkscape:window-maximized="0"
     showguides="true"
     inkscape:guide-bbox="true"
     gridtolerance="10"
     guidetolerance="2">
    <inkscape:grid
       type="xygrid"
       id="grid13828" />
    <sodipodi:guide
       position="0.13043093,3.8477124"
       orientation="1,0"
       id="guide20533"
       inkscape:locked="false" />
    <sodipodi:guide
       position="1.9173346,3.6129367"
       orientation="0,1"
       id="guide20535"
       inkscape:locked="false" />
  </sodipodi:namedview>
  <metadata
     id="metadata13823">
    <rdf:RDF>
      <cc:Work
         rdf:about="">
        <dc:format>image/svg+xml</dc:format>
        <dc:type
           rdf:resource="http://purl.org/dc/dcmitype/StillImage" />
        <dc:title></dc:title>
      </cc:Work>
    </rdf:RDF>
  </metadata>
  <g
     inkscape:label="Layer 1"
     inkscape:groupmode="layer"
     id="layer1"
     transform="translate(0,-293.25)">
    <path
       inkscape:connector-curvature="0"
       id="path2113"
       d="m 0.55510356,293.4562 c -0.19154775,0 -0.34726738,0.15434 -0.34726738,0.34588 v 2.65273 c 0,0.19155 0.15571963,0.34589 0.34726738,0.34589 H 3.2078266 c 0.1915477,0 0.3458879,-0.15434 0.3458879,-0.34589 v -2.65273 c 0,-0.19154 -0.1543402,-0.34588 -0.3458879,-0.34588 z m 0,0"
       style="fill:#ffffff;fill-opacity:1;fill-rule:nonzero;stroke:none;stroke-width:0.35277775" />
    <path
       inkscape:connector-curvature="0"
       id="path2115"
       d="m 3.2078266,296.87098 c 0.2301311,0 0.4175442,-0.18604 0.4175442,-0.41617 v -2.65273 c 0,-0.23013 -0.1874131,-0.41754 -0.4175442,-0.41754 H 0.55510356 c -0.23151041,0 -0.41754777,0.18741 -0.41754777,0.41754 v 2.65273 c 0,0.23013 0.18603736,0.41617 0.41754777,0.41617 z m 0,0"
       style="fill:#211e1e;fill-opacity:1;fill-rule:nonzero;stroke:none;stroke-width:0.35277775" />
    <path
       inkscape:connector-curvature="0"
       id="path2117"
       d="m 3.2670827,296.11719 c -0.060635,0 -0.1185122,-0.0138 -0.1694993,-0.0372 -0.053742,-0.0248 -0.1143775,-0.04 -0.1763887,-0.04 -0.062011,0 -0.1212675,0.0152 -0.1750096,0.04 -0.052366,0.0234 -0.110243,0.0372 -0.1708785,0.0372 -0.060632,0 -0.1185121,-0.0138 -0.1694991,-0.0372 -0.053742,-0.0248 -0.1143776,-0.04 -0.1763889,-0.04 -0.062011,0 -0.1212674,0.0152 -0.1750095,0.04 -0.052366,0.0234 -0.1102431,0.0372 -0.1708785,0.0372 -0.060632,0 -0.1185086,-0.0138 -0.1694991,-0.0372 -0.053742,-0.0248 -0.1143741,-0.04 -0.1763889,-0.04 -0.062011,0 -0.1226432,0.0152 -0.1750096,0.04 -0.052366,0.0234 -0.110243,0.0372 -0.1708749,0.0372 -0.060636,0 -0.1185122,-0.0138 -0.1694992,-0.0372 -0.055122,-0.0248 -0.11437759,-0.04 -0.17638884,-0.04 -0.0633906,0 -0.12264673,0.0152 -0.17501307,0.04 -0.0523628,0.0234 -0.11024303,0.0372 -0.17087495,0.0372 v -0.25632 c 0.0606319,0 0.11851217,-0.0124 0.17087495,-0.0358 0.0523663,-0.0248 0.11162242,-0.04 0.17501307,-0.04 0.0620112,0 0.12126735,0.0152 0.17638884,0.04 0.050987,0.0234 0.1088637,0.0358 0.1694992,0.0358 0.060632,0 0.1185086,-0.0124 0.1708749,-0.0358 0.052366,-0.0248 0.1129983,-0.04 0.1750096,-0.04 0.062015,0 0.1226467,0.0152 0.1763889,0.04 0.05099,0.0234 0.1088672,0.0358 0.1694991,0.0358 0.060635,0 0.1185121,-0.0124 0.1708785,-0.0358 0.053742,-0.0248 0.1129982,-0.04 0.1750095,-0.04 0.062011,0 0.1226467,0.0152 0.1763889,0.04 0.050987,0.0234 0.1088672,0.0358 0.1694991,0.0358 0.060636,0 0.1185122,-0.0124 0.1708785,-0.0358 0.053742,-0.0248 0.1129982,-0.04 0.1750096,-0.04 0.062011,0 0.1226466,0.0152 0.1763887,0.04 0.050987,0.0234 0.1088639,0.0358 0.1694993,0.0358 z m 0,0"
       style="fill:#ffffff;fill-opacity:1;fill-rule:nonzero;stroke:none;stroke-width:0.35277775" />
    <path
       inkscape:connector-curvature="0"
       id="path2119"
       d="m 2.1674073,294.56414 0.085439,-0.20395 c 0.00413,-0.011 0.012418,-0.0179 0.0248,-0.0179 h 0.4947144 c 0.011007,0 0.020673,0.007 0.0248,0.0179 l 0.085436,0.20395 z m 0.7110694,0.26734 c -0.046856,0 -0.086818,-0.0386 -0.086818,-0.0854 0,-0.0482 0.039963,-0.0854 0.086818,-0.0854 0.046852,0 0.085436,0.0372 0.085436,0.0854 0,0.0469 -0.038583,0.0854 -0.085436,0.0854 m -0.7923741,-0.0854 c 0,-0.0482 0.038587,-0.0854 0.085439,-0.0854 0.046852,0 0.086815,0.0372 0.086815,0.0854 0,0.0469 -0.039963,0.0854 -0.086815,0.0854 -0.046852,0 -0.085439,-0.0386 -0.085439,-0.0854 m -1.19613534,-0.1819 0.0840598,-0.20395 c 0.00413,-0.011 0.013794,-0.0179 0.026176,-0.0179 h 0.4947145 c 0.011007,0 0.020673,0.007 0.0248,0.0179 l 0.085439,0.20395 z m 0.70969014,0.26734 c -0.046856,0 -0.085439,-0.0386 -0.085439,-0.0854 0,-0.0482 0.038583,-0.0854 0.085439,-0.0854 0.046852,0 0.086815,0.0372 0.086815,0.0854 0,0.0469 -0.039963,0.0854 -0.086815,0.0854 m -0.79237417,-0.0854 c 0,-0.0482 0.0399627,-0.0854 0.0868186,-0.0854 0.0468524,0 0.0854357,0.0372 0.0854357,0.0854 0,0.0469 -0.038583,0.0854 -0.0854357,0.0854 -0.0468559,0 -0.0868186,-0.0386 -0.0868186,-0.0854 m 1.38492787,0.39136 c 0.028928,-0.0138 0.048232,-0.0427 0.048232,-0.0772 v -0.0854 h 0.5677536 v 0.0854 c 0,0.0344 0.020672,0.0634 0.049608,0.0772 z m -1.27881939,0 c 0.028928,-0.0138 0.050987,-0.0427 0.050987,-0.0772 l -0.00141,-0.0854 H 1.5307184 v 0.0854 c 0,0.0344 0.020673,0.0634 0.048232,0.0772 z m 2.01607199,0 c 0.028928,-0.0138 0.049608,-0.0427 0.049608,-0.0772 v -0.0854 h 0.086819 v -0.27837 c 0,-0.0606 -0.041342,-0.11162 -0.097843,-0.12678 l -0.099219,-0.23702 c -0.015169,-0.0358 -0.048232,-0.0593 -0.08957,-0.0593 H 2.2693813 c -0.038583,0 -0.074412,0.0234 -0.088195,0.0593 l -0.099219,0.23702 c -0.055122,0.0152 -0.097839,0.0661 -0.097839,0.12678 v 0.27837 h 0.088194 v 0.0854 c 0,0.0344 0.019297,0.0634 0.048232,0.0772 H 1.6506444 c 0.028928,-0.0138 0.050987,-0.0427 0.050987,-0.0772 l -0.00141,-0.0854 h 0.086819 v -0.27837 c 0,-0.0606 -0.041342,-0.11162 -0.097843,-0.12678 l -0.099219,-0.23702 c -0.013794,-0.0358 -0.048233,-0.0593 -0.088195,-0.0593 H 0.99190951 c -0.039963,0 -0.074415,0.0234 -0.0895738,0.0593 l -0.0978394,0.23702 c -0.0565009,0.0152 -0.0978394,0.0661 -0.0978394,0.12678 v 0.27837 h 0.0868151 v 0.0854 c 0,0.0344 0.0192969,0.0634 0.0482318,0.0772 H 0.49995029 v 0.21636 h 0.2342656 l 0.19154772,0.22324 c 0.033055,0.007 0.064767,0.0179 0.096464,0.0317 0.050987,0.0234 0.1088637,0.0372 0.1694992,0.0372 0.060632,0 0.1185087,-0.0138 0.170875,-0.0372 0.052366,-0.0248 0.1116224,-0.04 0.1750095,-0.04 0.063391,0 0.1226467,0.0152 0.1763889,0.04 0.050991,0.0234 0.1088672,0.0372 0.1694991,0.0372 0.060636,0 0.1185122,-0.0138 0.1708785,-0.0372 0.052366,-0.0248 0.1129983,-0.04 0.1750095,-0.04 0.063391,0 0.1226468,0.0152 0.1763889,0.04 0.050987,0.0234 0.1088673,0.0372 0.1694992,0.0372 0.060635,0 0.1185121,-0.0138 0.1708785,-0.0372 0.035828,-0.0179 0.075791,-0.0289 0.1185086,-0.0358 l 0.1860373,-0.22049 h 0.2163516 v -0.21497 z m 0,0"
       style="fill:#ffffff;fill-opacity:1;fill-rule:nonzero;stroke:none;stroke-width:0.35277775" />
  </g>
</svg>
