<?xml version="1.0" encoding="UTF-8" standalone="no"?>
<!-- Created with Inkscape (http://www.inkscape.org/) -->

<svg
   xmlns:dc="http://purl.org/dc/elements/1.1/"
   xmlns:cc="http://creativecommons.org/ns#"
   xmlns:rdf="http://www.w3.org/1999/02/22-rdf-syntax-ns#"
   xmlns:svg="http://www.w3.org/2000/svg"
   xmlns="http://www.w3.org/2000/svg"
   xmlns:sodipodi="http://sodipodi.sourceforge.net/DTD/sodipodi-0.dtd"
   xmlns:inkscape="http://www.inkscape.org/namespaces/inkscape"
   width="3.75mm"
   height="3.75mm"
   viewBox="0 0 3.75 3.75"
   version="1.1"
   id="svg13826"
   inkscape:version="0.92.1 r15371"
   sodipodi:docname="gas_station_dark.svg">
  <defs
     id="defs13820" />
  <sodipodi:namedview
     id="base"
     pagecolor="#ffffff"
     bordercolor="#666666"
     borderopacity="1.0"
     inkscape:pageopacity="0.0"
     inkscape:pageshadow="2"
     inkscape:zoom="28.687777"
     inkscape:cx="6.277535"
     inkscape:cy="6.4105833"
     inkscape:document-units="mm"
     inkscape:current-layer="layer1"
     showgrid="false"
     inkscape:window-width="644"
     inkscape:window-height="699"
     inkscape:window-x="714"
     inkscape:window-y="32"
     inkscape:window-maximized="0"
     showguides="true"
     inkscape:guide-bbox="true"
     gridtolerance="10"
     guidetolerance="2">
    <inkscape:grid
       type="xygrid"
       id="grid13828" />
    <sodipodi:guide
       position="0.13043093,3.8477124"
       orientation="1,0"
       id="guide20533"
       inkscape:locked="false" />
    <sodipodi:guide
       position="1.9173346,3.6129367"
       orientation="0,1"
       id="guide20535"
       inkscape:locked="false" />
  </sodipodi:namedview>
  <metadata
     id="metadata13823">
    <rdf:RDF>
      <cc:Work
         rdf:about="">
        <dc:format>image/svg+xml</dc:format>
        <dc:type
           rdf:resource="http://purl.org/dc/dcmitype/StillImage" />
        <dc:title></dc:title>
      </cc:Work>
    </rdf:RDF>
  </metadata>
  <g
     inkscape:label="Layer 1"
     inkscape:groupmode="layer"
     id="layer1"
     transform="translate(0,-293.25)">
    <path
       inkscape:connector-curvature="0"
       id="path12277"
       d="m 0.52605563,293.45734 c -0.1901684,0 -0.34588803,0.15572 -0.34588803,0.34726 v 2.65273 c 0,0.19155 0.15571963,0.34589 0.34588803,0.34589 H 3.180158 c 0.1915477,0 0.3458879,-0.15434 0.3458879,-0.34589 v -2.65273 c 0,-0.19154 -0.1543402,-0.34726 -0.3458879,-0.34726 z m 0,0"
       style="fill:#ffffff;fill-opacity:1;fill-rule:nonzero;stroke:none;stroke-width:0.35277775" />
    <path
       inkscape:connector-curvature="0"
       id="path12279"
       d="M 3.180158,293.38706 H 0.52605563 c -0.23013106,0 -0.41616842,0.18603 -0.41616842,0.41754 v 2.65273 c 0,0.23013 0.18603736,0.41755 0.41616842,0.41755 H 3.180158 c 0.2301311,0 0.4175442,-0.18742 0.4175442,-0.41755 v -2.65273 c 0,-0.23151 -0.1874131,-0.41754 -0.4175442,-0.41754 m -0.5208976,3.04271 c -0.1460747,0 -0.2742318,-0.11989 -0.2742318,-0.2577 v -1.01975 c 0,-0.0469 -0.037207,-0.0841 -0.08406,-0.0841 h -0.202572 l -0.00141,1.35324 -1.0748716,-0.0165 v -2.31923 c 0,-0.12127 0.099219,-0.21912 0.2204862,-0.21912 h 0.6338993 c 0.1212674,0 0.2204861,0.0978 0.2204861,0.21912 v 0.0262 c 0,0.14194 0,0.81167 -0.015169,0.81167 h 0.2163516 c 0.1240225,0 0.2259965,0.10197 0.2259965,0.22599 l -0.00141,1.02251 c 0,0.0675 0.073036,0.11989 0.1364263,0.11989 0.068901,0 0.155716,-0.0565 0.1502056,-0.15159 l -0.1074878,-0.58428 -0.0248,-0.19707 0.017921,-0.57602 -0.048232,-10e-4 c -0.1074879,0 -0.194303,-0.0868 -0.194303,-0.1943 l 0.00413,-0.30179 c 0,0 -0.1777682,-0.17776 -0.1777682,-0.20257 0,0 0.068901,-0.0689 0.093708,-0.0689 l 0.3596676,0.35966 c 0.056497,0.0565 0.08406,0.12403 0.08406,0.20809 v 0.77721 c 0,0 0.022048,0.16812 0.022048,0.1695 0,0 0.1102432,0.60909 0.1129983,0.64355 0,0.14745 -0.1543402,0.25769 -0.2921423,0.25769"
       style="fill:#211e1e;fill-opacity:1;fill-rule:nonzero;stroke:none;stroke-width:0.35277775" />
    <path
       inkscape:connector-curvature="0"
       id="path12281"
       d="m 2.8384044,295.52853 c 0,-10e-4 -0.022048,-0.1695 -0.022048,-0.1695 v -0.77859 c 0,-0.0827 -0.027552,-0.15021 -0.08406,-0.20671 l -0.3596675,-0.35828 c -0.0248,0 -0.093708,0.0675 -0.093708,0.0675 0,0.0248 0.1777683,0.20257 0.1777683,0.20257 l -0.00413,0.30179 c 0,0.10749 0.086815,0.1943 0.1943029,0.1943 l 0.048232,10e-4 -0.017921,0.57602 0.0248,0.19844 0.1074879,0.58291 c 0.0055,0.0951 -0.081305,0.15158 -0.1502058,0.15158 -0.063391,0 -0.1364262,-0.0524 -0.1364262,-0.11988 l 0.00141,-1.02251 c 0,-0.12402 -0.101974,-0.226 -0.2259965,-0.226 H 2.0818937 c 0.015169,0 0.015169,-0.66972 0.015169,-0.81166 v -0.0262 c 0,-0.12126 -0.099219,-0.21911 -0.2204861,-0.21911 H 1.2426777 c -0.1212674,0 -0.2204862,0.0979 -0.2204862,0.21911 v 2.31924 l 1.0748716,0.0165 0.00141,-1.35461 h 0.2025721 c 0.046852,0 0.08406,0.0386 0.08406,0.0854 v 1.01975 c 0,0.13643 0.1281571,0.2577 0.2742318,0.2577 0.1378018,0 0.2921423,-0.11025 0.2921423,-0.2577 -0.00283,-0.0345 -0.113076,-0.64359 -0.113076,-0.64359"
       style="fill:#ffffff;fill-opacity:1;fill-rule:nonzero;stroke:none;stroke-width:0.35277775" />
    <path
       inkscape:connector-curvature="0"
       id="path12283"
       d="m 2.6330773,294.46882 c -0.012418,-0.003 -0.06477,-0.0152 -0.06477,-0.0152 v 0.13918 c 0,0.0372 0.028928,0.0786 0.1088672,0.0965 0,0 0,-0.10335 0,-0.1378 -0.00141,-0.0358 -0.017921,-0.0758 -0.044097,-0.0827"
       style="fill:#211e1e;fill-opacity:1;fill-rule:nonzero;stroke:none;stroke-width:0.35277775" />
    <path
       inkscape:connector-curvature="0"
       id="path12285"
       d="M 1.8765348,294.02647 H 1.2426354 c -0.034431,0 -0.060632,0.0262 -0.060632,0.0593 v 0.53467 c 0,0.0345 0.026176,0.0606 0.060632,0.0606 h 0.6338994 c 0.034431,0 0.060632,-0.0262 0.060632,-0.0606 v -0.53467 c 0,-0.0331 -0.026176,-0.0593 -0.060632,-0.0593"
       style="fill:#211e1e;fill-opacity:1;fill-rule:nonzero;stroke:none;stroke-width:0.35277775" />
  </g>
</svg>
