<?xml version="1.0" encoding="UTF-8" standalone="no"?>
<!-- Created with Inkscape (http://www.inkscape.org/) -->

<svg
   xmlns:dc="http://purl.org/dc/elements/1.1/"
   xmlns:cc="http://creativecommons.org/ns#"
   xmlns:rdf="http://www.w3.org/1999/02/22-rdf-syntax-ns#"
   xmlns:svg="http://www.w3.org/2000/svg"
   xmlns="http://www.w3.org/2000/svg"
   xmlns:sodipodi="http://sodipodi.sourceforge.net/DTD/sodipodi-0.dtd"
   xmlns:inkscape="http://www.inkscape.org/namespaces/inkscape"
   width="3.75mm"
   height="3.75mm"
   viewBox="0 0 3.75 3.75"
   version="1.1"
   id="svg13826"
   inkscape:version="0.92.1 r15371"
   sodipodi:docname="parking_light.svg">
  <defs
     id="defs13820" />
  <sodipodi:namedview
     id="base"
     pagecolor="#ffffff"
     bordercolor="#666666"
     borderopacity="1.0"
     inkscape:pageopacity="0.0"
     inkscape:pageshadow="2"
     inkscape:zoom="28.687777"
     inkscape:cx="7.288884"
     inkscape:cy="6.4105833"
     inkscape:document-units="mm"
     inkscape:current-layer="layer1"
     showgrid="false"
     inkscape:window-width="644"
     inkscape:window-height="699"
     inkscape:window-x="714"
     inkscape:window-y="32"
     inkscape:window-maximized="0"
     showguides="true"
     inkscape:guide-bbox="true"
     gridtolerance="10"
     guidetolerance="2">
    <inkscape:grid
       type="xygrid"
       id="grid13828" />
    <sodipodi:guide
       position="0.13043093,3.8477124"
       orientation="1,0"
       id="guide20533"
       inkscape:locked="false" />
    <sodipodi:guide
       position="1.9173346,3.6129367"
       orientation="0,1"
       id="guide20535"
       inkscape:locked="false" />
  </sodipodi:namedview>
  <metadata
     id="metadata13823">
    <rdf:RDF>
      <cc:Work
         rdf:about="">
        <dc:format>image/svg+xml</dc:format>
        <dc:type
           rdf:resource="http://purl.org/dc/dcmitype/StillImage" />
        <dc:title></dc:title>
      </cc:Work>
    </rdf:RDF>
  </metadata>
  <g
     inkscape:label="Layer 1"
     inkscape:groupmode="layer"
     id="layer1"
     transform="translate(0,-293.25)">
    <path
       inkscape:connector-curvature="0"
       id="path12779"
       d="m 3.197914,296.87098 c 0.2301309,0 0.4175442,-0.18604 0.4175442,-0.41617 v -2.6541 c 0,-0.23014 -0.1874133,-0.41617 -0.4175442,-0.41617 H 0.54519099 c -0.23013459,0 -0.41616842,0.18603 -0.41616842,0.41617 v 2.6541 c 0,0.23013 0.18603383,0.41617 0.41616842,0.41617 z m 0,0"
       style="fill:#211e1e;fill-opacity:1;fill-rule:nonzero;stroke:none;stroke-width:0.35277775" />
    <path
       inkscape:connector-curvature="0"
       id="path12781"
       d="m 0.54519099,293.45482 c -0.19154776,0 -0.34588803,0.15572 -0.34588803,0.34589 v 2.6541 c 0,0.19017 0.15434027,0.34589 0.34588803,0.34589 H 3.197914 c 0.1915477,0 0.3458879,-0.15572 0.3458879,-0.34589 v -2.6541 c 0,-0.19017 -0.1543402,-0.34589 -0.3458879,-0.34589 z m 0,0"
       style="fill:#ffffff;fill-opacity:1;fill-rule:nonzero;stroke:none;stroke-width:0.35277775" />
    <path
       inkscape:connector-curvature="0"
       id="path12783"
       d="m 2.1092629,293.91922 c 0.447862,0 0.8102883,0.36242 0.8102883,0.81029 0,0.44786 -0.3624263,0.81028 -0.8102883,0.81028 l -0.5208976,-10e-4 v 0.76894 H 1.12121 v -2.38814 z m 0.00825,1.15893 c 0.1970581,0 0.3582881,-0.15986 0.3582881,-0.35829 0,-0.19844 -0.16123,-0.35829 -0.3582881,-0.35829 l -0.5291667,-10e-4 v 0.71796 z m 0,0"
       style="fill:#211e1e;fill-opacity:1;fill-rule:nonzero;stroke:none;stroke-width:0.35277775" />
  </g>
</svg>
