<?xml version="1.0" encoding="UTF-8" standalone="no"?>
<!-- Created with Inkscape (http://www.inkscape.org/) -->

<svg
   xmlns:dc="http://purl.org/dc/elements/1.1/"
   xmlns:cc="http://creativecommons.org/ns#"
   xmlns:rdf="http://www.w3.org/1999/02/22-rdf-syntax-ns#"
   xmlns:svg="http://www.w3.org/2000/svg"
   xmlns="http://www.w3.org/2000/svg"
   xmlns:sodipodi="http://sodipodi.sourceforge.net/DTD/sodipodi-0.dtd"
   xmlns:inkscape="http://www.inkscape.org/namespaces/inkscape"
   width="3.75mm"
   height="3.75mm"
   viewBox="0 0 3.75 3.75"
   version="1.1"
   id="svg13826"
   inkscape:version="0.92.1 r15371"
   sodipodi:docname="radiator_light.svg">
  <defs
     id="defs13820" />
  <sodipodi:namedview
     id="base"
     pagecolor="#ffffff"
     bordercolor="#666666"
     borderopacity="1.0"
     inkscape:pageopacity="0.0"
     inkscape:pageshadow="2"
     inkscape:zoom="28.687777"
     inkscape:cx="7.288884"
     inkscape:cy="6.4105833"
     inkscape:document-units="mm"
     inkscape:current-layer="layer1"
     showgrid="false"
     inkscape:window-width="644"
     inkscape:window-height="699"
     inkscape:window-x="714"
     inkscape:window-y="32"
     inkscape:window-maximized="0"
     showguides="true"
     inkscape:guide-bbox="true"
     gridtolerance="10"
     guidetolerance="2">
    <inkscape:grid
       type="xygrid"
       id="grid13828" />
    <sodipodi:guide
       position="0.13043093,3.8477124"
       orientation="1,0"
       id="guide20533"
       inkscape:locked="false" />
    <sodipodi:guide
       position="1.9173346,3.6129367"
       orientation="0,1"
       id="guide20535"
       inkscape:locked="false" />
  </sodipodi:namedview>
  <metadata
     id="metadata13823">
    <rdf:RDF>
      <cc:Work
         rdf:about="">
        <dc:format>image/svg+xml</dc:format>
        <dc:type
           rdf:resource="http://purl.org/dc/dcmitype/StillImage" />
        <dc:title></dc:title>
      </cc:Work>
    </rdf:RDF>
  </metadata>
  <g
     inkscape:label="Layer 1"
     inkscape:groupmode="layer"
     id="layer1"
     transform="translate(0,-293.25)">
    <path
       inkscape:connector-curvature="0"
       id="path13099"
       d="m 3.2119594,296.87511 c 0.2287553,0 0.4175442,-0.18603 0.4175442,-0.41754 v -2.65962 c 0,-0.23013 -0.1887889,-0.41754 -0.4175442,-0.41754 H 0.55234658 c -0.23151041,0 -0.4189236,0.18741 -0.4189236,0.41754 v 2.65962 c 0,0.23151 0.18741319,0.41754 0.4189236,0.41754 z m 0,0"
       style="fill:#211e1e;fill-opacity:1;fill-rule:nonzero;stroke:none;stroke-width:0.35277775" />
    <path
       inkscape:connector-curvature="0"
       id="path13101"
       d="m 0.55234658,293.45069 c -0.19154775,0 -0.34726738,0.15572 -0.34726738,0.34726 v 2.65962 c 0,0.19154 0.15571963,0.34726 0.34726738,0.34726 H 3.2119594 c 0.1915477,0 0.3458879,-0.15572 0.3458879,-0.34726 v -2.65962 c 0,-0.19154 -0.1543402,-0.34726 -0.3458879,-0.34726 z m 0,0"
       style="fill:#ffffff;fill-opacity:1;fill-rule:nonzero;stroke:none;stroke-width:0.35277775" />
    <path
       inkscape:connector-curvature="0"
       id="path13103"
       d="m 1.8132484,296.44655 c -0.212217,0 -0.3830919,-0.17088 -0.3830919,-0.3831 0,-0.21084 0.1708749,-0.38309 0.3830919,-0.38309 0.2122205,0 0.3830955,0.17225 0.3830955,0.38309 0,0.21222 -0.170875,0.3831 -0.3830955,0.3831 m 0.1653646,-0.3831 c 0,-0.091 -0.073036,-0.16536 -0.1653646,-0.16536 -0.09095,0 -0.1667404,0.0744 -0.1667404,0.16536 0,0.091 0.075791,0.16537 0.1667404,0.16537 0.092329,0 0.1653646,-0.0744 0.1653646,-0.16537"
       style="fill:#211e1e;fill-opacity:1;fill-rule:nonzero;stroke:none;stroke-width:0.35277775" />
    <path
       inkscape:connector-curvature="0"
       id="path13105"
       d="m 1.0029638,295.7024 c 0.027552,-0.19292 0.1061085,-0.28938 0.16123,-0.30316 0.3210842,-0.073 0.8819444,-0.11163 1.1093202,-0.12678 l -0.5732638,-0.94671 h 0.1722543 l 0.5567292,0.92052 0.3582882,-0.58429 c 0.016544,-0.0275 0.078549,-0.0937 0.2025719,-0.0937 h 0.3706918 v 0.14745 H 2.9900938 c 0,0 -0.041342,-0.003 -0.074415,0.0275 -0.01792,0.0165 -0.030304,0.0413 -0.062011,0.0937 l -0.2521797,0.42443 h 0.7028004 v 0.76757 H 2.3424151 c -0.016545,-0.27974 -0.2466658,-0.5016 -0.5305425,-0.5016 -0.2852561,0 -0.5140078,0.22186 -0.530546,0.5016 h -0.212217 c -0.055121,0 -0.099219,-0.0441 -0.099219,-0.0992 z m 0,0"
       style="fill:#211e1e;fill-opacity:1;fill-rule:nonzero;stroke:none;stroke-width:0.35277775" />
    <path
       inkscape:connector-curvature="0"
       id="path13107"
       d="m 0.43383442,293.70838 c 0.16536458,0 0.69453128,0.23427 0.90536888,0.59945 l -0.2218619,0.18052 c 0,0 -0.23564505,-0.3197 -0.68350698,-0.40238 z m 0,0"
       style="fill:#211e1e;fill-opacity:1;fill-rule:nonzero;stroke:none;stroke-width:0.35277775" />
    <path
       inkscape:connector-curvature="0"
       id="path13109"
       d="m 1.1049377,295.01752 c 0,0.10749 0.085439,0.1943 0.1929271,0.1943 0.1061085,0 0.1929236,-0.0868 0.1929236,-0.1943 0,-0.10611 -0.1929236,-0.54984 -0.1929236,-0.54984 0,0 -0.1929271,0.44373 -0.1929271,0.54984"
       style="fill:#211e1e;fill-opacity:1;fill-rule:nonzero;stroke:none;stroke-width:0.35277775" />
  </g>
</svg>
