<?xml version="1.0" encoding="UTF-8" standalone="no"?>
<!-- Created with Inkscape (http://www.inkscape.org/) -->

<svg
   xmlns:dc="http://purl.org/dc/elements/1.1/"
   xmlns:cc="http://creativecommons.org/ns#"
   xmlns:rdf="http://www.w3.org/1999/02/22-rdf-syntax-ns#"
   xmlns:svg="http://www.w3.org/2000/svg"
   xmlns="http://www.w3.org/2000/svg"
   xmlns:sodipodi="http://sodipodi.sourceforge.net/DTD/sodipodi-0.dtd"
   xmlns:inkscape="http://www.inkscape.org/namespaces/inkscape"
   width="3.75mm"
   height="3.75mm"
   viewBox="0 0 3.75 3.75"
   version="1.1"
   id="svg13826"
   inkscape:version="0.92.1 r15371"
   sodipodi:docname="tramway_dark.svg">
  <defs
     id="defs13820" />
  <sodipodi:namedview
     id="base"
     pagecolor="#ffffff"
     bordercolor="#666666"
     borderopacity="1.0"
     inkscape:pageopacity="0.0"
     inkscape:pageshadow="2"
     inkscape:zoom="28.687777"
     inkscape:cx="7.288884"
     inkscape:cy="6.4105833"
     inkscape:document-units="mm"
     inkscape:current-layer="layer1"
     showgrid="false"
     inkscape:window-width="644"
     inkscape:window-height="699"
     inkscape:window-x="714"
     inkscape:window-y="32"
     inkscape:window-maximized="0"
     showguides="true"
     inkscape:guide-bbox="true"
     gridtolerance="10"
     guidetolerance="2">
    <inkscape:grid
       type="xygrid"
       id="grid13828" />
    <sodipodi:guide
       position="0.13043093,3.8477124"
       orientation="1,0"
       id="guide20533"
       inkscape:locked="false" />
    <sodipodi:guide
       position="1.9173346,3.6129367"
       orientation="0,1"
       id="guide20535"
       inkscape:locked="false" />
  </sodipodi:namedview>
  <metadata
     id="metadata13823">
    <rdf:RDF>
      <cc:Work
         rdf:about="">
        <dc:format>image/svg+xml</dc:format>
        <dc:type
           rdf:resource="http://purl.org/dc/dcmitype/StillImage" />
        <dc:title></dc:title>
      </cc:Work>
    </rdf:RDF>
  </metadata>
  <g
     inkscape:label="Layer 1"
     inkscape:groupmode="layer"
     id="layer1"
     transform="translate(0,-293.25)">
    <path
       inkscape:connector-curvature="0"
       id="path2213"
       d="m 0.55510355,293.44698 c -0.19154775,0 -0.34726738,0.15434 -0.34726738,0.34588 v 2.65273 c 0,0.19155 0.15571963,0.34589 0.34726738,0.34589 H 3.2078266 c 0.1915477,0 0.3458879,-0.15434 0.3458879,-0.34589 v -2.65273 c 0,-0.19154 -0.1543402,-0.34588 -0.3458879,-0.34588 z m 0,0"
       style="fill:#ffffff;fill-opacity:1;fill-rule:nonzero;stroke:none;stroke-width:0.35277775" />
    <path
       inkscape:connector-curvature="0"
       id="path2215"
       d="m 3.2078266,296.86176 c 0.2301311,0 0.4175442,-0.18604 0.4175442,-0.41617 v -2.65273 c 0,-0.23013 -0.1874131,-0.41754 -0.4175442,-0.41754 H 0.55510355 c -0.23151041,0 -0.41754777,0.18741 -0.41754777,0.41754 v 2.65273 c 0,0.23013 0.18603736,0.41617 0.41754777,0.41617 z m 0,0"
       style="fill:#211e1e;fill-opacity:1;fill-rule:nonzero;stroke:none;stroke-width:0.35277775" />
    <path
       inkscape:connector-curvature="0"
       id="path2217"
       d="m 3.3042902,293.88244 v -0.0992 l -2.91041668,1.10105 v 0.0992 z m 0,0"
       style="fill:#ffffff;fill-opacity:1;fill-rule:nonzero;stroke:none;stroke-width:0.35277775" />
    <path
       inkscape:connector-curvature="0"
       id="path2219"
       d="m 1.6713136,294.27242 c 0.086815,0 0.1570955,-0.0717 0.1570955,-0.15847 0,-0.0882 -0.07028,-0.15848 -0.1570955,-0.15848 -0.086815,0 -0.1584748,0.0703 -0.1584748,0.15848 0,0.0868 0.07166,0.15847 0.1584748,0.15847"
       style="fill:#ffffff;fill-opacity:1;fill-rule:nonzero;stroke:none;stroke-width:0.35277775" />
    <path
       inkscape:connector-curvature="0"
       id="path2221"
       d="m 2.6566113,295.66562 c 0,0.0303 -0.0248,0.0537 -0.055121,0.0537 H 2.2680054 c -0.030304,0 -0.055121,-0.0234 -0.055121,-0.0537 v -0.33349 c 0,-0.0303 0.0248,-0.0551 0.055121,-0.0551 h 0.3334844 c 0.030304,0 0.055121,0.0248 0.055121,0.0551 z m -0.5388116,0 c 0,0.0303 -0.0248,0.0537 -0.055122,0.0537 h -0.332108 c -0.03168,0 -0.055122,-0.0234 -0.055122,-0.0537 v -0.33349 c 0,-0.0303 0.023424,-0.0551 0.055122,-0.0551 h 0.3321085 c 0.030304,0 0.055122,0.0248 0.055122,0.0551 z m -0.5429497,0.004 c 0,0.0303 -0.023424,0.0551 -0.053742,0.0551 H 1.1876235 c -0.030304,0 -0.055122,-0.0248 -0.055122,-0.0551 v -0.33349 c 0,-0.0303 0.0248,-0.0551 0.055122,-0.0551 h 0.3334844 c 0.030304,0 0.053742,0.0248 0.053742,0.0551 z m 1.0762474,-0.5774 H 1.9455419 v -0.57189 l -0.097839,0.04 v 0.53192 H 1.1352572 c -0.055121,0 -0.1005981,0.0455 -0.1005981,0.10198 v 1.06109 c 0,0.0565 0.045477,0.10197 0.1005981,0.10197 h 1.5158402 c 0.056501,0 0.1019775,-0.0455 0.1019775,-0.10197 v -1.06109 c 0,-0.0565 -0.045477,-0.10198 -0.1019775,-0.10198"
       style="fill:#ffffff;fill-opacity:1;fill-rule:nonzero;stroke:none;stroke-width:0.35277775" />
    <path
       inkscape:connector-curvature="0"
       id="path2223"
       d="m 2.0488952,294.13048 c 0.086819,0 0.1584748,-0.0703 0.1584748,-0.15847 0,-0.0868 -0.071656,-0.15847 -0.1584748,-0.15847 -0.086815,0 -0.1570955,0.0716 -0.1570955,0.15847 0,0.0882 0.07028,0.15847 0.1570955,0.15847"
       style="fill:#ffffff;fill-opacity:1;fill-rule:nonzero;stroke:none;stroke-width:0.35277775" />
  </g>
</svg>
