<?xml version="1.0" encoding="UTF-8" standalone="no"?>
<!-- Created with Inkscape (http://www.inkscape.org/) -->

<svg
   xmlns:dc="http://purl.org/dc/elements/1.1/"
   xmlns:cc="http://creativecommons.org/ns#"
   xmlns:rdf="http://www.w3.org/1999/02/22-rdf-syntax-ns#"
   xmlns:svg="http://www.w3.org/2000/svg"
   xmlns="http://www.w3.org/2000/svg"
   xmlns:sodipodi="http://sodipodi.sourceforge.net/DTD/sodipodi-0.dtd"
   xmlns:inkscape="http://www.inkscape.org/namespaces/inkscape"
   width="3.75mm"
   height="3.75mm"
   viewBox="0 0 3.75 3.75"
   version="1.1"
   id="svg13826"
   inkscape:version="0.92.1 r15371"
   sodipodi:docname="tramway_light.svg">
  <defs
     id="defs13820" />
  <sodipodi:namedview
     id="base"
     pagecolor="#ffffff"
     bordercolor="#666666"
     borderopacity="1.0"
     inkscape:pageopacity="0.0"
     inkscape:pageshadow="2"
     inkscape:zoom="28.687777"
     inkscape:cx="7.288884"
     inkscape:cy="6.4105833"
     inkscape:document-units="mm"
     inkscape:current-layer="layer1"
     showgrid="false"
     inkscape:window-width="644"
     inkscape:window-height="699"
     inkscape:window-x="714"
     inkscape:window-y="32"
     inkscape:window-maximized="0"
     showguides="true"
     inkscape:guide-bbox="true"
     gridtolerance="10"
     guidetolerance="2">
    <inkscape:grid
       type="xygrid"
       id="grid13828" />
    <sodipodi:guide
       position="0.13043093,3.8477124"
       orientation="1,0"
       id="guide20533"
       inkscape:locked="false" />
    <sodipodi:guide
       position="1.9173346,3.6129367"
       orientation="0,1"
       id="guide20535"
       inkscape:locked="false" />
  </sodipodi:namedview>
  <metadata
     id="metadata13823">
    <rdf:RDF>
      <cc:Work
         rdf:about="">
        <dc:format>image/svg+xml</dc:format>
        <dc:type
           rdf:resource="http://purl.org/dc/dcmitype/StillImage" />
        <dc:title></dc:title>
      </cc:Work>
    </rdf:RDF>
  </metadata>
  <g
     inkscape:label="Layer 1"
     inkscape:groupmode="layer"
     id="layer1"
     transform="translate(0,-293.25)">
    <path
       inkscape:connector-curvature="0"
       id="path4459"
       d="m 3.1986037,296.85254 c 0.2301311,0 0.4175442,-0.18604 0.4175442,-0.41617 v -2.65273 c 0,-0.23013 -0.1874131,-0.41754 -0.4175442,-0.41754 h -2.652723 c -0.23013458,0 -0.41754777,0.18741 -0.41754777,0.41754 v 2.65273 c 0,0.23013 0.18741319,0.41617 0.41754777,0.41617 z m 0,0"
       style="fill:#211e1e;fill-opacity:1;fill-rule:nonzero;stroke:none;stroke-width:0.35277775" />
    <path
       inkscape:connector-curvature="0"
       id="path4461"
       d="m 0.5458807,293.43776 c -0.19154775,0 -0.34588802,0.15434 -0.34588802,0.34588 v 2.65273 c 0,0.19155 0.15434027,0.34589 0.34588802,0.34589 h 2.652723 c 0.1915477,0 0.3472637,-0.15434 0.3472637,-0.34589 v -2.65273 c 0,-0.19154 -0.155716,-0.34588 -0.3472637,-0.34588 z m 0,0"
       style="fill:#ffffff;fill-opacity:1;fill-rule:nonzero;stroke:none;stroke-width:0.35277775" />
    <path
       inkscape:connector-curvature="0"
       id="path4463"
       d="m 3.2964431,293.87322 v -0.0992 l -2.91041659,1.10105 v 0.0992 z m 0,0"
       style="fill:#211e1e;fill-opacity:1;fill-rule:nonzero;stroke:none;stroke-width:0.35277775" />
    <path
       inkscape:connector-curvature="0"
       id="path4465"
       d="m 1.6620907,294.2632 c 0.086815,0 0.1584748,-0.0717 0.1584748,-0.15847 0,-0.0882 -0.07166,-0.15848 -0.1584748,-0.15848 -0.086815,0 -0.1584748,0.0703 -0.1584748,0.15848 0,0.0868 0.07166,0.15847 0.1584748,0.15847"
       style="fill:#211e1e;fill-opacity:1;fill-rule:nonzero;stroke:none;stroke-width:0.35277775" />
    <path
       inkscape:connector-curvature="0"
       id="path4467"
       d="m 2.6473884,295.6564 c 0,0.0303 -0.0248,0.0537 -0.055121,0.0537 H 2.2587825 c -0.030304,0 -0.055121,-0.0234 -0.055121,-0.0537 v -0.33349 c 0,-0.0303 0.0248,-0.0551 0.055121,-0.0551 h 0.3334844 c 0.030304,0 0.055121,0.0248 0.055121,0.0551 z m -0.5388116,0 c 0,0.0303 -0.0248,0.0537 -0.055122,0.0537 h -0.332108 c -0.030304,0 -0.055122,-0.0234 -0.055122,-0.0537 v -0.33349 c 0,-0.0303 0.0248,-0.0551 0.055122,-0.0551 h 0.3321085 c 0.030304,0 0.055122,0.0248 0.055122,0.0551 z m -0.5415703,0.004 c 0,0.0303 -0.0248,0.0551 -0.055122,0.0551 H 1.1784006 c -0.030304,0 -0.055121,-0.0248 -0.055121,-0.0551 v -0.33349 c 0,-0.0303 0.0248,-0.0551 0.055121,-0.0551 H 1.511885 c 0.030304,0 0.055122,0.0248 0.055122,0.0551 z M 2.6432539,295.083 H 1.9376983 v -0.57189 l -0.099219,0.04 v 0.53192 H 1.1274136 c -0.056501,0 -0.1019774,0.0455 -0.1019774,0.10198 v 1.06109 c 0,0.0565 0.045477,0.10197 0.1019774,0.10197 h 1.5158403 c 0.055121,0 0.1005981,-0.0455 0.1005981,-0.10197 v -1.06109 c 0,-0.0565 -0.045477,-0.10198 -0.1005981,-0.10198"
       style="fill:#211e1e;fill-opacity:1;fill-rule:nonzero;stroke:none;stroke-width:0.35277775" />
    <path
       inkscape:connector-curvature="0"
       id="path4469"
       d="m 2.0396723,294.12126 c 0.088194,0 0.1584748,-0.0703 0.1584748,-0.15847 0,-0.0868 -0.07028,-0.15847 -0.1584748,-0.15847 -0.086815,0 -0.1570955,0.0716 -0.1570955,0.15847 0,0.0882 0.07028,0.15847 0.1570955,0.15847"
       style="fill:#211e1e;fill-opacity:1;fill-rule:nonzero;stroke:none;stroke-width:0.35277775" />
  </g>
</svg>
