<?xml version="1.0" encoding="UTF-8" standalone="no"?>
<!-- Created with Inkscape (http://www.inkscape.org/) -->

<svg
   xmlns:dc="http://purl.org/dc/elements/1.1/"
   xmlns:cc="http://creativecommons.org/ns#"
   xmlns:rdf="http://www.w3.org/1999/02/22-rdf-syntax-ns#"
   xmlns:svg="http://www.w3.org/2000/svg"
   xmlns="http://www.w3.org/2000/svg"
   xmlns:sodipodi="http://sodipodi.sourceforge.net/DTD/sodipodi-0.dtd"
   xmlns:inkscape="http://www.inkscape.org/namespaces/inkscape"
   width="3.75mm"
   height="3.75mm"
   viewBox="0 0 3.75 3.75"
   version="1.1"
   id="svg13826"
   inkscape:version="0.92.1 r15371"
   sodipodi:docname="truck_dark.svg">
  <defs
     id="defs13820" />
  <sodipodi:namedview
     id="base"
     pagecolor="#ffffff"
     bordercolor="#666666"
     borderopacity="1.0"
     inkscape:pageopacity="0.0"
     inkscape:pageshadow="2"
     inkscape:zoom="28.687777"
     inkscape:cx="7.288884"
     inkscape:cy="6.4105833"
     inkscape:document-units="mm"
     inkscape:current-layer="layer1"
     showgrid="false"
     inkscape:window-width="644"
     inkscape:window-height="699"
     inkscape:window-x="714"
     inkscape:window-y="32"
     inkscape:window-maximized="0"
     showguides="true"
     inkscape:guide-bbox="true"
     gridtolerance="10"
     guidetolerance="2">
    <inkscape:grid
       type="xygrid"
       id="grid13828" />
    <sodipodi:guide
       position="0.13043093,3.8477124"
       orientation="1,0"
       id="guide20533"
       inkscape:locked="false" />
    <sodipodi:guide
       position="1.9173346,3.6129367"
       orientation="0,1"
       id="guide20535"
       inkscape:locked="false" />
  </sodipodi:namedview>
  <metadata
     id="metadata13823">
    <rdf:RDF>
      <cc:Work
         rdf:about="">
        <dc:format>image/svg+xml</dc:format>
        <dc:type
           rdf:resource="http://purl.org/dc/dcmitype/StillImage" />
        <dc:title></dc:title>
      </cc:Work>
    </rdf:RDF>
  </metadata>
  <g
     inkscape:label="Layer 1"
     inkscape:groupmode="layer"
     id="layer1"
     transform="translate(0,-293.25)">
    <path
       inkscape:connector-curvature="0"
       id="path3847"
       d="m 0.55579146,293.44698 c -0.19154775,0 -0.34726738,0.15434 -0.34726738,0.34588 v 2.65273 c 0,0.19155 0.15571963,0.34589 0.34726738,0.34589 H 3.2085145 c 0.1901684,0 0.3458879,-0.15434 0.3458879,-0.34589 v -2.65273 c 0,-0.19154 -0.1557195,-0.34588 -0.3458879,-0.34588 z m 0,0"
       style="fill:#ffffff;fill-opacity:1;fill-rule:nonzero;stroke:none;stroke-width:0.35277775" />
    <path
       inkscape:connector-curvature="0"
       id="path3849"
       d="m 3.2085145,296.86176 c 0.2301311,0 0.4161684,-0.18604 0.4161684,-0.41617 v -2.65273 c 0,-0.23013 -0.1860373,-0.41754 -0.4161684,-0.41754 H 0.55579146 c -0.23013458,0 -0.41754777,0.18741 -0.41754777,0.41754 v 2.65273 c 0,0.23013 0.18741319,0.41617 0.41754777,0.41617 z m 0,0"
       style="fill:#211e1e;fill-opacity:1;fill-rule:nonzero;stroke:none;stroke-width:0.35277775" />
    <path
       inkscape:connector-curvature="0"
       id="path3851"
       d="m 2.664189,295.2398 -0.027552,-0.40927 c -0.0055,-0.0593 -0.055121,-0.10473 -0.1157569,-0.10473 H 1.3950215 c -0.060632,0 -0.110243,0.0455 -0.1157534,0.10473 l -0.026176,0.40927 z m 0.2370244,0.42031 c 0,-0.0841 -0.067525,-0.15296 -0.1515852,-0.15296 -0.08406,0 -0.1529644,0.0689 -0.1529644,0.15296 0,0.0841 0.068904,0.15158 0.1529644,0.15158 0.08406,0 0.1515852,-0.0675 0.1515852,-0.15158 m -0.443731,0.22737 v -0.38309 c 0,-0.0386 -0.03168,-0.0689 -0.068901,-0.0689 h -0.862651 c -0.037207,0 -0.068901,0.0303 -0.068901,0.0689 v 0.38309 z m -1.2898437,-0.0758 c 0.082684,0 0.151585,-0.0675 0.151585,-0.15158 0,-0.0841 -0.068901,-0.15296 -0.151585,-0.15296 -0.08406,0 -0.152961,0.0689 -0.152961,0.15296 0,0.0841 0.068901,0.15158 0.152961,0.15158 M 2.520873,294.6183 c 0.1171328,0 0.212217,0.0896 0.2218655,0.20395 l 0.028928,0.42168 0.2797421,0.1695 v 0.71244 H 2.9260064 v 0.23289 c 0,0.1006 -0.081305,0.1819 -0.1819027,0.1819 -0.099219,0 -0.1805234,-0.0813 -0.1805234,-0.1819 v -0.23289 H 1.3522861 l 0.00141,0.23289 c 0,0.1006 -0.081305,0.1819 -0.1819028,0.1819 -0.1005946,0 -0.18189929,-0.0813 -0.18189929,-0.1819 v -0.23289 H 0.86586812 l -0.00141,-0.71244 0.28111798,-0.1695 0.027552,-0.42168 c 0.00963,-0.11438 0.1047291,-0.20395 0.2218619,-0.20395 z m 0,0"
       style="fill:#ffffff;fill-opacity:1;fill-rule:nonzero;stroke:none;stroke-width:0.35277775" />
    <path
       inkscape:connector-curvature="0"
       id="path3853"
       d="m 2.8502229,293.80664 c 0.1116224,0 0.201196,0.0896 0.201196,0.19982 v 1.2926 l -0.184658,-0.113 -0.024799,-0.37758 c -0.016546,-0.16261 -0.154341,-0.29077 -0.321085,-0.29077 H 1.395018 c -0.1667404,0 -0.304546,0.12816 -0.3210807,0.29077 l -0.023424,0.37758 -0.1860338,0.113 0.00141,-1.2926 c 7.9e-7,-0.11024 0.0895746,-0.19982 0.1998176,-0.19982 z m 0,0"
       style="fill:#ffffff;fill-opacity:1;fill-rule:nonzero;stroke:none;stroke-width:0.35277775" />
  </g>
</svg>
