<?xml version="1.0" encoding="UTF-8" standalone="no"?>
<!-- Created with Inkscape (http://www.inkscape.org/) -->

<svg
   xmlns:dc="http://purl.org/dc/elements/1.1/"
   xmlns:cc="http://creativecommons.org/ns#"
   xmlns:rdf="http://www.w3.org/1999/02/22-rdf-syntax-ns#"
   xmlns:svg="http://www.w3.org/2000/svg"
   xmlns="http://www.w3.org/2000/svg"
   xmlns:sodipodi="http://sodipodi.sourceforge.net/DTD/sodipodi-0.dtd"
   xmlns:inkscape="http://www.inkscape.org/namespaces/inkscape"
   width="3.75mm"
   height="3.75mm"
   viewBox="0 0 3.75 3.75"
   version="1.1"
   id="svg13826"
   inkscape:version="0.92.1 r15371"
   sodipodi:docname="alcohol_light.svg">
  <defs
     id="defs13820" />
  <sodipodi:namedview
     id="base"
     pagecolor="#ffffff"
     bordercolor="#666666"
     borderopacity="1.0"
     inkscape:pageopacity="0.0"
     inkscape:pageshadow="2"
     inkscape:zoom="20.285322"
     inkscape:cx="7.2558826"
     inkscape:cy="6.7152255"
     inkscape:document-units="mm"
     inkscape:current-layer="layer1"
     showgrid="false"
     inkscape:window-width="608"
     inkscape:window-height="712"
     inkscape:window-x="758"
     inkscape:window-y="27"
     inkscape:window-maximized="0"
     showguides="true"
     inkscape:guide-bbox="true"
     gridtolerance="10"
     guidetolerance="2">
    <inkscape:grid
       type="xygrid"
       id="grid13828" />
    <sodipodi:guide
       position="0.13043093,3.8477124"
       orientation="1,0"
       id="guide20533"
       inkscape:locked="false" />
    <sodipodi:guide
       position="1.9173346,3.6129367"
       orientation="0,1"
       id="guide20535"
       inkscape:locked="false" />
  </sodipodi:namedview>
  <metadata
     id="metadata13823">
    <rdf:RDF>
      <cc:Work
         rdf:about="">
        <dc:format>image/svg+xml</dc:format>
        <dc:type
           rdf:resource="http://purl.org/dc/dcmitype/StillImage" />
        <dc:title></dc:title>
      </cc:Work>
    </rdf:RDF>
  </metadata>
  <g
     inkscape:label="Layer 1"
     inkscape:groupmode="layer"
     id="layer1"
     transform="translate(0,-293.25)">
    <path
       inkscape:connector-curvature="0"
       id="path10445"
       d="m 3.2182979,296.87806 c 0.2301309,0 0.4161684,-0.18604 0.4161684,-0.41617 v -2.65273 c 0,-0.23013 -0.1860375,-0.41754 -0.4161684,-0.41754 H 0.56557482 c -0.23151042,0 -0.41754425,0.18741 -0.41754425,0.41754 v 2.65273 c 0,0.23013 0.18603383,0.41617 0.41754425,0.41617 z m 0,0"
       style="fill:#211e1e;fill-opacity:1;fill-rule:nonzero;stroke:none;stroke-width:0.35277775" />
    <path
       inkscape:connector-curvature="0"
       id="path10447"
       d="m 0.56281961,293.4619 c -0.19154774,0 -0.34588801,0.15572 -0.34588801,0.34726 v 2.65411 c 0,0.19017 0.15434027,0.34588 0.34588801,0.34588 H 3.2182979 c 0.1901682,0 0.345888,-0.15571 0.345888,-0.34588 v -2.65411 c 0,-0.19154 -0.1557198,-0.34726 -0.345888,-0.34726 z m 0,0"
       style="fill:#ffffff;fill-opacity:1;fill-rule:nonzero;stroke:none;stroke-width:0.35277775" />
    <path
       inkscape:connector-curvature="0"
       id="path10449"
       d="m 2.8393368,294.55055 c 0.1667441,0.0413 0.292146,0.19155 0.292146,0.37207 v 1.38217 c 0,0.0427 -0.034466,0.0772 -0.075794,0.0772 h -0.752408 c -0.042718,0 -0.07717,-0.0344 -0.07717,-0.0772 v -1.38217 c 0,-0.18052 0.1254019,-0.33211 0.2935217,-0.37207 v -0.61874 h 0.3197047 z m 0,0"
       style="fill:#211e1e;fill-opacity:1;fill-rule:nonzero;stroke:none;stroke-width:0.35277775" />
    <path
       inkscape:connector-curvature="0"
       id="path10451"
       d="m 1.7286373,296.28688 -0.4437274,-0.0854 v -0.84474 L 1.943613,294.68288 H 0.47738036 l 0.65870314,0.67386 v 0.84474 l -0.44373096,0.0854 c 0,0 -0.0537421,0.01 -0.0537421,0.0868 H 1.782383 c 0,-0.0772 -0.053746,-0.0868 -0.053746,-0.0868"
       style="fill:#211e1e;fill-opacity:1;fill-rule:nonzero;stroke:none;stroke-width:0.35277775" />
  </g>
</svg>
