<?xml version="1.0" encoding="UTF-8" standalone="no"?>
<!-- Created with Inkscape (http://www.inkscape.org/) -->

<svg
   xmlns:dc="http://purl.org/dc/elements/1.1/"
   xmlns:cc="http://creativecommons.org/ns#"
   xmlns:rdf="http://www.w3.org/1999/02/22-rdf-syntax-ns#"
   xmlns:svg="http://www.w3.org/2000/svg"
   xmlns="http://www.w3.org/2000/svg"
   xmlns:sodipodi="http://sodipodi.sourceforge.net/DTD/sodipodi-0.dtd"
   xmlns:inkscape="http://www.inkscape.org/namespaces/inkscape"
   width="3.75mm"
   height="3.75mm"
   viewBox="0 0 3.75 3.75"
   version="1.1"
   id="svg13826"
   inkscape:version="0.92.1 r15371"
   sodipodi:docname="art_dark.svg">
  <defs
     id="defs13820" />
  <sodipodi:namedview
     id="base"
     pagecolor="#ffffff"
     bordercolor="#666666"
     borderopacity="1.0"
     inkscape:pageopacity="0.0"
     inkscape:pageshadow="2"
     inkscape:zoom="20.285322"
     inkscape:cx="7.2558826"
     inkscape:cy="6.7152255"
     inkscape:document-units="mm"
     inkscape:current-layer="layer1"
     showgrid="false"
     inkscape:window-width="608"
     inkscape:window-height="712"
     inkscape:window-x="758"
     inkscape:window-y="27"
     inkscape:window-maximized="0"
     showguides="true"
     inkscape:guide-bbox="true"
     gridtolerance="10"
     guidetolerance="2">
    <inkscape:grid
       type="xygrid"
       id="grid13828" />
    <sodipodi:guide
       position="0.13043093,3.8477124"
       orientation="1,0"
       id="guide20533"
       inkscape:locked="false" />
    <sodipodi:guide
       position="1.9173346,3.6129367"
       orientation="0,1"
       id="guide20535"
       inkscape:locked="false" />
  </sodipodi:namedview>
  <metadata
     id="metadata13823">
    <rdf:RDF>
      <cc:Work
         rdf:about="">
        <dc:format>image/svg+xml</dc:format>
        <dc:type
           rdf:resource="http://purl.org/dc/dcmitype/StillImage" />
        <dc:title></dc:title>
      </cc:Work>
    </rdf:RDF>
  </metadata>
  <g
     inkscape:label="Layer 1"
     inkscape:groupmode="layer"
     id="layer1"
     transform="translate(0,-293.25)">
    <path
       inkscape:connector-curvature="0"
       id="path10007"
       d="m 0.55115235,293.46189 c -0.19016838,0 -0.34588801,0.15572 -0.34588801,0.34588 v 2.65411 c 0,0.19017 0.15571963,0.34451 0.34588801,0.34451 H 3.2052548 c 0.1901682,0 0.345888,-0.15434 0.345888,-0.34451 v -2.65411 c 0,-0.19016 -0.1557198,-0.34588 -0.345888,-0.34588 z m 0,0"
       style="fill:#ffffff;fill-opacity:1;fill-rule:nonzero;stroke:none;stroke-width:0.35277775" />
    <path
       inkscape:connector-curvature="0"
       id="path10009"
       d="m 3.2052548,296.87805 c 0.2301309,0 0.4161684,-0.18604 0.4161684,-0.41617 v -2.65411 c 0,-0.23013 -0.1860375,-0.41616 -0.4161684,-0.41616 H 0.55115235 c -0.23013104,0 -0.41616487,0.18603 -0.41616487,0.41616 v 2.65411 c 0,0.23013 0.18603383,0.41617 0.41616487,0.41617 z m 0,0"
       style="fill:#211e1e;fill-opacity:1;fill-rule:nonzero;stroke:none;stroke-width:0.35277775" />
    <path
       inkscape:connector-curvature="0"
       id="path10011"
       d="m 1.0444909,294.92812 -0.0937048,-0.29352 c -0.022049,-0.073 -0.041342,-0.15434 -0.0592561,-0.22324 h -0.004127 c -0.0165453,0.0689 -0.0372075,0.15296 -0.0551216,0.22324 l -0.092329,0.29352 z m -0.34037411,0.16399 -0.10197746,0.33624 H 0.3775222 L 0.75923833,294.2391 H 1.0362218 l 0.38723,1.18925 H 1.1878069 l -0.1074878,-0.33624 z m 0,0"
       style="fill:#ffffff;fill-opacity:1;fill-rule:nonzero;stroke:none;stroke-width:0.35277775" />
    <path
       inkscape:connector-curvature="0"
       id="path10013"
       d="m 1.8024128,294.78067 h 0.1295365 c 0.1460711,0 0.2370207,-0.0772 0.2370207,-0.19568 0,-0.12954 -0.09095,-0.19017 -0.2315103,-0.19017 -0.068901,0 -0.1129983,0.004 -0.1350469,0.01 z m -0.2149757,-0.52365 c 0.082684,-0.0165 0.202572,-0.0276 0.3279739,-0.0276 0.1722544,0 0.286632,0.0289 0.3679367,0.0965 0.064766,0.0538 0.1019739,0.13781 0.1019739,0.23978 0,0.15297 -0.1033533,0.2577 -0.2163516,0.29628 v 0.006 c 0.085439,0.0317 0.1378056,0.11438 0.1653646,0.23013 0.038587,0.14745 0.07028,0.28525 0.093708,0.33073 H 2.2061775 c -0.017921,-0.0344 -0.048232,-0.13229 -0.079925,-0.27974 -0.035832,-0.15572 -0.089574,-0.20533 -0.2135964,-0.20946 h -0.110243 v 0.4892 h -0.214976 z m 0,0"
       style="fill:#ffffff;fill-opacity:1;fill-rule:nonzero;stroke:none;stroke-width:0.35277775" />
    <path
       inkscape:connector-curvature="0"
       id="path10015"
       d="M 2.819404,294.421 H 2.4804058 v -0.1819 h 0.8984826 v 0.1819 H 3.0357556 v 1.00735 H 2.819404 Z m 0,0"
       style="fill:#ffffff;fill-opacity:1;fill-rule:nonzero;stroke:none;stroke-width:0.35277775" />
    <path
       inkscape:connector-curvature="0"
       id="path10017"
       d="m 0.59524958,296.16836 c 0,0 1.06246792,-0.66146 2.56590792,-0.33762 l -0.3417535,0.45199 c 0,0 -1.0693576,-0.47404 -2.15387405,-0.001 z m 0,0"
       style="fill:#ffffff;fill-opacity:1;fill-rule:nonzero;stroke:none;stroke-width:0.35277775" />
  </g>
</svg>
