<?xml version="1.0" encoding="UTF-8" standalone="no"?>
<!-- Created with Inkscape (http://www.inkscape.org/) -->

<svg
   xmlns:dc="http://purl.org/dc/elements/1.1/"
   xmlns:cc="http://creativecommons.org/ns#"
   xmlns:rdf="http://www.w3.org/1999/02/22-rdf-syntax-ns#"
   xmlns:svg="http://www.w3.org/2000/svg"
   xmlns="http://www.w3.org/2000/svg"
   xmlns:sodipodi="http://sodipodi.sourceforge.net/DTD/sodipodi-0.dtd"
   xmlns:inkscape="http://www.inkscape.org/namespaces/inkscape"
   width="3.75mm"
   height="3.75mm"
   viewBox="0 0 3.75 3.75"
   version="1.1"
   id="svg13826"
   inkscape:version="0.92.1 r15371"
   sodipodi:docname="baby_changing_dark.svg">
  <defs
     id="defs13820" />
  <sodipodi:namedview
     id="base"
     pagecolor="#ffffff"
     bordercolor="#666666"
     borderopacity="1.0"
     inkscape:pageopacity="0.0"
     inkscape:pageshadow="2"
     inkscape:zoom="20.285322"
     inkscape:cx="6.1728815"
     inkscape:cy="6.7152255"
     inkscape:document-units="mm"
     inkscape:current-layer="layer1"
     showgrid="false"
     inkscape:window-width="608"
     inkscape:window-height="712"
     inkscape:window-x="790"
     inkscape:window-y="47"
     inkscape:window-maximized="0"
     showguides="true"
     inkscape:guide-bbox="true"
     gridtolerance="10"
     guidetolerance="2">
    <inkscape:grid
       type="xygrid"
       id="grid13828" />
    <sodipodi:guide
       position="0.13043093,3.8477124"
       orientation="1,0"
       id="guide20533"
       inkscape:locked="false" />
    <sodipodi:guide
       position="1.9173346,3.6129367"
       orientation="0,1"
       id="guide20535"
       inkscape:locked="false" />
  </sodipodi:namedview>
  <metadata
     id="metadata13823">
    <rdf:RDF>
      <cc:Work
         rdf:about="">
        <dc:format>image/svg+xml</dc:format>
        <dc:type
           rdf:resource="http://purl.org/dc/dcmitype/StillImage" />
        <dc:title></dc:title>
      </cc:Work>
    </rdf:RDF>
  </metadata>
  <g
     inkscape:label="Layer 1"
     inkscape:groupmode="layer"
     id="layer1"
     transform="translate(0,-293.25)">
    <path
       inkscape:connector-curvature="0"
       id="path9031"
       d="m 0.56419722,293.46052 c -0.19154776,0 -0.34726386,0.15572 -0.34726386,0.34588 v 2.65549 c 0,0.19017 0.1557161,0.34588 0.34726386,0.34588 H 3.2182996 c 0.1915478,0 0.3458879,-0.15571 0.3458879,-0.34588 v -2.65549 c 0,-0.19016 -0.1543401,-0.34588 -0.3458879,-0.34588 z m 0,0"
       style="fill:#ffffff;fill-opacity:1;fill-rule:nonzero;stroke:none;stroke-width:0.35277775" />
    <path
       inkscape:connector-curvature="0"
       id="path9033"
       d="m 0.56419722,296.87943 c -0.23013106,0 -0.41754425,-0.18741 -0.41754425,-0.41892 v -2.65273 c 0,-0.23013 0.18741319,-0.41754 0.41754425,-0.41754 H 3.2182996 c 0.2301311,0 0.4175443,0.18741 0.4175443,0.41754 v 2.65273 c 0,0.23151 -0.1874132,0.41892 -0.4175443,0.41892 z m 0,0"
       style="fill:#211e1e;fill-opacity:1;fill-rule:nonzero;stroke:none;stroke-width:0.35277775" />
    <path
       inkscape:connector-curvature="0"
       id="path9035"
       d="m 1.8912484,294.55468 c 0.1998169,0 0.3610469,-0.16261 0.3610469,-0.36105 0,-0.19981 -0.16123,-0.36104 -0.3610469,-0.36104 -0.1998133,0 -0.3610468,0.16123 -0.3610468,0.36104 0,0.19844 0.1612335,0.36105 0.3610468,0.36105"
       style="fill:#ffffff;fill-opacity:1;fill-rule:nonzero;stroke:none;stroke-width:0.35277775" />
    <path
       inkscape:connector-curvature="0"
       id="path9037"
       d="M 1.8898726,295.30847 H 1.5081529 v -0.27561 l -0.2921423,0.29352 c -0.1309123,0.13229 -0.31005994,-0.0372 -0.1777682,-0.1695 l 0.4823142,-0.48369 c 0.039963,-0.0386 0.082684,-0.0634 0.1515851,-0.0634 h 0.4327031 c 0.068901,0 0.1143776,0.0248 0.1557196,0.0634 l 0.4878246,0.4892 c 0.1267778,0.12541 -0.057877,0.29628 -0.1777682,0.16813 l -0.3004114,-0.29904 v 0.27699 z m 0,0"
       style="fill:#ffffff;fill-opacity:1;fill-rule:nonzero;stroke:none;stroke-width:0.35277775" />
    <path
       inkscape:connector-curvature="0"
       id="path9039"
       d="m 2.26883,295.45179 -0.2880078,0.28525 0.2108377,0.21084 -0.2149722,0.21635 c -0.1281571,0.12678 0.048232,0.30868 0.1791441,0.17639 l 0.3431328,-0.35416 c 0.073036,-0.0744 0.092329,-0.21221 0.015169,-0.29214 -0.00141,0 -0.2452934,-0.24253 -0.2452934,-0.24253"
       style="fill:#ffffff;fill-opacity:1;fill-rule:nonzero;stroke:none;stroke-width:0.35277775" />
    <path
       inkscape:connector-curvature="0"
       id="path9041"
       d="m 1.5095323,295.45179 0.2852526,0.28525 -0.2094618,0.21084 0.2149757,0.21635 c 0.1281571,0.12678 -0.046852,0.30868 -0.1791441,0.17639 l -0.3417535,-0.35416 c -0.073036,-0.0744 -0.093708,-0.21221 -0.015169,-0.29214 z m 0,0"
       style="fill:#ffffff;fill-opacity:1;fill-rule:nonzero;stroke:none;stroke-width:0.35277775" />
  </g>
</svg>
