<?xml version="1.0" encoding="UTF-8" standalone="no"?>
<!-- Created with Inkscape (http://www.inkscape.org/) -->

<svg
   xmlns:dc="http://purl.org/dc/elements/1.1/"
   xmlns:cc="http://creativecommons.org/ns#"
   xmlns:rdf="http://www.w3.org/1999/02/22-rdf-syntax-ns#"
   xmlns:svg="http://www.w3.org/2000/svg"
   xmlns="http://www.w3.org/2000/svg"
   xmlns:sodipodi="http://sodipodi.sourceforge.net/DTD/sodipodi-0.dtd"
   xmlns:inkscape="http://www.inkscape.org/namespaces/inkscape"
   width="3.75mm"
   height="3.75mm"
   viewBox="0 0 3.75 3.75"
   version="1.1"
   id="svg13826"
   inkscape:version="0.92.1 r15371"
   sodipodi:docname="book_souvenier_light.svg">
  <defs
     id="defs13820" />
  <sodipodi:namedview
     id="base"
     pagecolor="#ffffff"
     bordercolor="#666666"
     borderopacity="1.0"
     inkscape:pageopacity="0.0"
     inkscape:pageshadow="2"
     inkscape:zoom="20.285322"
     inkscape:cx="6.1728815"
     inkscape:cy="6.7152255"
     inkscape:document-units="mm"
     inkscape:current-layer="layer1"
     showgrid="false"
     inkscape:window-width="608"
     inkscape:window-height="712"
     inkscape:window-x="790"
     inkscape:window-y="47"
     inkscape:window-maximized="0"
     showguides="true"
     inkscape:guide-bbox="true"
     gridtolerance="10"
     guidetolerance="2">
    <inkscape:grid
       type="xygrid"
       id="grid13828" />
    <sodipodi:guide
       position="0.13043093,3.8477124"
       orientation="1,0"
       id="guide20533"
       inkscape:locked="false" />
    <sodipodi:guide
       position="1.9173346,3.6129367"
       orientation="0,1"
       id="guide20535"
       inkscape:locked="false" />
  </sodipodi:namedview>
  <metadata
     id="metadata13823">
    <rdf:RDF>
      <cc:Work
         rdf:about="">
        <dc:format>image/svg+xml</dc:format>
        <dc:type
           rdf:resource="http://purl.org/dc/dcmitype/StillImage" />
        <dc:title></dc:title>
      </cc:Work>
    </rdf:RDF>
  </metadata>
  <g
     inkscape:label="Layer 1"
     inkscape:groupmode="layer"
     id="layer1"
     transform="translate(0,-293.25)">
    <path
       inkscape:connector-curvature="0"
       id="path841"
       d="m 0.53948864,293.45734 c -0.19154776,0 -0.34588803,0.15572 -0.34588803,0.34589 v 2.6541 c 0,0.19017 0.15434027,0.34589 0.34588803,0.34589 H 3.1922117 c 0.1901682,0 0.345888,-0.15572 0.345888,-0.34589 v -2.6541 c 0,-0.19017 -0.1557198,-0.34589 -0.345888,-0.34589 z m 0,0"
       style="fill:#ffffff;fill-opacity:1;fill-rule:nonzero;stroke:none;stroke-width:0.35277775" />
    <path
       inkscape:connector-curvature="0"
       id="path843"
       d="M 3.1922117,293.38706 H 0.53948864 c -0.23013106,0 -0.41754425,0.18604 -0.41754425,0.41617 v 2.6541 c 0,0.23013 0.18741319,0.41617 0.41754425,0.41617 H 3.1922117 c 0.2301309,0 0.4161684,-0.18604 0.4161684,-0.41617 v -2.6541 c 0,-0.23013 -0.1860375,-0.41617 -0.4161684,-0.41617 m 0.345888,3.07027 c 0,0.19017 -0.1557198,0.34589 -0.345888,0.34589 H 0.53948864 c -0.19154776,0 -0.34588803,-0.15572 -0.34588803,-0.34589 v -2.6541 c 0,-0.19017 0.15434027,-0.34589 0.34588803,-0.34589 H 3.1922117 c 0.1901682,0 0.345888,0.15572 0.345888,0.34589 z m 0,0"
       style="fill:#211e1e;fill-opacity:1;fill-rule:nonzero;stroke:none;stroke-width:0.35277775" />
    <path
       inkscape:connector-curvature="0"
       id="path845"
       d="M 3.1591388,294.4261 H 2.8270301 l 0.2673422,-0.10748 c 0.028928,-0.0124 0.042718,-0.0441 0.031679,-0.073 -0.012417,-0.0289 -0.044097,-0.0427 -0.073036,-0.0303 0,0 -0.1515851,0.0606 -0.3004113,0.12126 0.1212672,-0.12126 0.2452899,-0.24391 0.2452899,-0.24391 0.011007,-0.011 0.016544,-0.0262 0.016544,-0.04 0,-0.0138 -0.0055,-0.0289 -0.016544,-0.0386 -0.020672,-0.022 -0.056501,-0.022 -0.07855,-10e-4 l -0.345888,0.34451 0.00141,-0.4892 c 0,-0.0303 -0.0248,-0.0551 -0.055121,-0.0551 -0.03168,0 -0.056501,0.0248 -0.056501,0.0551 0,0 -0.00141,0.32246 -0.00141,0.48783 -0.1116224,-0.11163 -0.3100599,-0.31282 -0.3100599,-0.31282 -0.022049,-0.0207 -0.056497,-0.0221 -0.078546,0 -0.022049,0.022 -0.022049,0.0579 -0.00141,0.0799 l 0.2163515,0.21773 -0.3100599,-0.1254 c -0.028928,-0.011 -0.062011,0.003 -0.073036,0.0317 -0.011007,0.0289 0.00282,0.0606 0.031715,0.073 l 0.2673386,0.10611 H 1.8830428 c -0.046852,0 -0.08406,0.0372 -0.08406,0.0841 v 1.77905 c 0,0.0468 0.037207,0.0841 0.08406,0.0841 h 1.2760643 c 0.046852,0 0.08406,-0.0372 0.08406,-0.0841 v -1.77905 c 0,-0.0469 -0.037207,-0.0841 -0.08406,-0.0841 m -0.082681,0.77308 H 2.5748188 v -0.60496 h 0.5016076 z m -0.61323,0 H 1.9671027 v -0.60496 h 0.4960937 z m -0.4960937,0.11162 h 0.496094 v 0.89435 H 1.9671027 Z m 0.6077161,0 h 0.5016079 v 0.89435 H 2.5748188 Z m 0,0"
       style="fill:#211e1e;fill-opacity:1;fill-rule:nonzero;stroke:none;stroke-width:0.35277775" />
    <path
       inkscape:connector-curvature="0"
       id="path847"
       d="m 1.5564799,296.24649 h -0.033055 c -0.017921,-0.022 -0.026176,-0.0482 -0.019297,-0.0813 0.00963,-0.0551 0.048232,-0.10059 0.067525,-0.10748 0.026176,-0.01 0.045477,-0.0345 0.045477,-0.0648 l 0.00141,-1.43316 c 0,-0.0386 -0.030304,-0.0703 -0.068901,-0.0703 0,0 -0.2259965,0 -0.304546,0 0,-0.0675 0,-0.16123 0,-0.16123 0,-0.0275 -0.016545,-0.0524 -0.042718,-0.0634 -0.026176,-0.011 -0.056501,-0.005 -0.075794,0.0138 l -0.48506853,0.48231 c -0.0854393,0.0841 -0.15296091,0.24391 -0.15296091,0.36518 l -0.004128,1.00184 c 0,0.14055 0.1143776,0.25493 0.25493837,0.25493 l 0.81717447,0.003 c 0.038587,0 0.068901,-0.0303 0.07028,-0.0689 0,-0.0386 -0.031679,-0.0703 -0.07028,-0.0703 m -0.07717,-1.61781 c 0,0.11988 -0.00141,1.17408 -0.00141,1.29397 H 0.74759224 l 0.49747316,-0.41754 -0.00141,-0.87643 c 0.045477,0 0.1929271,0 0.235645,0 m -0.85438279,1.4993 c 0,0 0,-0.0579 0,-0.0661 H 1.3924841 c -0.012418,0.0248 -0.022049,0.0524 -0.026176,0.0799 -0.00688,0.0372 -0.00413,0.0717 0.0055,0.10473 l -0.63251649,-0.003 c -0.0633906,0 -0.1143776,-0.0524 -0.1143776,-0.11575"
       style="fill:#211e1e;fill-opacity:1;fill-rule:nonzero;stroke:none;stroke-width:0.35277775" />
  </g>
</svg>
