<?xml version="1.0" encoding="UTF-8" standalone="no"?>
<!-- Created with Inkscape (http://www.inkscape.org/) -->

<svg
   xmlns:dc="http://purl.org/dc/elements/1.1/"
   xmlns:cc="http://creativecommons.org/ns#"
   xmlns:rdf="http://www.w3.org/1999/02/22-rdf-syntax-ns#"
   xmlns:svg="http://www.w3.org/2000/svg"
   xmlns="http://www.w3.org/2000/svg"
   xmlns:sodipodi="http://sodipodi.sourceforge.net/DTD/sodipodi-0.dtd"
   xmlns:inkscape="http://www.inkscape.org/namespaces/inkscape"
   width="3.75mm"
   height="3.75mm"
   viewBox="0 0 3.75 3.75"
   version="1.1"
   id="svg13826"
   inkscape:version="0.92.1 r15371"
   sodipodi:docname="bookstore_dark.svg">
  <defs
     id="defs13820" />
  <sodipodi:namedview
     id="base"
     pagecolor="#ffffff"
     bordercolor="#666666"
     borderopacity="1.0"
     inkscape:pageopacity="0.0"
     inkscape:pageshadow="2"
     inkscape:zoom="20.285322"
     inkscape:cx="6.1728815"
     inkscape:cy="6.7152255"
     inkscape:document-units="mm"
     inkscape:current-layer="layer1"
     showgrid="false"
     inkscape:window-width="608"
     inkscape:window-height="712"
     inkscape:window-x="790"
     inkscape:window-y="47"
     inkscape:window-maximized="0"
     showguides="true"
     inkscape:guide-bbox="true"
     gridtolerance="10"
     guidetolerance="2">
    <inkscape:grid
       type="xygrid"
       id="grid13828" />
    <sodipodi:guide
       position="0.13043093,3.8477124"
       orientation="1,0"
       id="guide20533"
       inkscape:locked="false" />
    <sodipodi:guide
       position="1.9173346,3.6129367"
       orientation="0,1"
       id="guide20535"
       inkscape:locked="false" />
  </sodipodi:namedview>
  <metadata
     id="metadata13823">
    <rdf:RDF>
      <cc:Work
         rdf:about="">
        <dc:format>image/svg+xml</dc:format>
        <dc:type
           rdf:resource="http://purl.org/dc/dcmitype/StillImage" />
        <dc:title></dc:title>
      </cc:Work>
    </rdf:RDF>
  </metadata>
  <g
     inkscape:label="Layer 1"
     inkscape:groupmode="layer"
     id="layer1"
     transform="translate(0,-293.25)">
    <path
       inkscape:connector-curvature="0"
       id="path943"
       d="m 0.55253173,293.45734 c -0.19154776,0 -0.34588803,0.15572 -0.34588803,0.34726 v 2.65273 c 0,0.19155 0.15434027,0.34589 0.34588803,0.34589 H 3.2052548 c 0.1901682,0 0.345888,-0.15434 0.345888,-0.34589 v -2.65273 c 0,-0.19154 -0.1557198,-0.34726 -0.345888,-0.34726 z m 0,0"
       style="fill:#ffffff;fill-opacity:1;fill-rule:nonzero;stroke:none;stroke-width:0.35277775" />
    <path
       inkscape:connector-curvature="0"
       id="path945"
       d="M 3.2052548,293.38706 H 0.55253173 c -0.23151042,0 -0.41754425,0.18741 -0.41754425,0.41754 v 2.65273 c 0,0.23013 0.18603383,0.41755 0.41754425,0.41755 H 3.2052548 c 0.2301309,0 0.4161684,-0.18742 0.4161684,-0.41755 v -2.65273 c 0,-0.23013 -0.1860375,-0.41754 -0.4161684,-0.41754"
       style="fill:#211e1e;fill-opacity:1;fill-rule:nonzero;stroke:none;stroke-width:0.35277775" />
    <path
       inkscape:connector-curvature="0"
       id="path947"
       d="m 2.6016732,296.31401 h -0.041339 c -0.0248,-0.0289 -0.034466,-0.0634 -0.027552,-0.10611 0.012418,-0.0716 0.063391,-0.12953 0.088195,-0.13918 0.034466,-0.0124 0.060635,-0.0455 0.060635,-0.0841 l 0.00141,-1.8576 c 0,-0.0496 -0.041342,-0.0896 -0.08957,-0.091 0,0 -0.3762058,0 -0.4795591,0 0,-0.0882 0.00141,-0.20808 0.00141,-0.20808 0,-0.0372 -0.022049,-0.0689 -0.055122,-0.0841 -0.034466,-0.0138 -0.073036,-0.006 -0.099219,0.0193 l -0.6283854,0.62425 c -0.1102431,0.11024 -0.1970617,0.31695 -0.1984376,0.47267 l -0.00413,1.29949 c -0.00141,0.1819 0.1460712,0.33073 0.3293499,0.33073 l 1.1423931,0.004 c 0.049611,0 0.090953,-0.04 0.090953,-0.0896 v -10e-4 c 0,-0.0496 -0.039966,-0.0896 -0.090953,-0.0896 m -0.099219,-2.09738 c 0,0.15572 -0.00141,1.52136 -0.00282,1.67708 H 1.4703219 l 0.6449236,-0.5402 -0.00141,-1.13689 c 0.057877,0 0.3334844,0 0.3886059,0 m -1.1920008,1.94304 c 0,0 0,-0.0744 0,-0.0854 h 1.0790025 c -0.016545,0.0331 -0.028928,0.0675 -0.034466,0.10197 -0.00826,0.0482 -0.00413,0.0937 0.00688,0.13643 l -0.9026172,-0.003 c -0.08268,0 -0.1488263,-0.0675 -0.1488263,-0.15021"
       style="fill:#ffffff;fill-opacity:1;fill-rule:nonzero;stroke:none;stroke-width:0.35277775" />
  </g>
</svg>
