<?xml version="1.0" encoding="UTF-8" standalone="no"?>
<!-- Created with Inkscape (http://www.inkscape.org/) -->

<svg
   xmlns:dc="http://purl.org/dc/elements/1.1/"
   xmlns:cc="http://creativecommons.org/ns#"
   xmlns:rdf="http://www.w3.org/1999/02/22-rdf-syntax-ns#"
   xmlns:svg="http://www.w3.org/2000/svg"
   xmlns="http://www.w3.org/2000/svg"
   xmlns:sodipodi="http://sodipodi.sourceforge.net/DTD/sodipodi-0.dtd"
   xmlns:inkscape="http://www.inkscape.org/namespaces/inkscape"
   width="3.75mm"
   height="3.75mm"
   viewBox="0 0 3.75 3.75"
   version="1.1"
   id="svg13826"
   inkscape:version="0.92.1 r15371"
   sodipodi:docname="bottle_filling_light.svg">
  <defs
     id="defs13820" />
  <sodipodi:namedview
     id="base"
     pagecolor="#ffffff"
     bordercolor="#666666"
     borderopacity="1.0"
     inkscape:pageopacity="0.0"
     inkscape:pageshadow="2"
     inkscape:zoom="20.285322"
     inkscape:cx="6.1728815"
     inkscape:cy="6.7152255"
     inkscape:document-units="mm"
     inkscape:current-layer="layer1"
     showgrid="false"
     inkscape:window-width="608"
     inkscape:window-height="712"
     inkscape:window-x="790"
     inkscape:window-y="47"
     inkscape:window-maximized="0"
     showguides="true"
     inkscape:guide-bbox="true"
     gridtolerance="10"
     guidetolerance="2">
    <inkscape:grid
       type="xygrid"
       id="grid13828" />
    <sodipodi:guide
       position="0.13043093,3.8477124"
       orientation="1,0"
       id="guide20533"
       inkscape:locked="false" />
    <sodipodi:guide
       position="1.9173346,3.6129367"
       orientation="0,1"
       id="guide20535"
       inkscape:locked="false" />
  </sodipodi:namedview>
  <metadata
     id="metadata13823">
    <rdf:RDF>
      <cc:Work
         rdf:about="">
        <dc:format>image/svg+xml</dc:format>
        <dc:type
           rdf:resource="http://purl.org/dc/dcmitype/StillImage" />
        <dc:title></dc:title>
      </cc:Work>
    </rdf:RDF>
  </metadata>
  <g
     inkscape:label="Layer 1"
     inkscape:groupmode="layer"
     id="layer1"
     transform="translate(0,-293.25)">
    <path
       inkscape:connector-curvature="0"
       id="path10417"
       d="m 3.2052548,296.87806 c 0.2301309,0 0.4161684,-0.18604 0.4161684,-0.41617 v -2.65411 c 0,-0.23013 -0.1860375,-0.41616 -0.4161684,-0.41616 H 0.55253174 c -0.23151042,0 -0.41754425,0.18603 -0.41754425,0.41616 v 2.65411 c 0,0.23013 0.18603383,0.41617 0.41754425,0.41617 z m 0,0"
       style="fill:#211e1e;fill-opacity:1;fill-rule:nonzero;stroke:none;stroke-width:0.35277775" />
    <path
       inkscape:connector-curvature="0"
       id="path10419"
       d="m 0.54977653,293.4619 c -0.19154774,0 -0.34588801,0.15572 -0.34588801,0.34588 v 2.65411 c 0,0.19155 0.15434027,0.34726 0.34588801,0.34726 H 3.2052548 c 0.1901682,0 0.345888,-0.15571 0.345888,-0.34726 v -2.65411 c 0,-0.19016 -0.1557198,-0.34588 -0.345888,-0.34588 z m 0,0"
       style="fill:#ffffff;fill-opacity:1;fill-rule:nonzero;stroke:none;stroke-width:0.35277775" />
    <path
       inkscape:connector-curvature="0"
       id="path10421"
       d="m 0.42712982,293.71821 c 0.16536459,0 0.79374998,0.23427 1.00596698,0.59945 l -0.2232413,0.1819 c 0,0 -0.33486371,-0.3197 -0.78272568,-0.40376 z m 0,0"
       style="fill:#211e1e;fill-opacity:1;fill-rule:nonzero;stroke:none;stroke-width:0.35277775" />
    <path
       inkscape:connector-curvature="0"
       id="path10423"
       d="m 1.1974518,295.09487 c 0,0.10611 0.085439,0.19293 0.1929271,0.19293 0.1061085,0 0.1929236,-0.0868 0.1929236,-0.19293 0,-0.10611 -0.1929236,-0.55121 -0.1929236,-0.55121 0,0 -0.1929271,0.4451 -0.1929271,0.55121"
       style="fill:#211e1e;fill-opacity:1;fill-rule:nonzero;stroke:none;stroke-width:0.35277775" />
    <path
       inkscape:connector-curvature="0"
       id="path10425"
       d="m 2.2998824,294.01725 c -0.0248,-0.004 -0.044097,-0.0248 -0.044097,-0.0496 0,-0.0193 0.011007,-0.0358 0.026176,-0.0441 -0.015169,-0.01 -0.026176,-0.0262 -0.026176,-0.0441 0,-0.0289 0.022049,-0.051 0.050991,-0.051 h 0.2521797 c 0.027552,0 0.050987,0.022 0.050987,0.051 0,0.0193 -0.011007,0.0358 -0.027552,0.0441 0.016545,0.008 0.027552,0.0248 0.027552,0.0441 0,0.0248 -0.019297,0.0455 -0.042718,0.0496 l 0.3059217,0.82682 c 0.019296,0.0537 0.028928,0.11438 0.028928,0.17363 v 1.46899 c 0,0.0551 -0.045477,0.0992 -0.1005983,0.0992 h -0.737249 c -0.055122,0 -0.099219,-0.0441 -0.099219,-0.0992 v -1.46899 c 0,-0.0593 0.00963,-0.11988 0.027552,-0.17363 z m 0,0"
       style="fill:#211e1e;fill-opacity:1;fill-rule:nonzero;stroke:none;stroke-width:0.35277775" />
  </g>
</svg>
