<?xml version="1.0" encoding="UTF-8" standalone="no"?>
<!-- Created with Inkscape (http://www.inkscape.org/) -->

<svg
   xmlns:dc="http://purl.org/dc/elements/1.1/"
   xmlns:cc="http://creativecommons.org/ns#"
   xmlns:rdf="http://www.w3.org/1999/02/22-rdf-syntax-ns#"
   xmlns:svg="http://www.w3.org/2000/svg"
   xmlns="http://www.w3.org/2000/svg"
   xmlns:sodipodi="http://sodipodi.sourceforge.net/DTD/sodipodi-0.dtd"
   xmlns:inkscape="http://www.inkscape.org/namespaces/inkscape"
   width="3.75mm"
   height="3.75mm"
   viewBox="0 0 3.75 3.75"
   version="1.1"
   id="svg13826"
   inkscape:version="0.92.1 r15371"
   sodipodi:docname="kennel_dark.svg">
  <defs
     id="defs13820" />
  <sodipodi:namedview
     id="base"
     pagecolor="#ffffff"
     bordercolor="#666666"
     borderopacity="1.0"
     inkscape:pageopacity="0.0"
     inkscape:pageshadow="2"
     inkscape:zoom="20.285322"
     inkscape:cx="6.1728815"
     inkscape:cy="6.7152255"
     inkscape:document-units="mm"
     inkscape:current-layer="layer1"
     showgrid="false"
     inkscape:window-width="608"
     inkscape:window-height="712"
     inkscape:window-x="790"
     inkscape:window-y="47"
     inkscape:window-maximized="0"
     showguides="true"
     inkscape:guide-bbox="true"
     gridtolerance="10"
     guidetolerance="2">
    <inkscape:grid
       type="xygrid"
       id="grid13828" />
    <sodipodi:guide
       position="0.13043093,3.8477124"
       orientation="1,0"
       id="guide20533"
       inkscape:locked="false" />
    <sodipodi:guide
       position="1.9173346,3.6129367"
       orientation="0,1"
       id="guide20535"
       inkscape:locked="false" />
  </sodipodi:namedview>
  <metadata
     id="metadata13823">
    <rdf:RDF>
      <cc:Work
         rdf:about="">
        <dc:format>image/svg+xml</dc:format>
        <dc:type
           rdf:resource="http://purl.org/dc/dcmitype/StillImage" />
        <dc:title></dc:title>
      </cc:Work>
    </rdf:RDF>
  </metadata>
  <g
     inkscape:label="Layer 1"
     inkscape:groupmode="layer"
     id="layer1"
     transform="translate(0,-293.25)">
    <path
       inkscape:connector-curvature="0"
       id="path2189"
       d="m 0.55115591,293.46328 c -0.19017193,0 -0.3445122,0.15434 -0.3445122,0.34589 v 2.65272 c 0,0.19155 0.15434027,0.34589 0.3445122,0.34589 H 3.2052548 c 0.1901719,0 0.345888,-0.15434 0.345888,-0.34589 v -2.65272 c 0,-0.19155 -0.1557161,-0.34589 -0.345888,-0.34589 z m 0,0"
       style="fill:#ffffff;fill-opacity:1;fill-rule:nonzero;stroke:none;stroke-width:0.35277775" />
    <path
       inkscape:connector-curvature="0"
       id="path2191"
       d="m 3.2052548,296.87806 c 0.2301346,0 0.4161684,-0.18604 0.4161684,-0.41617 v -2.65272 c 0,-0.23014 -0.1860338,-0.41755 -0.4161684,-0.41755 H 0.55115591 c -0.23013459,0 -0.41616842,0.18741 -0.41616842,0.41755 v 2.65272 c 0,0.23013 0.18603383,0.41617 0.41616842,0.41617 z m 0,0"
       style="fill:#211e1e;fill-opacity:1;fill-rule:nonzero;stroke:none;stroke-width:0.35277775" />
    <path
       inkscape:connector-curvature="0"
       id="path2193"
       d="M 0.74545884,296.41228 H 3.2204136 v -0.25769 H 1.001773 v -1.11346 l 2.2186406,-1.00321 v -0.26734 l -2.75194176,1.24299 v 0.26734 l 0.276987,-0.12402 z m 0,0"
       style="fill:#ffffff;fill-opacity:1;fill-rule:nonzero;stroke:none;stroke-width:0.35277775" />
    <path
       inkscape:connector-curvature="0"
       id="path2195"
       d="m 2.0132539,295.53585 h 0.3899853 v 0.34864 c 0,0.0565 0.045473,0.10336 0.1033498,0.10336 0.056501,0 0.1019774,-0.0469 0.1019774,-0.10336 v -0.34864 c 0.03168,0 0.034431,-0.0193 0.034431,-0.0427 V 295.2327 L 2.3177823,295.0742 H 1.6246269 l -0.088194,-0.051 c -0.028928,-0.0165 -0.066146,-0.006 -0.081301,0.0221 -0.016545,0.0289 -0.00688,0.0661 0.022048,0.0813 l 0.1405573,0.0813 v 0.67661 c 0,0.0565 0.046856,0.10336 0.1033533,0.10336 0.056501,0 0.1033533,-0.0469 0.1033533,-0.10336 v -0.26596 l 0.1860338,0.31557 c 0.028928,0.0496 0.092329,0.0648 0.1405608,0.0358 0.049611,-0.0289 0.06477,-0.0923 0.035828,-0.14056 z m 0,0"
       style="fill:#ffffff;fill-opacity:1;fill-rule:nonzero;stroke:none;stroke-width:0.35277775" />
    <path
       inkscape:connector-curvature="0"
       id="path2197"
       d="m 2.3494935,295.00255 0.2935217,0.14056 v -0.0551 h 0.2384002 l 0.086819,-0.1888 -0.6187404,-0.2949 z m 0,0"
       style="fill:#ffffff;fill-opacity:1;fill-rule:nonzero;stroke:none;stroke-width:0.35277775" />
  </g>
</svg>
