<?xml version="1.0" encoding="UTF-8" standalone="no"?>
<!-- Created with Inkscape (http://www.inkscape.org/) -->

<svg
   xmlns:dc="http://purl.org/dc/elements/1.1/"
   xmlns:cc="http://creativecommons.org/ns#"
   xmlns:rdf="http://www.w3.org/1999/02/22-rdf-syntax-ns#"
   xmlns:svg="http://www.w3.org/2000/svg"
   xmlns="http://www.w3.org/2000/svg"
   xmlns:sodipodi="http://sodipodi.sourceforge.net/DTD/sodipodi-0.dtd"
   xmlns:inkscape="http://www.inkscape.org/namespaces/inkscape"
   width="3.75mm"
   height="3.75mm"
   viewBox="0 0 3.75 3.75"
   version="1.1"
   id="svg13826"
   inkscape:version="0.92.1 r15371"
   sodipodi:docname="ladiesroom_dark.svg">
  <defs
     id="defs13820" />
  <sodipodi:namedview
     id="base"
     pagecolor="#ffffff"
     bordercolor="#666666"
     borderopacity="1.0"
     inkscape:pageopacity="0.0"
     inkscape:pageshadow="2"
     inkscape:zoom="20.285322"
     inkscape:cx="8.0003469"
     inkscape:cy="6.7152255"
     inkscape:document-units="mm"
     inkscape:current-layer="layer1"
     showgrid="false"
     inkscape:window-width="608"
     inkscape:window-height="712"
     inkscape:window-x="790"
     inkscape:window-y="47"
     inkscape:window-maximized="0"
     showguides="true"
     inkscape:guide-bbox="true"
     gridtolerance="10"
     guidetolerance="2">
    <inkscape:grid
       type="xygrid"
       id="grid13828" />
    <sodipodi:guide
       position="0.13043093,3.8477124"
       orientation="1,0"
       id="guide20533"
       inkscape:locked="false" />
    <sodipodi:guide
       position="1.9173346,3.6129367"
       orientation="0,1"
       id="guide20535"
       inkscape:locked="false" />
  </sodipodi:namedview>
  <metadata
     id="metadata13823">
    <rdf:RDF>
      <cc:Work
         rdf:about="">
        <dc:format>image/svg+xml</dc:format>
        <dc:type
           rdf:resource="http://purl.org/dc/dcmitype/StillImage" />
        <dc:title></dc:title>
      </cc:Work>
    </rdf:RDF>
  </metadata>
  <g
     inkscape:label="Layer 1"
     inkscape:groupmode="layer"
     id="layer1"
     transform="translate(0,-293.25)">
    <path
       inkscape:connector-curvature="0"
       id="path5141"
       d="m 0.55046625,293.46327 c -0.19017193,0 -0.34588803,0.15434 -0.34588803,0.34589 v 2.65272 c 0,0.19155 0.1557161,0.34589 0.34588803,0.34589 H 3.2045651 c 0.1915478,0 0.345888,-0.15434 0.345888,-0.34589 v -2.65272 c 0,-0.19155 -0.1543402,-0.34589 -0.345888,-0.34589 z m 0,0"
       style="fill:#ffffff;fill-opacity:1;fill-rule:nonzero;stroke:none;stroke-width:0.35277775" />
    <path
       inkscape:connector-curvature="0"
       id="path5143"
       d="m 3.2045651,296.87805 c 0.2301346,0 0.4175477,-0.18604 0.4175477,-0.41617 v -2.65272 c 0,-0.23014 -0.1874131,-0.41755 -0.4175477,-0.41755 H 0.55046625 c -0.23013459,0 -0.41616842,0.18741 -0.41616842,0.41755 v 2.65272 c 0,0.23013 0.18603383,0.41617 0.41616842,0.41617 z m 0,0"
       style="fill:#211e1e;fill-opacity:1;fill-rule:nonzero;stroke:none;stroke-width:0.35277775" />
    <path
       inkscape:connector-curvature="0"
       id="path5145"
       d="m 2.0869757,294.23084 c 0.1639887,0 0.2811215,0.13504 0.3059253,0.20946 l 0.2011927,0.6587 c 0.039966,0.14194 -0.1419366,0.20119 -0.1832786,0.0634 L 2.2289158,294.55606 H 2.1255625 l 0.3017908,1.07624 H 2.139342 v 0.83923 c 0,0.14331 -0.2149722,0.14331 -0.2149722,0 v -0.84474 H 1.8155026 v 0.84336 c 0,0.14469 -0.2163516,0.14469 -0.2163516,0 V 295.6323 H 1.3097639 l 0.2990356,-1.07624 h -0.099219 l -0.1805235,0.60771 c -0.042721,0.13229 -0.2246206,0.0772 -0.1832786,-0.0648 l 0.1998133,-0.6587 c 0.022049,-0.0758 0.1171328,-0.20946 0.2824974,-0.20946 z m 0,0"
       style="fill:#ffffff;fill-opacity:1;fill-rule:nonzero;stroke:none;stroke-width:0.35277775" />
    <path
       inkscape:connector-curvature="0"
       id="path5147"
       d="m 1.8692483,294.18123 c 0.1295329,0 0.2342656,-0.10473 0.2342656,-0.23289 0,-0.12954 -0.1047327,-0.23427 -0.2342656,-0.23427 -0.1295365,0 -0.2328898,0.10473 -0.2328898,0.23427 0,0.12816 0.1033533,0.23289 0.2328898,0.23289"
       style="fill:#ffffff;fill-opacity:1;fill-rule:nonzero;stroke:none;stroke-width:0.35277775" />
  </g>
</svg>
