<?xml version="1.0" encoding="UTF-8" standalone="no"?>
<!-- Created with Inkscape (http://www.inkscape.org/) -->

<svg
   xmlns:dc="http://purl.org/dc/elements/1.1/"
   xmlns:cc="http://creativecommons.org/ns#"
   xmlns:rdf="http://www.w3.org/1999/02/22-rdf-syntax-ns#"
   xmlns:svg="http://www.w3.org/2000/svg"
   xmlns="http://www.w3.org/2000/svg"
   xmlns:sodipodi="http://sodipodi.sourceforge.net/DTD/sodipodi-0.dtd"
   xmlns:inkscape="http://www.inkscape.org/namespaces/inkscape"
   width="3.75mm"
   height="3.75mm"
   viewBox="0 0 3.75 3.75"
   version="1.1"
   id="svg13826"
   inkscape:version="0.92.1 r15371"
   sodipodi:docname="lodging_dark.svg">
  <defs
     id="defs13820" />
  <sodipodi:namedview
     id="base"
     pagecolor="#ffffff"
     bordercolor="#666666"
     borderopacity="1.0"
     inkscape:pageopacity="0.0"
     inkscape:pageshadow="2"
     inkscape:zoom="20.285322"
     inkscape:cx="6.1728815"
     inkscape:cy="6.7152255"
     inkscape:document-units="mm"
     inkscape:current-layer="layer1"
     showgrid="false"
     inkscape:window-width="608"
     inkscape:window-height="712"
     inkscape:window-x="790"
     inkscape:window-y="47"
     inkscape:window-maximized="0"
     showguides="true"
     inkscape:guide-bbox="true"
     gridtolerance="10"
     guidetolerance="2">
    <inkscape:grid
       type="xygrid"
       id="grid13828" />
    <sodipodi:guide
       position="0.13043093,3.8477124"
       orientation="1,0"
       id="guide20533"
       inkscape:locked="false" />
    <sodipodi:guide
       position="1.9173346,3.6129367"
       orientation="0,1"
       id="guide20535"
       inkscape:locked="false" />
  </sodipodi:namedview>
  <metadata
     id="metadata13823">
    <rdf:RDF>
      <cc:Work
         rdf:about="">
        <dc:format>image/svg+xml</dc:format>
        <dc:type
           rdf:resource="http://purl.org/dc/dcmitype/StillImage" />
        <dc:title></dc:title>
      </cc:Work>
    </rdf:RDF>
  </metadata>
  <g
     inkscape:label="Layer 1"
     inkscape:groupmode="layer"
     id="layer1"
     transform="translate(0,-293.25)">
    <path
       inkscape:connector-curvature="0"
       id="path12431"
       d="m 0.53742316,293.44886 c -0.19017193,0 -0.34588803,0.15572 -0.34588803,0.34588 v 2.65411 c 0,0.19017 0.1557161,0.34589 0.34588803,0.34589 H 3.1915221 c 0.1915478,0 0.345888,-0.15572 0.345888,-0.34589 v -2.65411 c 0,-0.19016 -0.1543402,-0.34588 -0.345888,-0.34588 z m 0,0"
       style="fill:#ffffff;fill-opacity:1;fill-rule:nonzero;stroke:none;stroke-width:0.35277775" />
    <path
       inkscape:connector-curvature="0"
       id="path12433"
       d="m 3.1915221,296.86502 c 0.2301346,0 0.4175477,-0.18604 0.4175477,-0.41617 v -2.65411 c 0,-0.23013 -0.1874131,-0.41616 -0.4175477,-0.41616 H 0.53879899 c -0.23151042,0 -0.41754425,0.18603 -0.41754425,0.41616 v 2.65411 c 0,0.23013 0.18603383,0.41617 0.41754425,0.41617 z m 0,0"
       style="fill:#211e1e;fill-opacity:1;fill-rule:nonzero;stroke:none;stroke-width:0.35277775" />
    <path
       inkscape:connector-curvature="0"
       id="path12435"
       d="m 2.9917088,295.43186 v 0.41754 h 0.220486 v -0.62563 H 0.73861584 v -0.90537 c 0,-0.0606 -0.0482318,-0.11024 -0.11024306,-0.11024 -0.0606354,0 -0.10886721,0.0496 -0.10886721,0.11024 v 1.531 h 0.21911027 v -0.41754 z m 0,0"
       style="fill:#ffffff;fill-opacity:1;fill-rule:nonzero;stroke:none;stroke-width:0.35277775" />
    <path
       inkscape:connector-curvature="0"
       id="path12437"
       d="m 1.0762347,294.75937 c 0.1102432,0 0.1984376,-0.0882 0.1984376,-0.19843 0,-0.11025 -0.088194,-0.19844 -0.1984376,-0.19844 -0.11024301,0 -0.19843741,0.0882 -0.19843741,0.19844 0,0.11024 0.088194,0.19843 0.19843741,0.19843"
       style="fill:#ffffff;fill-opacity:1;fill-rule:nonzero;stroke:none;stroke-width:0.35277775" />
    <path
       inkscape:connector-curvature="0"
       id="path12439"
       d="m 3.2149499,295.05978 v -0.27422 c -0.0014,-0.0868 -0.073036,-0.14608 -0.1584748,-0.1571 l -1.5613167,-0.15572 c -0.00282,0 -0.0055,-10e-4 -0.00825,-10e-4 -0.055122,0 -0.097839,0.0441 -0.097839,0.0978 v 0.2949 H 0.97978529 c -0.053742,0 -0.097839,0.0441 -0.097839,0.0978 0,0.0538 0.044097,0.0978 0.097839,0.0978 z m 0,0"
       style="fill:#ffffff;fill-opacity:1;fill-rule:nonzero;stroke:none;stroke-width:0.35277775" />
  </g>
</svg>
