<?xml version="1.0" encoding="UTF-8" standalone="no"?>
<!-- Created with Inkscape (http://www.inkscape.org/) -->

<svg
   xmlns:dc="http://purl.org/dc/elements/1.1/"
   xmlns:cc="http://creativecommons.org/ns#"
   xmlns:rdf="http://www.w3.org/1999/02/22-rdf-syntax-ns#"
   xmlns:svg="http://www.w3.org/2000/svg"
   xmlns="http://www.w3.org/2000/svg"
   xmlns:sodipodi="http://sodipodi.sourceforge.net/DTD/sodipodi-0.dtd"
   xmlns:inkscape="http://www.inkscape.org/namespaces/inkscape"
   width="3.75mm"
   height="3.75mm"
   viewBox="0 0 3.75 3.75"
   version="1.1"
   id="svg13826"
   inkscape:version="0.92.1 r15371"
   sodipodi:docname="mensroom_dark.svg">
  <defs
     id="defs13820" />
  <sodipodi:namedview
     id="base"
     pagecolor="#ffffff"
     bordercolor="#666666"
     borderopacity="1.0"
     inkscape:pageopacity="0.0"
     inkscape:pageshadow="2"
     inkscape:zoom="20.285322"
     inkscape:cx="8.0003469"
     inkscape:cy="6.7152255"
     inkscape:document-units="mm"
     inkscape:current-layer="layer1"
     showgrid="false"
     inkscape:window-width="608"
     inkscape:window-height="712"
     inkscape:window-x="790"
     inkscape:window-y="47"
     inkscape:window-maximized="0"
     showguides="true"
     inkscape:guide-bbox="true"
     gridtolerance="10"
     guidetolerance="2">
    <inkscape:grid
       type="xygrid"
       id="grid13828" />
    <sodipodi:guide
       position="0.13043093,3.8477124"
       orientation="1,0"
       id="guide20533"
       inkscape:locked="false" />
    <sodipodi:guide
       position="1.9173346,3.6129367"
       orientation="0,1"
       id="guide20535"
       inkscape:locked="false" />
  </sodipodi:namedview>
  <metadata
     id="metadata13823">
    <rdf:RDF>
      <cc:Work
         rdf:about="">
        <dc:format>image/svg+xml</dc:format>
        <dc:type
           rdf:resource="http://purl.org/dc/dcmitype/StillImage" />
        <dc:title></dc:title>
      </cc:Work>
    </rdf:RDF>
  </metadata>
  <g
     inkscape:label="Layer 1"
     inkscape:groupmode="layer"
     id="layer1"
     transform="translate(0,-293.25)">
    <path
       inkscape:connector-curvature="0"
       id="path5157"
       d="m 0.53742316,293.43581 c -0.19017193,0 -0.34588803,0.15572 -0.34588803,0.34589 v 2.6541 c 0,0.19017 0.1557161,0.34589 0.34588803,0.34589 H 3.1915221 c 0.1915478,0 0.345888,-0.15572 0.345888,-0.34589 v -2.6541 c 0,-0.19017 -0.1543402,-0.34589 -0.345888,-0.34589 z m 0,0"
       style="fill:#ffffff;fill-opacity:1;fill-rule:nonzero;stroke:none;stroke-width:0.35277775" />
    <path
       inkscape:connector-curvature="0"
       id="path5159"
       d="m 3.1915221,296.85197 c 0.2301346,0 0.4175477,-0.18604 0.4175477,-0.41617 v -2.6541 c 0,-0.22876 -0.1874131,-0.41617 -0.4175477,-0.41617 H 0.53879899 c -0.23151042,0 -0.41754425,0.18741 -0.41754425,0.41617 v 2.6541 c 0,0.23013 0.18603383,0.41617 0.41754425,0.41617 z m 0,0"
       style="fill:#211e1e;fill-opacity:1;fill-rule:nonzero;stroke:none;stroke-width:0.35277775" />
    <path
       inkscape:connector-curvature="0"
       id="path5161"
       d="m 1.8575811,294.15652 c 0.1295365,0 0.2342691,-0.10473 0.2342691,-0.23426 0,-0.12816 -0.1047326,-0.23289 -0.2342691,-0.23289 -0.1281571,0 -0.2328862,0.10473 -0.2328862,0.23289 0,0.12953 0.1047291,0.23426 0.2328862,0.23426"
       style="fill:#ffffff;fill-opacity:1;fill-rule:nonzero;stroke:none;stroke-width:0.35277775" />
    <path
       inkscape:connector-curvature="0"
       id="path5163"
       d="m 1.540635,296.4234 c 0,0.073 0.059252,0.13229 0.1309123,0.13229 0.073036,0 0.1322917,-0.0593 0.1322917,-0.13229 v -1.09968 h 0.110243 v 1.09968 c 0,0.073 0.057877,0.13229 0.1295365,0.13229 0.073036,0 0.1309123,-0.0593 0.1309123,-0.13229 l 0.00141,-1.89618 h 0.1088637 v 0.70004 c 0,0.14056 0.1832786,0.14056 0.1832786,0 v -0.7152 c 0,-0.15434 -0.1212674,-0.30593 -0.3017908,-0.30593 l -0.6214956,-10e-4 c -0.1653646,0 -0.2976563,0.13643 -0.2976563,0.30317 v 0.71934 c 0,0.13918 0.184658,0.13918 0.184658,0 v -0.70005 h 0.1102431 z m 0,0"
       style="fill:#ffffff;fill-opacity:1;fill-rule:nonzero;stroke:none;stroke-width:0.35277775" />
  </g>
</svg>
