<?xml version="1.0" encoding="UTF-8" standalone="no"?>
<!-- Created with Inkscape (http://www.inkscape.org/) -->

<svg
   xmlns:dc="http://purl.org/dc/elements/1.1/"
   xmlns:cc="http://creativecommons.org/ns#"
   xmlns:rdf="http://www.w3.org/1999/02/22-rdf-syntax-ns#"
   xmlns:svg="http://www.w3.org/2000/svg"
   xmlns="http://www.w3.org/2000/svg"
   xmlns:sodipodi="http://sodipodi.sourceforge.net/DTD/sodipodi-0.dtd"
   xmlns:inkscape="http://www.inkscape.org/namespaces/inkscape"
   width="3.75mm"
   height="3.75mm"
   viewBox="0 0 3.75 3.75"
   version="1.1"
   id="svg13826"
   inkscape:version="0.92.1 r15371"
   sodipodi:docname="propane_light.svg">
  <defs
     id="defs13820" />
  <sodipodi:namedview
     id="base"
     pagecolor="#ffffff"
     bordercolor="#666666"
     borderopacity="1.0"
     inkscape:pageopacity="0.0"
     inkscape:pageshadow="2"
     inkscape:zoom="20.285322"
     inkscape:cx="8.0003469"
     inkscape:cy="6.7152255"
     inkscape:document-units="mm"
     inkscape:current-layer="layer1"
     showgrid="false"
     inkscape:window-width="608"
     inkscape:window-height="712"
     inkscape:window-x="790"
     inkscape:window-y="47"
     inkscape:window-maximized="0"
     showguides="true"
     inkscape:guide-bbox="true"
     gridtolerance="10"
     guidetolerance="2">
    <inkscape:grid
       type="xygrid"
       id="grid13828" />
    <sodipodi:guide
       position="0.13043093,3.8477124"
       orientation="1,0"
       id="guide20533"
       inkscape:locked="false" />
    <sodipodi:guide
       position="1.9173346,3.6129367"
       orientation="0,1"
       id="guide20535"
       inkscape:locked="false" />
  </sodipodi:namedview>
  <metadata
     id="metadata13823">
    <rdf:RDF>
      <cc:Work
         rdf:about="">
        <dc:format>image/svg+xml</dc:format>
        <dc:type
           rdf:resource="http://purl.org/dc/dcmitype/StillImage" />
        <dc:title></dc:title>
      </cc:Work>
    </rdf:RDF>
  </metadata>
  <g
     inkscape:label="Layer 1"
     inkscape:groupmode="layer"
     id="layer1"
     transform="translate(0,-293.25)">
    <path
       inkscape:connector-curvature="0"
       id="path10539"
       d="m 3.2052548,296.87806 c 0.2301346,0 0.4161684,-0.18604 0.4161684,-0.41617 v -2.65411 c 0,-0.23013 -0.1860338,-0.41616 -0.4161684,-0.41616 H 0.55253174 c -0.23013106,0 -0.41754425,0.18603 -0.41754425,0.41616 v 2.65411 c 0,0.23013 0.18741319,0.41617 0.41754425,0.41617 z m 0,0"
       style="fill:#211e1e;fill-opacity:1;fill-rule:nonzero;stroke:none;stroke-width:0.35277775" />
    <path
       inkscape:connector-curvature="0"
       id="path10541"
       d="m 0.54977653,293.4619 c -0.19016838,0 -0.34588801,0.15572 -0.34588801,0.34588 v 2.65411 c 0,0.19155 0.15571963,0.34726 0.34588801,0.34726 H 3.2052548 c 0.1915478,0 0.3472672,-0.15571 0.3472672,-0.34726 v -2.65411 c 0,-0.19016 -0.1557194,-0.34588 -0.3472672,-0.34588 z m 0,0"
       style="fill:#ffffff;fill-opacity:1;fill-rule:nonzero;stroke:none;stroke-width:0.35277775" />
    <path
       inkscape:connector-curvature="0"
       id="path10543"
       d="m 2.1400317,295.4697 c -0.07028,0.10473 -0.2880078,0.226 -0.2218619,0.46578 H 1.777609 c -0.1088672,-0.12265 -0.465776,-0.51539 -0.1639888,-0.79375 0.282501,-0.26183 0.3238395,-0.48094 0.2287552,-0.58842 0,0 0.7207145,0.2756 0.2976563,0.91639 m -0.6476788,-1.60128 h 0.2452934 v 0.34726 H 1.4923529 Z m 0.5277908,0 h 0.2452899 v 0.34726 H 2.0201437 Z m 0.4230582,0.35553 v -0.5333 H 1.3145882 v 0.5333 c -0.2756077,0.0469 -0.48782467,0.28664 -0.48782467,0.57602 v 0.91915 c 0,0.28939 0.21221697,0.53055 0.48782467,0.57603 v 0.28387 h 1.1286137 v -0.28387 c 0.2756076,-0.0455 0.4878245,-0.28664 0.4878245,-0.57603 v -0.91915 c 0,-0.28938 -0.2122169,-0.52916 -0.4878245,-0.57602"
       style="fill:#211e1e;fill-opacity:1;fill-rule:nonzero;stroke:none;stroke-width:0.35277775" />
  </g>
</svg>
