<?xml version="1.0" encoding="UTF-8" standalone="no"?>
<!-- Created with Inkscape (http://www.inkscape.org/) -->

<svg
   xmlns:dc="http://purl.org/dc/elements/1.1/"
   xmlns:cc="http://creativecommons.org/ns#"
   xmlns:rdf="http://www.w3.org/1999/02/22-rdf-syntax-ns#"
   xmlns:svg="http://www.w3.org/2000/svg"
   xmlns="http://www.w3.org/2000/svg"
   xmlns:sodipodi="http://sodipodi.sourceforge.net/DTD/sodipodi-0.dtd"
   xmlns:inkscape="http://www.inkscape.org/namespaces/inkscape"
   width="3.75mm"
   height="3.75mm"
   viewBox="0 0 3.75 3.75"
   version="1.1"
   id="svg13826"
   inkscape:version="0.92.1 r15371"
   sodipodi:docname="restrooms_light.svg">
  <defs
     id="defs13820" />
  <sodipodi:namedview
     id="base"
     pagecolor="#ffffff"
     bordercolor="#666666"
     borderopacity="1.0"
     inkscape:pageopacity="0.0"
     inkscape:pageshadow="2"
     inkscape:zoom="20.285322"
     inkscape:cx="8.0003469"
     inkscape:cy="6.7152255"
     inkscape:document-units="mm"
     inkscape:current-layer="layer1"
     showgrid="false"
     inkscape:window-width="608"
     inkscape:window-height="712"
     inkscape:window-x="790"
     inkscape:window-y="47"
     inkscape:window-maximized="0"
     showguides="true"
     inkscape:guide-bbox="true"
     gridtolerance="10"
     guidetolerance="2">
    <inkscape:grid
       type="xygrid"
       id="grid13828" />
    <sodipodi:guide
       position="0.13043093,3.8477124"
       orientation="1,0"
       id="guide20533"
       inkscape:locked="false" />
    <sodipodi:guide
       position="1.9173346,3.6129367"
       orientation="0,1"
       id="guide20535"
       inkscape:locked="false" />
  </sodipodi:namedview>
  <metadata
     id="metadata13823">
    <rdf:RDF>
      <cc:Work
         rdf:about="">
        <dc:format>image/svg+xml</dc:format>
        <dc:type
           rdf:resource="http://purl.org/dc/dcmitype/StillImage" />
        <dc:title></dc:title>
      </cc:Work>
    </rdf:RDF>
  </metadata>
  <g
     inkscape:label="Layer 1"
     inkscape:groupmode="layer"
     id="layer1"
     transform="translate(0,-293.25)">
    <path
       inkscape:connector-curvature="0"
       id="path13015"
       d="m 3.2045651,296.87806 c 0.2301346,0 0.4175477,-0.18604 0.4175477,-0.41617 v -2.6541 c 0,-0.23014 -0.1874131,-0.41617 -0.4175477,-0.41617 H 0.55184208 c -0.23013106,0 -0.41754425,0.18603 -0.41754425,0.41617 v 2.6541 c 0,0.23013 0.18741319,0.41617 0.41754425,0.41617 z m 0,0"
       style="fill:#211e1e;fill-opacity:1;fill-rule:nonzero;stroke:none;stroke-width:0.35277775" />
    <path
       inkscape:connector-curvature="0"
       id="path13017"
       d="m 0.55184208,293.4619 c -0.19154776,0 -0.34726386,0.15572 -0.34726386,0.34589 v 2.6541 c 0,0.19017 0.1557161,0.34451 0.34726386,0.34451 H 3.2045651 c 0.1915478,0 0.345888,-0.15434 0.345888,-0.34451 v -2.6541 c 0,-0.19017 -0.1543402,-0.34589 -0.345888,-0.34589 z m 0,0"
       style="fill:#ffffff;fill-opacity:1;fill-rule:nonzero;stroke:none;stroke-width:0.35277775" />
    <path
       inkscape:connector-curvature="0"
       id="path13019"
       d="m 1.9891363,296.26621 h -0.184658 v -2.32613 h 0.184658 z m 0,0"
       style="fill:#211e1e;fill-opacity:1;fill-rule:nonzero;stroke:none;stroke-width:0.35277775" />
    <path
       inkscape:connector-curvature="0"
       id="path13021"
       d="m 1.1443993,294.36589 c 0.1322917,0 0.2273759,0.10887 0.2480451,0.16812 l 0.1612336,0.5333 c 0.033055,0.11438 -0.1130018,0.16123 -0.1474505,0.0496 l -0.1460747,-0.48919 h -0.08406 l 0.2439141,0.86954 H 1.1871172 v 0.67937 c 0,0.11576 -0.1736302,0.11438 -0.1736302,0 v -0.6835 h -0.088194 v 0.68213 c 0,0.11713 -0.175013,0.11713 -0.175013,0 v -0.678 H 0.51739333 l 0.24115539,-0.86954 h -0.079925 l -0.14607473,0.49058 c -0.0344664,0.10749 -0.18189928,0.0634 -0.14882636,-0.051 l 0.16260938,-0.5333 c 0.017921,-0.0606 0.0937048,-0.16812 0.22737581,-0.16812 z m 0,0"
       style="fill:#211e1e;fill-opacity:1;fill-rule:nonzero;stroke:none;stroke-width:0.35277775" />
    <path
       inkscape:connector-curvature="0"
       id="path13023"
       d="m 0.96938982,294.32593 c 0.10472918,0 0.18878898,-0.0854 0.18878898,-0.18879 0,-0.10473 -0.08406,-0.19017 -0.18878898,-0.19017 -0.1047326,0 -0.1887925,0.0854 -0.1887925,0.19017 0,0.10335 0.08406,0.18879 0.1887925,0.18879"
       style="fill:#211e1e;fill-opacity:1;fill-rule:nonzero;stroke:none;stroke-width:0.35277775" />
    <path
       inkscape:connector-curvature="0"
       id="path13025"
       d="m 2.8049348,294.3218 c 0.1047326,0 0.1887926,-0.0841 0.1887926,-0.1888 0,-0.10335 -0.08406,-0.18879 -0.1887926,-0.18879 -0.1033532,0 -0.1887925,0.0854 -0.1887925,0.18879 0,0.10474 0.085439,0.1888 0.1887925,0.1888"
       style="fill:#211e1e;fill-opacity:1;fill-rule:nonzero;stroke:none;stroke-width:0.35277775" />
    <path
       inkscape:connector-curvature="0"
       id="path13027"
       d="m 2.5486207,296.15459 c 0,0.0593 0.048232,0.1061 0.1061085,0.1061 0.059256,0 0.1061085,-0.0469 0.1061085,-0.1061 v -0.88884 h 0.089574 v 0.88884 c 0,0.0593 0.046852,0.1061 0.1047293,0.1061 0.059256,0 0.1061085,-0.0469 0.1061085,-0.1061 l 0.0014,-1.53238 h 0.088195 v 0.56499 c 0,0.11438 0.1474504,0.11438 0.1474504,0 v -0.5774 c 0,-0.12402 -0.097843,-0.24804 -0.2439141,-0.24804 H 2.552787 c -0.1336711,0 -0.2411589,0.11024 -0.2411589,0.24529 v 0.58015 c 0,0.113 0.1488299,0.113 0.1488299,0 v -0.56499 h 0.08957 z m 0,0"
       style="fill:#211e1e;fill-opacity:1;fill-rule:nonzero;stroke:none;stroke-width:0.35277775" />
  </g>
</svg>
