<?xml version="1.0" encoding="UTF-8" standalone="no"?>
<!-- Created with Inkscape (http://www.inkscape.org/) -->

<svg
   xmlns:dc="http://purl.org/dc/elements/1.1/"
   xmlns:cc="http://creativecommons.org/ns#"
   xmlns:rdf="http://www.w3.org/1999/02/22-rdf-syntax-ns#"
   xmlns:svg="http://www.w3.org/2000/svg"
   xmlns="http://www.w3.org/2000/svg"
   xmlns:sodipodi="http://sodipodi.sourceforge.net/DTD/sodipodi-0.dtd"
   xmlns:inkscape="http://www.inkscape.org/namespaces/inkscape"
   width="3.75mm"
   height="3.75mm"
   viewBox="0 0 3.75 3.75"
   version="1.1"
   id="svg13826"
   inkscape:version="0.92.1 r15371"
   sodipodi:docname="showers_light.svg">
  <defs
     id="defs13820" />
  <sodipodi:namedview
     id="base"
     pagecolor="#ffffff"
     bordercolor="#666666"
     borderopacity="1.0"
     inkscape:pageopacity="0.0"
     inkscape:pageshadow="2"
     inkscape:zoom="20.285322"
     inkscape:cx="8.0003469"
     inkscape:cy="6.7152255"
     inkscape:document-units="mm"
     inkscape:current-layer="layer1"
     showgrid="false"
     inkscape:window-width="608"
     inkscape:window-height="712"
     inkscape:window-x="790"
     inkscape:window-y="47"
     inkscape:window-maximized="0"
     showguides="true"
     inkscape:guide-bbox="true"
     gridtolerance="10"
     guidetolerance="2">
    <inkscape:grid
       type="xygrid"
       id="grid13828" />
    <sodipodi:guide
       position="0.13043093,3.8477124"
       orientation="1,0"
       id="guide20533"
       inkscape:locked="false" />
    <sodipodi:guide
       position="1.9173346,3.6129367"
       orientation="0,1"
       id="guide20535"
       inkscape:locked="false" />
  </sodipodi:namedview>
  <metadata
     id="metadata13823">
    <rdf:RDF>
      <cc:Work
         rdf:about="">
        <dc:format>image/svg+xml</dc:format>
        <dc:type
           rdf:resource="http://purl.org/dc/dcmitype/StillImage" />
        <dc:title></dc:title>
      </cc:Work>
    </rdf:RDF>
  </metadata>
  <g
     inkscape:label="Layer 1"
     inkscape:groupmode="layer"
     id="layer1"
     transform="translate(0,-293.25)">
    <path
       inkscape:connector-curvature="0"
       id="path13181"
       d="m 3.2052548,296.86501 c 0.2301346,0 0.4161684,-0.18604 0.4161684,-0.41617 v -2.6541 c 0,-0.23013 -0.1860338,-0.41617 -0.4161684,-0.41617 H 0.55253173 c -0.23013106,0 -0.41754425,0.18604 -0.41754425,0.41617 v 2.6541 c 0,0.23013 0.18741319,0.41617 0.41754425,0.41617 z m 0,0"
       style="fill:#211e1e;fill-opacity:1;fill-rule:nonzero;stroke:none;stroke-width:0.35277775" />
    <path
       inkscape:connector-curvature="0"
       id="path13183"
       d="m 0.55253173,293.44885 c -0.19154776,0 -0.34726386,0.15572 -0.34726386,0.34589 v 2.6541 c 0,0.19017 0.1557161,0.34451 0.34726386,0.34451 H 3.2052548 c 0.1901719,0 0.345888,-0.15434 0.345888,-0.34451 v -2.6541 c 0,-0.19017 -0.1557161,-0.34589 -0.345888,-0.34589 z m 0,0"
       style="fill:#ffffff;fill-opacity:1;fill-rule:nonzero;stroke:none;stroke-width:0.35277775" />
    <path
       inkscape:connector-curvature="0"
       id="path13185"
       d="m 2.0394371,295.24995 c 0.1915442,0 0.3472639,-0.15434 0.3472639,-0.34589 0,-0.19155 -0.1557197,-0.34727 -0.3472639,-0.34727 -0.1915477,0 -0.345888,0.15572 -0.345888,0.34727 0,0.19155 0.1543403,0.34589 0.345888,0.34589"
       style="fill:#211e1e;fill-opacity:1;fill-rule:nonzero;stroke:none;stroke-width:0.35277775" />
    <path
       inkscape:connector-curvature="0"
       id="path13187"
       d="m 1.5681472,295.36157 c 0.037208,-0.0358 0.086815,-0.0579 0.1419366,-0.0579 h 0.6835069 l 0.6890208,-0.689 c 0.1460711,-0.14883 0.3389947,0.0441 0.1915477,0.19155 l -0.7537872,0.75654 v 1.03353 H 1.616379 v -0.50161 H 1.2071003 c -0.085439,0 -0.1543402,-0.0689 -0.1543402,-0.15434 0,-0.0372 0.012418,-0.0703 0.033055,-0.0965 z m 0.1446918,0.73174 c 0,0.0372 0.030304,0.0854 0.068905,0.0854 h 0.1598507 c 0.037208,0 0.085439,-0.0482 0.085439,-0.0854 v -0.2949 c 0,-0.0372 -0.048232,-0.0841 -0.085439,-0.0841 H 1.7817435 c -0.035832,0 -0.06477,0.0441 -0.068905,0.0785 0.2315104,0 0.2301346,0.30042 0,0.30042"
       style="fill:#211e1e;fill-opacity:1;fill-rule:nonzero;stroke:none;stroke-width:0.35277775" />
    <path
       inkscape:connector-curvature="0"
       id="path13189"
       d="m 0.47536158,294.01522 0.0840599,0.0841 0.40514408,-0.41478 -0.08406,-0.0841 -0.18327862,0.0689 -0.0854392,-0.0841 -0.16949914,0.1695 0.0854393,0.0841 z m 0,0"
       style="fill:#211e1e;fill-opacity:1;fill-rule:nonzero;stroke:none;stroke-width:0.35277775" />
    <path
       inkscape:connector-curvature="0"
       id="path13191"
       d="m 1.0996125,295.33263 c -0.00826,0.051 0.027552,0.0978 0.07717,0.10473 0.050987,0.008 0.097843,-0.0289 0.1047326,-0.0772 0.00688,-0.051 -0.027552,-0.0978 -0.07855,-0.10473 -0.049608,-0.007 -0.096463,0.0276 -0.1033532,0.0772"
       style="fill:#211e1e;fill-opacity:1;fill-rule:nonzero;stroke:none;stroke-width:0.35277775" />
    <path
       inkscape:connector-curvature="0"
       id="path13193"
       d="m 1.1795413,295.12317 c 0.00688,-0.0482 -0.026176,-0.0923 -0.074415,-0.0992 -0.046852,-0.007 -0.09095,0.0262 -0.097843,0.0744 -0.00688,0.0482 0.026176,0.091 0.073039,0.0978 0.046852,0.008 0.092325,-0.0262 0.099219,-0.073"
       style="fill:#211e1e;fill-opacity:1;fill-rule:nonzero;stroke:none;stroke-width:0.35277775" />
    <path
       inkscape:connector-curvature="0"
       id="path13195"
       d="m 1.0775639,294.88752 c 0.00688,-0.0455 -0.0248,-0.0882 -0.07028,-0.0951 -0.045473,-0.005 -0.086815,0.0248 -0.093705,0.0703 -0.0055,0.0469 0.0248,0.0868 0.07028,0.0937 0.045473,0.008 0.088194,-0.0248 0.093705,-0.0689"
       style="fill:#211e1e;fill-opacity:1;fill-rule:nonzero;stroke:none;stroke-width:0.35277775" />
    <path
       inkscape:connector-curvature="0"
       id="path13197"
       d="m 0.97558986,294.6505 c 0.00688,-0.0427 -0.022049,-0.0827 -0.066146,-0.0882 -0.042718,-0.007 -0.08268,0.0234 -0.088194,0.0661 -0.00688,0.0427 0.023424,0.0813 0.066146,0.0882 0.042718,0.007 0.082684,-0.0234 0.088194,-0.0661"
       style="fill:#211e1e;fill-opacity:1;fill-rule:nonzero;stroke:none;stroke-width:0.35277775" />
    <path
       inkscape:connector-curvature="0"
       id="path13199"
       d="m 0.87499176,294.41485 c 0.0055,-0.0413 -0.022049,-0.0785 -0.063387,-0.0841 -0.039963,-0.005 -0.07717,0.022 -0.082684,0.062 -0.00688,0.0413 0.020673,0.0772 0.062011,0.0841 0.039963,0.007 0.07855,-0.022 0.08406,-0.062"
       style="fill:#211e1e;fill-opacity:1;fill-rule:nonzero;stroke:none;stroke-width:0.35277775" />
    <path
       inkscape:connector-curvature="0"
       id="path13201"
       d="m 0.63521577,294.15854 c -0.005503,0.0386 0.0206727,0.0717 0.0592561,0.0786 0.0372039,0.005 0.0730356,-0.022 0.078546,-0.0593 0.0055,-0.0372 -0.020673,-0.073 -0.059256,-0.0786 -0.0385833,-0.005 -0.0730356,0.0207 -0.078546,0.0593"
       style="fill:#211e1e;fill-opacity:1;fill-rule:nonzero;stroke:none;stroke-width:0.35277775" />
    <path
       inkscape:connector-curvature="0"
       id="path13203"
       d="m 1.4413659,294.99914 c 0.00282,-0.0496 0.045477,-0.0882 0.095084,-0.0854 0.050991,0.003 0.089574,0.0441 0.086819,0.0951 -0.00141,0.051 -0.045477,0.0882 -0.095084,0.0854 -0.050987,-0.001 -0.089574,-0.0441 -0.086819,-0.0951"
       style="fill:#211e1e;fill-opacity:1;fill-rule:nonzero;stroke:none;stroke-width:0.35277775" />
    <path
       inkscape:connector-curvature="0"
       id="path13205"
       d="m 1.3848686,294.9013 c -0.048232,-0.003 -0.085439,-0.0427 -0.082684,-0.091 0.00282,-0.0482 0.044097,-0.0841 0.09095,-0.0827 0.048232,0.003 0.084064,0.0427 0.082684,0.0909 -0.00282,0.0482 -0.042718,0.0841 -0.09095,0.0827"
       style="fill:#211e1e;fill-opacity:1;fill-rule:nonzero;stroke:none;stroke-width:0.35277775" />
    <path
       inkscape:connector-curvature="0"
       id="path13207"
       d="m 1.2415526,294.707 c -0.045477,-0.003 -0.079929,-0.04 -0.07717,-0.0854 0.00141,-0.0455 0.039963,-0.0813 0.085436,-0.0786 0.045477,0.003 0.079929,0.0413 0.07855,0.0868 -0.00282,0.0441 -0.041342,0.0799 -0.086815,0.0772"
       style="fill:#211e1e;fill-opacity:1;fill-rule:nonzero;stroke:none;stroke-width:0.35277775" />
    <path
       inkscape:connector-curvature="0"
       id="path13209"
       d="m 1.0982366,294.5127 c -0.042721,-10e-4 -0.075794,-0.0372 -0.073036,-0.0813 0.00141,-0.0427 0.038583,-0.0758 0.081301,-0.073 0.042721,10e-4 0.075794,0.0386 0.074415,0.0813 -0.00282,0.0427 -0.039963,0.0758 -0.08268,0.073"
       style="fill:#211e1e;fill-opacity:1;fill-rule:nonzero;stroke:none;stroke-width:0.35277775" />
    <path
       inkscape:connector-curvature="0"
       id="path13211"
       d="m 0.95492066,294.31977 c -0.039963,-0.003 -0.07166,-0.0372 -0.068904,-0.0772 0.00141,-0.04 0.035832,-0.0717 0.07717,-0.0703 0.039966,0.003 0.07166,0.0372 0.068905,0.0772 -0.00141,0.04 -0.035832,0.0717 -0.07717,0.0703"
       style="fill:#211e1e;fill-opacity:1;fill-rule:nonzero;stroke:none;stroke-width:0.35277775" />
    <path
       inkscape:connector-curvature="0"
       id="path13213"
       d="m 0.74683466,294.05381 c 0.00141,-0.0386 0.034466,-0.0675 0.07166,-0.0661 0.038583,0.001 0.067522,0.0344 0.066146,0.0716 -0.00141,0.0386 -0.034466,0.0689 -0.073036,0.0661 -0.037207,-0.003 -0.067525,-0.0345 -0.06477,-0.0717"
       style="fill:#211e1e;fill-opacity:1;fill-rule:nonzero;stroke:none;stroke-width:0.35277775" />
    <path
       inkscape:connector-curvature="0"
       id="path13215"
       d="m 1.6907904,294.60916 c -0.050987,0.003 -0.095084,-0.0358 -0.09646,-0.0854 -0.00282,-0.051 0.037208,-0.0937 0.086815,-0.0965 0.049611,-10e-4 0.092329,0.0358 0.095084,0.0882 0.00282,0.0482 -0.035828,0.0923 -0.085439,0.0937"
       style="fill:#211e1e;fill-opacity:1;fill-rule:nonzero;stroke:none;stroke-width:0.35277775" />
    <path
       inkscape:connector-curvature="0"
       id="path13217"
       d="m 1.5805473,294.37214 c 0.00282,0.0455 -0.033055,0.0854 -0.079925,0.0882 -0.046852,0.001 -0.088194,-0.0345 -0.08957,-0.0813 -0.00282,-0.0469 0.034431,-0.0868 0.081301,-0.0896 0.046856,-0.001 0.086819,0.0345 0.088194,0.0827"
       style="fill:#211e1e;fill-opacity:1;fill-rule:nonzero;stroke:none;stroke-width:0.35277775" />
    <path
       inkscape:connector-curvature="0"
       id="path13219"
       d="m 1.3862444,294.22882 c 0.00141,0.0427 -0.031679,0.0799 -0.075791,0.0827 -0.044097,0.001 -0.082684,-0.0317 -0.08406,-0.0758 -0.00282,-0.0441 0.03168,-0.0813 0.075791,-0.0841 0.044097,-10e-4 0.081305,0.0317 0.08406,0.0772"
       style="fill:#211e1e;fill-opacity:1;fill-rule:nonzero;stroke:none;stroke-width:0.35277775" />
    <path
       inkscape:connector-curvature="0"
       id="path13221"
       d="m 1.1905656,294.0855 c 0.00282,0.04 -0.028928,0.0758 -0.07028,0.0772 -0.041342,0.001 -0.075794,-0.0303 -0.07855,-0.0703 -0.00141,-0.0413 0.030304,-0.0758 0.07166,-0.0785 0.039963,-10e-4 0.075791,0.0303 0.07717,0.0716"
       style="fill:#211e1e;fill-opacity:1;fill-rule:nonzero;stroke:none;stroke-width:0.35277775" />
    <path
       inkscape:connector-curvature="0"
       id="path13223"
       d="m 0.85845706,293.94908 c -0.00282,-0.0386 0.027552,-0.0717 0.066146,-0.073 0.037208,-10e-4 0.07028,0.0276 0.071656,0.0661 0.00141,0.0372 -0.027552,0.0703 -0.066146,0.0717 -0.037204,0.001 -0.070277,-0.0276 -0.071656,-0.0648"
       style="fill:#211e1e;fill-opacity:1;fill-rule:nonzero;stroke:none;stroke-width:0.35277775" />
    <path
       inkscape:connector-curvature="0"
       id="path13225"
       d="m 1.0293321,293.76442 c 0.037208,-0.005 0.073039,0.0207 0.07855,0.0593 0.0055,0.0372 -0.020673,0.073 -0.059256,0.0786 -0.037208,0.005 -0.073036,-0.0207 -0.078546,-0.0593 -0.0055,-0.0372 0.020673,-0.073 0.059252,-0.0786"
       style="fill:#211e1e;fill-opacity:1;fill-rule:nonzero;stroke:none;stroke-width:0.35277775" />
    <path
       inkscape:connector-curvature="0"
       id="path13227"
       d="m 1.3559302,293.92427 c 0.00688,0.04 -0.020673,0.0772 -0.062015,0.0827 -0.039963,0.007 -0.07717,-0.0221 -0.08268,-0.0606 -0.0055,-0.04 0.022049,-0.0786 0.062011,-0.0841 0.039963,-0.006 0.07717,0.022 0.082684,0.062"
       style="fill:#211e1e;fill-opacity:1;fill-rule:nonzero;stroke:none;stroke-width:0.35277775" />
    <path
       inkscape:connector-curvature="0"
       id="path13229"
       d="m 1.6053547,294.02487 c 0.0055,0.0427 -0.023424,0.0813 -0.06477,0.0882 -0.042718,0.006 -0.082681,-0.0234 -0.088195,-0.0648 -0.0055,-0.0427 0.023424,-0.0813 0.06477,-0.0882 0.042718,-0.005 0.081305,0.0234 0.088195,0.0648"
       style="fill:#211e1e;fill-opacity:1;fill-rule:nonzero;stroke:none;stroke-width:0.35277775" />
    <path
       inkscape:connector-curvature="0"
       id="path13231"
       d="m 1.8533998,294.12685 c 0.00688,0.0441 -0.023424,0.0841 -0.067522,0.0909 -0.044097,0.007 -0.085439,-0.0234 -0.092329,-0.0675 -0.0055,-0.0441 0.0248,-0.0854 0.068901,-0.0923 0.044097,-0.007 0.085439,0.0248 0.09095,0.0689"
       style="fill:#211e1e;fill-opacity:1;fill-rule:nonzero;stroke:none;stroke-width:0.35277775" />
    <path
       inkscape:connector-curvature="0"
       id="path13233"
       d="m 2.1028242,294.22744 c 0.0055,0.0469 -0.026176,0.0896 -0.071656,0.0965 -0.045477,0.007 -0.089574,-0.0262 -0.095084,-0.0717 -0.00688,-0.0455 0.0248,-0.0896 0.07028,-0.0965 0.046852,-0.006 0.08957,0.0262 0.09646,0.0716"
       style="fill:#211e1e;fill-opacity:1;fill-rule:nonzero;stroke:none;stroke-width:0.35277775" />
    <path
       inkscape:connector-curvature="0"
       id="path13235"
       d="m 2.3508729,294.32942 c 0.00688,0.0482 -0.026176,0.0923 -0.074415,0.0992 -0.048232,0.007 -0.093705,-0.0262 -0.099219,-0.0744 -0.00688,-0.0482 0.026176,-0.0937 0.073036,-0.1006 0.048232,-0.007 0.093708,0.0276 0.1005981,0.0758"
       style="fill:#211e1e;fill-opacity:1;fill-rule:nonzero;stroke:none;stroke-width:0.35277775" />
    <path
       inkscape:connector-curvature="0"
       id="path13237"
       d="m 2.4955647,294.35147 c 0.049611,-0.007 0.096464,0.0289 0.1047326,0.0785 0.00688,0.0496 -0.028928,0.0965 -0.078549,0.10474 -0.049608,0.007 -0.09646,-0.0276 -0.1033533,-0.0786 -0.00688,-0.0496 0.027552,-0.0965 0.07717,-0.10473"
       style="fill:#211e1e;fill-opacity:1;fill-rule:nonzero;stroke:none;stroke-width:0.35277775" />
  </g>
</svg>
