<?xml version="1.0" encoding="UTF-8" standalone="no"?>
<!-- Created with Inkscape (http://www.inkscape.org/) -->

<svg
   xmlns:dc="http://purl.org/dc/elements/1.1/"
   xmlns:cc="http://creativecommons.org/ns#"
   xmlns:rdf="http://www.w3.org/1999/02/22-rdf-syntax-ns#"
   xmlns:svg="http://www.w3.org/2000/svg"
   xmlns="http://www.w3.org/2000/svg"
   xmlns:sodipodi="http://sodipodi.sourceforge.net/DTD/sodipodi-0.dtd"
   xmlns:inkscape="http://www.inkscape.org/namespaces/inkscape"
   width="3.75mm"
   height="3.75mm"
   viewBox="0 0 3.75 3.75"
   version="1.1"
   id="svg13826"
   inkscape:version="0.92.1 r15371"
   sodipodi:docname="wine_light.svg">
  <defs
     id="defs13820" />
  <sodipodi:namedview
     id="base"
     pagecolor="#ffffff"
     bordercolor="#666666"
     borderopacity="1.0"
     inkscape:pageopacity="0.0"
     inkscape:pageshadow="2"
     inkscape:zoom="20.285322"
     inkscape:cx="8.0003469"
     inkscape:cy="6.7152255"
     inkscape:document-units="mm"
     inkscape:current-layer="layer1"
     showgrid="false"
     inkscape:window-width="608"
     inkscape:window-height="712"
     inkscape:window-x="790"
     inkscape:window-y="47"
     inkscape:window-maximized="0"
     showguides="true"
     inkscape:guide-bbox="true"
     gridtolerance="10"
     guidetolerance="2">
    <inkscape:grid
       type="xygrid"
       id="grid13828" />
    <sodipodi:guide
       position="0.13043093,3.8477124"
       orientation="1,0"
       id="guide20533"
       inkscape:locked="false" />
    <sodipodi:guide
       position="1.9173346,3.6129367"
       orientation="0,1"
       id="guide20535"
       inkscape:locked="false" />
  </sodipodi:namedview>
  <metadata
     id="metadata13823">
    <rdf:RDF>
      <cc:Work
         rdf:about="">
        <dc:format>image/svg+xml</dc:format>
        <dc:type
           rdf:resource="http://purl.org/dc/dcmitype/StillImage" />
        <dc:title></dc:title>
      </cc:Work>
    </rdf:RDF>
  </metadata>
  <g
     inkscape:label="Layer 1"
     inkscape:groupmode="layer"
     id="layer1"
     transform="translate(0,-293.25)">
    <path
       inkscape:connector-curvature="0"
       id="path10437"
       d="m 3.2038772,296.85266 c 0.2301346,0 0.4175477,-0.18604 0.4175477,-0.41755 v -2.65273 c 0,-0.23013 -0.1874131,-0.41754 -0.4175477,-0.41754 H 0.55115415 c -0.23013106,0 -0.41616842,0.18741 -0.41616842,0.41754 v 2.65273 c 0,0.23151 0.18603736,0.41755 0.41616842,0.41755 z m 0,0"
       style="fill:#211e1e;fill-opacity:1;fill-rule:nonzero;stroke:none;stroke-width:0.35277775" />
    <path
       inkscape:connector-curvature="0"
       id="path10439"
       d="m 0.54839893,293.4365 c -0.19016837,0 -0.34588801,0.15434 -0.34588801,0.34588 v 2.65411 c 0,0.19154 0.15571964,0.34588 0.34588801,0.34588 H 3.2038772 c 0.1915477,0 0.3472672,-0.15434 0.3472672,-0.34588 v -2.65411 c 0,-0.19154 -0.1557195,-0.34588 -0.3472672,-0.34588 z m 0,0"
       style="fill:#ffffff;fill-opacity:1;fill-rule:nonzero;stroke:none;stroke-width:0.35277775" />
    <path
       inkscape:connector-curvature="0"
       id="path10441"
       d="m 2.7408563,294.45625 c 0.1860373,0.0455 0.3252188,0.21359 0.3252188,0.41479 v 1.53513 c 0,0.0469 -0.037208,0.0854 -0.08406,0.0854 H 2.1455438 c -0.046852,0 -0.08406,-0.0386 -0.08406,-0.0854 v -1.53513 c 0,-0.2012 0.1378056,-0.3707 0.3252188,-0.41479 v -0.68627 h 0.3541536 z m 0,0"
       style="fill:#211e1e;fill-opacity:1;fill-rule:nonzero;stroke:none;stroke-width:0.35277775" />
    <path
       inkscape:connector-curvature="0"
       id="path10443"
       d="m 1.6081116,296.40066 -0.3624263,-0.0455 v -0.62149 c 0.6931554,-0.21084 0.3073047,-0.99081 0.2315105,-1.19614 H 0.8377861 c -0.0757908,0.20533 -0.46026565,0.9853 0.2328898,1.19614 v 0.62149 l -0.36380213,0.0455 c -0.0248002,0.003 -0.041342,0.0248 -0.0385868,0.0496 0.002822,0.0248 0.0234244,0.04 0.0496111,0.04 H 1.5970873 c 0.027552,0 0.048228,-0.0152 0.050987,-0.04 0.00282,-0.0248 -0.015169,-0.0469 -0.039963,-0.0496"
       style="fill:#211e1e;fill-opacity:1;fill-rule:nonzero;stroke:none;stroke-width:0.35277775" />
  </g>
</svg>
