<?xml version="1.0" encoding="UTF-8" standalone="no"?>
<!-- Created with Inkscape (http://www.inkscape.org/) -->

<svg
   xmlns:dc="http://purl.org/dc/elements/1.1/"
   xmlns:cc="http://creativecommons.org/ns#"
   xmlns:rdf="http://www.w3.org/1999/02/22-rdf-syntax-ns#"
   xmlns:svg="http://www.w3.org/2000/svg"
   xmlns="http://www.w3.org/2000/svg"
   xmlns:sodipodi="http://sodipodi.sourceforge.net/DTD/sodipodi-0.dtd"
   xmlns:inkscape="http://www.inkscape.org/namespaces/inkscape"
   width="3.75mm"
   height="3.75mm"
   viewBox="0 0 3.75 3.75"
   version="1.1"
   id="svg13826"
   inkscape:version="0.92.1 r15371"
   sodipodi:docname="all_terrain_trail_light.svg">
  <defs
     id="defs13820" />
  <sodipodi:namedview
     id="base"
     pagecolor="#ffffff"
     bordercolor="#666666"
     borderopacity="1.0"
     inkscape:pageopacity="0.0"
     inkscape:pageshadow="2"
     inkscape:zoom="30.586462"
     inkscape:cx="6.9619327"
     inkscape:cy="6.5754939"
     inkscape:document-units="mm"
     inkscape:current-layer="layer1"
     showgrid="false"
     inkscape:window-width="742"
     inkscape:window-height="651"
     inkscape:window-x="553"
     inkscape:window-y="34"
     inkscape:window-maximized="0"
     showguides="true"
     inkscape:guide-bbox="true"
     gridtolerance="10"
     guidetolerance="2">
    <inkscape:grid
       type="xygrid"
       id="grid13828" />
    <sodipodi:guide
       position="0.13043093,3.8477124"
       orientation="1,0"
       id="guide20533"
       inkscape:locked="false" />
    <sodipodi:guide
       position="1.9173346,3.6129367"
       orientation="0,1"
       id="guide20535"
       inkscape:locked="false" />
  </sodipodi:namedview>
  <metadata
     id="metadata13823">
    <rdf:RDF>
      <cc:Work
         rdf:about="">
        <dc:format>image/svg+xml</dc:format>
        <dc:type
           rdf:resource="http://purl.org/dc/dcmitype/StillImage" />
        <dc:title></dc:title>
      </cc:Work>
    </rdf:RDF>
  </metadata>
  <g
     inkscape:label="Layer 1"
     inkscape:groupmode="layer"
     id="layer1"
     transform="translate(0,-293.25)">
    <path
       inkscape:connector-curvature="0"
       id="path4571"
       d="m 3.1955249,296.88409 c 0.2301311,0 0.4161684,-0.18742 0.4161684,-0.41755 v -2.65272 c 0,-0.23014 -0.1860373,-0.41755 -0.4161684,-0.41755 H 0.54280188 c -0.23151041,0 -0.41754777,0.18741 -0.41754777,0.41755 v 2.65272 c 0,0.23013 0.18603736,0.41755 0.41754777,0.41755 z m 0,0"
       style="fill:#211e1e;fill-opacity:1;fill-rule:nonzero;stroke:none;stroke-width:0.35277775" />
    <path
       inkscape:connector-curvature="0"
       id="path4573"
       d="m 0.54280188,293.46793 c -0.19154775,0 -0.34726738,0.15434 -0.34726738,0.34589 v 2.65272 c 0,0.19155 0.15571963,0.34589 0.34726738,0.34589 H 3.1955249 c 0.1901684,0 0.3458879,-0.15434 0.3458879,-0.34589 v -2.65272 c 0,-0.19155 -0.1557195,-0.34589 -0.3458879,-0.34589 z m 0,0"
       style="fill:#ffffff;fill-opacity:1;fill-rule:nonzero;stroke:none;stroke-width:0.35277775" />
    <path
       inkscape:connector-curvature="0"
       id="path4575"
       d="m 2.6925414,294.61721 v -0.35967 h -0.034466 c -0.097839,0 -0.1791441,0.0813 -0.1791441,0.18053 0,0.0992 0.081305,0.17914 0.1791441,0.17914 z m 0,0"
       style="fill:#211e1e;fill-opacity:1;fill-rule:nonzero;stroke:none;stroke-width:0.35277775" />
    <path
       inkscape:connector-curvature="0"
       id="path4577"
       d="m 2.4210683,294.53591 -0.157099,-0.3142 c -0.034466,-0.0648 -0.1019739,-0.10748 -0.1805199,-0.10748 H 1.718268 c -0.034466,0 -0.060636,0.0276 -0.060636,0.0606 0,0.0344 0.026176,0.062 0.060636,0.062 h 0.3651814 c 0.028928,0 0.062011,0.0193 0.074411,0.0482 l 0.1005981,0.19982 z m 0,0"
       style="fill:#211e1e;fill-opacity:1;fill-rule:nonzero;stroke:none;stroke-width:0.35277775" />
    <path
       inkscape:connector-curvature="0"
       id="path4579"
       d="m 3.1445378,294.87077 c 0.048232,0.0138 0.082681,0.0579 0.082681,0.11024 H 2.9626352 c -0.3500191,0 -0.6338959,0.28388 -0.6338959,0.63252 H 1.4647089 c 0,-0.27974 -0.1819027,-0.51814 -0.4340824,-0.60082 l -0.47680031,-0.1571 0.078546,-0.12126 c 0.0289278,-0.0413 0.0771701,-0.0689 0.13091583,-0.0689 0.0124177,0 0.0234244,0 0.0344664,0.003 l 1.06109198,0.32936 c 0.012382,0.003 0.026176,0.006 0.041338,0.006 0.046856,0 0.089574,-0.0248 0.1143776,-0.0606 l 0.2411589,-0.34865 z m 0,0"
       style="fill:#211e1e;fill-opacity:1;fill-rule:nonzero;stroke:none;stroke-width:0.35277775" />
    <path
       inkscape:connector-curvature="0"
       id="path4581"
       d="m 2.866175,295.88501 c 0.08957,0 0.1612302,-0.0717 0.1612302,-0.16123 0,-0.0896 -0.07166,-0.16123 -0.1612302,-0.16123 -0.088194,0 -0.1612335,0.0717 -0.1612335,0.16123 0,0.0896 0.073039,0.16123 0.1612335,0.16123 m -0.4313272,-0.16123 c 0,-0.2384 0.1929236,-0.43133 0.4313272,-0.43133 0.2384001,0 0.4313237,0.19293 0.4313237,0.43133 0,0.2384 -0.1929236,0.43132 -0.4313237,0.43132 -0.2384036,0 -0.4313272,-0.19292 -0.4313272,-0.43132"
       style="fill:#211e1e;fill-opacity:1;fill-rule:nonzero;stroke:none;stroke-width:0.35277775" />
    <path
       inkscape:connector-curvature="0"
       id="path4583"
       d="m 0.87904142,295.85469 c 0.0964636,0 0.17638888,-0.0786 0.17638888,-0.17639 0,-0.0978 -0.079925,-0.17777 -0.17638888,-0.17777 -0.0992188,0 -0.17776471,0.0799 -0.17776471,0.17777 0,0.0978 0.078546,0.17639 0.17776471,0.17639 M 0.40224111,295.6783 c 0,-0.26183 0.21359635,-0.47542 0.47542447,-0.47542 0.26182462,0 0.47404512,0.21359 0.47404512,0.47542 0,0.26183 -0.2122205,0.47405 -0.47404512,0.47405 -0.26182812,0 -0.47542447,-0.21222 -0.47542447,-0.47405"
       style="fill:#211e1e;fill-opacity:1;fill-rule:nonzero;stroke:none;stroke-width:0.35277775" />
  </g>
</svg>
