<?xml version="1.0" encoding="UTF-8" standalone="no"?>
<!-- Created with Inkscape (http://www.inkscape.org/) -->

<svg
   xmlns:dc="http://purl.org/dc/elements/1.1/"
   xmlns:cc="http://creativecommons.org/ns#"
   xmlns:rdf="http://www.w3.org/1999/02/22-rdf-syntax-ns#"
   xmlns:svg="http://www.w3.org/2000/svg"
   xmlns="http://www.w3.org/2000/svg"
   xmlns:sodipodi="http://sodipodi.sourceforge.net/DTD/sodipodi-0.dtd"
   xmlns:inkscape="http://www.inkscape.org/namespaces/inkscape"
   width="3.75mm"
   height="3.75mm"
   viewBox="0 0 3.75 3.75"
   version="1.1"
   id="svg13826"
   inkscape:version="0.92.1 r15371"
   sodipodi:docname="all_terrain_trail_dark.svg">
  <defs
     id="defs13820" />
  <sodipodi:namedview
     id="base"
     pagecolor="#ffffff"
     bordercolor="#666666"
     borderopacity="1.0"
     inkscape:pageopacity="0.0"
     inkscape:pageshadow="2"
     inkscape:zoom="30.586462"
     inkscape:cx="6.9619327"
     inkscape:cy="6.5754939"
     inkscape:document-units="mm"
     inkscape:current-layer="layer1"
     showgrid="false"
     inkscape:window-width="742"
     inkscape:window-height="651"
     inkscape:window-x="696"
     inkscape:window-y="48"
     inkscape:window-maximized="0"
     showguides="true"
     inkscape:guide-bbox="true"
     gridtolerance="10"
     guidetolerance="2">
    <inkscape:grid
       type="xygrid"
       id="grid13828" />
    <sodipodi:guide
       position="0.13043093,3.8477124"
       orientation="1,0"
       id="guide20533"
       inkscape:locked="false" />
    <sodipodi:guide
       position="1.9173346,3.6129367"
       orientation="0,1"
       id="guide20535"
       inkscape:locked="false" />
  </sodipodi:namedview>
  <metadata
     id="metadata13823">
    <rdf:RDF>
      <cc:Work
         rdf:about="">
        <dc:format>image/svg+xml</dc:format>
        <dc:type
           rdf:resource="http://purl.org/dc/dcmitype/StillImage" />
        <dc:title></dc:title>
      </cc:Work>
    </rdf:RDF>
  </metadata>
  <g
     inkscape:label="Layer 1"
     inkscape:groupmode="layer"
     id="layer1"
     transform="translate(0,-293.25)">
    <path
       inkscape:connector-curvature="0"
       id="path2689"
       d="m 0.55076081,293.45928 c -0.19016838,0 -0.34588448,0.15434 -0.34588448,0.34589 v 2.65272 c 0,0.19155 0.1557161,0.34589 0.34588448,0.34589 H 3.2034874 c 0.1901682,0 0.3458845,-0.15434 0.3458845,-0.34589 v -2.65272 c 0,-0.19155 -0.1557163,-0.34589 -0.3458845,-0.34589 z m 0,0"
       style="fill:#ffffff;fill-opacity:1;fill-rule:nonzero;stroke:none;stroke-width:0.35277775" />
    <path
       inkscape:connector-curvature="0"
       id="path2691"
       d="m 3.2034874,296.87544 c 0.2301309,0 0.4161647,-0.18742 0.4161647,-0.41755 v -2.65272 c 0,-0.23014 -0.1860338,-0.41755 -0.4161647,-0.41755 H 0.55076081 c -0.2315104,0 -0.41616487,0.18741 -0.41616487,0.41755 v 2.65272 c 0,0.23013 0.18465447,0.41755 0.41616487,0.41755 z m 0,0"
       style="fill:#211e1e;fill-opacity:1;fill-rule:nonzero;stroke:none;stroke-width:0.35277775" />
    <path
       inkscape:connector-curvature="0"
       id="path2693"
       d="m 2.7005003,294.60856 v -0.35967 h -0.033055 c -0.099219,0 -0.1791441,0.0813 -0.1791441,0.18053 0,0.0992 0.079925,0.17914 0.1791441,0.17914 z m 0,0"
       style="fill:#ffffff;fill-opacity:1;fill-rule:nonzero;stroke:none;stroke-width:0.35277775" />
    <path
       inkscape:connector-curvature="0"
       id="path2695"
       d="m 2.4290272,294.52726 -0.1557161,-0.3142 c -0.035832,-0.0648 -0.1033533,-0.10748 -0.1819028,-0.10748 H 1.7276062 c -0.034431,0 -0.062011,0.0276 -0.062011,0.0606 0,0.0344 0.027552,0.062 0.062011,0.062 h 0.3638021 c 0.028928,0 0.062011,0.0193 0.075794,0.0482 l 0.099219,0.19982 z m 0,0"
       style="fill:#ffffff;fill-opacity:1;fill-rule:nonzero;stroke:none;stroke-width:0.35277775" />
    <path
       inkscape:connector-curvature="0"
       id="path2697"
       d="m 3.1538762,294.86212 c 0.046852,0.0138 0.081305,0.0579 0.081305,0.11024 H 2.9705974 c -0.3500224,0 -0.6325198,0.28388 -0.6325198,0.63252 H 1.4740472 c 0,-0.27974 -0.1832786,-0.51814 -0.4354582,-0.60082 l -0.47680387,-0.1571 0.0799289,-0.12126 c 0.0275519,-0.0413 0.0757908,-0.0689 0.13091231,-0.0689 0.0124177,0 0.0234244,0 0.0344664,0.003 l 1.05970916,0.32936 c 0.013794,0.003 0.027552,0.006 0.041342,0.006 0.048232,0 0.089574,-0.0248 0.1143776,-0.0606 l 0.2411554,-0.34865 z m 0,0"
       style="fill:#ffffff;fill-opacity:1;fill-rule:nonzero;stroke:none;stroke-width:0.35277775" />
    <path
       inkscape:connector-curvature="0"
       id="path2699"
       d="m 2.8741341,295.87636 c 0.089574,0 0.1626092,-0.0717 0.1626092,-0.16123 0,-0.0896 -0.073036,-0.16123 -0.1626092,-0.16123 -0.088195,0 -0.1598508,0.0717 -0.1598508,0.16123 0,0.0896 0.071656,0.16123 0.1598508,0.16123 m -0.4313238,-0.16123 c 0,-0.2384 0.1929235,-0.43133 0.4313238,-0.43133 0.2384001,0 0.4313272,0.19293 0.4313272,0.43133 0,0.2384 -0.1929271,0.43132 -0.4313272,0.43132 -0.2384003,0 -0.4313238,-0.19292 -0.4313238,-0.43132"
       style="fill:#ffffff;fill-opacity:1;fill-rule:nonzero;stroke:none;stroke-width:0.35277775" />
    <path
       inkscape:connector-curvature="0"
       id="path2701"
       d="m 0.88700389,295.84604 c 0.0978394,0 0.17776821,-0.0786 0.17776821,-0.17639 0,-0.0978 -0.0799289,-0.17777 -0.17776821,-0.17777 -0.0978394,0 -0.17776825,0.0799 -0.17776825,0.17777 0,0.0978 0.0799289,0.17639 0.17776825,0.17639 m -0.4754245,-0.17639 c 0,-0.26183 0.21222055,-0.47542 0.47404515,-0.47542 0.26320746,0 0.47404506,0.21359 0.47404506,0.47542 0,0.26183 -0.2108376,0.47405 -0.47404506,0.47405 -0.2618246,0 -0.47404515,-0.21222 -0.47404515,-0.47405"
       style="fill:#ffffff;fill-opacity:1;fill-rule:nonzero;stroke:none;stroke-width:0.35277775" />
  </g>
</svg>
