<?xml version="1.0" encoding="UTF-8" standalone="no"?>
<!-- Created with Inkscape (http://www.inkscape.org/) -->

<svg
   xmlns:dc="http://purl.org/dc/elements/1.1/"
   xmlns:cc="http://creativecommons.org/ns#"
   xmlns:rdf="http://www.w3.org/1999/02/22-rdf-syntax-ns#"
   xmlns:svg="http://www.w3.org/2000/svg"
   xmlns="http://www.w3.org/2000/svg"
   xmlns:sodipodi="http://sodipodi.sourceforge.net/DTD/sodipodi-0.dtd"
   xmlns:inkscape="http://www.inkscape.org/namespaces/inkscape"
   width="3.75mm"
   height="3.75mm"
   viewBox="0 0 3.75 3.75"
   version="1.1"
   id="svg13826"
   inkscape:version="0.92.1 r15371"
   sodipodi:docname="archery_dark.svg">
  <defs
     id="defs13820" />
  <sodipodi:namedview
     id="base"
     pagecolor="#ffffff"
     bordercolor="#666666"
     borderopacity="1.0"
     inkscape:pageopacity="0.0"
     inkscape:pageshadow="2"
     inkscape:zoom="30.586462"
     inkscape:cx="6.9619327"
     inkscape:cy="6.5754939"
     inkscape:document-units="mm"
     inkscape:current-layer="layer1"
     showgrid="false"
     inkscape:window-width="742"
     inkscape:window-height="651"
     inkscape:window-x="553"
     inkscape:window-y="34"
     inkscape:window-maximized="0"
     showguides="true"
     inkscape:guide-bbox="true"
     gridtolerance="10"
     guidetolerance="2">
    <inkscape:grid
       type="xygrid"
       id="grid13828" />
    <sodipodi:guide
       position="0.13043093,3.8477124"
       orientation="1,0"
       id="guide20533"
       inkscape:locked="false" />
    <sodipodi:guide
       position="1.9173346,3.6129367"
       orientation="0,1"
       id="guide20535"
       inkscape:locked="false" />
  </sodipodi:namedview>
  <metadata
     id="metadata13823">
    <rdf:RDF>
      <cc:Work
         rdf:about="">
        <dc:format>image/svg+xml</dc:format>
        <dc:type
           rdf:resource="http://purl.org/dc/dcmitype/StillImage" />
        <dc:title></dc:title>
      </cc:Work>
    </rdf:RDF>
  </metadata>
  <g
     inkscape:label="Layer 1"
     inkscape:groupmode="layer"
     id="layer1"
     transform="translate(0,-293.25)">
    <path
       inkscape:connector-curvature="0"
       id="path4049"
       d="m 0.55872501,293.46586 c -0.19016839,0 -0.34588802,0.15572 -0.34588802,0.34589 v 2.65548 c 0,0.19154 0.15571963,0.34588 0.34588802,0.34588 H 3.2142031 c 0.1901685,0 0.3458882,-0.15434 0.3458882,-0.34588 v -2.65548 c 0,-0.19017 -0.1557197,-0.34589 -0.3458882,-0.34589 z m 0,0"
       style="fill:#ffffff;fill-opacity:1;fill-rule:nonzero;stroke:none;stroke-width:0.35277775" />
    <path
       inkscape:connector-curvature="0"
       id="path4051"
       d="M 1.698363,294.32024 H 1.1154506 c -0.14055715,0 -0.14055715,0.18328 0,0.18328 H 1.698363 c 0.1405572,0 0.1405572,-0.18328 0,-0.18328"
       style="fill:#ffffff;fill-opacity:1;fill-rule:nonzero;stroke:none;stroke-width:0.35277775" />
    <path
       inkscape:connector-curvature="0"
       id="path4053"
       d="M 1.698363,294.32024 H 1.1154506 c -0.14055715,0 -0.14055715,0.18328 0,0.18328 H 1.698363 c 0.1405572,0 0.1405572,-0.18328 0,-0.18328"
       style="fill:#ffffff;fill-opacity:1;fill-rule:nonzero;stroke:none;stroke-width:0.35277775" />
    <path
       inkscape:connector-curvature="0"
       id="path4055"
       d="m 3.2142031,296.88477 c 0.2301346,0 0.4161684,-0.18741 0.4161684,-0.41754 v -2.65548 c 0,-0.23013 -0.1860338,-0.41617 -0.4161684,-0.41617 H 0.55872501 c -0.23013458,0 -0.41754777,0.18604 -0.41754777,0.41617 v 2.65548 c 0,0.23013 0.18741319,0.41754 0.41754777,0.41754 z m 0,0"
       style="fill:#211e1e;fill-opacity:1;fill-rule:nonzero;stroke:none;stroke-width:0.35277775" />
    <path
       inkscape:connector-curvature="0"
       id="path4057"
       d="m 1.6308378,294.27339 c 0.1364262,0 0.2452899,-0.11024 0.2452899,-0.24529 0,-0.13505 -0.1088637,-0.24529 -0.2452899,-0.24529 -0.1350469,0 -0.2452899,0.11024 -0.2452899,0.24529 0,0.13505 0.110243,0.24529 0.2452899,0.24529"
       style="fill:#ffffff;fill-opacity:1;fill-rule:nonzero;stroke:none;stroke-width:0.35277775" />
    <path
       inkscape:connector-curvature="0"
       id="path4059"
       d="M 1.6887145,294.3354 H 1.0754879 c -0.14745045,0 -0.14745045,0.19293 0,0.19293 h 0.6132266 c 0.1460747,0 0.1460747,-0.19293 0,-0.19293"
       style="fill:#ffffff;fill-opacity:1;fill-rule:nonzero;stroke:none;stroke-width:0.35277775" />
    <path
       inkscape:connector-curvature="0"
       id="path4061"
       d="M 2.7291337,294.3354 H 1.9367631 c 0.1460712,-0.14469 0.4175443,-0.41617 0.5567257,-0.55535 0.133671,0.1571 0.2149757,0.3514 0.2356449,0.55535 m 0,0.19293 c -0.020673,0.20257 -0.1019739,0.39549 -0.2342656,0.55259 -0.1240225,-0.12264 -0.3500225,-0.35002 -0.5016076,-0.50161 v -0.051 z m -1.0114808,0.97703 v -0.008 c 0,10e-4 0.00141,10e-4 0.00141,0.004 z m 1.1355035,-1.07487 c 0,-0.27148 -0.09646,-0.53055 -0.2742284,-0.73588 0,0 -0.045477,-0.0496 -0.045477,-0.0496 l -0.6903966,0.6904 -0.011007,0.0124 c 0.00141,0.003 0.00413,0.004 0.00688,0.008 0.00963,0.0179 0.016545,0.04 0.017921,0.0606 0,0.008 0,0.0179 -0.00141,0.0262 0,0.0179 -0.00413,0.0372 -0.012418,0.0538 l -0.00141,10e-4 c -0.00141,0.003 -0.00141,0.007 -0.00282,0.01 -0.00282,0.003 -0.00413,0.004 -0.0055,0.007 -0.030305,0.0469 -0.082686,0.073 -0.144697,0.073 H 1.3509686 v 0.89986 c 0,10e-4 0.00141,10e-4 0.00141,0.003 l -0.1901675,0.9536 c -0.015169,0.0744 0.033055,0.14746 0.1074844,0.16261 0.074415,0.0138 0.1460746,-0.0331 0.16123,-0.10886 l 0.1970616,-0.98943 v -0.001 h 0.08957 v 0.001 l 0.1970617,0.98943 c 0.015169,0.0758 0.086815,0.12264 0.1626093,0.10886 0.073036,-0.0152 0.1212674,-0.0882 0.1074844,-0.16261 l -0.1915473,-0.96332 v -0.80616 l 0.540191,0.54157 c 0,0 0.045477,-0.0496 0.045477,-0.0496 0.1777682,-0.20532 0.2742283,-0.4644 0.2742283,-0.73587"
       style="fill:#ffffff;fill-opacity:1;fill-rule:nonzero;stroke:none;stroke-width:0.35277775" />
  </g>
</svg>
