<?xml version="1.0" encoding="UTF-8" standalone="no"?>
<!-- Created with Inkscape (http://www.inkscape.org/) -->

<svg
   xmlns:dc="http://purl.org/dc/elements/1.1/"
   xmlns:cc="http://creativecommons.org/ns#"
   xmlns:rdf="http://www.w3.org/1999/02/22-rdf-syntax-ns#"
   xmlns:svg="http://www.w3.org/2000/svg"
   xmlns="http://www.w3.org/2000/svg"
   xmlns:sodipodi="http://sodipodi.sourceforge.net/DTD/sodipodi-0.dtd"
   xmlns:inkscape="http://www.inkscape.org/namespaces/inkscape"
   width="3.75mm"
   height="3.75mm"
   viewBox="0 0 3.75 3.75"
   version="1.1"
   id="svg13826"
   inkscape:version="0.92.1 r15371"
   sodipodi:docname="baseball_light.svg">
  <defs
     id="defs13820" />
  <sodipodi:namedview
     id="base"
     pagecolor="#ffffff"
     bordercolor="#666666"
     borderopacity="1.0"
     inkscape:pageopacity="0.0"
     inkscape:pageshadow="2"
     inkscape:zoom="30.586462"
     inkscape:cx="6.9619327"
     inkscape:cy="6.5754939"
     inkscape:document-units="mm"
     inkscape:current-layer="layer1"
     showgrid="false"
     inkscape:window-width="742"
     inkscape:window-height="651"
     inkscape:window-x="696"
     inkscape:window-y="48"
     inkscape:window-maximized="0"
     showguides="true"
     inkscape:guide-bbox="true"
     gridtolerance="10"
     guidetolerance="2">
    <inkscape:grid
       type="xygrid"
       id="grid13828" />
    <sodipodi:guide
       position="0.13043093,3.8477124"
       orientation="1,0"
       id="guide20533"
       inkscape:locked="false" />
    <sodipodi:guide
       position="1.9173346,3.6129367"
       orientation="0,1"
       id="guide20535"
       inkscape:locked="false" />
  </sodipodi:namedview>
  <metadata
     id="metadata13823">
    <rdf:RDF>
      <cc:Work
         rdf:about="">
        <dc:format>image/svg+xml</dc:format>
        <dc:type
           rdf:resource="http://purl.org/dc/dcmitype/StillImage" />
        <dc:title></dc:title>
      </cc:Work>
    </rdf:RDF>
  </metadata>
  <g
     inkscape:label="Layer 1"
     inkscape:groupmode="layer"
     id="layer1"
     transform="translate(0,-293.25)">
    <path
       inkscape:connector-curvature="0"
       id="path4585"
       d="m 3.1955249,296.87543 c 0.2301311,0 0.4161684,-0.18742 0.4161684,-0.41755 v -2.65272 c 0,-0.23014 -0.1860373,-0.41755 -0.4161684,-0.41755 H 0.54280187 c -0.23151041,0 -0.41754777,0.18741 -0.41754777,0.41755 v 2.65272 c 0,0.23013 0.18603736,0.41755 0.41754777,0.41755 z m 0,0"
       style="fill:#211e1e;fill-opacity:1;fill-rule:nonzero;stroke:none;stroke-width:0.35277775" />
    <path
       inkscape:connector-curvature="0"
       id="path4587"
       d="m 0.54280187,293.45927 c -0.19154775,0 -0.34726738,0.15434 -0.34726738,0.34589 v 2.65272 c 0,0.19155 0.15571963,0.34589 0.34726738,0.34589 H 3.1955249 c 0.1901684,0 0.3458879,-0.15434 0.3458879,-0.34589 v -2.65272 c 0,-0.19155 -0.1557195,-0.34589 -0.3458879,-0.34589 z m 0,0"
       style="fill:#ffffff;fill-opacity:1;fill-rule:nonzero;stroke:none;stroke-width:0.35277775" />
    <path
       inkscape:connector-curvature="0"
       id="path4589"
       d="m 2.040728,294.3922 c 0.1295365,0 0.2342656,-0.10473 0.2342656,-0.23289 0,-0.12953 -0.1047291,-0.23426 -0.2342656,-0.23426 -0.1281571,0 -0.2328862,0.10473 -0.2328862,0.23426 0,0.12816 0.1047291,0.23289 0.2328862,0.23289"
       style="fill:#211e1e;fill-opacity:1;fill-rule:nonzero;stroke:none;stroke-width:0.35277775" />
    <path
       inkscape:connector-curvature="0"
       id="path4591"
       d="m 2.6760032,296.4317 -0.3445087,-1.04593 v -0.83647 c 0,-0.11025 -0.110243,-0.10473 -0.110243,-0.10473 H 1.7761447 c 0,0 -0.017921,-0.003 -0.056497,0.0276 l -0.2590733,0.15153 -0.2700937,-0.27009 c -0.044097,-0.0524 -0.1226467,-0.0606 -0.1750131,-0.0165 -0.0537422,0.0441 -0.0551215,0.12402 -0.011007,0.17777 l 0.3445087,0.34451 c 0.023424,0.0248 0.055122,0.0413 0.092329,0.0413 0.026176,0 0.050987,-0.008 0.07166,-0.0221 l 0.2273758,-0.1254 v 0.6146 l -0.3472674,1.06247 c -0.026176,0.0923 0.028928,0.18741 0.1226468,0.21222 0.092329,0.0248 0.1874132,-0.0303 0.2122169,-0.12265 l 0.3031702,-0.91777 0.3100564,0.91915 c 0.0248,0.0937 0.1198915,0.14745 0.2122205,0.12265 0.092329,-0.0248 0.1474505,-0.11989 0.1226432,-0.21222"
       style="fill:#211e1e;fill-opacity:1;fill-rule:nonzero;stroke:none;stroke-width:0.35277775" />
    <path
       inkscape:connector-curvature="0"
       id="path4593"
       d="m 0.94243205,294.63198 c 0.0124177,0.0124 0.0316794,0.0124 0.0440972,0 l 0.004128,-0.003 c 0.0124177,-0.0124 0.0124177,-0.0331 0,-0.0455 l -0.0675252,-0.0689 c -0.0123825,-0.0124 -0.0316794,-0.0124 -0.045473,0 l -0.002822,0.004 c -0.0124177,0.0124 -0.0137935,0.0317 0,0.0441 z m 0,0"
       style="fill:#211e1e;fill-opacity:1;fill-rule:nonzero;stroke:none;stroke-width:0.35277775" />
    <path
       inkscape:connector-curvature="0"
       id="path4595"
       d="m 1.5887315,293.84788 -0.3982508,0.43132 0.048228,0.0496 0.443731,-0.38447 0.2962769,-0.27147 c 0.011007,-0.0138 0.019297,-0.0303 0.019297,-0.0496 0,-0.0413 -0.033055,-0.0744 -0.074415,-0.0758 -0.019297,0 -0.037208,0.008 -0.050987,0.0193 z m 0,0"
       style="fill:#211e1e;fill-opacity:1;fill-rule:nonzero;stroke:none;stroke-width:0.35277775" />
  </g>
</svg>
