<?xml version="1.0" encoding="UTF-8" standalone="no"?>
<!-- Created with Inkscape (http://www.inkscape.org/) -->

<svg
   xmlns:dc="http://purl.org/dc/elements/1.1/"
   xmlns:cc="http://creativecommons.org/ns#"
   xmlns:rdf="http://www.w3.org/1999/02/22-rdf-syntax-ns#"
   xmlns:svg="http://www.w3.org/2000/svg"
   xmlns="http://www.w3.org/2000/svg"
   xmlns:sodipodi="http://sodipodi.sourceforge.net/DTD/sodipodi-0.dtd"
   xmlns:inkscape="http://www.inkscape.org/namespaces/inkscape"
   width="3.75mm"
   height="3.75mm"
   viewBox="0 0 3.75 3.75"
   version="1.1"
   id="svg13826"
   inkscape:version="0.92.1 r15371"
   sodipodi:docname="caving_light.svg">
  <defs
     id="defs13820" />
  <sodipodi:namedview
     id="base"
     pagecolor="#ffffff"
     bordercolor="#666666"
     borderopacity="1.0"
     inkscape:pageopacity="0.0"
     inkscape:pageshadow="2"
     inkscape:zoom="30.586462"
     inkscape:cx="6.9619327"
     inkscape:cy="6.5754939"
     inkscape:document-units="mm"
     inkscape:current-layer="layer1"
     showgrid="false"
     inkscape:window-width="742"
     inkscape:window-height="651"
     inkscape:window-x="560"
     inkscape:window-y="62"
     inkscape:window-maximized="0"
     showguides="true"
     inkscape:guide-bbox="true"
     gridtolerance="10"
     guidetolerance="2">
    <inkscape:grid
       type="xygrid"
       id="grid13828" />
    <sodipodi:guide
       position="0.13043093,3.8477124"
       orientation="1,0"
       id="guide20533"
       inkscape:locked="false" />
    <sodipodi:guide
       position="1.9173346,3.6129367"
       orientation="0,1"
       id="guide20535"
       inkscape:locked="false" />
  </sodipodi:namedview>
  <metadata
     id="metadata13823">
    <rdf:RDF>
      <cc:Work
         rdf:about="">
        <dc:format>image/svg+xml</dc:format>
        <dc:type
           rdf:resource="http://purl.org/dc/dcmitype/StillImage" />
        <dc:title></dc:title>
      </cc:Work>
    </rdf:RDF>
  </metadata>
  <g
     inkscape:label="Layer 1"
     inkscape:groupmode="layer"
     id="layer1"
     transform="translate(0,-293.25)">
    <path
       inkscape:connector-curvature="0"
       id="path4557"
       d="m 3.2041753,296.87475 c 0.2287553,0 0.4161684,-0.18604 0.4161684,-0.41617 v -2.65273 c 0,-0.23013 -0.1874131,-0.41754 -0.4161684,-0.41754 H 0.55007286 c -0.23013106,0 -0.41616842,0.18741 -0.41616842,0.41754 v 2.65273 c 0,0.23013 0.18603736,0.41617 0.41616842,0.41617 z m 0,0"
       style="fill:#211e1e;fill-opacity:1;fill-rule:nonzero;stroke:none;stroke-width:0.35277775" />
    <path
       inkscape:connector-curvature="0"
       id="path4559"
       d="m 0.55007286,293.45997 c -0.1901684,0 -0.34588803,0.15434 -0.34588803,0.3445 v 2.65411 c 0,0.19155 0.15571963,0.34589 0.34588803,0.34589 H 3.2041753 c 0.1901684,0 0.3458879,-0.15434 0.3458879,-0.34589 v -2.65411 c 0,-0.19016 -0.1557195,-0.3445 -0.3458879,-0.3445 z m 0,0"
       style="fill:#ffffff;fill-opacity:1;fill-rule:nonzero;stroke:none;stroke-width:0.35277775" />
    <path
       inkscape:connector-curvature="0"
       id="path4561"
       d="m 2.4062908,294.10902 c 0,0.12954 -0.1047292,0.23427 -0.2342657,0.23427 -0.07855,0 -0.1488298,-0.04 -0.1915477,-0.0992 h 0.074415 c 0.048232,0 0.09095,-0.0289 0.1116189,-0.0703 l 0.031715,-0.0689 c 0.00141,-0.004 0.0055,-0.007 0.011007,-0.007 h 0.1970582 z m 0,0"
       style="fill:#211e1e;fill-opacity:1;fill-rule:nonzero;stroke:none;stroke-width:0.35277775" />
    <path
       inkscape:connector-curvature="0"
       id="path4563"
       d="m 2.450388,294.03736 c -0.03168,-0.12402 -0.1446954,-0.21497 -0.2783629,-0.21497 -0.1584748,0 -0.2866319,0.12816 -0.2866319,0.28663 0,0.0262 0.00282,0.0524 0.00963,0.0744 h 0.1598542 c 0.0248,0 0.048232,-0.0152 0.057877,-0.0358 l 0.031679,-0.0689 c 0.011007,-0.0234 0.035832,-0.0414 0.06477,-0.0414 z m 0,0"
       style="fill:#211e1e;fill-opacity:1;fill-rule:nonzero;stroke:none;stroke-width:0.35277775" />
    <path
       inkscape:connector-curvature="0"
       id="path4565"
       d="m 1.6235651,294.24545 c 0.028928,-0.0234 0.033055,-0.0661 0.00963,-0.0937 l -0.1267777,-0.15434 c -0.023424,-0.0289 -0.064766,-0.0345 -0.093708,-0.011 L 0.87389774,294.426 c -0.0275519,0.022 -0.0330553,0.0648 -0.009631,0.0937 l 0.12677775,0.15571 c 0.0234244,0.0275 0.06477,0.0317 0.0937084,0.008 z m 0,0"
       style="fill:#211e1e;fill-opacity:1;fill-rule:nonzero;stroke:none;stroke-width:0.35277775" />
    <path
       inkscape:connector-curvature="0"
       id="path4567"
       d="m 1.0916432,294.86557 c -0.030304,0.0234 -0.056501,0.0524 -0.07717,0.0882 -0.019297,0.0345 -0.0316795,0.0689 -0.0358281,0.10611 l -0.15434027,0.66146 -0.42305816,0.4079 c -0.0124178,0.011 -0.0234244,0.0234 -0.0303036,0.0372 -0.0440972,0.0786 -0.0179211,0.17777 0.0606319,0.22187 0.0633907,0.0372 0.13918494,0.0262 0.19017192,-0.0207 l 0.47128645,-0.45475 c 0.00688,-0.01 0.013794,-0.0179 0.019297,-0.0276 0.00688,-0.0124 0.012418,-0.0248 0.015169,-0.0386 l 0.096464,-0.41893 0.314191,0.31419 v 0.52917 c 0,0.0565 0.028928,0.11162 0.081305,0.14194 0.07855,0.0441 0.1777683,0.0179 0.2218655,-0.0606 0.015169,-0.0276 0.022048,-0.0579 0.020673,-0.0868 l 0.00141,-0.5898 c 0.00141,-0.0413 -0.013793,-0.0827 -0.04272,-0.11438 l -0.3403741,-0.33624 0.3913646,-0.32108 0.08957,0.2508 c 0.00826,0.0165 0.019297,0.0317 0.034466,0.0427 l 0.373447,0.28388 c 0.049611,0.0317 0.1171328,0.0234 0.1598542,-0.0221 0.048232,-0.0524 0.045473,-0.13229 -0.00688,-0.18053 -0.00141,-0.001 -0.00282,-0.004 -0.00413,-0.005 l -0.327974,-0.24942 -0.151585,-0.44511 c -0.023424,-0.0579 -0.066146,-0.10887 -0.125402,-0.14332 -0.1005945,-0.0565 -0.2218619,-0.0482 -0.3114357,0.0124 z m 0,0"
       style="fill:#211e1e;fill-opacity:1;fill-rule:nonzero;stroke:none;stroke-width:0.35277775" />
    <path
       inkscape:connector-curvature="0"
       id="path4569"
       d="m 2.5399618,294.04012 c -0.011007,-0.01 -0.017921,-0.0234 -0.017921,-0.0386 0,-0.0303 0.0248,-0.0551 0.053742,-0.0551 h 0.8089088 c 0.08268,0.001 0.1322917,0.23288 0.07717,0.41478 -0.050987,0.1695 -0.2053272,0.38723 -0.276987,0.31282 z m 0,0"
       style="fill:#211e1e;fill-opacity:1;fill-rule:nonzero;stroke:none;stroke-width:0.35277775" />
  </g>
</svg>
