<?xml version="1.0" encoding="UTF-8" standalone="no"?>
<!-- Created with Inkscape (http://www.inkscape.org/) -->

<svg
   xmlns:dc="http://purl.org/dc/elements/1.1/"
   xmlns:cc="http://creativecommons.org/ns#"
   xmlns:rdf="http://www.w3.org/1999/02/22-rdf-syntax-ns#"
   xmlns:svg="http://www.w3.org/2000/svg"
   xmlns="http://www.w3.org/2000/svg"
   xmlns:sodipodi="http://sodipodi.sourceforge.net/DTD/sodipodi-0.dtd"
   xmlns:inkscape="http://www.inkscape.org/namespaces/inkscape"
   width="3.75mm"
   height="3.75mm"
   viewBox="0 0 3.75 3.75"
   version="1.1"
   id="svg13826"
   inkscape:version="0.92.1 r15371"
   sodipodi:docname="climbing_dark.svg">
  <defs
     id="defs13820" />
  <sodipodi:namedview
     id="base"
     pagecolor="#ffffff"
     bordercolor="#666666"
     borderopacity="1.0"
     inkscape:pageopacity="0.0"
     inkscape:pageshadow="2"
     inkscape:zoom="30.586462"
     inkscape:cx="6.9619327"
     inkscape:cy="6.5754939"
     inkscape:document-units="mm"
     inkscape:current-layer="layer1"
     showgrid="false"
     inkscape:window-width="742"
     inkscape:window-height="651"
     inkscape:window-x="560"
     inkscape:window-y="62"
     inkscape:window-maximized="0"
     showguides="true"
     inkscape:guide-bbox="true"
     gridtolerance="10"
     guidetolerance="2">
    <inkscape:grid
       type="xygrid"
       id="grid13828" />
    <sodipodi:guide
       position="0.13043093,3.8477124"
       orientation="1,0"
       id="guide20533"
       inkscape:locked="false" />
    <sodipodi:guide
       position="1.9173346,3.6129367"
       orientation="0,1"
       id="guide20535"
       inkscape:locked="false" />
  </sodipodi:namedview>
  <metadata
     id="metadata13823">
    <rdf:RDF>
      <cc:Work
         rdf:about="">
        <dc:format>image/svg+xml</dc:format>
        <dc:type
           rdf:resource="http://purl.org/dc/dcmitype/StillImage" />
        <dc:title></dc:title>
      </cc:Work>
    </rdf:RDF>
  </metadata>
  <g
     inkscape:label="Layer 1"
     inkscape:groupmode="layer"
     id="layer1"
     transform="translate(0,-293.25)">
    <path
       inkscape:connector-curvature="0"
       id="path2589"
       d="m 3.1948371,296.86609 c 0.2301309,0 0.4161647,-0.18604 0.4161647,-0.41617 v -2.6541 c 0,-0.23013 -0.1860338,-0.41617 -0.4161647,-0.41617 H 0.54073464 c -0.22875521,0 -0.41478904,0.18604 -0.41478904,0.41617 v 2.6541 c 0,0.23013 0.18603383,0.41617 0.41478904,0.41617 z m 0,0"
       style="fill:#211e1e;fill-opacity:1;fill-rule:nonzero;stroke:none;stroke-width:0.35277775" />
    <path
       inkscape:connector-curvature="0"
       id="path2591"
       d="m 0.81220772,294.9203 c -0.0124177,0.0262 -0.0220485,0.0537 -0.026176,0.0841 -0.00141,0.0152 -0.004128,0.0303 -0.004128,0.0455 l 0.0110067,0.69454 -0.23840016,0.51676 c -0.009631,0.0152 -0.0151694,0.0345 -0.017921,0.0524 -0.0124177,0.0854 0.0454766,0.16399 0.13091228,0.17777 0.0661458,0.01 0.12953648,-0.0234 0.15985419,-0.0786 L 1.0905596,295.8464 c 0.00688,-0.0124 0.011007,-0.0262 0.012418,-0.0413 0.00141,-0.007 0.00141,-0.0152 0.00141,-0.022 l -0.00141,-0.42857 0.4051441,0.17639 0.066146,0.4203 c 0.012382,0.0606 0.063387,0.11024 0.1281571,0.12127 0.085436,0.011 0.1653646,-0.0469 0.1777647,-0.13092 0.00282,-0.0152 0.00282,-0.0303 0.00141,-0.0427 l -0.079924,-0.50712 c -0.00967,-0.0496 -0.042721,-0.0909 -0.088194,-0.11162 l -0.3624262,-0.16261 0.2315104,-0.40101 0.1143776,0.14469 c 0.011007,0.0138 0.026176,0.0248 0.044097,0.0317 l 0.4354618,0.12678 c 0.057877,0.0124 0.1171329,-0.0179 0.1405573,-0.073 0.0248,-0.0634 -0.0055,-0.13504 -0.067522,-0.16123 -0.00282,0 -0.00413,-0.001 -0.00688,-0.001 L 1.8636961,294.67283 1.57844,294.3297 C 1.535722,294.2842 1.479221,294.2525 1.4130754,294.2415 1.297322,294.225 1.187079,294.2801 1.1292022,294.37379 Z m 0,0"
       style="fill:#ffffff;fill-opacity:1;fill-rule:nonzero;stroke:none;stroke-width:0.35277775" />
    <path
       inkscape:connector-curvature="0"
       id="path2593"
       d="m 2.0634646,295.91662 -0.027552,0.20808 -0.7496528,0.1819 0.00688,0.12954 h 1.8300338 c 0.064767,0 0.1171329,-0.0524 0.1171329,-0.11713 l -0.00282,-2.46669 -0.2508038,-0.0593 -0.1433158,0.64906 -0.2411546,0.1006 -0.2135964,0.59806 0.2025721,0.45889 -0.056501,0.17501 z m 0,0"
       style="fill:#ffffff;fill-opacity:1;fill-rule:nonzero;stroke:none;stroke-width:0.35277775" />
    <path
       inkscape:connector-curvature="0"
       id="path2595"
       d="m 1.5535914,294.21061 c 0.1295364,0 0.2342656,-0.10473 0.2342656,-0.23289 0,-0.12954 -0.1047292,-0.23427 -0.2342656,-0.23427 -0.1281571,0 -0.2328863,0.10473 -0.2328863,0.23427 0,0.12816 0.1047292,0.23289 0.2328863,0.23289"
       style="fill:#ffffff;fill-opacity:1;fill-rule:nonzero;stroke:none;stroke-width:0.35277775" />
    <path
       inkscape:connector-curvature="0"
       id="path2597"
       d="m 1.0891947,294.24781 c 0.017921,-0.0317 0.00688,-0.073 -0.0248,-0.0909 l -0.1129982,-0.0661 c -0.0316795,-0.0179 -0.0730356,-0.008 -0.0909496,0.0248 l -0.35002258,0.60083 c -0.0165452,0.0317 -0.006879,0.073 0.026176,0.091 l 0.11299825,0.0661 c 0.0317147,0.0179 0.0716597,0.007 0.0909496,-0.0248 z m 0,0"
       style="fill:#ffffff;fill-opacity:1;fill-rule:nonzero;stroke:none;stroke-width:0.35277775" />
  </g>
</svg>
