<?xml version="1.0" encoding="UTF-8" standalone="no"?>
<!-- Created with Inkscape (http://www.inkscape.org/) -->

<svg
   xmlns:dc="http://purl.org/dc/elements/1.1/"
   xmlns:cc="http://creativecommons.org/ns#"
   xmlns:rdf="http://www.w3.org/1999/02/22-rdf-syntax-ns#"
   xmlns:svg="http://www.w3.org/2000/svg"
   xmlns="http://www.w3.org/2000/svg"
   xmlns:sodipodi="http://sodipodi.sourceforge.net/DTD/sodipodi-0.dtd"
   xmlns:inkscape="http://www.inkscape.org/namespaces/inkscape"
   width="3.75mm"
   height="3.75mm"
   viewBox="0 0 3.75 3.75"
   version="1.1"
   id="svg13826"
   inkscape:version="0.92.1 r15371"
   sodipodi:docname="golf_light.svg">
  <defs
     id="defs13820" />
  <sodipodi:namedview
     id="base"
     pagecolor="#ffffff"
     bordercolor="#666666"
     borderopacity="1.0"
     inkscape:pageopacity="0.0"
     inkscape:pageshadow="2"
     inkscape:zoom="30.586462"
     inkscape:cx="6.9619327"
     inkscape:cy="6.2487963"
     inkscape:document-units="mm"
     inkscape:current-layer="layer1"
     showgrid="false"
     inkscape:window-width="742"
     inkscape:window-height="651"
     inkscape:window-x="533"
     inkscape:window-y="51"
     inkscape:window-maximized="0"
     showguides="true"
     inkscape:guide-bbox="true"
     gridtolerance="10"
     guidetolerance="2">
    <inkscape:grid
       type="xygrid"
       id="grid13828" />
    <sodipodi:guide
       position="0.13043093,3.8477124"
       orientation="1,0"
       id="guide20533"
       inkscape:locked="false" />
    <sodipodi:guide
       position="1.9173346,3.6129367"
       orientation="0,1"
       id="guide20535"
       inkscape:locked="false" />
    <sodipodi:guide
       position="0.16435648,3.6129367"
       orientation="0,1"
       id="guide27414"
       inkscape:locked="false" />
  </sodipodi:namedview>
  <metadata
     id="metadata13823">
    <rdf:RDF>
      <cc:Work
         rdf:about="">
        <dc:format>image/svg+xml</dc:format>
        <dc:type
           rdf:resource="http://purl.org/dc/dcmitype/StillImage" />
        <dc:title></dc:title>
      </cc:Work>
    </rdf:RDF>
  </metadata>
  <g
     inkscape:label="Layer 1"
     inkscape:groupmode="layer"
     id="layer1"
     transform="translate(0,-293.25)">
    <path
       inkscape:connector-curvature="0"
       id="path13111"
       d="m 0.56798689,293.38706 c -0.23977599,0 -0.43545829,0.19568 -0.43545829,0.43546 v 2.61827 c 0,0.24116 0.1956823,0.43546 0.43545829,0.43546 H 3.1876369 c 0.2384039,0 0.4340826,-0.1943 0.4340826,-0.43546 v -2.61827 c 0,-0.23978 -0.1956787,-0.43546 -0.4340826,-0.43546 z m 0,0"
       style="fill:#211e1e;fill-opacity:1;fill-rule:nonzero;stroke:none;stroke-width:0.35277775" />
    <path
       inkscape:connector-curvature="0"
       id="path13113"
       d="m 0.56798689,293.45734 c -0.20119269,0 -0.36380207,0.16399 -0.36380207,0.36518 v 2.61965 c 0,0.19982 0.16260938,0.3638 0.36380207,0.3638 H 3.1876369 c 0.199817,0 0.3638021,-0.16398 0.3638021,-0.3638 v -2.61965 c 0,-0.20119 -0.1639851,-0.36518 -0.3638021,-0.36518 z m 0,0"
       style="fill:#ffffff;fill-opacity:1;fill-rule:nonzero;stroke:none;stroke-width:0.35277775" />
    <path
       inkscape:connector-curvature="0"
       id="path13115"
       d="m 1.6635277,294.12569 c -0.1267778,0 -0.2287553,0.10059 -0.2287553,0.22462 0,0.12402 0.1019775,0.22462 0.2287553,0.22462 0.1240225,0 0.2273758,-0.1006 0.2273758,-0.22462 0,-0.12403 -0.1033533,-0.22462 -0.2273758,-0.22462"
       style="fill:#211e1e;fill-opacity:1;fill-rule:nonzero;stroke:none;stroke-width:0.35277775" />
    <path
       inkscape:connector-curvature="0"
       id="path13117"
       d="m 2.8183246,294.56942 c -0.00825,-0.0482 -0.048232,-0.0758 -0.050987,-0.0772 l -1.3380755,-0.88333 -0.1240226,0.18053 c -0.023424,0.0358 -0.013794,0.0827 0.022049,0.1061 0.035828,0.0234 0.082681,0.0138 0.1047292,-0.022 l 0.073036,-0.10336 1.0872717,0.71658 -0.89021,0.16123 c -0.063391,0.01 -0.1088672,0.073 -0.095084,0.13505 l 0.194303,0.74965 -0.6270096,0.93983 c -0.037208,0.0634 -0.015169,0.14607 0.049611,0.18327 0.066146,0.0372 0.1488264,0.0138 0.1860339,-0.0496 0,0 0.6545685,-0.98392 0.6573237,-0.98944 0,0 0.033055,0.13643 0.033055,0.13643 l -0.097839,0.73725 c -0.012418,0.0744 0.037208,0.14332 0.1116224,0.15572 0.074411,0.0124 0.1446918,-0.0372 0.1557161,-0.11024 l 0.101974,-0.7593 c 0.00282,-0.0193 -0.00141,-0.062 -0.0055,-0.0799 l -0.2232413,-0.88883 0.5815295,-0.10474 c 0.062015,-0.011 0.1047325,-0.0703 0.093708,-0.13366"
       style="fill:#211e1e;fill-opacity:1;fill-rule:nonzero;stroke:none;stroke-width:0.35277775" />
  </g>
</svg>
