<?xml version="1.0" encoding="UTF-8" standalone="no"?>
<!-- Created with Inkscape (http://www.inkscape.org/) -->

<svg
   xmlns:dc="http://purl.org/dc/elements/1.1/"
   xmlns:cc="http://creativecommons.org/ns#"
   xmlns:rdf="http://www.w3.org/1999/02/22-rdf-syntax-ns#"
   xmlns:svg="http://www.w3.org/2000/svg"
   xmlns="http://www.w3.org/2000/svg"
   xmlns:sodipodi="http://sodipodi.sourceforge.net/DTD/sodipodi-0.dtd"
   xmlns:inkscape="http://www.inkscape.org/namespaces/inkscape"
   width="3.75mm"
   height="3.75mm"
   viewBox="0 0 3.75 3.75"
   version="1.1"
   id="svg13826"
   inkscape:version="0.92.1 r15371"
   sodipodi:docname="golf_dark.svg">
  <defs
     id="defs13820" />
  <sodipodi:namedview
     id="base"
     pagecolor="#ffffff"
     bordercolor="#666666"
     borderopacity="1.0"
     inkscape:pageopacity="0.0"
     inkscape:pageshadow="2"
     inkscape:zoom="30.586462"
     inkscape:cx="6.9619327"
     inkscape:cy="6.2487963"
     inkscape:document-units="mm"
     inkscape:current-layer="layer1"
     showgrid="false"
     inkscape:window-width="742"
     inkscape:window-height="651"
     inkscape:window-x="533"
     inkscape:window-y="51"
     inkscape:window-maximized="0"
     showguides="true"
     inkscape:guide-bbox="true"
     gridtolerance="10"
     guidetolerance="2">
    <inkscape:grid
       type="xygrid"
       id="grid13828" />
    <sodipodi:guide
       position="0.13043093,3.8477124"
       orientation="1,0"
       id="guide20533"
       inkscape:locked="false" />
    <sodipodi:guide
       position="1.9173346,3.6129367"
       orientation="0,1"
       id="guide20535"
       inkscape:locked="false" />
    <sodipodi:guide
       position="0.16435648,3.6129367"
       orientation="0,1"
       id="guide27414"
       inkscape:locked="false" />
  </sodipodi:namedview>
  <metadata
     id="metadata13823">
    <rdf:RDF>
      <cc:Work
         rdf:about="">
        <dc:format>image/svg+xml</dc:format>
        <dc:type
           rdf:resource="http://purl.org/dc/dcmitype/StillImage" />
        <dc:title></dc:title>
      </cc:Work>
    </rdf:RDF>
  </metadata>
  <g
     inkscape:label="Layer 1"
     inkscape:groupmode="layer"
     id="layer1"
     transform="translate(0,-293.25)">
    <path
       inkscape:connector-curvature="0"
       id="path12145"
       d="m 0.55864865,293.43991 c -0.20119268,0 -0.36380206,0.16399 -0.36380206,0.36518 v 2.61965 c 0,0.19982 0.16260938,0.3638 0.36380206,0.3638 H 3.1782987 c 0.2011928,0 0.363802,-0.16398 0.363802,-0.3638 v -2.61965 c 0,-0.20119 -0.1626092,-0.36518 -0.363802,-0.36518 z m 0,0"
       style="fill:#ffffff;fill-opacity:1;fill-rule:nonzero;stroke:none;stroke-width:0.35277775" />
    <path
       inkscape:connector-curvature="0"
       id="path12147"
       d="m 0.55864865,293.36963 c -0.23977951,0 -0.43408245,0.19568 -0.43408245,0.43546 v 2.61827 c 0,0.24116 0.19430294,0.43546 0.43408245,0.43546 H 3.1782987 c 0.2397797,0 0.4340825,-0.1943 0.4340825,-0.43546 v -2.61827 c 0,-0.23978 -0.1943028,-0.43546 -0.4340825,-0.43546 z m 0,0"
       style="fill:#211e1e;fill-opacity:1;fill-rule:nonzero;stroke:none;stroke-width:0.35277775" />
    <path
       inkscape:connector-curvature="0"
       id="path12149"
       d="m 1.6541894,294.10826 c -0.1254019,0 -0.2273758,0.10059 -0.2273758,0.22462 0,0.12402 0.1019739,0.22462 0.2273758,0.22462 0.125402,0 0.2273759,-0.1006 0.2273759,-0.22462 0,-0.12403 -0.1019739,-0.22462 -0.2273759,-0.22462"
       style="fill:#ffffff;fill-opacity:1;fill-rule:nonzero;stroke:none;stroke-width:0.35277775" />
    <path
       inkscape:connector-curvature="0"
       id="path12151"
       d="m 2.8089864,294.55199 c -0.00826,-0.0482 -0.048232,-0.0758 -0.049611,-0.0772 l -1.3394514,-0.88333 -0.124026,0.18053 c -0.023424,0.0358 -0.012382,0.0827 0.022048,0.1061 0.035832,0.0234 0.082684,0.0138 0.1061085,-0.022 l 0.073039,-0.10336 1.0858923,0.71658 -0.8902135,0.16123 c -0.063387,0.01 -0.1088638,0.073 -0.093705,0.13505 l 0.1929236,0.74965 -0.6256267,0.93983 c -0.038587,0.0634 -0.015169,0.14607 0.049608,0.18327 0.064766,0.0372 0.1474505,0.0138 0.1860339,-0.0496 0,0 0.6531927,-0.98392 0.6559479,-0.98944 0,0 0.034466,0.13643 0.034466,0.13643 l -0.099219,0.73725 c -0.012418,0.0744 0.038583,0.14332 0.1116189,0.15572 0.074415,0.0124 0.1446953,-0.0372 0.1570955,-0.11024 l 0.1005981,-0.7593 c 0.00413,-0.0193 0,-0.062 -0.00413,-0.0799 l -0.2232413,-0.88883 0.5801536,-0.10474 c 0.063391,-0.011 0.1047326,-0.0703 0.093708,-0.13366"
       style="fill:#ffffff;fill-opacity:1;fill-rule:nonzero;stroke:none;stroke-width:0.35277775" />
  </g>
</svg>
