<?xml version="1.0" encoding="UTF-8" standalone="no"?>
<!-- Created with Inkscape (http://www.inkscape.org/) -->

<svg
   xmlns:dc="http://purl.org/dc/elements/1.1/"
   xmlns:cc="http://creativecommons.org/ns#"
   xmlns:rdf="http://www.w3.org/1999/02/22-rdf-syntax-ns#"
   xmlns:svg="http://www.w3.org/2000/svg"
   xmlns="http://www.w3.org/2000/svg"
   xmlns:sodipodi="http://sodipodi.sourceforge.net/DTD/sodipodi-0.dtd"
   xmlns:inkscape="http://www.inkscape.org/namespaces/inkscape"
   width="3.75mm"
   height="3.75mm"
   viewBox="0 0 3.75 3.75"
   version="1.1"
   id="svg13826"
   inkscape:version="0.92.1 r15371"
   sodipodi:docname="horseback_riding_light.svg">
  <defs
     id="defs13820" />
  <sodipodi:namedview
     id="base"
     pagecolor="#ffffff"
     bordercolor="#666666"
     borderopacity="1.0"
     inkscape:pageopacity="0.0"
     inkscape:pageshadow="2"
     inkscape:zoom="30.586462"
     inkscape:cx="6.9619327"
     inkscape:cy="6.2487963"
     inkscape:document-units="mm"
     inkscape:current-layer="layer1"
     showgrid="false"
     inkscape:window-width="742"
     inkscape:window-height="651"
     inkscape:window-x="488"
     inkscape:window-y="89"
     inkscape:window-maximized="0"
     showguides="true"
     inkscape:guide-bbox="true"
     gridtolerance="10"
     guidetolerance="2">
    <inkscape:grid
       type="xygrid"
       id="grid13828" />
    <sodipodi:guide
       position="0.13043093,3.8477124"
       orientation="1,0"
       id="guide20533"
       inkscape:locked="false" />
    <sodipodi:guide
       position="1.9173346,3.6129367"
       orientation="0,1"
       id="guide20535"
       inkscape:locked="false" />
    <sodipodi:guide
       position="0.16435648,3.6129367"
       orientation="0,1"
       id="guide27414"
       inkscape:locked="false" />
  </sodipodi:namedview>
  <metadata
     id="metadata13823">
    <rdf:RDF>
      <cc:Work
         rdf:about="">
        <dc:format>image/svg+xml</dc:format>
        <dc:type
           rdf:resource="http://purl.org/dc/dcmitype/StillImage" />
        <dc:title></dc:title>
      </cc:Work>
    </rdf:RDF>
  </metadata>
  <g
     inkscape:label="Layer 1"
     inkscape:groupmode="layer"
     id="layer1"
     transform="translate(0,-293.25)">
    <path
       inkscape:connector-curvature="0"
       id="path12785"
       d="m 3.2041752,296.8661 c 0.2301311,0 0.4161684,-0.18604 0.4161684,-0.41617 v -2.65411 c 0,-0.23013 -0.1860373,-0.41616 -0.4161684,-0.41616 H 0.55007286 c -0.23013106,0 -0.41616842,0.18603 -0.41616842,0.41616 v 2.65411 c 0,0.23013 0.18603736,0.41617 0.41616842,0.41617 z m 0,0"
       style="fill:#211e1e;fill-opacity:1;fill-rule:nonzero;stroke:none;stroke-width:0.35277775" />
    <path
       inkscape:connector-curvature="0"
       id="path12787"
       d="m 0.55007286,293.44994 c -0.1901684,0 -0.34588803,0.15572 -0.34588803,0.34588 v 2.65411 c 0,0.19017 0.15571963,0.34589 0.34588803,0.34589 H 3.2041752 c 0.1901684,0 0.3458879,-0.15572 0.3458879,-0.34589 v -2.65411 c 0,-0.19016 -0.1557195,-0.34588 -0.3458879,-0.34588 z m 0,0"
       style="fill:#ffffff;fill-opacity:1;fill-rule:nonzero;stroke:none;stroke-width:0.35277775" />
    <path
       inkscape:connector-curvature="0"
       id="path12789"
       d="m 1.6015164,294.06868 c 0.1116224,0 0.2011927,-0.0896 0.2011927,-0.19844 0,-0.11162 -0.08957,-0.20119 -0.2011927,-0.20119 -0.1102431,0 -0.1998169,0.0896 -0.1998169,0.20119 0,0.10886 0.089574,0.19844 0.1998169,0.19844"
       style="fill:#211e1e;fill-opacity:1;fill-rule:nonzero;stroke:none;stroke-width:0.35277775" />
    <path
       inkscape:connector-curvature="0"
       id="path12791"
       d="m 0.48255119,295.05949 c 0,-0.16261 0.13229167,-0.2949 0.29489752,-0.2949 H 1.3975685 v -0.44511 c 0,-0.11162 0.08957,-0.20119 0.2011927,-0.20119 0.110243,0 0.1998133,0.0896 0.1998133,0.20119 v 0.0689 l 0.2962804,0.0758 c 0.050987,0.0124 0.08406,0.0634 0.073036,0.11576 -0.012418,0.051 -0.063391,0.0841 -0.115757,0.073 l -0.253559,-0.0593 v 0.17088 h 0.2976562 l 0.8144229,-0.84198 -0.023424,0.2191 0.4010096,0.26597 c 0.066146,0.0386 0.089574,0.12402 0.052366,0.19016 -0.030304,0.0524 -0.089574,0.0786 -0.1446954,0.0689 l -0.033055,-0.007 c -0.038583,0.15709 -0.1791441,0.27147 -0.3472641,0.27147 -0.033055,0 -0.06477,-0.005 -0.095084,-0.0124 l -0.3045505,0.62011 v 0.85163 c 0,0.073 -0.059253,0.13229 -0.1322917,0.13229 -0.073036,0 -0.1322917,-0.0593 -0.1322917,-0.13229 v -0.87092 h -0.671103 l -0.119888,0.20533 0.2508003,0.59807 c 0.037208,0.0648 0.013794,0.14469 -0.049608,0.18052 -0.063391,0.0358 -0.1446954,0.0138 -0.1805235,-0.0496 l -0.2935217,-0.6904 V 295.543 l -0.13091217,0.2067 v 0.64079 c 0,0.073 -0.0592561,0.13229 -0.13229172,0.13229 -0.0730391,0 -0.13229167,-0.0593 -0.13229167,-0.13229 v -0.74 l 0.10886369,-0.17226 v -0.58016 l -0.10886369,0.16675 v 0.48369 H 0.48257236 Z m 2.60724641,-0.41341 -0.212217,-0.0413 -0.1240226,0.24529 c 0.020673,0.006 0.041339,0.008 0.062011,0.008 0.1322917,0 0.2425348,-0.0909 0.2742284,-0.21222"
       style="fill:#211e1e;fill-opacity:1;fill-rule:nonzero;stroke:none;stroke-width:0.35277775" />
  </g>
</svg>
