<?xml version="1.0" encoding="UTF-8" standalone="no"?>
<!-- Created with Inkscape (http://www.inkscape.org/) -->

<svg
   xmlns:dc="http://purl.org/dc/elements/1.1/"
   xmlns:cc="http://creativecommons.org/ns#"
   xmlns:rdf="http://www.w3.org/1999/02/22-rdf-syntax-ns#"
   xmlns:svg="http://www.w3.org/2000/svg"
   xmlns="http://www.w3.org/2000/svg"
   xmlns:sodipodi="http://sodipodi.sourceforge.net/DTD/sodipodi-0.dtd"
   xmlns:inkscape="http://www.inkscape.org/namespaces/inkscape"
   width="3.75mm"
   height="3.75mm"
   viewBox="0 0 3.75 3.75"
   version="1.1"
   id="svg13826"
   inkscape:version="0.92.1 r15371"
   sodipodi:docname="metal_detecting_light.svg">
  <defs
     id="defs13820" />
  <sodipodi:namedview
     id="base"
     pagecolor="#ffffff"
     bordercolor="#666666"
     borderopacity="1.0"
     inkscape:pageopacity="0.0"
     inkscape:pageshadow="2"
     inkscape:zoom="30.586462"
     inkscape:cx="6.9619327"
     inkscape:cy="6.2487963"
     inkscape:document-units="mm"
     inkscape:current-layer="layer1"
     showgrid="false"
     inkscape:window-width="742"
     inkscape:window-height="651"
     inkscape:window-x="533"
     inkscape:window-y="51"
     inkscape:window-maximized="0"
     showguides="true"
     inkscape:guide-bbox="true"
     gridtolerance="10"
     guidetolerance="2">
    <inkscape:grid
       type="xygrid"
       id="grid13828" />
    <sodipodi:guide
       position="0.13043093,3.8477124"
       orientation="1,0"
       id="guide20533"
       inkscape:locked="false" />
    <sodipodi:guide
       position="1.9173346,3.6129367"
       orientation="0,1"
       id="guide20535"
       inkscape:locked="false" />
  </sodipodi:namedview>
  <metadata
     id="metadata13823">
    <rdf:RDF>
      <cc:Work
         rdf:about="">
        <dc:format>image/svg+xml</dc:format>
        <dc:type
           rdf:resource="http://purl.org/dc/dcmitype/StillImage" />
        <dc:title></dc:title>
      </cc:Work>
    </rdf:RDF>
  </metadata>
  <g
     inkscape:label="Layer 1"
     inkscape:groupmode="layer"
     id="layer1"
     transform="translate(0,-293.25)">
    <path
       inkscape:connector-curvature="0"
       id="path1125"
       d="m 3.1868728,296.85882 c 0.2301346,0 0.4175477,-0.18603 0.4175477,-0.41754 v -2.65411 c 0,-0.23013 -0.1874131,-0.41754 -0.4175477,-0.41754 H 0.53139463 c -0.23013459,0 -0.41616842,0.18741 -0.41616842,0.41754 v 2.65411 c 0,0.23151 0.18603383,0.41754 0.41616842,0.41754 z m 0,0"
       style="fill:#211e1e;fill-opacity:1;fill-rule:nonzero;stroke:none;stroke-width:0.35277775" />
    <path
       inkscape:connector-curvature="0"
       id="path1127"
       d="m 0.53139463,293.44129 c -0.1901684,0 -0.34588803,0.15434 -0.34588803,0.34588 v 2.65549 c 0,0.19016 0.15571963,0.34588 0.34588803,0.34588 H 3.1868728 c 0.1915478,0 0.3472675,-0.15572 0.3472675,-0.34588 v -2.65549 c 0,-0.19154 -0.1557197,-0.34588 -0.3472675,-0.34588 z m 0,0"
       style="fill:#ffffff;fill-opacity:1;fill-rule:nonzero;stroke:none;stroke-width:0.35277775" />
    <path
       inkscape:connector-curvature="0"
       id="path1129"
       d="m 3.4046037,295.32507 c 0,0 -0.4258133,-0.0289 -0.6146059,-0.01 -0.013793,0 -0.071656,0.0303 -0.085439,0.0303 -0.1750095,0.01 -0.2756077,-0.011 -0.4354583,0.0165 -0.2452899,0.0372 -0.4919592,-0.0193 -0.752408,0.01 -0.2301345,0.0193 -0.4768038,0 -0.72209372,0.01 -0.11713281,-0.0854 -0.32246004,-0.0469 -0.48506943,-0.0427 v 0.23978 H 3.4046037 Z m 0,0"
       style="fill:#211e1e;fill-opacity:1;fill-rule:nonzero;stroke:none;stroke-width:0.35277775" />
    <path
       inkscape:connector-curvature="0"
       id="path1131"
       d="m 2.9663868,293.88639 -0.591178,0.49886 -0.5925573,0.50022 H 1.6200456 c -0.1033533,0 -0.253559,0 -0.438217,0 -0.028928,0 -0.067525,0.0634 -0.068901,0.12678 -0.00141,0.0648 0.035828,0.12816 0.056497,0.12816 H 2.642547 c 0.0248,0 0.06477,-0.0634 0.066146,-0.12816 0.00141,-0.0634 -0.035828,-0.12678 -0.066146,-0.12678 H 2.1037357 l 0.5112526,-0.42994 0.5112526,-0.42858 c -0.00688,-0.0193 -0.038587,-0.0537 -0.07166,-0.0827 -0.034431,-0.0289 -0.07028,-0.0537 -0.088194,-0.0579"
       style="fill:#211e1e;fill-opacity:1;fill-rule:evenodd;stroke:none;stroke-width:0.35277775" />
    <path
       inkscape:connector-curvature="0"
       id="path1133"
       d="m 2.7665734,295.75915 c -0.00413,-0.004 -0.00967,-0.005 -0.01517,-0.003 -0.7083142,0.40652 -1.5282438,0.0785 -1.6853428,0.008 -0.00141,0 -0.00141,0 -0.00282,0 0,0 0,0 -0.00141,-10e-4 v 10e-4 c -0.00413,-10e-4 -0.011007,0 -0.012418,0.004 -0.00282,0.005 -0.00413,0.01 0,0.0124 1.0197464,0.67661 1.7087673,0 1.7156569,-0.007 0.00413,-0.004 0.00413,-0.01 0.0014,-0.0152"
       style="fill:#211e1e;fill-opacity:1;fill-rule:evenodd;stroke:none;stroke-width:0.35277775" />
    <path
       inkscape:connector-curvature="0"
       id="path1135"
       d="m 2.4895864,296.16429 c -0.00282,-0.006 -0.00826,-0.007 -0.013793,-0.004 -0.4905834,0.26733 -1.0238846,0.0551 -1.1258585,0.01 -0.00141,0 -0.00141,0 -0.00141,0 0,0 -0.00141,0 -0.00141,0 -0.00413,-0.001 -0.011007,0 -0.013794,0.004 -0.00282,0.006 -0.00282,0.011 0.00141,0.0138 0.6835069,0.45613 1.149283,-0.006 1.1547969,-0.01 0.00282,-0.004 0.00413,-0.01 0,-0.0138"
       style="fill:#211e1e;fill-opacity:1;fill-rule:evenodd;stroke:none;stroke-width:0.35277775" />
    <path
       inkscape:connector-curvature="0"
       id="path1137"
       d="m 2.2057096,296.5212 c -0.00282,-0.004 -0.00826,-0.005 -0.013794,-0.004 -0.1901684,0.0909 -0.4575104,0.0303 -0.5346806,0.01 -0.0055,-10e-4 -0.013794,0.001 -0.015169,0.007 -0.00282,0.004 -0.00282,0.01 0.00282,0.0124 0.3500226,0.2067 0.558105,-0.008 0.5608602,-0.011 0.00282,-0.004 0.00282,-0.01 0,-0.0138"
       style="fill:#211e1e;fill-opacity:1;fill-rule:evenodd;stroke:none;stroke-width:0.35277775" />
  </g>
</svg>
