<?xml version="1.0" encoding="UTF-8" standalone="no"?>
<!-- Created with Inkscape (http://www.inkscape.org/) -->

<svg
   xmlns:dc="http://purl.org/dc/elements/1.1/"
   xmlns:cc="http://creativecommons.org/ns#"
   xmlns:rdf="http://www.w3.org/1999/02/22-rdf-syntax-ns#"
   xmlns:svg="http://www.w3.org/2000/svg"
   xmlns="http://www.w3.org/2000/svg"
   xmlns:sodipodi="http://sodipodi.sourceforge.net/DTD/sodipodi-0.dtd"
   xmlns:inkscape="http://www.inkscape.org/namespaces/inkscape"
   width="3.75mm"
   height="3.75mm"
   viewBox="0 0 3.75 3.75"
   version="1.1"
   id="svg13826"
   inkscape:version="0.92.1 r15371"
   sodipodi:docname="playground_light.svg">
  <defs
     id="defs13820" />
  <sodipodi:namedview
     id="base"
     pagecolor="#ffffff"
     bordercolor="#666666"
     borderopacity="1.0"
     inkscape:pageopacity="0.0"
     inkscape:pageshadow="2"
     inkscape:zoom="30.586462"
     inkscape:cx="6.9619327"
     inkscape:cy="6.2487963"
     inkscape:document-units="mm"
     inkscape:current-layer="layer1"
     showgrid="false"
     inkscape:window-width="742"
     inkscape:window-height="651"
     inkscape:window-x="533"
     inkscape:window-y="51"
     inkscape:window-maximized="0"
     showguides="true"
     inkscape:guide-bbox="true"
     gridtolerance="10"
     guidetolerance="2">
    <inkscape:grid
       type="xygrid"
       id="grid13828" />
    <sodipodi:guide
       position="0.13043093,3.8477124"
       orientation="1,0"
       id="guide20533"
       inkscape:locked="false" />
    <sodipodi:guide
       position="1.9173346,3.6129367"
       orientation="0,1"
       id="guide20535"
       inkscape:locked="false" />
  </sodipodi:namedview>
  <metadata
     id="metadata13823">
    <rdf:RDF>
      <cc:Work
         rdf:about="">
        <dc:format>image/svg+xml</dc:format>
        <dc:type
           rdf:resource="http://purl.org/dc/dcmitype/StillImage" />
        <dc:title></dc:title>
      </cc:Work>
    </rdf:RDF>
  </metadata>
  <g
     inkscape:label="Layer 1"
     inkscape:groupmode="layer"
     id="layer1"
     transform="translate(0,-293.25)">
    <path
       inkscape:connector-curvature="0"
       id="path4491"
       d="m 3.2128256,296.8661 c 0.2301311,0 0.4161684,-0.18604 0.4161684,-0.41617 v -2.65272 c 0,-0.23014 -0.1860373,-0.41755 -0.4161684,-0.41755 H 0.5587232 c -0.22875523,0 -0.41616842,0.18741 -0.41616842,0.41755 v 2.65272 c 0,0.23013 0.18741319,0.41617 0.41616842,0.41617 z m 0,0"
       style="fill:#211e1e;fill-opacity:1;fill-rule:nonzero;stroke:none;stroke-width:0.35277775" />
    <path
       inkscape:connector-curvature="0"
       id="path4493"
       d="m 0.56010255,293.45132 c -0.19154775,0 -0.34726738,0.15434 -0.34726738,0.34589 v 2.65272 c 0,0.19155 0.15571963,0.34589 0.34726738,0.34589 H 3.2128256 c 0.1901684,0 0.3458879,-0.15434 0.3458879,-0.34589 v -2.65272 c 0,-0.19155 -0.1557195,-0.34589 -0.3458879,-0.34589 z m 0,0"
       style="fill:#ffffff;fill-opacity:1;fill-rule:nonzero;stroke:none;stroke-width:0.35277775" />
    <path
       inkscape:connector-curvature="0"
       id="path4495"
       d="m 0.89910082,295.11048 c 0.15434028,0 0.27973868,-0.1254 0.27973868,-0.27974 0,-0.15434 -0.1253984,-0.27974 -0.27973868,-0.27974 -0.15434027,0 -0.27974219,0.1254 -0.27974219,0.27974 0,0.15434 0.12540192,0.27974 0.27974219,0.27974"
       style="fill:#211e1e;fill-opacity:1;fill-rule:nonzero;stroke:none;stroke-width:0.35277775" />
    <path
       inkscape:connector-curvature="0"
       id="path4497"
       d="m 2.4686832,295.59279 c 0.013794,-0.01 0.030304,-0.007 0.039966,0.006 l 0.052363,0.0717 c 0.00826,0.0124 0.0055,0.0303 -0.00688,0.04 l -0.3803367,0.27699 c -0.012418,0.008 -0.030304,0.005 -0.039963,-0.007 l -0.05099,-0.0717 c -0.00963,-0.0124 -0.00688,-0.0303 0.0055,-0.04 z m 0,0"
       style="fill:#211e1e;fill-opacity:1;fill-rule:nonzero;stroke:none;stroke-width:0.35277775" />
    <path
       inkscape:connector-curvature="0"
       id="path4499"
       d="m 2.0387353,295.23588 -0.1502057,-0.26459 -0.079925,0.0579 0.1515851,0.26596 z m 0,0"
       style="fill:#211e1e;fill-opacity:1;fill-rule:nonzero;stroke:none;stroke-width:0.35277775" />
    <path
       inkscape:connector-curvature="0"
       id="path4501"
       d="m 1.6873369,294.61852 -0.5870434,-1.03077 -0.11162241,10e-4 0.61874051,1.08727 z m 0,0"
       style="fill:#211e1e;fill-opacity:1;fill-rule:nonzero;stroke:none;stroke-width:0.35277775" />
    <path
       inkscape:connector-curvature="0"
       id="path4503"
       d="m 2.2399315,295.16284 c 0.033055,-0.0234 0.07028,-0.0427 0.1143776,-0.0427 l 0.5443219,0.001 c 0.1061122,0 0.1915478,0.0854 0.1915478,0.19155 0,0.10611 -0.085436,0.19155 -0.1915478,0.19155 l -0.4547516,-10e-4 -0.5801536,0.41065 c -0.2053273,0.14745 -0.3293498,-0.0152 -0.3293498,-0.0152 l -0.4547553,-0.45613 c -0.07717,-0.0909 -0.060632,-0.26596 0.031679,-0.34313 l 0.6297613,-0.44924 c 0.063391,-0.0524 0.1557197,-0.0441 0.2094618,0.0179 0.052366,0.0634 0.044097,0.1571 -0.019297,0.20947 l -0.4037648,0.2949 0.290763,0.28663 z m 0,0"
       style="fill:#211e1e;fill-opacity:1;fill-rule:nonzero;stroke:none;stroke-width:0.35277775" />
  </g>
</svg>
