<?xml version="1.0" encoding="UTF-8" standalone="no"?>
<!-- Created with Inkscape (http://www.inkscape.org/) -->

<svg
   xmlns:dc="http://purl.org/dc/elements/1.1/"
   xmlns:cc="http://creativecommons.org/ns#"
   xmlns:rdf="http://www.w3.org/1999/02/22-rdf-syntax-ns#"
   xmlns:svg="http://www.w3.org/2000/svg"
   xmlns="http://www.w3.org/2000/svg"
   xmlns:sodipodi="http://sodipodi.sourceforge.net/DTD/sodipodi-0.dtd"
   xmlns:inkscape="http://www.inkscape.org/namespaces/inkscape"
   width="3.75mm"
   height="3.75mm"
   viewBox="0 0 3.75 3.75"
   version="1.1"
   id="svg13826"
   inkscape:version="0.92.1 r15371"
   sodipodi:docname="playground_dark.svg">
  <defs
     id="defs13820" />
  <sodipodi:namedview
     id="base"
     pagecolor="#ffffff"
     bordercolor="#666666"
     borderopacity="1.0"
     inkscape:pageopacity="0.0"
     inkscape:pageshadow="2"
     inkscape:zoom="30.586462"
     inkscape:cx="6.9619327"
     inkscape:cy="6.2487963"
     inkscape:document-units="mm"
     inkscape:current-layer="layer1"
     showgrid="false"
     inkscape:window-width="742"
     inkscape:window-height="651"
     inkscape:window-x="533"
     inkscape:window-y="51"
     inkscape:window-maximized="0"
     showguides="true"
     inkscape:guide-bbox="true"
     gridtolerance="10"
     guidetolerance="2">
    <inkscape:grid
       type="xygrid"
       id="grid13828" />
    <sodipodi:guide
       position="0.13043093,3.8477124"
       orientation="1,0"
       id="guide20533"
       inkscape:locked="false" />
    <sodipodi:guide
       position="1.9173346,3.6129367"
       orientation="0,1"
       id="guide20535"
       inkscape:locked="false" />
  </sodipodi:namedview>
  <metadata
     id="metadata13823">
    <rdf:RDF>
      <cc:Work
         rdf:about="">
        <dc:format>image/svg+xml</dc:format>
        <dc:type
           rdf:resource="http://purl.org/dc/dcmitype/StillImage" />
        <dc:title></dc:title>
      </cc:Work>
    </rdf:RDF>
  </metadata>
  <g
     inkscape:label="Layer 1"
     inkscape:groupmode="layer"
     id="layer1"
     transform="translate(0,-293.25)">
    <path
       inkscape:connector-curvature="0"
       id="path2395"
       d="m 0.55007106,293.45996 c -0.19154421,0 -0.34588448,0.15434 -0.34588448,0.34589 v 2.65272 c 0,0.19155 0.15434027,0.34589 0.34588448,0.34589 H 3.2027977 c 0.191544,0 0.3458845,-0.15434 0.3458845,-0.34589 v -2.65272 c 0,-0.19155 -0.1543405,-0.34589 -0.3458845,-0.34589 z m 0,0"
       style="fill:#ffffff;fill-opacity:1;fill-rule:nonzero;stroke:none;stroke-width:0.35277775" />
    <path
       inkscape:connector-curvature="0"
       id="path2397"
       d="m 3.2027977,296.87474 c 0.2301309,0 0.4175442,-0.18604 0.4175442,-0.41617 v -2.65272 c 0,-0.23014 -0.1874133,-0.41755 -0.4175442,-0.41755 H 0.55007106 c -0.23013104,0 -0.41616487,0.18741 -0.41616487,0.41755 v 2.65272 c 0,0.23013 0.18603383,0.41617 0.41616487,0.41617 z m 0,0"
       style="fill:#211e1e;fill-opacity:1;fill-rule:nonzero;stroke:none;stroke-width:0.35277775" />
    <path
       inkscape:connector-curvature="0"
       id="path2399"
       d="m 0.88906933,295.11912 c 0.15434027,0 0.28112157,-0.1254 0.28112157,-0.27974 0,-0.15434 -0.1267813,-0.27974 -0.28112157,-0.27974 -0.15434027,0 -0.27974219,0.1254 -0.27974219,0.27974 0,0.15434 0.12540192,0.27974 0.27974219,0.27974"
       style="fill:#ffffff;fill-opacity:1;fill-rule:nonzero;stroke:none;stroke-width:0.35277775" />
    <path
       inkscape:connector-curvature="0"
       id="path2401"
       d="m 2.4600346,295.60143 c 0.012383,-0.01 0.030304,-0.007 0.039963,0.006 l 0.050987,0.0717 c 0.00963,0.0124 0.00688,0.0303 -0.0055,0.04 l -0.3803368,0.27699 c -0.012418,0.008 -0.030304,0.005 -0.039963,-0.007 l -0.052366,-0.0717 c -0.00825,-0.0124 -0.0055,-0.0303 0.00688,-0.04 z m 0,0"
       style="fill:#ffffff;fill-opacity:1;fill-rule:nonzero;stroke:none;stroke-width:0.35277775" />
    <path
       inkscape:connector-curvature="0"
       id="path2403"
       d="m 2.0300867,295.24452 -0.1515851,-0.26459 -0.078549,0.0579 0.1502058,0.26596 z m 0,0"
       style="fill:#ffffff;fill-opacity:1;fill-rule:nonzero;stroke:none;stroke-width:0.35277775" />
    <path
       inkscape:connector-curvature="0"
       id="path2405"
       d="m 1.6773089,294.62716 -0.5856675,-1.03077 -0.11299826,0.001 0.61873696,1.08727 z m 0,0"
       style="fill:#ffffff;fill-opacity:1;fill-rule:nonzero;stroke:none;stroke-width:0.35277775" />
    <path
       inkscape:connector-curvature="0"
       id="path2407"
       d="m 2.2299,295.17148 c 0.033055,-0.0234 0.07166,-0.0427 0.1143776,-0.0427 l 0.5457048,10e-4 c 0.1061085,0 0.1915478,0.0854 0.1915478,0.19155 0,0.10611 -0.085439,0.19155 -0.1915478,0.19155 l -0.4547551,-10e-4 -0.5815295,0.41065 c -0.2039514,0.14745 -0.3279739,-0.0152 -0.3279739,-0.0152 L 1.0695928,295.4512 c -0.0771701,-0.0909 -0.060632,-0.26596 0.03168,-0.34313 l 0.6311441,-0.44924 c 0.062011,-0.0524 0.1557161,-0.0441 0.2080824,0.0179 0.052366,0.0634 0.044097,0.1571 -0.017921,0.20947 l -0.4037648,0.2949 0.2893871,0.28663 z m 0,0"
       style="fill:#ffffff;fill-opacity:1;fill-rule:nonzero;stroke:none;stroke-width:0.35277775" />
  </g>
</svg>
