<?xml version="1.0" encoding="UTF-8" standalone="no"?>
<!-- Created with Inkscape (http://www.inkscape.org/) -->

<svg
   xmlns:dc="http://purl.org/dc/elements/1.1/"
   xmlns:cc="http://creativecommons.org/ns#"
   xmlns:rdf="http://www.w3.org/1999/02/22-rdf-syntax-ns#"
   xmlns:svg="http://www.w3.org/2000/svg"
   xmlns="http://www.w3.org/2000/svg"
   xmlns:sodipodi="http://sodipodi.sourceforge.net/DTD/sodipodi-0.dtd"
   xmlns:inkscape="http://www.inkscape.org/namespaces/inkscape"
   width="3.75mm"
   height="3.75mm"
   viewBox="0 0 3.75 3.75"
   version="1.1"
   id="svg13826"
   inkscape:version="0.92.1 r15371"
   sodipodi:docname="rock_collecting_light.svg">
  <defs
     id="defs13820" />
  <sodipodi:namedview
     id="base"
     pagecolor="#ffffff"
     bordercolor="#666666"
     borderopacity="1.0"
     inkscape:pageopacity="0.0"
     inkscape:pageshadow="2"
     inkscape:zoom="30.586462"
     inkscape:cx="6.9619327"
     inkscape:cy="6.2487963"
     inkscape:document-units="mm"
     inkscape:current-layer="layer1"
     showgrid="false"
     inkscape:window-width="742"
     inkscape:window-height="651"
     inkscape:window-x="533"
     inkscape:window-y="51"
     inkscape:window-maximized="0"
     showguides="true"
     inkscape:guide-bbox="true"
     gridtolerance="10"
     guidetolerance="2">
    <inkscape:grid
       type="xygrid"
       id="grid13828" />
    <sodipodi:guide
       position="0.13043093,3.8477124"
       orientation="1,0"
       id="guide20533"
       inkscape:locked="false" />
    <sodipodi:guide
       position="1.9173346,3.6129367"
       orientation="0,1"
       id="guide20535"
       inkscape:locked="false" />
  </sodipodi:namedview>
  <metadata
     id="metadata13823">
    <rdf:RDF>
      <cc:Work
         rdf:about="">
        <dc:format>image/svg+xml</dc:format>
        <dc:type
           rdf:resource="http://purl.org/dc/dcmitype/StillImage" />
        <dc:title></dc:title>
      </cc:Work>
    </rdf:RDF>
  </metadata>
  <g
     inkscape:label="Layer 1"
     inkscape:groupmode="layer"
     id="layer1"
     transform="translate(0,-293.25)">
    <path
       inkscape:connector-curvature="0"
       id="path4545"
       d="m 3.1868745,296.87475 c 0.2301311,0 0.4161684,-0.18604 0.4161684,-0.41617 v -2.6541 c 0,-0.23014 -0.1860373,-0.41617 -0.4161684,-0.41617 H 0.53277218 c -0.23013106,0 -0.41616842,0.18603 -0.41616842,0.41617 v 2.6541 c 0,0.23013 0.18603736,0.41617 0.41616842,0.41617 z m 0,0"
       style="fill:#211e1e;fill-opacity:1;fill-rule:nonzero;stroke:none;stroke-width:0.35277775" />
    <path
       inkscape:connector-curvature="0"
       id="path4547"
       d="m 0.53277218,293.45997 c -0.1901684,0 -0.34450867,0.15434 -0.34450867,0.34451 v 2.6541 c 0,0.19017 0.15434027,0.34589 0.34450867,0.34589 H 3.1868745 c 0.1901684,0 0.3458879,-0.15572 0.3458879,-0.34589 v -2.6541 c 0,-0.19017 -0.1557195,-0.34451 -0.3458879,-0.34451 z m 0,0"
       style="fill:#ffffff;fill-opacity:1;fill-rule:nonzero;stroke:none;stroke-width:0.35277775" />
    <path
       inkscape:connector-curvature="0"
       id="path4549"
       d="m 2.3159544,295.65794 0.1364262,0.11575 0.2370208,-0.27974 -0.2797422,-0.23702 -0.1171328,0.1378 z m 0,0"
       style="fill:#211e1e;fill-opacity:1;fill-rule:nonzero;stroke:none;stroke-width:0.35277775" />
    <path
       inkscape:connector-curvature="0"
       id="path4551"
       d="M 3.0959247,295.83571 H 2.5695134 v 0.53605 h 0.3569124 l 0.1694989,-0.1819 z m 0,0"
       style="fill:#211e1e;fill-opacity:1;fill-rule:nonzero;stroke:none;stroke-width:0.35277775" />
    <path
       inkscape:connector-curvature="0"
       id="path4553"
       d="m 2.1450759,296.39932 0.1777682,-0.0524 -0.1598506,-0.53468 -0.378961,0.113 -0.074415,0.3197 z m 0,0"
       style="fill:#211e1e;fill-opacity:1;fill-rule:nonzero;stroke:none;stroke-width:0.35277775" />
    <path
       inkscape:connector-curvature="0"
       id="path4555"
       d="M 1.779898,294.05666 C 1.3692435,293.8155 1.1528884,293.80723 0.77944145,293.76451 l -0.0137935,0.0703 c 0.46302075,0.10749 0.58015355,0.21635 0.89985845,0.40928 l 0.044097,0.21084 -1.05282286,1.73495 c -0.0110067,0.0207 -0.0165452,0.0441 -0.017921,0.0689 -0.00141,0.0854 0.0675252,0.15572 0.15296443,0.1571 0.0564974,10e-4 0.1061085,-0.0289 0.1336675,-0.073 l 1.03766403,-1.69498 0.4216788,0.27009 0.2163515,-0.35829 -0.8213089,-0.50298"
       style="fill:#211e1e;fill-opacity:1;fill-rule:nonzero;stroke:none;stroke-width:0.35277775" />
  </g>
</svg>
