<?xml version="1.0" encoding="UTF-8" standalone="no"?>
<!-- Created with Inkscape (http://www.inkscape.org/) -->

<svg
   xmlns:dc="http://purl.org/dc/elements/1.1/"
   xmlns:cc="http://creativecommons.org/ns#"
   xmlns:rdf="http://www.w3.org/1999/02/22-rdf-syntax-ns#"
   xmlns:svg="http://www.w3.org/2000/svg"
   xmlns="http://www.w3.org/2000/svg"
   xmlns:sodipodi="http://sodipodi.sourceforge.net/DTD/sodipodi-0.dtd"
   xmlns:inkscape="http://www.inkscape.org/namespaces/inkscape"
   width="3.75mm"
   height="3.75mm"
   viewBox="0 0 3.75 3.75"
   version="1.1"
   id="svg13826"
   inkscape:version="0.92.1 r15371"
   sodipodi:docname="skate_boarding_dark.svg">
  <defs
     id="defs13820" />
  <sodipodi:namedview
     id="base"
     pagecolor="#ffffff"
     bordercolor="#666666"
     borderopacity="1.0"
     inkscape:pageopacity="0.0"
     inkscape:pageshadow="2"
     inkscape:zoom="30.586462"
     inkscape:cx="6.9619327"
     inkscape:cy="6.2487963"
     inkscape:document-units="mm"
     inkscape:current-layer="layer1"
     showgrid="false"
     inkscape:window-width="742"
     inkscape:window-height="651"
     inkscape:window-x="533"
     inkscape:window-y="51"
     inkscape:window-maximized="0"
     showguides="true"
     inkscape:guide-bbox="true"
     gridtolerance="10"
     guidetolerance="2">
    <inkscape:grid
       type="xygrid"
       id="grid13828" />
    <sodipodi:guide
       position="0.13043093,3.8477124"
       orientation="1,0"
       id="guide20533"
       inkscape:locked="false" />
    <sodipodi:guide
       position="1.9173346,3.6129367"
       orientation="0,1"
       id="guide20535"
       inkscape:locked="false" />
  </sodipodi:namedview>
  <metadata
     id="metadata13823">
    <rdf:RDF>
      <cc:Work
         rdf:about="">
        <dc:format>image/svg+xml</dc:format>
        <dc:type
           rdf:resource="http://purl.org/dc/dcmitype/StillImage" />
        <dc:title></dc:title>
      </cc:Work>
    </rdf:RDF>
  </metadata>
  <g
     inkscape:label="Layer 1"
     inkscape:groupmode="layer"
     id="layer1"
     transform="translate(0,-293.25)">
    <path
       inkscape:connector-curvature="0"
       id="path2815"
       d="m 0.53277038,293.45789 c -0.19016838,0 -0.34588448,0.15572 -0.34588448,0.34727 v 2.65272 c 0,0.19155 0.1557161,0.34589 0.34588448,0.34589 H 3.1868729 c 0.1901682,0 0.3445087,-0.15434 0.3445087,-0.34589 v -2.65272 c 0,-0.19155 -0.1543405,-0.34727 -0.3445087,-0.34727 z m 0,0"
       style="fill:#ffffff;fill-opacity:1;fill-rule:nonzero;stroke:none;stroke-width:0.35277775" />
    <path
       inkscape:connector-curvature="0"
       id="path2817"
       d="m 3.1868729,296.87543 c 0.2287551,0 0.4161684,-0.18742 0.4161684,-0.41755 v -2.65272 c 0,-0.23014 -0.1874133,-0.41755 -0.4161684,-0.41755 H 0.53277038 c -0.23013104,0 -0.41616487,0.18741 -0.41616487,0.41755 v 2.65272 c 0,0.23013 0.18603383,0.41755 0.41616487,0.41755 z m 0,0"
       style="fill:#211e1e;fill-opacity:1;fill-rule:nonzero;stroke:none;stroke-width:0.35277775" />
    <path
       inkscape:connector-curvature="0"
       id="path2819"
       d="m 1.5428755,296.65769 c 0.048228,0 0.088194,-0.0386 0.088194,-0.0882 0,-0.0482 -0.039966,-0.0868 -0.088194,-0.0868 -0.048232,0 -0.088194,0.0386 -0.088194,0.0868 0,0.0496 0.039963,0.0882 0.088194,0.0882"
       style="fill:#ffffff;fill-opacity:1;fill-rule:nonzero;stroke:none;stroke-width:0.35277775" />
    <path
       inkscape:connector-curvature="0"
       id="path2821"
       d="m 2.2525621,296.65632 c 0.049611,0 0.088194,-0.04 0.088194,-0.0896 0,-0.0482 -0.038583,-0.0882 -0.088194,-0.0882 -0.048228,0 -0.086815,0.04 -0.086815,0.0882 0,0.0496 0.038587,0.0896 0.086815,0.0896"
       style="fill:#ffffff;fill-opacity:1;fill-rule:nonzero;stroke:none;stroke-width:0.35277775" />
    <path
       inkscape:connector-curvature="0"
       id="path2823"
       d="m 1.3692418,296.39587 c 0,0 -0.050987,-0.003 -0.050987,-0.0551 v -0.006 c 0,-0.0524 0.050987,-0.0551 0.050987,-0.0551 h 1.0541988 c 0,0 0.052366,0.004 0.052366,0.0551 v 0.006 c 0,0.0496 -0.052366,0.0551 -0.052366,0.0551 z m 0,0"
       style="fill:#ffffff;fill-opacity:1;fill-rule:nonzero;stroke:none;stroke-width:0.35277775" />
    <path
       inkscape:connector-curvature="0"
       id="path2825"
       d="m 2.1023564,294.10006 c 0.1281571,0 0.2328897,-0.10473 0.2328897,-0.23289 0,-0.12954 -0.1047326,-0.23289 -0.2328897,-0.23289 -0.129533,0 -0.2342656,0.10335 -0.2342656,0.23289 0,0.12816 0.1047326,0.23289 0.2342656,0.23289"
       style="fill:#ffffff;fill-opacity:1;fill-rule:nonzero;stroke:none;stroke-width:0.35277775" />
    <path
       inkscape:connector-curvature="0"
       id="path2827"
       d="m 0.8345612,296.14093 c -0.0110067,0.0207 -0.0165452,0.0441 -0.0165452,0.0689 0,0.0827 0.0661458,0.14883 0.14882636,0.14883 0.059256,0 0.11024314,-0.0345 0.13505044,-0.0827 l 0.5084938,-0.87641 -0.2108376,-0.21084 z m 0,0"
       style="fill:#ffffff;fill-opacity:1;fill-rule:nonzero;stroke:none;stroke-width:0.35277775" />
    <path
       inkscape:connector-curvature="0"
       id="path2829"
       d="m 1.9383712,296.10234 c -0.023424,0.0496 -0.074415,0.0827 -0.1336711,0.0827 -0.081305,0 -0.1488263,-0.0661 -0.1488263,-0.14883 0,-0.0248 0.00688,-0.0482 0.016545,-0.0689 l 0.2218654,-0.38999 -0.4327031,-0.42995 c -0.1653646,-0.16674 -0.046856,-0.34726 -0.046856,-0.34726 L 1.647615,294.38946 H 1.0302541 c -0.068901,0 -0.12264674,-0.0551 -0.12264674,-0.12265 0,-0.0675 0.053746,-0.12265 0.12264674,-0.12265 h 1.8699973 c 0.066146,0 0.1212675,0.0551 0.1212675,0.12403 0,0.0661 -0.055122,0.12127 -0.1212675,0.12127 H 2.1864269 l -0.3403741,0.59668 0.3472673,0.34176 c 0.119888,0.11713 0.042718,0.24805 0.042718,0.24805 z m 0,0"
       style="fill:#ffffff;fill-opacity:1;fill-rule:nonzero;stroke:none;stroke-width:0.35277775" />
  </g>
</svg>
