<?xml version="1.0" encoding="UTF-8" standalone="no"?>
<!-- Created with Inkscape (http://www.inkscape.org/) -->

<svg
   xmlns:dc="http://purl.org/dc/elements/1.1/"
   xmlns:cc="http://creativecommons.org/ns#"
   xmlns:rdf="http://www.w3.org/1999/02/22-rdf-syntax-ns#"
   xmlns:svg="http://www.w3.org/2000/svg"
   xmlns="http://www.w3.org/2000/svg"
   xmlns:sodipodi="http://sodipodi.sourceforge.net/DTD/sodipodi-0.dtd"
   xmlns:inkscape="http://www.inkscape.org/namespaces/inkscape"
   width="3.75mm"
   height="3.75mm"
   viewBox="0 0 3.75 3.75"
   version="1.1"
   id="svg13826"
   inkscape:version="0.92.1 r15371"
   sodipodi:docname="stable_light.svg">
  <defs
     id="defs13820" />
  <sodipodi:namedview
     id="base"
     pagecolor="#ffffff"
     bordercolor="#666666"
     borderopacity="1.0"
     inkscape:pageopacity="0.0"
     inkscape:pageshadow="2"
     inkscape:zoom="30.586462"
     inkscape:cx="6.9619327"
     inkscape:cy="6.2487963"
     inkscape:document-units="mm"
     inkscape:current-layer="layer1"
     showgrid="false"
     inkscape:window-width="742"
     inkscape:window-height="651"
     inkscape:window-x="488"
     inkscape:window-y="89"
     inkscape:window-maximized="0"
     showguides="true"
     inkscape:guide-bbox="true"
     gridtolerance="10"
     guidetolerance="2">
    <inkscape:grid
       type="xygrid"
       id="grid13828" />
    <sodipodi:guide
       position="0.13043093,3.8477124"
       orientation="1,0"
       id="guide20533"
       inkscape:locked="false" />
    <sodipodi:guide
       position="1.9173346,3.6129367"
       orientation="0,1"
       id="guide20535"
       inkscape:locked="false" />
    <sodipodi:guide
       position="0.16435648,3.6129367"
       orientation="0,1"
       id="guide27414"
       inkscape:locked="false" />
  </sodipodi:namedview>
  <metadata
     id="metadata13823">
    <rdf:RDF>
      <cc:Work
         rdf:about="">
        <dc:format>image/svg+xml</dc:format>
        <dc:type
           rdf:resource="http://purl.org/dc/dcmitype/StillImage" />
        <dc:title></dc:title>
      </cc:Work>
    </rdf:RDF>
  </metadata>
  <g
     inkscape:label="Layer 1"
     inkscape:groupmode="layer"
     id="layer1"
     transform="translate(0,-293.25)">
    <path
       inkscape:connector-curvature="0"
       id="path12999"
       d="m 3.2034873,296.8834 c 0.2301311,0 0.4175442,-0.18604 0.4175442,-0.41617 v -2.6541 c 0,-0.23014 -0.1874131,-0.41617 -0.4175442,-0.41617 H 0.55076431 c -0.23151041,0 -0.41754777,0.18603 -0.41754777,0.41617 v 2.6541 c 0,0.23013 0.18603736,0.41617 0.41754777,0.41617 z m 0,0"
       style="fill:#211e1e;fill-opacity:1;fill-rule:nonzero;stroke:none;stroke-width:0.35277775" />
    <path
       inkscape:connector-curvature="0"
       id="path13001"
       d="m 0.54938496,293.46724 c -0.1901684,0 -0.34588803,0.15572 -0.34588803,0.34589 v 2.6541 c 0,0.19017 0.15571963,0.34451 0.34588803,0.34451 H 3.2034873 c 0.1915477,0 0.3458879,-0.15434 0.3458879,-0.34451 v -2.6541 c 0,-0.19017 -0.1543402,-0.34589 -0.3458879,-0.34589 z m 0,0"
       style="fill:#ffffff;fill-opacity:1;fill-rule:nonzero;stroke:none;stroke-width:0.35277775" />
    <path
       inkscape:connector-curvature="0"
       id="path13003"
       d="m 2.3284326,294.99686 0.522277,-0.54019 -0.016544,0.14056 0.2563177,0.17225 c 0.044097,0.0234 0.059256,0.0786 0.034431,0.12127 -0.019296,0.0331 -0.056497,0.0496 -0.092329,0.0427 l -0.020672,-0.003 c -0.024799,0.0992 -0.1157533,0.17226 -0.2232411,0.17226 -0.020673,0 -0.041342,-0.003 -0.060636,-0.008 l -0.194303,0.39825 -0.00141,0.54571 c 0,0.0468 -0.037208,0.0854 -0.084063,0.0854 -0.046852,0 -0.085436,-0.0386 -0.085436,-0.0854 v -0.55806 H 1.9328735 l -0.075794,0.13092 0.1598542,0.38447 c 0.023424,0.04 0.00963,0.0923 -0.03168,0.11575 -0.039963,0.0221 -0.092325,0.01 -0.1157534,-0.0317 l -0.1874132,-0.44372 v -0.13919 l -0.08406,0.13092 v 0.41065 c 0,0.0469 -0.037208,0.0854 -0.085439,0.0854 -0.046853,0 -0.08406,-0.0386 -0.08406,-0.0854 v -0.47404 l 0.07028,-0.10887 v -0.37345 l -0.07028,0.10749 v 0.31006 H 1.2948572 v -0.31419 c 0,-0.10336 0.08406,-0.18879 0.1887926,-0.18879 z m 0.6366545,-0.0758 -0.1364263,-0.0262 -0.079925,0.1571 c 0.013793,0.003 0.026176,0.004 0.039962,0.004 0.085439,0 0.1557163,-0.0565 0.176389,-0.13505"
       style="fill:#211e1e;fill-opacity:1;fill-rule:nonzero;stroke:none;stroke-width:0.35277775" />
    <path
       inkscape:connector-curvature="0"
       id="path13005"
       d="m 0.6954561,294.84528 -0.27560762,0.10473 v -0.26734 l 2.75194512,-1.04869 v 0.26734 l -2.21864396,0.84612 v 1.55994 H 3.1717936 v 0.25631 H 0.6954561 Z m 0,0"
       style="fill:#211e1e;fill-opacity:1;fill-rule:nonzero;stroke:none;stroke-width:0.35277775" />
  </g>
</svg>
