<?xml version="1.0" encoding="UTF-8" standalone="no"?>
<!-- Created with Inkscape (http://www.inkscape.org/) -->

<svg
   xmlns:dc="http://purl.org/dc/elements/1.1/"
   xmlns:cc="http://creativecommons.org/ns#"
   xmlns:rdf="http://www.w3.org/1999/02/22-rdf-syntax-ns#"
   xmlns:svg="http://www.w3.org/2000/svg"
   xmlns="http://www.w3.org/2000/svg"
   xmlns:sodipodi="http://sodipodi.sourceforge.net/DTD/sodipodi-0.dtd"
   xmlns:inkscape="http://www.inkscape.org/namespaces/inkscape"
   width="3.75mm"
   height="3.75mm"
   viewBox="0 0 3.75 3.75"
   version="1.1"
   id="svg13826"
   inkscape:version="0.92.1 r15371"
   sodipodi:docname="cabin_light.svg">
  <defs
     id="defs13820" />
  <sodipodi:namedview
     id="base"
     pagecolor="#ffffff"
     bordercolor="#666666"
     borderopacity="1.0"
     inkscape:pageopacity="0.0"
     inkscape:pageshadow="2"
     inkscape:zoom="20.285322"
     inkscape:cx="7.2558826"
     inkscape:cy="7.2894483"
     inkscape:document-units="mm"
     inkscape:current-layer="layer1"
     showgrid="false"
     inkscape:window-width="561"
     inkscape:window-height="558"
     inkscape:window-x="687"
     inkscape:window-y="78"
     inkscape:window-maximized="0"
     showguides="true"
     inkscape:guide-bbox="true"
     gridtolerance="10"
     guidetolerance="2">
    <inkscape:grid
       type="xygrid"
       id="grid13828" />
    <sodipodi:guide
       position="0.13043093,3.8477124"
       orientation="1,0"
       id="guide20533"
       inkscape:locked="false" />
    <sodipodi:guide
       position="1.9173346,3.6129367"
       orientation="0,1"
       id="guide20535"
       inkscape:locked="false" />
  </sodipodi:namedview>
  <metadata
     id="metadata13823">
    <rdf:RDF>
      <cc:Work
         rdf:about="">
        <dc:format>image/svg+xml</dc:format>
        <dc:type
           rdf:resource="http://purl.org/dc/dcmitype/StillImage" />
        <dc:title></dc:title>
      </cc:Work>
    </rdf:RDF>
  </metadata>
  <g
     inkscape:label="Layer 1"
     inkscape:groupmode="layer"
     id="layer1"
     transform="translate(0,-293.25)">
    <path
       inkscape:connector-curvature="0"
       id="path9277"
       d="m 3.1915256,296.87806 c 0.2301311,0 0.4175442,-0.18604 0.4175442,-0.41617 v -2.6541 c 0,-0.23013 -0.1874131,-0.41617 -0.4175442,-0.41617 H 0.53742316 c -0.23013459,0 -0.41616842,0.18604 -0.41616842,0.41617 v 2.6541 c 0,0.23013 0.18603383,0.41617 0.41616842,0.41617 z m 0,0"
       style="fill:#211e1e;fill-opacity:1;fill-rule:nonzero;stroke:none;stroke-width:0.35277775" />
    <path
       inkscape:connector-curvature="0"
       id="path9279"
       d="m 0.53742316,293.4619 c -0.1901684,0 -0.34450867,0.15572 -0.34450867,0.34589 v 2.6541 c 0,0.19017 0.15434027,0.34589 0.34450867,0.34589 H 3.1915256 c 0.1915443,0 0.3458845,-0.15572 0.3458845,-0.34589 v -2.6541 c 0,-0.19017 -0.1543402,-0.34589 -0.3458845,-0.34589 z m 0,0"
       style="fill:#ffffff;fill-opacity:1;fill-rule:nonzero;stroke:none;stroke-width:0.35277775" />
    <path
       inkscape:connector-curvature="0"
       id="path9281"
       d="M 0.44647351,295.38702 H 1.4786237 c 0.019297,0 0.035828,0.0152 0.035828,0.0345 v 0.3445 c 0,0.0193 -0.016545,0.0345 -0.035828,0.0345 H 0.44647351 c -0.0192969,0 -0.0358316,-0.0152 -0.0358316,-0.0345 v -0.3445 c 0,-0.0193 0.0165452,-0.0345 0.0358316,-0.0345"
       style="fill:#211e1e;fill-opacity:1;fill-rule:nonzero;stroke:none;stroke-width:0.35277775" />
    <path
       inkscape:connector-curvature="0"
       id="path9283"
       d="m 2.2503251,295.38702 h 1.0321502 c 0.020672,0 0.035828,0.0152 0.035828,0.0345 v 0.3445 c 0,0.0193 -0.015169,0.0345 -0.035828,0.0345 H 2.2503251 c -0.019297,0 -0.035832,-0.0152 -0.035832,-0.0345 v -0.3445 c 0,-0.0193 0.016545,-0.0345 0.035832,-0.0345"
       style="fill:#211e1e;fill-opacity:1;fill-rule:nonzero;stroke:none;stroke-width:0.35277775" />
    <path
       inkscape:connector-curvature="0"
       id="path9285"
       d="M 0.44647351,296.00714 H 1.4786237 c 0.019297,0 0.035828,0.0165 0.035828,0.0358 v 0.34313 c 0,0.0193 -0.016545,0.0358 -0.035828,0.0358 H 0.44647351 c -0.0192969,0 -0.0358316,-0.0165 -0.0358316,-0.0358 v -0.34313 c 0,-0.0193 0.0165452,-0.0358 0.0358316,-0.0358"
       style="fill:#211e1e;fill-opacity:1;fill-rule:nonzero;stroke:none;stroke-width:0.35277775" />
    <path
       inkscape:connector-curvature="0"
       id="path9287"
       d="m 2.2503251,296.00714 h 1.0321502 c 0.020672,0 0.035828,0.0165 0.035828,0.0358 v 0.34313 c 0,0.0193 -0.015169,0.0358 -0.035828,0.0358 H 2.2503251 c -0.019297,0 -0.035832,-0.0165 -0.035832,-0.0358 v -0.34313 c 0,-0.0193 0.016545,-0.0358 0.035832,-0.0358"
       style="fill:#211e1e;fill-opacity:1;fill-rule:nonzero;stroke:none;stroke-width:0.35277775" />
    <path
       inkscape:connector-curvature="0"
       id="path9289"
       d="m 3.3183033,295.14448 c 0,0.0193 -0.015169,0.0358 -0.035828,0.0358 H 0.44647351 c -0.0192969,0 -0.0358316,-0.0165 -0.0358316,-0.0358 v -0.34312 c 0,-0.0193 0.0165452,-0.0358 0.0358316,-0.0358 H 3.2824753 c 0.020672,0 0.035828,0.0165 0.035828,0.0358 z m 0,0"
       style="fill:#211e1e;fill-opacity:1;fill-rule:nonzero;stroke:none;stroke-width:0.35277775" />
    <path
       inkscape:connector-curvature="0"
       id="path9291"
       d="m 0.45887366,294.49956 c -0.0330553,0.0165 -0.0468524,0.0303 -0.0440972,0.0414 0.00141,0.011 0.0220485,0.0179 0.0578767,0.0179 H 3.2604265 c 0.035828,0 0.056498,-0.007 0.059256,-0.0165 0.0014,-0.011 -0.013793,-0.0262 -0.045477,-0.0413 0,0 -1.387683,-0.66697 -1.4317802,-0.66559 -0.042721,0 -1.38355214,0.66421 -1.38355214,0.66421"
       style="fill:#211e1e;fill-opacity:1;fill-rule:nonzero;stroke:none;stroke-width:0.35277775" />
  </g>
</svg>
