<?xml version="1.0" encoding="UTF-8" standalone="no"?>
<!-- Created with Inkscape (http://www.inkscape.org/) -->

<svg
   xmlns:dc="http://purl.org/dc/elements/1.1/"
   xmlns:cc="http://creativecommons.org/ns#"
   xmlns:rdf="http://www.w3.org/1999/02/22-rdf-syntax-ns#"
   xmlns:svg="http://www.w3.org/2000/svg"
   xmlns="http://www.w3.org/2000/svg"
   xmlns:sodipodi="http://sodipodi.sourceforge.net/DTD/sodipodi-0.dtd"
   xmlns:inkscape="http://www.inkscape.org/namespaces/inkscape"
   width="3.75mm"
   height="3.75mm"
   viewBox="0 0 3.75 3.75"
   version="1.1"
   id="svg13826"
   inkscape:version="0.92.1 r15371"
   sodipodi:docname="cansbottles_light.svg">
  <defs
     id="defs13820" />
  <sodipodi:namedview
     id="base"
     pagecolor="#ffffff"
     bordercolor="#666666"
     borderopacity="1.0"
     inkscape:pageopacity="0.0"
     inkscape:pageshadow="2"
     inkscape:zoom="28.687777"
     inkscape:cx="7.3622402"
     inkscape:cy="6.238671"
     inkscape:document-units="mm"
     inkscape:current-layer="layer1"
     showgrid="false"
     inkscape:window-width="691"
     inkscape:window-height="712"
     inkscape:window-x="674"
     inkscape:window-y="27"
     inkscape:window-maximized="0"
     showguides="true"
     inkscape:guide-bbox="true"
     gridtolerance="10"
     guidetolerance="2">
    <inkscape:grid
       type="xygrid"
       id="grid13828" />
    <sodipodi:guide
       position="0.13043093,3.8477124"
       orientation="1,0"
       id="guide20533"
       inkscape:locked="false" />
    <sodipodi:guide
       position="1.9173346,3.6129367"
       orientation="0,1"
       id="guide20535"
       inkscape:locked="false" />
  </sodipodi:namedview>
  <metadata
     id="metadata13823">
    <rdf:RDF>
      <cc:Work
         rdf:about="">
        <dc:format>image/svg+xml</dc:format>
        <dc:type
           rdf:resource="http://purl.org/dc/dcmitype/StillImage" />
        <dc:title></dc:title>
      </cc:Work>
    </rdf:RDF>
  </metadata>
  <g
     inkscape:label="Layer 1"
     inkscape:groupmode="layer"
     id="layer1"
     transform="translate(0,-293.25)">
    <path
       inkscape:connector-curvature="0"
       id="path4375"
       d="m 3.1992912,296.87098 c 0.2301322,0 0.4161674,-0.18604 0.4161674,-0.41617 v -2.65272 c 0,-0.23014 -0.1860352,-0.41755 -0.4161674,-0.41755 H 0.54518963 c -0.23013212,0 -0.41616736,0.18741 -0.41616736,0.41755 v 2.65272 c 0,0.23013 0.18603524,0.41617 0.41616736,0.41617 z m 0,0"
       style="fill:#211e1e;fill-opacity:1;fill-rule:nonzero;stroke:none;stroke-width:0.35277775" />
    <path
       inkscape:connector-curvature="0"
       id="path4377"
       d="m 0.54518963,293.4562 c -0.1901691,0 -0.34588768,0.15434 -0.34588768,0.34589 v 2.65272 c 0,0.19017 0.15571858,0.34589 0.34588768,0.34589 H 3.1992912 c 0.1901693,0 0.3458877,-0.15572 0.3458877,-0.34589 v -2.65272 c 0,-0.19155 -0.1557184,-0.34589 -0.3458877,-0.34589 z m 0,0"
       style="fill:#ffffff;fill-opacity:1;fill-rule:nonzero;stroke:none;stroke-width:0.35277775" />
    <path
       inkscape:connector-curvature="0"
       id="path4379"
       d="m 2.3766026,293.88339 c -0.024804,-0.004 -0.044097,-0.0248 -0.044097,-0.0496 0,-0.0193 0.011024,-0.0344 0.026183,-0.0441 -0.015159,-0.01 -0.026183,-0.0262 -0.026183,-0.0441 0,-0.0289 0.023428,-0.051 0.050987,-0.051 h 0.2521807 c 0.028938,0 0.050988,0.022 0.050988,0.051 0,0.0193 -0.011024,0.0358 -0.027562,0.0441 0.016535,0.008 0.027562,0.0248 0.027562,0.0441 0,0.0248 -0.019293,0.0455 -0.042719,0.0496 l 0.3059245,0.8282 c 0.019293,0.0538 0.028939,0.113 0.028939,0.17363 v 1.46762 c 0,0.0551 -0.045476,0.0992 -0.1005972,0.0992 h -0.737251 c -0.055122,0 -0.099219,-0.0441 -0.099219,-0.0992 v -1.46762 c 0,-0.0606 0.00964,-0.11988 0.027562,-0.17363 z m 0,0"
       style="fill:#211e1e;fill-opacity:1;fill-rule:nonzero;stroke:none;stroke-width:0.35277775" />
    <path
       inkscape:connector-curvature="0"
       id="path4381"
       d="m 0.96824742,294.71711 c 0.00689,0.006 0.0151588,0.01 0.0248039,0.01 0.0206693,0 0.0372071,-0.0165 0.0372071,-0.0372 0,-0.005 -0.00275,-0.0124 -0.00551,-0.0179 l -0.041341,-0.0965 c -0.009645,-0.0193 -0.0303177,-0.0317 -0.0523656,-0.0317 -0.0330729,0 -0.0606337,0.0262 -0.0606337,0.0593 0,0.0152 0.00689,0.0303 0.0165346,0.04 z m 0.13780388,0.0179 c 0.00275,0.008 0.00551,0.0179 0.00551,0.0262 0,0.0386 -0.031694,0.0689 -0.068902,0.0689 -0.013779,0 -0.027562,-0.004 -0.038585,-0.011 L 0.83870959,294.6813 c -0.0179141,-0.022 -0.0289384,-0.0482 -0.0289384,-0.0785 0,-0.0675 0.0537436,-0.12126 0.12126738,-0.12126 0.0496094,0 0.0923286,0.0303 0.11024303,0.0744 z m 0,0"
       style="fill:#211e1e;fill-opacity:1;fill-rule:nonzero;stroke:none;stroke-width:0.35277775" />
    <path
       inkscape:connector-curvature="0"
       id="path4383"
       d="m 1.6379742,294.85629 c 0.020669,0 0.037207,0.0165 0.037207,0.0372 v 0.0565 c 0,0.0193 -0.016535,0.0358 -0.037207,0.0358 l -0.033073,-0.001 c 0.039963,0.0262 0.07028,0.0703 0.07028,0.12127 v 1.23334 c 0,0.0648 -0.050987,0.11438 -0.1143769,0.11438 H 0.90623579 c -0.0633899,0 -0.11437726,-0.0496 -0.11437726,-0.11438 l 0.001376,-1.23334 c 0,-0.051 0.0289384,-0.0951 0.0689021,-0.12127 l -0.0330729,0.001 c -0.0206692,0 -0.0358292,-0.0165 -0.0358292,-0.0358 v -0.0565 c 0,-0.0207 0.0151588,-0.0372 0.0358292,-0.0372 z m 0,0"
       style="fill:#211e1e;fill-opacity:1;fill-rule:nonzero;stroke:none;stroke-width:0.35277775" />
  </g>
</svg>
