<?xml version="1.0" encoding="UTF-8" standalone="no"?>
<!-- Created with Inkscape (http://www.inkscape.org/) -->

<svg
   xmlns:dc="http://purl.org/dc/elements/1.1/"
   xmlns:cc="http://creativecommons.org/ns#"
   xmlns:rdf="http://www.w3.org/1999/02/22-rdf-syntax-ns#"
   xmlns:svg="http://www.w3.org/2000/svg"
   xmlns="http://www.w3.org/2000/svg"
   xmlns:sodipodi="http://sodipodi.sourceforge.net/DTD/sodipodi-0.dtd"
   xmlns:inkscape="http://www.inkscape.org/namespaces/inkscape"
   width="3.75mm"
   height="3.75mm"
   viewBox="0 0 3.75 3.75"
   version="1.1"
   id="svg13826"
   inkscape:version="0.92.1 r15371"
   sodipodi:docname="trash_light.svg">
  <defs
     id="defs13820" />
  <sodipodi:namedview
     id="base"
     pagecolor="#ffffff"
     bordercolor="#666666"
     borderopacity="1.0"
     inkscape:pageopacity="0.0"
     inkscape:pageshadow="2"
     inkscape:zoom="28.687777"
     inkscape:cx="7.3622402"
     inkscape:cy="6.238671"
     inkscape:document-units="mm"
     inkscape:current-layer="layer1"
     showgrid="false"
     inkscape:window-width="691"
     inkscape:window-height="712"
     inkscape:window-x="674"
     inkscape:window-y="27"
     inkscape:window-maximized="0"
     showguides="true"
     inkscape:guide-bbox="true"
     gridtolerance="10"
     guidetolerance="2">
    <inkscape:grid
       type="xygrid"
       id="grid13828" />
    <sodipodi:guide
       position="0.13043093,3.8477124"
       orientation="1,0"
       id="guide20533"
       inkscape:locked="false" />
    <sodipodi:guide
       position="1.9173346,3.6129367"
       orientation="0,1"
       id="guide20535"
       inkscape:locked="false" />
  </sodipodi:namedview>
  <metadata
     id="metadata13823">
    <rdf:RDF>
      <cc:Work
         rdf:about="">
        <dc:format>image/svg+xml</dc:format>
        <dc:type
           rdf:resource="http://purl.org/dc/dcmitype/StillImage" />
        <dc:title></dc:title>
      </cc:Work>
    </rdf:RDF>
  </metadata>
  <g
     inkscape:label="Layer 1"
     inkscape:groupmode="layer"
     id="layer1"
     transform="translate(0,-293.25)">
    <path
       inkscape:connector-curvature="0"
       id="path4685"
       d="m 3.1992912,296.87098 c 0.2301325,0 0.4161674,-0.18604 0.4161674,-0.41617 v -2.6541 c 0,-0.23014 -0.1860349,-0.41617 -0.4161674,-0.41617 H 0.54518963 c -0.23013247,0 -0.41616736,0.18603 -0.41616736,0.41617 v 2.6541 c 0,0.23013 0.18603489,0.41617 0.41616736,0.41617 z m 0,0"
       style="fill:#211e1e;fill-opacity:1;fill-rule:nonzero;stroke:none;stroke-width:0.35277775" />
    <path
       inkscape:connector-curvature="0"
       id="path4687"
       d="m 0.54518963,293.45482 c -0.1901691,0 -0.34588732,0.15572 -0.34588732,0.34589 v 2.6541 c 0,0.19017 0.15571822,0.34589 0.34588732,0.34589 H 3.1992912 c 0.1901693,0 0.3458874,-0.15572 0.3458874,-0.34589 v -2.6541 c 0,-0.19017 -0.1557181,-0.34589 -0.3458874,-0.34589 z m 0,0"
       style="fill:#ffffff;fill-opacity:1;fill-rule:nonzero;stroke:none;stroke-width:0.35277775" />
    <path
       inkscape:connector-curvature="0"
       id="path4689"
       d="m 2.7045755,294.12041 c 0.1281575,0 0.2342662,-0.10473 0.2342662,-0.23289 0,-0.12815 -0.1061087,-0.23288 -0.2342662,-0.23288 -0.1281574,0 -0.2328883,0.10473 -0.2328883,0.23288 0,0.12816 0.1047309,0.23289 0.2328883,0.23289"
       style="fill:#211e1e;fill-opacity:1;fill-rule:nonzero;stroke:none;stroke-width:0.35277775" />
    <path
       inkscape:connector-curvature="0"
       id="path4691"
       d="M 2.0637879,294.6799 H 1.7123881 c -0.1391818,0 -0.1391818,0.18328 0,0.18328 h 0.4023871 c 0.028938,0 0.059256,-0.0165 0.08406,-0.0537 l 0.2011938,-0.31832 -0.00138,1.89204 c 0,0.0717 0.059256,0.13091 0.1309138,0.13091 0.073036,0 0.1309137,-0.0593 0.1309137,-0.13091 v -1.09692 h 0.088194 v 1.09692 c 0,0.0717 0.057878,0.13091 0.1309136,0.13091 0.073036,0 0.1309137,-0.0593 0.1309137,-0.13091 v -1.89204 h 0.086816 v 0.69728 c 0,0.14056 0.183279,0.14056 0.181901,0 v -0.71106 c 0,-0.15572 -0.1198893,-0.30731 -0.3004121,-0.30731 H 2.5474818 c -0.1047312,0 -0.1956816,0.0524 -0.2494252,0.13505 z m 0,0"
       style="fill:#211e1e;fill-opacity:1;fill-rule:nonzero;stroke:none;stroke-width:0.35277775" />
    <path
       inkscape:connector-curvature="0"
       id="path4693"
       d="m 0.66232313,295.85123 c 0.21083973,0 0.38033817,0.1695 0.38033817,0.38034 l -0.00413,0.25907 H 1.487772 l 0.4037651,-1.14377 0.00275,-0.38723 -1.36012376,0.001 v 0.88883 z m 0,0"
       style="fill:#211e1e;fill-opacity:1;fill-rule:nonzero;stroke:none;stroke-width:0.35277775" />
    <path
       inkscape:connector-curvature="0"
       id="path4695"
       d="m 0.65818891,296.35559 c 0.0675238,0 0.12402325,-0.0551 0.12402325,-0.12402 0,-0.0689 -0.056499,-0.12541 -0.12402325,-0.12541 -0.0689021,0 -0.12540155,0.0565 -0.12540155,0.12541 0,0.0689 0.0564995,0.12402 0.12540155,0.12402 m -0.28801023,-0.12402 c 0,-0.15848 0.12953577,-0.28801 0.28801023,-0.28801 0.15709615,0 0.28663195,0.12953 0.28663195,0.28801 0,0.15847 -0.1295358,0.28801 -0.28663195,0.28801 -0.15847446,0 -0.28801023,-0.12954 -0.28801023,-0.28801"
       style="fill:#211e1e;fill-opacity:1;fill-rule:nonzero;stroke:none;stroke-width:0.35277775" />
    <path
       inkscape:connector-curvature="0"
       id="path4697"
       d="m 1.6434863,294.37397 -0.053743,0.0262 -0.026183,-0.0524 -0.052365,0.0248 -0.024804,-0.0524 -0.053744,0.0248 -0.026183,-0.0524 h 0.00138 l -0.053744,0.0262 -0.026183,-0.0537 -0.052365,0.0262 -0.026183,-0.0551 -0.1612303,0.46027 c -0.012404,0.0372 0.00689,0.0785 0.044097,0.0909 l 0.2604519,0.091 c 0.037207,0.0124 0.078548,-0.008 0.09095,-0.0441 z m 0,0"
       style="fill:#211e1e;fill-opacity:1;fill-rule:nonzero;stroke:none;stroke-width:0.35277775" />
    <path
       inkscape:connector-curvature="0"
       id="path4699"
       d="m 1.4161098,293.9082 -0.075792,-0.0634 -0.88470038,1.0473 0.0771701,0.0648 z m 0,0"
       style="fill:#211e1e;fill-opacity:1;fill-rule:nonzero;stroke:none;stroke-width:0.35277775" />
  </g>
</svg>
