<?xml version="1.0" encoding="UTF-8" standalone="no"?>
<!-- Created with Inkscape (http://www.inkscape.org/) -->

<svg
   xmlns:dc="http://purl.org/dc/elements/1.1/"
   xmlns:cc="http://creativecommons.org/ns#"
   xmlns:rdf="http://www.w3.org/1999/02/22-rdf-syntax-ns#"
   xmlns:svg="http://www.w3.org/2000/svg"
   xmlns="http://www.w3.org/2000/svg"
   xmlns:sodipodi="http://sodipodi.sourceforge.net/DTD/sodipodi-0.dtd"
   xmlns:inkscape="http://www.inkscape.org/namespaces/inkscape"
   width="3.75mm"
   height="3.75mm"
   viewBox="0 0 3.75 3.75"
   version="1.1"
   id="svg13826"
   inkscape:version="0.92.1 r15371"
   sodipodi:docname="bottles_dark.svg">
  <defs
     id="defs13820" />
  <sodipodi:namedview
     id="base"
     pagecolor="#ffffff"
     bordercolor="#666666"
     borderopacity="1.0"
     inkscape:pageopacity="0.0"
     inkscape:pageshadow="2"
     inkscape:zoom="28.687777"
     inkscape:cx="6.2597362"
     inkscape:cy="6.238671"
     inkscape:document-units="mm"
     inkscape:current-layer="layer1"
     showgrid="false"
     inkscape:window-width="691"
     inkscape:window-height="712"
     inkscape:window-x="674"
     inkscape:window-y="27"
     inkscape:window-maximized="0"
     showguides="true"
     inkscape:guide-bbox="true"
     gridtolerance="10"
     guidetolerance="2">
    <inkscape:grid
       type="xygrid"
       id="grid13828" />
    <sodipodi:guide
       position="0.13043093,3.8477124"
       orientation="1,0"
       id="guide20533"
       inkscape:locked="false" />
    <sodipodi:guide
       position="1.9173346,3.6129367"
       orientation="0,1"
       id="guide20535"
       inkscape:locked="false" />
  </sodipodi:namedview>
  <metadata
     id="metadata13823">
    <rdf:RDF>
      <cc:Work
         rdf:about="">
        <dc:format>image/svg+xml</dc:format>
        <dc:type
           rdf:resource="http://purl.org/dc/dcmitype/StillImage" />
        <dc:title></dc:title>
      </cc:Work>
    </rdf:RDF>
  </metadata>
  <g
     inkscape:label="Layer 1"
     inkscape:groupmode="layer"
     id="layer1"
     transform="translate(0,-293.25)">
    <path
       inkscape:connector-curvature="0"
       id="path1593"
       d="m 0.53458857,293.45735 c -0.1901691,0 -0.34588768,0.15571 -0.34588768,0.34589 v 2.65547 c 0,0.19155 0.15571858,0.34589 0.34588768,0.34589 H 3.1900681 c 0.1915475,0 0.3472656,-0.15434 0.3472656,-0.34589 v -2.65547 c 0,-0.19018 -0.1557181,-0.34589 -0.3472656,-0.34589 z m 0,0"
       style="fill:#ffffff;fill-opacity:1;fill-rule:nonzero;stroke:none;stroke-width:0.35277775" />
    <path
       inkscape:connector-curvature="0"
       id="path1595"
       d="m 3.0205694,296.36501 c 0,0.0524 -0.044097,0.0937 -0.097841,0.0937 H 2.1992587 c -0.055122,0 -0.097841,-0.0413 -0.097841,-0.0937 v -1.36839 c 0,-0.0551 0.00827,-0.11163 0.027559,-0.16261 l 0.3004125,-0.77171 c -0.024804,-0.003 -0.042719,-0.0234 -0.042719,-0.0468 0,-0.0165 0.00964,-0.0331 0.024804,-0.0413 -0.015159,-0.008 -0.024804,-0.0234 -0.024804,-0.0413 0,-0.0262 0.022049,-0.0455 0.049609,-0.0455 h 0.2480469 c 0.027563,0 0.049609,0.0193 0.049609,0.0455 0,0.0193 -0.011024,0.0345 -0.026183,0.0413 0.015159,0.008 0.026183,0.0234 0.026183,0.0413 0,0.0234 -0.017914,0.0441 -0.042719,0.0468 l 0.3004124,0.77171 c 0.019293,0.051 0.028938,0.10748 0.028938,0.16261 z m -1.373904,0.0248 c 0,0.0427 -0.035829,0.0758 -0.079926,0.0758 H 0.78263542 c -0.0427193,0 -0.0785481,-0.0331 -0.0785481,-0.0758 v -1.36701 c 0,-0.17915 0.12953575,-0.32935 0.30454638,-0.36931 v -0.61185 h 0.3334854 v 0.61185 c 0.1736326,0.0413 0.3045463,0.19154 0.3045463,0.36931 z m -0.6380317,-2.61828 h 0.3334854 v 0.13229 H 1.0086337 Z m 2.1814344,-0.38447 H 0.53458857 c -0.22875417,0 -0.41616736,0.18603 -0.41616736,0.41617 v 2.65548 c 0,0.23013 0.18741319,0.41754 0.41616736,0.41754 H 3.1900681 c 0.2315104,0 0.4175458,-0.18741 0.4175458,-0.41754 v -2.65548 c 0,-0.23014 -0.1860354,-0.41617 -0.4175458,-0.41617"
       style="fill:#211e1e;fill-opacity:1;fill-rule:nonzero;stroke:none;stroke-width:0.35277775" />
  </g>
</svg>
