<?xml version="1.0" encoding="UTF-8" standalone="no"?>
<!-- Created with Inkscape (http://www.inkscape.org/) -->

<svg
   xmlns:dc="http://purl.org/dc/elements/1.1/"
   xmlns:cc="http://creativecommons.org/ns#"
   xmlns:rdf="http://www.w3.org/1999/02/22-rdf-syntax-ns#"
   xmlns:svg="http://www.w3.org/2000/svg"
   xmlns="http://www.w3.org/2000/svg"
   xmlns:sodipodi="http://sodipodi.sourceforge.net/DTD/sodipodi-0.dtd"
   xmlns:inkscape="http://www.inkscape.org/namespaces/inkscape"
   width="3.75mm"
   height="3.75mm"
   viewBox="0 0 3.75 3.75"
   version="1.1"
   id="svg13826"
   inkscape:version="0.92.1 r15371"
   sodipodi:docname="dump_station_light.svg">
  <defs
     id="defs13820" />
  <sodipodi:namedview
     id="base"
     pagecolor="#ffffff"
     bordercolor="#666666"
     borderopacity="1.0"
     inkscape:pageopacity="0.0"
     inkscape:pageshadow="2"
     inkscape:zoom="28.687777"
     inkscape:cx="7.3622402"
     inkscape:cy="6.238671"
     inkscape:document-units="mm"
     inkscape:current-layer="layer1"
     showgrid="false"
     inkscape:window-width="691"
     inkscape:window-height="712"
     inkscape:window-x="674"
     inkscape:window-y="27"
     inkscape:window-maximized="0"
     showguides="true"
     inkscape:guide-bbox="true"
     gridtolerance="10"
     guidetolerance="2">
    <inkscape:grid
       type="xygrid"
       id="grid13828" />
    <sodipodi:guide
       position="0.13043093,3.8477124"
       orientation="1,0"
       id="guide20533"
       inkscape:locked="false" />
    <sodipodi:guide
       position="1.9173346,3.6129367"
       orientation="0,1"
       id="guide20535"
       inkscape:locked="false" />
  </sodipodi:namedview>
  <metadata
     id="metadata13823">
    <rdf:RDF>
      <cc:Work
         rdf:about="">
        <dc:format>image/svg+xml</dc:format>
        <dc:type
           rdf:resource="http://purl.org/dc/dcmitype/StillImage" />
        <dc:title></dc:title>
      </cc:Work>
    </rdf:RDF>
  </metadata>
  <g
     inkscape:label="Layer 1"
     inkscape:groupmode="layer"
     id="layer1"
     transform="translate(0,-293.25)">
    <path
       inkscape:connector-curvature="0"
       id="path6215"
       d="m 0.54518972,293.45734 c -0.19016944,0 -0.34588766,0.15572 -0.34588766,0.34589 v 2.6541 c 0,0.19017 0.15571822,0.34589 0.34588766,0.34589 H 3.199291 c 0.1901696,0 0.3445097,-0.15572 0.3445097,-0.34589 v -2.6541 c 0,-0.19017 -0.1543401,-0.34589 -0.3445097,-0.34589 z m 0,0"
       style="fill:#ffffff;fill-opacity:1;fill-rule:nonzero;stroke:none;stroke-width:0.35277775" />
    <path
       inkscape:connector-curvature="0"
       id="path6217"
       d="M 3.199291,293.38706 H 0.54518972 c -0.23013246,0 -0.4161677,0.18604 -0.4161677,0.41617 v 2.6541 c 0,0.23013 0.18603524,0.41617 0.4161677,0.41617 H 3.199291 c 0.2301325,0 0.4161679,-0.18604 0.4161679,-0.41617 v -2.6541 c 0,-0.23013 -0.1860354,-0.41617 -0.4161679,-0.41617 m 0.3445097,3.07027 c 0,0.19017 -0.1543401,0.34589 -0.3445097,0.34589 H 0.54518972 c -0.19016944,0 -0.34588766,-0.15572 -0.34588766,-0.34589 v -2.6541 c 0,-0.19017 0.15571822,-0.34589 0.34588766,-0.34589 H 3.199291 c 0.1901696,0 0.3445097,0.15572 0.3445097,0.34589 z m 0,0"
       style="fill:#211e1e;fill-opacity:1;fill-rule:nonzero;stroke:none;stroke-width:0.35277775" />
    <path
       inkscape:connector-curvature="0"
       id="path6219"
       d="m 3.3494971,296.37603 c -0.063389,0 -0.1240232,-0.0152 -0.1777667,-0.0386 -0.0565,-0.0262 -0.1185111,-0.0413 -0.1846569,-0.0413 -0.066146,0 -0.1281576,0.0152 -0.1846575,0.0413 -0.053743,0.0234 -0.1143771,0.0386 -0.1791446,0.0386 -0.06339,0 -0.1240237,-0.0152 -0.1791452,-0.0386 -0.055122,-0.0262 -0.1185111,-0.0413 -0.183279,-0.0413 -0.066146,0 -0.1281575,0.0152 -0.1846569,0.0413 -0.053744,0.0234 -0.1157556,0.0386 -0.1791452,0.0386 -0.063389,0 -0.1240236,-0.0152 -0.1791451,-0.0386 -0.055122,-0.0262 -0.1185111,-0.0413 -0.183279,-0.0413 -0.066146,0 -0.1295354,0.0152 -0.1846569,0.0413 -0.055122,0.0234 -0.1157552,0.0386 -0.1791453,0.0386 -0.063389,0 -0.1240232,-0.0152 -0.1791447,-0.0386 -0.0551216,-0.0262 -0.11851148,-0.0413 -0.18465731,-0.0413 -0.0647675,0 -0.12815745,0.0152 -0.18327897,0.0413 -0.0551215,0.0234 -0.11575521,0.0386 -0.1791448,0.0386 v -0.26872 c 0.0633896,0 0.12402325,-0.0138 0.1791448,-0.0386 0.0551215,-0.0262 0.11851145,-0.0413 0.18327897,-0.0413 0.0661458,0 0.12953576,0.0152 0.18465731,0.0413 0.0551215,0.0248 0.1157552,0.0386 0.1791447,0.0386 0.06339,0 0.1240238,-0.0138 0.1791453,-0.0386 0.055122,-0.0262 0.1185111,-0.0413 0.1846569,-0.0413 0.064768,0 0.1281575,0.0152 0.183279,0.0413 0.055122,0.0248 0.1157556,0.0386 0.1791451,0.0386 0.06339,0 0.1254016,-0.0138 0.1791452,-0.0386 0.056499,-0.0262 0.1185111,-0.0413 0.1846569,-0.0413 0.064768,0 0.1281575,0.0152 0.183279,0.0413 0.055121,0.0248 0.1157552,0.0386 0.1791452,0.0386 0.064768,0 0.1254015,-0.0138 0.1791446,-0.0386 0.0565,-0.0262 0.1185117,-0.0413 0.1846575,-0.0413 0.066146,0 0.1281573,0.0152 0.1846569,0.0413 0.053743,0.0248 0.1143773,0.0386 0.1777667,0.0386 z m 0,0"
       style="fill:#211e1e;fill-opacity:1;fill-rule:nonzero;stroke:none;stroke-width:0.35277775" />
    <path
       inkscape:connector-curvature="0"
       id="path6221"
       d="m 1.8184971,294.03198 h 0.1584744 v 0.85439 h 0.183279 c 0,0 0.057877,0.0124 0.038585,0.0772 l -0.2494252,0.30455 c 0,0 -0.016535,0.0262 -0.048231,0.0262 -0.031694,0 -0.048231,-0.0262 -0.048231,-0.0262 L 1.596633,294.96357 c -0.019293,-0.0648 0.039963,-0.0772 0.039963,-0.0772 h 0.1819011 z m 0,0"
       style="fill:#211e1e;fill-opacity:1;fill-rule:nonzero;stroke:none;stroke-width:0.35277775" />
    <path
       inkscape:connector-curvature="0"
       id="path6223"
       d="m 2.2498229,294.51292 v 0.14883 l 0.4216799,0.001 c 0.023428,0 0.042719,0.0179 0.042719,0.0413 v 0.70556 c 0,0.0441 -0.034452,0.0799 -0.078548,0.0799 H 1.1832217 c -0.044097,0 -0.079926,-0.0358 -0.079926,-0.0799 v -0.71245 c 0.00413,-0.0193 0.020669,-0.0345 0.042719,-0.0345 l 0.4065211,-0.001 v -0.14884 H 0.80839511 v 1.24713 c 0.0647675,0 0.12815744,0.0152 0.18327899,0.0413 0.0551215,0.0234 0.1157552,0.0386 0.180523,0.0386 0.06339,0 0.1240234,-0.0152 0.177767,-0.0386 0.056499,-0.0262 0.1185111,-0.0413 0.1846569,-0.0413 0.066146,0 0.1281575,0.0152 0.1846573,0.0413 0.053743,0.0234 0.1157552,0.0386 0.1791448,0.0386 0.06339,0 0.1240236,-0.0152 0.1777672,-0.0386 0.056499,-0.0262 0.119889,-0.0413 0.1846569,-0.0413 0.066146,0 0.1281575,0.0152 0.184657,0.0413 0.055121,0.0234 0.1157555,0.0386 0.1791451,0.0386 0.06339,0 0.1240236,-0.0152 0.1791452,-0.0386 0.055121,-0.0262 0.1185111,-0.0413 0.183279,-0.0413 v -1.24713 z m 0,0"
       style="fill:#211e1e;fill-opacity:1;fill-rule:nonzero;stroke:none;stroke-width:0.35277775" />
  </g>
</svg>
