<?xml version="1.0" encoding="UTF-8" standalone="no"?>
<!-- Created with Inkscape (http://www.inkscape.org/) -->

<svg
   xmlns:dc="http://purl.org/dc/elements/1.1/"
   xmlns:cc="http://creativecommons.org/ns#"
   xmlns:rdf="http://www.w3.org/1999/02/22-rdf-syntax-ns#"
   xmlns:svg="http://www.w3.org/2000/svg"
   xmlns="http://www.w3.org/2000/svg"
   xmlns:sodipodi="http://sodipodi.sourceforge.net/DTD/sodipodi-0.dtd"
   xmlns:inkscape="http://www.inkscape.org/namespaces/inkscape"
   width="3.75mm"
   height="3.75mm"
   viewBox="0 0 3.75 3.75"
   version="1.1"
   id="svg13826"
   inkscape:version="0.92.1 r15371"
   sodipodi:docname="dump_station_dark.svg">
  <defs
     id="defs13820" />
  <sodipodi:namedview
     id="base"
     pagecolor="#ffffff"
     bordercolor="#666666"
     borderopacity="1.0"
     inkscape:pageopacity="0.0"
     inkscape:pageshadow="2"
     inkscape:zoom="28.687777"
     inkscape:cx="7.3622402"
     inkscape:cy="6.238671"
     inkscape:document-units="mm"
     inkscape:current-layer="layer1"
     showgrid="false"
     inkscape:window-width="691"
     inkscape:window-height="712"
     inkscape:window-x="674"
     inkscape:window-y="27"
     inkscape:window-maximized="0"
     showguides="true"
     inkscape:guide-bbox="true"
     gridtolerance="10"
     guidetolerance="2">
    <inkscape:grid
       type="xygrid"
       id="grid13828" />
    <sodipodi:guide
       position="0.13043093,3.8477124"
       orientation="1,0"
       id="guide20533"
       inkscape:locked="false" />
    <sodipodi:guide
       position="1.9173346,3.6129367"
       orientation="0,1"
       id="guide20535"
       inkscape:locked="false" />
  </sodipodi:namedview>
  <metadata
     id="metadata13823">
    <rdf:RDF>
      <cc:Work
         rdf:about="">
        <dc:format>image/svg+xml</dc:format>
        <dc:type
           rdf:resource="http://purl.org/dc/dcmitype/StillImage" />
        <dc:title></dc:title>
      </cc:Work>
    </rdf:RDF>
  </metadata>
  <g
     inkscape:label="Layer 1"
     inkscape:groupmode="layer"
     id="layer1"
     transform="translate(0,-293.25)">
    <path
       inkscape:connector-curvature="0"
       id="path749"
       d="m 0.55441258,293.4562 c -0.19016944,0 -0.34588766,0.15434 -0.34588766,0.34451 v 2.6541 c 0,0.19155 0.15571822,0.34589 0.34588766,0.34589 H 3.2071359 c 0.1915475,0 0.3458876,-0.15434 0.3458876,-0.34589 v -2.6541 c 0,-0.19017 -0.1543401,-0.34451 -0.3458876,-0.34451 z m 0,0"
       style="fill:#ffffff;fill-opacity:1;fill-rule:nonzero;stroke:none;stroke-width:0.35277775" />
    <path
       inkscape:connector-curvature="0"
       id="path751"
       d="m 3.2071359,296.87098 c 0.2301324,0 0.4175458,-0.18604 0.4175458,-0.41617 v -2.65272 c 0,-0.23151 -0.1874134,-0.41755 -0.4175458,-0.41755 H 0.55441258 c -0.23013246,0 -0.4161677,0.18604 -0.4161677,0.41755 v 2.65272 c 0,0.23013 0.18603524,0.41617 0.4161677,0.41617 z m 0,0"
       style="fill:#211e1e;fill-opacity:1;fill-rule:nonzero;stroke:none;stroke-width:0.35277775" />
    <path
       inkscape:connector-curvature="0"
       id="path753"
       d="m 3.3587199,296.37351 c -0.063389,0 -0.1240232,-0.0138 -0.1791446,-0.0386 -0.055122,-0.0262 -0.1185117,-0.0413 -0.183279,-0.0413 -0.066146,0 -0.1295358,0.0152 -0.1846575,0.0413 -0.055121,0.0248 -0.1157551,0.0386 -0.1791446,0.0386 -0.06339,0 -0.1240237,-0.0138 -0.1791452,-0.0386 -0.0565,-0.0262 -0.1185111,-0.0413 -0.1846569,-0.0413 -0.064768,0 -0.1267796,0.0152 -0.183279,0.0413 -0.055121,0.0248 -0.1157556,0.0386 -0.1791452,0.0386 -0.063389,0 -0.1254015,-0.0138 -0.1791451,-0.0386 -0.055122,-0.0262 -0.1185111,-0.0413 -0.183279,-0.0413 -0.067524,0 -0.1295354,0.0152 -0.1860349,0.0413 -0.053744,0.0248 -0.1143772,0.0386 -0.1777672,0.0386 -0.063389,0 -0.1240232,-0.0138 -0.18052306,-0.0386 -0.0551215,-0.0262 -0.11713316,-0.0413 -0.18327899,-0.0413 -0.0661458,0 -0.12815745,0.0152 -0.18465692,0.0413 -0.0537436,0.0248 -0.11575521,0.0386 -0.17776685,0.0386 v -0.26734 c 0.0620116,0 0.12402325,-0.0152 0.17776685,-0.04 0.0564995,-0.0248 0.11851108,-0.04 0.18465692,-0.04 0.0661458,0 0.12815747,0.0152 0.18327899,0.04 0.0564998,0.0248 0.11713356,0.04 0.18052306,0.04 0.06339,0 0.1240237,-0.0152 0.1777672,-0.04 0.056499,-0.0248 0.1185111,-0.04 0.1860349,-0.04 0.064768,0 0.1281575,0.0152 0.183279,0.04 0.053744,0.0248 0.1157556,0.04 0.1791451,0.04 0.06339,0 0.1240237,-0.0152 0.1791452,-0.04 0.056499,-0.0248 0.1185111,-0.04 0.183279,-0.04 0.066146,0 0.1281574,0.0152 0.1846569,0.04 0.055121,0.0248 0.1157552,0.04 0.1791452,0.04 0.063389,0 0.1240232,-0.0152 0.1791446,-0.04 0.055122,-0.0248 0.1185117,-0.04 0.1846575,-0.04 0.064767,0 0.1281573,0.0152 0.183279,0.04 0.055121,0.0248 0.1157552,0.04 0.1791446,0.04 z m 0,0"
       style="fill:#ffffff;fill-opacity:1;fill-rule:nonzero;stroke:none;stroke-width:0.35277775" />
    <path
       inkscape:connector-curvature="0"
       id="path755"
       d="m 1.8277199,294.02946 h 0.1584744 v 0.85439 H 2.168095 c 0,0 0.059256,0.0124 0.039963,0.0772 l -0.2494252,0.30455 c 0,0 -0.017914,0.0262 -0.048231,0.0262 -0.031694,0 -0.048231,-0.0262 -0.048231,-0.0262 l -0.2563153,-0.30455 c -0.019293,-0.0648 0.039963,-0.0772 0.039963,-0.0772 h 0.1819014 z m 0,0"
       style="fill:#ffffff;fill-opacity:1;fill-rule:nonzero;stroke:none;stroke-width:0.35277775" />
    <path
       inkscape:connector-curvature="0"
       id="path757"
       d="m 2.2576678,294.5104 v 0.1502 h 0.4230578 c 0.023428,0 0.042719,0.0179 0.042719,0.0427 l -0.00138,0.70417 c 0,0.0441 -0.033073,0.0799 -0.07717,0.0799 h -1.452452 c -0.044097,0 -0.079926,-0.0358 -0.079926,-0.0799 v -0.71107 c 0.00413,-0.0207 0.020669,-0.0358 0.041341,-0.0358 H 1.561757 v -0.1502 H 0.81624176 v 1.24712 c 0.0661458,0 0.12953577,0.0152 0.18465734,0.0413 0.055122,0.0248 0.1157552,0.0386 0.1791448,0.0386 0.06339,0 0.1240236,-0.0138 0.1791451,-0.0386 0.055121,-0.0262 0.1185111,-0.0413 0.1846569,-0.0413 0.064768,0 0.1281575,0.0152 0.183279,0.0413 0.055122,0.0248 0.1157556,0.0386 0.1791452,0.0386 0.064768,0 0.1254015,-0.0138 0.1791451,-0.0386 0.056499,-0.0262 0.1198891,-0.0413 0.1846569,-0.0413 0.066146,0 0.1281575,0.0152 0.184657,0.0413 0.053743,0.0248 0.1143772,0.0386 0.1791451,0.0386 0.06339,0 0.1240236,-0.0138 0.1777667,-0.0386 0.0565,-0.0262 0.1185117,-0.0413 0.1846575,-0.0413 v -1.24712 z m 0,0"
       style="fill:#ffffff;fill-opacity:1;fill-rule:nonzero;stroke:none;stroke-width:0.35277775" />
  </g>
</svg>
