<?xml version="1.0" encoding="UTF-8" standalone="no"?>
<!-- Created with Inkscape (http://www.inkscape.org/) -->

<svg
   xmlns:dc="http://purl.org/dc/elements/1.1/"
   xmlns:cc="http://creativecommons.org/ns#"
   xmlns:rdf="http://www.w3.org/1999/02/22-rdf-syntax-ns#"
   xmlns:svg="http://www.w3.org/2000/svg"
   xmlns="http://www.w3.org/2000/svg"
   xmlns:sodipodi="http://sodipodi.sourceforge.net/DTD/sodipodi-0.dtd"
   xmlns:inkscape="http://www.inkscape.org/namespaces/inkscape"
   width="3.75mm"
   height="3.75mm"
   viewBox="0 0 3.75 3.75"
   version="1.1"
   id="svg13826"
   inkscape:version="0.92.1 r15371"
   sodipodi:docname="recycling_light.svg">
  <defs
     id="defs13820" />
  <sodipodi:namedview
     id="base"
     pagecolor="#ffffff"
     bordercolor="#666666"
     borderopacity="1.0"
     inkscape:pageopacity="0.0"
     inkscape:pageshadow="2"
     inkscape:zoom="28.687777"
     inkscape:cx="7.3622402"
     inkscape:cy="6.238671"
     inkscape:document-units="mm"
     inkscape:current-layer="layer1"
     showgrid="false"
     inkscape:window-width="691"
     inkscape:window-height="712"
     inkscape:window-x="674"
     inkscape:window-y="27"
     inkscape:window-maximized="0"
     showguides="true"
     inkscape:guide-bbox="true"
     gridtolerance="10"
     guidetolerance="2">
    <inkscape:grid
       type="xygrid"
       id="grid13828" />
    <sodipodi:guide
       position="0.13043093,3.8477124"
       orientation="1,0"
       id="guide20533"
       inkscape:locked="false" />
    <sodipodi:guide
       position="1.9173346,3.6129367"
       orientation="0,1"
       id="guide20535"
       inkscape:locked="false" />
  </sodipodi:namedview>
  <metadata
     id="metadata13823">
    <rdf:RDF>
      <cc:Work
         rdf:about="">
        <dc:format>image/svg+xml</dc:format>
        <dc:type
           rdf:resource="http://purl.org/dc/dcmitype/StillImage" />
        <dc:title></dc:title>
      </cc:Work>
    </rdf:RDF>
  </metadata>
  <g
     inkscape:label="Layer 1"
     inkscape:groupmode="layer"
     id="layer1"
     transform="translate(0,-293.25)">
    <path
       inkscape:connector-curvature="0"
       id="path12897"
       d="m 3.199291,296.86245 c 0.2301324,0 0.4161676,-0.18604 0.4161676,-0.41755 v -2.65273 c 0,-0.23013 -0.1860352,-0.41754 -0.4161676,-0.41754 H 0.54518964 c -0.23013247,0 -0.41616736,0.18741 -0.41616736,0.41754 v 2.65273 c 0,0.23151 0.18603489,0.41755 0.41616736,0.41755 z m 0,0"
       style="fill:#211e1e;fill-opacity:1;fill-rule:nonzero;stroke:none;stroke-width:0.35277775" />
    <path
       inkscape:connector-curvature="0"
       id="path12899"
       d="m 0.54518964,293.44491 c -0.19016946,0 -0.34588768,0.15572 -0.34588768,0.34726 v 2.65273 c 0,0.19155 0.15571822,0.34589 0.34588768,0.34589 H 3.199291 c 0.1901695,0 0.3458876,-0.15434 0.3458876,-0.34589 v -2.65273 c 0,-0.19154 -0.1557181,-0.34726 -0.3458876,-0.34726 z m 0,0"
       style="fill:#ffffff;fill-opacity:1;fill-rule:nonzero;stroke:none;stroke-width:0.35277775" />
    <path
       inkscape:connector-curvature="0"
       id="path12901"
       d="m 0.48455595,294.91252 0.20946182,0.12127 0.055122,0.0331 -0.16260871,0.28112 c -0.0151588,0.0262 -0.0220485,0.0538 -0.0220485,0.0813 0,0.0276 0.00689,0.0551 0.0206692,0.0799 0,0 0.14331591,0.24805 0.25907111,0.44924 0.00827,-0.0289 0.019293,-0.0551 0.034452,-0.0827 l 0.31832663,-0.55121 0.055122,0.0317 0.2094618,0.12127 -0.325217,-0.56362 z m 0,0"
       style="fill:#211e1e;fill-opacity:1;fill-rule:nonzero;stroke:none;stroke-width:0.35277775" />
    <path
       inkscape:connector-curvature="0"
       id="path12903"
       d="m 1.1074292,295.70213 c -0.028938,0.0496 -0.13229163,0.22876 -0.13229163,0.22876 -0.017914,0.0303 -0.026183,0.0634 -0.026183,0.0978 0,0.0344 0.00827,0.0661 0.026183,0.0965 0.034452,0.0593 0.097841,0.0965 0.16812083,0.0965 h 0.6435435 v -0.51953 z m 0,0"
       style="fill:#211e1e;fill-opacity:1;fill-rule:nonzero;stroke:none;stroke-width:0.35277775" />
    <path
       inkscape:connector-curvature="0"
       id="path12905"
       d="m 2.8203306,294.08019 -0.2094617,0.12126 -0.055121,0.0331 -0.1626087,-0.28388 c -0.013779,-0.0248 -0.034452,-0.0455 -0.059255,-0.0593 -0.024804,-0.0152 -0.052366,-0.022 -0.079926,-0.022 H 1.7358146 c 0.019293,0.022 0.038585,0.0441 0.052365,0.0717 l 0.3197048,0.54983 -0.055121,0.0331 -0.2094618,0.12127 h 0.650434 z m 0,0"
       style="fill:#211e1e;fill-opacity:1;fill-rule:nonzero;stroke:none;stroke-width:0.35277775" />
    <path
       inkscape:connector-curvature="0"
       id="path12907"
       d="m 1.825387,294.22488 c -0.028938,-0.0496 -0.1322916,-0.22738 -0.1322916,-0.22738 -0.016535,-0.0303 -0.041341,-0.0565 -0.071658,-0.073 -0.028938,-0.0165 -0.060634,-0.0262 -0.095085,-0.0262 -0.068902,0 -0.1336696,0.0386 -0.1667425,0.0992 0,0 -0.2714734,0.46853 -0.3224611,0.55673 0.079926,0.0455 0.3679363,0.21221 0.4492406,0.25769 0.048231,-0.0827 0.3086805,-0.53606 0.3389972,-0.58705"
       style="fill:#211e1e;fill-opacity:1;fill-rule:nonzero;stroke:none;stroke-width:0.35277775" />
    <path
       inkscape:connector-curvature="0"
       id="path12909"
       d="m 2.3600658,296.51793 v -0.30454 l 0.325217,10e-4 c 0.028938,0 0.057878,-0.008 0.082682,-0.0234 0.023428,-0.0138 0.044097,-0.0331 0.057878,-0.0579 0,0 0.1446937,-0.24805 0.259071,-0.44786 -0.027563,0.006 -0.056499,0.011 -0.086816,0.011 l -0.6380318,-0.001 v -0.0634 l 0.00138,-0.24116 -0.326595,0.56362 z m 0,0"
       style="fill:#211e1e;fill-opacity:1;fill-rule:nonzero;stroke:none;stroke-width:0.35277775" />
    <path
       inkscape:connector-curvature="0"
       id="path12911"
       d="m 2.7321363,295.585 h 0.2632054 c 0.035829,0 0.07028,-0.008 0.099219,-0.0262 0.028938,-0.0165 0.052365,-0.04 0.07028,-0.0703 0.034452,-0.0593 0.033073,-0.13367 -0.00138,-0.19293 0,0 -0.2700954,-0.46991 -0.3210828,-0.5581 -0.079926,0.0469 -0.3693143,0.21221 -0.4492406,0.25907 0.048231,0.0841 0.3100584,0.53743 0.3389975,0.58842"
       style="fill:#211e1e;fill-opacity:1;fill-rule:nonzero;stroke:none;stroke-width:0.35277775" />
  </g>
</svg>
