<?xml version="1.0" encoding="UTF-8" standalone="no"?>
<!-- Created with Inkscape (http://www.inkscape.org/) -->

<svg
   xmlns:dc="http://purl.org/dc/elements/1.1/"
   xmlns:cc="http://creativecommons.org/ns#"
   xmlns:rdf="http://www.w3.org/1999/02/22-rdf-syntax-ns#"
   xmlns:svg="http://www.w3.org/2000/svg"
   xmlns="http://www.w3.org/2000/svg"
   xmlns:sodipodi="http://sodipodi.sourceforge.net/DTD/sodipodi-0.dtd"
   xmlns:inkscape="http://www.inkscape.org/namespaces/inkscape"
   width="3.75mm"
   height="3.75mm"
   viewBox="0 0 3.75 3.75"
   version="1.1"
   id="svg13826"
   inkscape:version="0.92.1 r15371"
   sodipodi:docname="sanitary_light.svg">
  <defs
     id="defs13820" />
  <sodipodi:namedview
     id="base"
     pagecolor="#ffffff"
     bordercolor="#666666"
     borderopacity="1.0"
     inkscape:pageopacity="0.0"
     inkscape:pageshadow="2"
     inkscape:zoom="28.687777"
     inkscape:cx="7.3622402"
     inkscape:cy="6.238671"
     inkscape:document-units="mm"
     inkscape:current-layer="layer1"
     showgrid="false"
     inkscape:window-width="691"
     inkscape:window-height="712"
     inkscape:window-x="674"
     inkscape:window-y="27"
     inkscape:window-maximized="0"
     showguides="true"
     inkscape:guide-bbox="true"
     gridtolerance="10"
     guidetolerance="2">
    <inkscape:grid
       type="xygrid"
       id="grid13828" />
    <sodipodi:guide
       position="0.13043093,3.8477124"
       orientation="1,0"
       id="guide20533"
       inkscape:locked="false" />
    <sodipodi:guide
       position="1.9173346,3.6129367"
       orientation="0,1"
       id="guide20535"
       inkscape:locked="false" />
  </sodipodi:namedview>
  <metadata
     id="metadata13823">
    <rdf:RDF>
      <cc:Work
         rdf:about="">
        <dc:format>image/svg+xml</dc:format>
        <dc:type
           rdf:resource="http://purl.org/dc/dcmitype/StillImage" />
        <dc:title></dc:title>
      </cc:Work>
    </rdf:RDF>
  </metadata>
  <g
     inkscape:label="Layer 1"
     inkscape:groupmode="layer"
     id="layer1"
     transform="translate(0,-293.25)">
    <path
       inkscape:connector-curvature="0"
       id="path12989"
       d="m 3.1808455,296.87098 c 0.2301325,0 0.4161674,-0.18604 0.4161674,-0.41617 v -2.65273 c 0,-0.23013 -0.1860349,-0.41754 -0.4161674,-0.41754 H 0.52812187 c -0.23013212,0 -0.41754531,0.18741 -0.41754531,0.41754 v 2.65273 c 0,0.23013 0.18741319,0.41617 0.41754531,0.41617 z m 0,0"
       style="fill:#211e1e;fill-opacity:1;fill-rule:nonzero;stroke:none;stroke-width:0.35277775" />
    <path
       inkscape:connector-curvature="0"
       id="path12991"
       d="m 0.52812187,293.45482 c -0.19154705,0 -0.34726527,0.15572 -0.34726527,0.34726 v 2.65273 c 0,0.19017 0.15571822,0.34589 0.34726527,0.34589 H 3.1808455 c 0.1901693,0 0.3458874,-0.15572 0.3458874,-0.34589 v -2.65273 c 0,-0.19154 -0.1557181,-0.34726 -0.3458874,-0.34726 z m 0,0"
       style="fill:#ffffff;fill-opacity:1;fill-rule:nonzero;stroke:none;stroke-width:0.35277775" />
    <path
       inkscape:connector-curvature="0"
       id="path12993"
       d="M 1.532712,295.18012 H 1.0490205 c -0.18052313,0 -0.32659501,-0.14607 -0.32659501,-0.32659 l -0.001376,-0.57051 c 0,-0.24391 0.1984375,-0.44235 0.44372811,-0.44235 h 1.5048177 c 0.2452909,0 0.4423501,0.19844 0.4423501,0.44235 l 0.00138,0.80478 h 0.1681205 c 0.049609,0 0.089572,0.0413 0.089572,0.0923 H 2.3002791 c -0.011024,-0.18328 -0.1970595,-0.32935 -0.3830947,-0.32935 -0.1874132,0 -0.3720702,0.14607 -0.3844724,0.32935 m 1.2168078,-0.72484 c 0.050987,0 0.09095,-0.0414 0.09095,-0.0923 v -0.15159 c 0,-0.051 -0.039963,-0.091 -0.09095,-0.091 H 2.4311929 c -0.049609,0 -0.090951,0.04 -0.090951,0.091 v 0.15159 c 0,0.051 0.041341,0.0923 0.090951,0.0923 z m -0.9081273,0 c 0.050987,0 0.09095,-0.0414 0.09095,-0.0923 v -0.15159 c 0,-0.051 -0.039963,-0.091 -0.09095,-0.091 H 1.1537514 c -0.050987,0 -0.092329,0.04 -0.092329,0.091 v 0.15159 c 0,0.051 0.041341,0.0923 0.092329,0.0923 z m 0,0"
       style="fill:#211e1e;fill-opacity:1;fill-rule:nonzero;stroke:none;stroke-width:0.35277775" />
    <path
       inkscape:connector-curvature="0"
       id="path12995"
       d="m 3.373771,295.48605 -0.00138,0.88332 c 0,0.0648 -0.052365,0.11713 -0.1171331,0.11713 H 0.4619785 c -0.0661458,0 -0.11713316,-0.0524 -0.11713316,-0.11713 v -0.88057 h 0.61598315 v 0.14883 H 0.54328284 c -0.0206692,0 -0.0372071,0.0152 -0.041341,0.0358 v 0.58567 c 0,0.0455 0.0358288,0.0799 0.079926,0.0799 H 1.8124563 c 0.044097,0 0.078548,-0.0345 0.078548,-0.0799 v -0.57878 c 0,-0.0234 -0.019294,-0.0427 -0.042719,-0.0427 h -0.464399 v -0.15158 h 0.4864474 c -0.112999,-0.0248 -0.1984375,-0.1254 -0.1984375,-0.24529 0,-0.13918 0.112999,-0.25218 0.2521811,-0.25218 0.1391817,0 0.252181,0.113 0.252181,0.25218 0,0.11989 -0.085438,0.22048 -0.1984374,0.24529 z m -1.4496962,-0.13643 c 0.060634,0 0.1102431,-0.0496 0.1102431,-0.10886 0,-0.0606 -0.049609,-0.11025 -0.1102431,-0.11025 -0.060634,0 -0.1088651,0.0496 -0.1088651,0.11025 0,0.0593 0.048231,0.10886 0.1088651,0.10886"
       style="fill:#211e1e;fill-opacity:1;fill-rule:nonzero;stroke:none;stroke-width:0.35277775" />
    <path
       inkscape:connector-curvature="0"
       id="path12997"
       d="m 1.1193005,295.31517 h 0.1061089 v 0.57051 h 0.1212673 c 0,0 0.038585,0.008 0.026183,0.051 l -0.1667425,0.20257 c 0,0 -0.011024,0.0179 -0.031694,0.0179 -0.020669,0 -0.033073,-0.0179 -0.033073,-0.0179 l -0.16949881,-0.20257 c -0.0137795,-0.0427 0.0261832,-0.051 0.0261832,-0.051 H 1.1193026 Z m 0,0"
       style="fill:#211e1e;fill-opacity:1;fill-rule:nonzero;stroke:none;stroke-width:0.35277775" />
  </g>
</svg>
