<?xml version="1.0" encoding="UTF-8" standalone="no"?>
<!-- Created with Inkscape (http://www.inkscape.org/) -->

<svg
   xmlns:dc="http://purl.org/dc/elements/1.1/"
   xmlns:cc="http://creativecommons.org/ns#"
   xmlns:rdf="http://www.w3.org/1999/02/22-rdf-syntax-ns#"
   xmlns:svg="http://www.w3.org/2000/svg"
   xmlns="http://www.w3.org/2000/svg"
   xmlns:sodipodi="http://sodipodi.sourceforge.net/DTD/sodipodi-0.dtd"
   xmlns:inkscape="http://www.inkscape.org/namespaces/inkscape"
   width="3.75mm"
   height="3.75mm"
   viewBox="0 0 3.75 3.75"
   version="1.1"
   id="svg13826"
   inkscape:version="0.92.1 r15371"
   sodipodi:docname="emergency_light.svg">
  <defs
     id="defs13820" />
  <sodipodi:namedview
     id="base"
     pagecolor="#ffffff"
     bordercolor="#666666"
     borderopacity="1.0"
     inkscape:pageopacity="0.0"
     inkscape:pageshadow="2"
     inkscape:zoom="20.285322"
     inkscape:cx="7.2558826"
     inkscape:cy="7.3529464"
     inkscape:document-units="mm"
     inkscape:current-layer="layer1"
     showgrid="false"
     inkscape:window-width="673"
     inkscape:window-height="660"
     inkscape:window-x="685"
     inkscape:window-y="33"
     inkscape:window-maximized="0"
     showguides="true"
     inkscape:guide-bbox="true"
     gridtolerance="10"
     guidetolerance="2">
    <inkscape:grid
       type="xygrid"
       id="grid13828" />
    <sodipodi:guide
       position="0.13043093,3.8477124"
       orientation="1,0"
       id="guide20533"
       inkscape:locked="false" />
    <sodipodi:guide
       position="1.9173346,3.6129367"
       orientation="0,1"
       id="guide20535"
       inkscape:locked="false" />
  </sodipodi:namedview>
  <metadata
     id="metadata13823">
    <rdf:RDF>
      <cc:Work
         rdf:about="">
        <dc:format>image/svg+xml</dc:format>
        <dc:type
           rdf:resource="http://purl.org/dc/dcmitype/StillImage" />
        <dc:title></dc:title>
      </cc:Work>
    </rdf:RDF>
  </metadata>
  <g
     inkscape:label="Layer 1"
     inkscape:groupmode="layer"
     id="layer1"
     transform="translate(0,-293.25)">
    <path
       inkscape:connector-curvature="0"
       id="path1485"
       d="m 3.1922117,296.86639 c 0.2301346,0 0.4175477,-0.18603 0.4175477,-0.41617 v -2.65548 c 0,-0.23013 -0.1874131,-0.41754 -0.4175477,-0.41754 H 0.53673351 c -0.23013459,0 -0.41616842,0.18741 -0.41616842,0.41754 v 2.65548 c 0,0.23014 0.18603383,0.41617 0.41616842,0.41617 z m 0,0"
       style="fill:#211e1e;fill-opacity:1;fill-rule:nonzero;stroke:none;stroke-width:0.35277775" />
    <path
       inkscape:connector-curvature="0"
       id="path1487"
       d="m 0.53673351,293.44886 c -0.1901684,0 -0.34588803,0.15434 -0.34588803,0.34588 v 2.65548 c 0,0.19017 0.15571963,0.34589 0.34588803,0.34589 H 3.1922117 c 0.1915478,0 0.3458879,-0.15572 0.3458879,-0.34589 v -2.65548 c 0,-0.19154 -0.1543401,-0.34588 -0.3458879,-0.34588 z m 0,0"
       style="fill:#ffffff;fill-opacity:1;fill-rule:nonzero;stroke:none;stroke-width:0.35277775" />
    <path
       inkscape:connector-curvature="0"
       id="path1489"
       d="m 1.0714105,294.95505 c 0,-0.11575 -0.048232,-0.21773 -0.17087494,-0.21773 -0.1143776,0 -0.16123002,0.11024 -0.16123002,0.21911 0,0.11989 0.0496076,0.23151 0.16674042,0.23151 0.11989154,0 0.16536454,-0.10887 0.16536454,-0.23289 m -0.48506939,0.62701 c 0.06477,0.0289 0.13229167,0.0496 0.2149757,0.0496 0.21221699,0 0.28525259,-0.19706 0.29214229,-0.38034 l -0.00413,-0.004 c -0.057877,0.0868 -0.13366745,0.12403 -0.23702074,0.12403 -0.23288977,0 -0.35966752,-0.14883 -0.35966752,-0.37621 0,-0.26596 0.13091229,-0.44097 0.40789929,-0.44097 0.34175347,0 0.41754427,0.2825 0.41754427,0.57189 0,0.33348 -0.1074879,0.70004 -0.50436287,0.70004 -0.0909496,0 -0.17500952,-0.0152 -0.25906942,-0.0441 z m 0,0"
       style="fill:#211e1e;fill-opacity:1;fill-rule:nonzero;stroke:none;stroke-width:0.35277775" />
    <path
       inkscape:connector-curvature="0"
       id="path1491"
       d="m 1.9175269,294.57471 h 0.2191067 v 1.22921 H 1.8899679 v -0.94946 l -0.208086,0.16949 -0.1240226,-0.15985 z m 0,0"
       style="fill:#211e1e;fill-opacity:1;fill-rule:nonzero;stroke:none;stroke-width:0.35277775" />
    <path
       inkscape:connector-curvature="0"
       id="path1493"
       d="m 2.9221179,294.57471 h 0.2191067 v 1.22921 H 2.8945555 v -0.94946 L 2.686473,295.02395 2.5624505,294.8641 Z m 0,0"
       style="fill:#211e1e;fill-opacity:1;fill-rule:nonzero;stroke:none;stroke-width:0.35277775" />
  </g>
</svg>
