<?xml version="1.0" encoding="UTF-8" standalone="no"?>
<!-- Created with Inkscape (http://www.inkscape.org/) -->

<svg
   xmlns:dc="http://purl.org/dc/elements/1.1/"
   xmlns:cc="http://creativecommons.org/ns#"
   xmlns:rdf="http://www.w3.org/1999/02/22-rdf-syntax-ns#"
   xmlns:svg="http://www.w3.org/2000/svg"
   xmlns="http://www.w3.org/2000/svg"
   xmlns:sodipodi="http://sodipodi.sourceforge.net/DTD/sodipodi-0.dtd"
   xmlns:inkscape="http://www.inkscape.org/namespaces/inkscape"
   width="3.75mm"
   height="3.75mm"
   viewBox="0 0 3.75 3.75"
   version="1.1"
   id="svg13826"
   inkscape:version="0.92.1 r15371"
   sodipodi:docname="handrail_dark.svg">
  <defs
     id="defs13820" />
  <sodipodi:namedview
     id="base"
     pagecolor="#ffffff"
     bordercolor="#666666"
     borderopacity="1.0"
     inkscape:pageopacity="0.0"
     inkscape:pageshadow="2"
     inkscape:zoom="20.285322"
     inkscape:cx="9.5583531"
     inkscape:cy="6.6839079"
     inkscape:document-units="mm"
     inkscape:current-layer="layer1"
     showgrid="false"
     inkscape:window-width="673"
     inkscape:window-height="660"
     inkscape:window-x="685"
     inkscape:window-y="33"
     inkscape:window-maximized="0"
     showguides="true"
     inkscape:guide-bbox="true"
     gridtolerance="10"
     guidetolerance="2">
    <inkscape:grid
       type="xygrid"
       id="grid13828" />
    <sodipodi:guide
       position="0.13043093,3.8477124"
       orientation="1,0"
       id="guide20533"
       inkscape:locked="false" />
    <sodipodi:guide
       position="1.9173346,3.6129367"
       orientation="0,1"
       id="guide20535"
       inkscape:locked="false" />
  </sodipodi:namedview>
  <metadata
     id="metadata13823">
    <rdf:RDF>
      <cc:Work
         rdf:about="">
        <dc:format>image/svg+xml</dc:format>
        <dc:type
           rdf:resource="http://purl.org/dc/dcmitype/StillImage" />
        <dc:title></dc:title>
      </cc:Work>
    </rdf:RDF>
  </metadata>
  <g
     inkscape:label="Layer 1"
     inkscape:groupmode="layer"
     id="layer1"
     transform="translate(0,-293.25)">
    <path
       inkscape:connector-curvature="0"
       id="path1401"
       d="m 0.56281969,293.45734 c -0.1901684,0 -0.34588803,0.15572 -0.34588803,0.34589 v 2.65548 c 0,0.19154 0.15571963,0.34588 0.34588803,0.34588 H 3.2183012 c 0.1901685,0 0.3458845,-0.15434 0.3458845,-0.34588 v -2.65548 c 0,-0.19017 -0.155716,-0.34589 -0.3458845,-0.34589 z m 0,0"
       style="fill:#ffffff;fill-opacity:1;fill-rule:nonzero;stroke:none;stroke-width:0.35277775" />
    <path
       inkscape:connector-curvature="0"
       id="path1403"
       d="m 1.7189958,295.36317 0.147447,0.0717 c 0.06477,0.0565 0.079929,0.11162 0.079929,0.11162 l 0.1874132,0.50298 c 0.026176,0.073 0.00963,0.13643 -0.056501,0.16399 -0.055121,0.0165 -0.1240226,0.0152 -0.16123,-0.0799 0,0.001 -0.1570955,-0.42306 -0.1570955,-0.42306 l -0.4216823,-0.19568 -0.039963,0.0166 0.07028,0.34037 c 0.00688,0.0496 -0.00963,0.10473 -0.020673,0.13229 l -0.1378056,0.36518 c -0.042718,0.10887 -0.1143775,0.16537 -0.1901683,0.13918 -0.12126732,-0.0413 -0.041342,-0.19292 -0.041342,-0.19292 l 0.12265017,-0.31971 -0.078549,-0.35691 -0.4175443,0.16536 -0.0372075,-0.0923 0.4354618,-0.17088 -0.0440972,-0.19981 0.005503,-0.53744 -0.19430294,0.23289 -0.0427178,0.34176 c -0.0110067,0.10748 -0.10886723,0.0882 -0.10886723,0.0882 -0.0881944,-0.0152 -0.0854393,-0.0951 -0.0854393,-0.0951 l 0.0399662,-0.35966 c 0.0124178,-0.0923 0.0399627,-0.11576 0.0399627,-0.11576 l 0.28249737,-0.32108 c 0.0578767,-0.0813 0.16260936,-0.073 0.16260936,-0.073 l 0.230131,0.003 c 0.1143776,0 0.1391814,0.0565 0.1391814,0.0565 l 0.2714731,0.35553 0.3059254,-0.003 c 0,0 0.08406,0.004 0.088194,0.0937 -0.0055,0.0923 -0.088194,0.0965 -0.088194,0.0965 l -0.3527778,-0.006 c -0.035828,0 -0.068901,-0.0165 -0.089574,-0.0455 l -0.1446918,-0.17915 v 0.34176 l 0.1805234,0.0882 1.6867188,-0.66835 0.037204,0.0923 z m 1.5806066,0.27147 H 2.8917033 v 0.41893 H 2.4438412 v 0.4892 H 1.8540427 v -0.15847 h 0.4313237 v -0.48921 h 0.4492413 v -0.41892 h 0.5649947 z m -2.1662741,-1.53789 c 0.097839,-0.0358 0.2094618,0.0152 0.2452899,0.11576 0.035828,0.0992 -0.015169,0.20946 -0.1143776,0.24529 -0.099219,0.0358 -0.2108376,-0.0152 -0.2452899,-0.11438 -0.0372074,-0.1006 0.013794,-0.20946 0.1143776,-0.24667 m 2.0849729,-0.70969 H 0.56281969 c -0.23013106,0 -0.41616842,0.18741 -0.41616842,0.41617 v 2.65548 c 0,0.23151 0.18603736,0.41754 0.41616842,0.41754 H 3.2183012 c 0.2301312,0 0.4175443,-0.18603 0.4175443,-0.41754 v -2.65548 c 0,-0.22876 -0.1874131,-0.41617 -0.4175443,-0.41617"
       style="fill:#211e1e;fill-opacity:1;fill-rule:nonzero;stroke:none;stroke-width:0.35277775" />
  </g>
</svg>
