<?xml version="1.0" encoding="UTF-8" standalone="no"?>
<!-- Created with Inkscape (http://www.inkscape.org/) -->

<svg
   xmlns:dc="http://purl.org/dc/elements/1.1/"
   xmlns:cc="http://creativecommons.org/ns#"
   xmlns:rdf="http://www.w3.org/1999/02/22-rdf-syntax-ns#"
   xmlns:svg="http://www.w3.org/2000/svg"
   xmlns="http://www.w3.org/2000/svg"
   xmlns:sodipodi="http://sodipodi.sourceforge.net/DTD/sodipodi-0.dtd"
   xmlns:inkscape="http://www.inkscape.org/namespaces/inkscape"
   width="3.75mm"
   height="3.75mm"
   viewBox="0 0 3.75 3.75"
   version="1.1"
   id="svg13826"
   inkscape:version="0.92.1 r15371"
   sodipodi:docname="hospital_light.svg">
  <defs
     id="defs13820" />
  <sodipodi:namedview
     id="base"
     pagecolor="#ffffff"
     bordercolor="#666666"
     borderopacity="1.0"
     inkscape:pageopacity="0.0"
     inkscape:pageshadow="2"
     inkscape:zoom="20.285322"
     inkscape:cx="9.5583531"
     inkscape:cy="6.6839079"
     inkscape:document-units="mm"
     inkscape:current-layer="layer1"
     showgrid="false"
     inkscape:window-width="673"
     inkscape:window-height="660"
     inkscape:window-x="685"
     inkscape:window-y="33"
     inkscape:window-maximized="0"
     showguides="true"
     inkscape:guide-bbox="true"
     gridtolerance="10"
     guidetolerance="2">
    <inkscape:grid
       type="xygrid"
       id="grid13828" />
    <sodipodi:guide
       position="0.13043093,3.8477124"
       orientation="1,0"
       id="guide20533"
       inkscape:locked="false" />
    <sodipodi:guide
       position="1.9173346,3.6129367"
       orientation="0,1"
       id="guide20535"
       inkscape:locked="false" />
  </sodipodi:namedview>
  <metadata
     id="metadata13823">
    <rdf:RDF>
      <cc:Work
         rdf:about="">
        <dc:format>image/svg+xml</dc:format>
        <dc:type
           rdf:resource="http://purl.org/dc/dcmitype/StillImage" />
        <dc:title></dc:title>
      </cc:Work>
    </rdf:RDF>
  </metadata>
  <g
     inkscape:label="Layer 1"
     inkscape:groupmode="layer"
     id="layer1"
     transform="translate(0,-293.25)">
    <path
       inkscape:connector-curvature="0"
       id="path12897"
       d="m 0.5607541,293.46465 c -0.19154776,0 -0.34588803,0.15572 -0.34588803,0.34588 v 2.65411 c 0,0.19154 0.15434027,0.34589 0.34588803,0.34589 h 2.6527231 c 0.1915477,0 0.3458879,-0.15435 0.3458879,-0.34589 v -2.65411 c 0,-0.19016 -0.1543402,-0.34588 -0.3458879,-0.34588 z m 0,0"
       style="fill:#ffffff;fill-opacity:1;fill-rule:nonzero;stroke:none;stroke-width:0.35277775" />
    <path
       inkscape:connector-curvature="0"
       id="path12899"
       d="m 3.2203669,296.88218 c 0.2315105,0 0.4175443,-0.18741 0.4175443,-0.41754 v -2.65962 c 0,-0.23013 -0.1860338,-0.41754 -0.4175443,-0.41754 H 0.56212993 c -0.23151042,0 -0.41754425,0.18741 -0.41754425,0.41754 v 2.65962 c 0,0.23013 0.18603383,0.41754 0.41754425,0.41754 z m 0,0"
       style="fill:#0087cf;fill-opacity:1;fill-rule:nonzero;stroke:none;stroke-width:0.35277775" />
    <path
       inkscape:connector-curvature="0"
       id="path12901"
       d="m 0.56212993,293.45776 c -0.19154423,0 -0.34726386,0.15572 -0.34726386,0.34726 v 2.65962 c 0,0.19154 0.15571963,0.34726 0.34726386,0.34726 H 3.2203669 c 0.1915478,0 0.3472673,-0.15572 0.3472673,-0.34726 v -2.65962 c 0,-0.19154 -0.1557195,-0.34726 -0.3472673,-0.34726 z m 0,0"
       style="fill:#ffffff;fill-opacity:1;fill-rule:nonzero;stroke:none;stroke-width:0.35277775" />
    <path
       inkscape:connector-curvature="0"
       id="path12903"
       d="m 2.3618504,294.04618 v 0.74139 H 1.4261603 v -0.74139 H 0.95762907 v 2.1773 H 1.4261603 v -0.96876 h 0.9356901 v 0.96876 H 2.831761 v -2.1773 z m 0,0"
       style="fill:#0087cf;fill-opacity:1;fill-rule:nonzero;stroke:none;stroke-width:0.35277775" />
  </g>
</svg>
