<?xml version="1.0" encoding="UTF-8" standalone="no"?>
<!-- Created with Inkscape (http://www.inkscape.org/) -->

<svg
   xmlns:dc="http://purl.org/dc/elements/1.1/"
   xmlns:cc="http://creativecommons.org/ns#"
   xmlns:rdf="http://www.w3.org/1999/02/22-rdf-syntax-ns#"
   xmlns:svg="http://www.w3.org/2000/svg"
   xmlns="http://www.w3.org/2000/svg"
   xmlns:sodipodi="http://sodipodi.sourceforge.net/DTD/sodipodi-0.dtd"
   xmlns:inkscape="http://www.inkscape.org/namespaces/inkscape"
   width="3.75mm"
   height="3.75mm"
   viewBox="0 0 3.75 3.75"
   version="1.1"
   id="svg13826"
   inkscape:version="0.92.1 r15371"
   sodipodi:docname="phone_light.svg">
  <defs
     id="defs13820" />
  <sodipodi:namedview
     id="base"
     pagecolor="#ffffff"
     bordercolor="#666666"
     borderopacity="1.0"
     inkscape:pageopacity="0.0"
     inkscape:pageshadow="2"
     inkscape:zoom="20.285322"
     inkscape:cx="7.2558826"
     inkscape:cy="7.3529464"
     inkscape:document-units="mm"
     inkscape:current-layer="layer1"
     showgrid="false"
     inkscape:window-width="673"
     inkscape:window-height="660"
     inkscape:window-x="685"
     inkscape:window-y="33"
     inkscape:window-maximized="0"
     showguides="true"
     inkscape:guide-bbox="true"
     gridtolerance="10"
     guidetolerance="2">
    <inkscape:grid
       type="xygrid"
       id="grid13828" />
    <sodipodi:guide
       position="0.13043093,3.8477124"
       orientation="1,0"
       id="guide20533"
       inkscape:locked="false" />
    <sodipodi:guide
       position="1.9173346,3.6129367"
       orientation="0,1"
       id="guide20535"
       inkscape:locked="false" />
  </sodipodi:namedview>
  <metadata
     id="metadata13823">
    <rdf:RDF>
      <cc:Work
         rdf:about="">
        <dc:format>image/svg+xml</dc:format>
        <dc:type
           rdf:resource="http://purl.org/dc/dcmitype/StillImage" />
        <dc:title></dc:title>
      </cc:Work>
    </rdf:RDF>
  </metadata>
  <g
     inkscape:label="Layer 1"
     inkscape:groupmode="layer"
     id="layer1"
     transform="translate(0,-293.25)">
    <path
       inkscape:connector-curvature="0"
       id="path13287"
       d="m 3.5367238,296.45733 c 0,0.19017 -0.1543402,0.34589 -0.3445086,0.34589 H 0.53811281 c -0.19154776,0 -0.34588803,-0.15572 -0.34588803,-0.34589 v -2.65411 c 0,-0.19016 0.15434027,-0.34588 0.34588803,-0.34588 H 3.1922152 c 0.1901684,0 0.3445086,0.15572 0.3445086,0.34588 z M 3.1922152,293.38706 H 0.53811281 c -0.23013459,0 -0.41616842,0.18603 -0.41616842,0.41616 v 2.65411 c 0,0.23013 0.18603383,0.41617 0.41616842,0.41617 H 3.1922152 c 0.2287516,0 0.4161649,-0.18604 0.4161649,-0.41617 v -2.65411 c 0,-0.23013 -0.1874133,-0.41616 -0.4161649,-0.41616"
       style="fill:#0087cf;fill-opacity:1;fill-rule:nonzero;stroke:none;stroke-width:0.35277775" />
    <path
       inkscape:connector-curvature="0"
       id="path13289"
       d="M 3.1922152,293.45734 H 0.53811281 c -0.19154776,0 -0.34588803,0.15572 -0.34588803,0.34588 v 2.65411 c 0,0.19017 0.15434027,0.34589 0.34588803,0.34589 H 3.1922152 c 0.1901684,0 0.3445086,-0.15572 0.3445086,-0.34589 v -2.65411 c 0,-0.19016 -0.1543402,-0.34588 -0.3445086,-0.34588"
       style="fill:#ffffff;fill-opacity:1;fill-rule:nonzero;stroke:none;stroke-width:0.35277775" />
    <path
       inkscape:connector-curvature="0"
       id="path13291"
       d="m 1.8031527,293.65302 c -0.1405607,0.0152 -0.6518133,0.24942 -0.6669722,1.45383 -0.016545,1.27055 0.5264115,1.53789 0.6683481,1.53514 v -0.83923 c -0.1171329,0 -0.1405608,-0.12678 -0.1681198,-0.38999 -0.016545,-0.17501 -0.022049,-0.38998 0,-0.60357 0.016545,-0.15021 0.044097,-0.29766 0.1667439,-0.29766 z m 0,0"
       style="fill:#0087cf;fill-opacity:1;fill-rule:nonzero;stroke:none;stroke-width:0.35277775" />
    <path
       inkscape:connector-curvature="0"
       id="path13293"
       d="m 2.1903792,296.64336 c 0.055122,0 0.093708,-0.0441 0.093708,-0.0937 v -0.001 c 0,0 0,-0.65319 0,-0.65319 0,-0.0524 -0.042721,-0.0923 -0.093708,-0.0923 H 1.9533584 v 0.84059 c 0,0 0.2370208,0 0.2370208,0 z m 0,0"
       style="fill:#0087cf;fill-opacity:1;fill-rule:nonzero;stroke:none;stroke-width:0.35277775" />
    <path
       inkscape:connector-curvature="0"
       id="path13295"
       d="m 2.1903792,294.51154 c 0.055122,0 0.093708,-0.0441 0.093708,-0.0937 0,0 0,-0.67248 0,-0.67248 0,-0.0524 -0.042721,-0.0923 -0.093708,-0.0923 H 1.9533584 v 0.85852 l 0.2370208,0.001 z m 0,0"
       style="fill:#0087cf;fill-opacity:1;fill-rule:nonzero;stroke:none;stroke-width:0.35277775" />
  </g>
</svg>
