<?xml version="1.0" encoding="UTF-8" standalone="no"?>
<!-- Created with Inkscape (http://www.inkscape.org/) -->

<svg
   xmlns:dc="http://purl.org/dc/elements/1.1/"
   xmlns:cc="http://creativecommons.org/ns#"
   xmlns:rdf="http://www.w3.org/1999/02/22-rdf-syntax-ns#"
   xmlns:svg="http://www.w3.org/2000/svg"
   xmlns="http://www.w3.org/2000/svg"
   xmlns:sodipodi="http://sodipodi.sourceforge.net/DTD/sodipodi-0.dtd"
   xmlns:inkscape="http://www.inkscape.org/namespaces/inkscape"
   width="3.75mm"
   height="3.75mm"
   viewBox="0 0 3.75 3.75"
   version="1.1"
   id="svg13826"
   inkscape:version="0.92.1 r15371"
   sodipodi:docname="slip_dark.svg">
  <defs
     id="defs13820" />
  <sodipodi:namedview
     id="base"
     pagecolor="#ffffff"
     bordercolor="#666666"
     borderopacity="1.0"
     inkscape:pageopacity="0.0"
     inkscape:pageshadow="2"
     inkscape:zoom="20.285322"
     inkscape:cx="9.5583531"
     inkscape:cy="6.6839079"
     inkscape:document-units="mm"
     inkscape:current-layer="layer1"
     showgrid="false"
     inkscape:window-width="673"
     inkscape:window-height="660"
     inkscape:window-x="805"
     inkscape:window-y="55"
     inkscape:window-maximized="0"
     showguides="true"
     inkscape:guide-bbox="true"
     gridtolerance="10"
     guidetolerance="2">
    <inkscape:grid
       type="xygrid"
       id="grid13828" />
    <sodipodi:guide
       position="0.13043093,3.8477124"
       orientation="1,0"
       id="guide20533"
       inkscape:locked="false" />
    <sodipodi:guide
       position="1.9173346,3.6129367"
       orientation="0,1"
       id="guide20535"
       inkscape:locked="false" />
  </sodipodi:namedview>
  <metadata
     id="metadata13823">
    <rdf:RDF>
      <cc:Work
         rdf:about="">
        <dc:format>image/svg+xml</dc:format>
        <dc:type
           rdf:resource="http://purl.org/dc/dcmitype/StillImage" />
        <dc:title></dc:title>
      </cc:Work>
    </rdf:RDF>
  </metadata>
  <g
     inkscape:label="Layer 1"
     inkscape:groupmode="layer"
     id="layer1"
     transform="translate(0,-293.25)">
    <path
       inkscape:connector-curvature="0"
       id="path1311"
       d="m 0.5635182,293.45727 c -0.19016839,0 -0.34588803,0.15572 -0.34588803,0.34588 v 2.65548 c 0,0.19155 0.15571964,0.34589 0.34588803,0.34589 h 2.6554817 c 0.1901684,0 0.3458845,-0.15434 0.3458845,-0.34589 v -2.65548 c 0,-0.19016 -0.1557161,-0.34588 -0.3458845,-0.34588 z m 0,0"
       style="fill:#ffffff;fill-opacity:1;fill-rule:nonzero;stroke:none;stroke-width:0.35277775" />
    <path
       inkscape:connector-curvature="0"
       id="path1313"
       d="m 3.2947908,295.04339 c -0.024799,0.0717 -0.1061085,0.11024 -0.1791441,0.0841 -0.00282,0 -0.00413,-0.001 -0.00825,-0.003 l -0.4823143,-0.21359 -0.3954956,0.23978 0.2384001,0.0717 c 0.037208,0.0193 0.062011,0.0537 0.07028,0.0937 l 0.068897,0.54028 c 0.00413,0.0207 0.00282,0.0455 -0.00688,0.0675 -0.0248,0.073 -0.1047327,0.11162 -0.1777683,0.0854 -0.049608,-0.0179 -0.085436,-0.062 -0.09095,-0.11161 l -0.057877,-0.44098 -0.3831202,-0.11431 c -0.063391,-0.0317 -0.1088637,-0.0909 -0.1254019,-0.15985 l -0.085439,-0.48507 -0.1777647,0.22462 c -0.012418,0.0124 -0.026176,0.0234 -0.042721,0.0289 l -0.4395928,-0.0496 c -0.023424,0.005 -0.046852,0.004 -0.07028,-0.004 -0.055122,-0.0248 -0.079925,-0.0882 -0.056497,-0.14193 0.013794,-0.0289 0.037204,-0.0496 0.064766,-0.0593 l 0.4313273,0.051 0.3128116,-0.42031 c 0.020673,-0.0234 0.042721,-0.0413 0.068905,-0.0565 l 0.742763,-0.43684 c 0.026176,-0.0152 0.057877,-0.0207 0.088194,-0.0124 0.056497,0.0179 0.08957,0.0785 0.073036,0.13505 -0.00826,0.0289 -0.027552,0.051 -0.052366,0.0648 l -0.5222769,0.30592 0.085439,0.52641 0.3638021,-0.22186 c 0.033055,-0.0193 0.075791,-0.0234 0.1157535,-0.01 0.00282,0.001 0.00413,0.001 0.00688,0.003 l 0.5498395,0.24529 c 0.064766,0.0303 0.096463,0.10473 0.073036,0.17363 m -2.74091757,1.50895 0.002822,-1.58887 2.24068917,1.5875 z m 0.77859117,-2.52319 c 0.037207,-0.11988 0.1626094,-0.18603 0.281118,-0.1502 0.1198916,0.0372 0.1874132,0.16261 0.1502093,0.28112 -0.035832,0.11989 -0.1626094,0.18603 -0.2811216,0.15021 -0.1185121,-0.0372 -0.1860338,-0.16261 -0.1502057,-0.28113 m 1.8865344,-0.64202 H 0.56350762 c -0.23013106,0 -0.41754425,0.18603 -0.41754425,0.41617 v 2.65548 c 0,0.23013 0.18741319,0.41617 0.41754425,0.41617 H 3.2189893 c 0.2301311,0 0.4175442,-0.18604 0.4175442,-0.41617 v -2.65548 c 0,-0.23014 -0.1874131,-0.41617 -0.4175442,-0.41617"
       style="fill:#211e1e;fill-opacity:1;fill-rule:nonzero;stroke:none;stroke-width:0.35277775" />
  </g>
</svg>
