<?xml version="1.0" encoding="UTF-8" standalone="no"?>
<!-- Created with Inkscape (http://www.inkscape.org/) -->

<svg
   xmlns:dc="http://purl.org/dc/elements/1.1/"
   xmlns:cc="http://creativecommons.org/ns#"
   xmlns:rdf="http://www.w3.org/1999/02/22-rdf-syntax-ns#"
   xmlns:svg="http://www.w3.org/2000/svg"
   xmlns="http://www.w3.org/2000/svg"
   xmlns:sodipodi="http://sodipodi.sourceforge.net/DTD/sodipodi-0.dtd"
   xmlns:inkscape="http://www.inkscape.org/namespaces/inkscape"
   width="3.75mm"
   height="3.75mm"
   viewBox="0 0 3.75 3.75"
   version="1.1"
   id="svg13826"
   inkscape:version="0.92.1 r15371"
   sodipodi:docname="smoking_dark.svg">
  <defs
     id="defs13820" />
  <sodipodi:namedview
     id="base"
     pagecolor="#ffffff"
     bordercolor="#666666"
     borderopacity="1.0"
     inkscape:pageopacity="0.0"
     inkscape:pageshadow="2"
     inkscape:zoom="20.285322"
     inkscape:cx="9.5583531"
     inkscape:cy="6.6839079"
     inkscape:document-units="mm"
     inkscape:current-layer="layer1"
     showgrid="false"
     inkscape:window-width="673"
     inkscape:window-height="660"
     inkscape:window-x="805"
     inkscape:window-y="55"
     inkscape:window-maximized="0"
     showguides="true"
     inkscape:guide-bbox="true"
     gridtolerance="10"
     guidetolerance="2">
    <inkscape:grid
       type="xygrid"
       id="grid13828" />
    <sodipodi:guide
       position="0.13043093,3.8477124"
       orientation="1,0"
       id="guide20533"
       inkscape:locked="false" />
    <sodipodi:guide
       position="1.9173346,3.6129367"
       orientation="0,1"
       id="guide20535"
       inkscape:locked="false" />
  </sodipodi:namedview>
  <metadata
     id="metadata13823">
    <rdf:RDF>
      <cc:Work
         rdf:about="">
        <dc:format>image/svg+xml</dc:format>
        <dc:type
           rdf:resource="http://purl.org/dc/dcmitype/StillImage" />
        <dc:title></dc:title>
      </cc:Work>
    </rdf:RDF>
  </metadata>
  <g
     inkscape:label="Layer 1"
     inkscape:groupmode="layer"
     id="layer1"
     transform="translate(0,-293.25)">
    <path
       inkscape:connector-curvature="0"
       id="path3791"
       d="m 0.53880251,293.44954 c -0.19154775,0 -0.34588802,0.15572 -0.34588802,0.34589 v 2.6541 c 0,0.19017 0.15434027,0.34451 0.34588802,0.34451 H 3.1915255 c 0.1915477,0 0.3472637,-0.15434 0.3472637,-0.34451 v -2.6541 c 0,-0.19017 -0.155716,-0.34589 -0.3472637,-0.34589 z m 0,0"
       style="fill:#ffffff;fill-opacity:1;fill-rule:nonzero;stroke:none;stroke-width:0.35277775" />
    <path
       inkscape:connector-curvature="0"
       id="path3793"
       d="m 3.1915255,296.86432 c 0.2301311,0 0.4175442,-0.18603 0.4175442,-0.41479 v -2.6541 c 0,-0.23013 -0.1874131,-0.41617 -0.4175442,-0.41617 H 0.53880251 c -0.23013458,0 -0.41754777,0.18604 -0.41754777,0.41617 v 2.6541 c 0,0.22876 0.18741319,0.41479 0.41754777,0.41479 z m 0,0"
       style="fill:#211e1e;fill-opacity:1;fill-rule:nonzero;stroke:none;stroke-width:0.35277775" />
    <path
       inkscape:connector-curvature="0"
       id="path3795"
       d="M 0.59529986,295.529 H 2.7409083 v 0.38034 H 0.59529986 Z m 0,0"
       style="fill:#ffffff;fill-opacity:1;fill-rule:nonzero;stroke:none;stroke-width:0.35277775" />
    <path
       inkscape:connector-curvature="0"
       id="path3797"
       d="M 2.9503702,295.53038 H 2.8415029 v 0.37896 h 0.1088673 z m 0,0"
       style="fill:#ffffff;fill-opacity:1;fill-rule:nonzero;stroke:none;stroke-width:0.35277775" />
    <path
       inkscape:connector-curvature="0"
       id="path3799"
       d="M 3.1529386,295.53038 H 3.044075 v 0.37896 h 0.1088636 z m 0,0"
       style="fill:#ffffff;fill-opacity:1;fill-rule:nonzero;stroke:none;stroke-width:0.35277775" />
    <path
       inkscape:connector-curvature="0"
       id="path3801"
       d="m 2.2944222,295.03153 c -0.1626094,0 -0.2962769,-0.13229 -0.2962769,-0.2949 0,-0.0317 0.0055,-0.0606 0.013794,-0.0896 -0.2025719,-0.003 -0.3651813,-0.16812 -0.3651813,-0.37207 0,-0.20395 0.1639887,-0.36932 0.3679366,-0.37207 v 0.10748 c -0.1446918,10e-4 -0.2604487,0.11989 -0.2604487,0.26459 0,0.14607 0.1185121,0.26596 0.2645833,0.26596 0.019297,0 0.035828,-0.003 0.053742,-0.006 0.00413,-10e-4 0.00963,-0.003 0.015169,-0.003 0.034466,0 0.062011,0.0289 0.062011,0.0634 0,0.0124 -0.00413,0.0248 -0.011007,0.0345 -0.019297,0.0303 -0.031679,0.0661 -0.031679,0.10611 0,0.10336 0.08406,0.18742 0.1874131,0.18742 h 0.3886059 c 0.1474507,0 0.2659629,0.11988 0.2659629,0.26596 l 0.0014,0.21222 H 2.8415823 v -0.21222 c 0,-0.0868 -0.07028,-0.15848 -0.1584749,-0.15848 z m 0,0"
       style="fill:#ffffff;fill-opacity:1;fill-rule:nonzero;stroke:none;stroke-width:0.35277775" />
    <path
       inkscape:connector-curvature="0"
       id="path3803"
       d="m 2.3812373,294.62088 c 0.039966,-0.0524 0.063391,-0.11576 0.063391,-0.18604 0,-0.1695 -0.137802,-0.3073 -0.3073012,-0.3073 h -0.023424 v -0.10749 h 0.023424 c 0.2287552,0 0.414789,0.18603 0.414789,0.41479 0,0.0606 -0.013794,0.11989 -0.037208,0.17225 l 0.075791,-0.001 c 0.31006,0 0.5622396,0.25218 0.5622396,0.56224 v 0.23427 H 3.044075 v -0.23427 c 0,-0.2508 -0.2025721,-0.45337 -0.4533759,-0.45337 H 2.4322278 c -0.033055,0 -0.060636,-0.0276 -0.060636,-0.062 0,-0.0124 0.00413,-0.022 0.00963,-0.0317"
       style="fill:#ffffff;fill-opacity:1;fill-rule:nonzero;stroke:none;stroke-width:0.35277775" />
  </g>
</svg>
