<?xml version="1.0" encoding="UTF-8" standalone="no"?>
<!-- Created with Inkscape (http://www.inkscape.org/) -->

<svg
   xmlns:dc="http://purl.org/dc/elements/1.1/"
   xmlns:cc="http://creativecommons.org/ns#"
   xmlns:rdf="http://www.w3.org/1999/02/22-rdf-syntax-ns#"
   xmlns:svg="http://www.w3.org/2000/svg"
   xmlns="http://www.w3.org/2000/svg"
   xmlns:sodipodi="http://sodipodi.sourceforge.net/DTD/sodipodi-0.dtd"
   xmlns:inkscape="http://www.inkscape.org/namespaces/inkscape"
   width="3.75mm"
   height="3.75mm"
   viewBox="0 0 3.75 3.75"
   version="1.1"
   id="svg13826"
   inkscape:version="0.92.1 r15371"
   sodipodi:docname="uneven_light.svg">
  <defs
     id="defs13820" />
  <sodipodi:namedview
     id="base"
     pagecolor="#ffffff"
     bordercolor="#666666"
     borderopacity="1.0"
     inkscape:pageopacity="0.0"
     inkscape:pageshadow="2"
     inkscape:zoom="20.285322"
     inkscape:cx="9.5583531"
     inkscape:cy="6.6839079"
     inkscape:document-units="mm"
     inkscape:current-layer="layer1"
     showgrid="false"
     inkscape:window-width="673"
     inkscape:window-height="660"
     inkscape:window-x="805"
     inkscape:window-y="55"
     inkscape:window-maximized="0"
     showguides="true"
     inkscape:guide-bbox="true"
     gridtolerance="10"
     guidetolerance="2">
    <inkscape:grid
       type="xygrid"
       id="grid13828" />
    <sodipodi:guide
       position="0.13043093,3.8477124"
       orientation="1,0"
       id="guide20533"
       inkscape:locked="false" />
    <sodipodi:guide
       position="1.9173346,3.6129367"
       orientation="0,1"
       id="guide20535"
       inkscape:locked="false" />
  </sodipodi:namedview>
  <metadata
     id="metadata13823">
    <rdf:RDF>
      <cc:Work
         rdf:about="">
        <dc:format>image/svg+xml</dc:format>
        <dc:type
           rdf:resource="http://purl.org/dc/dcmitype/StillImage" />
        <dc:title></dc:title>
      </cc:Work>
    </rdf:RDF>
  </metadata>
  <g
     inkscape:label="Layer 1"
     inkscape:groupmode="layer"
     id="layer1"
     transform="translate(0,-293.25)">
    <path
       inkscape:connector-curvature="0"
       id="path13615"
       d="m 3.2052548,296.87943 c 0.2301346,0 0.4175477,-0.18603 0.4175477,-0.41754 v -2.65411 c 0,-0.23013 -0.1874131,-0.41754 -0.4175477,-0.41754 H 0.5497766 c -0.23013459,0 -0.41616842,0.18741 -0.41616842,0.41754 v 2.65411 c 0,0.23151 0.18603383,0.41754 0.41616842,0.41754 z m 0,0"
       style="fill:#211e1e;fill-opacity:1;fill-rule:nonzero;stroke:none;stroke-width:0.35277775" />
    <path
       inkscape:connector-curvature="0"
       id="path13617"
       d="m 0.5497766,293.4619 c -0.1901684,0 -0.34588803,0.15434 -0.34588803,0.3445 v 2.65686 c 0,0.19017 0.15571963,0.34589 0.34588803,0.34589 h 2.6554782 c 0.1915478,0 0.3458879,-0.15572 0.3458879,-0.34589 v -2.65686 c 0,-0.19016 -0.1543401,-0.3445 -0.3458879,-0.3445 z m 0,0"
       style="fill:#ffffff;fill-opacity:1;fill-rule:nonzero;stroke:none;stroke-width:0.35277775" />
    <path
       inkscape:connector-curvature="0"
       id="path13619"
       d="m 2.530017,294.60567 c 0.1226467,0.0207 0.2397795,-0.0606 0.2604487,-0.18328 0.022049,-0.12265 -0.059256,-0.2384 -0.1818992,-0.26183 -0.1226467,-0.0207 -0.2397795,0.0606 -0.2618281,0.18466 -0.020673,0.12127 0.060632,0.2384 0.1832786,0.26045"
       style="fill:#211e1e;fill-opacity:1;fill-rule:nonzero;stroke:none;stroke-width:0.35277775" />
    <path
       inkscape:connector-curvature="0"
       id="path13621"
       d="m 1.903011,295.1183 0.5126284,-0.15021 0.3665572,0.48094 c 0.016544,0.0234 0.039963,0.04 0.07028,0.0441 0.057877,0.011 0.1143775,-0.0289 0.1240224,-0.0882 0.0055,-0.0303 -0.00413,-0.062 -0.022048,-0.0854 l -0.5236528,-0.68492 c -0.017921,-0.0234 -0.038587,-0.0441 -0.064766,-0.0606 l -0.4561311,-0.25907 v -0.43684 c -0.013794,-0.0262 -0.035832,-0.0455 -0.066146,-0.0551 -0.05788,-0.0179 -0.1171328,0.0152 -0.1350504,0.0717 -0.00688,0.0248 -0.00413,0.0496 0.00413,0.0717 l 0.00413,0.44235 c 0.00826,0.0152 0.019297,0.0276 0.033055,0.0386 l 0.2452899,0.14883 -0.4699106,0.1447 c -0.066146,0.0234 -0.119888,0.0758 -0.1446918,0.14469 l -0.066146,0.39274 -0.42994795,0.11024 c -0.0482318,0.0138 -0.0881944,0.0524 -0.1005981,0.10473 -0.0165452,0.0758 0.0316794,0.15021 0.10748785,0.16675 0.0234244,0.005 0.0468524,0.004 0.0675217,-0.003 l 0.5264114,-0.13368 c 0.038587,-0.0124 0.07028,-0.0413 0.086819,-0.0799 l 0.041338,-0.24529 0.2852561,0.36242 -0.1529644,0.50574 c -0.00141,0.003 -0.00282,0.005 -0.00282,0.01 -0.016545,0.0744 0.031679,0.14882 0.1061085,0.16536 0.07166,0.0165 0.1419401,-0.0262 0.1639888,-0.0937 l 0.1763889,-0.57602 c 0,-0.003 0,-0.005 0.00141,-0.007 0.00963,-0.0413 -0.00141,-0.0827 -0.023424,-0.11299 z m 0,0"
       style="fill:#211e1e;fill-opacity:1;fill-rule:nonzero;stroke:none;stroke-width:0.35277775" />
    <path
       inkscape:connector-curvature="0"
       id="path13623"
       d="M 0.50567937,296.59142 H 3.2962045 v -0.31971 l -0.5415668,0.0992 -0.4699106,-0.11713 -0.3403776,0.1254 -0.4354583,-0.11713 -0.47129,0.12678 -0.53192183,-0.13505 z m 0,0"
       style="fill:#211e1e;fill-opacity:1;fill-rule:evenodd;stroke:none;stroke-width:0.35277775" />
  </g>
</svg>
