<?xml version="1.0" encoding="UTF-8" standalone="no"?>
<!-- Created with Inkscape (http://www.inkscape.org/) -->

<svg
   xmlns:dc="http://purl.org/dc/elements/1.1/"
   xmlns:cc="http://creativecommons.org/ns#"
   xmlns:rdf="http://www.w3.org/1999/02/22-rdf-syntax-ns#"
   xmlns:svg="http://www.w3.org/2000/svg"
   xmlns="http://www.w3.org/2000/svg"
   xmlns:sodipodi="http://sodipodi.sourceforge.net/DTD/sodipodi-0.dtd"
   xmlns:inkscape="http://www.inkscape.org/namespaces/inkscape"
   width="3.75mm"
   height="3.75mm"
   viewBox="0 0 3.75 3.75"
   version="1.1"
   id="svg13826"
   inkscape:version="0.92.1 r15371"
   sodipodi:docname="wave_dark.svg">
  <defs
     id="defs13820" />
  <sodipodi:namedview
     id="base"
     pagecolor="#ffffff"
     bordercolor="#666666"
     borderopacity="1.0"
     inkscape:pageopacity="0.0"
     inkscape:pageshadow="2"
     inkscape:zoom="20.285322"
     inkscape:cx="9.5583531"
     inkscape:cy="6.6839079"
     inkscape:document-units="mm"
     inkscape:current-layer="layer1"
     showgrid="false"
     inkscape:window-width="673"
     inkscape:window-height="660"
     inkscape:window-x="805"
     inkscape:window-y="55"
     inkscape:window-maximized="0"
     showguides="true"
     inkscape:guide-bbox="true"
     gridtolerance="10"
     guidetolerance="2">
    <inkscape:grid
       type="xygrid"
       id="grid13828" />
    <sodipodi:guide
       position="0.13043093,3.8477124"
       orientation="1,0"
       id="guide20533"
       inkscape:locked="false" />
    <sodipodi:guide
       position="1.9173346,3.6129367"
       orientation="0,1"
       id="guide20535"
       inkscape:locked="false" />
  </sodipodi:namedview>
  <metadata
     id="metadata13823">
    <rdf:RDF>
      <cc:Work
         rdf:about="">
        <dc:format>image/svg+xml</dc:format>
        <dc:type
           rdf:resource="http://purl.org/dc/dcmitype/StillImage" />
        <dc:title></dc:title>
      </cc:Work>
    </rdf:RDF>
  </metadata>
  <g
     inkscape:label="Layer 1"
     inkscape:groupmode="layer"
     id="layer1"
     transform="translate(0,-293.25)">
    <path
       inkscape:connector-curvature="0"
       id="path1457"
       d="m 0.53735611,293.45873 c -0.19016838,0 -0.34588801,0.15434 -0.34588801,0.34588 v 2.65548 c 0,0.19155 0.15571963,0.34589 0.34588801,0.34589 H 3.1928379 c 0.1901685,0 0.3458845,-0.15434 0.3458845,-0.34589 v -2.65548 c 0,-0.19154 -0.155716,-0.34588 -0.3458845,-0.34588 z m 0,0"
       style="fill:#ffffff;fill-opacity:1;fill-rule:nonzero;stroke:none;stroke-width:0.35277775" />
    <path
       inkscape:connector-curvature="0"
       id="path1459"
       d="m 3.2203969,295.24604 c -0.035828,-0.005 -0.052366,-0.011 -0.081305,-0.022 l -0.6476789,-0.20119 -0.3059218,0.21635 0.7744566,0.51401 c 0.00282,10e-4 0.0055,0.004 0.00826,0.007 0.038583,0.0276 0.064766,0.073 0.064766,0.12402 0,0.0854 -0.07028,0.15434 -0.1557195,0.15434 -0.041339,0 -0.071656,-0.0179 -0.1061085,-0.0413 l -1.7280573,-1.16168 -0.32659811,-0.91227 c -0.002822,-0.0138 -0.009631,-0.0234 -0.0137936,-0.051 -0.008255,-0.0841 0.0702804,-0.15297 0.15709548,-0.15297 0.06477,0 0.12264674,0.0413 0.14469533,0.0992 h 0.00141 l 0.286632,0.72072 0.355533,0.0413 0.5663741,-0.52504 c 0.028928,-0.0358 0.073036,-0.0579 0.1226432,-0.0579 0.085439,0 0.1557196,0.0689 0.1557196,0.15434 0,0.0469 -0.022048,0.0896 -0.056501,0.11713 l 0.00282,0.003 -0.4864488,0.49059 0.1474505,0.12126 0.3486432,-0.18879 0.778591,0.24392 c 0.08406,0.0179 0.1474507,0.0703 0.1474507,0.15296 0,0.0854 -0.07028,0.16674 -0.1543404,0.15434 m -1.223697,1.29397 c 0.1047326,-0.0179 0.2563142,-0.0937 0.2604487,-0.31419 0.00282,-0.28112 -0.2935217,-0.26458 -0.2935217,-0.26458 0,0 0.1378056,-0.31144 0.7138247,0.29766 0.2811181,0.29627 0.4313236,0.24253 0.5732639,0.27974 z m -1.55029259,-10e-4 v -1.32981 l 1.20991849,0.6146 0.2480451,0.71658 c 0,0 -0.8226884,-0.001 -1.45796359,-0.001 m 1.07900259,-2.57694 c 0.1474505,0 0.2673421,0.11851 0.2673421,0.26459 0,0.14607 -0.1198916,0.26458 -0.2673421,0.26458 -0.1488263,0 -0.2673385,-0.11851 -0.2673385,-0.26458 0,-0.14608 0.1185122,-0.26459 0.2673385,-0.26459 m 1.6674271,-0.57572 H 0.53742316 c -0.23013106,0 -0.41616842,0.18741 -0.41616842,0.41754 v 2.65549 c 0,0.23013 0.18603736,0.41754 0.41616842,0.41754 H 3.1929048 c 0.2301312,0 0.416165,-0.18741 0.416165,-0.41754 v -2.65549 c 0,-0.23013 -0.1860338,-0.41754 -0.416165,-0.41754"
       style="fill:#211e1e;fill-opacity:1;fill-rule:nonzero;stroke:none;stroke-width:0.35277775" />
  </g>
</svg>
