<?xml version="1.0" encoding="UTF-8" standalone="no"?>
<!-- Created with Inkscape (http://www.inkscape.org/) -->

<svg
   xmlns:dc="http://purl.org/dc/elements/1.1/"
   xmlns:cc="http://creativecommons.org/ns#"
   xmlns:rdf="http://www.w3.org/1999/02/22-rdf-syntax-ns#"
   xmlns:svg="http://www.w3.org/2000/svg"
   xmlns="http://www.w3.org/2000/svg"
   xmlns:sodipodi="http://sodipodi.sourceforge.net/DTD/sodipodi-0.dtd"
   xmlns:inkscape="http://www.inkscape.org/namespaces/inkscape"
   width="3.75mm"
   height="3.75mm"
   viewBox="0 0 3.75 3.75"
   version="1.1"
   id="svg13826"
   inkscape:version="0.92.1 r15371"
   sodipodi:docname="assistive_listening_system_tcoil_compatible_dark.svg">
  <defs
     id="defs13820" />
  <sodipodi:namedview
     id="base"
     pagecolor="#ffffff"
     bordercolor="#666666"
     borderopacity="1.0"
     inkscape:pageopacity="0.0"
     inkscape:pageshadow="2"
     inkscape:zoom="57.375555"
     inkscape:cx="1.553724"
     inkscape:cy="12.050069"
     inkscape:document-units="mm"
     inkscape:current-layer="layer1"
     showgrid="false"
     inkscape:window-width="561"
     inkscape:window-height="558"
     inkscape:window-x="747"
     inkscape:window-y="91"
     inkscape:window-maximized="0"
     showguides="true"
     inkscape:guide-bbox="true"
     gridtolerance="10"
     guidetolerance="2">
    <inkscape:grid
       type="xygrid"
       id="grid13828" />
    <sodipodi:guide
       position="0.13043093,3.8477124"
       orientation="1,0"
       id="guide20533"
       inkscape:locked="false" />
    <sodipodi:guide
       position="1.9173346,3.6129367"
       orientation="0,1"
       id="guide20535"
       inkscape:locked="false" />
  </sodipodi:namedview>
  <metadata
     id="metadata13823">
    <rdf:RDF>
      <cc:Work
         rdf:about="">
        <dc:format>image/svg+xml</dc:format>
        <dc:type
           rdf:resource="http://purl.org/dc/dcmitype/StillImage" />
        <dc:title></dc:title>
      </cc:Work>
    </rdf:RDF>
  </metadata>
  <g
     inkscape:label="Layer 1"
     inkscape:groupmode="layer"
     id="layer1"
     transform="translate(0,-293.25)">
    <path
       inkscape:connector-curvature="0"
       id="path8235"
       d="m 0.54753851,296.88326 c -0.2301321,0 -0.4161674,-0.18603 -0.4161674,-0.41754 v -2.65411 c 0,-0.23013 0.1860353,-0.41754 0.4161674,-0.41754 H 3.203018 c 0.2301324,0 0.4175458,0.18741 0.4175458,0.41754 v 2.65411 c 0,0.23151 -0.1874134,0.41754 -0.4175458,0.41754 z m 0,0"
       style="fill:#211e1e;fill-opacity:1;fill-rule:nonzero;stroke:none;stroke-width:0.35277775" />
    <path
       inkscape:connector-curvature="0"
       id="path8237"
       d="m 0.54753851,293.46435 c -0.1901691,0 -0.3458873,0.15572 -0.3458873,0.34726 v 2.65411 c 0,0.19017 0.1557182,0.34588 0.3458873,0.34588 H 3.203018 c 0.1915475,0 0.3472656,-0.15571 0.3472656,-0.34588 v -2.65411 c 0,-0.19154 -0.1557181,-0.34726 -0.3472656,-0.34726 z m 0,0"
       style="fill:#ffffff;fill-opacity:1;fill-rule:nonzero;stroke:none;stroke-width:0.35277775" />
    <path
       inkscape:connector-curvature="0"
       id="path8239"
       d="m 0.96232831,296.17219 c -0.2811198,0 -0.5084961,-0.46302 -0.5084961,-1.0349 0,-0.57326 0.2273763,-1.03629 0.5084961,-1.03629 H 2.7730702 c 0.2797417,0 0.507118,0.46303 0.507118,1.03629 0,0.57188 -0.2273763,1.0349 -0.507118,1.0349 z m 0,0"
       style="fill:#211e1e;fill-opacity:1;fill-rule:nonzero;stroke:none;stroke-width:0.35277775" />
    <path
       inkscape:connector-curvature="0"
       id="path8241"
       d="m 1.9228207,294.89475 c 0.1350476,0 0.2425347,0.10887 0.2425347,0.24254 0,0.13367 -0.1074871,0.24253 -0.2425347,0.24253 h -0.06339 v -0.48507 z m 0.024804,0.69867 c 0.2521811,0 0.4561308,-0.20533 0.4561308,-0.45613 0,-0.25218 -0.2025718,-0.45613 -0.4533745,-0.45613 H 1.6678831 v 0.91226 h 0.2797415"
       style="fill:#ffffff;fill-opacity:1;fill-rule:nonzero;stroke:none;stroke-width:0.35277775" />
    <path
       inkscape:connector-curvature="0"
       id="path8243"
       d="M 1.5741771,295.59342 H 1.3743613 v -0.12127 H 1.0394984 l -0.07717,0.12127 h -0.2921443 l 0.65456826,-0.91226 h 0.2494248 z m 0,0"
       style="fill:#ffffff;fill-opacity:1;fill-rule:nonzero;stroke:none;stroke-width:0.35277775" />
    <path
       inkscape:connector-curvature="0"
       id="path8245"
       d="M 1.3757396,295.28198 H 1.1648995 l 0.2108401,-0.32659 z m 0,0"
       style="fill:#211e1e;fill-opacity:1;fill-rule:nonzero;stroke:none;stroke-width:0.35277775" />
    <path
       inkscape:connector-curvature="0"
       id="path8247"
       d="M 2.9384346,294.67978 H 2.8254359 c 0.1267793,0.12678 0.1998154,0.29903 0.1998154,0.47818 0,0.15985 -0.0565,0.31143 -0.1584746,0.43133 H 2.974264 c 0.09095,-0.12265 0.1405596,-0.27561 0.1405596,-0.43133 0,-0.17639 -0.06339,-0.34589 -0.176389,-0.47818"
       style="fill:#ffffff;fill-opacity:1;fill-rule:nonzero;stroke:none;stroke-width:0.35277775" />
    <path
       inkscape:connector-curvature="0"
       id="path8249"
       d="m 2.7083023,294.67978 h -0.111621 c 0.1267795,0.12678 0.1998155,0.29903 0.1998155,0.47818 0,0.15985 -0.057878,0.31143 -0.1584742,0.43133 h 0.1061089 c 0.09095,-0.12265 0.1419379,-0.27561 0.1419379,-0.43133 0,-0.17639 -0.064768,-0.34589 -0.1777671,-0.47818"
       style="fill:#ffffff;fill-opacity:1;fill-rule:nonzero;stroke:none;stroke-width:0.35277775" />
    <path
       inkscape:connector-curvature="0"
       id="path8251"
       d="M 2.4795481,294.67978 H 2.3665488 c 0.1267799,0.12678 0.1998158,0.29903 0.1998158,0.47818 0,0.15985 -0.057878,0.31143 -0.1584744,0.43133 h 0.1074871 c 0.09095,-0.12265 0.1405597,-0.27561 0.1405597,-0.43133 0,-0.17639 -0.06339,-0.34589 -0.1763889,-0.47818"
       style="fill:#ffffff;fill-opacity:1;fill-rule:nonzero;stroke:none;stroke-width:0.35277775" />
  </g>
</svg>
