<?xml version="1.0" encoding="UTF-8" standalone="no"?>
<!-- Created with Inkscape (http://www.inkscape.org/) -->

<svg
   xmlns:dc="http://purl.org/dc/elements/1.1/"
   xmlns:cc="http://creativecommons.org/ns#"
   xmlns:rdf="http://www.w3.org/1999/02/22-rdf-syntax-ns#"
   xmlns:svg="http://www.w3.org/2000/svg"
   xmlns="http://www.w3.org/2000/svg"
   xmlns:sodipodi="http://sodipodi.sourceforge.net/DTD/sodipodi-0.dtd"
   xmlns:inkscape="http://www.inkscape.org/namespaces/inkscape"
   width="3.75mm"
   height="3.75mm"
   viewBox="0 0 3.75 3.75"
   version="1.1"
   id="svg13826"
   inkscape:version="0.92.1 r15371"
   sodipodi:docname="closed_captioning_light.svg">
  <defs
     id="defs13820" />
  <sodipodi:namedview
     id="base"
     pagecolor="#ffffff"
     bordercolor="#666666"
     borderopacity="1.0"
     inkscape:pageopacity="0.0"
     inkscape:pageshadow="2"
     inkscape:zoom="20.285322"
     inkscape:cx="5.1450612"
     inkscape:cy="7.4125779"
     inkscape:document-units="mm"
     inkscape:current-layer="layer1"
     showgrid="false"
     inkscape:window-width="561"
     inkscape:window-height="558"
     inkscape:window-x="440"
     inkscape:window-y="78"
     inkscape:window-maximized="0"
     showguides="true"
     inkscape:guide-bbox="true"
     gridtolerance="10"
     guidetolerance="2">
    <inkscape:grid
       type="xygrid"
       id="grid13828" />
    <sodipodi:guide
       position="0.13043093,3.8477124"
       orientation="1,0"
       id="guide20533"
       inkscape:locked="false" />
    <sodipodi:guide
       position="1.9173346,3.6129367"
       orientation="0,1"
       id="guide20535"
       inkscape:locked="false" />
  </sodipodi:namedview>
  <metadata
     id="metadata13823">
    <rdf:RDF>
      <cc:Work
         rdf:about="">
        <dc:format>image/svg+xml</dc:format>
        <dc:type
           rdf:resource="http://purl.org/dc/dcmitype/StillImage" />
        <dc:title></dc:title>
      </cc:Work>
    </rdf:RDF>
  </metadata>
  <g
     inkscape:label="Layer 1"
     inkscape:groupmode="layer"
     id="layer1"
     transform="translate(0,-293.25)">
    <path
       inkscape:connector-curvature="0"
       id="path7539"
       d="m 0.5497764,296.87875 c -0.2301322,0 -0.4161674,-0.18604 -0.4161674,-0.41755 v -2.65411 c 0,-0.23013 0.1860352,-0.41616 0.4161674,-0.41616 h 2.6554795 c 0.2301324,0 0.4175458,0.18603 0.4175458,0.41616 v 2.65411 c 0,0.23151 -0.1874134,0.41755 -0.4175458,0.41755 z m 0,0"
       style="fill:#211e1e;fill-opacity:1;fill-rule:nonzero;stroke:none;stroke-width:0.35277775" />
    <path
       inkscape:connector-curvature="0"
       id="path7541"
       d="m 0.5497764,293.46121 c -0.1901691,0 -0.3458874,0.15572 -0.3458874,0.34588 v 2.65411 c 0,0.19155 0.1557183,0.34726 0.3458874,0.34726 h 2.6554795 c 0.1915475,0 0.3472656,-0.15571 0.3472656,-0.34726 v -2.65411 c 0,-0.19016 -0.1557181,-0.34588 -0.3472656,-0.34588 z m 0,0"
       style="fill:#ffffff;fill-opacity:1;fill-rule:nonzero;stroke:none;stroke-width:0.35277775" />
    <path
       inkscape:connector-curvature="0"
       id="path7543"
       d="m 1.3035633,295.01012 c -0.00275,-0.0537 -0.020669,-0.0951 -0.050987,-0.12402 -0.028938,-0.0317 -0.07028,-0.0482 -0.1226453,-0.0482 -0.1791452,0 -0.2094618,0.18603 -0.2094618,0.32797 0,0.18053 0.068902,0.30041 0.2094618,0.30041 0.1226453,0 0.1708767,-0.0854 0.1846569,-0.17914 h 0.4823135 c -0.041341,0.3638 -0.3348633,0.49885 -0.6669704,0.49885 -0.3872287,0 -0.6862632,-0.21773 -0.6862632,-0.62288 0,-0.41065 0.2893882,-0.6463 0.6862632,-0.6463 0.3197048,0 0.6228732,0.13781 0.6573241,0.49334 z m 0,0"
       style="fill:#211e1e;fill-opacity:1;fill-rule:nonzero;stroke:none;stroke-width:0.35277775" />
    <path
       inkscape:connector-curvature="0"
       id="path7545"
       d="m 2.8318076,295.01012 c -0.00138,-0.0537 -0.020669,-0.0951 -0.049609,-0.12402 -0.030318,-0.0317 -0.071658,-0.0482 -0.1240236,-0.0482 -0.1791451,0 -0.2080838,0.18603 -0.2080838,0.32797 0,0.18053 0.068902,0.30041 0.2080838,0.30041 0.1240236,0 0.1722548,-0.0854 0.1860353,-0.17914 h 0.4809353 c -0.041342,0.3638 -0.3348636,0.49885 -0.6669706,0.49885 -0.3872286,0 -0.6848849,-0.21773 -0.6848849,-0.62288 0,-0.41065 0.2880099,-0.6463 0.6848849,-0.6463 0.3210829,0 0.6228732,0.13781 0.6573241,0.49334 z m 0,0"
       style="fill:#211e1e;fill-opacity:1;fill-rule:nonzero;stroke:none;stroke-width:0.35277775" />
  </g>
</svg>
