<?xml version="1.0" encoding="UTF-8" standalone="no"?>
<!-- Created with Inkscape (http://www.inkscape.org/) -->

<svg
   xmlns:dc="http://purl.org/dc/elements/1.1/"
   xmlns:cc="http://creativecommons.org/ns#"
   xmlns:rdf="http://www.w3.org/1999/02/22-rdf-syntax-ns#"
   xmlns:svg="http://www.w3.org/2000/svg"
   xmlns="http://www.w3.org/2000/svg"
   xmlns:sodipodi="http://sodipodi.sourceforge.net/DTD/sodipodi-0.dtd"
   xmlns:inkscape="http://www.inkscape.org/namespaces/inkscape"
   width="3.75mm"
   height="3.75mm"
   viewBox="0 0 3.75 3.75"
   version="1.1"
   id="svg13826"
   inkscape:version="0.92.1 r15371"
   sodipodi:docname="closed_captioning_dark.svg">
  <defs
     id="defs13820" />
  <sodipodi:namedview
     id="base"
     pagecolor="#ffffff"
     bordercolor="#666666"
     borderopacity="1.0"
     inkscape:pageopacity="0.0"
     inkscape:pageshadow="2"
     inkscape:zoom="20.285322"
     inkscape:cx="7.6568618"
     inkscape:cy="7.4289571"
     inkscape:document-units="mm"
     inkscape:current-layer="layer1"
     showgrid="false"
     inkscape:window-width="561"
     inkscape:window-height="558"
     inkscape:window-x="545"
     inkscape:window-y="48"
     inkscape:window-maximized="0"
     showguides="true"
     inkscape:guide-bbox="true"
     gridtolerance="10"
     guidetolerance="2">
    <inkscape:grid
       type="xygrid"
       id="grid13828" />
    <sodipodi:guide
       position="0.13043093,3.8477124"
       orientation="1,0"
       id="guide20533"
       inkscape:locked="false" />
    <sodipodi:guide
       position="1.9173346,3.6129367"
       orientation="0,1"
       id="guide20535"
       inkscape:locked="false" />
  </sodipodi:namedview>
  <metadata
     id="metadata13823">
    <rdf:RDF>
      <cc:Work
         rdf:about="">
        <dc:format>image/svg+xml</dc:format>
        <dc:type
           rdf:resource="http://purl.org/dc/dcmitype/StillImage" />
        <dc:title></dc:title>
      </cc:Work>
    </rdf:RDF>
  </metadata>
  <g
     inkscape:label="Layer 1"
     inkscape:groupmode="layer"
     id="layer1"
     transform="translate(0,-293.25)">
    <path
       inkscape:connector-curvature="0"
       id="path8941"
       d="m 0.5655759,293.4619 c -0.1915474,0 -0.3458876,0.15572 -0.3458876,0.34589 v 2.6541 c 0,0.19017 0.1543402,0.34451 0.3458876,0.34451 h 2.6527233 c 0.1901693,0 0.3458877,-0.15434 0.3458877,-0.34451 v -2.6541 c 0,-0.19017 -0.1557184,-0.34589 -0.3458877,-0.34589 z m 0,0"
       style="fill:#ffffff;fill-opacity:1;fill-rule:nonzero;stroke:none;stroke-width:0.35277775" />
    <path
       inkscape:connector-curvature="0"
       id="path8943"
       d="m 3.2182992,296.87806 c 0.2301322,0 0.4161674,-0.18604 0.4161674,-0.41617 v -2.6541 c 0,-0.23013 -0.1860352,-0.41617 -0.4161674,-0.41617 H 0.5655759 c -0.2315104,0 -0.4175456,0.18604 -0.4175456,0.41617 v 2.6541 c 0,0.23013 0.1860352,0.41617 0.4175456,0.41617 z m 0,0"
       style="fill:#211e1e;fill-opacity:1;fill-rule:nonzero;stroke:none;stroke-width:0.35277775" />
    <path
       inkscape:connector-curvature="0"
       id="path8945"
       d="m 0.7888179,296.32546 v -1.3174 h 0.00138 c 0,-0.13091 0.1005967,-0.23978 0.2397789,-0.23978 h 1.7225473 c 0.1350478,0 0.2397789,0.10749 0.2397789,0.23978 v 1.31878 c 0.00138,0.13919 -0.1061093,0.2384 -0.2384009,0.2384 H 1.0299726 c -0.1309137,0 -0.2411568,-0.10473 -0.2411568,-0.23978"
       style="fill:#ffffff;fill-opacity:1;fill-rule:nonzero;stroke:none;stroke-width:0.35277775" />
    <path
       inkscape:connector-curvature="0"
       id="path8947"
       d="m 1.0382428,295.01908 h 1.7060114 v 1.29536 H 1.0382428 Z m 0,0"
       style="fill:#211e1e;fill-opacity:1;fill-rule:nonzero;stroke:none;stroke-width:0.35277775" />
    <path
       inkscape:connector-curvature="0"
       id="path8949"
       d="m 2.3170622,293.74853 c -0.00138,-0.17225 0.2480469,-0.17363 0.2494248,0 l -0.00413,0.52228 0.1350475,-0.16399 c 0.092329,-0.10059 0.2563155,0.0413 0.1557182,0.15434 l -0.3265948,0.38861 c -0.050987,0.0496 -0.1185111,0.0496 -0.1694988,0 l -0.3238387,-0.38999 c -0.1005967,-0.11437 0.06339,-0.25631 0.1543403,-0.15434 l 0.1336696,0.16537 z m 0,0"
       style="fill:#ffffff;fill-opacity:1;fill-rule:nonzero;stroke:none;stroke-width:0.35277775" />
    <path
       inkscape:connector-curvature="0"
       id="path8951"
       d="m 1.2104975,294.55882 c -0.00138,0.17225 0.2480472,0.17363 0.2494251,0 l -0.00275,-0.52366 0.1336699,0.16399 c 0.093706,0.10198 0.2563149,-0.04 0.1557182,-0.15296 l -0.3265999,-0.38861 c -0.050987,-0.051 -0.118511,-0.0496 -0.1694984,0 l -0.323839,0.38999 c -0.1005967,0.11438 0.06339,0.25631 0.1557182,0.15296 l 0.1322917,-0.16537 z m 0,0"
       style="fill:#ffffff;fill-opacity:1;fill-rule:nonzero;stroke:none;stroke-width:0.35277775" />
    <path
       inkscape:connector-curvature="0"
       id="path8953"
       d="m 2.5926698,295.76185 c 0,0.0248 -0.020669,0.0441 -0.044097,0.0441 H 2.2564285 c -0.023428,0 -0.045475,-0.0193 -0.045475,-0.0441 v -0.31695 c 0,-0.0358 0.030318,-0.062 0.062012,-0.062 h 0.2576932 c 0.035829,0 0.062012,0.0289 0.062012,0.062 z m 0,0"
       style="fill:#ffffff;fill-opacity:1;fill-rule:nonzero;stroke:none;stroke-width:0.35277775" />
    <path
       inkscape:connector-curvature="0"
       id="path8955"
       d="m 2.5210118,295.79492 h -0.111621 v 0.42857 c 0,0.0758 0.111621,0.0758 0.111621,0 z m 0,0"
       style="fill:#ffffff;fill-opacity:1;fill-rule:nonzero;stroke:none;stroke-width:0.35277775" />
    <path
       inkscape:connector-curvature="0"
       id="path8957"
       d="M 2.3928544,295.79492 H 2.2826113 v 0.42857 c 0,0.0758 0.1102431,0.0758 0.1102431,0 z m 0,0"
       style="fill:#ffffff;fill-opacity:1;fill-rule:nonzero;stroke:none;stroke-width:0.35277775" />
    <path
       inkscape:connector-curvature="0"
       id="path8959"
       d="m 2.4025007,295.35808 c 0.046853,0 0.08406,-0.0372 0.08406,-0.0841 0,-0.0455 -0.037207,-0.0827 -0.08406,-0.0827 -0.045476,0 -0.082682,0.0372 -0.082682,0.0827 0,0.0469 0.037207,0.0841 0.082682,0.0841"
       style="fill:#ffffff;fill-opacity:1;fill-rule:nonzero;stroke:none;stroke-width:0.35277775" />
    <path
       inkscape:connector-curvature="0"
       id="path8961"
       d="m 2.0814176,295.76185 c 0,0.0248 -0.020669,0.0441 -0.044097,0.0441 h -0.292144 c -0.023428,0 -0.044097,-0.0193 -0.044097,-0.0441 v -0.31695 c 0,-0.0358 0.028938,-0.062 0.060633,-0.062 h 0.2590717 c 0.034452,0 0.060633,0.0289 0.060633,0.062 z m 0,0"
       style="fill:#ffffff;fill-opacity:1;fill-rule:nonzero;stroke:none;stroke-width:0.35277775" />
    <path
       inkscape:connector-curvature="0"
       id="path8963"
       d="m 2.0097599,295.79492 h -0.110243 v 0.42857 c 0,0.0758 0.110243,0.0758 0.110243,0 z m 0,0"
       style="fill:#ffffff;fill-opacity:1;fill-rule:nonzero;stroke:none;stroke-width:0.35277775" />
    <path
       inkscape:connector-curvature="0"
       id="path8965"
       d="m 1.8816021,295.79492 h -0.110243 v 0.42857 c 0,0.0758 0.110243,0.0758 0.110243,0 z m 0,0"
       style="fill:#ffffff;fill-opacity:1;fill-rule:nonzero;stroke:none;stroke-width:0.35277775" />
    <path
       inkscape:connector-curvature="0"
       id="path8967"
       d="m 1.8912485,295.35808 c 0.048231,0 0.08406,-0.0372 0.08406,-0.0841 0,-0.0455 -0.035829,-0.0827 -0.08406,-0.0827 -0.045475,0 -0.082682,0.0372 -0.082682,0.0827 0,0.0469 0.037207,0.0841 0.082682,0.0841"
       style="fill:#ffffff;fill-opacity:1;fill-rule:nonzero;stroke:none;stroke-width:0.35277775" />
    <path
       inkscape:connector-curvature="0"
       id="path8969"
       d="m 1.5715436,295.76185 c 0,0.0248 -0.022048,0.0441 -0.045475,0.0441 H 1.2353023 c -0.023428,0 -0.045475,-0.0193 -0.045475,-0.0441 v -0.31695 c 0,-0.0358 0.030318,-0.062 0.062012,-0.062 h 0.2576932 c 0.035829,0 0.062012,0.0289 0.062012,0.062 z m 0,0"
       style="fill:#ffffff;fill-opacity:1;fill-rule:nonzero;stroke:none;stroke-width:0.35277775" />
    <path
       inkscape:connector-curvature="0"
       id="path8971"
       d="m 1.4998856,295.79492 h -0.111621 v 0.42857 c 0,0.0758 0.111621,0.0758 0.111621,0 z m 0,0"
       style="fill:#ffffff;fill-opacity:1;fill-rule:nonzero;stroke:none;stroke-width:0.35277775" />
    <path
       inkscape:connector-curvature="0"
       id="path8973"
       d="m 1.3717282,295.79492 h -0.111621 v 0.42857 c 0,0.0758 0.111621,0.0758 0.111621,0 z m 0,0"
       style="fill:#ffffff;fill-opacity:1;fill-rule:nonzero;stroke:none;stroke-width:0.35277775" />
    <path
       inkscape:connector-curvature="0"
       id="path8975"
       d="m 1.3827525,295.35808 c 0.045475,0 0.082682,-0.0372 0.082682,-0.0841 0,-0.0455 -0.037207,-0.0827 -0.082682,-0.0827 -0.046853,0 -0.084061,0.0372 -0.084061,0.0827 0,0.0469 0.037207,0.0841 0.084061,0.0841"
       style="fill:#ffffff;fill-opacity:1;fill-rule:nonzero;stroke:none;stroke-width:0.35277775" />
  </g>
</svg>
