<?xml version="1.0" encoding="UTF-8" standalone="no"?>
<!-- Created with Inkscape (http://www.inkscape.org/) -->

<svg
   xmlns:dc="http://purl.org/dc/elements/1.1/"
   xmlns:cc="http://creativecommons.org/ns#"
   xmlns:rdf="http://www.w3.org/1999/02/22-rdf-syntax-ns#"
   xmlns:svg="http://www.w3.org/2000/svg"
   xmlns="http://www.w3.org/2000/svg"
   xmlns:sodipodi="http://sodipodi.sourceforge.net/DTD/sodipodi-0.dtd"
   xmlns:inkscape="http://www.inkscape.org/namespaces/inkscape"
   width="3.75mm"
   height="3.75mm"
   viewBox="0 0 3.75 3.75"
   version="1.1"
   id="svg13826"
   inkscape:version="0.92.1 r15371"
   sodipodi:docname="large_print_light.svg">
  <defs
     id="defs13820" />
  <sodipodi:namedview
     id="base"
     pagecolor="#ffffff"
     bordercolor="#666666"
     borderopacity="1.0"
     inkscape:pageopacity="0.0"
     inkscape:pageshadow="2"
     inkscape:zoom="40.570644"
     inkscape:cx="2.6940297"
     inkscape:cy="11.773291"
     inkscape:document-units="mm"
     inkscape:current-layer="layer1"
     showgrid="false"
     inkscape:window-width="561"
     inkscape:window-height="558"
     inkscape:window-x="687"
     inkscape:window-y="78"
     inkscape:window-maximized="0"
     showguides="true"
     inkscape:guide-bbox="true"
     gridtolerance="10"
     guidetolerance="2">
    <inkscape:grid
       type="xygrid"
       id="grid13828" />
    <sodipodi:guide
       position="0.13043093,3.8477124"
       orientation="1,0"
       id="guide20533"
       inkscape:locked="false" />
    <sodipodi:guide
       position="1.9173346,3.6129367"
       orientation="0,1"
       id="guide20535"
       inkscape:locked="false" />
  </sodipodi:namedview>
  <metadata
     id="metadata13823">
    <rdf:RDF>
      <cc:Work
         rdf:about="">
        <dc:format>image/svg+xml</dc:format>
        <dc:type
           rdf:resource="http://purl.org/dc/dcmitype/StillImage" />
        <dc:title></dc:title>
      </cc:Work>
    </rdf:RDF>
  </metadata>
  <g
     inkscape:label="Layer 1"
     inkscape:groupmode="layer"
     id="layer1"
     transform="translate(0,-293.25)">
    <path
       inkscape:connector-curvature="0"
       id="path7985"
       d="m 0.54394399,293.46532 c -0.19016909,0 -0.34588766,0.15572 -0.34588766,0.34589 v 2.65548 c 0,0.19017 0.15571857,0.34588 0.34588766,0.34588 H 3.1994236 c 0.1901691,0 0.3472657,-0.15571 0.3472657,-0.34588 v -2.65548 c 0,-0.19017 -0.1570966,-0.34589 -0.3472657,-0.34589 z m 0,0"
       style="fill:#ffffff;fill-opacity:1;fill-rule:nonzero;stroke:none;stroke-width:0.35277775" />
    <path
       inkscape:connector-curvature="0"
       id="path7987"
       d="m 0.54394399,296.88423 c -0.23013246,0 -0.41754565,-0.18741 -0.41754565,-0.41892 v -2.65273 c 0,-0.23013 0.18741319,-0.41754 0.41754565,-0.41754 H 3.1994236 c 0.2301325,0 0.4175456,0.18741 0.4175456,0.41754 v 2.65273 c 0,0.23151 -0.1874131,0.41892 -0.4175456,0.41892 z m 0,0"
       style="fill:#211e1e;fill-opacity:1;fill-rule:nonzero;stroke:none;stroke-width:0.35277775" />
    <path
       inkscape:connector-curvature="0"
       id="path7989"
       d="m 0.44059105,294.1378 h 0.17225468 v 0.64217 h 0.38309478 v 0.14469 H 0.44059105 Z m 0,0"
       style="fill:#ffffff;fill-opacity:1;fill-rule:nonzero;stroke:none;stroke-width:0.35277775" />
    <path
       inkscape:connector-curvature="0"
       id="path7991"
       d="m 1.4438028,294.6463 c -0.026183,0.0234 -0.081304,0.0234 -0.1309134,0.0331 -0.048231,0.01 -0.092329,0.0262 -0.092329,0.0841 0,0.0579 0.045475,0.073 0.096463,0.073 0.1212673,0 0.1267795,-0.0978 0.1267795,-0.13229 z M 1.081379,294.53054 c 0.00964,-0.14607 0.1405597,-0.19016 0.2673392,-0.19016 0.1143773,0 0.2508032,0.0248 0.2508032,0.16123 v 0.29627 c 0,0.0524 0.00551,0.10473 0.020669,0.12678 H 1.4617161 c -0.00689,-0.0165 -0.011024,-0.0358 -0.011024,-0.0551 -0.049609,0.0524 -0.1226453,0.0717 -0.192925,0.0717 -0.1074871,0 -0.1929257,-0.0551 -0.1929257,-0.17088 0,-0.12953 0.096463,-0.15985 0.1929257,-0.17363 0.096463,-0.0138 0.1860349,-0.011 0.1860349,-0.0758 0,-0.0661 -0.046853,-0.0758 -0.1019746,-0.0758 -0.059256,0 -0.097841,0.0234 -0.103353,0.0854 z m 0,0"
       style="fill:#ffffff;fill-opacity:1;fill-rule:nonzero;stroke:none;stroke-width:0.35277775" />
    <path
       inkscape:connector-curvature="0"
       id="path7993"
       d="m 1.731813,294.35553 h 0.1488278 v 0.10611 h 0.00275 c 0.028938,-0.0717 0.1061089,-0.12126 0.1819011,-0.12126 0.011024,0 0.024804,0.001 0.034452,0.006 v 0.14469 c -0.015159,-0.003 -0.037207,-0.005 -0.056499,-0.005 -0.1143773,0 -0.1543403,0.0827 -0.1543403,0.18328 v 0.25632 H 1.7318099 Z m 0,0"
       style="fill:#ffffff;fill-opacity:1;fill-rule:nonzero;stroke:none;stroke-width:0.35277775" />
    <path
       inkscape:connector-curvature="0"
       id="path7995"
       d="m 2.5710382,294.63252 c 0,-0.0923 -0.031694,-0.17501 -0.1336696,-0.17501 -0.088195,0 -0.1267799,0.0772 -0.1267799,0.16261 0,0.0813 0.031694,0.17087 0.1267799,0.17087 0.089572,0 0.1336696,-0.0772 0.1336696,-0.15847 m 0.1488281,0.25632 c 0,0.0937 -0.033073,0.25217 -0.2949003,0.25217 -0.112999,0 -0.2439127,-0.0524 -0.2521808,-0.18327 h 0.1557182 c 0.015159,0.0593 0.062012,0.0785 0.1171332,0.0785 0.086817,0 0.1254016,-0.0592 0.1254016,-0.14056 v -0.0758 h -0.00275 c -0.034452,0.0606 -0.1019746,0.0882 -0.1694988,0.0882 -0.1722547,0 -0.2452906,-0.12954 -0.2452906,-0.28664 0,-0.14745 0.085438,-0.28111 0.2452906,-0.28111 0.075792,0 0.1322917,0.0248 0.1694988,0.0909 h 0.00275 v -0.0758 h 0.1488281 z m 0,0"
       style="fill:#ffffff;fill-opacity:1;fill-rule:nonzero;stroke:none;stroke-width:0.35277775" />
    <path
       inkscape:connector-curvature="0"
       id="path7997"
       d="m 3.2407645,294.57878 c -0.015158,-0.0799 -0.049609,-0.12127 -0.1254016,-0.12127 -0.099219,0 -0.1281573,0.0772 -0.1295353,0.12127 z m -0.2549369,0.0992 c 0.00414,0.0992 0.052365,0.1447 0.1405597,0.1447 0.062012,0 0.1129993,-0.0386 0.1226457,-0.0744 h 0.1378038 c -0.044097,0.13505 -0.1378038,0.19155 -0.2673395,0.19155 -0.1791449,0 -0.2907663,-0.12264 -0.2907663,-0.29903 0,-0.17088 0.1185114,-0.30041 0.2907663,-0.30041 0.1943031,0 0.28801,0.1626 0.2769859,0.33761 z m 0,0"
       style="fill:#ffffff;fill-opacity:1;fill-rule:nonzero;stroke:none;stroke-width:0.35277775" />
    <path
       inkscape:connector-curvature="0"
       id="path7999"
       d="M 0.87880735,295.74322 H 1.0138549 c 0.079926,0 0.1515843,-0.0179 0.1515843,-0.11852 0,-0.0992 -0.071658,-0.11713 -0.1515843,-0.11713 H 0.87880735 Z M 0.70655268,295.37253 H 1.0607084 c 0.1956812,0 0.2714734,0.1254 0.2714734,0.25217 0,0.12816 -0.075792,0.25356 -0.2714734,0.25356 H 0.87880735 v 0.28113 H 0.70655268 Z m 0,0"
       style="fill:#ffffff;fill-opacity:1;fill-rule:nonzero;stroke:none;stroke-width:0.35277775" />
    <path
       inkscape:connector-curvature="0"
       id="path8001"
       d="m 1.4355347,295.59026 h 0.1488282 v 0.1061 h 0.00275 c 0.028938,-0.0717 0.1061089,-0.12126 0.1805231,-0.12126 0.012404,0 0.024804,10e-4 0.034452,0.005 v 0.1447 c -0.01378,-0.003 -0.037207,-0.006 -0.055122,-0.006 -0.114377,0 -0.1557183,0.0827 -0.1557183,0.18328 v 0.25632 H 1.4355319 Z m 0,0"
       style="fill:#ffffff;fill-opacity:1;fill-rule:nonzero;stroke:none;stroke-width:0.35277775" />
    <path
       inkscape:connector-curvature="0"
       id="path8003"
       d="m 1.8792628,295.59026 h 0.1570966 v 0.56913 H 1.8792628 Z m 0.1570966,-0.0882 H 1.8806408 v -0.12953 h 0.1557186 z m 0,0"
       style="fill:#ffffff;fill-opacity:1;fill-rule:nonzero;stroke:none;stroke-width:0.35277775" />
    <path
       inkscape:connector-curvature="0"
       id="path8005"
       d="m 2.1714069,295.59026 h 0.1488282 v 0.0785 h 0.00275 c 0.039963,-0.0634 0.1074868,-0.0937 0.1750106,-0.0937 0.1653646,0 0.2080838,0.0937 0.2080838,0.23426 v 0.35003 H 2.548985 v -0.32109 c 0,-0.0937 -0.027563,-0.14056 -0.1005967,-0.14056 -0.084061,0 -0.1212674,0.0469 -0.1212674,0.16261 v 0.29904 H 2.1714023 Z m 0,0"
       style="fill:#ffffff;fill-opacity:1;fill-rule:nonzero;stroke:none;stroke-width:0.35277775" />
    <path
       inkscape:connector-curvature="0"
       id="path8007"
       d="m 3.0340591,295.59026 h 0.1143767 v 0.10473 H 3.0340591 v 0.28249 c 0,0.0524 0.012404,0.0661 0.066146,0.0661 0.016534,0 0.031693,-0.001 0.048231,-0.006 v 0.12264 c -0.026183,0.004 -0.060633,0.005 -0.092328,0.005 -0.095085,0 -0.1777669,-0.022 -0.1777669,-0.13505 v -0.33624 h -0.096463 v -0.10473 h 0.096463 v -0.17088 h 0.1557184 z m 0,0"
       style="fill:#ffffff;fill-opacity:1;fill-rule:nonzero;stroke:none;stroke-width:0.35277775" />
  </g>
</svg>
