<?xml version="1.0" encoding="UTF-8" standalone="no"?>
<!-- Created with Inkscape (http://www.inkscape.org/) -->

<svg
   xmlns:dc="http://purl.org/dc/elements/1.1/"
   xmlns:cc="http://creativecommons.org/ns#"
   xmlns:rdf="http://www.w3.org/1999/02/22-rdf-syntax-ns#"
   xmlns:svg="http://www.w3.org/2000/svg"
   xmlns="http://www.w3.org/2000/svg"
   xmlns:sodipodi="http://sodipodi.sourceforge.net/DTD/sodipodi-0.dtd"
   xmlns:inkscape="http://www.inkscape.org/namespaces/inkscape"
   width="3.75mm"
   height="3.75mm"
   viewBox="0 0 3.75 3.75"
   version="1.1"
   id="svg13826"
   inkscape:version="0.92.1 r15371"
   sodipodi:docname="large_print_light.svg">
  <defs
     id="defs13820" />
  <sodipodi:namedview
     id="base"
     pagecolor="#ffffff"
     bordercolor="#666666"
     borderopacity="1.0"
     inkscape:pageopacity="0.0"
     inkscape:pageshadow="2"
     inkscape:zoom="40.570644"
     inkscape:cx="5.4220198"
     inkscape:cy="12.079115"
     inkscape:document-units="mm"
     inkscape:current-layer="layer1"
     showgrid="false"
     inkscape:window-width="561"
     inkscape:window-height="558"
     inkscape:window-x="687"
     inkscape:window-y="78"
     inkscape:window-maximized="0"
     showguides="true"
     inkscape:guide-bbox="true"
     gridtolerance="10"
     guidetolerance="2">
    <inkscape:grid
       type="xygrid"
       id="grid13828" />
    <sodipodi:guide
       position="0.13043093,3.8477124"
       orientation="1,0"
       id="guide20533"
       inkscape:locked="false" />
    <sodipodi:guide
       position="1.9173346,3.6129367"
       orientation="0,1"
       id="guide20535"
       inkscape:locked="false" />
  </sodipodi:namedview>
  <metadata
     id="metadata13823">
    <rdf:RDF>
      <cc:Work
         rdf:about="">
        <dc:format>image/svg+xml</dc:format>
        <dc:type
           rdf:resource="http://purl.org/dc/dcmitype/StillImage" />
        <dc:title></dc:title>
      </cc:Work>
    </rdf:RDF>
  </metadata>
  <g
     inkscape:label="Layer 1"
     inkscape:groupmode="layer"
     id="layer1"
     transform="translate(0,-293.25)">
    <path
       inkscape:connector-curvature="0"
       id="path8393"
       d="m 0.55431264,296.88532 c -0.2301325,0 -0.41616774,-0.18741 -0.41616774,-0.41754 v -2.6541 c 0,-0.23014 0.18603524,-0.41755 0.41616774,-0.41755 H 3.2097918 c 0.2301324,0 0.4175458,0.18741 0.4175458,0.41755 v 2.6541 c 0,0.23013 -0.1874134,0.41754 -0.4175458,0.41754 z m 0,0"
       style="fill:#211e1e;fill-opacity:1;fill-rule:nonzero;stroke:none;stroke-width:0.35277775" />
    <path
       inkscape:connector-curvature="0"
       id="path8395"
       d="m 0.55431264,293.46641 c -0.19016948,0 -0.3458877,0.15572 -0.3458877,0.34727 v 2.6541 c 0,0.19017 0.15571822,0.34588 0.3458877,0.34588 H 3.2097918 c 0.1915475,0 0.3472656,-0.15571 0.3472656,-0.34588 v -2.6541 c 0,-0.19155 -0.1557181,-0.34727 -0.3472656,-0.34727 z m 0,0"
       style="fill:#ffffff;fill-opacity:1;fill-rule:nonzero;stroke:none;stroke-width:0.35277775" />
    <path
       inkscape:connector-curvature="0"
       id="path8397"
       d="m 2.2410313,294.31528 h -0.062012 v 0.091 l 0.059256,-0.0868 z m 0,0"
       style="fill:#211e1e;fill-opacity:1;fill-rule:nonzero;stroke:none;stroke-width:0.35277775" />
    <path
       inkscape:connector-curvature="0"
       id="path8399"
       d="m 2.2548115,295.12281 v -0.50712 h -0.00827 l -0.067524,0.10749 v 0.39963 z m 0,0"
       style="fill:#211e1e;fill-opacity:1;fill-rule:nonzero;stroke:none;stroke-width:0.35277775" />
    <path
       inkscape:connector-curvature="0"
       id="path8401"
       d="m 2.1790193,295.68781 h 0.075792 v -0.38034 h -0.075792 z m 0,0"
       style="fill:#211e1e;fill-opacity:1;fill-rule:nonzero;stroke:none;stroke-width:0.35277775" />
    <path
       inkscape:connector-curvature="0"
       id="path8403"
       d="m 0.50194694,295.68781 h 0.016535 v -1.37253 h -0.016535 z m 0,0"
       style="fill:#211e1e;fill-opacity:1;fill-rule:nonzero;stroke:none;stroke-width:0.35277775" />
    <path
       inkscape:connector-curvature="0"
       id="path8405"
       d="m 0.62597024,295.68781 h 0.016538 v -1.37253 h -0.016538 z m 0,0"
       style="fill:#211e1e;fill-opacity:1;fill-rule:nonzero;stroke:none;stroke-width:0.35277775" />
    <path
       inkscape:connector-curvature="0"
       id="path8407"
       d="m 0.74585964,295.68781 h 0.033073 v -1.37253 h -0.033073 z m 0,0"
       style="fill:#211e1e;fill-opacity:1;fill-rule:nonzero;stroke:none;stroke-width:0.35277775" />
    <path
       inkscape:connector-curvature="0"
       id="path8409"
       d="m 0.87677334,295.68781 h 0.034452 v -1.37253 h -0.034452 z m 0,0"
       style="fill:#211e1e;fill-opacity:1;fill-rule:nonzero;stroke:none;stroke-width:0.35277775" />
    <path
       inkscape:connector-curvature="0"
       id="path8411"
       d="m 1.0159551,295.68781 h 0.035829 v -1.37253 h -0.035829 z m 0,0"
       style="fill:#211e1e;fill-opacity:1;fill-rule:nonzero;stroke:none;stroke-width:0.35277775" />
    <path
       inkscape:connector-curvature="0"
       id="path8413"
       d="m 1.1482468,295.68781 h 0.035829 v -1.37253 h -0.035829 z m 0,0"
       style="fill:#211e1e;fill-opacity:1;fill-rule:nonzero;stroke:none;stroke-width:0.35277775" />
    <path
       inkscape:connector-curvature="0"
       id="path8415"
       d="m 1.2805384,295.68781 h 0.035829 v -1.37253 h -0.035829 z m 0,0"
       style="fill:#211e1e;fill-opacity:1;fill-rule:nonzero;stroke:none;stroke-width:0.35277775" />
    <path
       inkscape:connector-curvature="0"
       id="path8417"
       d="m 1.4583056,294.31528 h -0.064768 v 1.25677 l 0.064768,-0.0965 z m 0,0"
       style="fill:#211e1e;fill-opacity:1;fill-rule:nonzero;stroke:none;stroke-width:0.35277775" />
    <path
       inkscape:connector-curvature="0"
       id="path8419"
       d="m 1.5988654,294.31528 h -0.064768 v 1.04869 l 0.064768,-0.0965 z m 0,0"
       style="fill:#211e1e;fill-opacity:1;fill-rule:nonzero;stroke:none;stroke-width:0.35277775" />
    <path
       inkscape:connector-curvature="0"
       id="path8421"
       d="m 1.5988654,295.68781 v -0.0717 l -0.046854,0.0703 z m 0,0"
       style="fill:#211e1e;fill-opacity:1;fill-rule:nonzero;stroke:none;stroke-width:0.35277775" />
    <path
       inkscape:connector-curvature="0"
       id="path8423"
       d="m 1.7187548,294.31528 h -0.064768 v 0.87092 l 0.064768,-0.0965 z m 0,0"
       style="fill:#211e1e;fill-opacity:1;fill-rule:nonzero;stroke:none;stroke-width:0.35277775" />
    <path
       inkscape:connector-curvature="0"
       id="path8425"
       d="m 1.6539869,295.68781 h 0.064768 v -0.25356 l -0.064768,0.0992 z m 0,0"
       style="fill:#211e1e;fill-opacity:1;fill-rule:nonzero;stroke:none;stroke-width:0.35277775" />
    <path
       inkscape:connector-curvature="0"
       id="path8427"
       d="m 1.8606924,294.31528 h -0.07717 v 0.678 l 0.07717,-0.113 z m 0,0"
       style="fill:#211e1e;fill-opacity:1;fill-rule:nonzero;stroke:none;stroke-width:0.35277775" />
    <path
       inkscape:connector-curvature="0"
       id="path8429"
       d="m 1.7835223,295.33503 v 0.35278 h 0.07717 v -0.38034 h -0.059255 z m 0,0"
       style="fill:#211e1e;fill-opacity:1;fill-rule:nonzero;stroke:none;stroke-width:0.35277775" />
    <path
       inkscape:connector-curvature="0"
       id="path8431"
       d="m 1.915814,295.68781 h 0.07717 v -0.38034 h -0.07717 z m 0,0"
       style="fill:#211e1e;fill-opacity:1;fill-rule:nonzero;stroke:none;stroke-width:0.35277775" />
    <path
       inkscape:connector-curvature="0"
       id="path8433"
       d="m 1.9337287,295.12281 h 0.059255 v -0.0951 z m 0,0"
       style="fill:#211e1e;fill-opacity:1;fill-rule:nonzero;stroke:none;stroke-width:0.35277775" />
    <path
       inkscape:connector-curvature="0"
       id="path8435"
       d="m 1.9929841,294.31528 h -0.07717 v 0.48232 l 0.07717,-0.11438 z m 0,0"
       style="fill:#211e1e;fill-opacity:1;fill-rule:nonzero;stroke:none;stroke-width:0.35277775" />
    <path
       inkscape:connector-curvature="0"
       id="path8437"
       d="m 2.0481056,294.93816 v 0.18465 h 0.075792 v -0.30868 z m 0,0"
       style="fill:#211e1e;fill-opacity:1;fill-rule:nonzero;stroke:none;stroke-width:0.35277775" />
    <path
       inkscape:connector-curvature="0"
       id="path8439"
       d="m 2.1238978,294.31528 h -0.075792 v 0.28663 l 0.075792,-0.11437 z m 0,0"
       style="fill:#211e1e;fill-opacity:1;fill-rule:nonzero;stroke:none;stroke-width:0.35277775" />
    <path
       inkscape:connector-curvature="0"
       id="path8441"
       d="m 2.0481056,295.68781 h 0.075792 v -0.38034 h -0.075792 z m 0,0"
       style="fill:#211e1e;fill-opacity:1;fill-rule:nonzero;stroke:none;stroke-width:0.35277775" />
    <path
       inkscape:connector-curvature="0"
       id="path8443"
       d="m 3.3599978,295.68781 h 0.012404 v -1.37253 h -0.012404 z m 0,0"
       style="fill:#211e1e;fill-opacity:1;fill-rule:nonzero;stroke:none;stroke-width:0.35277775" />
    <path
       inkscape:connector-curvature="0"
       id="path8445"
       d="m 3.2594011,295.68781 h 0.012404 v -1.37253 h -0.012404 z m 0,0"
       style="fill:#211e1e;fill-opacity:1;fill-rule:nonzero;stroke:none;stroke-width:0.35277775" />
    <path
       inkscape:connector-curvature="0"
       id="path8447"
       d="m 3.1904994,294.82516 v -0.50988 h -0.033073 v 1.37253 h 0.033073 v -0.51539 c 0.015158,-0.0551 0.024805,-0.113 0.024805,-0.17363 0,-0.0593 -0.00827,-0.11713 -0.024805,-0.17363"
       style="fill:#211e1e;fill-opacity:1;fill-rule:nonzero;stroke:none;stroke-width:0.35277775" />
    <path
       inkscape:connector-curvature="0"
       id="path8449"
       d="m 3.0788786,294.60191 v -0.28663 h -0.033073 v 1.37253 h 0.033073 v -0.29077 c 0.016534,-0.022 0.033073,-0.0441 0.046853,-0.0689 v -0.65733 c -0.01378,-0.0234 -0.030318,-0.0469 -0.046853,-0.0689"
       style="fill:#211e1e;fill-opacity:1;fill-rule:nonzero;stroke:none;stroke-width:0.35277775" />
    <path
       inkscape:connector-curvature="0"
       id="path8451"
       d="m 2.9713913,294.48754 v -0.17226 h -0.034452 v 0.51401 c 0,-0.003 -0.00138,-0.004 -0.00275,-0.007 v 0.35416 c 0.00138,-10e-4 0.00275,-0.004 0.00275,-0.006 v 0.51677 h 0.034452 v -0.17639 c 0.01378,-0.0124 0.028938,-0.0262 0.042719,-0.0386 v -0.94672 c -0.01378,-0.0138 -0.028938,-0.0262 -0.042719,-0.0386"
       style="fill:#211e1e;fill-opacity:1;fill-rule:nonzero;stroke:none;stroke-width:0.35277775" />
    <path
       inkscape:connector-curvature="0"
       id="path8453"
       d="m 2.8211853,295.32538 v 0.28388 l 0.00138,-0.001 v -0.28387 c 0,0.001 -0.00138,0.001 -0.00138,0.001"
       style="fill:#ffffff;fill-opacity:1;fill-rule:nonzero;stroke:none;stroke-width:0.35277775" />
    <path
       inkscape:connector-curvature="0"
       id="path8455"
       d="m 2.8928432,294.75212 v -0.32108 c -0.012404,-0.008 -0.024805,-0.0152 -0.038585,-0.0234 v -0.0923 h -0.033073 v 1.0101 c 0,0 0.00138,0 0.00138,-0.001 v 0.28387 l -0.00138,10e-4 v 0.0786 h 0.033073 v -0.0965 c 0.01378,-0.007 0.026183,-0.0138 0.038585,-0.022 v -0.32246 c 0.00964,-0.011 0.017915,-0.0248 0.024805,-0.0372 v -0.41892 c -0.00689,-0.0138 -0.015158,-0.0262 -0.024805,-0.0386"
       style="fill:#211e1e;fill-opacity:1;fill-rule:nonzero;stroke:none;stroke-width:0.35277775" />
    <path
       inkscape:connector-curvature="0"
       id="path8457"
       d="m 2.7812223,294.64188 v -0.2701 c -0.011024,-0.004 -0.023428,-0.008 -0.034452,-0.0124 v -0.0441 h -0.031694 v 1.37253 h 0.031694 v -0.0469 c 0.011024,-0.004 0.023428,-0.01 0.034452,-0.0138 v -0.2701 c 0.00827,-0.005 0.016535,-0.011 0.024804,-0.0179 v -0.678 c -0.00827,-0.007 -0.016534,-0.0124 -0.024804,-0.0193"
       style="fill:#211e1e;fill-opacity:1;fill-rule:nonzero;stroke:none;stroke-width:0.35277775" />
    <path
       inkscape:connector-curvature="0"
       id="path8459"
       d="m 2.6820035,294.82378 v -0.23703 c -0.012404,-0.006 -0.026183,-0.011 -0.038585,-0.0152 v -0.25632 h -0.034452 v 1.37253 h 0.034452 v -0.26045 c 0.012404,-0.004 0.026183,-0.01 0.038585,-0.0138 v -0.23702 c 0.00827,-0.008 0.016535,-0.0165 0.023428,-0.0248 v -0.30317 c -0.00689,-0.008 -0.015159,-0.0179 -0.023428,-0.0248"
       style="fill:#211e1e;fill-opacity:1;fill-rule:nonzero;stroke:none;stroke-width:0.35277775" />
    <path
       inkscape:connector-curvature="0"
       id="path8461"
       d="m 2.5400655,294.97399 c 0.00551,0.003 0.00964,0.006 0.01378,0.01 0,0 0,10e-4 0.00138,0.004 0.00138,0.004 0.00413,0.011 0.00413,0.011 l -0.00413,0.0124 -0.00138,10e-4 v 0.003 c -0.00413,0.003 -0.00827,0.006 -0.01378,0.008 z m 0.037207,-0.21222 v -0.44649 h -0.068902 c -0.00689,0 -0.015159,-10e-4 -0.022048,-10e-4 h -0.00138 v 10e-4 h -0.012404 v 1.37253 h 0.067524 v -0.23565 c 0.012404,-0.003 0.024804,-0.006 0.037207,-0.008 v -0.20533 c 0.00827,-0.003 0.016538,-0.005 0.024804,-0.01 v -0.45751 c -0.00827,-0.004 -0.016535,-0.007 -0.024804,-0.01"
       style="fill:#211e1e;fill-opacity:1;fill-rule:nonzero;stroke:none;stroke-width:0.35277775" />
    <path
       inkscape:connector-curvature="0"
       id="path8463"
       d="m 0.66179944,295.94963 c 0,0.0455 -0.035829,0.0524 -0.048231,0.0524 -0.015159,0 -0.049609,-0.007 -0.052365,-0.0524 v -0.17638 h -0.035829 v 0.17638 c 0,0.0276 0.00964,0.0496 0.024804,0.0634 0.017914,0.0165 0.038585,0.0234 0.06339,0.0248 0.023428,-10e-4 0.042719,-0.008 0.060634,-0.0248 0.015159,-0.0138 0.024804,-0.0358 0.023428,-0.0634 v -0.17638 h -0.035829 z m 0,0"
       style="fill:#211e1e;fill-opacity:1;fill-rule:nonzero;stroke:none;stroke-width:0.35277775" />
    <path
       inkscape:connector-curvature="0"
       id="path8465"
       d="m 0.80235914,295.99787 h -0.044097 v -0.18879 h 0.044097 c 0.071658,-10e-4 0.096463,0.0551 0.095085,0.0923 0.00138,0.073 -0.048231,0.0965 -0.095085,0.0965 m 0.00413,-0.22462 h -0.084061 v 0.26045 h 0.079926 c 0.037207,-10e-4 0.071658,-0.01 0.1033529,-0.04 0.017914,-0.0179 0.030318,-0.0551 0.031693,-0.0923 -0.00138,-0.0234 -0.00827,-0.0551 -0.027562,-0.0799 -0.019293,-0.0275 -0.052366,-0.0482 -0.1033529,-0.0482"
       style="fill:#211e1e;fill-opacity:1;fill-rule:nonzero;stroke:none;stroke-width:0.35277775" />
    <path
       inkscape:connector-curvature="0"
       id="path8467"
       d="m 0.95807774,296.0337 h 0.037207 v -0.25908 h -0.037207 z m 0,0"
       style="fill:#211e1e;fill-opacity:1;fill-rule:nonzero;stroke:none;stroke-width:0.35277775" />
    <path
       inkscape:connector-curvature="0"
       id="path8469"
       d="m 1.1454909,296.00062 c -0.064768,10e-4 -0.095085,-0.0551 -0.095085,-0.0992 0,-0.04 0.030318,-0.0979 0.095085,-0.0992 0.066146,0.001 0.099219,0.0551 0.1005967,0.10335 -0.00138,0.0386 -0.031694,0.0965 -0.1005967,0.0951 m 0,-0.23151 c -0.07717,-10e-4 -0.13367,0.0634 -0.1309138,0.1323 -0.00275,0.073 0.055122,0.13642 0.1309138,0.13642 0.078548,0 0.1364258,-0.0634 0.1364258,-0.13229 0,-0.0758 -0.057878,-0.13781 -0.1364258,-0.13643"
       style="fill:#211e1e;fill-opacity:1;fill-rule:nonzero;stroke:none;stroke-width:0.35277775" />
    <path
       inkscape:connector-curvature="0"
       id="path8471"
       d="m 1.4900002,295.99787 h -0.044097 v -0.18879 h 0.044097 c 0.071658,-10e-4 0.096463,0.0551 0.096463,0.0923 0,0.073 -0.050987,0.0965 -0.096463,0.0965 m 0,-0.22462 h -0.08406 v 0.26045 h 0.08406 c 0.037207,-10e-4 0.071658,-0.01 0.1005971,-0.04 0.020669,-0.0179 0.033073,-0.0551 0.031693,-0.0923 0.00138,-0.0234 -0.00689,-0.0551 -0.024804,-0.0799 -0.019293,-0.0275 -0.052366,-0.0482 -0.1074871,-0.0482"
       style="fill:#211e1e;fill-opacity:1;fill-rule:nonzero;stroke:none;stroke-width:0.35277775" />
    <path
       inkscape:connector-curvature="0"
       id="path8473"
       d="m 1.6415846,296.0337 h 0.1405597 v -0.0358 H 1.6787917 v -0.0799 h 0.1033526 v -0.0331 H 1.6787917 v -0.0758 h 0.1033526 v -0.0345 H 1.6415846 Z m 0,0"
       style="fill:#211e1e;fill-opacity:1;fill-rule:nonzero;stroke:none;stroke-width:0.35277775" />
    <path
       inkscape:connector-curvature="0"
       id="path8475"
       d="m 1.874473,295.87384 c -0.011024,-0.004 -0.034452,-0.011 -0.035829,-0.0372 0.00138,-0.0138 0.01378,-0.0331 0.035829,-0.0358 0.015159,0.003 0.037207,0.011 0.035829,0.04 h 0.039963 c -0.00138,-0.0441 -0.033073,-0.073 -0.075792,-0.0717 -0.048231,-10e-4 -0.071658,0.04 -0.073036,0.0675 0.00138,0.0207 0.00689,0.0386 0.016535,0.0524 0.013779,0.01 0.022048,0.0138 0.056499,0.0289 0.017914,0.006 0.041341,0.0124 0.044097,0.04 -0.00275,0.0276 -0.020669,0.0441 -0.044097,0.0427 -0.038585,0.001 -0.041341,-0.0358 -0.039963,-0.0427 H 1.794545 c 0,0.0551 0.044097,0.0799 0.079926,0.0799 0.048231,0 0.079926,-0.0345 0.079926,-0.0799 0,-0.062 -0.046853,-0.0716 -0.079926,-0.0841"
       style="fill:#211e1e;fill-opacity:1;fill-rule:nonzero;stroke:none;stroke-width:0.35277775" />
    <path
       inkscape:connector-curvature="0"
       id="path8477"
       d="m 2.0935811,295.80081 c 0.044097,0.003 0.067524,0.0303 0.07717,0.04 h 0.042719 c -0.00689,-0.0124 -0.016535,-0.0303 -0.039963,-0.0469 -0.027563,-0.0207 -0.059256,-0.0262 -0.079926,-0.0248 -0.071658,-0.001 -0.1322916,0.0565 -0.1309137,0.13229 -0.00138,0.0744 0.057878,0.13642 0.1309137,0.13642 0.041341,0 0.089572,-0.0193 0.1198891,-0.0675 h -0.046853 c -0.019293,0.0193 -0.044097,0.0317 -0.073036,0.0303 -0.049609,10e-4 -0.093707,-0.0427 -0.095085,-0.0992 0.00138,-0.0537 0.042719,-0.0978 0.095085,-0.1006"
       style="fill:#211e1e;fill-opacity:1;fill-rule:nonzero;stroke:none;stroke-width:0.35277775" />
    <path
       inkscape:connector-curvature="0"
       id="path8479"
       d="m 2.2975308,295.90554 h -0.027563 v -0.0951 h 0.039963 c 0.042719,-0.003 0.057877,0.0234 0.0565,0.0469 0.00138,0.0482 -0.055122,0.0496 -0.068902,0.0482 m 0.1088651,-0.0482 c -0.00138,-0.0234 -0.00827,-0.0469 -0.024804,-0.0634 -0.01378,-0.0124 -0.031694,-0.0207 -0.067524,-0.0207 h -0.079926 v 0.26045 h 0.035829 v -0.11989 l 0.088194,0.11989 h 0.044097 l -0.071658,-0.0965 c 0.017914,-10e-4 0.074414,-0.0124 0.075792,-0.0799"
       style="fill:#211e1e;fill-opacity:1;fill-rule:nonzero;stroke:none;stroke-width:0.35277775" />
    <path
       inkscape:connector-curvature="0"
       id="path8481"
       d="m 2.4256882,296.0337 h 0.037207 v -0.25908 h -0.037207 z m 0,0"
       style="fill:#211e1e;fill-opacity:1;fill-rule:nonzero;stroke:none;stroke-width:0.35277775" />
    <path
       inkscape:connector-curvature="0"
       id="path8483"
       d="m 2.6627108,295.80908 h 0.046853 v 0.22462 h 0.037207 v -0.22462 h 0.050987 v -0.0358 h -0.135047 z m 0,0"
       style="fill:#211e1e;fill-opacity:1;fill-rule:nonzero;stroke:none;stroke-width:0.35277775" />
    <path
       inkscape:connector-curvature="0"
       id="path8485"
       d="m 2.8184291,296.0337 h 0.035829 v -0.25908 h -0.035829 z m 0,0"
       style="fill:#211e1e;fill-opacity:1;fill-rule:nonzero;stroke:none;stroke-width:0.35277775" />
    <path
       inkscape:connector-curvature="0"
       id="path8487"
       d="m 3.0099763,296.00062 c -0.067524,10e-4 -0.097841,-0.0551 -0.095084,-0.0992 -0.00275,-0.04 0.027563,-0.0979 0.095084,-0.0992 0.06339,0.001 0.096463,0.0551 0.096463,0.10335 0,0.0386 -0.030318,0.0965 -0.096463,0.0951 m 0,-0.23151 c -0.079926,-10e-4 -0.1350478,0.0634 -0.1364258,0.1323 0.00138,0.073 0.059256,0.13642 0.1364258,0.13642 0.07717,0 0.1336696,-0.0634 0.1364261,-0.13229 -0.00275,-0.0758 -0.059256,-0.13781 -0.1364261,-0.13643"
       style="fill:#211e1e;fill-opacity:1;fill-rule:nonzero;stroke:none;stroke-width:0.35277775" />
    <path
       inkscape:connector-curvature="0"
       id="path8489"
       d="m 3.3420834,295.77325 v 0.19568 l -0.1240231,-0.19568 h -0.044097 v 0.26045 h 0.039963 v -0.19982 l 0.1281573,0.19982 h 0.039963 v -0.26045 z m 0,0"
       style="fill:#211e1e;fill-opacity:1;fill-rule:nonzero;stroke:none;stroke-width:0.35277775" />
    <path
       inkscape:connector-curvature="0"
       id="path8491"
       d="m 0.47025202,295.92483 h -0.0606337 l 0.0606337,-0.0951 z m -0.1763889,0.10887 h 0.0440972 l 0.0440972,-0.0717 h 0.0881944 v 0.0717 h 0.0358292 v -0.26045 h -0.039963 z m 0,0"
       style="fill:#211e1e;fill-opacity:1;fill-rule:nonzero;stroke:none;stroke-width:0.35277775" />
    <path
       inkscape:connector-curvature="0"
       id="path8493"
       d="M 2.566248,295.89314 H 2.530419 v -0.0827 h 0.035829 c 0.044097,-0.003 0.055121,0.0221 0.0565,0.0441 -0.00138,0.0165 -0.012404,0.04 -0.0565,0.0386 m 0,-0.11989 H 2.49459 v 0.26045 h 0.035829 v -0.10336 h 0.035829 c 0.06339,0 0.092329,-0.0317 0.092329,-0.0758 0,-0.0496 -0.028938,-0.0813 -0.092329,-0.0813"
       style="fill:#211e1e;fill-opacity:1;fill-rule:nonzero;stroke:none;stroke-width:0.35277775" />
  </g>
</svg>
