<?xml version="1.0" encoding="UTF-8" standalone="no"?>
<!-- Created with Inkscape (http://www.inkscape.org/) -->

<svg
   xmlns:dc="http://purl.org/dc/elements/1.1/"
   xmlns:cc="http://creativecommons.org/ns#"
   xmlns:rdf="http://www.w3.org/1999/02/22-rdf-syntax-ns#"
   xmlns:svg="http://www.w3.org/2000/svg"
   xmlns="http://www.w3.org/2000/svg"
   xmlns:sodipodi="http://sodipodi.sourceforge.net/DTD/sodipodi-0.dtd"
   xmlns:inkscape="http://www.inkscape.org/namespaces/inkscape"
   width="3.75mm"
   height="3.75mm"
   viewBox="0 0 3.75 3.75"
   version="1.1"
   id="svg13826"
   inkscape:version="0.92.1 r15371"
   sodipodi:docname="large_print_light.svg">
  <defs
     id="defs13820" />
  <sodipodi:namedview
     id="base"
     pagecolor="#ffffff"
     bordercolor="#666666"
     borderopacity="1.0"
     inkscape:pageopacity="0.0"
     inkscape:pageshadow="2"
     inkscape:zoom="28.687777"
     inkscape:cx="5.308224"
     inkscape:cy="11.208967"
     inkscape:document-units="mm"
     inkscape:current-layer="layer1"
     showgrid="false"
     inkscape:window-width="561"
     inkscape:window-height="558"
     inkscape:window-x="687"
     inkscape:window-y="78"
     inkscape:window-maximized="0"
     showguides="true"
     inkscape:guide-bbox="true"
     gridtolerance="10"
     guidetolerance="2">
    <inkscape:grid
       type="xygrid"
       id="grid13828" />
    <sodipodi:guide
       position="0.13043093,3.8477124"
       orientation="1,0"
       id="guide20533"
       inkscape:locked="false" />
    <sodipodi:guide
       position="1.9173346,3.6129367"
       orientation="0,1"
       id="guide20535"
       inkscape:locked="false" />
  </sodipodi:namedview>
  <metadata
     id="metadata13823">
    <rdf:RDF>
      <cc:Work
         rdf:about="">
        <dc:format>image/svg+xml</dc:format>
        <dc:type
           rdf:resource="http://purl.org/dc/dcmitype/StillImage" />
        <dc:title></dc:title>
      </cc:Work>
    </rdf:RDF>
  </metadata>
  <g
     inkscape:label="Layer 1"
     inkscape:groupmode="layer"
     id="layer1"
     transform="translate(0,-293.25)">
    <path
       inkscape:connector-curvature="0"
       id="path8133"
       d="m 0.55177644,293.44911 c -0.19016909,0 -0.34588766,0.15572 -0.34588766,0.34727 v 2.6541 c 0,0.19017 0.15571857,0.34588 0.34588766,0.34588 H 3.2072561 c 0.1901691,0 0.3472657,-0.15571 0.3472657,-0.34588 v -2.6541 c 0,-0.19155 -0.1570966,-0.34727 -0.3472657,-0.34727 z m 0,0"
       style="fill:#ffffff;fill-opacity:1;fill-rule:nonzero;stroke:none;stroke-width:0.35277775" />
    <path
       inkscape:connector-curvature="0"
       id="path8135"
       d="m 0.55177644,296.86802 c -0.23013246,0 -0.41754565,-0.18741 -0.41754565,-0.41754 v -2.6541 c 0,-0.23014 0.18741319,-0.41755 0.41754565,-0.41755 H 3.2072561 c 0.2301325,0 0.4175456,0.18741 0.4175456,0.41755 v 2.6541 c 0,0.23013 -0.1874131,0.41754 -0.4175456,0.41754 z m 0,0"
       style="fill:#211e1e;fill-opacity:1;fill-rule:nonzero;stroke:none;stroke-width:0.35277775" />
    <path
       inkscape:connector-curvature="0"
       id="path8137"
       d="M 0.6950924,295.75595 H 0.6592636 v 0.17638 c -0.001376,0.0455 -0.0358292,0.0524 -0.0482314,0.0524 -0.0151588,0 -0.0509873,-0.007 -0.0523656,-0.0524 v -0.17638 H 0.5228378 v 0.17638 c 0,0.0289 0.009645,0.051 0.0234281,0.0634 0.0192934,0.0165 0.039963,0.0248 0.0647679,0.0248 0.0220485,0 0.0427189,-0.008 0.0606337,-0.0248 0.0151588,-0.0124 0.0248039,-0.0345 0.0234281,-0.0634 z m 0,0"
       style="fill:#ffffff;fill-opacity:1;fill-rule:evenodd;stroke:none;stroke-width:0.35277775" />
    <path
       inkscape:connector-curvature="0"
       id="path8139"
       d="m 0.75572609,295.79178 h 0.0440972 c 0.071658,-0.001 0.0950845,0.0551 0.0950845,0.0923 0,0.073 -0.0482311,0.0965 -0.0950845,0.0965 h -0.0440972 z m -0.0372071,0.22462 h 0.0813043 c 0.0358292,-10e-4 0.071658,-0.01 0.10335298,-0.04 0.017914,-0.0179 0.030318,-0.0551 0.031694,-0.0923 -0.00138,-0.0234 -0.00964,-0.0551 -0.027562,-0.0799 -0.019293,-0.0275 -0.0523653,-0.0482 -0.10335264,-0.0482 h -0.0854385 z m 0,0"
       style="fill:#ffffff;fill-opacity:1;fill-rule:evenodd;stroke:none;stroke-width:0.35277775" />
    <path
       inkscape:connector-curvature="0"
       id="path8141"
       d="m 0.99137067,295.75595 h -0.037207 v 0.26045 h 0.037207 z m 0,0"
       style="fill:#ffffff;fill-opacity:1;fill-rule:evenodd;stroke:none;stroke-width:0.35277775" />
    <path
       inkscape:connector-curvature="0"
       id="path8143"
       d="m 1.2435518,295.88824 c -0.00275,0.0386 -0.033073,0.0978 -0.1005971,0.0965 -0.066146,0.001 -0.096462,-0.0565 -0.096462,-0.10059 0,-0.04 0.030318,-0.0979 0.096462,-0.0992 0.066146,0.001 0.097841,0.0565 0.1005971,0.10335 m 0.035829,0 c 0,-0.0758 -0.057877,-0.13643 -0.1364259,-0.13643 -0.078548,0 -0.1336696,0.0634 -0.1309133,0.1323 -0.00275,0.073 0.055122,0.13642 0.1309133,0.13642 0.078549,0 0.1364259,-0.0634 0.1364259,-0.13229"
       style="fill:#ffffff;fill-opacity:1;fill-rule:evenodd;stroke:none;stroke-width:0.35277775" />
    <path
       inkscape:connector-curvature="0"
       id="path8145"
       d="m 1.4433672,295.79178 h 0.044097 c 0.071658,-0.001 0.095084,0.0551 0.095084,0.0923 0,0.073 -0.049609,0.0965 -0.095084,0.0965 h -0.044097 z m -0.039963,0.22462 h 0.084061 c 0.037207,-10e-4 0.071658,-0.01 0.099219,-0.04 0.022048,-0.0179 0.034452,-0.0551 0.031693,-0.0923 0.00275,-0.0234 -0.00551,-0.0551 -0.023428,-0.0799 -0.020669,-0.0275 -0.052365,-0.0482 -0.1074867,-0.0482 h -0.084061 z m 0,0"
       style="fill:#ffffff;fill-opacity:1;fill-rule:evenodd;stroke:none;stroke-width:0.35277775" />
    <path
       inkscape:connector-curvature="0"
       id="path8147"
       d="m 1.7796085,296.0164 v -0.0358 H 1.6762556 v -0.0799 h 0.1033529 v -0.0331 H 1.6762556 v -0.0758 h 0.1033529 v -0.0358 h -0.14056 v 0.26046 z m 0,0"
       style="fill:#ffffff;fill-opacity:1;fill-rule:evenodd;stroke:none;stroke-width:0.35277775" />
    <path
       inkscape:connector-curvature="0"
       id="path8149"
       d="m 1.7920108,295.9406 c 0,0.0551 0.044097,0.0799 0.078548,0.0799 0.048231,0 0.079926,-0.0331 0.079926,-0.0799 0,-0.0606 -0.046854,-0.0717 -0.079926,-0.0841 -0.00964,-0.004 -0.033073,-0.01 -0.034452,-0.0358 0.00138,-0.0152 0.01378,-0.0345 0.034452,-0.0358 0.016535,0.001 0.038585,0.01 0.035829,0.04 h 0.039963 c 0,-0.0455 -0.031694,-0.073 -0.075792,-0.073 -0.046853,0 -0.071658,0.04 -0.071658,0.0689 0,0.0193 0.00689,0.0386 0.016535,0.051 0.012404,0.01 0.022048,0.0138 0.055121,0.0289 0.019294,0.006 0.042719,0.0124 0.044097,0.04 -0.00138,0.0289 -0.019293,0.0455 -0.044097,0.0441 -0.037207,10e-4 -0.041341,-0.0372 -0.039963,-0.0441 z m 0,0"
       style="fill:#ffffff;fill-opacity:1;fill-rule:evenodd;stroke:none;stroke-width:0.35277775" />
    <path
       inkscape:connector-curvature="0"
       id="path8151"
       d="m 2.2109344,295.82485 c -0.00689,-0.0138 -0.016535,-0.0317 -0.039963,-0.0482 -0.027563,-0.0207 -0.059256,-0.0248 -0.079926,-0.0248 -0.071658,0 -0.1322917,0.0565 -0.1322917,0.13229 0,0.0744 0.059256,0.13642 0.1322917,0.13642 0.039963,0 0.089573,-0.0193 0.1198894,-0.0689 h -0.048231 c -0.017914,0.0207 -0.044097,0.0345 -0.071658,0.0331 -0.049609,0.001 -0.093707,-0.0441 -0.095085,-0.1006 0.00138,-0.0524 0.042719,-0.0978 0.095085,-0.0992 0.042719,10e-4 0.067524,0.0289 0.07717,0.04 z m 0,0"
       style="fill:#ffffff;fill-opacity:1;fill-rule:evenodd;stroke:none;stroke-width:0.35277775" />
    <path
       inkscape:connector-curvature="0"
       id="path8153"
       d="m 2.2674339,295.79178 h 0.039963 c 0.042719,-0.001 0.0565,0.0248 0.055121,0.0482 0.00138,0.0496 -0.053743,0.0496 -0.067524,0.0482 h -0.027562 z m 0.1322916,0.22462 -0.071658,-0.0965 c 0.017914,-10e-4 0.074414,-0.0124 0.075792,-0.0799 -0.00138,-0.0234 -0.00827,-0.0469 -0.024804,-0.0634 -0.01378,-0.0124 -0.031694,-0.0207 -0.067524,-0.0207 h -0.081304 v 0.26045 h 0.037207 v -0.11989 l 0.088194,0.11989 z m 0,0"
       style="fill:#ffffff;fill-opacity:1;fill-rule:evenodd;stroke:none;stroke-width:0.35277775" />
    <path
       inkscape:connector-curvature="0"
       id="path8155"
       d="m 2.4589813,295.75595 h -0.035829 v 0.26045 h 0.035829 z m 0,0"
       style="fill:#ffffff;fill-opacity:1;fill-rule:evenodd;stroke:none;stroke-width:0.35277775" />
    <path
       inkscape:connector-curvature="0"
       id="path8157"
       d="m 2.5637122,295.87584 h -0.037207 v -0.0841 h 0.037207 c 0.044097,-10e-4 0.053744,0.0234 0.055122,0.0441 -0.00138,0.0179 -0.011024,0.0427 -0.055122,0.04 m 0,-0.11989 h -0.071658 v 0.26045 h 0.034452 v -0.10473 h 0.037207 c 0.06339,10e-4 0.092329,-0.0317 0.092329,-0.0758 0,-0.0482 -0.028938,-0.0799 -0.092329,-0.0799"
       style="fill:#ffffff;fill-opacity:1;fill-rule:evenodd;stroke:none;stroke-width:0.35277775" />
    <path
       inkscape:connector-curvature="0"
       id="path8159"
       d="m 2.7442353,296.0164 v -0.22462 h 0.050987 v -0.0358 H 2.6601747 v 0.0358 h 0.046853 v 0.22462 z m 0,0"
       style="fill:#ffffff;fill-opacity:1;fill-rule:evenodd;stroke:none;stroke-width:0.35277775" />
    <path
       inkscape:connector-curvature="0"
       id="path8161"
       d="M 2.851722,295.75595 H 2.814515 v 0.26045 h 0.037207 z m 0,0"
       style="fill:#ffffff;fill-opacity:1;fill-rule:evenodd;stroke:none;stroke-width:0.35277775" />
    <path
       inkscape:connector-curvature="0"
       id="path8163"
       d="m 3.0074407,295.9847 c -0.067524,0.001 -0.097841,-0.0565 -0.095085,-0.10059 -0.00275,-0.04 0.027562,-0.0979 0.095085,-0.0992 0.063389,10e-4 0.096462,0.0565 0.095084,0.10335 0.00138,0.0386 -0.028938,0.0978 -0.095084,0.0965 m 0,-0.23289 c -0.079926,0 -0.136426,0.0634 -0.136426,0.1323 0,0.073 0.057878,0.13642 0.136426,0.13642 0.07717,0 0.1336696,-0.0634 0.1364255,-0.13229 -0.00275,-0.0758 -0.059255,-0.13643 -0.1364255,-0.13643"
       style="fill:#ffffff;fill-opacity:1;fill-rule:evenodd;stroke:none;stroke-width:0.35277775" />
    <path
       inkscape:connector-curvature="0"
       id="path8165"
       d="m 3.3795107,296.0164 v -0.26045 h -0.039963 v 0.19568 L 3.215524,295.75595 H 3.171427 v 0.26045 H 3.21139 v -0.19982 l 0.1281578,0.19982 z m 0,0"
       style="fill:#ffffff;fill-opacity:1;fill-rule:evenodd;stroke:none;stroke-width:0.35277775" />
    <path
       inkscape:connector-curvature="0"
       id="path8167"
       d="m 0.46358201,295.75595 -0.17225469,0.26045 h 0.0440972 l 0.0440972,-0.0717 h 0.0881944 v 0.0717 h 0.0344523 v -0.26045 z m -0.0564995,0.15158 0.0606337,-0.0951 v 0.0951 z m 0,0"
       style="fill:#ffffff;fill-opacity:1;fill-rule:evenodd;stroke:none;stroke-width:0.35277775" />
    <path
       inkscape:connector-curvature="0"
       id="path8169"
       d="m 2.2384951,294.29798 h -0.062012 v 0.091 l 0.057878,-0.0868 z m 0,0"
       style="fill:#ffffff;fill-opacity:1;fill-rule:nonzero;stroke:none;stroke-width:0.35277775" />
    <path
       inkscape:connector-curvature="0"
       id="path8171"
       d="m 2.2508974,295.10551 v -0.50712 h -0.00689 l -0.067524,0.10749 v 0.39963 z m 0,0"
       style="fill:#ffffff;fill-opacity:1;fill-rule:nonzero;stroke:none;stroke-width:0.35277775" />
    <path
       inkscape:connector-curvature="0"
       id="path8173"
       d="m 2.1764835,295.67051 h 0.075792 v -0.38034 h -0.075792 z m 0,0"
       style="fill:#ffffff;fill-opacity:1;fill-rule:nonzero;stroke:none;stroke-width:0.35277775" />
    <path
       inkscape:connector-curvature="0"
       id="path8175"
       d="m 0.49941082,295.67051 h 0.0165383 v -1.37253 h -0.0165383 z m 0,0"
       style="fill:#ffffff;fill-opacity:1;fill-rule:nonzero;stroke:none;stroke-width:0.35277775" />
    <path
       inkscape:connector-curvature="0"
       id="path8177"
       d="m 0.62205647,295.67051 h 0.0165347 v -1.37253 h -0.0165346 z m 0,0"
       style="fill:#ffffff;fill-opacity:1;fill-rule:nonzero;stroke:none;stroke-width:0.35277775" />
    <path
       inkscape:connector-curvature="0"
       id="path8179"
       d="m 0.74194553,295.67051 h 0.0330729 v -1.37253 h -0.0330729 z m 0,0"
       style="fill:#ffffff;fill-opacity:1;fill-rule:nonzero;stroke:none;stroke-width:0.35277775" />
    <path
       inkscape:connector-curvature="0"
       id="path8181"
       d="m 0.87423717,295.67051 h 0.033073 v -1.37253 h -0.033073 z m 0,0"
       style="fill:#ffffff;fill-opacity:1;fill-rule:nonzero;stroke:none;stroke-width:0.35277775" />
    <path
       inkscape:connector-curvature="0"
       id="path8183"
       d="m 1.0134194,295.67051 h 0.035829 v -1.37253 h -0.035829 z m 0,0"
       style="fill:#ffffff;fill-opacity:1;fill-rule:nonzero;stroke:none;stroke-width:0.35277775" />
    <path
       inkscape:connector-curvature="0"
       id="path8185"
       d="M 1.145711,295.67051 H 1.18154 v -1.37253 H 1.145711 Z m 0,0"
       style="fill:#ffffff;fill-opacity:1;fill-rule:nonzero;stroke:none;stroke-width:0.35277775" />
    <path
       inkscape:connector-curvature="0"
       id="path8187"
       d="m 1.2780026,295.67051 h 0.035829 v -1.37253 h -0.035829 z m 0,0"
       style="fill:#ffffff;fill-opacity:1;fill-rule:nonzero;stroke:none;stroke-width:0.35277775" />
    <path
       inkscape:connector-curvature="0"
       id="path8189"
       d="m 1.4557695,294.29798 h -0.066146 v 1.25677 l 0.066146,-0.0965 z m 0,0"
       style="fill:#ffffff;fill-opacity:1;fill-rule:nonzero;stroke:none;stroke-width:0.35277775" />
    <path
       inkscape:connector-curvature="0"
       id="path8191"
       d="m 1.5963295,294.29798 h -0.066146 v 1.04869 l 0.066146,-0.0965 z m 0,0"
       style="fill:#ffffff;fill-opacity:1;fill-rule:nonzero;stroke:none;stroke-width:0.35277775" />
    <path
       inkscape:connector-curvature="0"
       id="path8193"
       d="m 1.5963295,295.67051 v -0.0717 l -0.048231,0.0717 z m 0,0"
       style="fill:#ffffff;fill-opacity:1;fill-rule:nonzero;stroke:none;stroke-width:0.35277775" />
    <path
       inkscape:connector-curvature="0"
       id="path8195"
       d="m 1.7162186,294.29798 h -0.066146 v 0.87092 l 0.066146,-0.0965 z m 0,0"
       style="fill:#ffffff;fill-opacity:1;fill-rule:nonzero;stroke:none;stroke-width:0.35277775" />
    <path
       inkscape:connector-curvature="0"
       id="path8197"
       d="m 1.6514511,295.67051 h 0.064768 v -0.25356 l -0.064768,0.0992 z m 0,0"
       style="fill:#ffffff;fill-opacity:1;fill-rule:nonzero;stroke:none;stroke-width:0.35277775" />
    <path
       inkscape:connector-curvature="0"
       id="path8199"
       d="m 1.8581566,294.29798 h -0.07717 v 0.678 l 0.07717,-0.11438 z m 0,0"
       style="fill:#ffffff;fill-opacity:1;fill-rule:nonzero;stroke:none;stroke-width:0.35277775" />
    <path
       inkscape:connector-curvature="0"
       id="path8201"
       d="m 1.7809865,295.31773 v 0.35278 h 0.07717 v -0.38034 h -0.059256 z m 0,0"
       style="fill:#ffffff;fill-opacity:1;fill-rule:nonzero;stroke:none;stroke-width:0.35277775" />
    <path
       inkscape:connector-curvature="0"
       id="path8203"
       d="m 1.9132782,295.67051 h 0.07717 v -0.38034 h -0.07717 z m 0,0"
       style="fill:#ffffff;fill-opacity:1;fill-rule:nonzero;stroke:none;stroke-width:0.35277775" />
    <path
       inkscape:connector-curvature="0"
       id="path8205"
       d="m 1.9311926,295.10551 h 0.057878 v -0.0937 z m 0,0"
       style="fill:#ffffff;fill-opacity:1;fill-rule:nonzero;stroke:none;stroke-width:0.35277775" />
    <path
       inkscape:connector-curvature="0"
       id="path8207"
       d="m 1.9904483,294.29798 h -0.078548 v 0.48232 l 0.078548,-0.11438 z m 0,0"
       style="fill:#ffffff;fill-opacity:1;fill-rule:nonzero;stroke:none;stroke-width:0.35277775" />
    <path
       inkscape:connector-curvature="0"
       id="path8209"
       d="m 2.0455698,294.92086 v 0.18465 h 0.075792 v -0.30868 z m 0,0"
       style="fill:#ffffff;fill-opacity:1;fill-rule:nonzero;stroke:none;stroke-width:0.35277775" />
    <path
       inkscape:connector-curvature="0"
       id="path8211"
       d="m 2.121362,294.29798 h -0.07717 v 0.28663 l 0.07717,-0.11437 z m 0,0"
       style="fill:#ffffff;fill-opacity:1;fill-rule:nonzero;stroke:none;stroke-width:0.35277775" />
    <path
       inkscape:connector-curvature="0"
       id="path8213"
       d="m 2.0455698,295.67051 h 0.075792 v -0.38034 h -0.075792 z m 0,0"
       style="fill:#ffffff;fill-opacity:1;fill-rule:nonzero;stroke:none;stroke-width:0.35277775" />
    <path
       inkscape:connector-curvature="0"
       id="path8215"
       d="m 3.3560843,295.67051 h 0.01378 v -1.37253 h -0.01378 z m 0,0"
       style="fill:#ffffff;fill-opacity:1;fill-rule:nonzero;stroke:none;stroke-width:0.35277775" />
    <path
       inkscape:connector-curvature="0"
       id="path8217"
       d="m 3.2568655,295.67051 h 0.012404 v -1.37253 h -0.012404 z m 0,0"
       style="fill:#ffffff;fill-opacity:1;fill-rule:nonzero;stroke:none;stroke-width:0.35277775" />
    <path
       inkscape:connector-curvature="0"
       id="path8219"
       d="m 3.1879633,294.80786 v -0.50988 h -0.033073 v 1.37253 h 0.033073 v -0.51539 c 0.015158,-0.0551 0.023429,-0.113 0.023429,-0.17363 0,-0.0593 -0.00689,-0.11713 -0.023429,-0.17363"
       style="fill:#ffffff;fill-opacity:1;fill-rule:nonzero;stroke:none;stroke-width:0.35277775" />
    <path
       inkscape:connector-curvature="0"
       id="path8221"
       d="m 3.0763424,294.58461 v -0.28663 h -0.034452 v 1.37253 h 0.034452 v -0.28939 c 0.016534,-0.0221 0.033073,-0.0455 0.046853,-0.0689 v -0.65871 c -0.01378,-0.0234 -0.030318,-0.0469 -0.046853,-0.0689"
       style="fill:#ffffff;fill-opacity:1;fill-rule:nonzero;stroke:none;stroke-width:0.35277775" />
    <path
       inkscape:connector-curvature="0"
       id="path8223"
       d="m 2.9688552,294.47024 v -0.17226 h -0.034452 v 0.51401 c -0.00138,-0.003 -0.00275,-0.004 -0.00275,-0.007 v 0.35416 c 0,-0.001 0.00138,-0.004 0.00275,-0.006 v 0.51677 h 0.034452 v -0.17639 c 0.01378,-0.0124 0.028938,-0.0262 0.041341,-0.0386 v -0.94672 c -0.012404,-0.0124 -0.027563,-0.0262 -0.041341,-0.0386"
       style="fill:#ffffff;fill-opacity:1;fill-rule:nonzero;stroke:none;stroke-width:0.35277775" />
    <path
       inkscape:connector-curvature="0"
       id="path8225"
       d="m 2.8186491,295.30808 v 0.28388 h 0.00138 v -0.28388 z m 0,0"
       style="fill:#ffffff;fill-opacity:1;fill-rule:nonzero;stroke:none;stroke-width:0.35277775" />
    <path
       inkscape:connector-curvature="0"
       id="path8227"
       d="m 2.890307,294.73482 v -0.32108 c -0.012404,-0.008 -0.024805,-0.0152 -0.038585,-0.0221 v -0.0937 H 2.818649 v 1.0101 h 0.00138 v 0.28388 h -0.00138 v 0.0786 h 0.033073 v -0.0965 c 0.01378,-0.007 0.026183,-0.0138 0.038585,-0.022 v -0.32109 c 0.00827,-0.0124 0.017915,-0.0262 0.024805,-0.0386 v -0.41892 c -0.00689,-0.0138 -0.016534,-0.0262 -0.024805,-0.0386"
       style="fill:#ffffff;fill-opacity:1;fill-rule:nonzero;stroke:none;stroke-width:0.35277775" />
    <path
       inkscape:connector-curvature="0"
       id="path8229"
       d="m 2.7786861,294.62458 v -0.26872 c -0.011024,-0.006 -0.023428,-0.01 -0.034452,-0.0138 v -0.0441 h -0.031693 v 1.37253 h 0.031693 v -0.0469 c 0.011024,-0.004 0.023428,-0.008 0.034452,-0.0138 v -0.2701 c 0.00827,-0.005 0.016535,-0.011 0.023428,-0.0179 v -0.678 c -0.00689,-0.007 -0.015158,-0.0124 -0.023428,-0.0193"
       style="fill:#ffffff;fill-opacity:1;fill-rule:nonzero;stroke:none;stroke-width:0.35277775" />
    <path
       inkscape:connector-curvature="0"
       id="path8231"
       d="m 2.6794674,294.80648 v -0.23703 c -0.012404,-0.006 -0.026183,-0.011 -0.038585,-0.0152 v -0.25632 h -0.034452 v 1.37253 h 0.034452 v -0.26045 c 0.012404,-0.004 0.026183,-0.008 0.038585,-0.0138 v -0.23702 c 0.00827,-0.007 0.016535,-0.0165 0.023428,-0.0248 v -0.30317 c -0.00689,-0.008 -0.015159,-0.0166 -0.023428,-0.0248"
       style="fill:#ffffff;fill-opacity:1;fill-rule:nonzero;stroke:none;stroke-width:0.35277775" />
    <path
       inkscape:connector-curvature="0"
       id="path8233"
       d="m 2.5361514,294.95669 c 0.00689,0.003 0.011024,0.007 0.01378,0.01 0,0 0.00138,10e-4 0.00275,0.004 0.00138,0.004 0.00413,0.011 0.00413,0.011 l -0.00413,0.0124 c 0,0 0,10e-4 -0.00138,10e-4 l -0.00138,0.003 c -0.00275,0.003 -0.00689,0.007 -0.01378,0.01 z m 0.037207,-0.21222 v -0.44649 h -0.068902 c -0.00551,0 -0.01378,-10e-4 -0.020669,-10e-4 h -0.00138 v 10e-4 h -0.012404 v 1.37253 h 0.066146 v -0.23702 c 0.012404,-0.001 0.024804,-0.004 0.037207,-0.006 v -0.2067 c 0.00964,-0.003 0.017914,-0.006 0.026183,-0.01 v -0.45751 c -0.00827,-0.004 -0.016538,-0.007 -0.026183,-0.01"
       style="fill:#ffffff;fill-opacity:1;fill-rule:nonzero;stroke:none;stroke-width:0.35277775" />
  </g>
</svg>
