<?xml version="1.0" encoding="UTF-8" standalone="no"?>
<!-- Created with Inkscape (http://www.inkscape.org/) -->

<svg
   xmlns:dc="http://purl.org/dc/elements/1.1/"
   xmlns:cc="http://creativecommons.org/ns#"
   xmlns:rdf="http://www.w3.org/1999/02/22-rdf-syntax-ns#"
   xmlns:svg="http://www.w3.org/2000/svg"
   xmlns="http://www.w3.org/2000/svg"
   xmlns:sodipodi="http://sodipodi.sourceforge.net/DTD/sodipodi-0.dtd"
   xmlns:inkscape="http://www.inkscape.org/namespaces/inkscape"
   width="3.75mm"
   height="3.75mm"
   viewBox="0 0 3.75 3.75"
   version="1.1"
   id="svg13826"
   inkscape:version="0.92.1 r15371"
   sodipodi:docname="large_print_light.svg">
  <defs
     id="defs13820" />
  <sodipodi:namedview
     id="base"
     pagecolor="#ffffff"
     bordercolor="#666666"
     borderopacity="1.0"
     inkscape:pageopacity="0.0"
     inkscape:pageshadow="2"
     inkscape:zoom="28.687777"
     inkscape:cx="7.4387043"
     inkscape:cy="7.2119163"
     inkscape:document-units="mm"
     inkscape:current-layer="layer1"
     showgrid="false"
     inkscape:window-width="561"
     inkscape:window-height="558"
     inkscape:window-x="687"
     inkscape:window-y="78"
     inkscape:window-maximized="0"
     showguides="true"
     inkscape:guide-bbox="true"
     gridtolerance="10"
     guidetolerance="2">
    <inkscape:grid
       type="xygrid"
       id="grid13828" />
    <sodipodi:guide
       position="0.13043093,3.8477124"
       orientation="1,0"
       id="guide20533"
       inkscape:locked="false" />
    <sodipodi:guide
       position="1.9173346,3.6129367"
       orientation="0,1"
       id="guide20535"
       inkscape:locked="false" />
  </sodipodi:namedview>
  <metadata
     id="metadata13823">
    <rdf:RDF>
      <cc:Work
         rdf:about="">
        <dc:format>image/svg+xml</dc:format>
        <dc:type
           rdf:resource="http://purl.org/dc/dcmitype/StillImage" />
        <dc:title></dc:title>
      </cc:Work>
    </rdf:RDF>
  </metadata>
  <g
     inkscape:label="Layer 1"
     inkscape:groupmode="layer"
     id="layer1"
     transform="translate(0,-293.25)">
    <path
       inkscape:connector-curvature="0"
       id="path7929"
       d="m 0.53596688,293.46404 c -0.19154739,0 -0.34588766,0.15434 -0.34588766,0.34588 v 2.65411 c 0,0.19154 0.15434027,0.34588 0.34588766,0.34588 H 3.1914465 c 0.1901691,0 0.3472657,-0.15434 0.3472657,-0.34588 v -2.65411 c 0,-0.19154 -0.1570966,-0.34588 -0.3472657,-0.34588 z m 0,0"
       style="fill:#ffffff;fill-opacity:1;fill-rule:nonzero;stroke:none;stroke-width:0.35277775" />
    <path
       inkscape:connector-curvature="0"
       id="path7931"
       d="m 0.53596688,296.88157 c -0.23013246,0 -0.41754565,-0.18603 -0.41754565,-0.41754 v -2.65411 c 0,-0.23013 0.18741319,-0.41754 0.41754565,-0.41754 H 3.1914465 c 0.2301325,0 0.4161674,0.18741 0.4161674,0.41754 v 2.65411 c 0,0.23151 -0.1860349,0.41754 -0.4161674,0.41754 z m 0,0"
       style="fill:#211e1e;fill-opacity:1;fill-rule:nonzero;stroke:none;stroke-width:0.35277775" />
    <path
       inkscape:connector-curvature="0"
       id="path7933"
       d="m 1.1147429,295.4677 c 0.1405597,0 0.2094618,-0.11851 0.2094618,-0.30041 0,-0.14193 -0.028938,-0.32659 -0.2094618,-0.32659 -0.17914512,0 -0.20808384,0.18466 -0.20808384,0.32659 0,0.1819 0.0689021,0.30041 0.20808384,0.30041 m 0,-0.94809 c 0.396875,0 0.6862631,0.23565 0.6862631,0.6463 0,0.40515 -0.2976562,0.62288 -0.6862631,0.62288 -0.38722864,0 -0.68488486,-0.21773 -0.68488486,-0.62288 0,-0.41065 0.28800988,-0.6463 0.68488486,-0.6463"
       style="fill:#ffffff;fill-opacity:1;fill-rule:nonzero;stroke:none;stroke-width:0.35277775" />
    <path
       inkscape:connector-curvature="0"
       id="path7935"
       d="m 2.817998,295.01157 c -0.00275,-0.0524 -0.020669,-0.0937 -0.050987,-0.12402 -0.028938,-0.0317 -0.07028,-0.0468 -0.1226456,-0.0468 -0.1791448,0 -0.2094618,0.18466 -0.2094618,0.32659 0,0.1819 0.068902,0.30041 0.2094618,0.30041 0.1226456,0 0.170877,-0.0841 0.1846573,-0.17776 H 3.309958 c -0.039963,0.3638 -0.3334851,0.49885 -0.6655926,0.49885 -0.3886066,0 -0.6862629,-0.21773 -0.6862629,-0.62288 0,-0.41065 0.2893879,-0.6463 0.6862629,-0.6463 0.3197049,0 0.6228735,0.13781 0.6573243,0.49196 z m 0,0"
       style="fill:#ffffff;fill-opacity:1;fill-rule:nonzero;stroke:none;stroke-width:0.35277775" />
  </g>
</svg>
