<?xml version="1.0" encoding="UTF-8" standalone="no"?>
<!-- Created with Inkscape (http://www.inkscape.org/) -->

<svg
   xmlns:dc="http://purl.org/dc/elements/1.1/"
   xmlns:cc="http://creativecommons.org/ns#"
   xmlns:rdf="http://www.w3.org/1999/02/22-rdf-syntax-ns#"
   xmlns:svg="http://www.w3.org/2000/svg"
   xmlns="http://www.w3.org/2000/svg"
   xmlns:sodipodi="http://sodipodi.sourceforge.net/DTD/sodipodi-0.dtd"
   xmlns:inkscape="http://www.inkscape.org/namespaces/inkscape"
   width="3.75mm"
   height="3.75mm"
   viewBox="0 0 3.75 3.75"
   version="1.1"
   id="svg13826"
   inkscape:version="0.92.1 r15371"
   sodipodi:docname="large_print_light.svg">
  <defs
     id="defs13820" />
  <sodipodi:namedview
     id="base"
     pagecolor="#ffffff"
     bordercolor="#666666"
     borderopacity="1.0"
     inkscape:pageopacity="0.0"
     inkscape:pageshadow="2"
     inkscape:zoom="28.687777"
     inkscape:cx="7.4387043"
     inkscape:cy="7.2119163"
     inkscape:document-units="mm"
     inkscape:current-layer="layer1"
     showgrid="false"
     inkscape:window-width="561"
     inkscape:window-height="558"
     inkscape:window-x="687"
     inkscape:window-y="78"
     inkscape:window-maximized="0"
     showguides="true"
     inkscape:guide-bbox="true"
     gridtolerance="10"
     guidetolerance="2">
    <inkscape:grid
       type="xygrid"
       id="grid13828" />
    <sodipodi:guide
       position="0.13043093,3.8477124"
       orientation="1,0"
       id="guide20533"
       inkscape:locked="false" />
    <sodipodi:guide
       position="1.9173346,3.6129367"
       orientation="0,1"
       id="guide20535"
       inkscape:locked="false" />
  </sodipodi:namedview>
  <metadata
     id="metadata13823">
    <rdf:RDF>
      <cc:Work
         rdf:about="">
        <dc:format>image/svg+xml</dc:format>
        <dc:type
           rdf:resource="http://purl.org/dc/dcmitype/StillImage" />
        <dc:title></dc:title>
      </cc:Work>
    </rdf:RDF>
  </metadata>
  <g
     inkscape:label="Layer 1"
     inkscape:groupmode="layer"
     id="layer1"
     transform="translate(0,-293.25)">
    <path
       inkscape:connector-curvature="0"
       id="path8385"
       d="m 0.55441245,296.88157 c -0.23013246,0 -0.41754565,-0.18603 -0.41754565,-0.41754 v -2.65411 c 0,-0.23013 0.18741319,-0.41754 0.41754565,-0.41754 H 3.2098921 c 0.2301325,0 0.4161677,0.18741 0.4161677,0.41754 v 2.65411 c 0,0.23151 -0.1860352,0.41754 -0.4161677,0.41754 z m 0,0"
       style="fill:#211e1e;fill-opacity:1;fill-rule:nonzero;stroke:none;stroke-width:0.35277775" />
    <path
       inkscape:connector-curvature="0"
       id="path8387"
       d="m 0.55441245,293.46404 c -0.19154704,0 -0.34588731,0.15434 -0.34588731,0.34588 v 2.65411 c 0,0.19154 0.15434027,0.34588 0.34588731,0.34588 H 3.2098921 c 0.1901691,0 0.3458877,-0.15434 0.3458877,-0.34588 v -2.65411 c 0,-0.19154 -0.1557186,-0.34588 -0.3458877,-0.34588 z m 0,0"
       style="fill:#ffffff;fill-opacity:1;fill-rule:nonzero;stroke:none;stroke-width:0.35277775" />
    <path
       inkscape:connector-curvature="0"
       id="path8389"
       d="m 1.1331885,295.4677 c 0.14056,0 0.2094618,-0.11851 0.2094618,-0.30041 0,-0.14193 -0.030318,-0.32659 -0.2094618,-0.32659 -0.1791448,0 -0.20808353,0.18466 -0.20808353,0.32659 0,0.1819 0.0689017,0.30041 0.20808353,0.30041 m 0,0.32109 c -0.38722867,0 -0.68488489,-0.21773 -0.68488489,-0.62288 0,-0.41065 0.28800988,-0.6463 0.68488489,-0.6463 0.396875,0 0.6862631,0.23565 0.6862631,0.6463 0,0.40515 -0.2990341,0.62288 -0.6862631,0.62288"
       style="fill:#211e1e;fill-opacity:1;fill-rule:nonzero;stroke:none;stroke-width:0.35277775" />
    <path
       inkscape:connector-curvature="0"
       id="path8391"
       d="m 2.8364436,295.01157 c -0.00275,-0.0524 -0.020669,-0.0937 -0.050987,-0.12402 -0.028938,-0.0317 -0.07028,-0.0468 -0.1240236,-0.0468 -0.1777668,0 -0.2080835,0.18466 -0.2080835,0.32659 0,0.1819 0.068902,0.30041 0.2080835,0.30041 0.1240236,0 0.172255,-0.0841 0.1860353,-0.17776 h 0.4823135 c -0.041341,0.3638 -0.3348633,0.49885 -0.6683488,0.49885 -0.3872286,0 -0.6848849,-0.21773 -0.6848849,-0.62288 0,-0.41065 0.2893882,-0.6463 0.6848849,-0.6463 0.3210831,0 0.6242515,0.13781 0.6587023,0.49196 z m 0,0"
       style="fill:#211e1e;fill-opacity:1;fill-rule:nonzero;stroke:none;stroke-width:0.35277775" />
  </g>
</svg>
