<?xml version="1.0" encoding="UTF-8" standalone="no"?>
<!-- Created with Inkscape (http://www.inkscape.org/) -->

<svg
   xmlns:dc="http://purl.org/dc/elements/1.1/"
   xmlns:cc="http://creativecommons.org/ns#"
   xmlns:rdf="http://www.w3.org/1999/02/22-rdf-syntax-ns#"
   xmlns:svg="http://www.w3.org/2000/svg"
   xmlns="http://www.w3.org/2000/svg"
   xmlns:sodipodi="http://sodipodi.sourceforge.net/DTD/sodipodi-0.dtd"
   xmlns:inkscape="http://www.inkscape.org/namespaces/inkscape"
   width="3.75mm"
   height="3.75mm"
   viewBox="0 0 3.75 3.75"
   version="1.1"
   id="svg13826"
   inkscape:version="0.92.1 r15371"
   sodipodi:docname="large_print_light.svg">
  <defs
     id="defs13820" />
  <sodipodi:namedview
     id="base"
     pagecolor="#ffffff"
     bordercolor="#666666"
     borderopacity="1.0"
     inkscape:pageopacity="0.0"
     inkscape:pageshadow="2"
     inkscape:zoom="28.687777"
     inkscape:cx="7.4387043"
     inkscape:cy="7.2119163"
     inkscape:document-units="mm"
     inkscape:current-layer="layer1"
     showgrid="false"
     inkscape:window-width="561"
     inkscape:window-height="558"
     inkscape:window-x="687"
     inkscape:window-y="78"
     inkscape:window-maximized="0"
     showguides="true"
     inkscape:guide-bbox="true"
     gridtolerance="10"
     guidetolerance="2">
    <inkscape:grid
       type="xygrid"
       id="grid13828" />
    <sodipodi:guide
       position="0.13043093,3.8477124"
       orientation="1,0"
       id="guide20533"
       inkscape:locked="false" />
    <sodipodi:guide
       position="1.9173346,3.6129367"
       orientation="0,1"
       id="guide20535"
       inkscape:locked="false" />
  </sodipodi:namedview>
  <metadata
     id="metadata13823">
    <rdf:RDF>
      <cc:Work
         rdf:about="">
        <dc:format>image/svg+xml</dc:format>
        <dc:type
           rdf:resource="http://purl.org/dc/dcmitype/StillImage" />
        <dc:title></dc:title>
      </cc:Work>
    </rdf:RDF>
  </metadata>
  <g
     inkscape:label="Layer 1"
     inkscape:groupmode="layer"
     id="layer1"
     transform="translate(0,-293.25)">
    <path
       inkscape:connector-curvature="0"
       id="path8029"
       d="m 0.53527778,293.45413 c -0.19016909,0 -0.34588766,0.15572 -0.34588766,0.34589 v 2.6541 c 0,0.19155 0.15571857,0.34726 0.34588766,0.34726 H 3.1907574 c 0.1901691,0 0.3472657,-0.15571 0.3472657,-0.34726 v -2.6541 c 0,-0.19017 -0.1570966,-0.34589 -0.3472657,-0.34589 z m 0,0"
       style="fill:#ffffff;fill-opacity:1;fill-rule:nonzero;stroke:none;stroke-width:0.35277775" />
    <path
       inkscape:connector-curvature="0"
       id="path8031"
       d="m 0.53527778,296.87167 c -0.23013246,0 -0.41754565,-0.18604 -0.41754565,-0.41755 v -2.6541 c 0,-0.23013 0.18741319,-0.41617 0.41754565,-0.41617 H 3.1907574 c 0.2301325,0 0.4175456,0.18604 0.4175456,0.41617 v 2.6541 c 0,0.23151 -0.1874131,0.41755 -0.4175456,0.41755 z m 0,0"
       style="fill:#211e1e;fill-opacity:1;fill-rule:nonzero;stroke:none;stroke-width:0.35277775" />
    <path
       inkscape:connector-curvature="0"
       id="path8033"
       d="m 2.3184593,294.30162 v 0.16124 c 0,0.0441 0.035829,0.0813 0.081304,0.0813 h 0.4795573 c 0.045476,0 0.081304,-0.0372 0.081304,-0.0813 v -0.16124 z m 0,0"
       style="fill:#ffffff;fill-opacity:1;fill-rule:nonzero;stroke:none;stroke-width:0.35277775" />
    <path
       inkscape:connector-curvature="0"
       id="path8035"
       d="M 2.960625,294.8239 H 2.7153343 c -0.037207,0 -0.066146,0.0289 -0.066146,0.0648 v 0.17914 c 0,0.0358 0.028938,0.0648 0.066146,0.0648 H 2.960625 c 0.035829,0 0.066146,-0.0289 0.066146,-0.0648 v -0.17914 c 0,-0.0358 -0.030318,-0.0648 -0.066146,-0.0648"
       style="fill:#ffffff;fill-opacity:1;fill-rule:nonzero;stroke:none;stroke-width:0.35277775" />
    <path
       inkscape:connector-curvature="0"
       id="path8037"
       d="M 2.960625,295.74857 H 2.7153343 c -0.037207,0 -0.066146,0.0289 -0.066146,0.0661 v 0.17915 c 0,0.0358 0.028938,0.0648 0.066146,0.0648 H 2.960625 c 0.035829,0 0.066146,-0.0289 0.066146,-0.0648 v -0.17915 c 0,-0.0372 -0.030318,-0.0661 -0.066146,-0.0661"
       style="fill:#ffffff;fill-opacity:1;fill-rule:nonzero;stroke:none;stroke-width:0.35277775" />
    <path
       inkscape:connector-curvature="0"
       id="path8039"
       d="M 2.6987975,296.18678 H 0.99692067 c -0.0358292,0 -0.0661458,0.0289 -0.0661458,0.0648 v 0.17914 c 0,0.0358 0.0303177,0.0648 0.0661458,0.0648 H 2.6987975 c 0.037207,0 0.066146,-0.0289 0.066146,-0.0648 v -0.17914 c 0,-0.0358 -0.028938,-0.0648 -0.066146,-0.0648"
       style="fill:#ffffff;fill-opacity:1;fill-rule:nonzero;stroke:none;stroke-width:0.35277775" />
    <path
       inkscape:connector-curvature="0"
       id="path8041"
       d="m 1.0603102,295.99386 v -0.17915 c 0,-0.0372 -0.030318,-0.0661 -0.0661458,-0.0661 H 0.74749547 c -0.0344523,0 -0.0633896,0.0289 -0.0633896,0.0661 v 0.17915 c 0,0.0358 0.0289384,0.0648 0.0633896,0.0648 H 0.9941644 c 0.0358292,0 0.0661458,-0.0289 0.0661458,-0.0648"
       style="fill:#ffffff;fill-opacity:1;fill-rule:nonzero;stroke:none;stroke-width:0.35277775" />
    <path
       inkscape:connector-curvature="0"
       id="path8043"
       d="M 0.74887379,295.13258 H 0.9941644 c 0.0358292,0 0.0661458,-0.0289 0.0661458,-0.0648 v -0.17914 c 0,-0.0358 -0.030318,-0.0648 -0.0661458,-0.0648 H 0.74887379 c -0.0372071,0 -0.0661458,0.0289 -0.0661458,0.0648 v 0.17914 c 0,0.0358 0.0289384,0.0648 0.0661458,0.0648"
       style="fill:#ffffff;fill-opacity:1;fill-rule:nonzero;stroke:none;stroke-width:0.35277775" />
    <path
       inkscape:connector-curvature="0"
       id="path8045"
       d="M 0.80261702,294.54416 H 1.2821746 c 0.045475,0 0.082682,-0.0358 0.082682,-0.0813 v -0.16124 H 0.72131302 v 0.16124 c 0,0.0455 0.0358288,0.0813 0.081304,0.0813"
       style="fill:#ffffff;fill-opacity:1;fill-rule:nonzero;stroke:none;stroke-width:0.35277775" />
    <path
       inkscape:connector-curvature="0"
       id="path8047"
       d="M 2.4700433,294.8239 H 2.2233744 c -0.035829,0 -0.064768,0.0289 -0.064768,0.0648 v 0.17914 c 0,0.0358 0.028938,0.0648 0.064768,0.0648 h 0.2466689 c 0.035829,0 0.064768,-0.0289 0.064768,-0.0648 v -0.17914 c 0,-0.0358 -0.028938,-0.0648 -0.064768,-0.0648"
       style="fill:#ffffff;fill-opacity:1;fill-rule:nonzero;stroke:none;stroke-width:0.35277775" />
    <path
       inkscape:connector-curvature="0"
       id="path8049"
       d="m 2.7828581,295.53221 v -0.17914 c 0,-0.0358 -0.028938,-0.0648 -0.066146,-0.0648 H 2.4714213 c -0.035829,0 -0.064767,0.0289 -0.064767,0.0648 v 0.17914 c 0,0.0372 0.028938,0.0661 0.064767,0.0661 h 0.2452909 c 0.037207,0 0.066146,-0.0289 0.066146,-0.0661"
       style="fill:#ffffff;fill-opacity:1;fill-rule:nonzero;stroke:none;stroke-width:0.35277775" />
    <path
       inkscape:connector-curvature="0"
       id="path8051"
       d="m 2.2233744,296.05862 h 0.245291 c 0.037207,0 0.066146,-0.0289 0.066146,-0.0648 v -0.17915 c 0,-0.0372 -0.028938,-0.0661 -0.066146,-0.0661 h -0.245291 c -0.035829,0 -0.064768,0.0289 -0.064768,0.0661 v 0.17915 c 0,0.0358 0.028938,0.0648 0.064768,0.0648"
       style="fill:#ffffff;fill-opacity:1;fill-rule:nonzero;stroke:none;stroke-width:0.35277775" />
    <path
       inkscape:connector-curvature="0"
       id="path8053"
       d="m 2.2908982,295.53221 v -0.17914 c 0,-0.0358 -0.028938,-0.0648 -0.066146,-0.0648 H 1.9794617 c -0.034452,0 -0.064768,0.0289 -0.064768,0.0648 v 0.17914 c 0,0.0372 0.030318,0.0661 0.064768,0.0661 h 0.2452906 c 0.037207,0 0.066146,-0.0289 0.066146,-0.0661"
       style="fill:#ffffff;fill-opacity:1;fill-rule:nonzero;stroke:none;stroke-width:0.35277775" />
    <path
       inkscape:connector-curvature="0"
       id="path8055"
       d="m 1.7314149,296.05862 h 0.2452909 c 0.037207,0 0.066146,-0.0289 0.066146,-0.0648 v -0.17915 c 0,-0.0372 -0.028938,-0.0661 -0.066146,-0.0661 H 1.7314149 c -0.035829,0 -0.064768,0.0289 -0.064768,0.0661 v 0.17915 c 0,0.0358 0.028938,0.0648 0.064768,0.0648"
       style="fill:#ffffff;fill-opacity:1;fill-rule:nonzero;stroke:none;stroke-width:0.35277775" />
    <path
       inkscape:connector-curvature="0"
       id="path8057"
       d="m 1.9780838,295.13258 c 0.035829,0 0.064768,-0.0289 0.064768,-0.0648 v -0.17914 c 0,-0.0358 -0.028938,-0.0648 -0.064768,-0.0648 H 1.7314149 c -0.035829,0 -0.064768,0.0289 -0.064768,0.0648 v 0.17914 c 0,0.0358 0.028938,0.0648 0.064768,0.0648 z m 0,0"
       style="fill:#ffffff;fill-opacity:1;fill-rule:nonzero;stroke:none;stroke-width:0.35277775" />
    <path
       inkscape:connector-curvature="0"
       id="path8059"
       d="m 1.8003169,295.53221 v -0.17914 c 0,-0.0358 -0.030318,-0.0648 -0.066146,-0.0648 H 1.4875022 c -0.034452,0 -0.06339,0.0289 -0.06339,0.0648 v 0.17914 c 0,0.0372 0.028938,0.0661 0.06339,0.0661 h 0.2466689 c 0.035829,0 0.066146,-0.0289 0.066146,-0.0661"
       style="fill:#ffffff;fill-opacity:1;fill-rule:nonzero;stroke:none;stroke-width:0.35277775" />
    <path
       inkscape:connector-curvature="0"
       id="path8061"
       d="m 1.2435892,296.05862 h 0.245291 c 0.037207,0 0.066146,-0.0289 0.066146,-0.0648 v -0.17915 c 0,-0.0372 -0.028938,-0.0661 -0.066146,-0.0661 h -0.245291 c -0.035829,0 -0.064767,0.0289 -0.064767,0.0661 v 0.17915 c 0,0.0358 0.028938,0.0648 0.064767,0.0648"
       style="fill:#ffffff;fill-opacity:1;fill-rule:nonzero;stroke:none;stroke-width:0.35277775" />
    <path
       inkscape:connector-curvature="0"
       id="path8063"
       d="m 1.4861239,295.13258 c 0.035829,0 0.064768,-0.0289 0.064768,-0.0648 v -0.17914 c 0,-0.0358 -0.028938,-0.0648 -0.064768,-0.0648 H 1.2408333 c -0.037207,0 -0.066146,0.0289 -0.066146,0.0648 v 0.17914 c 0,0.0358 0.028938,0.0648 0.066146,0.0648 z m 0,0"
       style="fill:#ffffff;fill-opacity:1;fill-rule:nonzero;stroke:none;stroke-width:0.35277775" />
    <path
       inkscape:connector-curvature="0"
       id="path8065"
       d="m 0.93215278,295.35307 v 0.17914 c 0,0.0372 0.0289384,0.0661 0.0647679,0.0661 H 1.2422112 c 0.035829,0 0.064768,-0.0289 0.064768,-0.0661 v -0.17914 c 0,-0.0358 -0.028938,-0.0648 -0.064768,-0.0648 H 0.99692067 c -0.0358292,0 -0.0647679,0.0289 -0.0647679,0.0648"
       style="fill:#ffffff;fill-opacity:1;fill-rule:nonzero;stroke:none;stroke-width:0.35277775" />
    <path
       inkscape:connector-curvature="0"
       id="path8067"
       d="m 1.3648565,294.23686 c 0,-0.0469 0.038586,-0.12678 0.4768014,-0.12816 0.438216,-10e-4 0.4768014,0.0813 0.4768014,0.12816 v 0.0138 H 2.960625 v -0.0165 c 0,-0.0841 -0.1502061,-0.49195 -1.1189671,-0.49195 -0.97013881,0 -1.12034488,0.40789 -1.12034488,0.49195 v 0.0165 H 1.3648565 Z m 0,0"
       style="fill:#ffffff;fill-opacity:1;fill-rule:nonzero;stroke:none;stroke-width:0.35277775" />
  </g>
</svg>
