<?xml version="1.0" encoding="UTF-8" standalone="no"?>
<!-- Created with Inkscape (http://www.inkscape.org/) -->

<svg
   xmlns:dc="http://purl.org/dc/elements/1.1/"
   xmlns:cc="http://creativecommons.org/ns#"
   xmlns:rdf="http://www.w3.org/1999/02/22-rdf-syntax-ns#"
   xmlns:svg="http://www.w3.org/2000/svg"
   xmlns="http://www.w3.org/2000/svg"
   xmlns:sodipodi="http://sodipodi.sourceforge.net/DTD/sodipodi-0.dtd"
   xmlns:inkscape="http://www.inkscape.org/namespaces/inkscape"
   width="3.75mm"
   height="3.75mm"
   viewBox="0 0 3.75 3.75"
   version="1.1"
   id="svg13826"
   inkscape:version="0.92.1 r15371"
   sodipodi:docname="large_print_light.svg">
  <defs
     id="defs13820" />
  <sodipodi:namedview
     id="base"
     pagecolor="#ffffff"
     bordercolor="#666666"
     borderopacity="1.0"
     inkscape:pageopacity="0.0"
     inkscape:pageshadow="2"
     inkscape:zoom="28.687777"
     inkscape:cx="7.4387043"
     inkscape:cy="7.2119163"
     inkscape:document-units="mm"
     inkscape:current-layer="layer1"
     showgrid="false"
     inkscape:window-width="561"
     inkscape:window-height="558"
     inkscape:window-x="687"
     inkscape:window-y="78"
     inkscape:window-maximized="0"
     showguides="true"
     inkscape:guide-bbox="true"
     gridtolerance="10"
     guidetolerance="2">
    <inkscape:grid
       type="xygrid"
       id="grid13828" />
    <sodipodi:guide
       position="0.13043093,3.8477124"
       orientation="1,0"
       id="guide20533"
       inkscape:locked="false" />
    <sodipodi:guide
       position="1.9173346,3.6129367"
       orientation="0,1"
       id="guide20535"
       inkscape:locked="false" />
  </sodipodi:namedview>
  <metadata
     id="metadata13823">
    <rdf:RDF>
      <cc:Work
         rdf:about="">
        <dc:format>image/svg+xml</dc:format>
        <dc:type
           rdf:resource="http://purl.org/dc/dcmitype/StillImage" />
        <dc:title></dc:title>
      </cc:Work>
    </rdf:RDF>
  </metadata>
  <g
     inkscape:label="Layer 1"
     inkscape:groupmode="layer"
     id="layer1"
     transform="translate(0,-293.25)">
    <path
       inkscape:connector-curvature="0"
       id="path8261"
       d="m 0.53458895,296.85323 c -0.2301325,0 -0.4161677,-0.18604 -0.4161677,-0.41755 v -2.6541 c 0,-0.23013 0.1860352,-0.41617 0.4161677,-0.41617 H 3.1900681 c 0.2301324,0 0.4175458,0.18604 0.4175458,0.41617 v 2.6541 c 0,0.23151 -0.1874134,0.41755 -0.4175458,0.41755 z m 0,0"
       style="fill:#211e1e;fill-opacity:1;fill-rule:nonzero;stroke:none;stroke-width:0.35277775" />
    <path
       inkscape:connector-curvature="0"
       id="path8263"
       d="m 0.53458895,293.43569 c -0.1901695,0 -0.3458877,0.15572 -0.3458877,0.34589 v 2.6541 c 0,0.19155 0.1557182,0.34726 0.3458877,0.34726 H 3.1900681 c 0.1915475,0 0.3472656,-0.15571 0.3472656,-0.34726 v -2.6541 c 0,-0.19017 -0.1557181,-0.34589 -0.3472656,-0.34589 z m 0,0"
       style="fill:#ffffff;fill-opacity:1;fill-rule:nonzero;stroke:none;stroke-width:0.35277775" />
    <path
       inkscape:connector-curvature="0"
       id="path8265"
       d="m 2.3177701,294.28318 v 0.16124 c 0,0.0441 0.037207,0.0813 0.082682,0.0813 h 0.4781794 c 0.045475,0 0.082682,-0.0372 0.082682,-0.0813 v -0.16124 z m 0,0"
       style="fill:#211e1e;fill-opacity:1;fill-rule:nonzero;stroke:none;stroke-width:0.35277775" />
    <path
       inkscape:connector-curvature="0"
       id="path8267"
       d="m 2.9599361,294.80546 h -0.245291 c -0.035829,0 -0.064768,0.0289 -0.064768,0.0648 v 0.17914 c 0,0.0358 0.028938,0.0648 0.064768,0.0648 h 0.245291 c 0.037207,0 0.066146,-0.0289 0.066146,-0.0648 v -0.17914 c 0,-0.0358 -0.028939,-0.0648 -0.066146,-0.0648"
       style="fill:#211e1e;fill-opacity:1;fill-rule:nonzero;stroke:none;stroke-width:0.35277775" />
    <path
       inkscape:connector-curvature="0"
       id="path8269"
       d="m 2.9599361,295.73013 h -0.245291 c -0.035829,0 -0.064768,0.0289 -0.064768,0.0661 v 0.17915 c 0,0.0358 0.028938,0.0648 0.064768,0.0648 h 0.245291 c 0.037207,0 0.066146,-0.0289 0.066146,-0.0648 v -0.17915 c 0,-0.0372 -0.028939,-0.0661 -0.066146,-0.0661"
       style="fill:#211e1e;fill-opacity:1;fill-rule:nonzero;stroke:none;stroke-width:0.35277775" />
    <path
       inkscape:connector-curvature="0"
       id="path8271"
       d="M 2.6994866,296.16834 H 0.99623145 c -0.035829,0 -0.064767,0.0289 -0.064767,0.0648 v 0.17914 c 0,0.0358 0.028938,0.0648 0.064767,0.0648 H 2.6994866 c 0.035829,0 0.064768,-0.0289 0.064768,-0.0648 v -0.17914 c 0,-0.0358 -0.028938,-0.0648 -0.064768,-0.0648"
       style="fill:#211e1e;fill-opacity:1;fill-rule:nonzero;stroke:none;stroke-width:0.35277775" />
    <path
       inkscape:connector-curvature="0"
       id="path8273"
       d="m 1.0596213,295.97542 v -0.17915 c 0,-0.0372 -0.030318,-0.0661 -0.066146,-0.0661 h -0.245291 c -0.035829,0 -0.064768,0.0289 -0.064768,0.0661 v 0.17915 c 0,0.0358 0.028938,0.0648 0.064768,0.0648 h 0.245291 c 0.0358289,0 0.066146,-0.0289 0.066146,-0.0648"
       style="fill:#211e1e;fill-opacity:1;fill-rule:nonzero;stroke:none;stroke-width:0.35277775" />
    <path
       inkscape:connector-curvature="0"
       id="path8275"
       d="m 0.74818455,295.11414 h 0.245291 c 0.035829,0 0.066146,-0.0289 0.066146,-0.0648 v -0.17914 c 0,-0.0358 -0.030318,-0.0648 -0.066146,-0.0648 h -0.245291 c -0.035829,0 -0.064768,0.0289 -0.064768,0.0648 v 0.17914 c 0,0.0358 0.028938,0.0648 0.064768,0.0648"
       style="fill:#211e1e;fill-opacity:1;fill-rule:nonzero;stroke:none;stroke-width:0.35277775" />
    <path
       inkscape:connector-curvature="0"
       id="path8277"
       d="M 0.80330615,294.52572 H 1.2814854 c 0.045475,0 0.082682,-0.0358 0.082682,-0.0813 v -0.16124 H 0.72062385 v 0.16124 c 0,0.0455 0.037207,0.0813 0.082682,0.0813"
       style="fill:#211e1e;fill-opacity:1;fill-rule:nonzero;stroke:none;stroke-width:0.35277775" />
    <path
       inkscape:connector-curvature="0"
       id="path8279"
       d="M 2.4693541,294.80546 H 2.2226855 c -0.035829,0 -0.064768,0.0289 -0.064768,0.0648 v 0.17914 c 0,0.0358 0.028938,0.0648 0.064768,0.0648 h 0.2466686 c 0.035829,0 0.064768,-0.0289 0.064768,-0.0648 v -0.17914 c 0,-0.0358 -0.028938,-0.0648 -0.064768,-0.0648"
       style="fill:#211e1e;fill-opacity:1;fill-rule:nonzero;stroke:none;stroke-width:0.35277775" />
    <path
       inkscape:connector-curvature="0"
       id="path8281"
       d="m 2.7821689,295.51377 v -0.17914 c 0,-0.0358 -0.028938,-0.0648 -0.064768,-0.0648 H 2.4707324 c -0.035829,0 -0.064768,0.0289 -0.064768,0.0648 v 0.17914 c 0,0.0372 0.028938,0.0661 0.064768,0.0661 h 0.2466689 c 0.035829,0 0.064768,-0.0289 0.064768,-0.0661"
       style="fill:#211e1e;fill-opacity:1;fill-rule:nonzero;stroke:none;stroke-width:0.35277775" />
    <path
       inkscape:connector-curvature="0"
       id="path8283"
       d="m 2.2226855,296.04018 h 0.2466686 c 0.035829,0 0.064768,-0.0289 0.064768,-0.0648 v -0.17915 c 0,-0.0372 -0.028938,-0.0661 -0.064768,-0.0661 H 2.2226855 c -0.035829,0 -0.064768,0.0289 -0.064768,0.0661 v 0.17915 c 0,0.0358 0.028938,0.0648 0.064768,0.0648"
       style="fill:#211e1e;fill-opacity:1;fill-rule:nonzero;stroke:none;stroke-width:0.35277775" />
    <path
       inkscape:connector-curvature="0"
       id="path8285"
       d="m 2.2902093,295.51377 v -0.17914 c 0,-0.0358 -0.028938,-0.0648 -0.064768,-0.0648 H 1.9801508 c -0.035829,0 -0.066146,0.0289 -0.066146,0.0648 v 0.17914 c 0,0.0372 0.030318,0.0661 0.066146,0.0661 h 0.2452906 c 0.035829,0 0.064768,-0.0289 0.064768,-0.0661"
       style="fill:#211e1e;fill-opacity:1;fill-rule:nonzero;stroke:none;stroke-width:0.35277775" />
    <path
       inkscape:connector-curvature="0"
       id="path8287"
       d="m 1.732104,296.04018 h 0.2452906 c 0.035829,0 0.064768,-0.0289 0.064768,-0.0648 v -0.17915 c 0,-0.0372 -0.028938,-0.0661 -0.064768,-0.0661 H 1.732104 c -0.037207,0 -0.066146,0.0289 -0.066146,0.0661 v 0.17915 c 0,0.0358 0.028938,0.0648 0.066146,0.0648"
       style="fill:#211e1e;fill-opacity:1;fill-rule:nonzero;stroke:none;stroke-width:0.35277775" />
    <path
       inkscape:connector-curvature="0"
       id="path8289"
       d="m 1.9773946,295.11414 c 0.035829,0 0.064768,-0.0289 0.064768,-0.0648 v -0.17914 c 0,-0.0358 -0.028938,-0.0648 -0.064768,-0.0648 H 1.732104 c -0.037207,0 -0.066146,0.0289 -0.066146,0.0648 v 0.17914 c 0,0.0358 0.028938,0.0648 0.066146,0.0648 z m 0,0"
       style="fill:#211e1e;fill-opacity:1;fill-rule:nonzero;stroke:none;stroke-width:0.35277775" />
    <path
       inkscape:connector-curvature="0"
       id="path8291"
       d="m 1.7996278,295.51377 v -0.17914 c 0,-0.0358 -0.030318,-0.0648 -0.066146,-0.0648 h -0.245291 c -0.035829,0 -0.064768,0.0289 -0.064768,0.0648 v 0.17914 c 0,0.0372 0.028938,0.0661 0.064768,0.0661 h 0.245291 c 0.035829,0 0.066146,-0.0289 0.066146,-0.0661"
       style="fill:#211e1e;fill-opacity:1;fill-rule:nonzero;stroke:none;stroke-width:0.35277775" />
    <path
       inkscape:connector-curvature="0"
       id="path8293"
       d="m 1.2429003,296.04018 h 0.246669 c 0.035829,0 0.064767,-0.0289 0.064767,-0.0648 v -0.17915 c 0,-0.0372 -0.028938,-0.0661 -0.064767,-0.0661 h -0.246669 c -0.035829,0 -0.064768,0.0289 -0.064768,0.0661 v 0.17915 c 0,0.0358 0.028938,0.0648 0.064768,0.0648"
       style="fill:#211e1e;fill-opacity:1;fill-rule:nonzero;stroke:none;stroke-width:0.35277775" />
    <path
       inkscape:connector-curvature="0"
       id="path8295"
       d="m 1.485435,295.11414 c 0.035829,0 0.064768,-0.0289 0.064768,-0.0648 v -0.17914 c 0,-0.0358 -0.028938,-0.0648 -0.064768,-0.0648 H 1.2401444 c -0.035829,0 -0.064768,0.0289 -0.064768,0.0648 v 0.17914 c 0,0.0358 0.028938,0.0648 0.064768,0.0648 z m 0,0"
       style="fill:#211e1e;fill-opacity:1;fill-rule:nonzero;stroke:none;stroke-width:0.35277775" />
    <path
       inkscape:connector-curvature="0"
       id="path8297"
       d="m 0.93146395,295.33463 v 0.17914 c 0,0.0372 0.028938,0.0661 0.064767,0.0661 H 1.2428998 c 0.035829,0 0.064768,-0.0289 0.064768,-0.0661 v -0.17914 c 0,-0.0358 -0.028938,-0.0648 -0.064768,-0.0648 H 0.99623145 c -0.035829,0 -0.064767,0.0289 -0.064767,0.0648"
       style="fill:#211e1e;fill-opacity:1;fill-rule:nonzero;stroke:none;stroke-width:0.35277775" />
    <path
       inkscape:connector-curvature="0"
       id="path8299"
       d="m 1.3641677,294.21842 c 0,-0.0469 0.038585,-0.12678 0.476801,-0.12816 0.4382163,-10e-4 0.4768014,0.0813 0.4768014,0.12816 v 0.0138 h 0.643544 v -0.0165 c 0,-0.0841 -0.1515846,-0.49195 -1.1203454,-0.49195 -0.96876055,0 -1.12034485,0.40789 -1.12034485,0.49195 v 0.0165 H 1.3641677 Z m 0,0"
       style="fill:#211e1e;fill-opacity:1;fill-rule:nonzero;stroke:none;stroke-width:0.35277775" />
  </g>
</svg>
