<?xml version="1.0" encoding="UTF-8" standalone="no"?>
<!-- Created with Inkscape (http://www.inkscape.org/) -->

<svg
   xmlns:dc="http://purl.org/dc/elements/1.1/"
   xmlns:cc="http://creativecommons.org/ns#"
   xmlns:rdf="http://www.w3.org/1999/02/22-rdf-syntax-ns#"
   xmlns:svg="http://www.w3.org/2000/svg"
   xmlns="http://www.w3.org/2000/svg"
   xmlns:sodipodi="http://sodipodi.sourceforge.net/DTD/sodipodi-0.dtd"
   xmlns:inkscape="http://www.inkscape.org/namespaces/inkscape"
   width="3.75mm"
   height="3.75mm"
   viewBox="0 0 3.75 3.75"
   version="1.1"
   id="svg13826"
   inkscape:version="0.92.1 r15371"
   sodipodi:docname="campfire_dark.svg">
  <defs
     id="defs13820" />
  <sodipodi:namedview
     id="base"
     pagecolor="#ffffff"
     bordercolor="#666666"
     borderopacity="1.0"
     inkscape:pageopacity="0.0"
     inkscape:pageshadow="2"
     inkscape:zoom="20.285322"
     inkscape:cx="7.2558826"
     inkscape:cy="7.2894483"
     inkscape:document-units="mm"
     inkscape:current-layer="layer1"
     showgrid="false"
     inkscape:window-width="561"
     inkscape:window-height="558"
     inkscape:window-x="794"
     inkscape:window-y="78"
     inkscape:window-maximized="0"
     showguides="true"
     inkscape:guide-bbox="true"
     gridtolerance="10"
     guidetolerance="2">
    <inkscape:grid
       type="xygrid"
       id="grid13828" />
    <sodipodi:guide
       position="0.13043093,3.8477124"
       orientation="1,0"
       id="guide20533"
       inkscape:locked="false" />
    <sodipodi:guide
       position="1.9173346,3.6129367"
       orientation="0,1"
       id="guide20535"
       inkscape:locked="false" />
  </sodipodi:namedview>
  <metadata
     id="metadata13823">
    <rdf:RDF>
      <cc:Work
         rdf:about="">
        <dc:format>image/svg+xml</dc:format>
        <dc:type
           rdf:resource="http://purl.org/dc/dcmitype/StillImage" />
        <dc:title></dc:title>
      </cc:Work>
    </rdf:RDF>
  </metadata>
  <g
     inkscape:label="Layer 1"
     inkscape:groupmode="layer"
     id="layer1"
     transform="translate(0,-293.25)">
    <path
       inkscape:connector-curvature="0"
       id="path12333"
       d="m 0.53880079,293.4619 c -0.19154739,0 -0.34588766,0.15572 -0.34588766,0.34589 v 2.6541 c 0,0.19017 0.15434027,0.34589 0.34588766,0.34589 H 3.1915241 c 0.1915475,0 0.3458877,-0.15572 0.3458877,-0.34589 v -2.6541 c 0,-0.19017 -0.1543402,-0.34589 -0.3458877,-0.34589 z m 0,0"
       style="fill:#ffffff;fill-opacity:1;fill-rule:nonzero;stroke:none;stroke-width:0.35277775" />
    <path
       inkscape:connector-curvature="0"
       id="path12335"
       d="m 3.1915241,296.87806 c 0.2301322,0 0.4175453,-0.18604 0.4175453,-0.41617 v -2.65273 c 0,-0.23151 -0.1874131,-0.41754 -0.4175453,-0.41754 H 0.53880079 c -0.23013246,0 -0.41754565,0.18603 -0.41754565,0.41754 v 2.65273 c 0,0.23013 0.18741319,0.41617 0.41754565,0.41617 z m 0,0"
       style="fill:#211e1e;fill-opacity:1;fill-rule:nonzero;stroke:none;stroke-width:0.35277775" />
    <path
       inkscape:connector-curvature="0"
       id="path12337"
       d="M 0.66282404,295.83902 H 0.40650913 v 0.50298 c 0,0.15434 0.13918176,0.28112 0.31005848,0.28112 H 2.9545016 c 0.1708767,0 0.3100586,-0.12678 0.3100586,-0.28112 v -0.50298 H 3.0082451 v 0.45061 c 0,0.0565 -0.050988,0.10198 -0.1129993,0.10198 H 0.77582301 c -0.0620116,0 -0.11299897,-0.0455 -0.11299897,-0.10198 z m 0,0"
       style="fill:#ffffff;fill-opacity:1;fill-rule:nonzero;stroke:none;stroke-width:0.35277775" />
    <path
       inkscape:connector-curvature="0"
       id="path12339"
       d="m 2.6968084,296.17526 v -0.39688 l -1.72392584,-0.57464 v 0.39688 z m 0,0"
       style="fill:#ffffff;fill-opacity:1;fill-rule:nonzero;stroke:none;stroke-width:0.35277775" />
    <path
       inkscape:connector-curvature="0"
       id="path12341"
       d="m 1.3697576,295.20374 c -0.059255,-0.0675 -0.45337454,-0.52228 -0.055122,-0.9164 0.3307291,-0.32935 0.3789606,-0.60495 0.2687175,-0.73862 0,0 0.8419814,0.34588 0.3458877,1.15066 -0.084061,0.13642 -0.2962783,0.29765 -0.1860353,0.62976 z m 0,0"
       style="fill:#ffffff;fill-opacity:1;fill-rule:nonzero;stroke:none;stroke-width:0.35277775" />
    <path
       inkscape:connector-curvature="0"
       id="path12343"
       d="m 1.8878999,295.3126 c -0.017914,-0.0675 -0.099219,-0.21359 0.1474502,-0.50711 0.1322917,-0.15434 0.1819011,-0.38585 0.1943033,-0.47267 0,0 0.4368384,0.2508 0.00138,0.86265 z m 0,0"
       style="fill:#ffffff;fill-opacity:1;fill-rule:nonzero;stroke:none;stroke-width:0.35277775" />
    <path
       inkscape:connector-curvature="0"
       id="path12345"
       d="m 1.9816066,295.40631 0.7152018,-0.2384 v 0.39687 l -0.1212673,0.04 z m 0,0"
       style="fill:#ffffff;fill-opacity:1;fill-rule:nonzero;stroke:none;stroke-width:0.35277775" />
    <path
       inkscape:connector-curvature="0"
       id="path12347"
       d="m 1.6880845,295.97268 -0.71520194,0.23841 v -0.39688 l 0.12126734,-0.04 z m 0,0"
       style="fill:#ffffff;fill-opacity:1;fill-rule:nonzero;stroke:none;stroke-width:0.35277775" />
  </g>
</svg>
