<?xml version="1.0" encoding="UTF-8" standalone="no"?>
<!-- Created with Inkscape (http://www.inkscape.org/) -->

<svg
   xmlns:dc="http://purl.org/dc/elements/1.1/"
   xmlns:cc="http://creativecommons.org/ns#"
   xmlns:rdf="http://www.w3.org/1999/02/22-rdf-syntax-ns#"
   xmlns:svg="http://www.w3.org/2000/svg"
   xmlns="http://www.w3.org/2000/svg"
   xmlns:sodipodi="http://sodipodi.sourceforge.net/DTD/sodipodi-0.dtd"
   xmlns:inkscape="http://www.inkscape.org/namespaces/inkscape"
   width="3.75mm"
   height="3.75mm"
   viewBox="0 0 3.75 3.75"
   version="1.1"
   id="svg13826"
   inkscape:version="0.92.1 r15371"
   sodipodi:docname="electric_dark.svg">
  <defs
     id="defs13820" />
  <sodipodi:namedview
     id="base"
     pagecolor="#ffffff"
     bordercolor="#666666"
     borderopacity="1.0"
     inkscape:pageopacity="0.0"
     inkscape:pageshadow="2"
     inkscape:zoom="20.285322"
     inkscape:cx="7.3400676"
     inkscape:cy="6.7205529"
     inkscape:document-units="mm"
     inkscape:current-layer="layer1"
     showgrid="false"
     inkscape:window-width="561"
     inkscape:window-height="558"
     inkscape:window-x="794"
     inkscape:window-y="78"
     inkscape:window-maximized="0"
     showguides="true"
     inkscape:guide-bbox="true"
     gridtolerance="10"
     guidetolerance="2">
    <inkscape:grid
       type="xygrid"
       id="grid13828" />
    <sodipodi:guide
       position="0.13043093,3.8477124"
       orientation="1,0"
       id="guide20533"
       inkscape:locked="false" />
    <sodipodi:guide
       position="1.9173346,3.6129367"
       orientation="0,1"
       id="guide20535"
       inkscape:locked="false" />
  </sodipodi:namedview>
  <metadata
     id="metadata13823">
    <rdf:RDF>
      <cc:Work
         rdf:about="">
        <dc:format>image/svg+xml</dc:format>
        <dc:type
           rdf:resource="http://purl.org/dc/dcmitype/StillImage" />
        <dc:title></dc:title>
      </cc:Work>
    </rdf:RDF>
  </metadata>
  <g
     inkscape:label="Layer 1"
     inkscape:groupmode="layer"
     id="layer1"
     transform="translate(0,-293.25)">
    <path
       inkscape:connector-curvature="0"
       id="path9901"
       d="m 0.56419797,293.47494 c -0.19154739,0 -0.34588766,0.15572 -0.34588766,0.34589 v 2.6541 c 0,0.19017 0.15434027,0.34451 0.34588766,0.34451 H 3.2182992 c 0.1901696,0 0.3458877,-0.15434 0.3458877,-0.34451 v -2.6541 c 0,-0.19017 -0.1557181,-0.34589 -0.3458877,-0.34589 z m 0,0"
       style="fill:#ffffff;fill-opacity:1;fill-rule:nonzero;stroke:none;stroke-width:0.35277775" />
    <path
       inkscape:connector-curvature="0"
       id="path9903"
       d="m 3.2182992,296.8911 c 0.2301325,0 0.4161674,-0.18604 0.4161674,-0.41617 v -2.6541 c 0,-0.23014 -0.1860349,-0.41617 -0.4161674,-0.41617 H 0.56419797 c -0.23013246,0 -0.4161677,0.18603 -0.4161677,0.41617 v 2.6541 c 0,0.23013 0.18603524,0.41617 0.4161677,0.41617 z m 0,0"
       style="fill:#211e1e;fill-opacity:1;fill-rule:nonzero;stroke:none;stroke-width:0.35277775" />
    <path
       inkscape:connector-curvature="0"
       id="path9905"
       d="m 2.4190372,294.56497 v -0.65044 c 0,-0.073 -0.067524,-0.13229 -0.1488281,-0.13229 -0.082682,0 -0.1488282,0.0593 -0.1488282,0.13229 v 0.65044 H 1.6239093 v -0.65044 c 0,-0.073 -0.067524,-0.13229 -0.1488282,-0.13229 -0.082682,0 -0.1488281,0.0593 -0.1488281,0.13229 v 0.65044 H 0.96382887 v 0.27285 c 0,0.38998 0.30730263,0.70142 0.71382393,0.79099 l 0.033073,0.006 v 0.87919 h 0.3610459 v -0.88333 l 0.00964,-0.001 c 0.4175454,-0.0813 0.7358724,-0.39274 0.7358724,-0.79099 v -0.27286 z m 0,0"
       style="fill:#ffffff;fill-opacity:1;fill-rule:nonzero;stroke:none;stroke-width:0.35277775" />
  </g>
</svg>
