<?xml version="1.0" encoding="UTF-8" standalone="no"?>
<!-- Created with Inkscape (http://www.inkscape.org/) -->

<svg
   xmlns:dc="http://purl.org/dc/elements/1.1/"
   xmlns:cc="http://creativecommons.org/ns#"
   xmlns:rdf="http://www.w3.org/1999/02/22-rdf-syntax-ns#"
   xmlns:svg="http://www.w3.org/2000/svg"
   xmlns="http://www.w3.org/2000/svg"
   xmlns:sodipodi="http://sodipodi.sourceforge.net/DTD/sodipodi-0.dtd"
   xmlns:inkscape="http://www.inkscape.org/namespaces/inkscape"
   width="3.75mm"
   height="3.75mm"
   viewBox="0 0 3.75 3.75"
   version="1.1"
   id="svg13826"
   inkscape:version="0.92.1 r15371"
   sodipodi:docname="food_storage_dark.svg">
  <defs
     id="defs13820" />
  <sodipodi:namedview
     id="base"
     pagecolor="#ffffff"
     bordercolor="#666666"
     borderopacity="1.0"
     inkscape:pageopacity="0.0"
     inkscape:pageshadow="2"
     inkscape:zoom="10.142661"
     inkscape:cx="7.9317078"
     inkscape:cy="6.3783621"
     inkscape:document-units="mm"
     inkscape:current-layer="layer1"
     showgrid="false"
     inkscape:window-width="561"
     inkscape:window-height="558"
     inkscape:window-x="794"
     inkscape:window-y="78"
     inkscape:window-maximized="0"
     showguides="true"
     inkscape:guide-bbox="true"
     gridtolerance="10"
     guidetolerance="2"
     inkscape:lockguides="true">
    <inkscape:grid
       type="xygrid"
       id="grid13828" />
    <sodipodi:guide
       position="0.13043093,3.8477124"
       orientation="1,0"
       id="guide20533"
       inkscape:locked="true" />
    <sodipodi:guide
       position="1.9173346,3.6129367"
       orientation="0,1"
       id="guide20535"
       inkscape:locked="true" />
  </sodipodi:namedview>
  <metadata
     id="metadata13823">
    <rdf:RDF>
      <cc:Work
         rdf:about="">
        <dc:format>image/svg+xml</dc:format>
        <dc:type
           rdf:resource="http://purl.org/dc/dcmitype/StillImage" />
        <dc:title></dc:title>
      </cc:Work>
    </rdf:RDF>
  </metadata>
  <g
     inkscape:label="Layer 1"
     inkscape:groupmode="layer"
     id="layer1"
     transform="translate(0,-293.25)">
    <path
       inkscape:connector-curvature="0"
       id="path10199"
       d="m 0.54463334,293.46002 c -0.19154739,0 -0.34588766,0.15434 -0.34588766,0.34589 v 2.6541 c 0,0.19017 0.15434027,0.34451 0.34588766,0.34451 H 3.1987346 c 0.1901696,0 0.3458877,-0.15434 0.3458877,-0.34451 v -2.6541 c 0,-0.19155 -0.1557181,-0.34589 -0.3458877,-0.34589 z m 0,0"
       style="fill:#ffffff;fill-opacity:1;fill-rule:nonzero;stroke:none;stroke-width:0.35277775" />
    <path
       inkscape:connector-curvature="0"
       id="path10201"
       d="m 3.1987346,296.8748 c 0.2301325,0 0.4161674,-0.18604 0.4161674,-0.41617 v -2.65272 c 0,-0.23014 -0.1860349,-0.41755 -0.4161674,-0.41755 H 0.54463334 c -0.23013246,0 -0.4161677,0.18741 -0.4161677,0.41755 v 2.65272 c 0,0.23013 0.18603524,0.41617 0.4161677,0.41617 z m 0,0"
       style="fill:#211e1e;fill-opacity:1;fill-rule:nonzero;stroke:none;stroke-width:0.35277775" />
    <path
       inkscape:connector-curvature="0"
       id="path10203"
       d="m 1.5464669,294.88491 c 0,0 -0.019293,0.38172 -0.3541557,0.35002 0,0 -0.037207,-0.3197 0.3541557,-0.35002"
       style="fill:#ffffff;fill-opacity:1;fill-rule:nonzero;stroke:none;stroke-width:0.35277775" />
    <path
       inkscape:connector-curvature="0"
       id="path10205"
       d="m 1.2805056,295.38376 c 0.042719,-0.0441 0.103353,-0.0703 0.1694988,-0.0703 0.1350476,0 0.2439126,0.10887 0.2439126,0.24253 0,0.006 0,0.01 -0.00138,0.0152 -0.00413,0.0524 -0.020669,0.11714 -0.060634,0.19844 0,0 -0.067524,0.13092 -0.1226456,0.19017 l -0.00551,0.004 c -0.026183,0.0276 -0.06339,0.0441 -0.1033529,0.0441 -0.049609,0 -0.093707,-0.0248 -0.1198894,-0.062 h -0.00138 c -0.026183,0.0372 -0.07028,0.062 -0.1198894,0.062 -0.039963,0 -0.07717,-0.0165 -0.103353,-0.0441 l -0.00551,-0.004 c -0.0537432,-0.0593 -0.12264531,-0.19017 -0.12264531,-0.19017 -0.039963,-0.0813 -0.0564995,-0.14607 -0.0606337,-0.19844 -0.001376,-0.005 -0.001376,-0.01 -0.001376,-0.0152 0,-0.13366 0.10886509,-0.24253 0.24391271,-0.24253 0.066146,0 0.1267795,0.0262 0.1694988,0.0703"
       style="fill:#ffffff;fill-opacity:1;fill-rule:nonzero;stroke:none;stroke-width:0.35277775" />
    <path
       inkscape:connector-curvature="0"
       id="path10207"
       d="M 2.5813736,294.59414 H 2.2713151 v 0.11576 h 0.3100585 z m 0,0"
       style="fill:#ffffff;fill-opacity:1;fill-rule:nonzero;stroke:none;stroke-width:0.35277775" />
    <path
       inkscape:connector-curvature="0"
       id="path10209"
       d="m 1.9777931,295.05992 c 0,-0.022 0.00689,-0.0413 0.017914,-0.0579 l 0.1391817,-0.17639 c 0.039963,-0.0482 0.082682,-0.0427 0.082682,-0.0427 h 0.356912 c 0.2218641,0.022 0.223242,0.23288 0.223242,0.23288 v 0.7786 c 0,0.22599 -0.183279,0.21359 -0.4092773,0.21359 -0.2259982,0 -0.4092772,0.0124 -0.4092772,-0.21359 z m 0.073036,0.36656 c 0,0.0372 0.052365,0.0786 0.093707,0.0303 l 0.1143769,-0.14882 c 0.00551,-0.007 0.012404,-0.0207 0.012404,-0.0372 v -0.35691 c 0,-0.0992 -0.093707,-0.0165 -0.1281575,0.0179 l -0.079926,0.1006 c -0.012404,0.0165 -0.012404,0.0234 -0.012404,0.0331 z m 0,0"
       style="fill:#ffffff;fill-opacity:1;fill-rule:nonzero;stroke:none;stroke-width:0.35277775" />
    <path
       inkscape:connector-curvature="0"
       id="path10211"
       d="M 3.2855513,296.41453 H 0.43576823 v -1.95268 l 2.76434437,-0.61047 0.038585,0.17226 -2.62654067,0.58015 v 1.63435 H 3.1091623 v -1.68947 h 0.176389 z m 0,0"
       style="fill:#ffffff;fill-opacity:1;fill-rule:nonzero;stroke:none;stroke-width:0.35277775" />
  </g>
</svg>
