<?xml version="1.0" encoding="UTF-8" standalone="no"?>
<!-- Created with Inkscape (http://www.inkscape.org/) -->

<svg
   xmlns:dc="http://purl.org/dc/elements/1.1/"
   xmlns:cc="http://creativecommons.org/ns#"
   xmlns:rdf="http://www.w3.org/1999/02/22-rdf-syntax-ns#"
   xmlns:svg="http://www.w3.org/2000/svg"
   xmlns="http://www.w3.org/2000/svg"
   xmlns:sodipodi="http://sodipodi.sourceforge.net/DTD/sodipodi-0.dtd"
   xmlns:inkscape="http://www.inkscape.org/namespaces/inkscape"
   width="3.75mm"
   height="3.75mm"
   viewBox="0 0 3.75 3.75"
   version="1.1"
   id="svg13826"
   inkscape:version="0.92.1 r15371"
   sodipodi:docname="picnic_area_dark.svg">
  <defs
     id="defs13820" />
  <sodipodi:namedview
     id="base"
     pagecolor="#ffffff"
     bordercolor="#666666"
     borderopacity="1.0"
     inkscape:pageopacity="0.0"
     inkscape:pageshadow="2"
     inkscape:zoom="57.375555"
     inkscape:cx="3.371758"
     inkscape:cy="11.17999"
     inkscape:document-units="mm"
     inkscape:current-layer="layer1"
     showgrid="false"
     inkscape:window-width="561"
     inkscape:window-height="558"
     inkscape:window-x="794"
     inkscape:window-y="78"
     inkscape:window-maximized="0"
     showguides="true"
     inkscape:guide-bbox="true"
     gridtolerance="10"
     guidetolerance="2"
     inkscape:lockguides="true">
    <inkscape:grid
       type="xygrid"
       id="grid13828" />
    <sodipodi:guide
       position="0.13043093,3.8477124"
       orientation="1,0"
       id="guide20533"
       inkscape:locked="true" />
    <sodipodi:guide
       position="1.9173346,3.6129367"
       orientation="0,1"
       id="guide20535"
       inkscape:locked="true" />
  </sodipodi:namedview>
  <metadata
     id="metadata13823">
    <rdf:RDF>
      <cc:Work
         rdf:about="">
        <dc:format>image/svg+xml</dc:format>
        <dc:type
           rdf:resource="http://purl.org/dc/dcmitype/StillImage" />
        <dc:title></dc:title>
      </cc:Work>
    </rdf:RDF>
  </metadata>
  <g
     inkscape:label="Layer 1"
     inkscape:groupmode="layer"
     id="layer1"
     transform="translate(0,-293.25)">
    <path
       inkscape:connector-curvature="0"
       id="path12049"
       d="m 0.54980106,293.46405 c -0.1901691,0 -0.34588732,0.15572 -0.34588732,0.34726 v 2.65273 c 0,0.19017 0.15571822,0.34589 0.34588732,0.34589 H 3.2025246 c 0.1915472,0 0.3472653,-0.15572 0.3472653,-0.34589 v -2.65273 c 0,-0.19154 -0.1557181,-0.34726 -0.3472653,-0.34726 z m 0,0"
       style="fill:#ffffff;fill-opacity:1;fill-rule:nonzero;stroke:none;stroke-width:0.35277775" />
    <path
       inkscape:connector-curvature="0"
       id="path12051"
       d="m 3.2025246,296.88021 c 0.2301322,0 0.4175453,-0.18604 0.4175453,-0.41617 v -2.65273 c 0,-0.23013 -0.1874131,-0.41754 -0.4175453,-0.41754 H 0.54980106 c -0.23013247,0 -0.41616736,0.18741 -0.41616736,0.41754 v 2.65273 c 0,0.23013 0.18603489,0.41617 0.41616736,0.41617 z m 0,0"
       style="fill:#211e1e;fill-opacity:1;fill-rule:nonzero;stroke:none;stroke-width:0.35277775" />
    <path
       inkscape:connector-curvature="0"
       id="path12053"
       d="m 0.93840795,294.39698 v -0.25769 H 2.8042714 v 0.25769 H 2.3329825 l 0.2811198,0.69453 h 0.6959092 v 0.2577 H 2.7188332 l 0.327973,0.80891 H 2.7284796 L 2.4005063,295.34921 H 1.3380388 l -0.326595,0.80891 H 0.69311701 l 0.32521689,-0.80891 h -0.585666 v -0.2577 h 0.690397 l 0.2811197,-0.69453 z M 1.413831,295.09151 H 2.2668367 L 1.9857169,294.39698 H 1.6949508 Z m 0,0"
       style="fill:#ffffff;fill-opacity:1;fill-rule:nonzero;stroke:none;stroke-width:0.35277775" />
  </g>
</svg>
