<?xml version="1.0" encoding="UTF-8" standalone="no"?>
<!-- Created with Inkscape (http://www.inkscape.org/) -->

<svg
   xmlns:dc="http://purl.org/dc/elements/1.1/"
   xmlns:cc="http://creativecommons.org/ns#"
   xmlns:rdf="http://www.w3.org/1999/02/22-rdf-syntax-ns#"
   xmlns:svg="http://www.w3.org/2000/svg"
   xmlns="http://www.w3.org/2000/svg"
   xmlns:sodipodi="http://sodipodi.sourceforge.net/DTD/sodipodi-0.dtd"
   xmlns:inkscape="http://www.inkscape.org/namespaces/inkscape"
   width="3.75mm"
   height="3.75mm"
   viewBox="0 0 3.75 3.75"
   version="1.1"
   id="svg13826"
   inkscape:version="0.92.1 r15371"
   sodipodi:docname="rv_site_dark.svg">
  <defs
     id="defs13820" />
  <sodipodi:namedview
     id="base"
     pagecolor="#ffffff"
     bordercolor="#666666"
     borderopacity="1.0"
     inkscape:pageopacity="0.0"
     inkscape:pageshadow="2"
     inkscape:zoom="20.285322"
     inkscape:cx="7.0894605"
     inkscape:cy="6.8214768"
     inkscape:document-units="mm"
     inkscape:current-layer="layer1"
     showgrid="false"
     inkscape:window-width="561"
     inkscape:window-height="558"
     inkscape:window-x="794"
     inkscape:window-y="78"
     inkscape:window-maximized="0"
     showguides="true"
     inkscape:guide-bbox="true"
     gridtolerance="10"
     guidetolerance="2"
     inkscape:lockguides="true">
    <inkscape:grid
       type="xygrid"
       id="grid13828" />
    <sodipodi:guide
       position="0.13043093,3.8477124"
       orientation="1,0"
       id="guide20533"
       inkscape:locked="true" />
    <sodipodi:guide
       position="1.9173346,3.6129367"
       orientation="0,1"
       id="guide20535"
       inkscape:locked="true" />
  </sodipodi:namedview>
  <metadata
     id="metadata13823">
    <rdf:RDF>
      <cc:Work
         rdf:about="">
        <dc:format>image/svg+xml</dc:format>
        <dc:type
           rdf:resource="http://purl.org/dc/dcmitype/StillImage" />
        <dc:title></dc:title>
      </cc:Work>
    </rdf:RDF>
  </metadata>
  <g
     inkscape:label="Layer 1"
     inkscape:groupmode="layer"
     id="layer1"
     transform="translate(0,-293.25)">
    <path
       inkscape:connector-curvature="0"
       id="path9893"
       d="m 0.55184359,293.4619 c -0.19154739,0 -0.34588766,0.15572 -0.34588766,0.34726 v 2.65273 c 0,0.19017 0.15434027,0.34589 0.34588766,0.34589 H 3.2045668 c 0.1915475,0 0.3458877,-0.15572 0.3458877,-0.34589 v -2.65273 c 0,-0.19154 -0.1543402,-0.34726 -0.3458877,-0.34726 z m 0,0"
       style="fill:#ffffff;fill-opacity:1;fill-rule:nonzero;stroke:none;stroke-width:0.35277775" />
    <path
       inkscape:connector-curvature="0"
       id="path9895"
       d="m 3.2045668,296.87806 c 0.2301325,0 0.4175459,-0.18604 0.4175459,-0.41617 v -2.65273 c 0,-0.23013 -0.1874134,-0.41754 -0.4175459,-0.41754 H 0.55184359 c -0.23013246,0 -0.41754565,0.18741 -0.41754565,0.41754 v 2.65273 c 0,0.23013 0.18741319,0.41617 0.41754565,0.41617 z m 0,0"
       style="fill:#211e1e;fill-opacity:1;fill-rule:nonzero;stroke:none;stroke-width:0.35277775" />
    <path
       inkscape:connector-curvature="0"
       id="path9897"
       d="m 1.767273,295.41734 c -0.1129989,-0.0248 -0.1984375,-0.1254 -0.1984375,-0.2453 0,-0.14055 0.1129993,-0.25218 0.2521811,-0.25218 0.1391821,0 0.2521811,0.11163 0.2521811,0.25218 0,0.1199 -0.08406,0.22049 -0.1984375,0.2453 z m 0.053744,-0.13781 c 0.060634,0 0.1102431,-0.0482 0.1102431,-0.10749 0,-0.0606 -0.049609,-0.11024 -0.1102431,-0.11024 -0.060634,0 -0.1088651,0.0496 -0.1088651,0.11024 0,0.0593 0.048231,0.10749 0.1088651,0.10749"
       style="fill:#ffffff;fill-opacity:1;fill-rule:nonzero;stroke:none;stroke-width:0.35277775" />
    <path
       inkscape:connector-curvature="0"
       id="path9899"
       d="m 0.95836493,294.29423 v -0.15158 c 0,-0.051 0.041341,-0.0923 0.0923283,-0.0923 h 0.6876411 c 0.050987,0 0.090951,0.0413 0.090951,0.0923 v 0.15158 c 0,0.051 -0.039963,0.0923 -0.090951,0.0923 H 1.0506932 c -0.0509873,0 -0.0923283,-0.0413 -0.0923283,-0.0923 m 1.2788194,-0.15158 c 0,-0.051 0.041341,-0.0923 0.09095,-0.0923 h 0.3183269 c 0.050987,0 0.09095,0.0413 0.09095,0.0923 v 0.15021 c 0,0.0524 -0.039963,0.0937 -0.09095,0.0937 H 2.3281347 c -0.049609,0 -0.09095,-0.0413 -0.09095,-0.0937 z m 0.8764323,1.91685 c 0.028938,0 0.052365,-0.0262 0.052365,-0.0579 0,-0.0317 -0.023429,-0.0579 -0.052365,-0.0579 h -0.253559 v -0.14055 H 2.7525704 c -0.151584,0 -0.2728514,0.11851 -0.3073022,0.27561 h -1.079004 c -0.073036,0.001 -0.2687175,0.005 -0.44372843,-0.0538 -0.13229167,-0.0455 -0.14607188,-0.14745 -0.14607188,-0.18879 0,-0.11576 0.0234281,-0.19017 0.14745017,-0.23151 0.26458334,-0.0868 0.28663194,-0.3073 0.28111944,-0.49472 h 0.2246203 c 0.012404,-0.18328 0.1984375,-0.32797 0.3844727,-0.32797 0.1860352,0 0.3720701,0.14469 0.3830944,0.32797 h 1.0707359 c 0,-0.051 -0.039963,-0.091 -0.089573,-0.091 H 3.0102637 l -0.00138,-0.80477 c 0,-0.24529 -0.1970596,-0.44235 -0.4423503,-0.44235 H 1.0617196 c -0.24529056,0 -0.44372806,0.19706 -0.44372806,0.44235 l 0.001376,0.57051 c 0,0.17914 0.14607222,0.32521 0.32659531,0.32521 H 1.0617177 c 0.00413,0.18053 -0.017914,0.30731 -0.18190068,0.36105 -0.2177302,0.0717 -0.24529098,0.23289 -0.24529098,0.36518 0,0.11575 0.0647679,0.26183 0.24253471,0.32246 0.16260835,0.0551 0.33486335,0.062 0.43683805,0.062 0.022049,0 0.041341,0 0.056499,0 h 1.0734918 v 0.0179 c 0.031694,0.16399 0.1543403,0.28801 0.3086806,0.28801 h 0.1074872 v -0.15572 h 0.253559 c 0.028938,0 0.052365,-0.0262 0.052365,-0.0579 0,-0.0317 -0.023429,-0.0579 -0.052365,-0.0579 h -0.253559 v -0.19568 z m 0,0"
       style="fill:#ffffff;fill-opacity:1;fill-rule:nonzero;stroke:none;stroke-width:0.35277775" />
  </g>
</svg>
