<?xml version="1.0" encoding="UTF-8" standalone="no"?>
<!-- Created with Inkscape (http://www.inkscape.org/) -->

<svg
   xmlns:dc="http://purl.org/dc/elements/1.1/"
   xmlns:cc="http://creativecommons.org/ns#"
   xmlns:rdf="http://www.w3.org/1999/02/22-rdf-syntax-ns#"
   xmlns:svg="http://www.w3.org/2000/svg"
   xmlns="http://www.w3.org/2000/svg"
   xmlns:sodipodi="http://sodipodi.sourceforge.net/DTD/sodipodi-0.dtd"
   xmlns:inkscape="http://www.inkscape.org/namespaces/inkscape"
   width="3.75mm"
   height="3.75mm"
   viewBox="0 0 3.75 3.75"
   version="1.1"
   id="svg13826"
   inkscape:version="0.92.1 r15371"
   sodipodi:docname="water_hookup_dark.svg">
  <defs
     id="defs13820" />
  <sodipodi:namedview
     id="base"
     pagecolor="#ffffff"
     bordercolor="#666666"
     borderopacity="1.0"
     inkscape:pageopacity="0.0"
     inkscape:pageshadow="2"
     inkscape:zoom="81.141288"
     inkscape:cx="2.4710364"
     inkscape:cy="11.705327"
     inkscape:document-units="mm"
     inkscape:current-layer="layer1"
     showgrid="false"
     inkscape:window-width="561"
     inkscape:window-height="558"
     inkscape:window-x="794"
     inkscape:window-y="78"
     inkscape:window-maximized="0"
     showguides="true"
     inkscape:guide-bbox="true"
     gridtolerance="10"
     guidetolerance="2"
     inkscape:lockguides="true">
    <inkscape:grid
       type="xygrid"
       id="grid13828" />
    <sodipodi:guide
       position="0.13043093,3.8477124"
       orientation="1,0"
       id="guide20533"
       inkscape:locked="true" />
    <sodipodi:guide
       position="1.9173346,3.6129367"
       orientation="0,1"
       id="guide20535"
       inkscape:locked="true" />
  </sodipodi:namedview>
  <metadata
     id="metadata13823">
    <rdf:RDF>
      <cc:Work
         rdf:about="">
        <dc:format>image/svg+xml</dc:format>
        <dc:type
           rdf:resource="http://purl.org/dc/dcmitype/StillImage" />
        <dc:title></dc:title>
      </cc:Work>
    </rdf:RDF>
  </metadata>
  <g
     inkscape:label="Layer 1"
     inkscape:groupmode="layer"
     id="layer1"
     transform="translate(0,-293.25)">
    <path
       inkscape:connector-curvature="0"
       id="path10261"
       d="m 0.54394375,293.46002 c -0.1901691,0 -0.34588732,0.15434 -0.34588732,0.34588 v 2.65273 c 0,0.19017 0.15571822,0.34451 0.34588732,0.34451 H 3.1980453 c 0.1915472,0 0.3458874,-0.15434 0.3458874,-0.34451 v -2.65273 c 0,-0.19154 -0.1543402,-0.34588 -0.3458874,-0.34588 z m 0,0"
       style="fill:#ffffff;fill-opacity:1;fill-rule:nonzero;stroke:none;stroke-width:0.35277775" />
    <path
       inkscape:connector-curvature="0"
       id="path10263"
       d="m 3.1980453,296.8748 c 0.2301325,0 0.4175459,-0.18604 0.4175459,-0.41617 v -2.65273 c 0,-0.23013 -0.1874134,-0.41754 -0.4175459,-0.41754 H 0.5453217 c -0.23151042,0 -0.41754531,0.18741 -0.41754531,0.41754 v 2.65273 c 0,0.23013 0.18603489,0.41617 0.41754531,0.41617 z m 0,0"
       style="fill:#211e1e;fill-opacity:1;fill-rule:nonzero;stroke:none;stroke-width:0.35277775" />
    <path
       inkscape:connector-curvature="0"
       id="path10265"
       d="m 0.91188003,294.08014 c 0,0 0.0234281,0 0.0344523,-10e-4 0.009645,-10e-4 0.35415607,-0.0868 0.43959427,-0.10749 0.015159,0.0606 0.052365,0.10887 0.1047309,0.14056 v 0.17087 H 1.729058 v -0.17776 c 0.046853,-0.0303 0.078548,-0.0744 0.093707,-0.12816 0.1074871,0.0262 0.4106555,0.1006 0.4189236,0.10197 0.011024,10e-4 0.034452,10e-4 0.034452,10e-4 0.095085,0 0.173633,-0.0772 0.173633,-0.17364 0,-0.0951 -0.078548,-0.17363 -0.173633,-0.17363 -0.012404,0 -0.028938,0.003 -0.028938,0.003 l -0.4285696,0.0965 c -0.033073,-0.0854 -0.1157556,-0.14745 -0.213596,-0.14745 -0.099219,0 -0.1819011,0.0634 -0.214974,0.15159 l -0.44924056,-0.1006 c 0,0 -0.0165346,-0.004 -0.0289384,-0.003 -0.0950845,0 -0.17225467,0.0772 -0.17225467,0.17363 0,0.0951 0.0771701,0.17364 0.17225467,0.17364"
       style="fill:#ffffff;fill-opacity:1;fill-rule:evenodd;stroke:none;stroke-width:0.35277775" />
    <path
       inkscape:connector-curvature="0"
       id="path10267"
       d="m 2.7570732,295.67453 v 0.005 c 0,0 -0.2508031,0.51401 -0.254937,0.53055 -0.00689,0.0262 -0.015159,0.062 -0.016538,0.0965 0,0.1502 0.1212674,0.27147 0.2714738,0.27147 0.1488281,0 0.2714736,-0.12127 0.2714736,-0.27147 -0.00414,-0.0551 -0.024805,-0.1006 -0.024805,-0.1006 z m 0,0"
       style="fill:#ffffff;fill-opacity:1;fill-rule:evenodd;stroke:none;stroke-width:0.35277775" />
    <path
       inkscape:connector-curvature="0"
       id="path10269"
       d="m 3.0189002,295.38514 v -0.28526 c 0,-0.42995 -0.4106551,-0.41203 -0.4106551,-0.41203 H 2.0887244 v -0.15159 L 1.8144951,294.39019 H 1.41073 l -0.2742297,0.14607 v 0.15159 H 0.67210154 v 0.51677 H 2.498002 v 0.18052 H 2.442881 v 0.1943 h 0.6283855 v -0.1943 z m 0,0"
       style="fill:#ffffff;fill-opacity:1;fill-rule:evenodd;stroke:none;stroke-width:0.35277775" />
  </g>
</svg>
