<?xml version="1.0" encoding="UTF-8" standalone="no"?>
<!-- Created with Inkscape (http://www.inkscape.org/) -->

<svg
   xmlns:dc="http://purl.org/dc/elements/1.1/"
   xmlns:cc="http://creativecommons.org/ns#"
   xmlns:rdf="http://www.w3.org/1999/02/22-rdf-syntax-ns#"
   xmlns:svg="http://www.w3.org/2000/svg"
   xmlns="http://www.w3.org/2000/svg"
   xmlns:sodipodi="http://sodipodi.sourceforge.net/DTD/sodipodi-0.dtd"
   xmlns:inkscape="http://www.inkscape.org/namespaces/inkscape"
   width="3.75mm"
   height="3.75mm"
   viewBox="0 0 3.75 3.75"
   version="1.1"
   id="svg13826"
   inkscape:version="0.92.1 r15371"
   sodipodi:docname="crosscountry_light.svg">
  <defs
     id="defs13820" />
  <sodipodi:namedview
     id="base"
     pagecolor="#ffffff"
     bordercolor="#666666"
     borderopacity="1.0"
     inkscape:pageopacity="0.0"
     inkscape:pageshadow="2"
     inkscape:zoom="28.687777"
     inkscape:cx="7.7296457"
     inkscape:cy="6.4105833"
     inkscape:document-units="mm"
     inkscape:current-layer="layer1"
     showgrid="false"
     inkscape:window-width="644"
     inkscape:window-height="699"
     inkscape:window-x="721"
     inkscape:window-y="35"
     inkscape:window-maximized="0"
     showguides="true"
     inkscape:guide-bbox="true"
     gridtolerance="10"
     guidetolerance="2">
    <inkscape:grid
       type="xygrid"
       id="grid13828" />
    <sodipodi:guide
       position="0.13043093,3.8477124"
       orientation="1,0"
       id="guide20533"
       inkscape:locked="false" />
    <sodipodi:guide
       position="1.9173346,3.6129367"
       orientation="0,1"
       id="guide20535"
       inkscape:locked="false" />
  </sodipodi:namedview>
  <metadata
     id="metadata13823">
    <rdf:RDF>
      <cc:Work
         rdf:about="">
        <dc:format>image/svg+xml</dc:format>
        <dc:type
           rdf:resource="http://purl.org/dc/dcmitype/StillImage" />
        <dc:title></dc:title>
      </cc:Work>
    </rdf:RDF>
  </metadata>
  <g
     inkscape:label="Layer 1"
     inkscape:groupmode="layer"
     id="layer1"
     transform="translate(0,-293.25)">
    <path
       inkscape:connector-curvature="0"
       id="path13309"
       d="m 3.1893809,296.88088 c 0.2301311,0 0.4175442,-0.18741 0.4175442,-0.41754 v -2.65272 c 0,-0.23014 -0.1874131,-0.41755 -0.4175442,-0.41755 H 0.53665784 c -0.23013458,0 -0.41754777,0.18741 -0.41754777,0.41755 v 2.65272 c 0,0.23013 0.18741319,0.41754 0.41754777,0.41754 z m 0,0"
       style="fill:#211e1e;fill-opacity:1;fill-rule:nonzero;stroke:none;stroke-width:0.35277775" />
    <path
       inkscape:connector-curvature="0"
       id="path13311"
       d="m 0.53665784,293.46473 c -0.19154775,0 -0.34726738,0.15434 -0.34726738,0.34451 v 2.6541 c 0,0.19155 0.15571963,0.34589 0.34726738,0.34589 H 3.1893809 c 0.1915477,0 0.3458879,-0.15434 0.3458879,-0.34589 v -2.6541 c 0,-0.19017 -0.1543402,-0.34451 -0.3458879,-0.34451 z m 0,0"
       style="fill:#ffffff;fill-opacity:1;fill-rule:nonzero;stroke:none;stroke-width:0.35277775" />
    <path
       inkscape:connector-curvature="0"
       id="path13313"
       d="m 2.6119825,294.14961 c 0.1281571,0 0.2328897,-0.10473 0.2328897,-0.23426 0,-0.12816 -0.1047326,-0.23289 -0.2328897,-0.23289 -0.1295365,0 -0.2342656,0.10473 -0.2342656,0.23289 0,0.12953 0.1047291,0.23426 0.2342656,0.23426"
       style="fill:#211e1e;fill-opacity:1;fill-rule:nonzero;stroke:none;stroke-width:0.35277775" />
    <path
       inkscape:connector-curvature="0"
       id="path13315"
       d="M 1.1319703,296.15879 0.3561344,295.3802 v 0.13505 l 0.7220903,0.72622 c 0.08406,0.0896 0.226,-0.0138 0.226,-0.0138 l -0.068901,-0.073 c 0,0 -0.066146,0.0441 -0.1019775,0.006 z m 0,0"
       style="fill:#211e1e;fill-opacity:1;fill-rule:nonzero;stroke:none;stroke-width:0.35277775" />
    <path
       inkscape:connector-curvature="0"
       id="path13317"
       d="M 1.1567742,294.6898 H 0.36164479 v 0.0951 H 1.1567742 Z m 0,0"
       style="fill:#211e1e;fill-opacity:1;fill-rule:nonzero;stroke:none;stroke-width:0.35277775" />
    <path
       inkscape:connector-curvature="0"
       id="path13319"
       d="m 3.3051342,294.46243 0.090953,0.0386 -0.9026171,1.81626 h -0.099219 z m 0,0"
       style="fill:#211e1e;fill-opacity:1;fill-rule:nonzero;stroke:none;stroke-width:0.35277775" />
    <path
       inkscape:connector-curvature="0"
       id="path13321"
       d="m 1.8085875,294.32325 -0.3638021,0.41892 c -0.022048,0.0262 -0.053746,0.0427 -0.090953,0.0427 -0.064766,0 -0.1171328,-0.0524 -0.1171328,-0.11713 0,-0.0358 0.015169,-0.0661 0.039963,-0.0882 l 0.3913646,-0.45062 c 0.022049,-0.0262 0.053742,-0.0427 0.08957,-0.0427 h 0.5677535 c 0.041342,0 0.078549,0.0165 0.1061085,0.0427 l 0.3610469,0.36105 0.3004113,-0.29904 c 0.020672,-0.0165 0.046852,-0.0276 0.07717,-0.0276 0.067525,0 0.1212672,0.0537 0.1212672,0.12127 0,0.0289 -0.00963,0.0551 -0.027552,0.0772 l -0.361047,0.3638 c -0.1088671,0.10887 -0.1970616,0.0152 -0.1970616,0.0152 l -0.221869,-0.22186 -0.345888,0.40101 0.3169497,0.31695 c 0,0 0.066146,0.062 0.028928,0.18603 l -0.1777683,0.79237 c -0.013793,0.0689 -0.075791,0.11989 -0.1488264,0.11989 -0.082684,0 -0.1502057,-0.0675 -0.1502057,-0.1502 0,-0.0138 0.00141,-0.0262 0.0055,-0.0386 l 0.1446953,-0.65043 -0.3596675,-0.35003 -0.3100599,0.34589 c 0,0 -0.050987,0.062 -0.1832786,0.0565 l -0.62838549,0.001 c -0.0702804,10e-4 -0.13504685,-0.0469 -0.15020571,-0.11851 -0.019297,-0.0799 0.0316794,-0.15986 0.11299825,-0.17777 0.0124177,-0.004 0.026176,-0.004 0.0385833,-0.004 l 0.54019095,0.001 0.7992639,-0.92742 z m 0,0"
       style="fill:#211e1e;fill-opacity:1;fill-rule:nonzero;stroke:none;stroke-width:0.35277775" />
    <path
       inkscape:connector-curvature="0"
       id="path13323"
       d="m 3.3175379,296.31175 c 0,0.0786 -0.064766,0.14194 -0.1419365,0.14194 H 0.85222813 v 0.0951 H 3.1756014 c 0.1309124,10e-4 0.2370209,-0.10473 0.2384001,-0.23565 z m 0,0"
       style="fill:#211e1e;fill-opacity:1;fill-rule:nonzero;stroke:none;stroke-width:0.35277775" />
  </g>
</svg>
