<?xml version="1.0" encoding="UTF-8" standalone="no"?>
<!-- Created with Inkscape (http://www.inkscape.org/) -->

<svg
   xmlns:dc="http://purl.org/dc/elements/1.1/"
   xmlns:cc="http://creativecommons.org/ns#"
   xmlns:rdf="http://www.w3.org/1999/02/22-rdf-syntax-ns#"
   xmlns:svg="http://www.w3.org/2000/svg"
   xmlns="http://www.w3.org/2000/svg"
   xmlns:sodipodi="http://sodipodi.sourceforge.net/DTD/sodipodi-0.dtd"
   xmlns:inkscape="http://www.inkscape.org/namespaces/inkscape"
   width="3.75mm"
   height="3.75mm"
   viewBox="0 0 3.75 3.75"
   version="1.1"
   id="svg13826"
   inkscape:version="0.92.1 r15371"
   sodipodi:docname="ice_fishing_light.svg">
  <defs
     id="defs13820" />
  <sodipodi:namedview
     id="base"
     pagecolor="#ffffff"
     bordercolor="#666666"
     borderopacity="1.0"
     inkscape:pageopacity="0.0"
     inkscape:pageshadow="2"
     inkscape:zoom="28.687777"
     inkscape:cx="7.7296457"
     inkscape:cy="6.4105833"
     inkscape:document-units="mm"
     inkscape:current-layer="layer1"
     showgrid="false"
     inkscape:window-width="644"
     inkscape:window-height="699"
     inkscape:window-x="721"
     inkscape:window-y="35"
     inkscape:window-maximized="0"
     showguides="true"
     inkscape:guide-bbox="true"
     gridtolerance="10"
     guidetolerance="2">
    <inkscape:grid
       type="xygrid"
       id="grid13828" />
    <sodipodi:guide
       position="0.13043093,3.8477124"
       orientation="1,0"
       id="guide20533"
       inkscape:locked="false" />
    <sodipodi:guide
       position="1.9173346,3.6129367"
       orientation="0,1"
       id="guide20535"
       inkscape:locked="false" />
  </sodipodi:namedview>
  <metadata
     id="metadata13823">
    <rdf:RDF>
      <cc:Work
         rdf:about="">
        <dc:format>image/svg+xml</dc:format>
        <dc:type
           rdf:resource="http://purl.org/dc/dcmitype/StillImage" />
        <dc:title></dc:title>
      </cc:Work>
    </rdf:RDF>
  </metadata>
  <g
     inkscape:label="Layer 1"
     inkscape:groupmode="layer"
     id="layer1"
     transform="translate(0,-293.25)">
    <path
       inkscape:connector-curvature="0"
       id="path4649"
       d="m 3.198602,296.86175 c 0.2301309,0 0.4161684,-0.18604 0.4161684,-0.41617 v -2.65272 c 0,-0.23014 -0.1860375,-0.41755 -0.4161684,-0.41755 H 0.54449951 c -0.22875521,0 -0.41478904,0.18741 -0.41478904,0.41755 v 2.65272 c 0,0.23013 0.18603383,0.41617 0.41478904,0.41617 z m 0,0"
       style="fill:#211e1e;fill-opacity:1;fill-rule:nonzero;stroke:none;stroke-width:0.35277775" />
    <path
       inkscape:connector-curvature="0"
       id="path4651"
       d="m 0.54587889,293.44697 c -0.19154776,0 -0.34588803,0.15434 -0.34588803,0.34589 v 2.65272 c 0,0.19155 0.15434027,0.34589 0.34588803,0.34589 H 3.198602 c 0.1901682,0 0.3458879,-0.15434 0.3458879,-0.34589 v -2.65272 c 0,-0.19155 -0.1557197,-0.34589 -0.3458879,-0.34589 z m 0,0"
       style="fill:#ffffff;fill-opacity:1;fill-rule:nonzero;stroke:none;stroke-width:0.35277775" />
    <path
       inkscape:connector-curvature="0"
       id="path4653"
       d="m 2.1375134,295.64632 c 0.062011,0 0.1129983,-0.051 0.1129983,-0.11438 0,-0.062 -0.050987,-0.113 -0.1129983,-0.113 -0.062015,0 -0.1130017,0.051 -0.1130017,0.113 0,0.0634 0.050987,0.11438 0.1130017,0.11438 m 1.1230998,0.81717 c -0.6711033,0.01 -1.3739036,-0.11851 -1.9113394,-0.55121 -0.00282,-0.003 -0.0055,-0.007 -0.0055,-0.0124 0,-0.01 0.00826,-0.0179 0.019297,-0.0179 l 0.5291667,10e-4 c 0.026176,0 0.046856,-0.0207 0.046856,-0.0469 0,-0.0193 -0.00967,-0.0331 -0.028928,-0.0427 L 1.43061,295.56462 c -0.00963,-0.005 -0.015169,-0.0152 -0.015169,-0.0276 0,-0.008 0.00413,-0.0165 0.00963,-0.022 0,0 0.5829124,-0.51538 1.8355484,-0.50436 z m 0,0"
       style="fill:#211e1e;fill-opacity:1;fill-rule:nonzero;stroke:none;stroke-width:0.35277775" />
    <path
       inkscape:connector-curvature="0"
       id="path4655"
       d="M 0.96617832,293.72533 H 0.46181899 v 0.40928 h 0.50435933 z m 0,0"
       style="fill:#211e1e;fill-opacity:1;fill-rule:nonzero;stroke:none;stroke-width:0.35277775" />
    <path
       inkscape:connector-curvature="0"
       id="path4657"
       d="M 3.3005759,293.72533 H 1.5063693 v 0.40515 h 1.7942066 z m 0,0"
       style="fill:#211e1e;fill-opacity:1;fill-rule:nonzero;stroke:none;stroke-width:0.35277775" />
    <path
       inkscape:connector-curvature="0"
       id="path4659"
       d="m 1.2032027,294.35096 c -0.044097,0.0138 -0.07717,0.0565 -0.07717,0.10611 0,0.0496 0.034466,0.0923 0.07717,0.10886 v 0.69867 c 0,0.0909 -0.07166,0.16261 -0.1612301,0.16261 -0.0895738,0 -0.16260936,-0.0717 -0.16260936,-0.16261 0,-0.0221 0.004128,-0.0427 0.0124177,-0.062 l 0.006879,0.006 0.0578767,0.0524 -0.0372075,-0.31971 -0.092329,0.21498 c -0.0275519,0.0661 -0.0206727,0.10886 -0.0206727,0.10886 0,0.13092 0.10472912,0.23702 0.23564496,0.23702 0.1309124,0 0.235645,-0.1061 0.235645,-0.23702 v -0.70004 c 0.044097,-0.0165 0.075791,-0.0579 0.075791,-0.10749 0,-0.0496 -0.031679,-0.0923 -0.075791,-0.10749 v -0.62425 h -0.074415 z m 0,0"
       style="fill:#211e1e;fill-opacity:1;fill-rule:nonzero;stroke:none;stroke-width:0.35277775" />
  </g>
</svg>
