<?xml version="1.0" encoding="UTF-8" standalone="no"?>
<!-- Created with Inkscape (http://www.inkscape.org/) -->

<svg
   xmlns:dc="http://purl.org/dc/elements/1.1/"
   xmlns:cc="http://creativecommons.org/ns#"
   xmlns:rdf="http://www.w3.org/1999/02/22-rdf-syntax-ns#"
   xmlns:svg="http://www.w3.org/2000/svg"
   xmlns="http://www.w3.org/2000/svg"
   xmlns:sodipodi="http://sodipodi.sourceforge.net/DTD/sodipodi-0.dtd"
   xmlns:inkscape="http://www.inkscape.org/namespaces/inkscape"
   width="3.75mm"
   height="3.75mm"
   viewBox="0 0 3.75 3.75"
   version="1.1"
   id="svg13826"
   inkscape:version="0.92.1 r15371"
   sodipodi:docname="ice_fishing_dark.svg">
  <defs
     id="defs13820" />
  <sodipodi:namedview
     id="base"
     pagecolor="#ffffff"
     bordercolor="#666666"
     borderopacity="1.0"
     inkscape:pageopacity="0.0"
     inkscape:pageshadow="2"
     inkscape:zoom="28.687777"
     inkscape:cx="7.7296457"
     inkscape:cy="6.4105833"
     inkscape:document-units="mm"
     inkscape:current-layer="layer1"
     showgrid="false"
     inkscape:window-width="644"
     inkscape:window-height="699"
     inkscape:window-x="721"
     inkscape:window-y="35"
     inkscape:window-maximized="0"
     showguides="true"
     inkscape:guide-bbox="true"
     gridtolerance="10"
     guidetolerance="2">
    <inkscape:grid
       type="xygrid"
       id="grid13828" />
    <sodipodi:guide
       position="0.13043093,3.8477124"
       orientation="1,0"
       id="guide20533"
       inkscape:locked="false" />
    <sodipodi:guide
       position="1.9173346,3.6129367"
       orientation="0,1"
       id="guide20535"
       inkscape:locked="false" />
  </sodipodi:namedview>
  <metadata
     id="metadata13823">
    <rdf:RDF>
      <cc:Work
         rdf:about="">
        <dc:format>image/svg+xml</dc:format>
        <dc:type
           rdf:resource="http://purl.org/dc/dcmitype/StillImage" />
        <dc:title></dc:title>
      </cc:Work>
    </rdf:RDF>
  </metadata>
  <g
     inkscape:label="Layer 1"
     inkscape:groupmode="layer"
     id="layer1"
     transform="translate(0,-293.25)">
    <path
       inkscape:connector-curvature="0"
       id="path2979"
       d="m 0.41606741,293.46405 c -0.19016838,0 -0.34588801,0.15572 -0.34588801,0.34727 v 2.65272 c 0,0.19017 0.15571963,0.34589 0.34588801,0.34589 H 3.0687903 c 0.1915477,0 0.3458882,-0.15572 0.3458882,-0.34589 v -2.65272 c 0,-0.19155 -0.1543405,-0.34727 -0.3458882,-0.34727 z m 0,0"
       style="fill:#ffffff;fill-opacity:1;fill-rule:nonzero;stroke:none;stroke-width:0.35277775" />
    <path
       inkscape:connector-curvature="0"
       id="path2981"
       d="m 3.1979103,296.88021 c 0.2301346,0 0.4175479,-0.18604 0.4175479,-0.41617 v -2.65272 c 0,-0.23014 -0.1874133,-0.41755 -0.4175479,-0.41755 H 0.54518744 c -0.23013104,0 -0.41616487,0.18741 -0.41616487,0.41755 v 2.65272 c 0,0.23013 0.18603383,0.41617 0.41616487,0.41617 z m 0,0"
       style="fill:#211e1e;fill-opacity:1;fill-rule:nonzero;stroke:none;stroke-width:0.35277775" />
    <path
       inkscape:connector-curvature="0"
       id="path2983"
       d="m 2.0077019,295.66478 c 0.063391,0 0.1143776,-0.0524 0.1143776,-0.11438 0,-0.062 -0.050987,-0.113 -0.1143776,-0.113 -0.062011,0 -0.1129982,0.051 -0.1129982,0.113 0,0.062 0.050987,0.11438 0.1129982,0.11438 m 1.1231033,0.8158 c -0.6711068,0.011 -1.3725278,-0.11851 -1.9113394,-0.54984 -0.00282,-0.003 -0.00413,-0.007 -0.00413,-0.0124 0,-0.01 0.00825,-0.0179 0.017921,-0.0179 l 0.5291667,10e-4 c 0.026176,0 0.046852,-0.0207 0.046852,-0.0469 0,-0.0207 -0.00826,-0.0331 -0.028928,-0.0427 L 1.302168,295.58171 c -0.00963,-0.004 -0.015169,-0.0152 -0.015169,-0.0262 0,-0.008 0.00282,-0.0165 0.00825,-0.022 0,0 0.5842882,-0.51538 1.8355485,-0.50436 z m 0,0"
       style="fill:#ffffff;fill-opacity:1;fill-rule:nonzero;stroke:none;stroke-width:0.35277775" />
    <path
       inkscape:connector-curvature="0"
       id="path2985"
       d="M 0.83637039,293.74379 H 0.33200754 v 0.40928 h 0.50436285 z m 0,0"
       style="fill:#ffffff;fill-opacity:1;fill-rule:nonzero;stroke:none;stroke-width:0.35277775" />
    <path
       inkscape:connector-curvature="0"
       id="path2987"
       d="M 3.1721437,293.74379 H 1.3765613 v 0.40377 h 1.7955824 z m 0,0"
       style="fill:#ffffff;fill-opacity:1;fill-rule:nonzero;stroke:none;stroke-width:0.35277775" />
    <path
       inkscape:connector-curvature="0"
       id="path2989"
       d="m 1.0747705,294.36942 c -0.045477,0.0138 -0.07717,0.0565 -0.07717,0.10611 0,0.0496 0.033055,0.0923 0.07717,0.10749 v 0.70004 c 0,0.0909 -0.073036,0.16261 -0.16260934,0.16261 -0.0895703,0 -0.16260585,-0.0717 -0.16260585,-0.16261 0,-0.0221 0.005503,-0.0427 0.0123825,-0.062 l 0.008255,0.006 0.0565009,0.0524 -0.0358316,-0.31971 -0.092329,0.21498 c -0.0289278,0.0661 -0.0220485,0.10886 -0.0220485,0.10886 0,0.13092 0.10473266,0.23702 0.23564498,0.23702 0.13091581,0 0.23564491,-0.1061 0.23564491,-0.23702 v -0.70004 c 0.044097,-0.0165 0.075794,-0.0593 0.075794,-0.10749 0,-0.0496 -0.031715,-0.0923 -0.075794,-0.10749 v -0.62424 h -0.073036 z m 0,0"
       style="fill:#ffffff;fill-opacity:1;fill-rule:nonzero;stroke:none;stroke-width:0.35277775" />
  </g>
</svg>
