<?xml version="1.0" encoding="UTF-8" standalone="no"?>
<!-- Created with Inkscape (http://www.inkscape.org/) -->

<svg
   xmlns:dc="http://purl.org/dc/elements/1.1/"
   xmlns:cc="http://creativecommons.org/ns#"
   xmlns:rdf="http://www.w3.org/1999/02/22-rdf-syntax-ns#"
   xmlns:svg="http://www.w3.org/2000/svg"
   xmlns="http://www.w3.org/2000/svg"
   xmlns:sodipodi="http://sodipodi.sourceforge.net/DTD/sodipodi-0.dtd"
   xmlns:inkscape="http://www.inkscape.org/namespaces/inkscape"
   width="3.75mm"
   height="3.75mm"
   viewBox="0 0 3.75 3.75"
   version="1.1"
   id="svg13826"
   inkscape:version="0.92.1 r15371"
   sodipodi:docname="ski_jump_dark.svg">
  <defs
     id="defs13820" />
  <sodipodi:namedview
     id="base"
     pagecolor="#ffffff"
     bordercolor="#666666"
     borderopacity="1.0"
     inkscape:pageopacity="0.0"
     inkscape:pageshadow="2"
     inkscape:zoom="28.687777"
     inkscape:cx="7.7296457"
     inkscape:cy="6.4105833"
     inkscape:document-units="mm"
     inkscape:current-layer="layer1"
     showgrid="false"
     inkscape:window-width="644"
     inkscape:window-height="699"
     inkscape:window-x="721"
     inkscape:window-y="35"
     inkscape:window-maximized="0"
     showguides="true"
     inkscape:guide-bbox="true"
     gridtolerance="10"
     guidetolerance="2">
    <inkscape:grid
       type="xygrid"
       id="grid13828" />
    <sodipodi:guide
       position="0.13043093,3.8477124"
       orientation="1,0"
       id="guide20533"
       inkscape:locked="false" />
    <sodipodi:guide
       position="1.9173346,3.6129367"
       orientation="0,1"
       id="guide20535"
       inkscape:locked="false" />
  </sodipodi:namedview>
  <metadata
     id="metadata13823">
    <rdf:RDF>
      <cc:Work
         rdf:about="">
        <dc:format>image/svg+xml</dc:format>
        <dc:type
           rdf:resource="http://purl.org/dc/dcmitype/StillImage" />
        <dc:title></dc:title>
      </cc:Work>
    </rdf:RDF>
  </metadata>
  <g
     inkscape:label="Layer 1"
     inkscape:groupmode="layer"
     id="layer1"
     transform="translate(0,-293.25)">
    <path
       inkscape:connector-curvature="0"
       id="path2859"
       d="m 0.54518744,293.46404 c -0.19016838,0 -0.34588801,0.15572 -0.34588801,0.34589 v 2.6541 c 0,0.19017 0.15571963,0.34589 0.34588801,0.34589 H 3.1979104 c 0.1915477,0 0.3458882,-0.15572 0.3458882,-0.34589 v -2.6541 c 0,-0.19017 -0.1543405,-0.34589 -0.3458882,-0.34589 z m 0,0"
       style="fill:#ffffff;fill-opacity:1;fill-rule:nonzero;stroke:none;stroke-width:0.35277775" />
    <path
       inkscape:connector-curvature="0"
       id="path2861"
       d="m 3.1979104,296.8802 c 0.2301346,0 0.4175479,-0.18604 0.4175479,-0.41617 v -2.6541 c 0,-0.23014 -0.1874133,-0.41617 -0.4175479,-0.41617 H 0.54518744 c -0.23013104,0 -0.41616487,0.18603 -0.41616487,0.41617 v 2.6541 c 0,0.23013 0.18603383,0.41617 0.41616487,0.41617 z m 0,0"
       style="fill:#211e1e;fill-opacity:1;fill-rule:nonzero;stroke:none;stroke-width:0.35277775" />
    <path
       inkscape:connector-curvature="0"
       id="path2863"
       d="m 2.5102725,294.16408 c 0.129533,0 0.2342656,-0.10473 0.2342656,-0.23288 0,-0.12954 -0.1047326,-0.23427 -0.2342656,-0.23427 -0.1281606,0 -0.2328897,0.10473 -0.2328897,0.23427 0,0.12815 0.1047291,0.23288 0.2328897,0.23288"
       style="fill:#ffffff;fill-opacity:1;fill-rule:nonzero;stroke:none;stroke-width:0.35277775" />
    <path
       inkscape:connector-curvature="0"
       id="path2865"
       d="m 1.5208403,295.10942 0.839223,-0.54157 c 0.1088672,-0.0703 0.1419401,-0.21498 0.073039,-0.32384 -0.068904,-0.11024 -0.2149757,-0.14332 -0.3238394,-0.073 l -0.6187405,0.39964 c -0.035828,0.022 -0.063391,0.0524 -0.081305,0.0868 l -0.64354426,1.26918 c -0.0372075,0.0744 -0.008255,0.16536 0.0661458,0.20394 0.074415,0.0372 0.16536454,0.008 0.20395146,-0.0661 z m 0,0"
       style="fill:#ffffff;fill-opacity:1;fill-rule:nonzero;stroke:none;stroke-width:0.35277775" />
    <path
       inkscape:connector-curvature="0"
       id="path2867"
       d="m 3.1551926,295.02122 c 0.1102432,-0.0703 0.1446954,-0.21635 0.075791,-0.32659 l -0.081301,0.0496 c 0.041339,0.0661 0.020672,0.15434 -0.045476,0.19568 l -2.5769322,1.63022 0.050987,0.0813 z m 0,0"
       style="fill:#ffffff;fill-opacity:1;fill-rule:nonzero;stroke:none;stroke-width:0.35277775" />
  </g>
</svg>
