<?xml version="1.0" encoding="UTF-8" standalone="no"?>
<!-- Created with Inkscape (http://www.inkscape.org/) -->

<svg
   xmlns:dc="http://purl.org/dc/elements/1.1/"
   xmlns:cc="http://creativecommons.org/ns#"
   xmlns:rdf="http://www.w3.org/1999/02/22-rdf-syntax-ns#"
   xmlns:svg="http://www.w3.org/2000/svg"
   xmlns="http://www.w3.org/2000/svg"
   xmlns:sodipodi="http://sodipodi.sourceforge.net/DTD/sodipodi-0.dtd"
   xmlns:inkscape="http://www.inkscape.org/namespaces/inkscape"
   width="3.75mm"
   height="3.75mm"
   viewBox="0 0 3.75 3.75"
   version="1.1"
   id="svg13826"
   inkscape:version="0.92.1 r15371"
   sodipodi:docname="sledding_dark.svg">
  <defs
     id="defs13820" />
  <sodipodi:namedview
     id="base"
     pagecolor="#ffffff"
     bordercolor="#666666"
     borderopacity="1.0"
     inkscape:pageopacity="0.0"
     inkscape:pageshadow="2"
     inkscape:zoom="28.687777"
     inkscape:cx="7.7296457"
     inkscape:cy="6.4105833"
     inkscape:document-units="mm"
     inkscape:current-layer="layer1"
     showgrid="false"
     inkscape:window-width="644"
     inkscape:window-height="699"
     inkscape:window-x="721"
     inkscape:window-y="35"
     inkscape:window-maximized="0"
     showguides="true"
     inkscape:guide-bbox="true"
     gridtolerance="10"
     guidetolerance="2">
    <inkscape:grid
       type="xygrid"
       id="grid13828" />
    <sodipodi:guide
       position="0.13043093,3.8477124"
       orientation="1,0"
       id="guide20533"
       inkscape:locked="false" />
    <sodipodi:guide
       position="1.9173346,3.6129367"
       orientation="0,1"
       id="guide20535"
       inkscape:locked="false" />
  </sodipodi:namedview>
  <metadata
     id="metadata13823">
    <rdf:RDF>
      <cc:Work
         rdf:about="">
        <dc:format>image/svg+xml</dc:format>
        <dc:type
           rdf:resource="http://purl.org/dc/dcmitype/StillImage" />
        <dc:title></dc:title>
      </cc:Work>
    </rdf:RDF>
  </metadata>
  <g
     inkscape:label="Layer 1"
     inkscape:groupmode="layer"
     id="layer1"
     transform="translate(0,-293.25)">
    <path
       inkscape:connector-curvature="0"
       id="path12071"
       d="m 0.5544103,293.46267 c -0.19154774,0 -0.34588801,0.15572 -0.34588801,0.34727 v 2.6541 c 0,0.19017 0.15434027,0.34589 0.34588801,0.34589 h 2.6527229 c 0.1915477,0 0.3472675,-0.15572 0.3472675,-0.34589 v -2.6541 c 0,-0.19155 -0.1557198,-0.34727 -0.3472675,-0.34727 z m 0,0"
       style="fill:#ffffff;fill-opacity:1;fill-rule:nonzero;stroke:none;stroke-width:0.35277775" />
    <path
       inkscape:connector-curvature="0"
       id="path12073"
       d="m 3.2071332,296.88021 c 0.2301346,0 0.4175479,-0.18604 0.4175479,-0.41617 v -2.6541 c 0,-0.23014 -0.1874133,-0.41617 -0.4175479,-0.41617 H 0.5544103 c -0.23013104,0 -0.41616487,0.18603 -0.41616487,0.41617 v 2.6541 c 0,0.23013 0.18603383,0.41617 0.41616487,0.41617 z m 0,0"
       style="fill:#211e1e;fill-opacity:1;fill-rule:nonzero;stroke:none;stroke-width:0.35277775" />
    <path
       inkscape:connector-curvature="0"
       id="path12075"
       d="m 2.9356601,295.5945 c 0.1515851,0 0.2742319,-0.12403 0.2742319,-0.27561 0,-0.15296 -0.1226468,-0.27423 -0.2742319,-0.27423 -0.1515814,0 -0.2742282,0.12127 -0.2742282,0.27423 0,0.15158 0.1226468,0.27561 0.2742282,0.27561"
       style="fill:#ffffff;fill-opacity:1;fill-rule:nonzero;stroke:none;stroke-width:0.35277775" />
    <path
       inkscape:connector-curvature="0"
       id="path12077"
       d="m 3.1327218,296.2091 c 0.011007,0.004 0.024799,0.006 0.038583,0.006 0.07028,0 0.128157,-0.0565 0.128157,-0.12678 0,-0.0537 -0.033055,-0.0992 -0.079925,-0.11851 l -0.3803367,-0.14745 -0.276987,-0.49196 c 0,0 -0.022048,-0.0551 -0.1019739,-0.0841 l -0.9081275,-0.36563 -0.540191,-0.91364 c -0.0316794,-0.0524 -0.0895738,-0.0882 -0.15434023,-0.0882 -0.1005981,0 -0.18190282,0.0813 -0.18190282,0.18052 0,0.0317 0.009666,0.062 0.0234244,0.0882 l 0.66972745,1.13688 -0.42443743,-0.17088 -0.10748788,0.0648 1.69774291,0.66835 0.068905,0.11024 c 0,0 0.027552,0.0593 0.1102431,0.091 l 0.2094616,0.0827 c -0.136426,0.13643 -0.3279738,0.0772 -0.3279738,0.0772 l -2.07256934,-0.83233 -0.1143776,0.0689 2.16351894,0.85576 c 0.2508038,0.091 0.4575103,-0.12816 0.4575103,-0.12816 z m 0,0"
       style="fill:#ffffff;fill-opacity:1;fill-rule:nonzero;stroke:none;stroke-width:0.35277775" />
  </g>
</svg>
