<?xml version="1.0" encoding="UTF-8" standalone="no"?>
<!-- Created with Inkscape (http://www.inkscape.org/) -->

<svg
   xmlns:dc="http://purl.org/dc/elements/1.1/"
   xmlns:cc="http://creativecommons.org/ns#"
   xmlns:rdf="http://www.w3.org/1999/02/22-rdf-syntax-ns#"
   xmlns:svg="http://www.w3.org/2000/svg"
   xmlns="http://www.w3.org/2000/svg"
   xmlns:sodipodi="http://sodipodi.sourceforge.net/DTD/sodipodi-0.dtd"
   xmlns:inkscape="http://www.inkscape.org/namespaces/inkscape"
   width="3.75mm"
   height="3.75mm"
   viewBox="0 0 3.75 3.75"
   version="1.1"
   id="svg13826"
   inkscape:version="0.92.1 r15371"
   sodipodi:docname="snowmobile_dark.svg">
  <defs
     id="defs13820" />
  <sodipodi:namedview
     id="base"
     pagecolor="#ffffff"
     bordercolor="#666666"
     borderopacity="1.0"
     inkscape:pageopacity="0.0"
     inkscape:pageshadow="2"
     inkscape:zoom="28.687777"
     inkscape:cx="7.7296457"
     inkscape:cy="6.4105833"
     inkscape:document-units="mm"
     inkscape:current-layer="layer1"
     showgrid="false"
     inkscape:window-width="644"
     inkscape:window-height="699"
     inkscape:window-x="721"
     inkscape:window-y="35"
     inkscape:window-maximized="0"
     showguides="true"
     inkscape:guide-bbox="true"
     gridtolerance="10"
     guidetolerance="2">
    <inkscape:grid
       type="xygrid"
       id="grid13828" />
    <sodipodi:guide
       position="0.13043093,3.8477124"
       orientation="1,0"
       id="guide20533"
       inkscape:locked="false" />
    <sodipodi:guide
       position="1.9173346,3.6129367"
       orientation="0,1"
       id="guide20535"
       inkscape:locked="false" />
  </sodipodi:namedview>
  <metadata
     id="metadata13823">
    <rdf:RDF>
      <cc:Work
         rdf:about="">
        <dc:format>image/svg+xml</dc:format>
        <dc:type
           rdf:resource="http://purl.org/dc/dcmitype/StillImage" />
        <dc:title></dc:title>
      </cc:Work>
    </rdf:RDF>
  </metadata>
  <g
     inkscape:label="Layer 1"
     inkscape:groupmode="layer"
     id="layer1"
     transform="translate(0,-293.25)">
    <path
       inkscape:connector-curvature="0"
       id="path12633"
       d="m 0.54518744,293.45482 c -0.19154774,0 -0.34588801,0.15434 -0.34588801,0.34588 v 2.65411 c 0,0.19017 0.15434027,0.34451 0.34588801,0.34451 H 3.1992898 c 0.1901682,0 0.345888,-0.15434 0.345888,-0.34451 v -2.65411 c 0,-0.19154 -0.1557198,-0.34588 -0.345888,-0.34588 z m 0,0"
       style="fill:#ffffff;fill-opacity:1;fill-rule:nonzero;stroke:none;stroke-width:0.35277775" />
    <path
       inkscape:connector-curvature="0"
       id="path12635"
       d="m 3.1992898,296.87098 c 0.2301309,0 0.4161684,-0.18604 0.4161684,-0.41755 v -2.65273 c 0,-0.23013 -0.1860375,-0.41616 -0.4161684,-0.41616 H 0.54518744 c -0.23013104,0 -0.41616487,0.18603 -0.41616487,0.41616 v 2.65273 c 0,0.23151 0.18603383,0.41755 0.41616487,0.41755 z m 0,0"
       style="fill:#211e1e;fill-opacity:1;fill-rule:nonzero;stroke:none;stroke-width:0.35277775" />
    <path
       inkscape:connector-curvature="0"
       id="path12637"
       d="m 1.6035207,294.26511 c 0.1281571,0 0.2328897,-0.10336 0.2328897,-0.23289 0,-0.12816 -0.1047326,-0.23289 -0.2328897,-0.23289 -0.1281571,0 -0.2328863,0.10473 -0.2328863,0.23289 0,0.12953 0.1047292,0.23289 0.2328863,0.23289"
       style="fill:#ffffff;fill-opacity:1;fill-rule:nonzero;stroke:none;stroke-width:0.35277775" />
    <path
       inkscape:connector-curvature="0"
       id="path12639"
       d="m 1.8777525,296.14888 h 1.1093203 c 0,0 0.071656,0.006 0.2149721,-0.11024 l 0.2425348,-0.18466 v 0.20947 l -0.2480452,0.18603 c 0,0 -0.073036,0.0593 -0.1970617,0.073 H 1.7854235 Z m 0,0"
       style="fill:#ffffff;fill-opacity:1;fill-rule:nonzero;stroke:none;stroke-width:0.35277775" />
    <path
       inkscape:connector-curvature="0"
       id="path12641"
       d="M 0.33297045,296.32252 H 1.4422907 l 0.092329,-0.17364 H 0.41565451 l -0.092329,0.17364 z m 0,0"
       style="fill:#ffffff;fill-opacity:1;fill-rule:nonzero;stroke:none;stroke-width:0.35277775" />
    <path
       inkscape:connector-curvature="0"
       id="path12643"
       d="m 1.7234122,294.54898 c 0,-0.12816 -0.1047326,-0.23289 -0.2342691,-0.23289 -0.1281571,0 -0.2328863,0.10473 -0.2328863,0.23289 v 0.57189 c 0,0.0717 0.035828,0.13918 0.088194,0.1819 H 0.82079509 l -0.2824974,0.51263 c -0.005503,0.0124 -0.008255,0.0248 -0.008255,0.0386 0,0.0469 0.0385868,0.0854 0.0840634,0.0854 H 2.5419801 c 0,0 0.08268,0.0138 0.2067066,-0.0841 l 0.5002284,-0.36794 -0.1887927,-0.33073 c 0,0 -0.042718,-0.0799 -0.2025721,-0.10335 l -0.3775815,-0.0634 -0.202572,-0.33899 -0.00141,-0.004 c -0.030305,-0.0331 -0.081306,-0.0358 -0.1143786,-0.007 h -0.00141 c -0.023424,0.0221 -0.031679,0.0579 -0.019297,0.0896 l 0.1502057,0.2508 v 0.003 l -0.1874142,0.3197 -0.3803367,-0.1447 v -0.14193 h 0.3004679 c 0.013794,10e-4 0.028928,-0.001 0.044097,-0.007 0.056501,-0.022 0.085439,-0.0854 0.063391,-0.14332 -0.016545,-0.0441 -0.05788,-0.0689 -0.1019775,-0.0703 l -0.3059218,-0.001 v -0.24529"
       style="fill:#ffffff;fill-opacity:1;fill-rule:nonzero;stroke:none;stroke-width:0.35277775" />
  </g>
</svg>
