<?xml version="1.0" encoding="UTF-8" standalone="no"?>
<!-- Created with Inkscape (http://www.inkscape.org/) -->

<svg
   xmlns:dc="http://purl.org/dc/elements/1.1/"
   xmlns:cc="http://creativecommons.org/ns#"
   xmlns:rdf="http://www.w3.org/1999/02/22-rdf-syntax-ns#"
   xmlns:svg="http://www.w3.org/2000/svg"
   xmlns="http://www.w3.org/2000/svg"
   xmlns:sodipodi="http://sodipodi.sourceforge.net/DTD/sodipodi-0.dtd"
   xmlns:inkscape="http://www.inkscape.org/namespaces/inkscape"
   width="3.75mm"
   height="3.75mm"
   viewBox="0 0 3.75 3.75"
   version="1.1"
   id="svg13826"
   inkscape:version="0.92.1 r15371"
   sodipodi:docname="snowshow_dark.svg">
  <defs
     id="defs13820" />
  <sodipodi:namedview
     id="base"
     pagecolor="#ffffff"
     bordercolor="#666666"
     borderopacity="1.0"
     inkscape:pageopacity="0.0"
     inkscape:pageshadow="2"
     inkscape:zoom="28.687777"
     inkscape:cx="7.7296457"
     inkscape:cy="6.4105833"
     inkscape:document-units="mm"
     inkscape:current-layer="layer1"
     showgrid="false"
     inkscape:window-width="644"
     inkscape:window-height="699"
     inkscape:window-x="721"
     inkscape:window-y="35"
     inkscape:window-maximized="0"
     showguides="true"
     inkscape:guide-bbox="true"
     gridtolerance="10"
     guidetolerance="2">
    <inkscape:grid
       type="xygrid"
       id="grid13828" />
    <sodipodi:guide
       position="0.13043093,3.8477124"
       orientation="1,0"
       id="guide20533"
       inkscape:locked="false" />
    <sodipodi:guide
       position="1.9173346,3.6129367"
       orientation="0,1"
       id="guide20535"
       inkscape:locked="false" />
  </sodipodi:namedview>
  <metadata
     id="metadata13823">
    <rdf:RDF>
      <cc:Work
         rdf:about="">
        <dc:format>image/svg+xml</dc:format>
        <dc:type
           rdf:resource="http://purl.org/dc/dcmitype/StillImage" />
        <dc:title></dc:title>
      </cc:Work>
    </rdf:RDF>
  </metadata>
  <g
     inkscape:label="Layer 1"
     inkscape:groupmode="layer"
     id="layer1"
     transform="translate(0,-293.25)">
    <path
       inkscape:connector-curvature="0"
       id="path2945"
       d="m 0.54518745,293.46404 c -0.19016838,0 -0.34588801,0.15572 -0.34588801,0.34589 v 2.6541 c 0,0.19017 0.15571963,0.34451 0.34588801,0.34451 H 3.1992899 c 0.1901682,0 0.3445087,-0.15434 0.3445087,-0.34451 v -2.6541 c 0,-0.19017 -0.1543405,-0.34589 -0.3445087,-0.34589 z m 0,0"
       style="fill:#ffffff;fill-opacity:1;fill-rule:nonzero;stroke:none;stroke-width:0.35277775" />
    <path
       inkscape:connector-curvature="0"
       id="path2947"
       d="m 3.1992899,296.8802 c 0.2301309,0 0.4161684,-0.18604 0.4161684,-0.41617 v -2.6541 c 0,-0.23013 -0.1860375,-0.41617 -0.4161684,-0.41617 H 0.54518745 c -0.23013104,0 -0.41616487,0.18604 -0.41616487,0.41617 v 2.6541 c 0,0.23013 0.18603383,0.41617 0.41616487,0.41617 z m 0,0"
       style="fill:#211e1e;fill-opacity:1;fill-rule:nonzero;stroke:none;stroke-width:0.35277775" />
    <path
       inkscape:connector-curvature="0"
       id="path2949"
       d="m 2.3821119,294.13515 c 0.1295365,0 0.2328898,-0.10474 0.2328898,-0.23427 0,-0.12816 -0.1033533,-0.23289 -0.2328898,-0.23289 -0.1281571,0 -0.2328863,0.10473 -0.2328863,0.23289 0,0.12953 0.1047292,0.23427 0.2328863,0.23427"
       style="fill:#ffffff;fill-opacity:1;fill-rule:nonzero;stroke:none;stroke-width:0.35277775" />
    <path
       inkscape:connector-curvature="0"
       id="path2951"
       d="m 1.3802795,296.42131 c 0.0055,0.003 0.011007,0.004 0.016545,0.006 0.073036,0.0179 0.1460711,-0.0276 0.1626058,-0.0992 0.013794,-0.0551 -0.00963,-0.11025 -0.052363,-0.14194 l -0.055122,0.0648 c -0.046856,0.0537 -0.1281606,0.0593 -0.1819028,0.0124 -0.031679,-0.0276 -0.044097,-0.0661 -0.042718,-0.10473 l -0.41065808,-0.007 z m 1.2567708,0.0345 c 0.0055,0 0.012418,0.001 0.017921,0.001 0.074415,0 0.1350468,-0.0606 0.1350468,-0.13505 0,-0.0744 -0.060632,-0.13505 -0.1350468,-0.13505 v 0.0276 c 0,0.0717 -0.057877,0.12953 -0.1281571,0.12953 -0.063391,0 -0.1129982,-0.0455 -0.1240225,-0.10473 l -0.3748263,0.0827 z m 0.3720712,-1.43041 c -0.041342,0.0937 -0.1281571,0.0661 -0.1281571,0.0661 l -0.3651815,-0.1378 c -0.035828,-0.0138 -0.064766,-0.0441 -0.074415,-0.0813 l -0.08268,-0.24115 -0.1281571,0.35553 0.3817161,0.39688 c 0.046852,0.0841 0.042718,0.14469 0.042718,0.14469 v 0.54846 c 0.135047,0 0.2452898,0.11024 0.2452898,0.24529 0,0.13505 -0.1102428,0.24391 -0.2452898,0.24391 -0.019297,0 -0.038583,-0.001 -0.056497,-0.007 l -0.8033985,-0.17777 v -0.1185 l 0.6022023,-0.13367 v -0.50023 l -0.4051406,-0.40377 -0.062015,0.42306 c -0.00963,0.0537 -0.048228,0.10473 -0.070277,0.12954 l -0.2811215,0.32521 c -0.00413,-0.003 -0.00963,-0.003 -0.015169,-0.003 l 0.015169,0.003 c 0.073036,0.0579 0.110243,0.15297 0.088194,0.24943 -0.031679,0.13091 -0.1639852,0.21222 -0.294901,0.1819 -0.019297,-0.005 -0.037208,-0.011 -0.053742,-0.0193 l -0.74000783,-0.35967 0.027552,-0.11575 0.67799293,0.01 0.3224636,-0.37207 0.1005946,-0.73312 0.2094618,-0.55535 -0.2907665,0.16674 -0.1722543,0.339 c -0.052366,0.10749 -0.1474505,0.051 -0.1474505,0.051 -0.085436,-0.0482 -0.052363,-0.13091 -0.052363,-0.13091 l 0.1777647,-0.3583 c 0.046852,-0.0909 0.085439,-0.10472 0.085439,-0.10472 l 0.4134097,-0.22738 c 0.090953,-0.062 0.1956823,-0.0138 0.1956823,-0.0138 l 0.2384002,0.0909 c 0.1185121,0.0427 0.124026,0.10886 0.124026,0.10886 l 0.147447,0.47267 0.3169496,0.11162 c 0,0 0.085439,0.0372 0.056501,0.13091"
       style="fill:#ffffff;fill-opacity:1;fill-rule:nonzero;stroke:none;stroke-width:0.35277775" />
  </g>
</svg>
