<?xml version="1.0" encoding="UTF-8" standalone="no"?>
<!-- Created with Inkscape (http://www.inkscape.org/) -->

<svg
   xmlns:dc="http://purl.org/dc/elements/1.1/"
   xmlns:cc="http://creativecommons.org/ns#"
   xmlns:rdf="http://www.w3.org/1999/02/22-rdf-syntax-ns#"
   xmlns:svg="http://www.w3.org/2000/svg"
   xmlns="http://www.w3.org/2000/svg"
   xmlns:sodipodi="http://sodipodi.sourceforge.net/DTD/sodipodi-0.dtd"
   xmlns:inkscape="http://www.inkscape.org/namespaces/inkscape"
   width="3.75mm"
   height="3.75mm"
   viewBox="0 0 3.75 3.75"
   version="1.1"
   id="svg13826"
   inkscape:version="0.92.1 r15371"
   sodipodi:docname="snowboard_light.svg">
  <defs
     id="defs13820" />
  <sodipodi:namedview
     id="base"
     pagecolor="#ffffff"
     bordercolor="#666666"
     borderopacity="1.0"
     inkscape:pageopacity="0.0"
     inkscape:pageshadow="2"
     inkscape:zoom="28.687777"
     inkscape:cx="7.7296457"
     inkscape:cy="6.4105833"
     inkscape:document-units="mm"
     inkscape:current-layer="layer1"
     showgrid="false"
     inkscape:window-width="644"
     inkscape:window-height="699"
     inkscape:window-x="721"
     inkscape:window-y="35"
     inkscape:window-maximized="0"
     showguides="true"
     inkscape:guide-bbox="true"
     gridtolerance="10"
     guidetolerance="2">
    <inkscape:grid
       type="xygrid"
       id="grid13828" />
    <sodipodi:guide
       position="0.13043093,3.8477124"
       orientation="1,0"
       id="guide20533"
       inkscape:locked="false" />
    <sodipodi:guide
       position="1.9173346,3.6129367"
       orientation="0,1"
       id="guide20535"
       inkscape:locked="false" />
  </sodipodi:namedview>
  <metadata
     id="metadata13823">
    <rdf:RDF>
      <cc:Work
         rdf:about="">
        <dc:format>image/svg+xml</dc:format>
        <dc:type
           rdf:resource="http://purl.org/dc/dcmitype/StillImage" />
        <dc:title></dc:title>
      </cc:Work>
    </rdf:RDF>
  </metadata>
  <g
     inkscape:label="Layer 1"
     inkscape:groupmode="layer"
     id="layer1"
     transform="translate(0,-293.25)">
    <path
       inkscape:connector-curvature="0"
       id="path5059"
       d="m 3.1986037,296.87236 c 0.2315104,0 0.4175442,-0.18603 0.4175442,-0.41616 v -2.65549 c 0,-0.23013 -0.1860338,-0.41754 -0.4175442,-0.41754 H 0.54450134 c -0.23013106,0 -0.41616842,0.18741 -0.41616842,0.41754 v 2.65549 c 0,0.23013 0.18603736,0.41616 0.41616842,0.41616 z m 0,0"
       style="fill:#211e1e;fill-opacity:1;fill-rule:nonzero;stroke:none;stroke-width:0.35277775" />
    <path
       inkscape:connector-curvature="0"
       id="path5061"
       d="m 0.54450134,293.45345 c -0.1901684,0 -0.34588803,0.15572 -0.34588803,0.34726 v 2.65549 c 0,0.19016 0.15571963,0.34588 0.34588803,0.34588 H 3.1986037 c 0.1915477,0 0.3472637,-0.15572 0.3472637,-0.34588 v -2.65549 c 0,-0.19154 -0.155716,-0.34726 -0.3472637,-0.34726 z m 0,0"
       style="fill:#ffffff;fill-opacity:1;fill-rule:nonzero;stroke:none;stroke-width:0.35277775" />
    <path
       inkscape:connector-curvature="0"
       id="path5063"
       d="m 2.6212053,294.2596 c 0.1281571,0 0.2328897,-0.10473 0.2328897,-0.23427 0,-0.12815 -0.1047326,-0.23288 -0.2328897,-0.23288 -0.1295365,0 -0.2342656,0.10473 -0.2342656,0.23288 0,0.12954 0.1047291,0.23427 0.2342656,0.23427"
       style="fill:#211e1e;fill-opacity:1;fill-rule:nonzero;stroke:none;stroke-width:0.35277775" />
    <path
       inkscape:connector-curvature="0"
       id="path5065"
       d="m 2.0493207,294.88799 0.4960938,-0.24391 0.4616414,0.42443 c 0.020672,0.0193 0.048232,0.0317 0.07855,0.0317 0.062011,0 0.111619,-0.051 0.111619,-0.113 0,-0.0331 -0.015169,-0.062 -0.038583,-0.0827 l -0.6573237,-0.60496 c -0.022049,-0.0207 -0.048232,-0.0386 -0.075794,-0.051 l -0.5126284,-0.1819 -0.2328898,-0.33762 c -0.017921,-0.0248 -0.045477,-0.0413 -0.07855,-0.0455 -0.060632,-0.007 -0.1157534,0.0372 -0.1240225,0.0978 -0.00282,0.0262 0.00413,0.051 0.016545,0.0717 l 0.2384002,0.34451 c 0.011007,0.0138 0.0248,0.0248 0.041342,0.0331 l 0.2756076,0.10886 -0.4533759,0.23151 c -0.063391,0.0358 -0.1088637,0.0992 -0.1212673,0.17364 l 0.00282,0.41341 -0.4189236,0.18879 c -0.046852,0.0221 -0.079925,0.0703 -0.08268,0.1254 -0.00413,0.0799 0.059256,0.14745 0.13918136,0.15158 0.0248,0 0.048232,-0.006 0.068901,-0.0152 l 0.512632,-0.23151 c 0.037204,-0.0207 0.064766,-0.0551 0.073036,-0.0978 l -0.00141,-0.25769 0.3569123,0.31833 -0.066146,0.54295 c 0,0.003 0,0.007 0,0.01 -0.00413,0.0799 0.057877,0.14745 0.1378021,0.15158 0.075794,0.003 0.1405607,-0.0524 0.1502092,-0.1254 l 0.07579,-0.61874 c 0.00141,-0.003 0.00141,-0.005 0.00141,-0.008 0.00141,-0.0441 -0.015169,-0.0841 -0.045477,-0.11162 z m 0,0"
       style="fill:#211e1e;fill-opacity:1;fill-rule:nonzero;stroke:none;stroke-width:0.35277775" />
    <path
       inkscape:connector-curvature="0"
       id="path5067"
       d="m 0.50040411,295.289 c -0.0771701,0.0248 -0.11851217,0.10886 -0.092329,0.18603 0.0427214,0.12678 0.13918141,0.22738 0.2632075,0.27423 l 1.96094699,0.74552 c 0.1254019,0.0482 0.2645832,0.0372 0.378961,-0.0289 0.07028,-0.04 0.095084,-0.12953 0.053742,-0.19981 -0.039963,-0.0703 -0.1295365,-0.0951 -0.1998133,-0.0551 -0.038587,0.0234 -0.085439,0.0262 -0.1281607,0.01 l -1.96094697,-0.74552 c -0.041342,-0.0165 -0.0757908,-0.0496 -0.0895738,-0.0937 -0.0261761,-0.0772 -0.10886369,-0.11851 -0.18603383,-0.0923"
       style="fill:#211e1e;fill-opacity:1;fill-rule:nonzero;stroke:none;stroke-width:0.35277775" />
  </g>
</svg>
