<?xml version="1.0" encoding="UTF-8" standalone="no"?>
<!-- Created with Inkscape (http://www.inkscape.org/) -->

<svg
   xmlns:dc="http://purl.org/dc/elements/1.1/"
   xmlns:cc="http://creativecommons.org/ns#"
   xmlns:rdf="http://www.w3.org/1999/02/22-rdf-syntax-ns#"
   xmlns:svg="http://www.w3.org/2000/svg"
   xmlns="http://www.w3.org/2000/svg"
   xmlns:sodipodi="http://sodipodi.sourceforge.net/DTD/sodipodi-0.dtd"
   xmlns:inkscape="http://www.inkscape.org/namespaces/inkscape"
   width="3.75mm"
   height="3.75mm"
   viewBox="0 0 3.75 3.75"
   version="1.1"
   id="svg13826"
   inkscape:version="0.92.1 r15371"
   sodipodi:docname="fish_hatchery_light.svg">
  <defs
     id="defs13820" />
  <sodipodi:namedview
     id="base"
     pagecolor="#ffffff"
     bordercolor="#666666"
     borderopacity="1.0"
     inkscape:pageopacity="0.0"
     inkscape:pageshadow="2"
     inkscape:zoom="30.586462"
     inkscape:cx="6.3901835"
     inkscape:cy="6.5754939"
     inkscape:document-units="mm"
     inkscape:current-layer="layer1"
     showgrid="false"
     inkscape:window-width="742"
     inkscape:window-height="651"
     inkscape:window-x="625"
     inkscape:window-y="55"
     inkscape:window-maximized="0"
     showguides="true"
     inkscape:guide-bbox="true"
     gridtolerance="10"
     guidetolerance="2">
    <inkscape:grid
       type="xygrid"
       id="grid13828" />
    <sodipodi:guide
       position="0.13043093,3.8477124"
       orientation="1,0"
       id="guide20533"
       inkscape:locked="false" />
    <sodipodi:guide
       position="1.9173346,3.6129367"
       orientation="0,1"
       id="guide20535"
       inkscape:locked="false" />
  </sodipodi:namedview>
  <metadata
     id="metadata13823">
    <rdf:RDF>
      <cc:Work
         rdf:about="">
        <dc:format>image/svg+xml</dc:format>
        <dc:type
           rdf:resource="http://purl.org/dc/dcmitype/StillImage" />
        <dc:title></dc:title>
      </cc:Work>
    </rdf:RDF>
  </metadata>
  <g
     inkscape:label="Layer 1"
     inkscape:groupmode="layer"
     id="layer1"
     transform="translate(0,-293.25)">
    <path
       inkscape:connector-curvature="0"
       id="path5803"
       d="m 3.2041735,296.87474 c 0.2301309,0 0.4161684,-0.18604 0.4161684,-0.41617 v -2.65273 c 0,-0.23013 -0.1860375,-0.41754 -0.4161684,-0.41754 H 0.55145044 c -0.23013106,0 -0.41754425,0.18741 -0.41754425,0.41754 v 2.65273 c 0,0.23013 0.18741319,0.41617 0.41754425,0.41617 z m 0,0"
       style="fill:#211e1e;fill-opacity:1;fill-rule:nonzero;stroke:none;stroke-width:0.35277775" />
    <path
       inkscape:connector-curvature="0"
       id="path5805"
       d="m 0.55145044,293.45858 c -0.19154776,0 -0.34588803,0.15572 -0.34588803,0.34726 v 2.65273 c 0,0.19017 0.15434027,0.34589 0.34588803,0.34589 H 3.2041735 c 0.1901682,0 0.345888,-0.15572 0.345888,-0.34589 v -2.65273 c 0,-0.19154 -0.1557198,-0.34726 -0.345888,-0.34726 z m 0,0"
       style="fill:#ffffff;fill-opacity:1;fill-rule:nonzero;stroke:none;stroke-width:0.35277775" />
    <path
       inkscape:connector-curvature="0"
       id="path5807"
       d="m 0.95934973,294.60373 c 0.0523663,0 0.0950842,-0.0413 0.0950842,-0.0937 0,-0.051 -0.042718,-0.0937 -0.0950842,-0.0937 -0.050987,0 -0.0937084,0.0427 -0.0937084,0.0937 0,0.0524 0.0427214,0.0937 0.0937084,0.0937 m -0.47955904,0.13918 c -0.00141,-10e-4 -0.002822,-0.004 -0.002822,-0.007 0,-0.006 0.005503,-0.01 0.009666,-0.01 h 0.2990318 c 0.0151694,0 0.026176,-0.0124 0.026176,-0.0262 0,-0.011 -0.004128,-0.0193 -0.0151694,-0.0248 l -0.27009354,-0.12953 c -0.005503,-0.003 -0.009666,-0.008 -0.009666,-0.0152 0,-0.004 0.00141,-0.008 0.005503,-0.0124 0,0 0.70969005,-0.62701 2.28340675,-0.0193 l 0.4313275,-0.21084 c 0.00413,-0.001 0.00963,-0.003 0.013793,-0.003 0.019296,0 0.034467,0.0152 0.034467,0.0331 0,0.007 -0.00282,0.0124 -0.0055,0.0179 l -0.2549351,0.31695 0.2549351,0.31557 c 0.00282,0.006 0.0055,0.011 0.0055,0.0179 0,0.0179 -0.015169,0.0331 -0.034467,0.0331 -0.00413,0 -0.00963,-10e-4 -0.013793,-0.003 l -0.4313275,-0.21084 c 0,0 -1.5034364,0.59669 -2.32612823,-0.0634"
       style="fill:#211e1e;fill-opacity:1;fill-rule:nonzero;stroke:none;stroke-width:0.35277775" />
    <path
       inkscape:connector-curvature="0"
       id="path5809"
       d="m 0.85048604,295.49808 c 0.0303036,0 0.0564974,-0.0234 0.0564974,-0.0537 0,-0.0303 -0.026176,-0.0551 -0.0564974,-0.0551 -0.0289278,0 -0.0551215,0.0248 -0.0551215,0.0551 0,0.0303 0.026176,0.0537 0.0551215,0.0537 m -0.21222052,0.0317 c 0,0 -0.00141,-0.001 -0.00141,-0.003 0,-0.003 0.00141,-0.004 0.004127,-0.004 h 0.119888 c 0.005503,0 0.009631,-0.004 0.009631,-0.01 0,-0.006 -0.00141,-0.008 -0.005503,-0.01 l -0.1088681,-0.0524 c -0.00141,-10e-4 -0.002822,-0.003 -0.002822,-0.005 0,-0.003 0,-0.004 0.00141,-0.006 0,0 0.28387675,-0.2508 0.91363798,-0.007 l 0.1722543,-0.0854 c 0.00141,0 0.00413,-10e-4 0.0055,-10e-4 0.00825,0 0.013794,0.007 0.013794,0.0138 0,0.003 -0.00141,0.005 -0.00141,0.007 l -0.101974,0.12678 0.101974,0.12678 c 0,10e-4 0.00141,0.004 0.00141,0.007 0,0.007 -0.0055,0.0138 -0.013794,0.0138 -0.00141,0 -0.00413,-0.001 -0.0055,-0.001 l -0.1722543,-0.0854 c 0,0 -0.60082288,0.23978 -0.93017619,-0.0248"
       style="fill:#211e1e;fill-opacity:1;fill-rule:nonzero;stroke:none;stroke-width:0.35277775" />
    <path
       inkscape:connector-curvature="0"
       id="path5811"
       d="m 2.2602177,295.49808 c 0.028928,0 0.053742,-0.0234 0.053742,-0.0537 0,-0.0303 -0.0248,-0.0551 -0.053742,-0.0551 -0.031679,0 -0.055121,0.0248 -0.055121,0.0551 0,0.0303 0.023424,0.0537 0.055121,0.0537 m -0.2135963,0.0317 c -0.00141,0 -0.00141,-0.001 -0.00141,-0.003 0,-0.003 0.00282,-0.004 0.00413,-0.004 h 0.1198888 c 0.0055,0 0.011007,-0.004 0.011007,-0.01 0,-0.006 -0.00282,-0.008 -0.00688,-0.01 L 2.06449,295.45038 c -0.00141,-10e-4 -0.00282,-0.003 -0.00282,-0.005 0,-0.003 0,-0.004 0.00141,-0.006 0,0 0.2852526,-0.2508 0.9136381,-0.007 l 0.1722544,-0.0854 c 0.00282,0 0.00413,-10e-4 0.00688,-10e-4 0.00688,0 0.012417,0.007 0.012417,0.0138 0,0.003 0,0.005 -0.0014,0.007 l -0.1019741,0.12678 0.1019741,0.12678 c 0.0014,10e-4 0.0014,0.004 0.0014,0.007 0,0.007 -0.0055,0.0138 -0.012417,0.0138 -0.00282,0 -0.00413,-0.001 -0.00688,-0.001 l -0.1722544,-0.0854 c 0,0 -0.6008265,0.23978 -0.9301763,-0.0248"
       style="fill:#211e1e;fill-opacity:1;fill-rule:nonzero;stroke:none;stroke-width:0.35277775" />
    <path
       inkscape:connector-curvature="0"
       id="path5813"
       d="m 1.5601726,296.02448 c 0.030304,0 0.055122,-0.0234 0.055122,-0.0537 0,-0.0303 -0.0248,-0.0551 -0.055122,-0.0551 -0.030304,0 -0.055122,0.0248 -0.055122,0.0551 0,0.0303 0.0248,0.0537 0.055122,0.0537 m -0.2135928,0.0317 c 0,0 0,-10e-4 0,-0.003 0,-10e-4 0.00141,-0.004 0.00413,-0.004 h 0.1185121 c 0.00688,0 0.011007,-0.004 0.011007,-0.01 0,-0.004 -0.00141,-0.008 -0.00688,-0.01 l -0.1074878,-0.0524 c -0.00282,-0.001 -0.00413,-0.003 -0.00413,-0.006 0,-0.003 0.00141,-0.004 0.00282,-0.005 0,0 0.2838732,-0.2508 0.913638,-0.007 l 0.1722543,-0.0854 c 0.00141,0 0.00413,-10e-4 0.0055,-10e-4 0.00688,0 0.013794,0.007 0.013794,0.0138 0,0.003 -0.00141,0.006 -0.00282,0.007 l -0.1019773,0.12678 0.1019774,0.12678 c 0.00141,0.003 0.00282,0.004 0.00282,0.007 0,0.007 -0.00688,0.0138 -0.013793,0.0138 -0.00141,0 -0.00413,-10e-4 -0.0055,-10e-4 L 2.27819,296.08244 c 0,0 -0.6022023,0.2384 -0.931552,-0.0262"
       style="fill:#211e1e;fill-opacity:1;fill-rule:nonzero;stroke:none;stroke-width:0.35277775" />
  </g>
</svg>
