<?xml version="1.0" encoding="UTF-8" standalone="no"?>
<!-- Created with Inkscape (http://www.inkscape.org/) -->

<svg
   xmlns:dc="http://purl.org/dc/elements/1.1/"
   xmlns:cc="http://creativecommons.org/ns#"
   xmlns:rdf="http://www.w3.org/1999/02/22-rdf-syntax-ns#"
   xmlns:svg="http://www.w3.org/2000/svg"
   xmlns="http://www.w3.org/2000/svg"
   xmlns:sodipodi="http://sodipodi.sourceforge.net/DTD/sodipodi-0.dtd"
   xmlns:inkscape="http://www.inkscape.org/namespaces/inkscape"
   width="3.75mm"
   height="3.75mm"
   viewBox="0 0 3.75 3.75"
   version="1.1"
   id="svg13826"
   inkscape:version="0.92.1 r15371"
   sodipodi:docname="flower_viewing_light.svg">
  <defs
     id="defs13820" />
  <sodipodi:namedview
     id="base"
     pagecolor="#ffffff"
     bordercolor="#666666"
     borderopacity="1.0"
     inkscape:pageopacity="0.0"
     inkscape:pageshadow="2"
     inkscape:zoom="30.586462"
     inkscape:cx="6.3901835"
     inkscape:cy="6.5754939"
     inkscape:document-units="mm"
     inkscape:current-layer="layer1"
     showgrid="false"
     inkscape:window-width="742"
     inkscape:window-height="651"
     inkscape:window-x="625"
     inkscape:window-y="55"
     inkscape:window-maximized="0"
     showguides="true"
     inkscape:guide-bbox="true"
     gridtolerance="10"
     guidetolerance="2">
    <inkscape:grid
       type="xygrid"
       id="grid13828" />
    <sodipodi:guide
       position="0.13043093,3.8477124"
       orientation="1,0"
       id="guide20533"
       inkscape:locked="false" />
    <sodipodi:guide
       position="1.9173346,3.6129367"
       orientation="0,1"
       id="guide20535"
       inkscape:locked="false" />
  </sodipodi:namedview>
  <metadata
     id="metadata13823">
    <rdf:RDF>
      <cc:Work
         rdf:about="">
        <dc:format>image/svg+xml</dc:format>
        <dc:type
           rdf:resource="http://purl.org/dc/dcmitype/StillImage" />
        <dc:title></dc:title>
      </cc:Work>
    </rdf:RDF>
  </metadata>
  <g
     inkscape:label="Layer 1"
     inkscape:groupmode="layer"
     id="layer1"
     transform="translate(0,-293.25)">
    <path
       inkscape:connector-curvature="0"
       id="path9293"
       d="m 3.204177,296.8834 c 0.2301311,0 0.4161649,-0.18604 0.4161649,-0.41617 v -2.6541 c 0,-0.23013 -0.1860338,-0.41617 -0.4161649,-0.41617 H 0.55145396 c -0.23013458,0 -0.41754777,0.18604 -0.41754777,0.41617 v 2.6541 c 0,0.23013 0.18741319,0.41617 0.41754777,0.41617 z m 0,0"
       style="fill:#211e1e;fill-opacity:1;fill-rule:nonzero;stroke:none;stroke-width:0.35277775" />
    <path
       inkscape:connector-curvature="0"
       id="path9295"
       d="m 0.55145396,293.46724 c -0.19154775,0 -0.34588802,0.15434 -0.34588802,0.34589 v 2.6541 c 0,0.19017 0.15434027,0.34451 0.34588802,0.34451 H 3.204177 c 0.1901684,0 0.3458879,-0.15434 0.3458879,-0.34451 v -2.6541 c 0,-0.19155 -0.1557195,-0.34589 -0.3458879,-0.34589 z m 0,0"
       style="fill:#ffffff;fill-opacity:1;fill-rule:nonzero;stroke:none;stroke-width:0.35277775" />
    <path
       inkscape:connector-curvature="0"
       id="path9297"
       d="m 2.7590702,295.25318 -0.00413,-10e-4 -0.4244375,-0.113 0.4023889,-0.0937 0.028928,-0.003 c 0,0 0.4271926,-0.091 0.3665572,-0.4203 -0.00963,-0.0469 -0.027552,-0.0992 -0.059256,-0.1571 -0.2563144,-0.46578 -0.6490547,-0.0276 -0.6490547,-0.0276 l -0.012418,0.0152 -0.3017872,0.30041 0.1295329,-0.42306 c 0,0 0.1763889,-0.54295 -0.3431293,-0.55397 -0.00282,0 -0.0055,0.001 -0.00688,0.001 -0.00141,0 -0.00282,0 -0.00413,0 -0.5305461,-0.011 -0.3472674,0.54846 -0.3472674,0.54846 l 0.1129982,0.42719 -0.2921423,-0.31419 -0.00688,-0.008 c 0,0 -0.2163515,-0.23978 -0.43683764,-0.17087 -0.0744149,0.0221 -0.1488299,0.0799 -0.21635156,0.19155 -0.27423179,0.45475 0.30178729,0.57602 0.30178729,0.57602 h 0.004127 l 0.4244375,0.11437 -0.4023889,0.0937 -0.0289278,0.003 c 0,0 -0.42856857,0.0909 -0.36655727,0.4203 0.008255,0.0469 0.0275519,0.0992 0.0592561,0.1571 0.25631423,0.46578 0.64905468,0.0275 0.64905468,0.0275 l 0.012418,-0.0152 0.3004114,-0.30041 -0.1281571,0.42306 c 0,0 -0.1777682,0.54294 0.3431328,0.55397 0.00282,0 0.00413,-0.001 0.00688,-0.001 0.00141,0 0.00141,0 0.00282,0 0.5319219,0.011 0.3486433,-0.54846 0.3486433,-0.54846 l -0.1143777,-0.42857 0.2935217,0.31419 0.00688,0.01 c 0,0 0.1805234,0.2012 0.3817195,0.1819 0.09095,-0.01 0.1874134,-0.0634 0.2714731,-0.20257 0.2742284,-0.45476 -0.3017907,-0.57603 -0.3017907,-0.57603"
       style="fill:#211e1e;fill-opacity:1;fill-rule:nonzero;stroke:none;stroke-width:0.35277775" />
    <path
       inkscape:connector-curvature="0"
       id="path9299"
       d="m 2.0838324,295.13605 c 0.016545,0.11989 -0.068904,0.23013 -0.1887925,0.24528 -0.119888,0.0152 -0.2301311,-0.0689 -0.24529,-0.18878 -0.015169,-0.1199 0.07028,-0.23014 0.1887891,-0.24529 0.1212673,-0.0165 0.2301345,0.0689 0.2452934,0.18879"
       style="fill:#ffffff;fill-opacity:1;fill-rule:nonzero;stroke:none;stroke-width:0.35277775" />
  </g>
</svg>
