<?xml version="1.0" encoding="UTF-8" standalone="no"?>
<!-- Created with Inkscape (http://www.inkscape.org/) -->

<svg
   xmlns:dc="http://purl.org/dc/elements/1.1/"
   xmlns:cc="http://creativecommons.org/ns#"
   xmlns:rdf="http://www.w3.org/1999/02/22-rdf-syntax-ns#"
   xmlns:svg="http://www.w3.org/2000/svg"
   xmlns="http://www.w3.org/2000/svg"
   xmlns:sodipodi="http://sodipodi.sourceforge.net/DTD/sodipodi-0.dtd"
   xmlns:inkscape="http://www.inkscape.org/namespaces/inkscape"
   width="3.75mm"
   height="3.75mm"
   viewBox="0 0 3.75 3.75"
   version="1.1"
   id="svg13826"
   inkscape:version="0.92.1 r15371"
   sodipodi:docname="tidepool_dark.svg">
  <defs
     id="defs13820" />
  <sodipodi:namedview
     id="base"
     pagecolor="#ffffff"
     bordercolor="#666666"
     borderopacity="1.0"
     inkscape:pageopacity="0.0"
     inkscape:pageshadow="2"
     inkscape:zoom="30.586462"
     inkscape:cx="6.9619327"
     inkscape:cy="6.5754939"
     inkscape:document-units="mm"
     inkscape:current-layer="layer1"
     showgrid="false"
     inkscape:window-width="742"
     inkscape:window-height="651"
     inkscape:window-x="624"
     inkscape:window-y="54"
     inkscape:window-maximized="0"
     showguides="true"
     inkscape:guide-bbox="true"
     gridtolerance="10"
     guidetolerance="2">
    <inkscape:grid
       type="xygrid"
       id="grid13828" />
    <sodipodi:guide
       position="0.13043093,3.8477124"
       orientation="1,0"
       id="guide20533"
       inkscape:locked="false" />
    <sodipodi:guide
       position="1.9173346,3.6129367"
       orientation="0,1"
       id="guide20535"
       inkscape:locked="false" />
  </sodipodi:namedview>
  <metadata
     id="metadata13823">
    <rdf:RDF>
      <cc:Work
         rdf:about="">
        <dc:format>image/svg+xml</dc:format>
        <dc:type
           rdf:resource="http://purl.org/dc/dcmitype/StillImage" />
        <dc:title></dc:title>
      </cc:Work>
    </rdf:RDF>
  </metadata>
  <g
     inkscape:label="Layer 1"
     inkscape:groupmode="layer"
     id="layer1"
     transform="translate(0,-293.25)">
    <path
       inkscape:connector-curvature="0"
       id="path9689"
       d="m 0.54142426,293.46861 c -0.1901684,0 -0.34588803,0.15434 -0.34588803,0.34451 v 2.6541 c 0,0.19155 0.15571963,0.34589 0.34588803,0.34589 H 3.1941473 c 0.1915477,0 0.3458879,-0.15434 0.3458879,-0.34589 v -2.6541 c 0,-0.19017 -0.1543402,-0.34451 -0.3458879,-0.34451 z m 0,0"
       style="fill:#ffffff;fill-opacity:1;fill-rule:nonzero;stroke:none;stroke-width:0.35277775" />
    <path
       inkscape:connector-curvature="0"
       id="path9691"
       d="m 3.1941473,296.88339 c 0.2301309,0 0.4175442,-0.18604 0.4175442,-0.41617 v -2.65272 c 0,-0.23151 -0.1874133,-0.41755 -0.4175442,-0.41755 H 0.54142426 c -0.23013106,0 -0.41616842,0.18604 -0.41616842,0.41755 v 2.65272 c 0,0.23013 0.18603736,0.41617 0.41616842,0.41617 z m 0,0"
       style="fill:#211e1e;fill-opacity:1;fill-rule:nonzero;stroke:none;stroke-width:0.35277775" />
    <path
       inkscape:connector-curvature="0"
       id="path9693"
       d="m 1.4302584,294.85629 c 0.0055,-10e-4 0.012418,-0.004 0.019297,-0.005 0.056497,-0.0165 0.1267778,-0.051 0.1543403,-0.10611 0.022049,-0.0427 0.035828,-0.0965 0.048232,-0.14332 0.035828,-0.14882 0.037208,-0.30317 0.066146,-0.45337 0.013794,-0.073 0.034431,-0.14607 0.068901,-0.21084 0.020673,-0.0413 0.1171329,-0.20395 0.1832787,-0.14469 0.026176,0.0248 0.013794,0.0799 0.00826,0.11024 -0.013794,0.0951 -0.00141,0.19292 0.0055,0.28801 0.00967,0.10473 0.022049,0.20946 0.044097,0.31143 0.028928,0.12816 0.08406,0.25356 0.1956823,0.32798 0.1557197,0.10335 0.3445087,0.12264 0.5250322,0.10748 0.1005981,-0.008 0.2011927,-0.0276 0.2990356,-0.0482 0.033055,-0.008 0.2177309,-0.073 0.2191068,0.004 0,0.0207 -0.026175,0.0496 -0.038583,0.0648 -0.030304,0.0358 -0.068904,0.062 -0.1102429,0.0827 -0.2246207,0.11162 -0.5346807,0.0537 -0.7000452,0.27423 -0.2370209,0.31833 0.062011,0.66559 0.2425347,0.92604 0.019297,0.0303 0.039963,0.0593 0.059256,0.0882 0.026176,0.0413 0.073035,0.0923 0.08406,0.14056 0.00688,0.0303 -0.00688,0.0648 -0.034431,0.0827 -0.073039,0.0455 -0.1364262,-0.0551 -0.1763889,-0.10198 -0.055122,-0.062 -0.1088672,-0.1254 -0.1639887,-0.18741 -0.119888,-0.13505 -0.2480451,-0.26458 -0.3996302,-0.36518 -0.08406,-0.0579 -0.2328898,-0.0482 -0.3252188,-0.0152 -0.1005945,0.0345 -0.1846544,0.10336 -0.2618246,0.17639 -0.1033532,0.0992 -0.1970616,0.20946 -0.3059253,0.30317 -0.028928,0.0234 -0.14193657,0.13229 -0.16811974,0.073 -0.026176,-0.0579 0.0358281,-0.16123 0.0592561,-0.21221 0.066146,-0.13919 0.1639852,-0.26183 0.239776,-0.39688 0.034466,-0.0634 0.066146,-0.13091 0.08406,-0.20257 0.013794,-0.0593 0.027552,-0.15434 0,-0.21084 -0.1405573,-0.2825 -0.44786198,-0.35554 -0.69453125,-0.51263 -0.0303036,-0.0193 -0.0592526,-0.0413 -0.0868151,-0.0648 -0.0206728,-0.0165 -0.0978394,-0.0675 -0.0661458,-0.1006 0.0220485,-0.0234 0.068901,-0.008 0.092329,0.003 0.0675252,0.0317 0.1364262,0.0524 0.2067066,0.0703 0.0482318,0.0124 0.0992188,0.0138 0.14745052,0.0207 0.15985073,0.0234 0.31970483,0.0675 0.47955553,0.0275"
       style="fill:#ffffff;fill-opacity:1;fill-rule:nonzero;stroke:none;stroke-width:0.35277775" />
  </g>
</svg>
