<?xml version="1.0" encoding="UTF-8" standalone="no"?>
<!-- Created with Inkscape (http://www.inkscape.org/) -->

<svg
   xmlns:dc="http://purl.org/dc/elements/1.1/"
   xmlns:cc="http://creativecommons.org/ns#"
   xmlns:rdf="http://www.w3.org/1999/02/22-rdf-syntax-ns#"
   xmlns:svg="http://www.w3.org/2000/svg"
   xmlns="http://www.w3.org/2000/svg"
   xmlns:sodipodi="http://sodipodi.sourceforge.net/DTD/sodipodi-0.dtd"
   xmlns:inkscape="http://www.inkscape.org/namespaces/inkscape"
   width="3.75mm"
   height="3.75mm"
   viewBox="0 0 3.75 3.75"
   version="1.1"
   id="svg13826"
   inkscape:version="0.92.1 r15371"
   sodipodi:docname="waterfowl_dark.svg">
  <defs
     id="defs13820" />
  <sodipodi:namedview
     id="base"
     pagecolor="#ffffff"
     bordercolor="#666666"
     borderopacity="1.0"
     inkscape:pageopacity="0.0"
     inkscape:pageshadow="2"
     inkscape:zoom="30.586462"
     inkscape:cx="6.9619327"
     inkscape:cy="6.5754939"
     inkscape:document-units="mm"
     inkscape:current-layer="layer1"
     showgrid="false"
     inkscape:window-width="742"
     inkscape:window-height="651"
     inkscape:window-x="624"
     inkscape:window-y="54"
     inkscape:window-maximized="0"
     showguides="true"
     inkscape:guide-bbox="true"
     gridtolerance="10"
     guidetolerance="2">
    <inkscape:grid
       type="xygrid"
       id="grid13828" />
    <sodipodi:guide
       position="0.13043093,3.8477124"
       orientation="1,0"
       id="guide20533"
       inkscape:locked="false" />
    <sodipodi:guide
       position="1.9173346,3.6129367"
       orientation="0,1"
       id="guide20535"
       inkscape:locked="false" />
  </sodipodi:namedview>
  <metadata
     id="metadata13823">
    <rdf:RDF>
      <cc:Work
         rdf:about="">
        <dc:format>image/svg+xml</dc:format>
        <dc:type
           rdf:resource="http://purl.org/dc/dcmitype/StillImage" />
        <dc:title></dc:title>
      </cc:Work>
    </rdf:RDF>
  </metadata>
  <g
     inkscape:label="Layer 1"
     inkscape:groupmode="layer"
     id="layer1"
     transform="translate(0,-293.25)">
    <path
       inkscape:connector-curvature="0"
       id="path1021"
       d="m 0.56010078,293.45872 c -0.19154776,0 -0.34588803,0.15434 -0.34588803,0.34588 v 2.65273 c 0,0.19155 0.15434027,0.34726 0.34588803,0.34726 H 3.2128239 c 0.1901682,0 0.345888,-0.15571 0.345888,-0.34726 v -2.65273 c 0,-0.19154 -0.1557198,-0.34588 -0.345888,-0.34588 z m 0,0"
       style="fill:#ffffff;fill-opacity:1;fill-rule:nonzero;stroke:none;stroke-width:0.35277775" />
    <path
       inkscape:connector-curvature="0"
       id="path1023"
       d="M 3.2128239,293.38706 H 0.56010078 c -0.23013106,0 -0.41754425,0.18741 -0.41754425,0.41754 v 2.65273 c 0,0.23013 0.18741319,0.41754 0.41754425,0.41754 H 3.2128239 c 0.2301309,0 0.4161684,-0.18741 0.4161684,-0.41754 v -2.65273 c 0,-0.23013 -0.1860375,-0.41754 -0.4161684,-0.41754"
       style="fill:#211e1e;fill-opacity:1;fill-rule:nonzero;stroke:none;stroke-width:0.35277775" />
    <path
       inkscape:connector-curvature="0"
       id="path1025"
       d="m 0.77369713,295.44998 -0.18190281,-0.12127 c 0,0 0.75103218,-0.22324 1.21129778,-0.22324 0.3169462,0 0.5897986,-0.0896 0.4850695,-0.27423 -0.1061085,-0.18328 -0.1061085,-0.69729 0.3155703,-0.6711 0,0 0.289387,0 0.3155702,0.2756 0,0 -0.022048,0.10198 0.3596677,0.18191 0,0 0.066146,0.0386 -0.052366,0.0923 0,0 -0.5801537,-0.04 -0.5277873,0.10473 0,0 -0.012418,0.1254 0.1818991,0.20119 0.3321087,0.12816 0.6642172,1.192 -0.7220901,1.09003 0,0 -0.5429462,-0.0234 -0.9770286,-0.27423 0,0 -0.49747318,-0.226 -0.6945313,-0.27975 z m 0,0"
       style="fill:#ffffff;fill-opacity:1;fill-rule:nonzero;stroke:none;stroke-width:0.35277775" />
  </g>
</svg>
