<?xml version="1.0" encoding="UTF-8" standalone="no"?>
<!-- Created with Inkscape (http://www.inkscape.org/) -->

<svg
   xmlns:dc="http://purl.org/dc/elements/1.1/"
   xmlns:cc="http://creativecommons.org/ns#"
   xmlns:rdf="http://www.w3.org/1999/02/22-rdf-syntax-ns#"
   xmlns:svg="http://www.w3.org/2000/svg"
   xmlns="http://www.w3.org/2000/svg"
   xmlns:sodipodi="http://sodipodi.sourceforge.net/DTD/sodipodi-0.dtd"
   xmlns:inkscape="http://www.inkscape.org/namespaces/inkscape"
   width="3.75mm"
   height="3.75mm"
   viewBox="0 0 3.75 3.75"
   version="1.1"
   id="svg13826"
   inkscape:version="0.92.1 r15371"
   sodipodi:docname="wildlife_viewing_dark.svg">
  <defs
     id="defs13820" />
  <sodipodi:namedview
     id="base"
     pagecolor="#ffffff"
     bordercolor="#666666"
     borderopacity="1.0"
     inkscape:pageopacity="0.0"
     inkscape:pageshadow="2"
     inkscape:zoom="30.586462"
     inkscape:cx="6.3901835"
     inkscape:cy="6.5754939"
     inkscape:document-units="mm"
     inkscape:current-layer="layer1"
     showgrid="false"
     inkscape:window-width="742"
     inkscape:window-height="651"
     inkscape:window-x="625"
     inkscape:window-y="55"
     inkscape:window-maximized="0"
     showguides="true"
     inkscape:guide-bbox="true"
     gridtolerance="10"
     guidetolerance="2">
    <inkscape:grid
       type="xygrid"
       id="grid13828" />
    <sodipodi:guide
       position="0.13043093,3.8477124"
       orientation="1,0"
       id="guide20533"
       inkscape:locked="false" />
    <sodipodi:guide
       position="1.9173346,3.6129367"
       orientation="0,1"
       id="guide20535"
       inkscape:locked="false" />
  </sodipodi:namedview>
  <metadata
     id="metadata13823">
    <rdf:RDF>
      <cc:Work
         rdf:about="">
        <dc:format>image/svg+xml</dc:format>
        <dc:type
           rdf:resource="http://purl.org/dc/dcmitype/StillImage" />
        <dc:title></dc:title>
      </cc:Work>
    </rdf:RDF>
  </metadata>
  <g
     inkscape:label="Layer 1"
     inkscape:groupmode="layer"
     id="layer1"
     transform="translate(0,-293.25)">
    <path
       inkscape:connector-curvature="0"
       id="path2431"
       d="m 0.54211219,293.46724 c -0.1901684,0 -0.345888,0.15434 -0.345888,0.34589 v 2.6541 c 0,0.19017 0.1557196,0.34451 0.345888,0.34451 H 3.1948353 c 0.1915477,0 0.3458879,-0.15434 0.3458879,-0.34451 v -2.6541 c 0,-0.19155 -0.1543402,-0.34589 -0.3458879,-0.34589 z m 0,0"
       style="fill:#ffffff;fill-opacity:1;fill-rule:nonzero;stroke:none;stroke-width:0.35277775" />
    <path
       inkscape:connector-curvature="0"
       id="path2433"
       d="m 3.1948353,296.8834 c 0.2301309,0 0.4161684,-0.18604 0.4161684,-0.41617 v -2.6541 c 0,-0.23013 -0.1860375,-0.41617 -0.4161684,-0.41617 H 0.54211219 c -0.2301311,0 -0.4161684,0.18604 -0.4161684,0.41617 v 2.6541 c 0,0.23013 0.1860373,0.41617 0.4161684,0.41617 z m 0,0"
       style="fill:#211e1e;fill-opacity:1;fill-rule:nonzero;stroke:none;stroke-width:0.35277775" />
    <path
       inkscape:connector-curvature="0"
       id="path2435"
       d="M 1.6597016,293.94129 H 1.21735 v 0.31694 h 0.4423516 z m 0,0"
       style="fill:#ffffff;fill-opacity:1;fill-rule:nonzero;stroke:none;stroke-width:0.35277775" />
    <path
       inkscape:connector-curvature="0"
       id="path2437"
       d="m 2.1585505,295.3083 c -0.041342,0 -0.075791,-0.0331 -0.075791,-0.0758 v -0.87506 h 0.669724 l 0.2811214,1.19476 -0.0014,0.0772 v 0.52779 c 0,0.04 -0.033055,0.073 -0.073036,0.073 H 2.3087245 c -0.041342,0 -0.074415,-0.0331 -0.074415,-0.073 v -0.84887 h -0.070277"
       style="fill:#ffffff;fill-opacity:1;fill-rule:nonzero;stroke:none;stroke-width:0.35277775" />
    <path
       inkscape:connector-curvature="0"
       id="path2439"
       d="m 1.5811521,295.31105 c 0.042721,0 0.075794,-0.0344 0.075794,-0.0758 v -0.87643 H 0.98997409 l -0.2824974,1.19338 v 0.60634 c 0,0.04 0.034466,0.0744 0.074415,0.0744 H 1.4323257 c 0.041338,0 0.074411,-0.0344 0.074411,-0.0744 v -0.8475 h 0.068905"
       style="fill:#ffffff;fill-opacity:1;fill-rule:nonzero;stroke:none;stroke-width:0.35277775" />
    <path
       inkscape:connector-curvature="0"
       id="path2441"
       d="m 1.9849168,294.35883 h -0.230131 v 0.81304 h 0.230131 z m 0,0"
       style="fill:#ffffff;fill-opacity:1;fill-rule:nonzero;stroke:none;stroke-width:0.35277775" />
    <path
       inkscape:connector-curvature="0"
       id="path2443"
       d="M 2.5264872,293.94129 H 2.0827597 v 0.31694 h 0.4437275 z m 0,0"
       style="fill:#ffffff;fill-opacity:1;fill-rule:nonzero;stroke:none;stroke-width:0.35277775" />
  </g>
</svg>
