<?xml version="1.0" encoding="UTF-8" standalone="no"?>
<!-- Created with Inkscape (http://www.inkscape.org/) -->

<svg
   xmlns:dc="http://purl.org/dc/elements/1.1/"
   xmlns:cc="http://creativecommons.org/ns#"
   xmlns:rdf="http://www.w3.org/1999/02/22-rdf-syntax-ns#"
   xmlns:svg="http://www.w3.org/2000/svg"
   xmlns="http://www.w3.org/2000/svg"
   xmlns:sodipodi="http://sodipodi.sourceforge.net/DTD/sodipodi-0.dtd"
   xmlns:inkscape="http://www.inkscape.org/namespaces/inkscape"
   width="3.75mm"
   height="3.75mm"
   viewBox="0 0 3.75 3.75"
   version="1.1"
   id="svg13826"
   inkscape:version="0.92.1 r15371"
   sodipodi:docname="customs_dark.svg">
  <defs
     id="defs13820" />
  <sodipodi:namedview
     id="base"
     pagecolor="#ffffff"
     bordercolor="#666666"
     borderopacity="1.0"
     inkscape:pageopacity="0.0"
     inkscape:pageshadow="2"
     inkscape:zoom="28.687777"
     inkscape:cx="6.7191129"
     inkscape:cy="6.238671"
     inkscape:document-units="mm"
     inkscape:current-layer="layer1"
     showgrid="false"
     inkscape:window-width="691"
     inkscape:window-height="712"
     inkscape:window-x="674"
     inkscape:window-y="27"
     inkscape:window-maximized="0"
     showguides="true"
     inkscape:guide-bbox="true"
     gridtolerance="10"
     guidetolerance="2">
    <inkscape:grid
       type="xygrid"
       id="grid13828" />
    <sodipodi:guide
       position="0.13043093,3.8477124"
       orientation="1,0"
       id="guide20533"
       inkscape:locked="false" />
    <sodipodi:guide
       position="1.9173346,3.6129367"
       orientation="0,1"
       id="guide20535"
       inkscape:locked="false" />
  </sodipodi:namedview>
  <metadata
     id="metadata13823">
    <rdf:RDF>
      <cc:Work
         rdf:about="">
        <dc:format>image/svg+xml</dc:format>
        <dc:type
           rdf:resource="http://purl.org/dc/dcmitype/StillImage" />
        <dc:title></dc:title>
      </cc:Work>
    </rdf:RDF>
  </metadata>
  <g
     inkscape:label="Layer 1"
     inkscape:groupmode="layer"
     id="layer1"
     transform="translate(0,-293.25)">
    <path
       inkscape:connector-curvature="0"
       id="path9739"
       d="m 0.5544121,293.43776 c -0.1901684,0 -0.34588803,0.15434 -0.34588803,0.34588 v 2.65273 c 0,0.19155 0.15571963,0.34589 0.34588803,0.34589 h 2.6541024 c 0.1901684,0 0.3458879,-0.15434 0.3458879,-0.34589 v -2.65273 c 0,-0.19154 -0.1557195,-0.34588 -0.3458879,-0.34588 z m 0,0"
       style="fill:#ffffff;fill-opacity:1;fill-rule:nonzero;stroke:none;stroke-width:0.35277775" />
    <path
       inkscape:connector-curvature="0"
       id="path9741"
       d="m 3.2085145,296.85254 c 0.2301311,0 0.4161684,-0.18466 0.4161684,-0.41617 v -2.65273 c 0,-0.23013 -0.1860373,-0.41754 -0.4161684,-0.41754 H 0.5544121 c -0.23013106,0 -0.41616842,0.18741 -0.41616842,0.41754 v 2.65273 c 0,0.23151 0.18603736,0.41617 0.41616842,0.41617 z m 0,0"
       style="fill:#211e1e;fill-opacity:1;fill-rule:nonzero;stroke:none;stroke-width:0.35277775" />
    <path
       inkscape:connector-curvature="0"
       id="path9743"
       d="m 0.83553363,295.95543 v 0.22187 c 0,0.0689 0.0564974,0.1254 0.1253984,0.1254 H 1.870439 c 0.068901,0 0.1254019,-0.0565 0.1254019,-0.1254 v -0.22187 z m 0,0"
       style="fill:#ffffff;fill-opacity:1;fill-rule:nonzero;stroke:none;stroke-width:0.35277775" />
    <path
       inkscape:connector-curvature="0"
       id="path9745"
       d="m 0.67154488,294.7965 h -0.0578767 c -0.0689011,0 -0.12540192,0.0551 -0.12540192,0.12403 v 0.9095 c 0,0.0689 0.0565009,0.1254 0.12540192,0.1254 h 0.22186545 v -1.15893 z m 0,0"
       style="fill:#ffffff;fill-opacity:1;fill-rule:nonzero;stroke:none;stroke-width:0.35277775" />
    <path
       inkscape:connector-curvature="0"
       id="path9747"
       d="m 2.151557,296.05465 v 0.24805 h 1.1231033 v -0.34864 H 2.151557 Z m 0,0"
       style="fill:#ffffff;fill-opacity:1;fill-rule:nonzero;stroke:none;stroke-width:0.35277775" />
    <path
       inkscape:connector-curvature="0"
       id="path9749"
       d="m 2.9053443,294.12816 v -0.22187 H 2.0978148 l 0.1474506,0.22187 z m 0,0"
       style="fill:#ffffff;fill-opacity:1;fill-rule:nonzero;stroke:none;stroke-width:0.35277775" />
    <path
       inkscape:connector-curvature="0"
       id="path9751"
       d="m 2.2480206,294.21359 -0.1336675,0.17502 h 0.1846544 c 0,0.16811 0.1350504,0.30316 0.3031702,0.30316 0.1667404,0 0.3017908,-0.13505 0.3017908,-0.30316 v -0.17502 z m 0,0"
       style="fill:#ffffff;fill-opacity:1;fill-rule:nonzero;stroke:none;stroke-width:0.35277775" />
    <path
       inkscape:connector-curvature="0"
       id="path9753"
       d="m 3.2746603,295.80109 v -0.80477 c 0,-0.11025 -0.089574,-0.19982 -0.1998168,-0.19982 h -0.026175 l -0.4299489,0.57878 -0.3141909,0.42581 z m 0,0"
       style="fill:#ffffff;fill-opacity:1;fill-rule:nonzero;stroke:none;stroke-width:0.35277775" />
    <path
       inkscape:connector-curvature="0"
       id="path9755"
       d="m 2.151557,295.18649 v 0.56086 L 2.8557368,294.7965 H 2.3513739 c -0.00282,0 -0.0055,0 -0.00826,0 H 2.1116085 c -0.066146,0 -0.1598507,0.0524 -0.2080825,0.11576 -0.046852,0.0634 -0.085439,0.11713 -0.085439,0.11713 l -0.4092752,0.54846 c -0.044097,0.0593 -0.031715,0.14332 0.027552,0.18603 l 0.013793,0.011 c 0.059256,0.0441 0.143316,0.0317 0.1860374,-0.0276 l 0.5153837,-0.69178 z m 0,0"
       style="fill:#ffffff;fill-opacity:1;fill-rule:nonzero;stroke:none;stroke-width:0.35277775" />
  </g>
</svg>
