<?xml version="1.0" encoding="UTF-8" standalone="no"?>
<!-- Created with Inkscape (http://www.inkscape.org/) -->

<svg
   xmlns:dc="http://purl.org/dc/elements/1.1/"
   xmlns:cc="http://creativecommons.org/ns#"
   xmlns:rdf="http://www.w3.org/1999/02/22-rdf-syntax-ns#"
   xmlns:svg="http://www.w3.org/2000/svg"
   xmlns="http://www.w3.org/2000/svg"
   xmlns:sodipodi="http://sodipodi.sourceforge.net/DTD/sodipodi-0.dtd"
   xmlns:inkscape="http://www.inkscape.org/namespaces/inkscape"
   width="3.75mm"
   height="3.75mm"
   viewBox="0 0 3.75 3.75"
   version="1.1"
   id="svg13826"
   inkscape:version="0.92.1 r15371"
   sodipodi:docname="customs_light.svg">
  <defs
     id="defs13820" />
  <sodipodi:namedview
     id="base"
     pagecolor="#ffffff"
     bordercolor="#666666"
     borderopacity="1.0"
     inkscape:pageopacity="0.0"
     inkscape:pageshadow="2"
     inkscape:zoom="28.687777"
     inkscape:cx="6.7191129"
     inkscape:cy="6.238671"
     inkscape:document-units="mm"
     inkscape:current-layer="layer1"
     showgrid="false"
     inkscape:window-width="691"
     inkscape:window-height="712"
     inkscape:window-x="674"
     inkscape:window-y="27"
     inkscape:window-maximized="0"
     showguides="true"
     inkscape:guide-bbox="true"
     gridtolerance="10"
     guidetolerance="2">
    <inkscape:grid
       type="xygrid"
       id="grid13828" />
    <sodipodi:guide
       position="0.13043093,3.8477124"
       orientation="1,0"
       id="guide20533"
       inkscape:locked="false" />
    <sodipodi:guide
       position="1.9173346,3.6129367"
       orientation="0,1"
       id="guide20535"
       inkscape:locked="false" />
  </sodipodi:namedview>
  <metadata
     id="metadata13823">
    <rdf:RDF>
      <cc:Work
         rdf:about="">
        <dc:format>image/svg+xml</dc:format>
        <dc:type
           rdf:resource="http://purl.org/dc/dcmitype/StillImage" />
        <dc:title></dc:title>
      </cc:Work>
    </rdf:RDF>
  </metadata>
  <g
     inkscape:label="Layer 1"
     inkscape:groupmode="layer"
     id="layer1"
     transform="translate(0,-293.25)">
    <path
       inkscape:connector-curvature="0"
       id="path9721"
       d="m 3.1992916,296.87098 c 0.2301311,0 0.4161684,-0.18604 0.4161684,-0.41617 v -2.6541 c 0,-0.23014 -0.1860373,-0.41617 -0.4161684,-0.41617 H 0.54518925 c -0.22875523,0 -0.41616842,0.18603 -0.41616842,0.41617 v 2.6541 c 0,0.23013 0.18741319,0.41617 0.41616842,0.41617 z m 0,0"
       style="fill:#211e1e;fill-opacity:1;fill-rule:nonzero;stroke:none;stroke-width:0.35277775" />
    <path
       inkscape:connector-curvature="0"
       id="path9723"
       d="m 0.54380987,293.45482 c -0.19016838,0 -0.34588449,0.15572 -0.34588449,0.34589 v 2.6541 c 0,0.19155 0.15571611,0.34726 0.34588449,0.34726 H 3.1992916 c 0.1901684,0 0.3472637,-0.15571 0.3472637,-0.34726 v -2.6541 c 0,-0.19017 -0.1570953,-0.34589 -0.3472637,-0.34589 z m 0,0"
       style="fill:#ffffff;fill-opacity:1;fill-rule:nonzero;stroke:none;stroke-width:0.35277775" />
    <path
       inkscape:connector-curvature="0"
       id="path9725"
       d="m 0.82631078,295.97387 v 0.22187 c 0,0.0689 0.0564974,0.12402 0.1253984,0.12402 H 1.8612161 c 0.068901,0 0.1254019,-0.0551 0.1254019,-0.12402 v -0.22187 z m 0,0"
       style="fill:#211e1e;fill-opacity:1;fill-rule:nonzero;stroke:none;stroke-width:0.35277775" />
    <path
       inkscape:connector-curvature="0"
       id="path9727"
       d="m 0.66232203,294.81357 h -0.0578767 c -0.0689011,0 -0.12402256,0.0565 -0.12402256,0.1254 v 0.9095 c 0,0.0689 0.0551215,0.1254 0.12402256,0.1254 h 0.22186545 v -1.1603 z m 0,0"
       style="fill:#211e1e;fill-opacity:1;fill-rule:nonzero;stroke:none;stroke-width:0.35277775" />
    <path
       inkscape:connector-curvature="0"
       id="path9729"
       d="m 2.1423341,296.07172 v 0.24942 h 1.1231033 v -0.35002 H 2.1423341 Z m 0,0"
       style="fill:#211e1e;fill-opacity:1;fill-rule:nonzero;stroke:none;stroke-width:0.35277775" />
    <path
       inkscape:connector-curvature="0"
       id="path9731"
       d="m 2.8961214,294.14522 v -0.22049 H 2.0885919 l 0.1474506,0.22049 z m 0,0"
       style="fill:#211e1e;fill-opacity:1;fill-rule:nonzero;stroke:none;stroke-width:0.35277775" />
    <path
       inkscape:connector-curvature="0"
       id="path9733"
       d="m 2.2387977,294.23203 -0.1336675,0.17502 h 0.1846544 c 0,0.16674 0.1364262,0.30316 0.3031702,0.30316 0.1667404,0 0.3031666,-0.13642 0.3031666,-0.30316 v -0.17502 z m 0,0"
       style="fill:#211e1e;fill-opacity:1;fill-rule:nonzero;stroke:none;stroke-width:0.35277775" />
    <path
       inkscape:connector-curvature="0"
       id="path9735"
       d="m 3.2654374,295.81816 v -0.80478 c 0,-0.11024 -0.089574,-0.19981 -0.1998168,-0.19981 h -0.026175 l -0.4285695,0.58015 -0.3155703,0.42444 z m 0,0"
       style="fill:#211e1e;fill-opacity:1;fill-rule:nonzero;stroke:none;stroke-width:0.35277775" />
    <path
       inkscape:connector-curvature="0"
       id="path9737"
       d="m 2.1423341,295.20355 v 0.56224 l 0.7041798,-0.95222 H 2.342151 c -0.00282,0 -0.0055,0 -0.00688,10e-4 v -10e-4 H 2.102382 c -0.066146,0 -0.1598506,0.0524 -0.206703,0.11713 -0.048232,0.0634 -0.086819,0.11575 -0.086819,0.11575 l -0.4092751,0.54984 c -0.044097,0.0579 -0.031715,0.14194 0.027552,0.18603 l 0.013794,0.01 c 0.059256,0.0441 0.1433159,0.0317 0.1874132,-0.0276 l 0.5140078,-0.69177 z m 0,0"
       style="fill:#211e1e;fill-opacity:1;fill-rule:nonzero;stroke:none;stroke-width:0.35277775" />
  </g>
</svg>
