<?xml version="1.0" encoding="UTF-8" standalone="no"?>
<!-- Created with Inkscape (http://www.inkscape.org/) -->

<svg
   xmlns:dc="http://purl.org/dc/elements/1.1/"
   xmlns:cc="http://creativecommons.org/ns#"
   xmlns:rdf="http://www.w3.org/1999/02/22-rdf-syntax-ns#"
   xmlns:svg="http://www.w3.org/2000/svg"
   xmlns="http://www.w3.org/2000/svg"
   xmlns:sodipodi="http://sodipodi.sourceforge.net/DTD/sodipodi-0.dtd"
   xmlns:inkscape="http://www.inkscape.org/namespaces/inkscape"
   width="3.75mm"
   height="3.75mm"
   viewBox="0 0 3.75 3.75"
   version="1.1"
   id="svg13826"
   inkscape:version="0.92.1 r15371"
   sodipodi:docname="passes_light.svg">
  <defs
     id="defs13820" />
  <sodipodi:namedview
     id="base"
     pagecolor="#ffffff"
     bordercolor="#666666"
     borderopacity="1.0"
     inkscape:pageopacity="0.0"
     inkscape:pageshadow="2"
     inkscape:zoom="28.687777"
     inkscape:cx="6.7191129"
     inkscape:cy="6.238671"
     inkscape:document-units="mm"
     inkscape:current-layer="layer1"
     showgrid="false"
     inkscape:window-width="691"
     inkscape:window-height="712"
     inkscape:window-x="674"
     inkscape:window-y="27"
     inkscape:window-maximized="0"
     showguides="true"
     inkscape:guide-bbox="true"
     gridtolerance="10"
     guidetolerance="2">
    <inkscape:grid
       type="xygrid"
       id="grid13828" />
    <sodipodi:guide
       position="0.13043093,3.8477124"
       orientation="1,0"
       id="guide20533"
       inkscape:locked="false" />
    <sodipodi:guide
       position="1.9173346,3.6129367"
       orientation="0,1"
       id="guide20535"
       inkscape:locked="false" />
  </sodipodi:namedview>
  <metadata
     id="metadata13823">
    <rdf:RDF>
      <cc:Work
         rdf:about="">
        <dc:format>image/svg+xml</dc:format>
        <dc:type
           rdf:resource="http://purl.org/dc/dcmitype/StillImage" />
        <dc:title></dc:title>
      </cc:Work>
    </rdf:RDF>
  </metadata>
  <g
     inkscape:label="Layer 1"
     inkscape:groupmode="layer"
     id="layer1"
     transform="translate(0,-293.25)">
    <path
       inkscape:connector-curvature="0"
       id="path9373"
       d="m 0.52605743,296.86313 c -0.23013458,0 -0.41754777,-0.18603 -0.41754777,-0.41754 v -2.65411 c 0,-0.23013 0.18741319,-0.41754 0.41754777,-0.41754 H 3.1815355 c 0.2301311,0 0.4175442,0.18741 0.4175442,0.41754 v 2.65411 c 0,0.23151 -0.1874131,0.41754 -0.4175442,0.41754 z m 0,0"
       style="fill:#211e1e;fill-opacity:1;fill-rule:nonzero;stroke:none;stroke-width:0.35277775" />
    <path
       inkscape:connector-curvature="0"
       id="path9375"
       d="m 0.52605743,293.44422 c -0.19154775,0 -0.34588802,0.15572 -0.34588802,0.34726 v 2.65411 c 0,0.19154 0.15434027,0.34726 0.34588802,0.34726 H 3.1815355 c 0.1915477,0 0.3472675,-0.15572 0.3472675,-0.34726 v -2.65411 c 0,-0.19154 -0.1557198,-0.34726 -0.3472675,-0.34726 z m 0,0"
       style="fill:#ffffff;fill-opacity:1;fill-rule:nonzero;stroke:none;stroke-width:0.35277775" />
    <path
       inkscape:connector-curvature="0"
       id="path9377"
       d="M 0.95049143,294.71064 H 2.7846605 v 1.81625 H 0.95049143 Z m 0,0"
       style="fill:#211e1e;fill-opacity:1;fill-rule:nonzero;stroke:none;stroke-width:0.35277775" />
    <path
       inkscape:connector-curvature="0"
       id="path9379"
       d="M 0.95049143,293.65368 H 2.7846605 v 0.85852 H 0.95049143 Z m 0,0"
       style="fill:#211e1e;fill-opacity:1;fill-rule:nonzero;stroke:none;stroke-width:0.35277775" />
    <path
       inkscape:connector-curvature="0"
       id="path9381"
       d="m 1.2743308,294.0161 h 0.034466 c 0.049608,0 0.093705,-0.0152 0.093705,-0.073 0,-0.0565 -0.042718,-0.0772 -0.093705,-0.0772 h -0.034466 z m -0.099219,-0.22737 h 0.1254019 c 0.1074879,0 0.2053273,0.0317 0.2053273,0.14883 0,0.11575 -0.08406,0.15709 -0.1901684,0.15709 h -0.041342 v 0.18604 h -0.099219 z m 0,0"
       style="fill:#ffffff;fill-opacity:1;fill-rule:nonzero;stroke:none;stroke-width:0.35277775" />
    <path
       inkscape:connector-curvature="0"
       id="path9383"
       d="m 1.7125478,294.22006 c 0.028928,0 0.050987,-0.0124 0.066146,-0.0317 0.015169,-0.0207 0.019297,-0.0468 0.019297,-0.0758 h -0.039966 c -0.042718,0 -0.1061085,0.008 -0.1061085,0.0634 0,0.0317 0.026176,0.0441 0.060635,0.0441 m -0.110243,-0.2825 c 0.035828,-0.0179 0.085439,-0.0276 0.1254019,-0.0276 0.1116188,0 0.1570954,0.0455 0.1570954,0.15296 v 0.0455 c 0,0.0372 0,0.0648 0.00141,0.091 0,0.0275 0.00141,0.0537 0.00413,0.0813 h -0.082711 c -0.00413,-0.0179 -0.00413,-0.0427 -0.00413,-0.0537 h -0.00141 c -0.022049,0.04 -0.070277,0.062 -0.1129982,0.062 -0.063391,0 -0.1267778,-0.0386 -0.1267778,-0.10749 0,-0.0537 0.026176,-0.0854 0.062011,-0.10335 0.035828,-0.0179 0.08268,-0.0207 0.1226432,-0.0207 h 0.05099 c 0,-0.0593 -0.0248,-0.0786 -0.081305,-0.0786 -0.039963,0 -0.079929,0.0152 -0.1116224,0.0386 z m 0,0"
       style="fill:#ffffff;fill-opacity:1;fill-rule:nonzero;stroke:none;stroke-width:0.35277775" />
    <path
       inkscape:connector-curvature="0"
       id="path9385"
       d="m 2.2113967,293.99406 c -0.028928,-0.01 -0.049608,-0.0152 -0.08406,-0.0152 -0.026176,0 -0.056501,0.008 -0.056501,0.04 0,0.0579 0.1639888,0.0207 0.1639888,0.15296 0,0.0841 -0.074415,0.11852 -0.1515851,0.11852 -0.035828,0 -0.073036,-0.007 -0.1074878,-0.0165 l 0.0055,-0.0772 c 0.030304,0.0152 0.060632,0.0234 0.093705,0.0234 0.023424,0 0.062011,-0.008 0.062011,-0.0441 0,-0.0717 -0.1639852,-0.0221 -0.1639852,-0.15297 0,-0.0785 0.067525,-0.11299 0.1419366,-0.11299 0.044097,0 0.073036,0.007 0.1033533,0.0124 z m 0,0"
       style="fill:#ffffff;fill-opacity:1;fill-rule:nonzero;stroke:none;stroke-width:0.35277775" />
    <path
       inkscape:connector-curvature="0"
       id="path9387"
       d="m 2.5421259,293.99406 c -0.028928,-0.01 -0.049608,-0.0152 -0.08406,-0.0152 -0.026176,0 -0.056501,0.008 -0.056501,0.04 0,0.0579 0.1639887,0.0207 0.1639887,0.15296 0,0.0841 -0.074415,0.11852 -0.151585,0.11852 -0.035828,0 -0.073036,-0.007 -0.1074879,-0.0165 l 0.0055,-0.0772 c 0.030304,0.0152 0.060632,0.0234 0.093705,0.0234 0.023424,0 0.062011,-0.008 0.062011,-0.0441 0,-0.0717 -0.1639852,-0.0221 -0.1639852,-0.15297 0,-0.0785 0.067525,-0.11299 0.1419366,-0.11299 0.044097,0 0.073036,0.007 0.1033533,0.0124 z m 0,0"
       style="fill:#ffffff;fill-opacity:1;fill-rule:nonzero;stroke:none;stroke-width:0.35277775" />
    <path
       inkscape:connector-curvature="0"
       id="path9389"
       d="m 2.5338568,296.24164 h -1.333941 v -0.13229 h 1.333941 z m 0,0"
       style="fill:#ffffff;fill-opacity:1;fill-rule:nonzero;stroke:none;stroke-width:0.35277775" />
    <path
       inkscape:connector-curvature="0"
       id="path9391"
       d="m 2.5338568,295.97154 h -1.333941 v -0.13229 h 1.333941 z m 0,0"
       style="fill:#ffffff;fill-opacity:1;fill-rule:nonzero;stroke:none;stroke-width:0.35277775" />
    <path
       inkscape:connector-curvature="0"
       id="path9393"
       d="m 2.5338568,295.70145 h -1.333941 v -0.13229 h 1.333941 z m 0,0"
       style="fill:#ffffff;fill-opacity:1;fill-rule:nonzero;stroke:none;stroke-width:0.35277775" />
    <path
       inkscape:connector-curvature="0"
       id="path9395"
       d="m 2.5338568,295.43135 h -1.333941 v -0.13229 h 1.333941 z m 0,0"
       style="fill:#ffffff;fill-opacity:1;fill-rule:nonzero;stroke:none;stroke-width:0.35277775" />
    <path
       inkscape:connector-curvature="0"
       id="path9397"
       d="m 2.5338568,295.16126 h -1.333941 v -0.13229 h 1.333941 z m 0,0"
       style="fill:#ffffff;fill-opacity:1;fill-rule:nonzero;stroke:none;stroke-width:0.35277775" />
  </g>
</svg>
