<?xml version="1.0" encoding="UTF-8" standalone="no"?>
<!-- Created with Inkscape (http://www.inkscape.org/) -->

<svg
   xmlns:dc="http://purl.org/dc/elements/1.1/"
   xmlns:cc="http://creativecommons.org/ns#"
   xmlns:rdf="http://www.w3.org/1999/02/22-rdf-syntax-ns#"
   xmlns:svg="http://www.w3.org/2000/svg"
   xmlns="http://www.w3.org/2000/svg"
   xmlns:sodipodi="http://sodipodi.sourceforge.net/DTD/sodipodi-0.dtd"
   xmlns:inkscape="http://www.inkscape.org/namespaces/inkscape"
   width="3.75mm"
   height="3.75mm"
   viewBox="0 0 3.75 3.75"
   version="1.1"
   id="svg13826"
   inkscape:version="0.92.1 r15371"
   sodipodi:docname="community_garden_light.svg">
  <defs
     id="defs13820" />
  <sodipodi:namedview
     id="base"
     pagecolor="#ffffff"
     bordercolor="#666666"
     borderopacity="1.0"
     inkscape:pageopacity="0.0"
     inkscape:pageshadow="2"
     inkscape:zoom="20.285322"
     inkscape:cx="8.0003469"
     inkscape:cy="6.7152255"
     inkscape:document-units="mm"
     inkscape:current-layer="layer1"
     showgrid="false"
     inkscape:window-width="608"
     inkscape:window-height="712"
     inkscape:window-x="663"
     inkscape:window-y="60"
     inkscape:window-maximized="0"
     showguides="true"
     inkscape:guide-bbox="true"
     gridtolerance="10"
     guidetolerance="2">
    <inkscape:grid
       type="xygrid"
       id="grid13828" />
    <sodipodi:guide
       position="0.13043093,3.8477124"
       orientation="1,0"
       id="guide20533"
       inkscape:locked="false" />
    <sodipodi:guide
       position="1.9173346,3.6129367"
       orientation="0,1"
       id="guide20535"
       inkscape:locked="false" />
  </sodipodi:namedview>
  <metadata
     id="metadata13823">
    <rdf:RDF>
      <cc:Work
         rdf:about="">
        <dc:format>image/svg+xml</dc:format>
        <dc:type
           rdf:resource="http://purl.org/dc/dcmitype/StillImage" />
        <dc:title></dc:title>
      </cc:Work>
    </rdf:RDF>
  </metadata>
  <g
     inkscape:label="Layer 1"
     inkscape:groupmode="layer"
     id="layer1"
     transform="translate(0,-293.25)">
    <path
       inkscape:connector-curvature="0"
       id="path13761"
       d="m 3.203879,296.86501 c 0.2301309,0 0.4175442,-0.18604 0.4175442,-0.41617 v -2.6541 c 0,-0.22876 -0.1874133,-0.41617 -0.4175442,-0.41617 H 0.55115588 c -0.2301346,0 -0.4161684,0.18741 -0.4161684,0.41617 v 2.6541 c 0,0.23013 0.1860338,0.41617 0.4161684,0.41617 z m 0,0"
       style="fill:#211e1e;fill-opacity:1;fill-rule:nonzero;stroke:none;stroke-width:0.35277775" />
    <path
       inkscape:connector-curvature="0"
       id="path13763"
       d="m 0.54840068,293.44885 c -0.1901719,0 -0.345888,0.15572 -0.345888,0.34589 v 2.6541 c 0,0.19155 0.1557161,0.34726 0.345888,0.34726 H 3.203879 c 0.1915477,0 0.3472638,-0.15571 0.3472638,-0.34726 v -2.6541 c 0,-0.19017 -0.1557161,-0.34589 -0.3472638,-0.34589 z m 0,0"
       style="fill:#ffffff;fill-opacity:1;fill-rule:nonzero;stroke:none;stroke-width:0.35277775" />
    <path
       inkscape:connector-curvature="0"
       id="path13765"
       d="m 2.2034223,294.16405 c 0.1267813,0 0.2315104,-0.10335 0.2315104,-0.23289 0,-0.12677 -0.1047291,-0.23151 -0.2315104,-0.23151 -0.1281571,0 -0.2315104,0.10474 -0.2315104,0.23151 0,0.12954 0.1033533,0.23289 0.2315104,0.23289"
       style="fill:#211e1e;fill-opacity:1;fill-rule:nonzero;stroke:none;stroke-width:0.35277775" />
    <path
       inkscape:connector-curvature="0"
       id="path13767"
       d="m 3.1859649,294.28532 v -0.2949 c 0,-0.0937 -0.125402,-0.18052 -0.1708785,-0.18052 -0.044097,0 -0.1694993,0.0868 -0.1694993,0.18052 v 0.2949 h 0.1336712 v 0.42444 H 2.834563 L 2.6526637,294.42312 C 2.510727,294.19713 2.3880803,294.21229 2.3880803,294.21229 h -0.507118 c -0.1639852,0 -0.2576936,0.13366 -0.2576936,0.30041 v 0.71244 c 0,0.1378 0.1832786,0.1378 0.1832786,0 v -0.69315 h 0.07166 l -0.00141,1.88102 c 0,0.0717 0.059256,0.12954 0.1295364,0.12954 0.073036,0 0.1309123,-0.0579 0.1309123,-0.12954 v -1.0914 h 0.1088664 v 1.0914 c 0,0.0717 0.057877,0.12954 0.1295329,0.12954 0.07166,0 0.1295365,-0.0579 0.1295365,-0.12954 l 0.00141,-1.88102 0.2259965,0.35829 h 0.2466702 v 1.65227 h 0.073036 v -1.65365 c 0.1088671,-0.0179 0.1088671,-0.15985 0,-0.17776 v -0.42582 z m 0,0"
       style="fill:#211e1e;fill-opacity:1;fill-rule:nonzero;stroke:none;stroke-width:0.35277775" />
    <path
       inkscape:connector-curvature="0"
       id="path13769"
       d="m 1.0127974,296.28899 c -0.18465802,0.0124 -0.34588802,0.11024 -0.44372742,0.25356 H 1.5323191 c -0.099219,-0.14608 -0.2645834,-0.24529 -0.4533759,-0.25356 0,-0.01 0,-0.0179 0,-0.0289 0.00141,-0.0427 0.00282,-0.0978 0.0055,-0.15434 0.00282,-0.004 0.0055,-0.008 0.00963,-0.0124 0.012418,-0.0138 0.028928,-0.0289 0.048232,-0.0441 0.00413,-0.003 0.00825,-0.005 0.013794,-0.01 0.00413,-0.003 0.00967,-0.005 0.013794,-0.008 0.00141,0 0.00282,-10e-4 0.00413,-10e-4 0.053746,0.0827 0.16123,0.0882 0.2273758,0.0262 0.097843,-0.0896 0.081305,-0.29628 0.081305,-0.29628 -0.093705,0.0579 -0.1143776,0.0345 -0.188789,0.0413 -0.1309158,0.0124 -0.1543403,0.11714 -0.1378056,0.18604 -0.00282,0 -0.00413,0.001 -0.00688,0.003 -0.0055,0.003 -0.012418,0.006 -0.017921,0.008 -0.0055,0.004 -0.012418,0.007 -0.017921,0.011 -0.00963,0.007 -0.019297,0.0138 -0.027552,0.0207 -0.00141,-0.008 -0.00141,-0.0179 -0.00282,-0.0276 -0.00282,-0.0193 -0.00825,-0.0372 -0.012418,-0.0551 -0.00282,-0.008 -0.00688,-0.0165 -0.00963,-0.0248 -0.00282,-0.008 -0.0055,-0.0165 -0.00963,-0.0234 -0.00688,-0.0152 -0.013794,-0.0289 -0.020673,-0.0413 -0.013794,-0.0234 -0.026176,-0.0427 -0.035828,-0.0551 0.064766,-0.0317 0.13642622,-0.12541 0.049611,-0.23427 -0.046856,-0.0593 -0.078549,-0.0579 -0.10197752,-0.16536 0,0 -0.16123,0.13229 -0.1570954,0.26458 0.00282,0.0868 0.073036,0.15709 0.1639852,0.14745 0.00282,0.003 0.0055,0.005 0.00825,0.01 0.00826,0.0138 0.019297,0.0317 0.031715,0.0551 0.0055,0.011 0.011007,0.0248 0.017921,0.0386 0.00141,0.007 0.00413,0.0138 0.00688,0.0207 0.00282,0.008 0.00413,0.0152 0.00688,0.0234 0.00413,0.0152 0.00688,0.0303 0.00826,0.0469 0,0.007 0.00141,0.0152 0.00141,0.0234 l -0.00141,0.0124 v 0.0138 c -0.00141,0.0179 -0.00413,0.0386 -0.0055,0.0565 -0.011007,-0.004 -0.0248,-0.01 -0.037208,-0.0124 -0.019297,-0.007 -0.039963,-0.011 -0.053742,-0.0138 h -0.00141 c 0.019297,-0.0689 0,-0.17638 -0.1322917,-0.19154 -0.074411,-0.008 -0.09646,0.0138 -0.188789,-0.0455 0,0 -0.020673,0.20671 0.074411,0.29904 0.066146,0.0634 0.1736337,0.0593 0.2301346,-0.0234 0.00141,0 0.00413,10e-4 0.00688,10e-4 0.013794,0.004 0.03168,0.011 0.048232,0.0179 0.017921,0.008 0.033055,0.0152 0.045473,0.022 0.00141,10e-4 0.00282,0.003 0.00413,0.003 -0.00282,0.0317 -0.00413,0.0606 -0.0055,0.0868 -0.00141,0.011 -0.00141,0.0207 -0.00141,0.0303"
       style="fill:#211e1e;fill-opacity:1;fill-rule:nonzero;stroke:none;stroke-width:0.35277775" />
  </g>
</svg>
