<?xml version="1.0" encoding="UTF-8" standalone="no"?>
<!-- Created with Inkscape (http://www.inkscape.org/) -->

<svg
   xmlns:dc="http://purl.org/dc/elements/1.1/"
   xmlns:cc="http://creativecommons.org/ns#"
   xmlns:rdf="http://www.w3.org/1999/02/22-rdf-syntax-ns#"
   xmlns:svg="http://www.w3.org/2000/svg"
   xmlns="http://www.w3.org/2000/svg"
   xmlns:sodipodi="http://sodipodi.sourceforge.net/DTD/sodipodi-0.dtd"
   xmlns:inkscape="http://www.inkscape.org/namespaces/inkscape"
   width="3.75mm"
   height="3.75mm"
   viewBox="0 0 3.75 3.75"
   version="1.1"
   id="svg13826"
   inkscape:version="0.92.1 r15371"
   sodipodi:docname="photography_light.svg">
  <defs
     id="defs13820" />
  <sodipodi:namedview
     id="base"
     pagecolor="#ffffff"
     bordercolor="#666666"
     borderopacity="1.0"
     inkscape:pageopacity="0.0"
     inkscape:pageshadow="2"
     inkscape:zoom="20.285322"
     inkscape:cx="6.4097945"
     inkscape:cy="6.7152255"
     inkscape:document-units="mm"
     inkscape:current-layer="layer1"
     showgrid="false"
     inkscape:window-width="608"
     inkscape:window-height="712"
     inkscape:window-x="663"
     inkscape:window-y="60"
     inkscape:window-maximized="0"
     showguides="true"
     inkscape:guide-bbox="true"
     gridtolerance="10"
     guidetolerance="2">
    <inkscape:grid
       type="xygrid"
       id="grid13828" />
    <sodipodi:guide
       position="0.13043093,3.8477124"
       orientation="1,0"
       id="guide20533"
       inkscape:locked="false" />
    <sodipodi:guide
       position="1.9173346,3.6129367"
       orientation="0,1"
       id="guide20535"
       inkscape:locked="false" />
  </sodipodi:namedview>
  <metadata
     id="metadata13823">
    <rdf:RDF>
      <cc:Work
         rdf:about="">
        <dc:format>image/svg+xml</dc:format>
        <dc:type
           rdf:resource="http://purl.org/dc/dcmitype/StillImage" />
        <dc:title></dc:title>
      </cc:Work>
    </rdf:RDF>
  </metadata>
  <g
     inkscape:label="Layer 1"
     inkscape:groupmode="layer"
     id="layer1"
     transform="translate(0,-293.25)">
    <path
       inkscape:connector-curvature="0"
       id="path13527"
       d="m 3.1922134,296.85404 c 0.2301311,0 0.4175443,-0.18741 0.4175443,-0.41754 v -2.65549 c 0,-0.23013 -0.1874132,-0.41754 -0.4175443,-0.41754 H 0.53673521 c -0.23013459,0 -0.41616842,0.18741 -0.41616842,0.41754 v 2.65549 c 0,0.23013 0.18603383,0.41754 0.41616842,0.41754 z m 0,0"
       style="fill:#211e1e;fill-opacity:1;fill-rule:nonzero;stroke:none;stroke-width:0.35277775" />
    <path
       inkscape:connector-curvature="0"
       id="path13529"
       d="m 0.53673521,293.43513 c -0.19017193,0 -0.34588803,0.15434 -0.34588803,0.34588 v 2.65549 c 0,0.19154 0.1557161,0.34588 0.34588803,0.34588 H 3.1922134 c 0.1915478,0 0.3458879,-0.15434 0.3458879,-0.34588 v -2.65549 c 0,-0.19154 -0.1543401,-0.34588 -0.3458879,-0.34588 z m 0,0"
       style="fill:#ffffff;fill-opacity:1;fill-rule:nonzero;stroke:none;stroke-width:0.35277775" />
    <path
       inkscape:connector-curvature="0"
       id="path13531"
       d="m 3.25698,294.74702 v -0.17915 c 0,-0.12402 -0.1019742,-0.22599 -0.2259965,-0.22599 H 0.69796523 c -0.12402609,0 -0.22462067,0.10197 -0.22462067,0.22599 v 1.31052 c 0,0.12402 0.10059458,0.226 0.22462067,0.226 H 3.0309835 c 0.1240223,0 0.2259965,-0.10198 0.2259965,-0.226 z m 0,0"
       style="fill:#211e1e;fill-opacity:1;fill-rule:nonzero;stroke:none;stroke-width:0.35277775" />
    <path
       inkscape:connector-curvature="0"
       id="path13533"
       d="m 2.0346614,295.2128 c 0,0.36931 -0.3004115,0.66835 -0.6697275,0.66835 -0.36793659,0 -0.66834805,-0.29904 -0.66834805,-0.66835 0,-0.0978 0.0220485,-0.19017 0.0606355,-0.27561 0.0151694,-0.0358 0.0358281,-0.0661 0.0358281,-0.0661 0.11713282,-0.19568 0.32797395,-0.32659 0.57188445,-0.32659 0.24529,0 0.4561311,0.13229 0.5732639,0.32797 0,0 0.030304,0.0537 0.035828,0.0661 0.037208,0.0841 0.060636,0.17639 0.060636,0.27423"
       style="fill:#ffffff;fill-opacity:1;fill-rule:nonzero;stroke:none;stroke-width:0.35277775" />
    <path
       inkscape:connector-curvature="0"
       id="path13535"
       d="M 1.3483993,294.23715 H 0.83025689 v -0.20533 H 1.3483993 Z m 0,0"
       style="fill:#211e1e;fill-opacity:1;fill-rule:nonzero;stroke:none;stroke-width:0.35277775" />
    <path
       inkscape:connector-curvature="0"
       id="path13537"
       d="m 2.9868862,294.68363 c 0,0.0648 -0.050987,0.11713 -0.1116225,0.11713 H 2.6244599 c -0.062011,0 -0.1129982,-0.0524 -0.1129982,-0.11713 0,-0.0634 0.050987,-0.11576 0.1129982,-0.11576 h 0.2508038 c 0.060635,0 0.1116225,0.0524 0.1116225,0.11576"
       style="fill:#ffffff;fill-opacity:1;fill-rule:nonzero;stroke:none;stroke-width:0.35277775" />
    <path
       inkscape:connector-curvature="0"
       id="path13539"
       d="m 1.6336518,295.06121 c -0.00826,-0.0138 -0.017921,-0.0262 -0.027552,-0.0386 -0.05788,-0.0689 -0.143316,-0.113 -0.2411589,-0.113 -0.096464,0 -0.1818993,0.0441 -0.2397795,0.113 -0.00963,0.0124 -0.019297,0.0248 -0.028928,0.0386 -0.028928,0.0482 -0.045473,0.10336 -0.045473,0.16261 0,0.17363 0.1405573,0.31419 0.314191,0.31419 0.1736337,0 0.3141944,-0.14056 0.3141944,-0.31419 0,-0.0592 -0.016545,-0.11438 -0.045477,-0.16261"
       style="fill:#211e1e;fill-opacity:1;fill-rule:nonzero;stroke:none;stroke-width:0.35277775" />
  </g>
</svg>
