<?xml version="1.0" encoding="UTF-8" standalone="no"?>
<!-- Created with Inkscape (http://www.inkscape.org/) -->

<svg
   xmlns:dc="http://purl.org/dc/elements/1.1/"
   xmlns:cc="http://creativecommons.org/ns#"
   xmlns:rdf="http://www.w3.org/1999/02/22-rdf-syntax-ns#"
   xmlns:svg="http://www.w3.org/2000/svg"
   xmlns="http://www.w3.org/2000/svg"
   xmlns:sodipodi="http://sodipodi.sourceforge.net/DTD/sodipodi-0.dtd"
   xmlns:inkscape="http://www.inkscape.org/namespaces/inkscape"
   width="3.75mm"
   height="3.75mm"
   viewBox="0 0 3.75 3.75"
   version="1.1"
   id="svg13826"
   inkscape:version="0.92.1 r15371"
   sodipodi:docname="photography_dark.svg">
  <defs
     id="defs13820" />
  <sodipodi:namedview
     id="base"
     pagecolor="#ffffff"
     bordercolor="#666666"
     borderopacity="1.0"
     inkscape:pageopacity="0.0"
     inkscape:pageshadow="2"
     inkscape:zoom="20.285322"
     inkscape:cx="6.4097945"
     inkscape:cy="6.7152255"
     inkscape:document-units="mm"
     inkscape:current-layer="layer1"
     showgrid="false"
     inkscape:window-width="608"
     inkscape:window-height="712"
     inkscape:window-x="663"
     inkscape:window-y="60"
     inkscape:window-maximized="0"
     showguides="true"
     inkscape:guide-bbox="true"
     gridtolerance="10"
     guidetolerance="2">
    <inkscape:grid
       type="xygrid"
       id="grid13828" />
    <sodipodi:guide
       position="0.13043093,3.8477124"
       orientation="1,0"
       id="guide20533"
       inkscape:locked="false" />
    <sodipodi:guide
       position="1.9173346,3.6129367"
       orientation="0,1"
       id="guide20535"
       inkscape:locked="false" />
  </sodipodi:namedview>
  <metadata
     id="metadata13823">
    <rdf:RDF>
      <cc:Work
         rdf:about="">
        <dc:format>image/svg+xml</dc:format>
        <dc:type
           rdf:resource="http://purl.org/dc/dcmitype/StillImage" />
        <dc:title></dc:title>
      </cc:Work>
    </rdf:RDF>
  </metadata>
  <g
     inkscape:label="Layer 1"
     inkscape:groupmode="layer"
     id="layer1"
     transform="translate(0,-293.25)">
    <path
       inkscape:connector-curvature="0"
       id="path13513"
       d="m 0.5628214,293.45734 c -0.19017193,0 -0.34588803,0.15434 -0.34588803,0.34589 v 2.65548 c 0,0.19154 0.1557161,0.34588 0.34588803,0.34588 h 2.6554782 c 0.1915478,0 0.3458879,-0.15434 0.3458879,-0.34588 v -2.65548 c 0,-0.19155 -0.1543401,-0.34589 -0.3458879,-0.34589 z m 0,0"
       style="fill:#ffffff;fill-opacity:1;fill-rule:nonzero;stroke:none;stroke-width:0.35277775" />
    <path
       inkscape:connector-curvature="0"
       id="path13515"
       d="M 3.2182996,293.38706 H 0.5628214 c -0.23013459,0 -0.41616842,0.18604 -0.41616842,0.41617 v 2.65548 c 0,0.23013 0.18603383,0.41754 0.41616842,0.41754 h 2.6554782 c 0.2301311,0 0.4175443,-0.18741 0.4175443,-0.41754 v -2.65548 c 0,-0.23013 -0.1874132,-0.41617 -0.4175443,-0.41617"
       style="fill:#211e1e;fill-opacity:1;fill-rule:nonzero;stroke:none;stroke-width:0.35277775" />
    <path
       inkscape:connector-curvature="0"
       id="path13517"
       d="m 3.2830662,294.76923 v -0.17914 c 0,-0.12402 -0.1019742,-0.226 -0.2259965,-0.226 H 0.72405142 c -0.12402609,0 -0.22462067,0.10198 -0.22462067,0.226 v 1.31051 c 0,0.12403 0.10059458,0.226 0.22462067,0.226 H 3.0570697 c 0.1240223,0 0.2259965,-0.10197 0.2259965,-0.226 z m 0,0"
       style="fill:#ffffff;fill-opacity:1;fill-rule:nonzero;stroke:none;stroke-width:0.35277775" />
    <path
       inkscape:connector-curvature="0"
       id="path13519"
       d="m 2.0593682,295.23501 c 0,0.36931 -0.2990321,0.66835 -0.6683481,0.66835 -0.3679366,0 -0.66834806,-0.29904 -0.66834806,-0.66835 0,-0.0978 0.0220485,-0.19017 0.0606355,-0.27561 0.015169,-0.0358 0.035828,-0.0661 0.035828,-0.0661 0.1171328,-0.19568 0.32797406,-0.3266 0.57188456,-0.3266 0.24529,0 0.4561311,0.13229 0.5732639,0.32797 0,0 0.030304,0.0538 0.034466,0.0661 0.038583,0.0841 0.060632,0.17639 0.060632,0.27423"
       style="fill:#211e1e;fill-opacity:1;fill-rule:nonzero;stroke:none;stroke-width:0.35277775" />
    <path
       inkscape:connector-curvature="0"
       id="path13521"
       d="M 1.3744855,294.25936 H 0.85634313 v -0.20533 H 1.3744855 Z m 0,0"
       style="fill:#ffffff;fill-opacity:1;fill-rule:nonzero;stroke:none;stroke-width:0.35277775" />
    <path
       inkscape:connector-curvature="0"
       id="path13523"
       d="m 3.0129724,294.70585 c 0,0.0648 -0.050987,0.11713 -0.1116225,0.11713 H 2.6491703 c -0.060635,0 -0.1116224,-0.0524 -0.1116224,-0.11713 0,-0.0634 0.050987,-0.11576 0.1116224,-0.11576 h 0.2521796 c 0.060635,0 0.1116225,0.0524 0.1116225,0.11576"
       style="fill:#211e1e;fill-opacity:1;fill-rule:nonzero;stroke:none;stroke-width:0.35277775" />
    <path
       inkscape:connector-curvature="0"
       id="path13525"
       d="m 1.659738,295.08343 c -0.00826,-0.0138 -0.017921,-0.0262 -0.027552,-0.0386 -0.05788,-0.0689 -0.143316,-0.113 -0.2411589,-0.113 -0.096464,0 -0.1818993,0.0441 -0.2397795,0.113 -0.011007,0.0124 -0.019297,0.0248 -0.028928,0.0386 -0.028928,0.0482 -0.045473,0.10335 -0.045473,0.16261 0,0.17363 0.1405573,0.31419 0.314191,0.31419 0.1736337,0 0.3141944,-0.14056 0.3141944,-0.31419 0,-0.0593 -0.016545,-0.11438 -0.045477,-0.16261"
       style="fill:#ffffff;fill-opacity:1;fill-rule:nonzero;stroke:none;stroke-width:0.35277775" />
  </g>
</svg>
