<?xml version="1.0" encoding="UTF-8" standalone="no"?>
<!-- Created with Inkscape (http://www.inkscape.org/) -->

<svg
   xmlns:dc="http://purl.org/dc/elements/1.1/"
   xmlns:cc="http://creativecommons.org/ns#"
   xmlns:rdf="http://www.w3.org/1999/02/22-rdf-syntax-ns#"
   xmlns:svg="http://www.w3.org/2000/svg"
   xmlns="http://www.w3.org/2000/svg"
   xmlns:sodipodi="http://sodipodi.sourceforge.net/DTD/sodipodi-0.dtd"
   xmlns:inkscape="http://www.inkscape.org/namespaces/inkscape"
   width="3.75mm"
   height="3.75mm"
   viewBox="0 0 3.75 3.75"
   version="1.1"
   id="svg13826"
   inkscape:version="0.92.1 r15371"
   sodipodi:docname="canoe_access_light.svg">
  <defs
     id="defs13820">
    <clipPath
       id="clip1">
      <rect
         y="0"
         x="0"
         width="5"
         height="5"
         id="rect561" />
    </clipPath>
    <clipPath
       id="clip2">
      <path
         inkscape:connector-curvature="0"
         d="m 0.652344,3 h 3.78125 v 1.042969 h -3.78125 z m 0,0"
         id="path436" />
    </clipPath>
    <clipPath
       id="clip3">
      <rect
         y="0"
         x="0"
         width="5"
         height="2"
         id="rect442" />
    </clipPath>
    <clipPath
       id="clip4">
      <path
         inkscape:connector-curvature="0"
         d="m 0.652344,0.667969 h 3.78125 v 0.375 h -3.78125 z m 0,0"
         id="path439" />
    </clipPath>
    <clipPath
       id="clipPath25695">
      <rect
         y="0"
         x="0"
         width="5"
         height="2"
         id="rect25693" />
    </clipPath>
    <clipPath
       id="clipPath25699">
      <path
         inkscape:connector-curvature="0"
         d="m 0.652344,0.667969 h 3.78125 v 0.375 h -3.78125 z m 0,0"
         id="path25697" />
    </clipPath>
    <clipPath
       id="clip5">
      <rect
         y="0"
         x="0"
         width="5"
         height="2"
         id="rect453" />
    </clipPath>
    <clipPath
       id="clip6">
      <path
         inkscape:connector-curvature="0"
         d="m 0.652344,0.667969 h 3.78125 v 0.375 h -3.78125 z m 0,0"
         id="path450" />
    </clipPath>
    <clipPath
       id="clipPath25707">
      <rect
         y="0"
         x="0"
         width="5"
         height="2"
         id="rect25705" />
    </clipPath>
    <clipPath
       id="clipPath25711">
      <path
         inkscape:connector-curvature="0"
         d="m 0.652344,0.667969 h 3.78125 v 0.375 h -3.78125 z m 0,0"
         id="path25709" />
    </clipPath>
    <clipPath
       id="clip7">
      <path
         inkscape:connector-curvature="0"
         d="m 0.652344,2 h 3.78125 v 2 h -3.78125 z m 0,0"
         id="path461" />
    </clipPath>
    <clipPath
       id="clip8">
      <rect
         y="0"
         x="0"
         width="5"
         height="2"
         id="rect467" />
    </clipPath>
    <clipPath
       id="clip9">
      <path
         inkscape:connector-curvature="0"
         d="m 0.652344,0.902344 h 3.78125 v 0.375 h -3.78125 z m 0,0"
         id="path464" />
    </clipPath>
    <clipPath
       id="clipPath25721">
      <rect
         y="0"
         x="0"
         width="5"
         height="2"
         id="rect25719" />
    </clipPath>
    <clipPath
       id="clipPath25725">
      <path
         inkscape:connector-curvature="0"
         d="m 0.652344,0.902344 h 3.78125 v 0.375 h -3.78125 z m 0,0"
         id="path25723" />
    </clipPath>
    <clipPath
       id="clip10">
      <rect
         y="0"
         x="0"
         width="5"
         height="2"
         id="rect478" />
    </clipPath>
    <clipPath
       id="clip11">
      <path
         inkscape:connector-curvature="0"
         d="m 0.652344,0.902344 h 3.78125 v 0.375 h -3.78125 z m 0,0"
         id="path475" />
    </clipPath>
    <clipPath
       id="clipPath25733">
      <rect
         y="0"
         x="0"
         width="5"
         height="2"
         id="rect25731" />
    </clipPath>
    <clipPath
       id="clipPath25737">
      <path
         inkscape:connector-curvature="0"
         d="m 0.652344,0.902344 h 3.78125 v 0.375 h -3.78125 z m 0,0"
         id="path25735" />
    </clipPath>
    <clipPath
       id="clip12">
      <path
         inkscape:connector-curvature="0"
         d="m 0.652344,2 h 3.78125 v 1 h -3.78125 z m 0,0"
         id="path486" />
    </clipPath>
    <clipPath
       id="clip13">
      <rect
         y="0"
         x="0"
         width="5"
         height="1"
         id="rect492" />
    </clipPath>
    <clipPath
       id="clip14">
      <path
         inkscape:connector-curvature="0"
         d="m 0.652344,0.136719 h 3.78125 v 0.375 h -3.78125 z m 0,0"
         id="path489" />
    </clipPath>
    <clipPath
       id="clipPath25747">
      <rect
         y="0"
         x="0"
         width="5"
         height="1"
         id="rect25745" />
    </clipPath>
    <clipPath
       id="clipPath25751">
      <path
         inkscape:connector-curvature="0"
         d="m 0.652344,0.136719 h 3.78125 v 0.375 h -3.78125 z m 0,0"
         id="path25749" />
    </clipPath>
    <clipPath
       id="clip15">
      <rect
         y="0"
         x="0"
         width="5"
         height="1"
         id="rect503" />
    </clipPath>
    <clipPath
       id="clip16">
      <path
         inkscape:connector-curvature="0"
         d="m 0.652344,0.136719 h 3.78125 v 0.375 h -3.78125 z m 0,0"
         id="path500" />
    </clipPath>
    <clipPath
       id="clipPath25759">
      <rect
         y="0"
         x="0"
         width="5"
         height="1"
         id="rect25757" />
    </clipPath>
    <clipPath
       id="clipPath25763">
      <path
         inkscape:connector-curvature="0"
         d="m 0.652344,0.136719 h 3.78125 v 0.375 h -3.78125 z m 0,0"
         id="path25761" />
    </clipPath>
    <clipPath
       id="clip17">
      <path
         inkscape:connector-curvature="0"
         d="m 0.652344,1 h 3.78125 v 1 h -3.78125 z m 0,0"
         id="path511" />
    </clipPath>
    <clipPath
       id="clip18">
      <rect
         y="0"
         x="0"
         width="5"
         height="1"
         id="rect517" />
    </clipPath>
    <clipPath
       id="clip19">
      <path
         inkscape:connector-curvature="0"
         d="m 0.652344,0.371094 h 3.78125 v 0.375 h -3.78125 z m 0,0"
         id="path514" />
    </clipPath>
    <clipPath
       id="clipPath25773">
      <rect
         y="0"
         x="0"
         width="5"
         height="1"
         id="rect25771" />
    </clipPath>
    <clipPath
       id="clipPath25777">
      <path
         inkscape:connector-curvature="0"
         d="m 0.652344,0.371094 h 3.78125 v 0.375 h -3.78125 z m 0,0"
         id="path25775" />
    </clipPath>
    <clipPath
       id="clip20">
      <rect
         y="0"
         x="0"
         width="5"
         height="1"
         id="rect528" />
    </clipPath>
    <clipPath
       id="clip21">
      <path
         inkscape:connector-curvature="0"
         d="m 0.652344,0.371094 h 3.78125 v 0.375 h -3.78125 z m 0,0"
         id="path525" />
    </clipPath>
    <clipPath
       id="clipPath25785">
      <rect
         y="0"
         x="0"
         width="5"
         height="1"
         id="rect25783" />
    </clipPath>
    <clipPath
       id="clipPath25789">
      <path
         inkscape:connector-curvature="0"
         d="m 0.652344,0.371094 h 3.78125 v 0.375 h -3.78125 z m 0,0"
         id="path25787" />
    </clipPath>
    <clipPath
       id="clip22">
      <path
         inkscape:connector-curvature="0"
         d="m 0.652344,0.605469 h 3.78125 V 1 h -3.78125 z m 0,0"
         id="path536" />
    </clipPath>
    <clipPath
       id="clip23">
      <rect
         y="0"
         x="0"
         width="5"
         height="1"
         id="rect542" />
    </clipPath>
    <clipPath
       id="clip24">
      <path
         inkscape:connector-curvature="0"
         d="m 0.652344,0.605469 h 3.78125 v 0.375 h -3.78125 z m 0,0"
         id="path539" />
    </clipPath>
    <clipPath
       id="clipPath25799">
      <rect
         y="0"
         x="0"
         width="5"
         height="1"
         id="rect25797" />
    </clipPath>
    <clipPath
       id="clipPath25803">
      <path
         inkscape:connector-curvature="0"
         d="m 0.652344,0.605469 h 3.78125 v 0.375 h -3.78125 z m 0,0"
         id="path25801" />
    </clipPath>
    <clipPath
       id="clip25">
      <rect
         y="0"
         x="0"
         width="5"
         height="1"
         id="rect553" />
    </clipPath>
    <clipPath
       id="clip26">
      <path
         inkscape:connector-curvature="0"
         d="m 0.652344,0.605469 h 3.78125 v 0.375 h -3.78125 z m 0,0"
         id="path550" />
    </clipPath>
    <clipPath
       id="clipPath25811">
      <rect
         y="0"
         x="0"
         width="5"
         height="1"
         id="rect25809" />
    </clipPath>
    <clipPath
       id="clipPath25815">
      <path
         inkscape:connector-curvature="0"
         d="m 0.652344,0.605469 h 3.78125 v 0.375 h -3.78125 z m 0,0"
         id="path25813" />
    </clipPath>
    <clipPath
       id="clipPath25819">
      <rect
         y="0"
         x="0"
         width="5"
         height="5"
         id="rect25817" />
    </clipPath>
    <clipPath
       id="clipPath25823">
      <path
         inkscape:connector-curvature="0"
         d="m 0.652344,3 h 3.78125 v 1.042969 h -3.78125 z m 0,0"
         id="path25821" />
    </clipPath>
    <clipPath
       id="clipPath25827">
      <rect
         y="0"
         x="0"
         width="5"
         height="2"
         id="rect25825" />
    </clipPath>
    <clipPath
       id="clipPath25831">
      <path
         inkscape:connector-curvature="0"
         d="m 0.652344,0.667969 h 3.78125 v 0.375 h -3.78125 z m 0,0"
         id="path25829" />
    </clipPath>
    <clipPath
       id="clipPath25835">
      <rect
         y="0"
         x="0"
         width="5"
         height="2"
         id="rect25833" />
    </clipPath>
    <clipPath
       id="clipPath25839">
      <path
         inkscape:connector-curvature="0"
         d="m 0.652344,0.667969 h 3.78125 v 0.375 h -3.78125 z m 0,0"
         id="path25837" />
    </clipPath>
    <clipPath
       id="clipPath25843">
      <path
         inkscape:connector-curvature="0"
         d="m 0.652344,2 h 3.78125 v 2 h -3.78125 z m 0,0"
         id="path25841" />
    </clipPath>
    <clipPath
       id="clipPath25847">
      <rect
         y="0"
         x="0"
         width="5"
         height="2"
         id="rect25845" />
    </clipPath>
    <clipPath
       id="clipPath25851">
      <path
         inkscape:connector-curvature="0"
         d="m 0.652344,0.902344 h 3.78125 v 0.375 h -3.78125 z m 0,0"
         id="path25849" />
    </clipPath>
    <clipPath
       id="clipPath25855">
      <rect
         y="0"
         x="0"
         width="5"
         height="2"
         id="rect25853" />
    </clipPath>
    <clipPath
       id="clipPath25859">
      <path
         inkscape:connector-curvature="0"
         d="m 0.652344,0.902344 h 3.78125 v 0.375 h -3.78125 z m 0,0"
         id="path25857" />
    </clipPath>
    <clipPath
       id="clipPath25863">
      <path
         inkscape:connector-curvature="0"
         d="m 0.652344,2 h 3.78125 v 1 h -3.78125 z m 0,0"
         id="path25861" />
    </clipPath>
    <clipPath
       id="clipPath25867">
      <rect
         y="0"
         x="0"
         width="5"
         height="1"
         id="rect25865" />
    </clipPath>
    <clipPath
       id="clipPath25871">
      <path
         inkscape:connector-curvature="0"
         d="m 0.652344,0.136719 h 3.78125 v 0.375 h -3.78125 z m 0,0"
         id="path25869" />
    </clipPath>
    <clipPath
       id="clipPath25875">
      <rect
         y="0"
         x="0"
         width="5"
         height="1"
         id="rect25873" />
    </clipPath>
    <clipPath
       id="clipPath25879">
      <path
         inkscape:connector-curvature="0"
         d="m 0.652344,0.136719 h 3.78125 v 0.375 h -3.78125 z m 0,0"
         id="path25877" />
    </clipPath>
    <clipPath
       id="clipPath25883">
      <path
         inkscape:connector-curvature="0"
         d="m 0.652344,1 h 3.78125 v 1 h -3.78125 z m 0,0"
         id="path25881" />
    </clipPath>
    <clipPath
       id="clipPath25887">
      <rect
         y="0"
         x="0"
         width="5"
         height="1"
         id="rect25885" />
    </clipPath>
    <clipPath
       id="clipPath25891">
      <path
         inkscape:connector-curvature="0"
         d="m 0.652344,0.371094 h 3.78125 v 0.375 h -3.78125 z m 0,0"
         id="path25889" />
    </clipPath>
    <clipPath
       id="clipPath25895">
      <rect
         y="0"
         x="0"
         width="5"
         height="1"
         id="rect25893" />
    </clipPath>
    <clipPath
       id="clipPath25899">
      <path
         inkscape:connector-curvature="0"
         d="m 0.652344,0.371094 h 3.78125 v 0.375 h -3.78125 z m 0,0"
         id="path25897" />
    </clipPath>
    <clipPath
       id="clipPath25903">
      <path
         inkscape:connector-curvature="0"
         d="m 0.652344,0.605469 h 3.78125 V 1 h -3.78125 z m 0,0"
         id="path25901" />
    </clipPath>
    <clipPath
       id="clipPath25907">
      <rect
         y="0"
         x="0"
         width="5"
         height="1"
         id="rect25905" />
    </clipPath>
    <clipPath
       id="clipPath25911">
      <path
         inkscape:connector-curvature="0"
         d="m 0.652344,0.605469 h 3.78125 v 0.375 h -3.78125 z m 0,0"
         id="path25909" />
    </clipPath>
    <clipPath
       id="clipPath25915">
      <rect
         y="0"
         x="0"
         width="5"
         height="1"
         id="rect25913" />
    </clipPath>
    <clipPath
       id="clipPath25919">
      <path
         inkscape:connector-curvature="0"
         d="m 0.652344,0.605469 h 3.78125 v 0.375 h -3.78125 z m 0,0"
         id="path25917" />
    </clipPath>
  </defs>
  <sodipodi:namedview
     id="base"
     pagecolor="#ffffff"
     bordercolor="#666666"
     borderopacity="1.0"
     inkscape:pageopacity="0.0"
     inkscape:pageshadow="2"
     inkscape:zoom="28.687777"
     inkscape:cx="7.8823626"
     inkscape:cy="6.238671"
     inkscape:document-units="mm"
     inkscape:current-layer="layer1"
     showgrid="false"
     inkscape:window-width="691"
     inkscape:window-height="712"
     inkscape:window-x="674"
     inkscape:window-y="27"
     inkscape:window-maximized="0"
     showguides="true"
     inkscape:guide-bbox="true"
     gridtolerance="10"
     guidetolerance="2">
    <inkscape:grid
       type="xygrid"
       id="grid13828" />
    <sodipodi:guide
       position="0.13043093,3.8477124"
       orientation="1,0"
       id="guide20533"
       inkscape:locked="false" />
    <sodipodi:guide
       position="1.9173346,3.6129367"
       orientation="0,1"
       id="guide20535"
       inkscape:locked="false" />
    <sodipodi:guide
       position="-0.092228593,4.0580581"
       orientation="-0.70710678,0.70710678"
       id="guide27663"
       inkscape:locked="false" />
  </sodipodi:namedview>
  <metadata
     id="metadata13823">
    <rdf:RDF>
      <cc:Work
         rdf:about="">
        <dc:format>image/svg+xml</dc:format>
        <dc:type
           rdf:resource="http://purl.org/dc/dcmitype/StillImage" />
        <dc:title></dc:title>
      </cc:Work>
    </rdf:RDF>
  </metadata>
  <g
     inkscape:label="Layer 1"
     inkscape:groupmode="layer"
     id="layer1"
     transform="translate(0,-293.25)">
    <g
       transform="matrix(0.09333912,0,0,0.09333912,0.9751432,398.26883)"
       clip-path="url(#clip1)"
       id="use9161">
      <g
         style="clip-rule:nonzero"
         id="g26358"
         clip-path="url(#clip2)">
        <g
           id="g26350"
           clip-path="url(#clip3)"
           transform="matrix(0.26458333,0,0,0.26458333,0,296.25)">
          <g
             clip-path="url(#clip4)"
             id="g26348"
             style="clip-rule:nonzero">
            <path
               style="fill:#000000;fill-opacity:1;fill-rule:nonzero;stroke:none"
               d="m 4.433594,1.042969 h -3.78125 v -0.375 h 3.78125 z m 0,0"
               id="path26346"
               inkscape:connector-curvature="0" />
          </g>
        </g>
        <g
           id="g26356"
           clip-path="url(#clip5)"
           transform="matrix(0.26458333,0,0,0.26458333,0,296.25)">
          <g
             clip-path="url(#clip6)"
             id="g26354"
             style="clip-rule:nonzero">
            <path
               style="fill:#211e1e;fill-opacity:1;fill-rule:nonzero;stroke:none"
               d="m 4.433594,1.042969 h -3.78125 v -0.375 h 3.78125 z m 0,0"
               id="path26352"
               inkscape:connector-curvature="0" />
          </g>
        </g>
      </g>
      <g
         style="clip-rule:nonzero"
         id="g26372"
         clip-path="url(#clip7)">
        <g
           id="g26364"
           clip-path="url(#clip8)"
           transform="matrix(0.26458333,0,0,0.26458333,0,295.25)">
          <g
             clip-path="url(#clip9)"
             id="g26362"
             style="clip-rule:nonzero">
            <path
               style="fill:#000000;fill-opacity:1;fill-rule:nonzero;stroke:none"
               d="m 4.433594,1.277344 h -3.78125 v -0.375 h 3.78125 z m 0,0"
               id="path26360"
               inkscape:connector-curvature="0" />
          </g>
        </g>
        <g
           id="g26370"
           clip-path="url(#clip10)"
           transform="matrix(0.26458333,0,0,0.26458333,0,295.25)">
          <g
             clip-path="url(#clip11)"
             id="g26368"
             style="clip-rule:nonzero">
            <path
               style="fill:#211e1e;fill-opacity:1;fill-rule:nonzero;stroke:none"
               d="m 4.433594,1.277344 h -3.78125 v -0.375 h 3.78125 z m 0,0"
               id="path26366"
               inkscape:connector-curvature="0" />
          </g>
        </g>
      </g>
      <g
         style="clip-rule:nonzero"
         id="g26386"
         clip-path="url(#clip12)">
        <g
           id="g26378"
           clip-path="url(#clip13)"
           transform="matrix(0.26458333,0,0,0.26458333,0,295.25)">
          <g
             clip-path="url(#clip14)"
             id="g26376"
             style="clip-rule:nonzero">
            <path
               style="fill:#000000;fill-opacity:1;fill-rule:nonzero;stroke:none"
               d="m 4.433594,0.511719 h -3.78125 v -0.375 h 3.78125 z m 0,0"
               id="path26374"
               inkscape:connector-curvature="0" />
          </g>
        </g>
        <g
           id="g26384"
           clip-path="url(#clip15)"
           transform="matrix(0.26458333,0,0,0.26458333,0,295.25)">
          <g
             clip-path="url(#clip16)"
             id="g26382"
             style="clip-rule:nonzero">
            <path
               style="fill:#211e1e;fill-opacity:1;fill-rule:nonzero;stroke:none"
               d="m 4.433594,0.511719 h -3.78125 v -0.375 h 3.78125 z m 0,0"
               id="path26380"
               inkscape:connector-curvature="0" />
          </g>
        </g>
      </g>
      <g
         style="clip-rule:nonzero"
         id="g26400"
         clip-path="url(#clip17)">
        <g
           id="g26392"
           clip-path="url(#clip18)"
           transform="matrix(0.26458333,0,0,0.26458333,0,294.25)">
          <g
             clip-path="url(#clip19)"
             id="g26390"
             style="clip-rule:nonzero">
            <path
               style="fill:#000000;fill-opacity:1;fill-rule:nonzero;stroke:none"
               d="m 4.433594,0.746094 h -3.78125 v -0.375 h 3.78125 z m 0,0"
               id="path26388"
               inkscape:connector-curvature="0" />
          </g>
        </g>
        <g
           id="g26398"
           clip-path="url(#clip20)"
           transform="matrix(0.26458333,0,0,0.26458333,0,294.25)">
          <g
             clip-path="url(#clip21)"
             id="g26396"
             style="clip-rule:nonzero">
            <path
               style="fill:#211e1e;fill-opacity:1;fill-rule:nonzero;stroke:none"
               d="m 4.433594,0.746094 h -3.78125 v -0.375 h 3.78125 z m 0,0"
               id="path26394"
               inkscape:connector-curvature="0" />
          </g>
        </g>
      </g>
      <g
         style="clip-rule:nonzero"
         id="g26414"
         clip-path="url(#clip22)">
        <g
           id="g26406"
           clip-path="url(#clip23)"
           transform="matrix(0.26458333,0,0,0.26458333,0,293.25)">
          <g
             clip-path="url(#clip24)"
             id="g26404"
             style="clip-rule:nonzero">
            <path
               style="fill:#000000;fill-opacity:1;fill-rule:nonzero;stroke:none"
               d="m 4.433594,0.980469 h -3.78125 v -0.375 h 3.78125 z m 0,0"
               id="path26402"
               inkscape:connector-curvature="0" />
          </g>
        </g>
        <g
           id="g26412"
           clip-path="url(#clip25)"
           transform="matrix(0.26458333,0,0,0.26458333,0,293.25)">
          <g
             clip-path="url(#clip26)"
             id="g26410"
             style="clip-rule:nonzero">
            <path
               style="fill:#211e1e;fill-opacity:1;fill-rule:nonzero;stroke:none"
               d="m 4.433594,0.980469 h -3.78125 v -0.375 h 3.78125 z m 0,0"
               id="path26408"
               inkscape:connector-curvature="0" />
          </g>
        </g>
      </g>
    </g>
    <path
       inkscape:connector-curvature="0"
       id="path13075"
       d="m 3.2071332,296.85322 c 0.2301346,0 0.4175479,-0.18742 0.4175479,-0.41755 v -2.65272 c 0,-0.23014 -0.1874133,-0.41755 -0.4175479,-0.41755 H 0.55441031 c -0.23013104,0 -0.41616487,0.18741 -0.41616487,0.41755 v 2.65272 c 0,0.23013 0.18603383,0.41755 0.41616487,0.41755 z m 0,0"
       style="fill:#211e1e;fill-opacity:1;fill-rule:nonzero;stroke:none;stroke-width:0.35277775" />
    <path
       inkscape:connector-curvature="0"
       id="path13077"
       d="m 0.55441031,293.43706 c -0.19154774,0 -0.34588801,0.15434 -0.34588801,0.34589 v 2.65272 c 0,0.19155 0.15434027,0.34589 0.34588801,0.34589 H 3.2071332 c 0.1915477,0 0.3458882,-0.15434 0.3458882,-0.34589 v -2.65272 c 0,-0.19155 -0.1543405,-0.34589 -0.3458882,-0.34589 z m 0,0"
       style="fill:#ffffff;fill-opacity:1;fill-rule:nonzero;stroke:none;stroke-width:0.35277775" />
    <path
       inkscape:connector-curvature="0"
       id="path13079"
       d="m 1.447379,294.34519 c 0.1502057,0 0.2700972,-0.12127 0.2700972,-0.2701 0,-0.14883 -0.1198915,-0.26872 -0.2700972,-0.26872 -0.1488264,0 -0.2687179,0.11989 -0.2687179,0.26872 0,0.14883 0.1198915,0.2701 0.2687179,0.2701"
       style="fill:#211e1e;fill-opacity:1;fill-rule:nonzero;stroke:none;stroke-width:0.35277775" />
    <path
       inkscape:connector-curvature="0"
       id="path13081"
       d="m 0.45381573,295.81831 c 0.0633871,0 0.12402256,-0.0138 0.17776473,-0.0386 0.0565009,-0.0262 0.11851217,-0.0413 0.184658,-0.0413 0.0647665,0 0.12815713,0.0152 0.18327863,0.0413 0.055122,0.0248 0.11575701,0.0386 0.18052341,0.0386 0.063391,0 0.1240225,-0.0138 0.1777682,-0.0386 0.056497,-0.0262 0.1185087,-0.0413 0.1846545,-0.0413 0.066146,0 0.1281606,0.0152 0.184658,0.0413 0.053746,0.0248 0.115757,0.0386 0.1791441,0.0386 0.063391,0 0.124026,-0.0138 0.1777682,-0.0386 0.056501,-0.0262 0.119888,-0.0413 0.184658,-0.0413 0.066146,0 0.1281571,0.0152 0.184658,0.0413 0.055121,0.0248 0.1157534,0.0386 0.1791441,0.0386 0.063391,0 0.1240225,-0.0138 0.1791441,-0.0386 0.055121,-0.0262 0.1185122,-0.0413 0.1832785,-0.0413 0.056501,0 0.1116224,0.011 0.1598544,0.0303 0.079925,-0.0882 0.1295328,-0.20394 0.1295328,-0.33072 0,-0.27286 -0.2191067,-0.49196 -0.4905798,-0.49196 l -0.055122,0.005 c -0.060636,0.24529 -0.304546,0.25631 -0.304546,0.25631 l -1.121724,-10e-4 -0.093705,-0.0551 0.2259965,-0.37896 0.2480487,0.14332 c 0.1474469,0.0965 0.2246171,-0.0386 0.2246171,-0.0386 l 0.2480486,-0.40514 c 0.1074879,-0.17501 -0.1212674,-0.31557 -0.2273759,-0.13918 l -0.1736336,0.28249 -0.4134097,-0.22875 c -0.2852561,-0.15848 -0.40652341,0.10473 -0.40652341,0.10473 l -0.32521528,0.55673 c -0.0551215,0.11438 -0.005503,0.16399 -0.005503,0.16399 h -0.1598503 z m 0,0"
       style="fill:#211e1e;fill-opacity:1;fill-rule:nonzero;stroke:none;stroke-width:0.35277775" />
    <path
       inkscape:connector-curvature="0"
       id="path13083"
       d="m 3.3587183,296.35437 c -0.06339,0 -0.1240224,-0.0138 -0.1791441,-0.0386 -0.055121,-0.0262 -0.1185122,-0.0413 -0.184658,-0.0413 -0.064766,0 -0.128157,0.0152 -0.1832785,0.0413 -0.055122,0.0248 -0.1157535,0.0386 -0.1791441,0.0386 -0.063391,0 -0.1240226,-0.0138 -0.1791441,-0.0386 -0.056501,-0.0262 -0.1185122,-0.0413 -0.184658,-0.0413 -0.06477,0 -0.1281571,0.0152 -0.184658,0.0413 -0.053742,0.0248 -0.1143776,0.0386 -0.1777682,0.0386 -0.063387,0 -0.1253984,-0.0138 -0.1791441,-0.0386 -0.056497,-0.0262 -0.1185122,-0.0413 -0.184658,-0.0413 -0.066146,0 -0.1281571,0.0152 -0.1846545,0.0413 -0.053746,0.0248 -0.1143776,0.0386 -0.1777682,0.0386 -0.064766,0 -0.1254019,-0.0138 -0.18052341,-0.0386 -0.055122,-0.0262 -0.1171328,-0.0413 -0.18327863,-0.0413 -0.0661458,0 -0.12815713,0.0152 -0.184658,0.0413 -0.0537422,0.0248 -0.11575344,0.0386 -0.17914408,0.0386 v -0.26734 c 0.0633906,0 0.12540191,-0.0152 0.17914408,-0.0386 0.0565009,-0.0262 0.11851217,-0.0413 0.184658,-0.0413 0.0661458,0 0.12815713,0.0152 0.18327863,0.0413 0.055122,0.0234 0.11575701,0.0386 0.18052341,0.0386 0.063391,0 0.1240225,-0.0152 0.1777682,-0.0386 0.056497,-0.0262 0.1185087,-0.0413 0.1846545,-0.0413 0.066146,0 0.1281606,0.0152 0.184658,0.0413 0.053746,0.0234 0.115757,0.0386 0.1791441,0.0386 0.063391,0 0.124026,-0.0152 0.1777682,-0.0386 0.056501,-0.0262 0.119888,-0.0413 0.184658,-0.0413 0.066146,0 0.1281571,0.0152 0.184658,0.0413 0.055121,0.0234 0.1157534,0.0386 0.1791441,0.0386 0.063391,0 0.1240225,-0.0152 0.1791441,-0.0386 0.055121,-0.0262 0.1185122,-0.0413 0.1832785,-0.0413 0.066146,0 0.1295366,0.0152 0.184658,0.0413 0.055122,0.0234 0.1157536,0.0386 0.1791441,0.0386 z m 0,0"
       style="fill:#211e1e;fill-opacity:1;fill-rule:nonzero;stroke:none;stroke-width:0.35277775" />
  </g>
</svg>
