<?xml version="1.0" encoding="UTF-8" standalone="no"?>
<!-- Created with Inkscape (http://www.inkscape.org/) -->

<svg
   xmlns:dc="http://purl.org/dc/elements/1.1/"
   xmlns:cc="http://creativecommons.org/ns#"
   xmlns:rdf="http://www.w3.org/1999/02/22-rdf-syntax-ns#"
   xmlns:svg="http://www.w3.org/2000/svg"
   xmlns="http://www.w3.org/2000/svg"
   xmlns:sodipodi="http://sodipodi.sourceforge.net/DTD/sodipodi-0.dtd"
   xmlns:inkscape="http://www.inkscape.org/namespaces/inkscape"
   width="3.75mm"
   height="3.75mm"
   viewBox="0 0 3.75 3.75"
   version="1.1"
   id="svg13826"
   inkscape:version="0.92.1 r15371"
   sodipodi:docname="life_jacket_dark.svg">
  <defs
     id="defs13820">
    <clipPath
       id="clip1">
      <rect
         y="0"
         x="0"
         width="5"
         height="5"
         id="rect561" />
    </clipPath>
    <clipPath
       id="clip2">
      <path
         inkscape:connector-curvature="0"
         d="m 0.652344,3 h 3.78125 v 1.042969 h -3.78125 z m 0,0"
         id="path436" />
    </clipPath>
    <clipPath
       id="clip3">
      <rect
         y="0"
         x="0"
         width="5"
         height="2"
         id="rect442" />
    </clipPath>
    <clipPath
       id="clip4">
      <path
         inkscape:connector-curvature="0"
         d="m 0.652344,0.667969 h 3.78125 v 0.375 h -3.78125 z m 0,0"
         id="path439" />
    </clipPath>
    <clipPath
       id="clipPath25695">
      <rect
         y="0"
         x="0"
         width="5"
         height="2"
         id="rect25693" />
    </clipPath>
    <clipPath
       id="clipPath25699">
      <path
         inkscape:connector-curvature="0"
         d="m 0.652344,0.667969 h 3.78125 v 0.375 h -3.78125 z m 0,0"
         id="path25697" />
    </clipPath>
    <clipPath
       id="clip5">
      <rect
         y="0"
         x="0"
         width="5"
         height="2"
         id="rect453" />
    </clipPath>
    <clipPath
       id="clip6">
      <path
         inkscape:connector-curvature="0"
         d="m 0.652344,0.667969 h 3.78125 v 0.375 h -3.78125 z m 0,0"
         id="path450" />
    </clipPath>
    <clipPath
       id="clipPath25707">
      <rect
         y="0"
         x="0"
         width="5"
         height="2"
         id="rect25705" />
    </clipPath>
    <clipPath
       id="clipPath25711">
      <path
         inkscape:connector-curvature="0"
         d="m 0.652344,0.667969 h 3.78125 v 0.375 h -3.78125 z m 0,0"
         id="path25709" />
    </clipPath>
    <clipPath
       id="clip7">
      <path
         inkscape:connector-curvature="0"
         d="m 0.652344,2 h 3.78125 v 2 h -3.78125 z m 0,0"
         id="path461" />
    </clipPath>
    <clipPath
       id="clip8">
      <rect
         y="0"
         x="0"
         width="5"
         height="2"
         id="rect467" />
    </clipPath>
    <clipPath
       id="clip9">
      <path
         inkscape:connector-curvature="0"
         d="m 0.652344,0.902344 h 3.78125 v 0.375 h -3.78125 z m 0,0"
         id="path464" />
    </clipPath>
    <clipPath
       id="clipPath25721">
      <rect
         y="0"
         x="0"
         width="5"
         height="2"
         id="rect25719" />
    </clipPath>
    <clipPath
       id="clipPath25725">
      <path
         inkscape:connector-curvature="0"
         d="m 0.652344,0.902344 h 3.78125 v 0.375 h -3.78125 z m 0,0"
         id="path25723" />
    </clipPath>
    <clipPath
       id="clip10">
      <rect
         y="0"
         x="0"
         width="5"
         height="2"
         id="rect478" />
    </clipPath>
    <clipPath
       id="clip11">
      <path
         inkscape:connector-curvature="0"
         d="m 0.652344,0.902344 h 3.78125 v 0.375 h -3.78125 z m 0,0"
         id="path475" />
    </clipPath>
    <clipPath
       id="clipPath25733">
      <rect
         y="0"
         x="0"
         width="5"
         height="2"
         id="rect25731" />
    </clipPath>
    <clipPath
       id="clipPath25737">
      <path
         inkscape:connector-curvature="0"
         d="m 0.652344,0.902344 h 3.78125 v 0.375 h -3.78125 z m 0,0"
         id="path25735" />
    </clipPath>
    <clipPath
       id="clip12">
      <path
         inkscape:connector-curvature="0"
         d="m 0.652344,2 h 3.78125 v 1 h -3.78125 z m 0,0"
         id="path486" />
    </clipPath>
    <clipPath
       id="clip13">
      <rect
         y="0"
         x="0"
         width="5"
         height="1"
         id="rect492" />
    </clipPath>
    <clipPath
       id="clip14">
      <path
         inkscape:connector-curvature="0"
         d="m 0.652344,0.136719 h 3.78125 v 0.375 h -3.78125 z m 0,0"
         id="path489" />
    </clipPath>
    <clipPath
       id="clipPath25747">
      <rect
         y="0"
         x="0"
         width="5"
         height="1"
         id="rect25745" />
    </clipPath>
    <clipPath
       id="clipPath25751">
      <path
         inkscape:connector-curvature="0"
         d="m 0.652344,0.136719 h 3.78125 v 0.375 h -3.78125 z m 0,0"
         id="path25749" />
    </clipPath>
    <clipPath
       id="clip15">
      <rect
         y="0"
         x="0"
         width="5"
         height="1"
         id="rect503" />
    </clipPath>
    <clipPath
       id="clip16">
      <path
         inkscape:connector-curvature="0"
         d="m 0.652344,0.136719 h 3.78125 v 0.375 h -3.78125 z m 0,0"
         id="path500" />
    </clipPath>
    <clipPath
       id="clipPath25759">
      <rect
         y="0"
         x="0"
         width="5"
         height="1"
         id="rect25757" />
    </clipPath>
    <clipPath
       id="clipPath25763">
      <path
         inkscape:connector-curvature="0"
         d="m 0.652344,0.136719 h 3.78125 v 0.375 h -3.78125 z m 0,0"
         id="path25761" />
    </clipPath>
    <clipPath
       id="clip17">
      <path
         inkscape:connector-curvature="0"
         d="m 0.652344,1 h 3.78125 v 1 h -3.78125 z m 0,0"
         id="path511" />
    </clipPath>
    <clipPath
       id="clip18">
      <rect
         y="0"
         x="0"
         width="5"
         height="1"
         id="rect517" />
    </clipPath>
    <clipPath
       id="clip19">
      <path
         inkscape:connector-curvature="0"
         d="m 0.652344,0.371094 h 3.78125 v 0.375 h -3.78125 z m 0,0"
         id="path514" />
    </clipPath>
    <clipPath
       id="clipPath25773">
      <rect
         y="0"
         x="0"
         width="5"
         height="1"
         id="rect25771" />
    </clipPath>
    <clipPath
       id="clipPath25777">
      <path
         inkscape:connector-curvature="0"
         d="m 0.652344,0.371094 h 3.78125 v 0.375 h -3.78125 z m 0,0"
         id="path25775" />
    </clipPath>
    <clipPath
       id="clip20">
      <rect
         y="0"
         x="0"
         width="5"
         height="1"
         id="rect528" />
    </clipPath>
    <clipPath
       id="clip21">
      <path
         inkscape:connector-curvature="0"
         d="m 0.652344,0.371094 h 3.78125 v 0.375 h -3.78125 z m 0,0"
         id="path525" />
    </clipPath>
    <clipPath
       id="clipPath25785">
      <rect
         y="0"
         x="0"
         width="5"
         height="1"
         id="rect25783" />
    </clipPath>
    <clipPath
       id="clipPath25789">
      <path
         inkscape:connector-curvature="0"
         d="m 0.652344,0.371094 h 3.78125 v 0.375 h -3.78125 z m 0,0"
         id="path25787" />
    </clipPath>
    <clipPath
       id="clip22">
      <path
         inkscape:connector-curvature="0"
         d="m 0.652344,0.605469 h 3.78125 V 1 h -3.78125 z m 0,0"
         id="path536" />
    </clipPath>
    <clipPath
       id="clip23">
      <rect
         y="0"
         x="0"
         width="5"
         height="1"
         id="rect542" />
    </clipPath>
    <clipPath
       id="clip24">
      <path
         inkscape:connector-curvature="0"
         d="m 0.652344,0.605469 h 3.78125 v 0.375 h -3.78125 z m 0,0"
         id="path539" />
    </clipPath>
    <clipPath
       id="clipPath25799">
      <rect
         y="0"
         x="0"
         width="5"
         height="1"
         id="rect25797" />
    </clipPath>
    <clipPath
       id="clipPath25803">
      <path
         inkscape:connector-curvature="0"
         d="m 0.652344,0.605469 h 3.78125 v 0.375 h -3.78125 z m 0,0"
         id="path25801" />
    </clipPath>
    <clipPath
       id="clip25">
      <rect
         y="0"
         x="0"
         width="5"
         height="1"
         id="rect553" />
    </clipPath>
    <clipPath
       id="clip26">
      <path
         inkscape:connector-curvature="0"
         d="m 0.652344,0.605469 h 3.78125 v 0.375 h -3.78125 z m 0,0"
         id="path550" />
    </clipPath>
    <clipPath
       id="clipPath25811">
      <rect
         y="0"
         x="0"
         width="5"
         height="1"
         id="rect25809" />
    </clipPath>
    <clipPath
       id="clipPath25815">
      <path
         inkscape:connector-curvature="0"
         d="m 0.652344,0.605469 h 3.78125 v 0.375 h -3.78125 z m 0,0"
         id="path25813" />
    </clipPath>
    <clipPath
       id="clipPath25819">
      <rect
         y="0"
         x="0"
         width="5"
         height="5"
         id="rect25817" />
    </clipPath>
    <clipPath
       id="clipPath25823">
      <path
         inkscape:connector-curvature="0"
         d="m 0.652344,3 h 3.78125 v 1.042969 h -3.78125 z m 0,0"
         id="path25821" />
    </clipPath>
    <clipPath
       id="clipPath25827">
      <rect
         y="0"
         x="0"
         width="5"
         height="2"
         id="rect25825" />
    </clipPath>
    <clipPath
       id="clipPath25831">
      <path
         inkscape:connector-curvature="0"
         d="m 0.652344,0.667969 h 3.78125 v 0.375 h -3.78125 z m 0,0"
         id="path25829" />
    </clipPath>
    <clipPath
       id="clipPath25835">
      <rect
         y="0"
         x="0"
         width="5"
         height="2"
         id="rect25833" />
    </clipPath>
    <clipPath
       id="clipPath25839">
      <path
         inkscape:connector-curvature="0"
         d="m 0.652344,0.667969 h 3.78125 v 0.375 h -3.78125 z m 0,0"
         id="path25837" />
    </clipPath>
    <clipPath
       id="clipPath25843">
      <path
         inkscape:connector-curvature="0"
         d="m 0.652344,2 h 3.78125 v 2 h -3.78125 z m 0,0"
         id="path25841" />
    </clipPath>
    <clipPath
       id="clipPath25847">
      <rect
         y="0"
         x="0"
         width="5"
         height="2"
         id="rect25845" />
    </clipPath>
    <clipPath
       id="clipPath25851">
      <path
         inkscape:connector-curvature="0"
         d="m 0.652344,0.902344 h 3.78125 v 0.375 h -3.78125 z m 0,0"
         id="path25849" />
    </clipPath>
    <clipPath
       id="clipPath25855">
      <rect
         y="0"
         x="0"
         width="5"
         height="2"
         id="rect25853" />
    </clipPath>
    <clipPath
       id="clipPath25859">
      <path
         inkscape:connector-curvature="0"
         d="m 0.652344,0.902344 h 3.78125 v 0.375 h -3.78125 z m 0,0"
         id="path25857" />
    </clipPath>
    <clipPath
       id="clipPath25863">
      <path
         inkscape:connector-curvature="0"
         d="m 0.652344,2 h 3.78125 v 1 h -3.78125 z m 0,0"
         id="path25861" />
    </clipPath>
    <clipPath
       id="clipPath25867">
      <rect
         y="0"
         x="0"
         width="5"
         height="1"
         id="rect25865" />
    </clipPath>
    <clipPath
       id="clipPath25871">
      <path
         inkscape:connector-curvature="0"
         d="m 0.652344,0.136719 h 3.78125 v 0.375 h -3.78125 z m 0,0"
         id="path25869" />
    </clipPath>
    <clipPath
       id="clipPath25875">
      <rect
         y="0"
         x="0"
         width="5"
         height="1"
         id="rect25873" />
    </clipPath>
    <clipPath
       id="clipPath25879">
      <path
         inkscape:connector-curvature="0"
         d="m 0.652344,0.136719 h 3.78125 v 0.375 h -3.78125 z m 0,0"
         id="path25877" />
    </clipPath>
    <clipPath
       id="clipPath25883">
      <path
         inkscape:connector-curvature="0"
         d="m 0.652344,1 h 3.78125 v 1 h -3.78125 z m 0,0"
         id="path25881" />
    </clipPath>
    <clipPath
       id="clipPath25887">
      <rect
         y="0"
         x="0"
         width="5"
         height="1"
         id="rect25885" />
    </clipPath>
    <clipPath
       id="clipPath25891">
      <path
         inkscape:connector-curvature="0"
         d="m 0.652344,0.371094 h 3.78125 v 0.375 h -3.78125 z m 0,0"
         id="path25889" />
    </clipPath>
    <clipPath
       id="clipPath25895">
      <rect
         y="0"
         x="0"
         width="5"
         height="1"
         id="rect25893" />
    </clipPath>
    <clipPath
       id="clipPath25899">
      <path
         inkscape:connector-curvature="0"
         d="m 0.652344,0.371094 h 3.78125 v 0.375 h -3.78125 z m 0,0"
         id="path25897" />
    </clipPath>
    <clipPath
       id="clipPath25903">
      <path
         inkscape:connector-curvature="0"
         d="m 0.652344,0.605469 h 3.78125 V 1 h -3.78125 z m 0,0"
         id="path25901" />
    </clipPath>
    <clipPath
       id="clipPath25907">
      <rect
         y="0"
         x="0"
         width="5"
         height="1"
         id="rect25905" />
    </clipPath>
    <clipPath
       id="clipPath25911">
      <path
         inkscape:connector-curvature="0"
         d="m 0.652344,0.605469 h 3.78125 v 0.375 h -3.78125 z m 0,0"
         id="path25909" />
    </clipPath>
    <clipPath
       id="clipPath25915">
      <rect
         y="0"
         x="0"
         width="5"
         height="1"
         id="rect25913" />
    </clipPath>
    <clipPath
       id="clipPath25919">
      <path
         inkscape:connector-curvature="0"
         d="m 0.652344,0.605469 h 3.78125 v 0.375 h -3.78125 z m 0,0"
         id="path25917" />
    </clipPath>
  </defs>
  <sodipodi:namedview
     id="base"
     pagecolor="#ffffff"
     bordercolor="#666666"
     borderopacity="1.0"
     inkscape:pageopacity="0.0"
     inkscape:pageshadow="2"
     inkscape:zoom="28.687777"
     inkscape:cx="7.8823626"
     inkscape:cy="6.238671"
     inkscape:document-units="mm"
     inkscape:current-layer="layer1"
     showgrid="false"
     inkscape:window-width="691"
     inkscape:window-height="712"
     inkscape:window-x="674"
     inkscape:window-y="27"
     inkscape:window-maximized="0"
     showguides="true"
     inkscape:guide-bbox="true"
     gridtolerance="10"
     guidetolerance="2">
    <inkscape:grid
       type="xygrid"
       id="grid13828" />
    <sodipodi:guide
       position="0.13043093,3.8477124"
       orientation="1,0"
       id="guide20533"
       inkscape:locked="false" />
    <sodipodi:guide
       position="1.9173346,3.6129367"
       orientation="0,1"
       id="guide20535"
       inkscape:locked="false" />
    <sodipodi:guide
       position="-0.092228593,4.0580581"
       orientation="-0.70710678,0.70710678"
       id="guide27663"
       inkscape:locked="false" />
  </sodipodi:namedview>
  <metadata
     id="metadata13823">
    <rdf:RDF>
      <cc:Work
         rdf:about="">
        <dc:format>image/svg+xml</dc:format>
        <dc:type
           rdf:resource="http://purl.org/dc/dcmitype/StillImage" />
        <dc:title></dc:title>
      </cc:Work>
    </rdf:RDF>
  </metadata>
  <g
     inkscape:label="Layer 1"
     inkscape:groupmode="layer"
     id="layer1"
     transform="translate(0,-293.25)">
    <g
       transform="matrix(0.09333912,0,0,0.09333912,0.9751432,398.26883)"
       clip-path="url(#clip1)"
       id="use9161">
      <g
         style="clip-rule:nonzero"
         id="g26358"
         clip-path="url(#clip2)">
        <g
           id="g26350"
           clip-path="url(#clip3)"
           transform="matrix(0.26458333,0,0,0.26458333,0,296.25)">
          <g
             clip-path="url(#clip4)"
             id="g26348"
             style="clip-rule:nonzero">
            <path
               style="fill:#000000;fill-opacity:1;fill-rule:nonzero;stroke:none"
               d="m 4.433594,1.042969 h -3.78125 v -0.375 h 3.78125 z m 0,0"
               id="path26346"
               inkscape:connector-curvature="0" />
          </g>
        </g>
        <g
           id="g26356"
           clip-path="url(#clip5)"
           transform="matrix(0.26458333,0,0,0.26458333,0,296.25)">
          <g
             clip-path="url(#clip6)"
             id="g26354"
             style="clip-rule:nonzero">
            <path
               style="fill:#211e1e;fill-opacity:1;fill-rule:nonzero;stroke:none"
               d="m 4.433594,1.042969 h -3.78125 v -0.375 h 3.78125 z m 0,0"
               id="path26352"
               inkscape:connector-curvature="0" />
          </g>
        </g>
      </g>
      <g
         style="clip-rule:nonzero"
         id="g26372"
         clip-path="url(#clip7)">
        <g
           id="g26364"
           clip-path="url(#clip8)"
           transform="matrix(0.26458333,0,0,0.26458333,0,295.25)">
          <g
             clip-path="url(#clip9)"
             id="g26362"
             style="clip-rule:nonzero">
            <path
               style="fill:#000000;fill-opacity:1;fill-rule:nonzero;stroke:none"
               d="m 4.433594,1.277344 h -3.78125 v -0.375 h 3.78125 z m 0,0"
               id="path26360"
               inkscape:connector-curvature="0" />
          </g>
        </g>
        <g
           id="g26370"
           clip-path="url(#clip10)"
           transform="matrix(0.26458333,0,0,0.26458333,0,295.25)">
          <g
             clip-path="url(#clip11)"
             id="g26368"
             style="clip-rule:nonzero">
            <path
               style="fill:#211e1e;fill-opacity:1;fill-rule:nonzero;stroke:none"
               d="m 4.433594,1.277344 h -3.78125 v -0.375 h 3.78125 z m 0,0"
               id="path26366"
               inkscape:connector-curvature="0" />
          </g>
        </g>
      </g>
      <g
         style="clip-rule:nonzero"
         id="g26386"
         clip-path="url(#clip12)">
        <g
           id="g26378"
           clip-path="url(#clip13)"
           transform="matrix(0.26458333,0,0,0.26458333,0,295.25)">
          <g
             clip-path="url(#clip14)"
             id="g26376"
             style="clip-rule:nonzero">
            <path
               style="fill:#000000;fill-opacity:1;fill-rule:nonzero;stroke:none"
               d="m 4.433594,0.511719 h -3.78125 v -0.375 h 3.78125 z m 0,0"
               id="path26374"
               inkscape:connector-curvature="0" />
          </g>
        </g>
        <g
           id="g26384"
           clip-path="url(#clip15)"
           transform="matrix(0.26458333,0,0,0.26458333,0,295.25)">
          <g
             clip-path="url(#clip16)"
             id="g26382"
             style="clip-rule:nonzero">
            <path
               style="fill:#211e1e;fill-opacity:1;fill-rule:nonzero;stroke:none"
               d="m 4.433594,0.511719 h -3.78125 v -0.375 h 3.78125 z m 0,0"
               id="path26380"
               inkscape:connector-curvature="0" />
          </g>
        </g>
      </g>
      <g
         style="clip-rule:nonzero"
         id="g26400"
         clip-path="url(#clip17)">
        <g
           id="g26392"
           clip-path="url(#clip18)"
           transform="matrix(0.26458333,0,0,0.26458333,0,294.25)">
          <g
             clip-path="url(#clip19)"
             id="g26390"
             style="clip-rule:nonzero">
            <path
               style="fill:#000000;fill-opacity:1;fill-rule:nonzero;stroke:none"
               d="m 4.433594,0.746094 h -3.78125 v -0.375 h 3.78125 z m 0,0"
               id="path26388"
               inkscape:connector-curvature="0" />
          </g>
        </g>
        <g
           id="g26398"
           clip-path="url(#clip20)"
           transform="matrix(0.26458333,0,0,0.26458333,0,294.25)">
          <g
             clip-path="url(#clip21)"
             id="g26396"
             style="clip-rule:nonzero">
            <path
               style="fill:#211e1e;fill-opacity:1;fill-rule:nonzero;stroke:none"
               d="m 4.433594,0.746094 h -3.78125 v -0.375 h 3.78125 z m 0,0"
               id="path26394"
               inkscape:connector-curvature="0" />
          </g>
        </g>
      </g>
      <g
         style="clip-rule:nonzero"
         id="g26414"
         clip-path="url(#clip22)">
        <g
           id="g26406"
           clip-path="url(#clip23)"
           transform="matrix(0.26458333,0,0,0.26458333,0,293.25)">
          <g
             clip-path="url(#clip24)"
             id="g26404"
             style="clip-rule:nonzero">
            <path
               style="fill:#000000;fill-opacity:1;fill-rule:nonzero;stroke:none"
               d="m 4.433594,0.980469 h -3.78125 v -0.375 h 3.78125 z m 0,0"
               id="path26402"
               inkscape:connector-curvature="0" />
          </g>
        </g>
        <g
           id="g26412"
           clip-path="url(#clip25)"
           transform="matrix(0.26458333,0,0,0.26458333,0,293.25)">
          <g
             clip-path="url(#clip26)"
             id="g26410"
             style="clip-rule:nonzero">
            <path
               style="fill:#211e1e;fill-opacity:1;fill-rule:nonzero;stroke:none"
               d="m 4.433594,0.980469 h -3.78125 v -0.375 h 3.78125 z m 0,0"
               id="path26408"
               inkscape:connector-curvature="0" />
          </g>
        </g>
      </g>
    </g>
    <path
       inkscape:connector-curvature="0"
       id="path5505"
       d="m 0.55441386,293.44697 c -0.19017193,0 -0.34588803,0.15434 -0.34588803,0.34451 v 2.6541 c 0,0.19017 0.1557161,0.34589 0.34588803,0.34589 H 3.2071369 c 0.1915477,0 0.3472638,-0.15572 0.3472638,-0.34589 v -2.6541 c 0,-0.19017 -0.1557161,-0.34451 -0.3472638,-0.34451 z m 0,0"
       style="fill:#ffffff;fill-opacity:1;fill-rule:nonzero;stroke:none;stroke-width:0.35277775" />
    <path
       inkscape:connector-curvature="0"
       id="path5507"
       d="m 3.2071369,296.86175 c 0.2301309,0 0.4175442,-0.18604 0.4175442,-0.41617 v -2.6541 c 0,-0.22876 -0.1874133,-0.41617 -0.4175442,-0.41617 H 0.55441386 c -0.23013459,0 -0.41616842,0.18741 -0.41616842,0.41617 v 2.6541 c 0,0.23013 0.18603383,0.41617 0.41616842,0.41617 z m 0,0"
       style="fill:#211e1e;fill-opacity:1;fill-rule:nonzero;stroke:none;stroke-width:0.35277775" />
    <path
       inkscape:connector-curvature="0"
       id="path5509"
       d="m 1.7946464,295.54572 v 0.54294 c 0,0 0.019297,0.14332 -0.1598507,0.14332 H 0.92786084 c -0.17914405,0 -0.15985063,-0.14332 -0.15985063,-0.14332 v -0.54294 z m 0,0"
       style="fill:#ffffff;fill-opacity:1;fill-rule:nonzero;stroke:none;stroke-width:0.35277775" />
    <path
       inkscape:connector-curvature="0"
       id="path5511"
       d="m 1.4694311,294.00645 c -0.0248,-0.04 -0.068904,-0.0661 -0.1198915,-0.0661 l -0.2273758,10e-4 c -0.079925,0 -0.14469176,0.0634 -0.14469176,0.1447 0,0.0276 0.00825,0.0537 0.022048,0.0758 l 0.00141,10e-4 c 0.067525,0.0965 0.1074878,0.21222 0.1074878,0.33762 0,0.21222 -0.11437756,0.39825 -0.28387666,0.50023 l -0.00141,0.001 c -0.033055,0.0207 -0.0551215,0.0565 -0.0551215,0.0992 v 0.17088 H 1.7960257 v -0.63252 c 0,0 0.00141,-0.0593 -0.038587,-0.13092 z m 0,0"
       style="fill:#ffffff;fill-opacity:1;fill-rule:nonzero;stroke:none;stroke-width:0.35277775" />
    <path
       inkscape:connector-curvature="0"
       id="path5513"
       d="m 2.2879849,294.00645 c 0.0248,-0.04 0.068901,-0.0661 0.1185122,-0.0661 l 0.2287517,10e-4 c 0.079929,0 0.1446953,0.0634 0.1446953,0.1447 0,0.0276 -0.00826,0.0537 -0.022048,0.0758 l -0.00141,10e-4 c -0.067522,0.0965 -0.1074844,0.21222 -0.1074844,0.33762 0,0.21222 0.1143777,0.39825 0.2838733,0.50023 l 0.0014,0.001 c 0.033056,0.0207 0.055122,0.0565 0.055122,0.0992 v 0.17088 H 1.961389 v -0.63252 c 0,0 -0.00141,-0.0593 0.038583,-0.13092 z m 0,0"
       style="fill:#ffffff;fill-opacity:1;fill-rule:nonzero;stroke:none;stroke-width:0.35277775" />
    <path
       inkscape:connector-curvature="0"
       id="path5515"
       d="m 2.989406,295.54572 v 0.54294 c 0,0 0.01792,0.14332 -0.1612302,0.14332 H 2.121241 c -0.1791441,0 -0.1598507,-0.14332 -0.1598507,-0.14332 v -0.54294 z m 0,0"
       style="fill:#ffffff;fill-opacity:1;fill-rule:nonzero;stroke:none;stroke-width:0.35277775" />
    <path
       inkscape:connector-curvature="0"
       id="path5517"
       d="m 1.9655249,295.46028 c 0.026176,0 0.048232,-0.0207 0.048232,-0.0482 0,-0.0262 -0.022049,-0.0482 -0.048232,-0.0482 H 1.8015361 c -0.027552,0 -0.048232,0.022 -0.048232,0.0482 0,0.0276 0.020673,0.0482 0.048232,0.0482 z m 0,0"
       style="fill:#ffffff;fill-opacity:1;fill-rule:nonzero;stroke:none;stroke-width:0.35277775" />
  </g>
</svg>
