<?xml version="1.0" encoding="UTF-8" standalone="no"?>
<!-- Created with Inkscape (http://www.inkscape.org/) -->

<svg
   xmlns:dc="http://purl.org/dc/elements/1.1/"
   xmlns:cc="http://creativecommons.org/ns#"
   xmlns:rdf="http://www.w3.org/1999/02/22-rdf-syntax-ns#"
   xmlns:svg="http://www.w3.org/2000/svg"
   xmlns="http://www.w3.org/2000/svg"
   xmlns:sodipodi="http://sodipodi.sourceforge.net/DTD/sodipodi-0.dtd"
   xmlns:inkscape="http://www.inkscape.org/namespaces/inkscape"
   width="3.75mm"
   height="3.75mm"
   viewBox="0 0 3.75 3.75"
   version="1.1"
   id="svg13826"
   inkscape:version="0.92.1 r15371"
   sodipodi:docname="personl_watercraft_light.svg">
  <defs
     id="defs13820">
    <clipPath
       id="clip1">
      <rect
         y="0"
         x="0"
         width="5"
         height="5"
         id="rect561" />
    </clipPath>
    <clipPath
       id="clip2">
      <path
         inkscape:connector-curvature="0"
         d="m 0.652344,3 h 3.78125 v 1.042969 h -3.78125 z m 0,0"
         id="path436" />
    </clipPath>
    <clipPath
       id="clip3">
      <rect
         y="0"
         x="0"
         width="5"
         height="2"
         id="rect442" />
    </clipPath>
    <clipPath
       id="clip4">
      <path
         inkscape:connector-curvature="0"
         d="m 0.652344,0.667969 h 3.78125 v 0.375 h -3.78125 z m 0,0"
         id="path439" />
    </clipPath>
    <clipPath
       id="clipPath25695">
      <rect
         y="0"
         x="0"
         width="5"
         height="2"
         id="rect25693" />
    </clipPath>
    <clipPath
       id="clipPath25699">
      <path
         inkscape:connector-curvature="0"
         d="m 0.652344,0.667969 h 3.78125 v 0.375 h -3.78125 z m 0,0"
         id="path25697" />
    </clipPath>
    <clipPath
       id="clip5">
      <rect
         y="0"
         x="0"
         width="5"
         height="2"
         id="rect453" />
    </clipPath>
    <clipPath
       id="clip6">
      <path
         inkscape:connector-curvature="0"
         d="m 0.652344,0.667969 h 3.78125 v 0.375 h -3.78125 z m 0,0"
         id="path450" />
    </clipPath>
    <clipPath
       id="clipPath25707">
      <rect
         y="0"
         x="0"
         width="5"
         height="2"
         id="rect25705" />
    </clipPath>
    <clipPath
       id="clipPath25711">
      <path
         inkscape:connector-curvature="0"
         d="m 0.652344,0.667969 h 3.78125 v 0.375 h -3.78125 z m 0,0"
         id="path25709" />
    </clipPath>
    <clipPath
       id="clip7">
      <path
         inkscape:connector-curvature="0"
         d="m 0.652344,2 h 3.78125 v 2 h -3.78125 z m 0,0"
         id="path461" />
    </clipPath>
    <clipPath
       id="clip8">
      <rect
         y="0"
         x="0"
         width="5"
         height="2"
         id="rect467" />
    </clipPath>
    <clipPath
       id="clip9">
      <path
         inkscape:connector-curvature="0"
         d="m 0.652344,0.902344 h 3.78125 v 0.375 h -3.78125 z m 0,0"
         id="path464" />
    </clipPath>
    <clipPath
       id="clipPath25721">
      <rect
         y="0"
         x="0"
         width="5"
         height="2"
         id="rect25719" />
    </clipPath>
    <clipPath
       id="clipPath25725">
      <path
         inkscape:connector-curvature="0"
         d="m 0.652344,0.902344 h 3.78125 v 0.375 h -3.78125 z m 0,0"
         id="path25723" />
    </clipPath>
    <clipPath
       id="clip10">
      <rect
         y="0"
         x="0"
         width="5"
         height="2"
         id="rect478" />
    </clipPath>
    <clipPath
       id="clip11">
      <path
         inkscape:connector-curvature="0"
         d="m 0.652344,0.902344 h 3.78125 v 0.375 h -3.78125 z m 0,0"
         id="path475" />
    </clipPath>
    <clipPath
       id="clipPath25733">
      <rect
         y="0"
         x="0"
         width="5"
         height="2"
         id="rect25731" />
    </clipPath>
    <clipPath
       id="clipPath25737">
      <path
         inkscape:connector-curvature="0"
         d="m 0.652344,0.902344 h 3.78125 v 0.375 h -3.78125 z m 0,0"
         id="path25735" />
    </clipPath>
    <clipPath
       id="clip12">
      <path
         inkscape:connector-curvature="0"
         d="m 0.652344,2 h 3.78125 v 1 h -3.78125 z m 0,0"
         id="path486" />
    </clipPath>
    <clipPath
       id="clip13">
      <rect
         y="0"
         x="0"
         width="5"
         height="1"
         id="rect492" />
    </clipPath>
    <clipPath
       id="clip14">
      <path
         inkscape:connector-curvature="0"
         d="m 0.652344,0.136719 h 3.78125 v 0.375 h -3.78125 z m 0,0"
         id="path489" />
    </clipPath>
    <clipPath
       id="clipPath25747">
      <rect
         y="0"
         x="0"
         width="5"
         height="1"
         id="rect25745" />
    </clipPath>
    <clipPath
       id="clipPath25751">
      <path
         inkscape:connector-curvature="0"
         d="m 0.652344,0.136719 h 3.78125 v 0.375 h -3.78125 z m 0,0"
         id="path25749" />
    </clipPath>
    <clipPath
       id="clip15">
      <rect
         y="0"
         x="0"
         width="5"
         height="1"
         id="rect503" />
    </clipPath>
    <clipPath
       id="clip16">
      <path
         inkscape:connector-curvature="0"
         d="m 0.652344,0.136719 h 3.78125 v 0.375 h -3.78125 z m 0,0"
         id="path500" />
    </clipPath>
    <clipPath
       id="clipPath25759">
      <rect
         y="0"
         x="0"
         width="5"
         height="1"
         id="rect25757" />
    </clipPath>
    <clipPath
       id="clipPath25763">
      <path
         inkscape:connector-curvature="0"
         d="m 0.652344,0.136719 h 3.78125 v 0.375 h -3.78125 z m 0,0"
         id="path25761" />
    </clipPath>
    <clipPath
       id="clip17">
      <path
         inkscape:connector-curvature="0"
         d="m 0.652344,1 h 3.78125 v 1 h -3.78125 z m 0,0"
         id="path511" />
    </clipPath>
    <clipPath
       id="clip18">
      <rect
         y="0"
         x="0"
         width="5"
         height="1"
         id="rect517" />
    </clipPath>
    <clipPath
       id="clip19">
      <path
         inkscape:connector-curvature="0"
         d="m 0.652344,0.371094 h 3.78125 v 0.375 h -3.78125 z m 0,0"
         id="path514" />
    </clipPath>
    <clipPath
       id="clipPath25773">
      <rect
         y="0"
         x="0"
         width="5"
         height="1"
         id="rect25771" />
    </clipPath>
    <clipPath
       id="clipPath25777">
      <path
         inkscape:connector-curvature="0"
         d="m 0.652344,0.371094 h 3.78125 v 0.375 h -3.78125 z m 0,0"
         id="path25775" />
    </clipPath>
    <clipPath
       id="clip20">
      <rect
         y="0"
         x="0"
         width="5"
         height="1"
         id="rect528" />
    </clipPath>
    <clipPath
       id="clip21">
      <path
         inkscape:connector-curvature="0"
         d="m 0.652344,0.371094 h 3.78125 v 0.375 h -3.78125 z m 0,0"
         id="path525" />
    </clipPath>
    <clipPath
       id="clipPath25785">
      <rect
         y="0"
         x="0"
         width="5"
         height="1"
         id="rect25783" />
    </clipPath>
    <clipPath
       id="clipPath25789">
      <path
         inkscape:connector-curvature="0"
         d="m 0.652344,0.371094 h 3.78125 v 0.375 h -3.78125 z m 0,0"
         id="path25787" />
    </clipPath>
    <clipPath
       id="clip22">
      <path
         inkscape:connector-curvature="0"
         d="m 0.652344,0.605469 h 3.78125 V 1 h -3.78125 z m 0,0"
         id="path536" />
    </clipPath>
    <clipPath
       id="clip23">
      <rect
         y="0"
         x="0"
         width="5"
         height="1"
         id="rect542" />
    </clipPath>
    <clipPath
       id="clip24">
      <path
         inkscape:connector-curvature="0"
         d="m 0.652344,0.605469 h 3.78125 v 0.375 h -3.78125 z m 0,0"
         id="path539" />
    </clipPath>
    <clipPath
       id="clipPath25799">
      <rect
         y="0"
         x="0"
         width="5"
         height="1"
         id="rect25797" />
    </clipPath>
    <clipPath
       id="clipPath25803">
      <path
         inkscape:connector-curvature="0"
         d="m 0.652344,0.605469 h 3.78125 v 0.375 h -3.78125 z m 0,0"
         id="path25801" />
    </clipPath>
    <clipPath
       id="clip25">
      <rect
         y="0"
         x="0"
         width="5"
         height="1"
         id="rect553" />
    </clipPath>
    <clipPath
       id="clip26">
      <path
         inkscape:connector-curvature="0"
         d="m 0.652344,0.605469 h 3.78125 v 0.375 h -3.78125 z m 0,0"
         id="path550" />
    </clipPath>
    <clipPath
       id="clipPath25811">
      <rect
         y="0"
         x="0"
         width="5"
         height="1"
         id="rect25809" />
    </clipPath>
    <clipPath
       id="clipPath25815">
      <path
         inkscape:connector-curvature="0"
         d="m 0.652344,0.605469 h 3.78125 v 0.375 h -3.78125 z m 0,0"
         id="path25813" />
    </clipPath>
    <clipPath
       id="clipPath25819">
      <rect
         y="0"
         x="0"
         width="5"
         height="5"
         id="rect25817" />
    </clipPath>
    <clipPath
       id="clipPath25823">
      <path
         inkscape:connector-curvature="0"
         d="m 0.652344,3 h 3.78125 v 1.042969 h -3.78125 z m 0,0"
         id="path25821" />
    </clipPath>
    <clipPath
       id="clipPath25827">
      <rect
         y="0"
         x="0"
         width="5"
         height="2"
         id="rect25825" />
    </clipPath>
    <clipPath
       id="clipPath25831">
      <path
         inkscape:connector-curvature="0"
         d="m 0.652344,0.667969 h 3.78125 v 0.375 h -3.78125 z m 0,0"
         id="path25829" />
    </clipPath>
    <clipPath
       id="clipPath25835">
      <rect
         y="0"
         x="0"
         width="5"
         height="2"
         id="rect25833" />
    </clipPath>
    <clipPath
       id="clipPath25839">
      <path
         inkscape:connector-curvature="0"
         d="m 0.652344,0.667969 h 3.78125 v 0.375 h -3.78125 z m 0,0"
         id="path25837" />
    </clipPath>
    <clipPath
       id="clipPath25843">
      <path
         inkscape:connector-curvature="0"
         d="m 0.652344,2 h 3.78125 v 2 h -3.78125 z m 0,0"
         id="path25841" />
    </clipPath>
    <clipPath
       id="clipPath25847">
      <rect
         y="0"
         x="0"
         width="5"
         height="2"
         id="rect25845" />
    </clipPath>
    <clipPath
       id="clipPath25851">
      <path
         inkscape:connector-curvature="0"
         d="m 0.652344,0.902344 h 3.78125 v 0.375 h -3.78125 z m 0,0"
         id="path25849" />
    </clipPath>
    <clipPath
       id="clipPath25855">
      <rect
         y="0"
         x="0"
         width="5"
         height="2"
         id="rect25853" />
    </clipPath>
    <clipPath
       id="clipPath25859">
      <path
         inkscape:connector-curvature="0"
         d="m 0.652344,0.902344 h 3.78125 v 0.375 h -3.78125 z m 0,0"
         id="path25857" />
    </clipPath>
    <clipPath
       id="clipPath25863">
      <path
         inkscape:connector-curvature="0"
         d="m 0.652344,2 h 3.78125 v 1 h -3.78125 z m 0,0"
         id="path25861" />
    </clipPath>
    <clipPath
       id="clipPath25867">
      <rect
         y="0"
         x="0"
         width="5"
         height="1"
         id="rect25865" />
    </clipPath>
    <clipPath
       id="clipPath25871">
      <path
         inkscape:connector-curvature="0"
         d="m 0.652344,0.136719 h 3.78125 v 0.375 h -3.78125 z m 0,0"
         id="path25869" />
    </clipPath>
    <clipPath
       id="clipPath25875">
      <rect
         y="0"
         x="0"
         width="5"
         height="1"
         id="rect25873" />
    </clipPath>
    <clipPath
       id="clipPath25879">
      <path
         inkscape:connector-curvature="0"
         d="m 0.652344,0.136719 h 3.78125 v 0.375 h -3.78125 z m 0,0"
         id="path25877" />
    </clipPath>
    <clipPath
       id="clipPath25883">
      <path
         inkscape:connector-curvature="0"
         d="m 0.652344,1 h 3.78125 v 1 h -3.78125 z m 0,0"
         id="path25881" />
    </clipPath>
    <clipPath
       id="clipPath25887">
      <rect
         y="0"
         x="0"
         width="5"
         height="1"
         id="rect25885" />
    </clipPath>
    <clipPath
       id="clipPath25891">
      <path
         inkscape:connector-curvature="0"
         d="m 0.652344,0.371094 h 3.78125 v 0.375 h -3.78125 z m 0,0"
         id="path25889" />
    </clipPath>
    <clipPath
       id="clipPath25895">
      <rect
         y="0"
         x="0"
         width="5"
         height="1"
         id="rect25893" />
    </clipPath>
    <clipPath
       id="clipPath25899">
      <path
         inkscape:connector-curvature="0"
         d="m 0.652344,0.371094 h 3.78125 v 0.375 h -3.78125 z m 0,0"
         id="path25897" />
    </clipPath>
    <clipPath
       id="clipPath25903">
      <path
         inkscape:connector-curvature="0"
         d="m 0.652344,0.605469 h 3.78125 V 1 h -3.78125 z m 0,0"
         id="path25901" />
    </clipPath>
    <clipPath
       id="clipPath25907">
      <rect
         y="0"
         x="0"
         width="5"
         height="1"
         id="rect25905" />
    </clipPath>
    <clipPath
       id="clipPath25911">
      <path
         inkscape:connector-curvature="0"
         d="m 0.652344,0.605469 h 3.78125 v 0.375 h -3.78125 z m 0,0"
         id="path25909" />
    </clipPath>
    <clipPath
       id="clipPath25915">
      <rect
         y="0"
         x="0"
         width="5"
         height="1"
         id="rect25913" />
    </clipPath>
    <clipPath
       id="clipPath25919">
      <path
         inkscape:connector-curvature="0"
         d="m 0.652344,0.605469 h 3.78125 v 0.375 h -3.78125 z m 0,0"
         id="path25917" />
    </clipPath>
  </defs>
  <sodipodi:namedview
     id="base"
     pagecolor="#ffffff"
     bordercolor="#666666"
     borderopacity="1.0"
     inkscape:pageopacity="0.0"
     inkscape:pageshadow="2"
     inkscape:zoom="28.687777"
     inkscape:cx="7.8823626"
     inkscape:cy="6.238671"
     inkscape:document-units="mm"
     inkscape:current-layer="layer1"
     showgrid="false"
     inkscape:window-width="691"
     inkscape:window-height="712"
     inkscape:window-x="674"
     inkscape:window-y="27"
     inkscape:window-maximized="0"
     showguides="true"
     inkscape:guide-bbox="true"
     gridtolerance="10"
     guidetolerance="2">
    <inkscape:grid
       type="xygrid"
       id="grid13828" />
    <sodipodi:guide
       position="0.13043093,3.8477124"
       orientation="1,0"
       id="guide20533"
       inkscape:locked="false" />
    <sodipodi:guide
       position="1.9173346,3.6129367"
       orientation="0,1"
       id="guide20535"
       inkscape:locked="false" />
    <sodipodi:guide
       position="-0.092228593,4.0580581"
       orientation="-0.70710678,0.70710678"
       id="guide27663"
       inkscape:locked="false" />
  </sodipodi:namedview>
  <metadata
     id="metadata13823">
    <rdf:RDF>
      <cc:Work
         rdf:about="">
        <dc:format>image/svg+xml</dc:format>
        <dc:type
           rdf:resource="http://purl.org/dc/dcmitype/StillImage" />
        <dc:title></dc:title>
      </cc:Work>
    </rdf:RDF>
  </metadata>
  <g
     inkscape:label="Layer 1"
     inkscape:groupmode="layer"
     id="layer1"
     transform="translate(0,-293.25)">
    <g
       transform="matrix(0.09333912,0,0,0.09333912,0.9751432,398.26883)"
       clip-path="url(#clip1)"
       id="use9161">
      <g
         style="clip-rule:nonzero"
         id="g26358"
         clip-path="url(#clip2)">
        <g
           id="g26350"
           clip-path="url(#clip3)"
           transform="matrix(0.26458333,0,0,0.26458333,0,296.25)">
          <g
             clip-path="url(#clip4)"
             id="g26348"
             style="clip-rule:nonzero">
            <path
               style="fill:#000000;fill-opacity:1;fill-rule:nonzero;stroke:none"
               d="m 4.433594,1.042969 h -3.78125 v -0.375 h 3.78125 z m 0,0"
               id="path26346"
               inkscape:connector-curvature="0" />
          </g>
        </g>
        <g
           id="g26356"
           clip-path="url(#clip5)"
           transform="matrix(0.26458333,0,0,0.26458333,0,296.25)">
          <g
             clip-path="url(#clip6)"
             id="g26354"
             style="clip-rule:nonzero">
            <path
               style="fill:#211e1e;fill-opacity:1;fill-rule:nonzero;stroke:none"
               d="m 4.433594,1.042969 h -3.78125 v -0.375 h 3.78125 z m 0,0"
               id="path26352"
               inkscape:connector-curvature="0" />
          </g>
        </g>
      </g>
      <g
         style="clip-rule:nonzero"
         id="g26372"
         clip-path="url(#clip7)">
        <g
           id="g26364"
           clip-path="url(#clip8)"
           transform="matrix(0.26458333,0,0,0.26458333,0,295.25)">
          <g
             clip-path="url(#clip9)"
             id="g26362"
             style="clip-rule:nonzero">
            <path
               style="fill:#000000;fill-opacity:1;fill-rule:nonzero;stroke:none"
               d="m 4.433594,1.277344 h -3.78125 v -0.375 h 3.78125 z m 0,0"
               id="path26360"
               inkscape:connector-curvature="0" />
          </g>
        </g>
        <g
           id="g26370"
           clip-path="url(#clip10)"
           transform="matrix(0.26458333,0,0,0.26458333,0,295.25)">
          <g
             clip-path="url(#clip11)"
             id="g26368"
             style="clip-rule:nonzero">
            <path
               style="fill:#211e1e;fill-opacity:1;fill-rule:nonzero;stroke:none"
               d="m 4.433594,1.277344 h -3.78125 v -0.375 h 3.78125 z m 0,0"
               id="path26366"
               inkscape:connector-curvature="0" />
          </g>
        </g>
      </g>
      <g
         style="clip-rule:nonzero"
         id="g26386"
         clip-path="url(#clip12)">
        <g
           id="g26378"
           clip-path="url(#clip13)"
           transform="matrix(0.26458333,0,0,0.26458333,0,295.25)">
          <g
             clip-path="url(#clip14)"
             id="g26376"
             style="clip-rule:nonzero">
            <path
               style="fill:#000000;fill-opacity:1;fill-rule:nonzero;stroke:none"
               d="m 4.433594,0.511719 h -3.78125 v -0.375 h 3.78125 z m 0,0"
               id="path26374"
               inkscape:connector-curvature="0" />
          </g>
        </g>
        <g
           id="g26384"
           clip-path="url(#clip15)"
           transform="matrix(0.26458333,0,0,0.26458333,0,295.25)">
          <g
             clip-path="url(#clip16)"
             id="g26382"
             style="clip-rule:nonzero">
            <path
               style="fill:#211e1e;fill-opacity:1;fill-rule:nonzero;stroke:none"
               d="m 4.433594,0.511719 h -3.78125 v -0.375 h 3.78125 z m 0,0"
               id="path26380"
               inkscape:connector-curvature="0" />
          </g>
        </g>
      </g>
      <g
         style="clip-rule:nonzero"
         id="g26400"
         clip-path="url(#clip17)">
        <g
           id="g26392"
           clip-path="url(#clip18)"
           transform="matrix(0.26458333,0,0,0.26458333,0,294.25)">
          <g
             clip-path="url(#clip19)"
             id="g26390"
             style="clip-rule:nonzero">
            <path
               style="fill:#000000;fill-opacity:1;fill-rule:nonzero;stroke:none"
               d="m 4.433594,0.746094 h -3.78125 v -0.375 h 3.78125 z m 0,0"
               id="path26388"
               inkscape:connector-curvature="0" />
          </g>
        </g>
        <g
           id="g26398"
           clip-path="url(#clip20)"
           transform="matrix(0.26458333,0,0,0.26458333,0,294.25)">
          <g
             clip-path="url(#clip21)"
             id="g26396"
             style="clip-rule:nonzero">
            <path
               style="fill:#211e1e;fill-opacity:1;fill-rule:nonzero;stroke:none"
               d="m 4.433594,0.746094 h -3.78125 v -0.375 h 3.78125 z m 0,0"
               id="path26394"
               inkscape:connector-curvature="0" />
          </g>
        </g>
      </g>
      <g
         style="clip-rule:nonzero"
         id="g26414"
         clip-path="url(#clip22)">
        <g
           id="g26406"
           clip-path="url(#clip23)"
           transform="matrix(0.26458333,0,0,0.26458333,0,293.25)">
          <g
             clip-path="url(#clip24)"
             id="g26404"
             style="clip-rule:nonzero">
            <path
               style="fill:#000000;fill-opacity:1;fill-rule:nonzero;stroke:none"
               d="m 4.433594,0.980469 h -3.78125 v -0.375 h 3.78125 z m 0,0"
               id="path26402"
               inkscape:connector-curvature="0" />
          </g>
        </g>
        <g
           id="g26412"
           clip-path="url(#clip25)"
           transform="matrix(0.26458333,0,0,0.26458333,0,293.25)">
          <g
             clip-path="url(#clip26)"
             id="g26410"
             style="clip-rule:nonzero">
            <path
               style="fill:#211e1e;fill-opacity:1;fill-rule:nonzero;stroke:none"
               d="m 4.433594,0.980469 h -3.78125 v -0.375 h 3.78125 z m 0,0"
               id="path26408"
               inkscape:connector-curvature="0" />
          </g>
        </g>
      </g>
    </g>
    <path
       inkscape:connector-curvature="0"
       id="path6145"
       d="m 3.190067,296.87236 c 0.2301346,0 0.4175477,-0.18603 0.4175477,-0.41616 v -2.65549 c 0,-0.23013 -0.1874131,-0.41754 -0.4175477,-0.41754 H 0.53458883 c -0.23013106,0 -0.41616842,0.18741 -0.41616842,0.41754 v 2.65549 c 0,0.23013 0.18603736,0.41616 0.41616842,0.41616 z m 0,0"
       style="fill:#211e1e;fill-opacity:1;fill-rule:nonzero;stroke:none;stroke-width:0.35277775" />
    <path
       inkscape:connector-curvature="0"
       id="path6147"
       d="m 0.53458883,293.45483 c -0.1901684,0 -0.34588803,0.15434 -0.34588803,0.34588 v 2.65549 c 0,0.19154 0.15571963,0.34588 0.34588803,0.34588 H 3.190067 c 0.1901719,0 0.3458879,-0.15434 0.3458879,-0.34588 v -2.65549 c 0,-0.19154 -0.155716,-0.34588 -0.3458879,-0.34588 z m 0,0"
       style="fill:#ffffff;fill-opacity:1;fill-rule:nonzero;stroke:none;stroke-width:0.35277775" />
    <path
       inkscape:connector-curvature="0"
       id="path6149"
       d="m 1.3875949,294.38363 c 0.1281571,-0.0152 0.2191067,-0.1323 0.2039478,-0.25908 -0.015169,-0.12953 -0.1309122,-0.2191 -0.2590693,-0.20532 -0.1281572,0.0165 -0.2191068,0.13229 -0.2039515,0.26045 0.016545,0.12815 0.1322917,0.21911 0.259073,0.20395"
       style="fill:#211e1e;fill-opacity:1;fill-rule:nonzero;stroke:none;stroke-width:0.35277775" />
    <path
       inkscape:connector-curvature="0"
       id="path6151"
       d="m 3.3085792,295.48468 c -0.012382,-0.007 -0.964625,-0.49058 -0.964625,-0.49058 l -0.2425347,-0.31144 -0.00282,-0.003 c -0.03168,-0.0303 -0.08406,-0.0276 -0.1143741,0.005 -0.020673,0.0262 -0.0248,0.062 -0.00825,0.091 l 0.1791441,0.23151 v 0.003 l -0.1488264,0.34038 -0.3941198,-0.0978 -0.016545,-0.14194 0.3238394,-0.0386 c 0.015169,-10e-4 0.028928,-0.005 0.042721,-0.0124 0.053742,-0.0275 0.074411,-0.0951 0.046852,-0.14883 -0.022049,-0.0413 -0.066146,-0.0634 -0.1102431,-0.0593 l -0.3307291,0.04 -0.028928,-0.24529 c -0.016545,-0.12678 -0.1322917,-0.21773 -0.2604488,-0.20257 -0.1267813,0.0152 -0.2191102,0.13229 -0.2039514,0.25907 l 0.068901,0.56775 c 0.00826,0.073 0.052366,0.13505 0.1088672,0.17225 l -0.51952167,0.062 -0.16123002,0.39964 c 0.005503,-0.003 0.0124177,-0.003 0.017921,-0.006 0.0675252,-0.0317 0.1419366,-0.0482 0.21497573,-0.0482 0.0730356,0 0.14607117,0.0165 0.21221696,0.0482 0.042718,0.0179 0.088194,0.0289 0.1336675,0.0289 0.045477,0 0.090953,-0.011 0.1309159,-0.0289 0.067522,-0.0317 0.1405607,-0.0482 0.2149722,-0.0482 0.073036,0 0.1460747,0.0165 0.2122205,0.0482 0.042718,0.0179 0.08957,0.0289 0.1336675,0.0289 0.045477,0 0.09095,-0.011 0.1322917,-0.0289 0.066146,-0.0317 0.1405607,-0.0482 0.2135963,-0.0482 0.073036,0 0.1474505,0.0165 0.2135964,0.0482 0.015169,0.006 0.031679,0.011 0.049608,0.0166 0.2645833,-0.0703 0.7344975,-0.20533 0.8626545,-0.31833 0.035828,-0.0331 0.044097,-0.0896 -0.0055,-0.113"
       style="fill:#211e1e;fill-opacity:1;fill-rule:nonzero;stroke:none;stroke-width:0.35277775" />
    <path
       inkscape:connector-curvature="0"
       id="path6153"
       d="m 0.45741868,296.39556 c 0.0606354,0 0.119888,-0.0138 0.1708785,-0.0358 0.0537422,-0.0262 0.11299825,-0.04 0.17638887,-0.04 0.0620113,0 0.12126738,0.0138 0.17500955,0.04 0.0523663,0.022 0.110243,0.0358 0.1708749,0.0358 0.060636,0 0.1171364,-0.0138 0.1694992,-0.0358 0.053746,-0.0262 0.1143776,-0.04 0.1763889,-0.04 0.062011,0 0.1212673,0.0138 0.175013,0.04 0.052363,0.022 0.1102431,0.0358 0.170875,0.0358 0.060635,0 0.1185121,-0.0138 0.1708785,-0.0358 0.053742,-0.0262 0.1129982,-0.04 0.1750095,-0.04 0.062011,0 0.1226467,0.0138 0.1750095,0.04 0.053746,0.022 0.1102431,0.0358 0.1722579,0.0358 0.060632,0 0.1185086,-0.0138 0.1694956,-0.0358 0.053746,-0.0262 0.1130017,-0.04 0.1750129,-0.04 0.063391,0 0.1226434,0.0138 0.176389,0.04 0.052366,0.022 0.1102431,0.0358 0.1708751,0.0358 v -0.25493 c -0.060632,0 -0.1185088,-0.0138 -0.1708751,-0.0372 -0.053746,-0.0248 -0.1129982,-0.0386 -0.176389,-0.0386 -0.062011,0 -0.1212672,0.0138 -0.1750129,0.0386 -0.050987,0.0234 -0.1088637,0.0372 -0.1694956,0.0372 -0.062015,0 -0.1185122,-0.0138 -0.1722579,-0.0372 -0.052363,-0.0248 -0.1129982,-0.0386 -0.1750095,-0.0386 -0.062011,0 -0.1212674,0.0138 -0.1750095,0.0386 -0.052366,0.0234 -0.1102431,0.0372 -0.1708785,0.0372 -0.060632,0 -0.1185122,-0.0138 -0.170875,-0.0372 -0.053746,-0.0248 -0.1130018,-0.0386 -0.175013,-0.0386 -0.062011,0 -0.1226432,0.0138 -0.1763889,0.0386 -0.052363,0.0234 -0.1088637,0.0372 -0.1694992,0.0372 -0.060632,0 -0.1185086,-0.0138 -0.1708749,-0.0372 -0.0537422,-0.0248 -0.11299825,-0.0386 -0.17500955,-0.0386 -0.0633906,0 -0.1226467,0.0138 -0.17638887,0.0386 -0.0509905,0.0234 -0.11024307,0.0372 -0.1708785,0.0372 z m 0,0"
       style="fill:#211e1e;fill-opacity:1;fill-rule:nonzero;stroke:none;stroke-width:0.35277775" />
  </g>
</svg>
