<?xml version="1.0" encoding="UTF-8" standalone="no"?>
<!-- Created with Inkscape (http://www.inkscape.org/) -->

<svg
   xmlns:dc="http://purl.org/dc/elements/1.1/"
   xmlns:cc="http://creativecommons.org/ns#"
   xmlns:rdf="http://www.w3.org/1999/02/22-rdf-syntax-ns#"
   xmlns:svg="http://www.w3.org/2000/svg"
   xmlns="http://www.w3.org/2000/svg"
   xmlns:sodipodi="http://sodipodi.sourceforge.net/DTD/sodipodi-0.dtd"
   xmlns:inkscape="http://www.inkscape.org/namespaces/inkscape"
   width="3.75mm"
   height="3.75mm"
   viewBox="0 0 3.75 3.75"
   version="1.1"
   id="svg13826"
   inkscape:version="0.92.1 r15371"
   sodipodi:docname="community_garden_dark.svg">
  <defs
     id="defs13820" />
  <sodipodi:namedview
     id="base"
     pagecolor="#ffffff"
     bordercolor="#666666"
     borderopacity="1.0"
     inkscape:pageopacity="0.0"
     inkscape:pageshadow="2"
     inkscape:zoom="20.285322"
     inkscape:cx="8.0003469"
     inkscape:cy="6.7152255"
     inkscape:document-units="mm"
     inkscape:current-layer="layer1"
     showgrid="false"
     inkscape:window-width="608"
     inkscape:window-height="712"
     inkscape:window-x="663"
     inkscape:window-y="60"
     inkscape:window-maximized="0"
     showguides="true"
     inkscape:guide-bbox="true"
     gridtolerance="10"
     guidetolerance="2">
    <inkscape:grid
       type="xygrid"
       id="grid13828" />
    <sodipodi:guide
       position="0.13043093,3.8477124"
       orientation="1,0"
       id="guide20533"
       inkscape:locked="false" />
    <sodipodi:guide
       position="1.9173346,3.6129367"
       orientation="0,1"
       id="guide20535"
       inkscape:locked="false" />
  </sodipodi:namedview>
  <metadata
     id="metadata13823">
    <rdf:RDF>
      <cc:Work
         rdf:about="">
        <dc:format>image/svg+xml</dc:format>
        <dc:type
           rdf:resource="http://purl.org/dc/dcmitype/StillImage" />
        <dc:title></dc:title>
      </cc:Work>
    </rdf:RDF>
  </metadata>
  <g
     inkscape:label="Layer 1"
     inkscape:groupmode="layer"
     id="layer1"
     transform="translate(0,-293.25)">
    <path
       inkscape:connector-curvature="0"
       id="path13751"
       d="m 0.5518456,293.46189 c -0.19154775,0 -0.34726738,0.15572 -0.34726738,0.34727 v 2.65272 c 0,0.19017 0.15571963,0.34589 0.34726738,0.34589 h 2.6527231 c 0.1915477,0 0.3458879,-0.15572 0.3458879,-0.34589 v -2.65272 c 0,-0.19155 -0.1543402,-0.34727 -0.3458879,-0.34727 z m 0,0"
       style="fill:#ffffff;fill-opacity:1;fill-rule:nonzero;stroke:none;stroke-width:0.35277775" />
    <path
       inkscape:connector-curvature="0"
       id="path13753"
       d="m 3.2045687,296.87805 c 0.2301311,0 0.4175442,-0.18604 0.4175442,-0.41617 v -2.6541 c 0,-0.22876 -0.1874131,-0.41617 -0.4175442,-0.41617 H 0.5518456 c -0.23013458,0 -0.41754777,0.18741 -0.41754777,0.41617 v 2.6541 c 0,0.23013 0.18741319,0.41617 0.41754777,0.41617 z m 0,0"
       style="fill:#211e1e;fill-opacity:1;fill-rule:nonzero;stroke:none;stroke-width:0.35277775" />
    <path
       inkscape:connector-curvature="0"
       id="path13755"
       d="m 2.2041121,294.17709 c 0.1267813,0 0.2315104,-0.10335 0.2315104,-0.23289 0,-0.12677 -0.1047291,-0.23151 -0.2315104,-0.23151 -0.1281571,0 -0.2315104,0.10474 -0.2315104,0.23151 0,0.12954 0.1033533,0.23289 0.2315104,0.23289"
       style="fill:#ffffff;fill-opacity:1;fill-rule:nonzero;stroke:none;stroke-width:0.35277775" />
    <path
       inkscape:connector-curvature="0"
       id="path13757"
       d="m 3.1866545,294.29836 v -0.2949 c 0,-0.0937 -0.1254019,-0.18052 -0.1708785,-0.18052 -0.044097,0 -0.1694989,0.0868 -0.1694989,0.18052 v 0.2949 H 2.979948 v 0.42444 H 2.8352527 l -0.1818993,-0.28664 c -0.1419366,-0.22599 -0.2645833,-0.21083 -0.2645833,-0.21083 h -0.507118 c -0.1639853,0 -0.2576936,0.13366 -0.2576936,0.30041 v 0.71244 c 0,0.1378 0.1832786,0.1378 0.1832786,0 v -0.69315 h 0.07166 l -0.00141,1.88102 c 0,0.0717 0.057877,0.12954 0.1295365,0.12954 0.073036,0 0.1309123,-0.0579 0.1309123,-0.12954 v -1.0914 h 0.1088663 v 1.0914 c 0,0.0717 0.057877,0.12954 0.129533,0.12954 0.07166,0 0.1295364,-0.0579 0.1295364,-0.12954 l 0.00141,-1.88102 0.2259965,0.35829 h 0.2466693 v 1.65227 h 0.073036 v -1.65365 c 0.1088673,-0.0179 0.1088673,-0.15985 0,-0.17776 v -0.42582 z m 0,0"
       style="fill:#ffffff;fill-opacity:1;fill-rule:nonzero;stroke:none;stroke-width:0.35277775" />
    <path
       inkscape:connector-curvature="0"
       id="path13759"
       d="m 1.0134871,296.30203 c -0.18465805,0.0124 -0.34588807,0.11024 -0.44372744,0.25356 H 1.5330088 c -0.099219,-0.14608 -0.2645833,-0.24529 -0.4533759,-0.25356 0,-0.01 0,-0.0179 0,-0.0289 0.00141,-0.0427 0.00282,-0.0978 0.00413,-0.15434 0.00413,-0.004 0.00688,-0.008 0.011007,-0.0124 0.012418,-0.0138 0.028928,-0.0289 0.048232,-0.0441 0.00413,-0.003 0.00825,-0.005 0.013794,-0.01 0.00413,-0.003 0.00967,-0.005 0.013794,-0.008 0.00141,0 0.00282,-10e-4 0.00413,-10e-4 0.053746,0.0827 0.1598542,0.0882 0.2273759,0.0262 0.097843,-0.0896 0.081305,-0.29628 0.081305,-0.29628 -0.093705,0.0579 -0.1143776,0.0345 -0.188789,0.0413 -0.1309159,0.0124 -0.1543403,0.11714 -0.1378056,0.18604 -0.00282,0 -0.00413,0.001 -0.00688,0.003 -0.0055,0.003 -0.012418,0.006 -0.017921,0.008 -0.0055,0.004 -0.012418,0.007 -0.017921,0.011 -0.00963,0.007 -0.019297,0.0138 -0.027552,0.0207 -0.00141,-0.008 -0.00282,-0.0179 -0.00282,-0.0276 -0.00282,-0.0193 -0.00688,-0.0372 -0.012418,-0.0551 -0.00413,-0.008 -0.00688,-0.0165 -0.00963,-0.0248 -0.00282,-0.008 -0.00688,-0.0165 -0.00963,-0.0234 -0.00688,-0.0152 -0.013793,-0.0289 -0.020673,-0.0413 -0.013793,-0.0234 -0.026176,-0.0427 -0.0358281,-0.0551 0.0647665,-0.0317 0.13642623,-0.12541 0.0496111,-0.23427 -0.0468559,-0.0593 -0.0785495,-0.0579 -0.10197748,-0.16536 0,0 -0.15985067,0.13229 -0.15709548,0.26458 0.00141,0.0868 0.0730356,0.15709 0.16398523,0.14745 0.002822,0.003 0.005503,0.005 0.008255,0.01 0.008255,0.0138 0.0192968,0.0317 0.0317147,0.0551 0.005503,0.011 0.0110067,0.0248 0.0165452,0.0386 0.00282,0.007 0.0055,0.0138 0.00826,0.0207 0.00282,0.008 0.00413,0.0152 0.00688,0.0234 0.00413,0.0152 0.00688,0.0303 0.00826,0.0469 0,0.007 0.00141,0.0152 0.00141,0.0234 l -0.00141,0.0124 v 0.0138 c -0.00141,0.0179 -0.00413,0.0386 -0.0055,0.0565 -0.011007,-0.004 -0.0248002,-0.01 -0.0372075,-0.0124 -0.0206727,-0.007 -0.0399627,-0.011 -0.0537422,-0.0138 -0.00141,0 -0.00141,0 -0.00141,0 0.0192969,-0.0689 0,-0.17638 -0.13229166,-0.19154 -0.0744114,-0.008 -0.09646,0.0138 -0.18878902,-0.0455 0,0 -0.0206727,0.20671 0.0744114,0.29904 0.0661458,0.0634 0.17363368,0.0593 0.23013458,-0.0234 0.00141,0 0.004128,0.001 0.006879,0.001 0.0124177,0.004 0.0316794,0.011 0.0482318,0.0179 0.017921,0.008 0.0344664,0.0152 0.0454731,0.022 0.00141,10e-4 0.00282,0.003 0.00413,0.003 -0.00282,0.0317 -0.00413,0.0606 -0.0055,0.0868 -0.00141,0.011 -0.00141,0.0207 -0.00141,0.0303"
       style="fill:#ffffff;fill-opacity:1;fill-rule:nonzero;stroke:none;stroke-width:0.35277775" />
  </g>
</svg>
