<?xml version="1.0" encoding="UTF-8" standalone="no"?>
<!-- Created with Inkscape (http://www.inkscape.org/) -->

<svg
   xmlns:dc="http://purl.org/dc/elements/1.1/"
   xmlns:cc="http://creativecommons.org/ns#"
   xmlns:rdf="http://www.w3.org/1999/02/22-rdf-syntax-ns#"
   xmlns:svg="http://www.w3.org/2000/svg"
   xmlns="http://www.w3.org/2000/svg"
   xmlns:sodipodi="http://sodipodi.sourceforge.net/DTD/sodipodi-0.dtd"
   xmlns:inkscape="http://www.inkscape.org/namespaces/inkscape"
   width="3.75mm"
   height="3.75mm"
   viewBox="0 0 3.75 3.75"
   version="1.1"
   id="svg13826"
   inkscape:version="0.92.1 r15371"
   sodipodi:docname="sea_lion_viewing_light.svg">
  <defs
     id="defs13820" />
  <sodipodi:namedview
     id="base"
     pagecolor="#ffffff"
     bordercolor="#666666"
     borderopacity="1.0"
     inkscape:pageopacity="0.0"
     inkscape:pageshadow="2"
     inkscape:zoom="30.586462"
     inkscape:cx="6.9619327"
     inkscape:cy="6.5754939"
     inkscape:document-units="mm"
     inkscape:current-layer="layer1"
     showgrid="false"
     inkscape:window-width="742"
     inkscape:window-height="651"
     inkscape:window-x="625"
     inkscape:window-y="55"
     inkscape:window-maximized="0"
     showguides="true"
     inkscape:guide-bbox="true"
     gridtolerance="10"
     guidetolerance="2">
    <inkscape:grid
       type="xygrid"
       id="grid13828" />
    <sodipodi:guide
       position="0.13043093,3.8477124"
       orientation="1,0"
       id="guide20533"
       inkscape:locked="false" />
    <sodipodi:guide
       position="1.9173346,3.6129367"
       orientation="0,1"
       id="guide20535"
       inkscape:locked="false" />
  </sodipodi:namedview>
  <metadata
     id="metadata13823">
    <rdf:RDF>
      <cc:Work
         rdf:about="">
        <dc:format>image/svg+xml</dc:format>
        <dc:type
           rdf:resource="http://purl.org/dc/dcmitype/StillImage" />
        <dc:title></dc:title>
      </cc:Work>
    </rdf:RDF>
  </metadata>
  <g
     inkscape:label="Layer 1"
     inkscape:groupmode="layer"
     id="layer1"
     transform="translate(0,-293.25)">
    <path
       inkscape:connector-curvature="0"
       id="path6105"
       d="m 3.091948,296.74736 c 0.2218619,0 0.4010059,-0.17914 0.4010059,-0.401 v -2.55075 c 0,-0.22187 -0.179144,-0.40101 -0.4010059,-0.40101 H 0.54119899 c -0.2218655,0 -0.4010096,0.17914 -0.4010096,0.40101 v 2.55075 c 0,0.22186 0.1791441,0.401 0.4010096,0.401 z m 0,0"
       style="fill:#211e1e;fill-opacity:1;fill-rule:nonzero;stroke:none;stroke-width:0.35277775" />
    <path
       inkscape:connector-curvature="0"
       id="path6107"
       d="m 0.54119899,293.46626 c -0.1832787,0 -0.3307292,0.14745 -0.3307292,0.32935 v 2.55075 c 0,0.18328 0.1474505,0.33073 0.3307292,0.33073 H 3.091948 c 0.1818992,0 0.3293499,-0.14745 0.3293499,-0.33073 v -2.55075 c 0,-0.1819 -0.1474507,-0.32935 -0.3293499,-0.32935 z m 0,0"
       style="fill:#ffffff;fill-opacity:1;fill-rule:nonzero;stroke:none;stroke-width:0.35277775" />
    <path
       inkscape:connector-curvature="0"
       id="path6109"
       d="m 2.7694844,294.39643 v 0.64906 c 0,0.15985 -0.048232,0.3073 -0.1309123,0.43132 0.016545,0.0193 0.033055,0.0455 0.046852,0.0758 0.039963,0.0923 0.019297,0.19568 -0.044097,0.26596 l -0.3334843,0.34451 c -0.00413,0.007 -0.013793,0.0138 -0.022048,0.0193 -0.028928,0.0124 -0.062011,-0.001 -0.073036,-0.0289 -0.0055,-0.0124 -0.00688,-0.0262 -0.00282,-0.0372 l 0.068901,-0.3514 c -0.086819,0.0345 -0.1819028,0.0524 -0.2811215,0.0524 l -0.7468941,-10e-4 c 0.2011927,0.13643 0.2011927,0.40239 0.1998133,0.4079 -0.00141,0.0179 -0.00282,0.0317 -0.00963,0.0482 -0.00688,0.0207 -0.020673,0.0441 -0.052366,0.0345 l -0.45337591,-0.35691 c -0.2080824,-0.14883 -0.3858507,-0.3955 -0.2990321,-0.64768 0.060632,-0.17363 0.2328863,-0.24666 0.40100961,-0.2756 l 0.9453315,-0.19017 0.4120339,-0.74139 c 0.050987,-0.0868 0.1832786,-0.1502 0.271473,-0.14469 0.089574,0.007 0.1529645,0.0303 0.2149757,0.0854 l 0.203948,0.0441 c 0.022048,10e-4 0.038587,0.0179 0.037207,0.04 l -0.023424,0.0827 c -0.00826,0.0179 -0.015169,0.0317 -0.033055,0.0441 z m 0,0"
       style="fill:#211e1e;fill-opacity:1;fill-rule:nonzero;stroke:none;stroke-width:0.35277775" />
  </g>
</svg>
