<?xml version="1.0" encoding="UTF-8" standalone="no"?>
<!-- Created with Inkscape (http://www.inkscape.org/) -->

<svg
   xmlns:dc="http://purl.org/dc/elements/1.1/"
   xmlns:cc="http://creativecommons.org/ns#"
   xmlns:rdf="http://www.w3.org/1999/02/22-rdf-syntax-ns#"
   xmlns:svg="http://www.w3.org/2000/svg"
   xmlns="http://www.w3.org/2000/svg"
   xmlns:sodipodi="http://sodipodi.sourceforge.net/DTD/sodipodi-0.dtd"
   xmlns:inkscape="http://www.inkscape.org/namespaces/inkscape"
   width="3.75mm"
   height="3.75mm"
   viewBox="0 0 3.75 3.75"
   version="1.1"
   id="svg13826"
   inkscape:version="0.92.1 r15371"
   sodipodi:docname="tidepool_light.svg">
  <defs
     id="defs13820" />
  <sodipodi:namedview
     id="base"
     pagecolor="#ffffff"
     bordercolor="#666666"
     borderopacity="1.0"
     inkscape:pageopacity="0.0"
     inkscape:pageshadow="2"
     inkscape:zoom="30.586462"
     inkscape:cx="6.9619327"
     inkscape:cy="6.5754939"
     inkscape:document-units="mm"
     inkscape:current-layer="layer1"
     showgrid="false"
     inkscape:window-width="742"
     inkscape:window-height="651"
     inkscape:window-x="625"
     inkscape:window-y="55"
     inkscape:window-maximized="0"
     showguides="true"
     inkscape:guide-bbox="true"
     gridtolerance="10"
     guidetolerance="2">
    <inkscape:grid
       type="xygrid"
       id="grid13828" />
    <sodipodi:guide
       position="0.13043093,3.8477124"
       orientation="1,0"
       id="guide20533"
       inkscape:locked="false" />
    <sodipodi:guide
       position="1.9173346,3.6129367"
       orientation="0,1"
       id="guide20535"
       inkscape:locked="false" />
  </sodipodi:namedview>
  <metadata
     id="metadata13823">
    <rdf:RDF>
      <cc:Work
         rdf:about="">
        <dc:format>image/svg+xml</dc:format>
        <dc:type
           rdf:resource="http://purl.org/dc/dcmitype/StillImage" />
        <dc:title></dc:title>
      </cc:Work>
    </rdf:RDF>
  </metadata>
  <g
     inkscape:label="Layer 1"
     inkscape:groupmode="layer"
     id="layer1"
     transform="translate(0,-293.25)">
    <path
       inkscape:connector-curvature="0"
       id="path9683"
       d="m 0.55007285,296.88477 c -0.23013106,0 -0.41754425,-0.18741 -0.41754425,-0.41754 v -2.65411 c 0,-0.23013 0.18741319,-0.41754 0.41754425,-0.41754 H 3.205551 c 0.2301346,0 0.4161685,0.18741 0.4161685,0.41754 v 2.65411 c 0,0.23013 -0.1860339,0.41754 -0.4161685,0.41754 z m 0,0"
       style="fill:#211e1e;fill-opacity:1;fill-rule:nonzero;stroke:none;stroke-width:0.35277775" />
    <path
       inkscape:connector-curvature="0"
       id="path9685"
       d="m 0.55007285,293.46586 c -0.19154776,0 -0.34588803,0.15572 -0.34588803,0.34726 v 2.65411 c 0,0.19017 0.15434027,0.34588 0.34588803,0.34588 H 3.205551 c 0.190172,0 0.345888,-0.15571 0.345888,-0.34588 v -2.65411 c 0,-0.19154 -0.155716,-0.34726 -0.345888,-0.34726 z m 0,0"
       style="fill:#ffffff;fill-opacity:1;fill-rule:nonzero;stroke:none;stroke-width:0.35277775" />
    <path
       inkscape:connector-curvature="0"
       id="path9687"
       d="m 1.4402864,294.8563 c 0.0055,-0.003 0.012382,-0.004 0.019297,-0.005 0.056501,-0.0165 0.1267813,-0.051 0.1543403,-0.10612 0.022049,-0.0427 0.035832,-0.0978 0.046856,-0.14331 0.037208,-0.14883 0.038583,-0.30317 0.067522,-0.45337 0.013794,-0.073 0.033055,-0.14608 0.067525,-0.21222 0.022048,-0.04 0.1185121,-0.20257 0.184658,-0.14332 0.026176,0.0248 0.013794,0.0786 0.00826,0.10887 -0.013794,0.0951 -0.00282,0.1943 0.0055,0.28938 0.00963,0.10474 0.020673,0.20809 0.044097,0.31144 0.027552,0.12816 0.082681,0.25218 0.1956823,0.32797 0.1557162,0.10336 0.3431293,0.12265 0.5250321,0.10749 0.1005946,-0.01 0.1998134,-0.0276 0.2990321,-0.0496 0.033055,-0.007 0.2177309,-0.0717 0.2177309,0.004 0.0014,0.022 -0.024799,0.0496 -0.037207,0.0661 -0.030304,0.0358 -0.068901,0.062 -0.1102431,0.0827 -0.2246207,0.11162 -0.5346772,0.0537 -0.7000417,0.27422 -0.2384002,0.31695 0.062011,0.6656 0.2425347,0.92605 0.019297,0.0303 0.038583,0.0593 0.059256,0.0882 0.026176,0.0413 0.073036,0.0923 0.08406,0.14056 0.00688,0.0303 -0.00688,0.0648 -0.034466,0.0813 -0.073036,0.0455 -0.1364262,-0.0551 -0.1777647,-0.1006 -0.055122,-0.0634 -0.1074879,-0.12678 -0.1626094,-0.18741 -0.1198915,-0.13505 -0.2480487,-0.26596 -0.3996302,-0.36656 -0.085439,-0.0565 -0.2328898,-0.0469 -0.3252188,-0.0152 -0.1005981,0.0358 -0.184658,0.10473 -0.2618281,0.17777 -0.1033533,0.0992 -0.1970581,0.20946 -0.3073012,0.30316 -0.027552,0.0234 -0.1405608,0.1323 -0.16674394,0.073 -0.026176,-0.0579 0.0358316,-0.16123 0.0592561,-0.21222 0.066146,-0.14056 0.1639887,-0.2632 0.2384001,-0.39825 0.035832,-0.0634 0.067525,-0.13091 0.085439,-0.2012 0.013794,-0.0593 0.027552,-0.15434 0,-0.21221 -0.1419366,-0.28112 -0.44924137,-0.35416 -0.69453128,-0.51125 -0.0303036,-0.0193 -0.0606319,-0.0414 -0.0868151,-0.0648 -0.0206728,-0.0165 -0.0978429,-0.0675 -0.0661458,-0.10198 0.0220485,-0.0234 0.068901,-0.007 0.092329,0.004 0.0675216,0.0303 0.13504685,0.0524 0.20670305,0.0703 0.0482318,0.0124 0.0992188,0.0138 0.14745055,0.0207 0.15985418,0.0221 0.31970488,0.0675 0.47955908,0.0276"
       style="fill:#211e1e;fill-opacity:1;fill-rule:nonzero;stroke:none;stroke-width:0.35277775" />
  </g>
</svg>
