<?xml version="1.0" encoding="UTF-8" standalone="no"?>
<!-- Created with Inkscape (http://www.inkscape.org/) -->

<svg
   xmlns:dc="http://purl.org/dc/elements/1.1/"
   xmlns:cc="http://creativecommons.org/ns#"
   xmlns:rdf="http://www.w3.org/1999/02/22-rdf-syntax-ns#"
   xmlns:svg="http://www.w3.org/2000/svg"
   xmlns="http://www.w3.org/2000/svg"
   xmlns:sodipodi="http://sodipodi.sourceforge.net/DTD/sodipodi-0.dtd"
   xmlns:inkscape="http://www.inkscape.org/namespaces/inkscape"
   width="3.75mm"
   height="3.75mm"
   viewBox="0 0 3.75 3.75"
   version="1.1"
   id="svg13826"
   inkscape:version="0.92.1 r15371"
   sodipodi:docname="viewing_dark.svg">
  <defs
     id="defs13820" />
  <sodipodi:namedview
     id="base"
     pagecolor="#ffffff"
     bordercolor="#666666"
     borderopacity="1.0"
     inkscape:pageopacity="0.0"
     inkscape:pageshadow="2"
     inkscape:zoom="30.586462"
     inkscape:cx="6.9619327"
     inkscape:cy="6.5754939"
     inkscape:document-units="mm"
     inkscape:current-layer="layer1"
     showgrid="false"
     inkscape:window-width="742"
     inkscape:window-height="651"
     inkscape:window-x="624"
     inkscape:window-y="54"
     inkscape:window-maximized="0"
     showguides="true"
     inkscape:guide-bbox="true"
     gridtolerance="10"
     guidetolerance="2">
    <inkscape:grid
       type="xygrid"
       id="grid13828" />
    <sodipodi:guide
       position="0.13043093,3.8477124"
       orientation="1,0"
       id="guide20533"
       inkscape:locked="false" />
    <sodipodi:guide
       position="1.9173346,3.6129367"
       orientation="0,1"
       id="guide20535"
       inkscape:locked="false" />
  </sodipodi:namedview>
  <metadata
     id="metadata13823">
    <rdf:RDF>
      <cc:Work
         rdf:about="">
        <dc:format>image/svg+xml</dc:format>
        <dc:type
           rdf:resource="http://purl.org/dc/dcmitype/StillImage" />
        <dc:title></dc:title>
      </cc:Work>
    </rdf:RDF>
  </metadata>
  <g
     inkscape:label="Layer 1"
     inkscape:groupmode="layer"
     id="layer1"
     transform="translate(0,-293.25)">
    <path
       inkscape:connector-curvature="0"
       id="path1765"
       d="m 0.55076251,293.44993 c -0.1915478,0 -0.345888,0.15572 -0.345888,0.34589 v 2.6541 c 0,0.19017 0.1543402,0.34451 0.345888,0.34451 H 3.2034855 c 0.1915478,0 0.3472672,-0.15434 0.3472672,-0.34451 v -2.6541 c 0,-0.19017 -0.1557194,-0.34589 -0.3472672,-0.34589 z m 0,0"
       style="fill:#ffffff;fill-opacity:1;fill-rule:nonzero;stroke:none;stroke-width:0.35277775" />
    <path
       inkscape:connector-curvature="0"
       id="path1767"
       d="m 3.2034855,296.86609 c 0.2301309,0 0.4175443,-0.18604 0.4175443,-0.41617 v -2.6541 c 0,-0.23013 -0.1874134,-0.41617 -0.4175443,-0.41617 H 0.55076251 c -0.2301311,0 -0.4175443,0.18604 -0.4175443,0.41617 v 2.6541 c 0,0.23013 0.1874132,0.41617 0.4175443,0.41617 z m 0,0"
       style="fill:#211e1e;fill-opacity:1;fill-rule:nonzero;stroke:none;stroke-width:0.35277775" />
    <path
       inkscape:connector-curvature="0"
       id="path1769"
       d="M 0.60726341,293.95291 H 1.6173649 v 0.0978 h -0.097843 v 0.10886 l -0.91225849,0.0786 z m 0,0"
       style="fill:#ffffff;fill-opacity:1;fill-rule:nonzero;stroke:none;stroke-width:0.35277775" />
    <path
       inkscape:connector-curvature="0"
       id="path1771"
       d="m 2.0417989,294.24506 c 0.1295364,0 0.2328897,-0.10335 0.2328897,-0.23289 0,-0.12816 -0.1033533,-0.23289 -0.2328897,-0.23289 -0.1281572,0 -0.2328863,0.10473 -0.2328863,0.23289 0,0.12954 0.1047291,0.23289 0.2328863,0.23289"
       style="fill:#ffffff;fill-opacity:1;fill-rule:nonzero;stroke:none;stroke-width:0.35277775" />
    <path
       inkscape:connector-curvature="0"
       id="path1773"
       d="m 2.2181877,294.23266 c 0.067525,-0.0661 0.1750131,-0.0661 0.2411589,0 l 0.5043592,0.50298 c 0.019296,0.0193 0.031715,0.0469 0.031715,0.0758 v 1.51171 c 0,0.10335 -0.08406,0.18741 -0.1887926,0.18741 -0.1033532,0 -0.1887924,-0.0841 -0.1887924,-0.18741 v -1.24712 l -0.4699106,-0.47129 -0.188789,0.18879 c -0.020673,0.0248 -0.052366,0.0413 -0.089574,0.0413 -0.033055,0 -0.063391,-0.0138 -0.085439,-0.0372 l -0.3238394,-0.32521 c -0.041338,-0.0482 -0.037204,-0.12265 0.011007,-0.16399 0.049611,-0.0413 0.1226467,-0.0345 0.1639887,0.0138 l 0.2452899,0.24805 z m 0,0"
       style="fill:#ffffff;fill-opacity:1;fill-rule:nonzero;stroke:none;stroke-width:0.35277775" />
    <path
       inkscape:connector-curvature="0"
       id="path1775"
       d="m 1.2384039,294.30432 c -0.0055,-0.0234 -0.0248,-0.04 -0.048232,-0.04 -0.0248,0 -0.044097,0.0179 -0.048232,0.0413 l -0.078549,0.44924 v 1.7446 h 0.6655933 v -0.24805 H 1.3197086 l -0.00282,-1.49655 z m 0,0"
       style="fill:#ffffff;fill-opacity:1;fill-rule:nonzero;stroke:none;stroke-width:0.35277775" />
  </g>
</svg>
