<?xml version="1.0" encoding="UTF-8" standalone="no"?>
<!-- Created with Inkscape (http://www.inkscape.org/) -->

<svg
   xmlns:dc="http://purl.org/dc/elements/1.1/"
   xmlns:cc="http://creativecommons.org/ns#"
   xmlns:rdf="http://www.w3.org/1999/02/22-rdf-syntax-ns#"
   xmlns:svg="http://www.w3.org/2000/svg"
   xmlns="http://www.w3.org/2000/svg"
   xmlns:sodipodi="http://sodipodi.sourceforge.net/DTD/sodipodi-0.dtd"
   xmlns:inkscape="http://www.inkscape.org/namespaces/inkscape"
   width="3.75mm"
   height="3.75mm"
   viewBox="0 0 3.75 3.75"
   version="1.1"
   id="svg13826"
   inkscape:version="0.92.1 r15371"
   sodipodi:docname="whale_viewing_light.svg">
  <defs
     id="defs13820" />
  <sodipodi:namedview
     id="base"
     pagecolor="#ffffff"
     bordercolor="#666666"
     borderopacity="1.0"
     inkscape:pageopacity="0.0"
     inkscape:pageshadow="2"
     inkscape:zoom="30.586462"
     inkscape:cx="6.9619327"
     inkscape:cy="6.5754939"
     inkscape:document-units="mm"
     inkscape:current-layer="layer1"
     showgrid="false"
     inkscape:window-width="742"
     inkscape:window-height="651"
     inkscape:window-x="624"
     inkscape:window-y="54"
     inkscape:window-maximized="0"
     showguides="true"
     inkscape:guide-bbox="true"
     gridtolerance="10"
     guidetolerance="2">
    <inkscape:grid
       type="xygrid"
       id="grid13828" />
    <sodipodi:guide
       position="0.13043093,3.8477124"
       orientation="1,0"
       id="guide20533"
       inkscape:locked="false" />
    <sodipodi:guide
       position="1.9173346,3.6129367"
       orientation="0,1"
       id="guide20535"
       inkscape:locked="false" />
  </sodipodi:namedview>
  <metadata
     id="metadata13823">
    <rdf:RDF>
      <cc:Work
         rdf:about="">
        <dc:format>image/svg+xml</dc:format>
        <dc:type
           rdf:resource="http://purl.org/dc/dcmitype/StillImage" />
        <dc:title></dc:title>
      </cc:Work>
    </rdf:RDF>
  </metadata>
  <g
     inkscape:label="Layer 1"
     inkscape:groupmode="layer"
     id="layer1"
     transform="translate(0,-293.25)">
    <path
       inkscape:connector-curvature="0"
       id="path6111"
       d="m 3.2027976,296.86609 c 0.2315104,0 0.4175442,-0.18604 0.4175442,-0.41755 v -2.65272 c 0,-0.23014 -0.1860338,-0.41617 -0.4175442,-0.41617 H 0.55007461 c -0.23013106,0 -0.41616842,0.18603 -0.41616842,0.41617 v 2.65272 c 0,0.23151 0.18603736,0.41755 0.41616842,0.41755 z m 0,0"
       style="fill:#211e1e;fill-opacity:1;fill-rule:nonzero;stroke:none;stroke-width:0.35277775" />
    <path
       inkscape:connector-curvature="0"
       id="path6113"
       d="m 0.55007461,293.44993 c -0.1901684,0 -0.34588803,0.15572 -0.34588803,0.34589 v 2.6541 c 0,0.19017 0.15571963,0.34589 0.34588803,0.34589 H 3.2027976 c 0.1915477,0 0.3472672,-0.15572 0.3472672,-0.34589 v -2.6541 c 0,-0.19017 -0.1557195,-0.34589 -0.3472672,-0.34589 z m 0,0"
       style="fill:#ffffff;fill-opacity:1;fill-rule:nonzero;stroke:none;stroke-width:0.35277775" />
    <path
       inkscape:connector-curvature="0"
       id="path6115"
       d="m 3.2689434,296.5202 c -0.060632,0 -0.1185121,-0.0138 -0.1694992,-0.0386 -0.053742,-0.0248 -0.1143775,-0.0386 -0.176389,-0.0386 -0.062011,0 -0.1226431,0.0138 -0.1750094,0.0386 -0.052366,0.0248 -0.110243,0.0386 -0.1708785,0.0386 -0.060632,0 -0.1185086,-0.0138 -0.1708749,-0.0386 -0.052366,-0.0248 -0.1129983,-0.0386 -0.1750131,-0.0386 -0.062011,0 -0.1226432,0.0138 -0.1750095,0.0386 -0.052366,0.0248 -0.1102431,0.0386 -0.170875,0.0386 -0.060635,0 -0.1185122,-0.0138 -0.1708785,-0.0386 -0.052366,-0.0248 -0.1129982,-0.0386 -0.1750095,-0.0386 -0.062011,0 -0.1226467,0.0138 -0.1763889,0.0386 -0.050987,0.0248 -0.1088672,0.0386 -0.1694991,0.0386 -0.060636,0 -0.1185122,-0.0138 -0.1694991,-0.0386 -0.0537422,-0.0248 -0.11437757,-0.0386 -0.17638887,-0.0386 -0.0620113,0 -0.12126735,0.0138 -0.17500952,0.0386 -0.0523663,0.0248 -0.11024304,0.0386 -0.1708785,0.0386 v -0.25632 c 0.0606355,0 0.11851217,-0.0138 0.1708785,-0.0372 0.0537422,-0.0234 0.11299825,-0.0386 0.17500952,-0.0386 0.0620113,0 0.12264673,0.0152 0.17638887,0.0386 0.050987,0.0234 0.1088637,0.0372 0.1694991,0.0372 0.060632,0 0.1185121,-0.0138 0.1694991,-0.0372 0.053742,-0.0234 0.1143776,-0.0386 0.1763889,-0.0386 0.062011,0 0.1226432,0.0152 0.1750095,0.0386 0.052366,0.0234 0.1102431,0.0372 0.1708785,0.0372 0.060632,0 0.1185086,-0.0138 0.170875,-0.0372 0.052366,-0.0234 0.1129982,-0.0386 0.1750095,-0.0386 0.062015,0 0.1226467,0.0152 0.1750131,0.0386 0.052366,0.0234 0.110243,0.0372 0.1708749,0.0372 0.060636,0 0.1185122,-0.0138 0.1708785,-0.0372 0.052366,-0.0234 0.1129982,-0.0386 0.1750094,-0.0386 0.062012,0 0.1226468,0.0152 0.176389,0.0386 0.050987,0.0234 0.1088673,0.0372 0.1694992,0.0372 z m 0,0"
       style="fill:#211e1e;fill-opacity:1;fill-rule:nonzero;stroke:none;stroke-width:0.35277775" />
    <path
       inkscape:connector-curvature="0"
       id="path6117"
       d="m 2.151354,295.99241 c 0.026176,-0.007 0.052366,-0.008 0.079925,-0.008 0.062015,0 0.1226467,0.0138 0.1750131,0.0386 0.052366,0.0221 0.110243,0.0358 0.1708749,0.0358 0.060636,0 0.1185122,-0.0138 0.1708785,-0.0358 0.035828,-0.0179 0.075791,-0.0303 0.1171329,-0.0358 -0.022049,-0.68488 -0.7372492,-1.29673 -0.7717015,-1.32843 -0.034466,-0.0317 -0.067525,-0.10197 -0.044097,-0.18465 l 0.170875,-0.56362 c 0.030304,-0.0882 0.015169,-0.20533 -0.027552,-0.23978 -0.023424,-0.0207 -0.074415,-0.0345 -0.1088636,0.006 l -0.4630209,0.52504 c -0.1005981,0.10748 -0.016545,0.22186 -0.017921,0.22186 -0.1570955,-0.0565 -0.3417534,-0.0193 -0.4533723,0.0276 l -0.38171606,0.19293 c -0.0385868,0.0165 -0.0551215,0.0634 -0.0358316,0.0965 0.06477,0.1006 0.27423186,0.10197 0.71244866,0.0537 0.7069315,-0.0744 0.7083109,1.05834 0.7069315,1.1989"
       style="fill:#211e1e;fill-opacity:1;fill-rule:nonzero;stroke:none;stroke-width:0.35277775" />
  </g>
</svg>
