<?xml version="1.0" encoding="UTF-8" standalone="no"?>
<!-- Created with Inkscape (http://www.inkscape.org/) -->

<svg
   xmlns:dc="http://purl.org/dc/elements/1.1/"
   xmlns:cc="http://creativecommons.org/ns#"
   xmlns:rdf="http://www.w3.org/1999/02/22-rdf-syntax-ns#"
   xmlns:svg="http://www.w3.org/2000/svg"
   xmlns="http://www.w3.org/2000/svg"
   xmlns:sodipodi="http://sodipodi.sourceforge.net/DTD/sodipodi-0.dtd"
   xmlns:inkscape="http://www.inkscape.org/namespaces/inkscape"
   width="3.75mm"
   height="3.75mm"
   viewBox="0 0 3.75 3.75"
   version="1.1"
   id="svg13826"
   inkscape:version="0.92.1 r15371"
   sodipodi:docname="whale_viewing_dark.svg">
  <defs
     id="defs13820" />
  <sodipodi:namedview
     id="base"
     pagecolor="#ffffff"
     bordercolor="#666666"
     borderopacity="1.0"
     inkscape:pageopacity="0.0"
     inkscape:pageshadow="2"
     inkscape:zoom="30.586462"
     inkscape:cx="6.9619327"
     inkscape:cy="6.5754939"
     inkscape:document-units="mm"
     inkscape:current-layer="layer1"
     showgrid="false"
     inkscape:window-width="742"
     inkscape:window-height="651"
     inkscape:window-x="624"
     inkscape:window-y="54"
     inkscape:window-maximized="0"
     showguides="true"
     inkscape:guide-bbox="true"
     gridtolerance="10"
     guidetolerance="2">
    <inkscape:grid
       type="xygrid"
       id="grid13828" />
    <sodipodi:guide
       position="0.13043093,3.8477124"
       orientation="1,0"
       id="guide20533"
       inkscape:locked="false" />
    <sodipodi:guide
       position="1.9173346,3.6129367"
       orientation="0,1"
       id="guide20535"
       inkscape:locked="false" />
  </sodipodi:namedview>
  <metadata
     id="metadata13823">
    <rdf:RDF>
      <cc:Work
         rdf:about="">
        <dc:format>image/svg+xml</dc:format>
        <dc:type
           rdf:resource="http://purl.org/dc/dcmitype/StillImage" />
        <dc:title></dc:title>
      </cc:Work>
    </rdf:RDF>
  </metadata>
  <g
     inkscape:label="Layer 1"
     inkscape:groupmode="layer"
     id="layer1"
     transform="translate(0,-293.25)">
    <path
       inkscape:connector-curvature="0"
       id="path5989"
       d="m 0.55803343,293.45858 c -0.1901683,0 -0.3445086,0.15572 -0.3445086,0.34589 v 2.6541 c 0,0.19017 0.1543403,0.34589 0.3445086,0.34589 H 3.2121359 c 0.1901682,0 0.3458879,-0.15572 0.3458879,-0.34589 v -2.6541 c 0,-0.19017 -0.1557197,-0.34589 -0.3458879,-0.34589 z m 0,0"
       style="fill:#ffffff;fill-opacity:1;fill-rule:nonzero;stroke:none;stroke-width:0.35277775" />
    <path
       inkscape:connector-curvature="0"
       id="path5991"
       d="m 3.2121359,296.87474 c 0.2301309,0 0.4161684,-0.18604 0.4161684,-0.41755 v -2.65272 c 0,-0.23014 -0.1860375,-0.41617 -0.4161684,-0.41617 H 0.55941283 c -0.2315104,0 -0.4161684,0.18603 -0.4161684,0.41617 v 2.65272 c 0,0.23151 0.184658,0.41755 0.4161684,0.41755 z m 0,0"
       style="fill:#211e1e;fill-opacity:1;fill-rule:nonzero;stroke:none;stroke-width:0.35277775" />
    <path
       inkscape:connector-curvature="0"
       id="path5993"
       d="m 3.2782817,296.52885 c -0.060632,0 -0.1185121,-0.0138 -0.170875,-0.0386 -0.053746,-0.0248 -0.1130017,-0.0386 -0.1750132,-0.0386 -0.06339,0 -0.1226431,0.0138 -0.1763887,0.0386 -0.050987,0.0248 -0.1102431,0.0386 -0.1694992,0.0386 -0.060632,0 -0.119888,-0.0138 -0.1708749,-0.0386 -0.053746,-0.0248 -0.1129983,-0.0386 -0.1763889,-0.0386 -0.062011,0 -0.1212674,0.0138 -0.1750131,0.0386 -0.050987,0.0248 -0.110243,0.0386 -0.170875,0.0386 -0.060635,0 -0.1185121,-0.0138 -0.1694991,-0.0386 -0.053742,-0.0248 -0.1129982,-0.0386 -0.1763889,-0.0386 -0.062011,0 -0.1212673,0.0138 -0.1750095,0.0386 -0.052366,0.0248 -0.1102431,0.0386 -0.1708785,0.0386 -0.060632,0 -0.1185122,-0.0138 -0.1694991,-0.0386 -0.053742,-0.0248 -0.11299827,-0.0386 -0.17500957,-0.0386 -0.063391,0 -0.1226467,0.0138 -0.1763888,0.0386 -0.052366,0.0248 -0.1102431,0.0386 -0.1708785,0.0386 v -0.25632 c 0.060635,0 0.1185121,-0.0138 0.1708785,-0.0372 0.053742,-0.0234 0.1129982,-0.0386 0.1763888,-0.0386 0.062011,0 0.1212674,0.0152 0.17500957,0.0386 0.050987,0.0234 0.1088672,0.0372 0.1694991,0.0372 0.060635,0 0.1185122,-0.0138 0.1708785,-0.0372 0.053742,-0.0234 0.1129983,-0.0386 0.1750095,-0.0386 0.063391,0 0.1226468,0.0152 0.1763889,0.0386 0.050987,0.0234 0.1088637,0.0372 0.1694991,0.0372 0.060632,0 0.119888,-0.0138 0.170875,-0.0372 0.053746,-0.0234 0.1130018,-0.0386 0.1750131,-0.0386 0.063391,0 0.1226431,0.0152 0.1763889,0.0386 0.050987,0.0234 0.110243,0.0372 0.1708749,0.0372 0.059256,0 0.1185122,-0.0138 0.1694992,-0.0372 0.053746,-0.0234 0.1129983,-0.0386 0.1763887,-0.0386 0.062012,0 0.1212676,0.0152 0.1750132,0.0386 0.052363,0.0234 0.1102431,0.0372 0.170875,0.0372 z m 0,0"
       style="fill:#ffffff;fill-opacity:1;fill-rule:nonzero;stroke:none;stroke-width:0.35277775" />
    <path
       inkscape:connector-curvature="0"
       id="path5995"
       d="m 2.1606923,296.00106 c 0.026176,-0.007 0.052366,-0.008 0.078549,-0.008 0.063391,0 0.1226431,0.0138 0.1763889,0.0386 0.050987,0.0221 0.110243,0.0358 0.1708749,0.0358 0.059256,0 0.1185122,-0.0138 0.1694992,-0.0358 0.037207,-0.0179 0.075794,-0.0303 0.1185122,-0.0358 -0.023425,-0.68488 -0.7386286,-1.29673 -0.7717015,-1.32843 -0.035828,-0.0317 -0.067525,-0.10197 -0.045476,-0.18465 l 0.1708784,-0.56362 c 0.030304,-0.0882 0.015169,-0.20533 -0.026176,-0.23978 -0.0248,-0.0207 -0.075791,-0.0345 -0.110243,0.006 l -0.4616415,0.52504 c -0.1019774,0.10748 -0.016545,0.22186 -0.019297,0.22186 -0.1570955,-0.0565 -0.3417535,-0.0193 -0.4533759,0.0276 l -0.38171607,0.19293 c -0.037208,0.0165 -0.055121,0.0634 -0.034466,0.0965 0.063391,0.1006 0.27285237,0.10197 0.71106947,0.0537 0.7083107,-0.0744 0.7083107,1.05834 0.7083107,1.1989"
       style="fill:#ffffff;fill-opacity:1;fill-rule:nonzero;stroke:none;stroke-width:0.35277775" />
  </g>
</svg>
