<?xml version="1.0" encoding="UTF-8" standalone="no"?>
<!-- Created with Inkscape (http://www.inkscape.org/) -->

<svg
   xmlns:dc="http://purl.org/dc/elements/1.1/"
   xmlns:cc="http://creativecommons.org/ns#"
   xmlns:rdf="http://www.w3.org/1999/02/22-rdf-syntax-ns#"
   xmlns:svg="http://www.w3.org/2000/svg"
   xmlns="http://www.w3.org/2000/svg"
   xmlns:sodipodi="http://sodipodi.sourceforge.net/DTD/sodipodi-0.dtd"
   xmlns:inkscape="http://www.inkscape.org/namespaces/inkscape"
   width="3.75mm"
   height="3.75mm"
   viewBox="0 0 3.75 3.75"
   version="1.1"
   id="svg13826"
   inkscape:version="0.92.1 r15371"
   sodipodi:docname="chair_lift_dark.svg">
  <defs
     id="defs13820" />
  <sodipodi:namedview
     id="base"
     pagecolor="#ffffff"
     bordercolor="#666666"
     borderopacity="1.0"
     inkscape:pageopacity="0.0"
     inkscape:pageshadow="2"
     inkscape:zoom="28.687777"
     inkscape:cx="7.7296457"
     inkscape:cy="6.4105833"
     inkscape:document-units="mm"
     inkscape:current-layer="layer1"
     showgrid="false"
     inkscape:window-width="644"
     inkscape:window-height="699"
     inkscape:window-x="721"
     inkscape:window-y="35"
     inkscape:window-maximized="0"
     showguides="true"
     inkscape:guide-bbox="true"
     gridtolerance="10"
     guidetolerance="2">
    <inkscape:grid
       type="xygrid"
       id="grid13828" />
    <sodipodi:guide
       position="0.13043093,3.8477124"
       orientation="1,0"
       id="guide20533"
       inkscape:locked="false" />
    <sodipodi:guide
       position="1.9173346,3.6129367"
       orientation="0,1"
       id="guide20535"
       inkscape:locked="false" />
  </sodipodi:namedview>
  <metadata
     id="metadata13823">
    <rdf:RDF>
      <cc:Work
         rdf:about="">
        <dc:format>image/svg+xml</dc:format>
        <dc:type
           rdf:resource="http://purl.org/dc/dcmitype/StillImage" />
        <dc:title></dc:title>
      </cc:Work>
    </rdf:RDF>
  </metadata>
  <g
     inkscape:label="Layer 1"
     inkscape:groupmode="layer"
     id="layer1"
     transform="translate(0,-293.25)">
    <path
       inkscape:connector-curvature="0"
       id="path3013"
       d="m 0.53596458,293.45482 c -0.19016838,0 -0.34588801,0.15572 -0.34588801,0.34727 v 2.65272 c 0,0.19017 0.15571963,0.34589 0.34588801,0.34589 H 3.190067 c 0.1901682,0 0.345888,-0.15572 0.345888,-0.34589 v -2.65272 c 0,-0.19155 -0.1557198,-0.34727 -0.345888,-0.34727 z m 0,0"
       style="fill:#ffffff;fill-opacity:1;fill-rule:nonzero;stroke:none;stroke-width:0.35277775" />
    <path
       inkscape:connector-curvature="0"
       id="path3015"
       d="m 3.1886875,296.87098 c 0.2301346,0 0.4175479,-0.18604 0.4175479,-0.41617 v -2.65272 c 0,-0.23014 -0.1874133,-0.41755 -0.4175479,-0.41755 H 0.53596458 c -0.23013104,0 -0.41616487,0.18741 -0.41616487,0.41755 v 2.65272 c 0,0.23013 0.18603383,0.41617 0.41616487,0.41617 z m 0,0"
       style="fill:#211e1e;fill-opacity:1;fill-rule:nonzero;stroke:none;stroke-width:0.35277775" />
    <path
       inkscape:connector-curvature="0"
       id="path3017"
       d="m 3.1597492,295.85123 c 0.1157571,-0.0386 0.1777683,-0.16123 0.1391814,-0.27699 l -0.08268,0.0276 c 0.023424,0.0689 -0.015169,0.14332 -0.08406,0.16537 l -2.19108152,0.74689 0.027552,0.0827 z m 0,0"
       style="fill:#ffffff;fill-opacity:1;fill-rule:nonzero;stroke:none;stroke-width:0.35277775" />
    <path
       inkscape:connector-curvature="0"
       id="path3019"
       d="m 1.1423014,294.56001 c 0.1198915,-0.0345 0.1887925,-0.16123 0.1543403,-0.2825 -0.035828,-0.11989 -0.1626059,-0.18879 -0.2824974,-0.15434 -0.12126739,0.0358 -0.1901684,0.16261 -0.1543403,0.2825 0.0344664,0.12126 0.16123,0.19017 0.2824974,0.15434"
       style="fill:#ffffff;fill-opacity:1;fill-rule:nonzero;stroke:none;stroke-width:0.35277775" />
    <path
       inkscape:connector-curvature="0"
       id="path3021"
       d="m 1.0485965,294.87558 c -0.11989148,-0.22876 0.2246207,-0.41341 0.3513984,-0.19155 l 0.2466693,0.46991 0.4712899,-0.13367 c 0.07717,-0.0221 0.1860339,0.062 0.1860339,0.16261 l 0.00141,0.66973 c 0.00141,0.16536 -0.2452899,0.16674 -0.2452899,-0.001 -0.00141,-0.15572 -0.00413,-0.48783 -0.00413,-0.48783 l -0.4919592,0.14746 c -0.1074879,0.0303 -0.1970617,-0.0234 -0.2384037,-0.10198 z m 0,0"
       style="fill:#ffffff;fill-opacity:1;fill-rule:nonzero;stroke:none;stroke-width:0.35277775" />
    <path
       inkscape:connector-curvature="0"
       id="path3023"
       d="m 1.8092736,294.98169 v -1.41249 h -0.097843 v 1.44005 z m 0,0"
       style="fill:#ffffff;fill-opacity:1;fill-rule:nonzero;stroke:none;stroke-width:0.35277775" />
    <path
       inkscape:connector-curvature="0"
       id="path3025"
       d="m 0.82259652,295.1815 c -0.0675217,-0.13367 0.10748788,-0.22186 0.1750131,-0.0882 l 0.21221698,0.41617 c 0.046852,0.0854 0.1364262,0.14469 0.2397795,0.14469 0.033055,0 0.063387,-0.008 0.092329,-0.0152 l 0.2687143,-0.0786 c 0.1419402,-0.0427 0.1970617,0.1447 0.053746,0.18742 l -0.2824973,0.0813 c -0.041342,0.0138 -0.086819,0.0207 -0.1336711,0.0207 -0.1805234,0 -0.3376189,-0.10335 -0.414789,-0.25356 z m 0,0"
       style="fill:#ffffff;fill-opacity:1;fill-rule:nonzero;stroke:none;stroke-width:0.35277775" />
  </g>
</svg>
