<?xml version="1.0" encoding="UTF-8" standalone="no"?>
<!-- Created with Inkscape (http://www.inkscape.org/) -->

<svg
   xmlns:dc="http://purl.org/dc/elements/1.1/"
   xmlns:cc="http://creativecommons.org/ns#"
   xmlns:rdf="http://www.w3.org/1999/02/22-rdf-syntax-ns#"
   xmlns:svg="http://www.w3.org/2000/svg"
   xmlns="http://www.w3.org/2000/svg"
   xmlns:sodipodi="http://sodipodi.sourceforge.net/DTD/sodipodi-0.dtd"
   xmlns:inkscape="http://www.inkscape.org/namespaces/inkscape"
   width="3.75mm"
   height="3.75mm"
   viewBox="0 0 3.75 3.75"
   version="1.1"
   id="svg13826"
   inkscape:version="0.92.1 r15371"
   sodipodi:docname="ice_skating_light.svg">
  <defs
     id="defs13820" />
  <sodipodi:namedview
     id="base"
     pagecolor="#ffffff"
     bordercolor="#666666"
     borderopacity="1.0"
     inkscape:pageopacity="0.0"
     inkscape:pageshadow="2"
     inkscape:zoom="28.687777"
     inkscape:cx="7.7296457"
     inkscape:cy="6.4105833"
     inkscape:document-units="mm"
     inkscape:current-layer="layer1"
     showgrid="false"
     inkscape:window-width="644"
     inkscape:window-height="699"
     inkscape:window-x="721"
     inkscape:window-y="35"
     inkscape:window-maximized="0"
     showguides="true"
     inkscape:guide-bbox="true"
     gridtolerance="10"
     guidetolerance="2">
    <inkscape:grid
       type="xygrid"
       id="grid13828" />
    <sodipodi:guide
       position="0.13043093,3.8477124"
       orientation="1,0"
       id="guide20533"
       inkscape:locked="false" />
    <sodipodi:guide
       position="1.9173346,3.6129367"
       orientation="0,1"
       id="guide20535"
       inkscape:locked="false" />
  </sodipodi:namedview>
  <metadata
     id="metadata13823">
    <rdf:RDF>
      <cc:Work
         rdf:about="">
        <dc:format>image/svg+xml</dc:format>
        <dc:type
           rdf:resource="http://purl.org/dc/dcmitype/StillImage" />
        <dc:title></dc:title>
      </cc:Work>
    </rdf:RDF>
  </metadata>
  <g
     inkscape:label="Layer 1"
     inkscape:groupmode="layer"
     id="layer1"
     transform="translate(0,-293.25)">
    <path
       inkscape:connector-curvature="0"
       id="path13119"
       d="m 3.2085145,296.86244 c 0.2301311,0 0.4161684,-0.18742 0.4161684,-0.41755 v -2.6541 c 0,-0.22876 -0.1860373,-0.41617 -0.4161684,-0.41617 H 0.55579145 c -0.23013458,0 -0.41754777,0.18741 -0.41754777,0.41617 v 2.6541 c 0,0.23013 0.18741319,0.41755 0.41754777,0.41755 z m 0,0"
       style="fill:#211e1e;fill-opacity:1;fill-rule:nonzero;stroke:none;stroke-width:0.35277775" />
    <path
       inkscape:connector-curvature="0"
       id="path13121"
       d="m 0.55579145,293.4449 c -0.19154775,0 -0.34588802,0.15572 -0.34588802,0.34726 v 2.65273 c 0,0.19155 0.15434027,0.34589 0.34588802,0.34589 H 3.2085145 c 0.1915477,0 0.3458879,-0.15434 0.3458879,-0.34589 v -2.65273 c 0,-0.19154 -0.1543402,-0.34726 -0.3458879,-0.34726 z m 0,0"
       style="fill:#ffffff;fill-opacity:1;fill-rule:nonzero;stroke:none;stroke-width:0.35277775" />
    <path
       inkscape:connector-curvature="0"
       id="path13123"
       d="m 2.8088844,294.27034 c 0.1350467,0 0.2452899,-0.11024 0.2452899,-0.24529 0,-0.13504 -0.1102432,-0.24529 -0.2452899,-0.24529 -0.1350505,0 -0.2439142,0.11025 -0.2439142,0.24529 0,0.13505 0.1088637,0.24529 0.2439142,0.24529"
       style="fill:#211e1e;fill-opacity:1;fill-rule:nonzero;stroke:none;stroke-width:0.35277775" />
    <path
       inkscape:connector-curvature="0"
       id="path13125"
       d="m 2.1129737,296.35945 h 0.63252 c 0,0 0.048232,0.004 0.048232,-0.0455 v -0.0496 h 0.093705 c 0,0 0.020672,0.17087 -0.1061084,0.18741 H 2.1129737 Z m 0,0"
       style="fill:#211e1e;fill-opacity:1;fill-rule:nonzero;stroke:none;stroke-width:0.35277775" />
    <path
       inkscape:connector-curvature="0"
       id="path13127"
       d="m 0.53511868,295.87025 0.44786192,0.44648 c 0,0 0.030304,0.0372 0.06477,10e-4 l 0.035828,-0.0345 0.066146,0.0661 c 0,0 -0.1061084,0.13643 -0.20808237,0.0579 L 0.4703522,295.93457 Z m 0,0"
       style="fill:#211e1e;fill-opacity:1;fill-rule:nonzero;stroke:none;stroke-width:0.35277775" />
    <path
       inkscape:connector-curvature="0"
       id="path13129"
       d="m 2.2618001,295.71453 0.00141,0.44373 c 0,0.0827 0.067525,0.1502 0.1515851,0.1502 0.075791,0 0.1502057,-0.0882 0.1502057,-0.1502 v -0.61736 c 0,-0.0427 -0.017921,-0.0827 -0.046852,-0.11025 l -0.3624254,-0.36104 0.4809349,-0.47956 c 0.089574,-0.113 0.042721,-0.24805 0.042721,-0.24805 -0.050987,-0.1502 -0.2204861,-0.15434 -0.2204861,-0.15434 l -1.2374774,-10e-4 c -0.066146,0 -0.1198916,0.0538 -0.1198916,0.11989 0,0.0662 0.053746,0.11989 0.1198916,0.11989 l 0.8543819,10e-4 -0.3596675,0.35829 c -0.050987,0.0524 -0.07717,0.11162 -0.07717,0.18879 0,0.0744 0.028928,0.14194 0.078549,0.19017 z m 0,0"
       style="fill:#211e1e;fill-opacity:1;fill-rule:nonzero;stroke:none;stroke-width:0.35277775" />
    <path
       inkscape:connector-curvature="0"
       id="path13131"
       d="m 1.6403079,295.23222 c -0.011007,-0.011 -0.020673,-0.0234 -0.030304,-0.0358 l -0.715204,0.7152 c -0.0537422,0.0441 -0.0702769,0.11989 -0.0385833,0.18328 0.0372075,0.073 0.1267777,0.10197 0.1998168,0.0648 0.00963,-0.005 0.019297,-0.011 0.027552,-0.0179 l 0.7331185,-0.73458 z m 0,0"
       style="fill:#211e1e;fill-opacity:1;fill-rule:nonzero;stroke:none;stroke-width:0.35277775" />
  </g>
</svg>
