<?xml version="1.0" encoding="UTF-8" standalone="no"?>
<!-- Created with Inkscape (http://www.inkscape.org/) -->

<svg
   xmlns:dc="http://purl.org/dc/elements/1.1/"
   xmlns:cc="http://creativecommons.org/ns#"
   xmlns:rdf="http://www.w3.org/1999/02/22-rdf-syntax-ns#"
   xmlns:svg="http://www.w3.org/2000/svg"
   xmlns="http://www.w3.org/2000/svg"
   xmlns:sodipodi="http://sodipodi.sourceforge.net/DTD/sodipodi-0.dtd"
   xmlns:inkscape="http://www.inkscape.org/namespaces/inkscape"
   width="3.75mm"
   height="3.75mm"
   viewBox="0 0 3.75 3.75"
   version="1.1"
   id="svg13826"
   inkscape:version="0.92.1 r15371"
   sodipodi:docname="ice_skating_dark.svg">
  <defs
     id="defs13820" />
  <sodipodi:namedview
     id="base"
     pagecolor="#ffffff"
     bordercolor="#666666"
     borderopacity="1.0"
     inkscape:pageopacity="0.0"
     inkscape:pageshadow="2"
     inkscape:zoom="28.687777"
     inkscape:cx="7.7296457"
     inkscape:cy="6.4105833"
     inkscape:document-units="mm"
     inkscape:current-layer="layer1"
     showgrid="false"
     inkscape:window-width="644"
     inkscape:window-height="699"
     inkscape:window-x="721"
     inkscape:window-y="35"
     inkscape:window-maximized="0"
     showguides="true"
     inkscape:guide-bbox="true"
     gridtolerance="10"
     guidetolerance="2">
    <inkscape:grid
       type="xygrid"
       id="grid13828" />
    <sodipodi:guide
       position="0.13043093,3.8477124"
       orientation="1,0"
       id="guide20533"
       inkscape:locked="false" />
    <sodipodi:guide
       position="1.9173346,3.6129367"
       orientation="0,1"
       id="guide20535"
       inkscape:locked="false" />
  </sodipodi:namedview>
  <metadata
     id="metadata13823">
    <rdf:RDF>
      <cc:Work
         rdf:about="">
        <dc:format>image/svg+xml</dc:format>
        <dc:type
           rdf:resource="http://purl.org/dc/dcmitype/StillImage" />
        <dc:title></dc:title>
      </cc:Work>
    </rdf:RDF>
  </metadata>
  <g
     inkscape:label="Layer 1"
     inkscape:groupmode="layer"
     id="layer1"
     transform="translate(0,-293.25)">
    <path
       inkscape:connector-curvature="0"
       id="path12401"
       d="m 0.52674173,293.44559 c -0.19016838,0 -0.34588801,0.15572 -0.34588801,0.34589 v 2.6541 c 0,0.19017 0.15571963,0.34589 0.34588801,0.34589 H 3.1794647 c 0.1915477,0 0.3472675,-0.15572 0.3472675,-0.34589 v -2.6541 c 0,-0.19017 -0.1557198,-0.34589 -0.3472675,-0.34589 z m 0,0"
       style="fill:#ffffff;fill-opacity:1;fill-rule:nonzero;stroke:none;stroke-width:0.35277775" />
    <path
       inkscape:connector-curvature="0"
       id="path12403"
       d="m 3.1808442,296.86175 c 0.2287551,0 0.4161684,-0.18604 0.4161684,-0.41617 v -2.6541 c 0,-0.23014 -0.1874133,-0.41617 -0.4161684,-0.41617 H 0.52674173 c -0.23013104,0 -0.41616487,0.18603 -0.41616487,0.41617 v 2.6541 c 0,0.23013 0.18603383,0.41617 0.41616487,0.41617 z m 0,0"
       style="fill:#211e1e;fill-opacity:1;fill-rule:nonzero;stroke:none;stroke-width:0.35277775" />
    <path
       inkscape:connector-curvature="0"
       id="path12405"
       d="m 2.7812139,294.26966 c 0.135047,0 0.2452899,-0.10887 0.2452899,-0.24392 0,-0.13642 -0.1102429,-0.24529 -0.2452899,-0.24529 -0.1364261,0 -0.2452898,0.10887 -0.2452898,0.24529 0,0.13505 0.1088637,0.24392 0.2452898,0.24392"
       style="fill:#ffffff;fill-opacity:1;fill-rule:nonzero;stroke:none;stroke-width:0.35277775" />
    <path
       inkscape:connector-curvature="0"
       id="path12407"
       d="m 2.0853034,296.35876 h 0.6325199 c 0,0 0.048232,0.006 0.048232,-0.0441 v -0.051 h 0.092329 c 0,0 0.022048,0.17225 -0.1061085,0.18879 H 2.0853034 Z m 0,0"
       style="fill:#ffffff;fill-opacity:1;fill-rule:nonzero;stroke:none;stroke-width:0.35277775" />
    <path
       inkscape:connector-curvature="0"
       id="path12409"
       d="m 0.50745186,295.86956 0.4464826,0.44786 c 0,0 0.0303036,0.0372 0.0661458,10e-4 l 0.035828,-0.0358 0.06477,0.0661 c 0,0 -0.1061085,0.13643 -0.20670664,0.0579 l -0.47266563,-0.47128 z m 0,0"
       style="fill:#ffffff;fill-opacity:1;fill-rule:nonzero;stroke:none;stroke-width:0.35277775" />
    <path
       inkscape:connector-curvature="0"
       id="path12411"
       d="m 2.2341333,295.71384 v 0.44373 c 0,0.0841 0.067522,0.15158 0.1515815,0.15158 0.075794,0 0.1502093,-0.0882 0.1502093,-0.15158 v -0.61598 c 0,-0.0441 -0.017921,-0.0827 -0.046856,-0.11025 l -0.3610433,-0.36104 0.4795555,-0.48094 c 0.089574,-0.11162 0.042718,-0.24667 0.042718,-0.24667 -0.049608,-0.1502 -0.2191067,-0.15572 -0.2191067,-0.15572 h -1.238857 c -0.064766,0 -0.1185122,0.0537 -0.1185122,0.1199 0,0.0661 0.053746,0.11988 0.1185122,0.11988 l 0.8557613,10e-4 -0.3610433,0.35691 c -0.05099,0.0537 -0.07717,0.113 -0.07717,0.19017 0,0.0744 0.028928,0.14056 0.078546,0.18879 z m 0,0"
       style="fill:#ffffff;fill-opacity:1;fill-rule:nonzero;stroke:none;stroke-width:0.35277775" />
    <path
       inkscape:connector-curvature="0"
       id="path12413"
       d="m 1.6126376,295.23153 c -0.011007,-0.01 -0.022048,-0.0221 -0.031679,-0.0358 l -0.7138212,0.71658 c -0.0537457,0.0427 -0.0716598,0.11989 -0.0399627,0.18328 0.037204,0.073 0.12815713,0.10197 0.2011927,0.0648 0.00963,-0.005 0.017921,-0.011 0.027552,-0.0193 l 0.7331177,-0.73318 z m 0,0"
       style="fill:#ffffff;fill-opacity:1;fill-rule:nonzero;stroke:none;stroke-width:0.35277775" />
  </g>
</svg>
