<?xml version="1.0" encoding="UTF-8" standalone="no"?>
<!-- Created with Inkscape (http://www.inkscape.org/) -->

<svg
   xmlns:dc="http://purl.org/dc/elements/1.1/"
   xmlns:cc="http://creativecommons.org/ns#"
   xmlns:rdf="http://www.w3.org/1999/02/22-rdf-syntax-ns#"
   xmlns:svg="http://www.w3.org/2000/svg"
   xmlns="http://www.w3.org/2000/svg"
   xmlns:sodipodi="http://sodipodi.sourceforge.net/DTD/sodipodi-0.dtd"
   xmlns:inkscape="http://www.inkscape.org/namespaces/inkscape"
   width="3.75mm"
   height="3.75mm"
   viewBox="0 0 3.75 3.75"
   version="1.1"
   id="svg13826"
   inkscape:version="0.92.1 r15371"
   sodipodi:docname="ski_jump_light.svg">
  <defs
     id="defs13820" />
  <sodipodi:namedview
     id="base"
     pagecolor="#ffffff"
     bordercolor="#666666"
     borderopacity="1.0"
     inkscape:pageopacity="0.0"
     inkscape:pageshadow="2"
     inkscape:zoom="28.687777"
     inkscape:cx="7.7296457"
     inkscape:cy="6.4105833"
     inkscape:document-units="mm"
     inkscape:current-layer="layer1"
     showgrid="false"
     inkscape:window-width="644"
     inkscape:window-height="699"
     inkscape:window-x="721"
     inkscape:window-y="35"
     inkscape:window-maximized="0"
     showguides="true"
     inkscape:guide-bbox="true"
     gridtolerance="10"
     guidetolerance="2">
    <inkscape:grid
       type="xygrid"
       id="grid13828" />
    <sodipodi:guide
       position="0.13043093,3.8477124"
       orientation="1,0"
       id="guide20533"
       inkscape:locked="false" />
    <sodipodi:guide
       position="1.9173346,3.6129367"
       orientation="0,1"
       id="guide20535"
       inkscape:locked="false" />
  </sodipodi:namedview>
  <metadata
     id="metadata13823">
    <rdf:RDF>
      <cc:Work
         rdf:about="">
        <dc:format>image/svg+xml</dc:format>
        <dc:type
           rdf:resource="http://purl.org/dc/dcmitype/StillImage" />
        <dc:title></dc:title>
      </cc:Work>
    </rdf:RDF>
  </metadata>
  <g
     inkscape:label="Layer 1"
     inkscape:groupmode="layer"
     id="layer1"
     transform="translate(0,-293.25)">
    <path
       inkscape:connector-curvature="0"
       id="path4625"
       d="m 3.198602,296.87167 c 0.2301309,0 0.4161684,-0.18742 0.4161684,-0.41755 v -2.65273 c 0,-0.23151 -0.1860375,-0.41754 -0.4161684,-0.41754 H 0.54449951 c -0.22875521,0 -0.41478904,0.18603 -0.41478904,0.41754 v 2.65273 c 0,0.23013 0.18603383,0.41755 0.41478904,0.41755 z m 0,0"
       style="fill:#211e1e;fill-opacity:1;fill-rule:nonzero;stroke:none;stroke-width:0.35277775" />
    <path
       inkscape:connector-curvature="0"
       id="path4627"
       d="m 0.54587889,293.45413 c -0.19154776,0 -0.34588803,0.15572 -0.34588803,0.34726 v 2.65273 c 0,0.19155 0.15434027,0.34589 0.34588803,0.34589 H 3.198602 c 0.1901682,0 0.3458879,-0.15434 0.3458879,-0.34589 v -2.65273 c 0,-0.19154 -0.1557197,-0.34726 -0.3458879,-0.34726 z m 0,0"
       style="fill:#ffffff;fill-opacity:1;fill-rule:nonzero;stroke:none;stroke-width:0.35277775" />
    <path
       inkscape:connector-curvature="0"
       id="path4629"
       d="m 2.5109604,294.15417 c 0.1295365,0 0.2328898,-0.10335 0.2328898,-0.23288 0,-0.12816 -0.1033533,-0.23289 -0.2328898,-0.23289 -0.1295364,0 -0.2328897,0.10473 -0.2328897,0.23289 0,0.12953 0.1033533,0.23288 0.2328897,0.23288"
       style="fill:#211e1e;fill-opacity:1;fill-rule:nonzero;stroke:none;stroke-width:0.35277775" />
    <path
       inkscape:connector-curvature="0"
       id="path4631"
       d="m 1.5201523,295.10089 0.8392231,-0.54295 c 0.110243,-0.0689 0.1433159,-0.21498 0.073036,-0.32384 -0.068901,-0.11024 -0.2135963,-0.14194 -0.3238394,-0.073 l -0.6187369,0.39964 c -0.034466,0.0234 -0.062011,0.0524 -0.079925,0.0868 l -0.64492369,1.26918 c -0.0372074,0.0744 -0.006879,0.16674 0.0675252,0.20394 0.0744114,0.0386 0.16536457,0.008 0.20394789,-0.0661 z m 0,0"
       style="fill:#211e1e;fill-opacity:1;fill-rule:nonzero;stroke:none;stroke-width:0.35277775" />
    <path
       inkscape:connector-curvature="0"
       id="path4633"
       d="m 3.1545047,295.01131 c 0.111619,-0.0689 0.1460712,-0.21497 0.075791,-0.32659 l -0.081305,0.0496 c 0.042721,0.0661 0.022048,0.15434 -0.045473,0.19568 l -2.57555278,1.6316 0.0496076,0.0799 z m 0,0"
       style="fill:#211e1e;fill-opacity:1;fill-rule:nonzero;stroke:none;stroke-width:0.35277775" />
  </g>
</svg>
