<?xml version="1.0" encoding="UTF-8" standalone="no"?>
<!-- Created with Inkscape (http://www.inkscape.org/) -->

<svg
   xmlns:dc="http://purl.org/dc/elements/1.1/"
   xmlns:cc="http://creativecommons.org/ns#"
   xmlns:rdf="http://www.w3.org/1999/02/22-rdf-syntax-ns#"
   xmlns:svg="http://www.w3.org/2000/svg"
   xmlns="http://www.w3.org/2000/svg"
   xmlns:sodipodi="http://sodipodi.sourceforge.net/DTD/sodipodi-0.dtd"
   xmlns:inkscape="http://www.inkscape.org/namespaces/inkscape"
   width="3.75mm"
   height="3.75mm"
   viewBox="0 0 3.75 3.75"
   version="1.1"
   id="svg13826"
   inkscape:version="0.92.1 r15371"
   sodipodi:docname="sledding_light.svg">
  <defs
     id="defs13820" />
  <sodipodi:namedview
     id="base"
     pagecolor="#ffffff"
     bordercolor="#666666"
     borderopacity="1.0"
     inkscape:pageopacity="0.0"
     inkscape:pageshadow="2"
     inkscape:zoom="28.687777"
     inkscape:cx="7.7296457"
     inkscape:cy="6.4105833"
     inkscape:document-units="mm"
     inkscape:current-layer="layer1"
     showgrid="false"
     inkscape:window-width="644"
     inkscape:window-height="699"
     inkscape:window-x="721"
     inkscape:window-y="35"
     inkscape:window-maximized="0"
     showguides="true"
     inkscape:guide-bbox="true"
     gridtolerance="10"
     guidetolerance="2">
    <inkscape:grid
       type="xygrid"
       id="grid13828" />
    <sodipodi:guide
       position="0.13043093,3.8477124"
       orientation="1,0"
       id="guide20533"
       inkscape:locked="false" />
    <sodipodi:guide
       position="1.9173346,3.6129367"
       orientation="0,1"
       id="guide20535"
       inkscape:locked="false" />
  </sodipodi:namedview>
  <metadata
     id="metadata13823">
    <rdf:RDF>
      <cc:Work
         rdf:about="">
        <dc:format>image/svg+xml</dc:format>
        <dc:type
           rdf:resource="http://purl.org/dc/dcmitype/StillImage" />
        <dc:title></dc:title>
      </cc:Work>
    </rdf:RDF>
  </metadata>
  <g
     inkscape:label="Layer 1"
     inkscape:groupmode="layer"
     id="layer1"
     transform="translate(0,-293.25)">
    <path
       inkscape:connector-curvature="0"
       id="path12861"
       d="m 3.2078265,296.87167 c 0.2301311,0 0.4175442,-0.18742 0.4175442,-0.41755 v -2.65273 c 0,-0.23151 -0.1874131,-0.41754 -0.4175442,-0.41754 H 0.55510355 c -0.23013458,0 -0.41754777,0.18603 -0.41754777,0.41754 v 2.65273 c 0,0.23013 0.18741319,0.41755 0.41754777,0.41755 z m 0,0"
       style="fill:#211e1e;fill-opacity:1;fill-rule:nonzero;stroke:none;stroke-width:0.35277775" />
    <path
       inkscape:connector-curvature="0"
       id="path12863"
       d="m 0.55510355,293.45413 c -0.19154775,0 -0.34588802,0.15572 -0.34588802,0.34589 v 2.6541 c 0,0.19155 0.15434027,0.34589 0.34588802,0.34589 H 3.2078265 c 0.1915477,0 0.3458879,-0.15434 0.3458879,-0.34589 v -2.6541 c 0,-0.19017 -0.1543402,-0.34589 -0.3458879,-0.34589 z m 0,0"
       style="fill:#ffffff;fill-opacity:1;fill-rule:nonzero;stroke:none;stroke-width:0.35277775" />
    <path
       inkscape:connector-curvature="0"
       id="path12865"
       d="m 2.9363534,295.58458 c 0.1515816,0 0.2742282,-0.12403 0.2742282,-0.27561 0,-0.15159 -0.1226466,-0.27423 -0.2742282,-0.27423 -0.1529644,0 -0.2756076,0.12264 -0.2756076,0.27423 0,0.15158 0.1226432,0.27561 0.2756076,0.27561"
       style="fill:#211e1e;fill-opacity:1;fill-rule:nonzero;stroke:none;stroke-width:0.35277775" />
    <path
       inkscape:connector-curvature="0"
       id="path12867"
       d="m 3.1320321,296.19918 c 0.012417,0.004 0.024799,0.007 0.038587,0.007 0.071656,0 0.1281573,-0.0579 0.1281573,-0.12816 0,-0.0524 -0.033056,-0.0992 -0.07855,-0.11851 l -0.380337,-0.14745 -0.2769868,-0.49196 c 0,0 -0.023424,-0.0537 -0.1033533,-0.0841 l -0.9081241,-0.3638 -0.5401909,-0.91502 c -0.0303036,-0.0524 -0.0881945,-0.0882 -0.15434026,-0.0882 -0.0992187,0 -0.18052344,0.0827 -0.18052344,0.1819 0,0.0317 0.008255,0.062 0.0234244,0.0868 l 0.6697274,1.13688 -0.42443386,-0.1695 -0.10748788,0.0634 1.69774294,0.66835 h -0.00141 l 0.07028,0.11024 c 0,0 0.027552,0.0593 0.1088637,0.0923 l 0.2108411,0.0813 c -0.1364263,0.13643 -0.3293497,0.0772 -0.3293497,0.0772 l -2.07257018,-0.83095 -0.1143776,0.0675 2.16489828,0.85576 c 0.2508003,0.0923 0.456131,-0.12816 0.456131,-0.12816 z m 0,0"
       style="fill:#211e1e;fill-opacity:1;fill-rule:nonzero;stroke:none;stroke-width:0.35277775" />
  </g>
</svg>
