<?xml version="1.0" encoding="UTF-8" standalone="no"?>
<!-- Created with Inkscape (http://www.inkscape.org/) -->

<svg
   xmlns:dc="http://purl.org/dc/elements/1.1/"
   xmlns:cc="http://creativecommons.org/ns#"
   xmlns:rdf="http://www.w3.org/1999/02/22-rdf-syntax-ns#"
   xmlns:svg="http://www.w3.org/2000/svg"
   xmlns="http://www.w3.org/2000/svg"
   xmlns:sodipodi="http://sodipodi.sourceforge.net/DTD/sodipodi-0.dtd"
   xmlns:inkscape="http://www.inkscape.org/namespaces/inkscape"
   width="3.75mm"
   height="3.75mm"
   viewBox="0 0 3.75 3.75"
   version="1.1"
   id="svg13826"
   inkscape:version="0.92.1 r15371"
   sodipodi:docname="snowshow_light.svg">
  <defs
     id="defs13820" />
  <sodipodi:namedview
     id="base"
     pagecolor="#ffffff"
     bordercolor="#666666"
     borderopacity="1.0"
     inkscape:pageopacity="0.0"
     inkscape:pageshadow="2"
     inkscape:zoom="28.687777"
     inkscape:cx="7.7296457"
     inkscape:cy="6.4105833"
     inkscape:document-units="mm"
     inkscape:current-layer="layer1"
     showgrid="false"
     inkscape:window-width="644"
     inkscape:window-height="699"
     inkscape:window-x="721"
     inkscape:window-y="35"
     inkscape:window-maximized="0"
     showguides="true"
     inkscape:guide-bbox="true"
     gridtolerance="10"
     guidetolerance="2">
    <inkscape:grid
       type="xygrid"
       id="grid13828" />
    <sodipodi:guide
       position="0.13043093,3.8477124"
       orientation="1,0"
       id="guide20533"
       inkscape:locked="false" />
    <sodipodi:guide
       position="1.9173346,3.6129367"
       orientation="0,1"
       id="guide20535"
       inkscape:locked="false" />
  </sodipodi:namedview>
  <metadata
     id="metadata13823">
    <rdf:RDF>
      <cc:Work
         rdf:about="">
        <dc:format>image/svg+xml</dc:format>
        <dc:type
           rdf:resource="http://purl.org/dc/dcmitype/StillImage" />
        <dc:title></dc:title>
      </cc:Work>
    </rdf:RDF>
  </metadata>
  <g
     inkscape:label="Layer 1"
     inkscape:groupmode="layer"
     id="layer1"
     transform="translate(0,-293.25)">
    <path
       inkscape:connector-curvature="0"
       id="path4641"
       d="m 3.1893791,296.86176 c 0.2301309,0 0.4161684,-0.18604 0.4161684,-0.41617 v -2.65272 c 0,-0.23151 -0.1860375,-0.41755 -0.4161684,-0.41755 H 0.53527666 c -0.22875521,0 -0.41478904,0.18604 -0.41478904,0.41755 v 2.65272 c 0,0.23013 0.18603383,0.41617 0.41478904,0.41617 z m 0,0"
       style="fill:#211e1e;fill-opacity:1;fill-rule:nonzero;stroke:none;stroke-width:0.35277775" />
    <path
       inkscape:connector-curvature="0"
       id="path4643"
       d="m 0.53665604,293.4456 c -0.19154776,0 -0.34588803,0.15572 -0.34588803,0.34727 v 2.65272 c 0,0.19017 0.15434027,0.34589 0.34588803,0.34589 H 3.1893791 c 0.1915477,0 0.3458879,-0.15572 0.3458879,-0.34589 v -2.65272 c 0,-0.19155 -0.1543402,-0.34727 -0.3458879,-0.34727 z m 0,0"
       style="fill:#ffffff;fill-opacity:1;fill-rule:nonzero;stroke:none;stroke-width:0.35277775" />
    <path
       inkscape:connector-curvature="0"
       id="path4645"
       d="m 2.3735804,294.11671 c 0.1281571,0 0.2328863,-0.10474 0.2328863,-0.23289 0,-0.12954 -0.1047292,-0.23427 -0.2328863,-0.23427 -0.1295364,0 -0.2342656,0.10473 -0.2342656,0.23427 0,0.12815 0.1047292,0.23289 0.2342656,0.23289"
       style="fill:#211e1e;fill-opacity:1;fill-rule:nonzero;stroke:none;stroke-width:0.35277775" />
    <path
       inkscape:connector-curvature="0"
       id="path4647"
       d="m 1.3703687,296.40425 c 0.0055,0.003 0.011007,0.004 0.017921,0.005 0.073036,0.0165 0.1446953,-0.0275 0.1626094,-0.1006 0.012382,-0.0551 -0.00967,-0.11024 -0.053746,-0.14056 l -0.055122,0.0634 c -0.046852,0.0538 -0.1281571,0.0606 -0.1818992,0.0138 -0.03168,-0.0276 -0.044097,-0.0675 -0.041342,-0.10611 l -0.41065444,-0.007 z m 1.2567708,0.0331 c 0.00688,0.001 0.012418,0.001 0.019297,0.001 0.074411,0 0.1350468,-0.0606 0.1350468,-0.13505 0,-0.0744 -0.060635,-0.13505 -0.1350468,-0.13505 v 0.0289 c 0,0.0703 -0.05788,0.12816 -0.1295365,0.12816 -0.062011,0 -0.1116224,-0.0455 -0.1240225,-0.10474 l -0.3748263,0.0827 z m 0.3720711,-1.42902 c -0.039966,0.0937 -0.1267812,0.0648 -0.1267812,0.0648 l -0.3651815,-0.13779 c -0.037204,-0.0124 -0.064766,-0.0427 -0.074411,-0.0799 l -0.082684,-0.24116 -0.1295365,0.35415 0.3817196,0.39826 c 0.048228,0.0827 0.044097,0.14469 0.044097,0.14469 v 0.54708 c 0.1350468,0 0.2439104,0.11024 0.2439104,0.24529 0,0.13505 -0.1088636,0.24529 -0.2439104,0.24529 -0.019297,0 -0.038587,-0.003 -0.05788,-0.007 l -0.802016,-0.17912 v -0.11851 l 0.6022023,-0.13367 v -0.49885 l -0.4051441,-0.40515 -0.062011,0.42444 c -0.011007,0.0537 -0.049611,0.10335 -0.07166,0.12816 l -0.281118,0.32659 c -0.00413,-0.004 -0.00963,-0.004 -0.015169,-0.003 l 0.015169,0.003 c 0.073036,0.0565 0.1116188,0.15296 0.088194,0.24805 -0.030304,0.13229 -0.1626094,0.2136 -0.2935217,0.1819 -0.019297,-0.004 -0.037207,-0.011 -0.055121,-0.0193 l -0.73862845,-0.35967 0.0275519,-0.11438 0.67799655,0.01 0.32246,-0.37345 0.099219,-0.73311 0.2094618,-0.55398 -0.2893871,0.16675 -0.1736337,0.339 c -0.052366,0.10748 -0.1460712,0.0496 -0.1460712,0.0496 -0.085439,-0.0482 -0.052366,-0.13091 -0.052366,-0.13091 l 0.1763889,-0.35829 c 0.048232,-0.0909 0.085439,-0.10473 0.085439,-0.10473 l 0.4147891,-0.226 c 0.08957,-0.062 0.1943029,-0.0138 0.1943029,-0.0138 l 0.2384002,0.0896 c 0.119888,0.0427 0.1240225,0.11024 0.1240225,0.11024 l 0.1474505,0.47129 0.318329,0.113 c 0,0 0.085436,0.0358 0.055121,0.13092"
       style="fill:#211e1e;fill-opacity:1;fill-rule:nonzero;stroke:none;stroke-width:0.35277775" />
  </g>
</svg>
