<?xml version="1.0" encoding="UTF-8" standalone="no"?>
<!-- Created with Inkscape (http://www.inkscape.org/) -->

<svg
   xmlns:dc="http://purl.org/dc/elements/1.1/"
   xmlns:cc="http://creativecommons.org/ns#"
   xmlns:rdf="http://www.w3.org/1999/02/22-rdf-syntax-ns#"
   xmlns:svg="http://www.w3.org/2000/svg"
   xmlns="http://www.w3.org/2000/svg"
   xmlns:sodipodi="http://sodipodi.sourceforge.net/DTD/sodipodi-0.dtd"
   xmlns:inkscape="http://www.inkscape.org/namespaces/inkscape"
   width="3.75mm"
   height="3.75mm"
   viewBox="0 0 3.75 3.75"
   version="1.1"
   id="svg13826"
   inkscape:version="0.92.1 r15371"
   sodipodi:docname="snowmobile_light.svg">
  <defs
     id="defs13820" />
  <sodipodi:namedview
     id="base"
     pagecolor="#ffffff"
     bordercolor="#666666"
     borderopacity="1.0"
     inkscape:pageopacity="0.0"
     inkscape:pageshadow="2"
     inkscape:zoom="28.687777"
     inkscape:cx="7.7296457"
     inkscape:cy="6.4105833"
     inkscape:document-units="mm"
     inkscape:current-layer="layer1"
     showgrid="false"
     inkscape:window-width="644"
     inkscape:window-height="699"
     inkscape:window-x="721"
     inkscape:window-y="35"
     inkscape:window-maximized="0"
     showguides="true"
     inkscape:guide-bbox="true"
     gridtolerance="10"
     guidetolerance="2">
    <inkscape:grid
       type="xygrid"
       id="grid13828" />
    <sodipodi:guide
       position="0.13043093,3.8477124"
       orientation="1,0"
       id="guide20533"
       inkscape:locked="false" />
    <sodipodi:guide
       position="1.9173346,3.6129367"
       orientation="0,1"
       id="guide20535"
       inkscape:locked="false" />
  </sodipodi:namedview>
  <metadata
     id="metadata13823">
    <rdf:RDF>
      <cc:Work
         rdf:about="">
        <dc:format>image/svg+xml</dc:format>
        <dc:type
           rdf:resource="http://purl.org/dc/dcmitype/StillImage" />
        <dc:title></dc:title>
      </cc:Work>
    </rdf:RDF>
  </metadata>
  <g
     inkscape:label="Layer 1"
     inkscape:groupmode="layer"
     id="layer1"
     transform="translate(0,-293.25)">
    <path
       inkscape:connector-curvature="0"
       id="path13063"
       d="m 3.2078266,296.86176 c 0.2301311,0 0.4175442,-0.18604 0.4175442,-0.41617 v -2.65411 c 0,-0.23013 -0.1874131,-0.41616 -0.4175442,-0.41616 H 0.55510355 c -0.23013458,0 -0.41754777,0.18603 -0.41754777,0.41616 v 2.65411 c 0,0.23013 0.18741319,0.41617 0.41754777,0.41617 z m 0,0"
       style="fill:#211e1e;fill-opacity:1;fill-rule:nonzero;stroke:none;stroke-width:0.35277775" />
    <path
       inkscape:connector-curvature="0"
       id="path13065"
       d="m 0.55510355,293.4456 c -0.19154775,0 -0.34726738,0.15572 -0.34726738,0.34588 v 2.65411 c 0,0.19017 0.15571963,0.34589 0.34726738,0.34589 H 3.2078266 c 0.1915477,0 0.3458879,-0.15572 0.3458879,-0.34589 v -2.65411 c 0,-0.19016 -0.1543402,-0.34588 -0.3458879,-0.34588 z m 0,0"
       style="fill:#ffffff;fill-opacity:1;fill-rule:nonzero;stroke:none;stroke-width:0.35277775" />
    <path
       inkscape:connector-curvature="0"
       id="path13067"
       d="m 1.6134369,294.25589 c 0.1281571,0 0.2328862,-0.10336 0.2328862,-0.23289 0,-0.12816 -0.1047291,-0.23289 -0.2328862,-0.23289 -0.1295365,0 -0.2342692,0.10473 -0.2342692,0.23289 0,0.12953 0.1047327,0.23289 0.2342692,0.23289"
       style="fill:#211e1e;fill-opacity:1;fill-rule:nonzero;stroke:none;stroke-width:0.35277775" />
    <path
       inkscape:connector-curvature="0"
       id="path13069"
       d="m 1.8876651,296.13966 h 1.1093203 c 0,0 0.07166,0.006 0.2135963,-0.10886 l 0.2425348,-0.18604 v 0.20947 l -0.2466692,0.18603 c 0,0 -0.074415,0.0593 -0.1984375,0.073 H 1.7939603 Z m 0,0"
       style="fill:#211e1e;fill-opacity:1;fill-rule:nonzero;stroke:none;stroke-width:0.35277775" />
    <path
       inkscape:connector-curvature="0"
       id="path13071"
       d="M 0.34150719,296.3133 H 1.4522069 l 0.092325,-0.17364 H 0.42556707 l -0.092329,0.17364 z m 0,0"
       style="fill:#211e1e;fill-opacity:1;fill-rule:nonzero;stroke:none;stroke-width:0.35277775" />
    <path
       inkscape:connector-curvature="0"
       id="path13073"
       d="m 1.7333249,294.53976 c 0,-0.12816 -0.1047292,-0.23289 -0.2342656,-0.23289 -0.1281571,0 -0.2328898,0.10473 -0.2328898,0.23289 v 0.57189 c 0,0.0717 0.034466,0.14056 0.086819,0.1819 H 0.83071117 l -0.28249737,0.51263 c -0.006879,0.0124 -0.009666,0.0248 -0.009666,0.0386 0,0.0469 0.0385868,0.0854 0.0854392,0.0854 h 1.9264983 c 0,0 0.08268,0.0138 0.2080824,-0.0841 l 0.5002282,-0.36794 -0.1887926,-0.32935 c 0,0 -0.042718,-0.0813 -0.2025719,-0.10473 l -0.3775817,-0.0634 -0.202572,-0.33899 -0.00282,-0.003 c -0.028928,-0.0331 -0.079925,-0.0372 -0.1143777,-0.008 -0.023424,0.0221 -0.033055,0.0579 -0.019297,0.0896 l 0.1502093,0.25218 v 0.001 l -0.1887926,0.31971 -0.3789609,-0.14332 v -0.14331 h 0.2990356 c 0.015169,10e-4 0.030304,-10e-4 0.044097,-0.007 0.057877,-0.0221 0.085436,-0.0854 0.063387,-0.14194 -0.016545,-0.0441 -0.057877,-0.0703 -0.1005946,-0.0717 H 1.7318573 l 0.00141,-0.24667"
       style="fill:#211e1e;fill-opacity:1;fill-rule:nonzero;stroke:none;stroke-width:0.35277775" />
  </g>
</svg>
