<?xml version="1.0" encoding="UTF-8" standalone="no"?>
<!-- Created with Inkscape (http://www.inkscape.org/) -->

<svg
   xmlns:dc="http://purl.org/dc/elements/1.1/"
   xmlns:cc="http://creativecommons.org/ns#"
   xmlns:rdf="http://www.w3.org/1999/02/22-rdf-syntax-ns#"
   xmlns:svg="http://www.w3.org/2000/svg"
   xmlns="http://www.w3.org/2000/svg"
   xmlns:sodipodi="http://sodipodi.sourceforge.net/DTD/sodipodi-0.dtd"
   xmlns:inkscape="http://www.inkscape.org/namespaces/inkscape"
   width="3.75mm"
   height="3.75mm"
   viewBox="0 0 3.75 3.75"
   version="1.1"
   id="svg13826"
   inkscape:version="0.92.1 r15371"
   sodipodi:docname="winter_recreation_dark.svg">
  <defs
     id="defs13820" />
  <sodipodi:namedview
     id="base"
     pagecolor="#ffffff"
     bordercolor="#666666"
     borderopacity="1.0"
     inkscape:pageopacity="0.0"
     inkscape:pageshadow="2"
     inkscape:zoom="28.687777"
     inkscape:cx="8.0356309"
     inkscape:cy="6.4105833"
     inkscape:document-units="mm"
     inkscape:current-layer="layer1"
     showgrid="false"
     inkscape:window-width="644"
     inkscape:window-height="699"
     inkscape:window-x="721"
     inkscape:window-y="35"
     inkscape:window-maximized="0"
     showguides="true"
     inkscape:guide-bbox="true"
     gridtolerance="10"
     guidetolerance="2">
    <inkscape:grid
       type="xygrid"
       id="grid13828" />
    <sodipodi:guide
       position="0.13043093,3.8477124"
       orientation="1,0"
       id="guide20533"
       inkscape:locked="false" />
    <sodipodi:guide
       position="1.9173346,3.6129367"
       orientation="0,1"
       id="guide20535"
       inkscape:locked="false" />
  </sodipodi:namedview>
  <metadata
     id="metadata13823">
    <rdf:RDF>
      <cc:Work
         rdf:about="">
        <dc:format>image/svg+xml</dc:format>
        <dc:type
           rdf:resource="http://purl.org/dc/dcmitype/StillImage" />
        <dc:title></dc:title>
      </cc:Work>
    </rdf:RDF>
  </metadata>
  <g
     inkscape:label="Layer 1"
     inkscape:groupmode="layer"
     id="layer1"
     transform="translate(0,-293.25)">
    <path
       inkscape:connector-curvature="0"
       id="path2893"
       d="m 0.54518744,293.4456 c -0.19016838,0 -0.34588801,0.15572 -0.34588801,0.34589 v 2.6541 c 0,0.19017 0.15571963,0.34451 0.34588801,0.34451 H 3.1992899 c 0.1901682,0 0.3445087,-0.15434 0.3445087,-0.34451 v -2.6541 c 0,-0.19017 -0.1543405,-0.34589 -0.3445087,-0.34589 z m 0,0"
       style="fill:#ffffff;fill-opacity:1;fill-rule:nonzero;stroke:none;stroke-width:0.35277775" />
    <path
       inkscape:connector-curvature="0"
       id="path2895"
       d="m 3.1992899,296.86176 c 0.2301309,0 0.4161684,-0.18604 0.4161684,-0.41617 v -2.6541 c 0,-0.23013 -0.1860375,-0.41617 -0.4161684,-0.41617 H 0.54656682 c -0.23151042,0 -0.41754425,0.18604 -0.41754425,0.41617 v 2.6541 c 0,0.23013 0.18603383,0.41617 0.41754425,0.41617 z m 0,0"
       style="fill:#211e1e;fill-opacity:1;fill-rule:nonzero;stroke:none;stroke-width:0.35277775" />
    <path
       inkscape:connector-curvature="0"
       id="path2897"
       d="m 1.6806909,295.11716 0.1005981,0.14745 h 0.1860339 l 0.085439,-0.14745 -0.09095,-0.1571 H 1.7757751 Z m 0.07717,1.18511 v -0.33348 l -0.1860338,0.10473 -0.095084,-0.0537 v -0.11714 l 0.2756077,-0.15709 v -0.21911 l -0.1998169,0.12816 v -0.23151 l -0.1915477,0.11024 v 0.31419 l -0.1047292,0.0648 -0.089574,-0.0579 v -0.21084 l -0.28938714,0.16399 -0.12540192,-0.0524 v -0.13367 L 1.0578193,295.4548 0.86627157,295.3597 v -0.12264 l 0.10886369,-0.0593 0.27423184,0.16123 0.1901684,-0.10887 -0.0055,-0.004 -0.1943029,-0.11162 0.1887925,-0.11713 -0.1887925,-0.10886 -0.27422829,0.15985 -0.10197397,-0.051 v -0.12128 L 1.0481849,294.77273 0.75190793,294.6115 v -0.13229 l 0.11437763,-0.0593 0.29214234,0.16812 v -0.21359 l 0.086819,-0.0593 0.1074879,0.062 v 0.32108 l 0.1956787,0.11162 -0.00141,-0.22738 0.2053272,0.11025 v -0.21911 l -0.2756085,-0.1571 v -0.11575 l 0.095084,-0.0551 0.1860339,0.10472 v -0.33348 l 0.1061085,-0.0689 0.1074878,0.0689 v 0.33348 l 0.1929271,-0.10748 0.097839,0.0648 v 0.10473 l -0.2866319,0.16123 v 0.21911 l 0.1956823,-0.11852 v 0.2384 l 0.2011927,-0.11024 v -0.34313 l 0.097839,-0.0455 0.1019775,0.0455 v 0.21911 l 0.2990322,-0.16123 0.1047326,0.0634 v 0.12402 l -0.2921459,0.16674 0.1832786,0.10336 v 0.11851 l -0.095084,0.0524 -0.2811181,-0.16674 -0.1943029,0.12402 0.1874132,0.11714 -0.1929271,0.11162 0.1998168,0.10473 0.2811181,-0.1571 0.089574,0.0634 v 0.113 l -0.1763887,0.0992 0.281118,0.16674 v 0.13092 l -0.1185088,0.0551 -0.2756075,-0.1571 v 0.20809 l -0.099219,0.0551 -0.097843,-0.0551 v -0.31558 l -0.203951,-0.11718 v 0.21911 l -0.1956823,-0.11851 v 0.21911 l 0.276987,0.15709 v 0.12403 l -0.095084,0.0469 -0.1860374,-0.10473 v 0.33348 l -0.1074878,0.0689 z m 0,0"
       style="fill:#ffffff;fill-opacity:1;fill-rule:nonzero;stroke:none;stroke-width:0.35277775" />
  </g>
</svg>
