<?xml version="1.0" encoding="UTF-8" standalone="no"?>
<!-- Created with Inkscape (http://www.inkscape.org/) -->

<svg
   xmlns:dc="http://purl.org/dc/elements/1.1/"
   xmlns:cc="http://creativecommons.org/ns#"
   xmlns:rdf="http://www.w3.org/1999/02/22-rdf-syntax-ns#"
   xmlns:svg="http://www.w3.org/2000/svg"
   xmlns="http://www.w3.org/2000/svg"
   xmlns:sodipodi="http://sodipodi.sourceforge.net/DTD/sodipodi-0.dtd"
   xmlns:inkscape="http://www.inkscape.org/namespaces/inkscape"
   width="3.75mm"
   height="3.75mm"
   viewBox="0 0 3.75 3.75"
   version="1.1"
   id="svg13826"
   inkscape:version="0.92.1 r15371"
   sodipodi:docname="winter_recreation_light.svg">
  <defs
     id="defs13820" />
  <sodipodi:namedview
     id="base"
     pagecolor="#ffffff"
     bordercolor="#666666"
     borderopacity="1.0"
     inkscape:pageopacity="0.0"
     inkscape:pageshadow="2"
     inkscape:zoom="28.687777"
     inkscape:cx="8.0356309"
     inkscape:cy="6.4105833"
     inkscape:document-units="mm"
     inkscape:current-layer="layer1"
     showgrid="false"
     inkscape:window-width="644"
     inkscape:window-height="699"
     inkscape:window-x="721"
     inkscape:window-y="35"
     inkscape:window-maximized="0"
     showguides="true"
     inkscape:guide-bbox="true"
     gridtolerance="10"
     guidetolerance="2">
    <inkscape:grid
       type="xygrid"
       id="grid13828" />
    <sodipodi:guide
       position="0.13043093,3.8477124"
       orientation="1,0"
       id="guide20533"
       inkscape:locked="false" />
    <sodipodi:guide
       position="1.9173346,3.6129367"
       orientation="0,1"
       id="guide20535"
       inkscape:locked="false" />
  </sodipodi:namedview>
  <metadata
     id="metadata13823">
    <rdf:RDF>
      <cc:Work
         rdf:about="">
        <dc:format>image/svg+xml</dc:format>
        <dc:type
           rdf:resource="http://purl.org/dc/dcmitype/StillImage" />
        <dc:title></dc:title>
      </cc:Work>
    </rdf:RDF>
  </metadata>
  <g
     inkscape:label="Layer 1"
     inkscape:groupmode="layer"
     id="layer1"
     transform="translate(0,-293.25)">
    <path
       inkscape:connector-curvature="0"
       id="path4635"
       d="m 3.2078248,296.86175 c 0.2301309,0 0.4161684,-0.18604 0.4161684,-0.41617 v -2.65272 c 0,-0.23151 -0.1860375,-0.41755 -0.4161684,-0.41755 H 0.55510176 c -0.23013459,0 -0.41616842,0.18604 -0.41616842,0.41755 v 2.65272 c 0,0.23013 0.18603383,0.41617 0.41616842,0.41617 z m 0,0"
       style="fill:#211e1e;fill-opacity:1;fill-rule:nonzero;stroke:none;stroke-width:0.35277775" />
    <path
       inkscape:connector-curvature="0"
       id="path4637"
       d="m 0.55510176,293.44559 c -0.19017193,0 -0.34588803,0.15572 -0.34588803,0.34727 v 2.65272 c 0,0.19017 0.1557161,0.34589 0.34588803,0.34589 H 3.2078248 c 0.1901682,0 0.3458879,-0.15572 0.3458879,-0.34589 v -2.65272 c 0,-0.19155 -0.1557197,-0.34727 -0.3458879,-0.34727 z m 0,0"
       style="fill:#ffffff;fill-opacity:1;fill-rule:nonzero;stroke:none;stroke-width:0.35277775" />
    <path
       inkscape:connector-curvature="0"
       id="path4639"
       d="m 1.6906051,295.11715 0.099219,0.14745 h 0.1860338 l 0.085439,-0.14745 -0.089574,-0.1571 H 1.7856893 Z m 0.075791,1.18511 v -0.3321 l -0.1860338,0.10473 -0.095084,-0.0551 v -0.11714 l 0.2769835,-0.15709 v -0.21911 l -0.2011927,0.12816 v -0.23151 l -0.1915478,0.11024 v 0.31557 l -0.1047291,0.0648 -0.088194,-0.0593 v -0.21084 l -0.29076646,0.16399 -0.12402613,-0.0524 v -0.13229 l 0.30454949,-0.16674 -0.19017186,-0.0965 v -0.12126 l 0.1088672,-0.0593 0.27284886,0.16124 0.1901719,-0.11025 -0.00413,-0.003 -0.1943029,-0.11162 0.188789,-0.11713 -0.1901684,-0.11024 -0.27285236,0.16123 -0.1033533,-0.051 v -0.12265 L 1.0580905,294.7723 0.76181018,294.61107 v -0.13229 l 0.11300176,-0.0593 0.29214226,0.1695 V 294.374 l 0.088195,-0.0593 0.1074879,0.062 -0.00141,0.32108 0.1956823,0.11163 v -0.22738 l 0.2053273,0.11162 v -0.21911 l -0.2769844,-0.15847 v -0.11576 l 0.095084,-0.0551 0.1860338,0.10473 v -0.3321 l 0.1074879,-0.0703 0.1074879,0.0703 v 0.3321 l 0.1929235,-0.10611 0.096464,0.0634 v 0.10473 l -0.2852561,0.16261 v 0.21911 l 0.1956823,-0.11989 v 0.2384 l 0.2011927,-0.10886 v -0.34314 l 0.096464,-0.0455 0.101974,0.0455 v 0.21911 l 0.3004149,-0.1626 0.1047292,0.0648 v 0.12402 l -0.2935217,0.16537 0.1832786,0.10335 v 0.11851 l -0.095084,0.0524 -0.281118,-0.16536 -0.1943065,0.12264 0.1887926,0.11714 -0.194303,0.11161 0.1998169,0.10474 0.281118,-0.1571 0.090949,0.0634 v 0.11438 l -0.1763887,0.0992 0.2811214,0.16674 v 0.13091 l -0.1198914,0.0537 -0.2756076,-0.15709 v 0.20808 l -0.099219,0.0551 -0.09646,-0.0551 v -0.31557 l -0.2039507,-0.11542 v 0.2191 L 1.985478,295.52637 v 0.2191 l 0.2756076,0.1571 v 0.12402 l -0.095084,0.0482 -0.1846544,-0.10474 v 0.33211 l -0.1074879,0.0703 z m 0,0"
       style="fill:#211e1e;fill-opacity:1;fill-rule:nonzero;stroke:none;stroke-width:0.35277775" />
  </g>
</svg>
