<?xml version="1.0" encoding="UTF-8" standalone="no"?>
<!-- Created with Inkscape (http://www.inkscape.org/) -->

<svg
   xmlns:dc="http://purl.org/dc/elements/1.1/"
   xmlns:cc="http://creativecommons.org/ns#"
   xmlns:rdf="http://www.w3.org/1999/02/22-rdf-syntax-ns#"
   xmlns:svg="http://www.w3.org/2000/svg"
   xmlns="http://www.w3.org/2000/svg"
   xmlns:sodipodi="http://sodipodi.sourceforge.net/DTD/sodipodi-0.dtd"
   xmlns:inkscape="http://www.inkscape.org/namespaces/inkscape"
   width="3.75mm"
   height="3.75mm"
   viewBox="0 0 3.75 3.75"
   version="1.1"
   id="svg13826"
   inkscape:version="0.92.1 r15371"
   sodipodi:docname="amphitheater_light.svg">
  <defs
     id="defs13820" />
  <sodipodi:namedview
     id="base"
     pagecolor="#ffffff"
     bordercolor="#666666"
     borderopacity="1.0"
     inkscape:pageopacity="0.0"
     inkscape:pageshadow="2"
     inkscape:zoom="20.285322"
     inkscape:cx="7.2558826"
     inkscape:cy="7.4973999"
     inkscape:document-units="mm"
     inkscape:current-layer="layer1"
     showgrid="false"
     inkscape:window-width="561"
     inkscape:window-height="558"
     inkscape:window-x="687"
     inkscape:window-y="78"
     inkscape:window-maximized="0"
     showguides="true"
     inkscape:guide-bbox="true"
     gridtolerance="10"
     guidetolerance="2">
    <inkscape:grid
       type="xygrid"
       id="grid13828" />
    <sodipodi:guide
       position="0.13043093,3.8477124"
       orientation="1,0"
       id="guide20533"
       inkscape:locked="false" />
    <sodipodi:guide
       position="1.9173346,3.6129367"
       orientation="0,1"
       id="guide20535"
       inkscape:locked="false" />
  </sodipodi:namedview>
  <metadata
     id="metadata13823">
    <rdf:RDF>
      <cc:Work
         rdf:about="">
        <dc:format>image/svg+xml</dc:format>
        <dc:type
           rdf:resource="http://purl.org/dc/dcmitype/StillImage" />
        <dc:title></dc:title>
      </cc:Work>
    </rdf:RDF>
  </metadata>
  <g
     inkscape:label="Layer 1"
     inkscape:groupmode="layer"
     id="layer1"
     transform="translate(0,-293.25)">
    <path
       inkscape:connector-curvature="0"
       id="path13715"
       d="m 3.2038789,296.86571 c 0.2301309,0 0.4175442,-0.18604 0.4175442,-0.41755 v -2.65272 c 0,-0.23014 -0.1874133,-0.41755 -0.4175442,-0.41755 H 0.55115236 c -0.23013104,0 -0.41616487,0.18741 -0.41616487,0.41755 v 2.65272 c 0,0.23151 0.18603383,0.41755 0.41616487,0.41755 z m 0,0"
       style="fill:#211e1e;fill-opacity:1;fill-rule:nonzero;stroke:none;stroke-width:0.35277775" />
    <path
       inkscape:connector-curvature="0"
       id="path13717"
       d="m 0.55115236,293.44955 c -0.19154421,0 -0.34588448,0.15434 -0.34588448,0.34589 v 2.6541 c 0,0.19017 0.15434027,0.34451 0.34588448,0.34451 H 3.2038789 c 0.191544,0 0.3458845,-0.15434 0.3458845,-0.34451 v -2.6541 c 0,-0.19155 -0.1543405,-0.34589 -0.3458845,-0.34589 z m 0,0"
       style="fill:#ffffff;fill-opacity:1;fill-rule:nonzero;stroke:none;stroke-width:0.35277775" />
    <path
       inkscape:connector-curvature="0"
       id="path13719"
       d="m 1.8782035,294.17302 c 0.1254019,0 0.2287552,-0.10197 0.2287552,-0.22876 0,-0.12815 -0.1033533,-0.23151 -0.2287552,-0.23151 -0.1281572,0 -0.2301311,0.10336 -0.2301311,0.23151 0,0.12679 0.1019739,0.22876 0.2301311,0.22876"
       style="fill:#211e1e;fill-opacity:1;fill-rule:nonzero;stroke:none;stroke-width:0.35277775" />
    <path
       inkscape:connector-curvature="0"
       id="path13721"
       d="M 2.2447643,294.24743 H 1.5061358 c -0.1626094,0 -0.2935252,0.13367 -0.2935252,0.29904 v 0.54984 c 0,0.13642 0.1819028,0.13642 0.1819028,0 v -0.53055 h 0.1874132 v 0.66973 c 0.096463,0.0221 0.1943029,0.0386 0.2976562,0.0386 0.1033533,0 0.1998169,-0.0165 0.2962769,-0.0386 v -0.66973 h 0.1860374 v 0.53055 c 0,0.1378 0.1805234,0.1378 0.1805234,0 v -0.54708 c 0,-0.15159 -0.1185122,-0.3018 -0.2976562,-0.3018"
       style="fill:#211e1e;fill-opacity:1;fill-rule:nonzero;stroke:none;stroke-width:0.35277775" />
    <path
       inkscape:connector-curvature="0"
       id="path13723"
       d="m 3.3237669,296.33929 -0.082684,-0.27422 c -0.4382135,0.0537 -0.895724,0.0841 -1.3697691,0.0841 -0.4712899,0 -0.92741736,-0.0289 -1.36149984,-0.0813 l -0.082684,0.27285 c 0.46026562,0.0579 0.94120034,0.0909 1.44418384,0.0909 0.5057422,0 0.9908116,-0.033 1.4524532,-0.0923"
       style="fill:#211e1e;fill-opacity:1;fill-rule:nonzero;stroke:none;stroke-width:0.35277775" />
    <path
       inkscape:connector-curvature="0"
       id="path13725"
       d="m 0.68068884,295.49869 -0.0826805,0.27699 c 0.40651996,0.0455 0.83233316,0.0689 1.27330536,0.0689 0.4437274,0 0.8709201,-0.0262 1.2815747,-0.0717 l -0.082681,-0.2756 c -0.3858506,0.0413 -0.7854808,0.0648 -1.198894,0.0648 -0.4106545,0 -0.8075294,-0.0234 -1.19062484,-0.0634"
       style="fill:#211e1e;fill-opacity:1;fill-rule:nonzero;stroke:none;stroke-width:0.35277775" />
  </g>
</svg>
