<?xml version="1.0" encoding="UTF-8" standalone="no"?>
<!-- Created with Inkscape (http://www.inkscape.org/) -->

<svg
   xmlns:dc="http://purl.org/dc/elements/1.1/"
   xmlns:cc="http://creativecommons.org/ns#"
   xmlns:rdf="http://www.w3.org/1999/02/22-rdf-syntax-ns#"
   xmlns:svg="http://www.w3.org/2000/svg"
   xmlns="http://www.w3.org/2000/svg"
   xmlns:sodipodi="http://sodipodi.sourceforge.net/DTD/sodipodi-0.dtd"
   xmlns:inkscape="http://www.inkscape.org/namespaces/inkscape"
   width="3.75mm"
   height="3.75mm"
   viewBox="0 0 3.75 3.75"
   version="1.1"
   id="svg13826"
   inkscape:version="0.92.1 r15371"
   sodipodi:docname="calendar_dark.svg">
  <defs
     id="defs13820" />
  <sodipodi:namedview
     id="base"
     pagecolor="#ffffff"
     bordercolor="#666666"
     borderopacity="1.0"
     inkscape:pageopacity="0.0"
     inkscape:pageshadow="2"
     inkscape:zoom="20.285322"
     inkscape:cx="7.3371728"
     inkscape:cy="7.4973999"
     inkscape:document-units="mm"
     inkscape:current-layer="layer1"
     showgrid="false"
     inkscape:window-width="561"
     inkscape:window-height="558"
     inkscape:window-x="687"
     inkscape:window-y="78"
     inkscape:window-maximized="0"
     showguides="true"
     inkscape:guide-bbox="true"
     gridtolerance="10"
     guidetolerance="2">
    <inkscape:grid
       type="xygrid"
       id="grid13828" />
    <sodipodi:guide
       position="0.13043093,3.8477124"
       orientation="1,0"
       id="guide20533"
       inkscape:locked="false" />
    <sodipodi:guide
       position="1.9173346,3.6129367"
       orientation="0,1"
       id="guide20535"
       inkscape:locked="false" />
  </sodipodi:namedview>
  <metadata
     id="metadata13823">
    <rdf:RDF>
      <cc:Work
         rdf:about="">
        <dc:format>image/svg+xml</dc:format>
        <dc:type
           rdf:resource="http://purl.org/dc/dcmitype/StillImage" />
        <dc:title></dc:title>
      </cc:Work>
    </rdf:RDF>
  </metadata>
  <g
     inkscape:label="Layer 1"
     inkscape:groupmode="layer"
     id="layer1"
     transform="translate(0,-293.25)">
    <path
       inkscape:connector-curvature="0"
       id="path9695"
       d="m 0.53811282,293.46327 c -0.1901684,0 -0.34450867,0.15434 -0.34450867,0.34451 v 2.6541 c 0,0.19155 0.15434027,0.34589 0.34450867,0.34589 H 3.1922152 c 0.1901684,0 0.3458845,-0.15434 0.3458845,-0.34589 v -2.6541 c 0,-0.19017 -0.1557161,-0.34451 -0.3458845,-0.34451 z m 0,0"
       style="fill:#ffffff;fill-opacity:1;fill-rule:nonzero;stroke:none;stroke-width:0.35277775" />
    <path
       inkscape:connector-curvature="0"
       id="path9697"
       d="m 3.1922152,296.87805 c 0.2301311,0 0.4161649,-0.18604 0.4161649,-0.41617 v -2.65273 c 0,-0.23151 -0.1860338,-0.41754 -0.4161649,-0.41754 H 0.53948865 c -0.23151042,0 -0.41754425,0.18603 -0.41754425,0.41754 v 2.65273 c 0,0.23013 0.18603383,0.41617 0.41754425,0.41617 z m 0,0"
       style="fill:#211e1e;fill-opacity:1;fill-rule:nonzero;stroke:none;stroke-width:0.35277775" />
    <path
       inkscape:connector-curvature="0"
       id="path9699"
       d="m 1.8568949,294.93226 h 0.184658 v 1.03628 h -0.208086 v -0.80064 l -0.1750095,0.14332 -0.1047327,-0.13505 z m 0,0"
       style="fill:#ffffff;fill-opacity:1;fill-rule:nonzero;stroke:none;stroke-width:0.35277775" />
    <path
       inkscape:connector-curvature="0"
       id="path9701"
       d="m 1.1609843,293.74439 c 0.062011,0 0.1130018,0.0496 0.1130018,0.11162 v 0.35415 c 0,0.062 -0.050991,0.11163 -0.1130018,0.11163 -0.060632,0 -0.111619,-0.0496 -0.111619,-0.11163 v -0.35415 c 0,-0.062 0.050987,-0.11162 0.111619,-0.11162"
       style="fill:#ffffff;fill-opacity:1;fill-rule:nonzero;stroke:none;stroke-width:0.35277775" />
    <path
       inkscape:connector-curvature="0"
       id="path9703"
       d="m 2.5693402,293.74439 c 0.062011,0 0.1116224,0.0496 0.1116224,0.11162 v 0.35415 c 0,0.062 -0.049611,0.11163 -0.1116224,0.11163 -0.062011,0 -0.1116224,-0.0496 -0.1116224,-0.11163 v -0.35415 c 0,-0.062 0.049611,-0.11162 0.1116224,-0.11162"
       style="fill:#ffffff;fill-opacity:1;fill-rule:nonzero;stroke:none;stroke-width:0.35277775" />
    <path
       inkscape:connector-curvature="0"
       id="path9705"
       d="m 3.017202,295.75219 -0.5126283,0.50712 H 0.71312234 v -1.59715 H 3.017202 Z m -0.2094616,-1.68258 v 0.14055 c 0,0.1323 -0.1061086,0.2384 -0.2384002,0.2384 -0.1322917,0 -0.2384002,-0.1061 -0.2384002,-0.2384 v -0.14055 H 1.4007638 v 0.14055 c 0,0.1323 -0.1074878,0.2384 -0.2397795,0.2384 -0.1309124,0 -0.23840018,-0.1061 -0.23840018,-0.2384 v -0.14055 H 0.57256157 v 2.33164 H 3.157763 v -2.33164 z m 0,0"
       style="fill:#ffffff;fill-opacity:1;fill-rule:nonzero;stroke:none;stroke-width:0.35277775" />
  </g>
</svg>
