<?xml version="1.0" encoding="UTF-8" standalone="no"?>
<!-- Created with Inkscape (http://www.inkscape.org/) -->

<svg
   xmlns:dc="http://purl.org/dc/elements/1.1/"
   xmlns:cc="http://creativecommons.org/ns#"
   xmlns:rdf="http://www.w3.org/1999/02/22-rdf-syntax-ns#"
   xmlns:svg="http://www.w3.org/2000/svg"
   xmlns="http://www.w3.org/2000/svg"
   xmlns:sodipodi="http://sodipodi.sourceforge.net/DTD/sodipodi-0.dtd"
   xmlns:inkscape="http://www.inkscape.org/namespaces/inkscape"
   width="3.75mm"
   height="3.75mm"
   viewBox="0 0 3.75 3.75"
   version="1.1"
   id="svg13826"
   inkscape:version="0.92.1 r15371"
   sodipodi:docname="directions_dark.svg">
  <defs
     id="defs13820" />
  <sodipodi:namedview
     id="base"
     pagecolor="#ffffff"
     bordercolor="#666666"
     borderopacity="1.0"
     inkscape:pageopacity="0.0"
     inkscape:pageshadow="2"
     inkscape:zoom="20.285322"
     inkscape:cx="7.3371728"
     inkscape:cy="7.4973999"
     inkscape:document-units="mm"
     inkscape:current-layer="layer1"
     showgrid="false"
     inkscape:window-width="561"
     inkscape:window-height="558"
     inkscape:window-x="687"
     inkscape:window-y="78"
     inkscape:window-maximized="0"
     showguides="true"
     inkscape:guide-bbox="true"
     gridtolerance="10"
     guidetolerance="2">
    <inkscape:grid
       type="xygrid"
       id="grid13828" />
    <sodipodi:guide
       position="0.13043093,3.8477124"
       orientation="1,0"
       id="guide20533"
       inkscape:locked="false" />
    <sodipodi:guide
       position="1.9173346,3.6129367"
       orientation="0,1"
       id="guide20535"
       inkscape:locked="false" />
  </sodipodi:namedview>
  <metadata
     id="metadata13823">
    <rdf:RDF>
      <cc:Work
         rdf:about="">
        <dc:format>image/svg+xml</dc:format>
        <dc:type
           rdf:resource="http://purl.org/dc/dcmitype/StillImage" />
        <dc:title></dc:title>
      </cc:Work>
    </rdf:RDF>
  </metadata>
  <g
     inkscape:label="Layer 1"
     inkscape:groupmode="layer"
     id="layer1"
     transform="translate(0,-293.25)">
    <path
       inkscape:connector-curvature="0"
       id="path9433"
       d="m 0.55046625,293.4619 c -0.1901684,0 -0.34588803,0.15572 -0.34588803,0.34589 v 2.6541 c 0,0.19017 0.15571963,0.34589 0.34588803,0.34589 H 3.2045686 c 0.1915443,0 0.3458845,-0.15572 0.3458845,-0.34589 v -2.6541 c 0,-0.19017 -0.1543402,-0.34589 -0.3458845,-0.34589 z m 0,0"
       style="fill:#ffffff;fill-opacity:1;fill-rule:nonzero;stroke:none;stroke-width:0.35277775" />
    <path
       inkscape:connector-curvature="0"
       id="path9435"
       d="m 3.2045686,296.87806 c 0.2301311,0 0.4175442,-0.18604 0.4175442,-0.41617 v -2.6541 c 0,-0.23014 -0.1874131,-0.41617 -0.4175442,-0.41617 H 0.55184208 c -0.23151042,0 -0.41754425,0.18603 -0.41754425,0.41617 v 2.6541 c 0,0.23013 0.18603383,0.41617 0.41754425,0.41617 z m 0,0"
       style="fill:#211e1e;fill-opacity:1;fill-rule:nonzero;stroke:none;stroke-width:0.35277775" />
    <path
       inkscape:connector-curvature="0"
       id="path9437"
       d="m 2.0456372,293.92354 c 0.5415703,0.0744 0.9701387,0.50161 1.0445538,1.04456 l 0.1295329,0.0413 0.1446953,0.0469 c -0.039963,-0.7593 -0.6476788,-1.36839 -1.4083558,-1.40698 l 0.046856,0.14332 z m 0,0"
       style="fill:#ffffff;fill-opacity:1;fill-rule:nonzero;stroke:none;stroke-width:0.35277775" />
    <path
       inkscape:connector-curvature="0"
       id="path9439"
       d="m 1.7107735,296.34751 c -0.5415704,-0.0744 -0.97013888,-0.50298 -1.04455382,-1.04455 l -0.13091231,-0.0427 -0.14331596,-0.0469 c 0.0385833,0.76067 0.64767879,1.36839 1.40697649,1.40835 l -0.046852,-0.14469 z m 0,0"
       style="fill:#ffffff;fill-opacity:1;fill-rule:nonzero;stroke:none;stroke-width:0.35277775" />
    <path
       inkscape:connector-curvature="0"
       id="path9441"
       d="m 3.090191,295.30296 c -0.074415,0.54157 -0.5029835,0.97014 -1.0445538,1.04455 l -0.042718,0.13092 -0.046856,0.14331 c 0.7593012,-0.04 1.3683932,-0.64768 1.4083558,-1.40835 l -0.1446953,0.0469 z m 0,0"
       style="fill:#ffffff;fill-opacity:1;fill-rule:nonzero;stroke:none;stroke-width:0.35277775" />
    <path
       inkscape:connector-curvature="0"
       id="path9443"
       d="m 0.66621968,294.9681 c 0.0730356,-0.54295 0.50298342,-0.97014 1.04317442,-1.04456 l 0.042721,-0.13091 0.046852,-0.14332 c -0.7592977,0.0386 -1.3683932,0.64768 -1.40697649,1.40698 l 0.14331596,-0.0469 z m 0,0"
       style="fill:#ffffff;fill-opacity:1;fill-rule:nonzero;stroke:none;stroke-width:0.35277775" />
    <path
       inkscape:connector-curvature="0"
       id="path9445"
       d="m 2.255099,294.56709 0.00413,0.0138 0.042718,0.12954 0.1309159,0.0427 0.012418,0.006 0.013793,0.004 0.1956823,-0.36656 0.042721,-0.0799 -0.081305,0.0427 -0.3651815,0.1943 z m 0,0"
       style="fill:#ffffff;fill-opacity:1;fill-rule:nonzero;stroke:none;stroke-width:0.35277775" />
    <path
       inkscape:connector-curvature="0"
       id="path9447"
       d="m 1.1016815,294.39621 0.1943029,0.36656 0.013794,-0.004 0.013794,-0.006 0.1295364,-0.0413 0.042721,-0.13092 0.0055,-0.0138 0.00413,-0.0138 -0.3665572,-0.19431 -0.079929,-0.0427 z m 0,0"
       style="fill:#ffffff;fill-opacity:1;fill-rule:nonzero;stroke:none;stroke-width:0.35277775" />
    <path
       inkscape:connector-curvature="0"
       id="path9449"
       d="m 1.4999323,295.70397 -0.00413,-0.0138 -0.042721,-0.13092 -0.1295365,-0.0427 -0.027552,-0.008 -0.1943029,0.36518 -0.042721,0.0813 0.079929,-0.0427 0.3665573,-0.19568 z m 0,0"
       style="fill:#ffffff;fill-opacity:1;fill-rule:nonzero;stroke:none;stroke-width:0.35277775" />
    <path
       inkscape:connector-curvature="0"
       id="path9451"
       d="m 2.4466467,295.51242 -0.013793,0.004 -0.1309159,0.0427 -0.042718,0.13091 -0.00413,0.0138 -0.00413,0.0124 0.3651813,0.19569 0.081305,0.0427 -0.042721,-0.0813 -0.1956824,-0.36518 z m 0,0"
       style="fill:#ffffff;fill-opacity:1;fill-rule:nonzero;stroke:none;stroke-width:0.35277775" />
    <path
       inkscape:connector-curvature="0"
       id="path9453"
       d="m 3.1012152,295.16102 0.078546,-0.0262 -0.078546,-0.0248 -0.903993,-0.2949 -0.3197048,-0.98116 -0.0248,0.0786 -0.2948975,0.90261 -0.90261719,0.2949 -0.078546,0.0248 0.078546,0.0262 0.90261719,0.29352 0.2948975,0.90399 0.0248,0.0786 0.026176,-0.0786 0.2935217,-0.90399 z m 0,0"
       style="fill:#ffffff;fill-opacity:1;fill-rule:nonzero;stroke:none;stroke-width:0.35277775" />
  </g>
</svg>
