<?xml version="1.0" encoding="UTF-8" standalone="no"?>
<!-- Created with Inkscape (http://www.inkscape.org/) -->

<svg
   xmlns:dc="http://purl.org/dc/elements/1.1/"
   xmlns:cc="http://creativecommons.org/ns#"
   xmlns:rdf="http://www.w3.org/1999/02/22-rdf-syntax-ns#"
   xmlns:svg="http://www.w3.org/2000/svg"
   xmlns="http://www.w3.org/2000/svg"
   xmlns:sodipodi="http://sodipodi.sourceforge.net/DTD/sodipodi-0.dtd"
   xmlns:inkscape="http://www.inkscape.org/namespaces/inkscape"
   width="3.75mm"
   height="3.75mm"
   viewBox="0 0 3.75 3.75"
   version="1.1"
   id="svg13826"
   inkscape:version="0.92.1 r15371"
   sodipodi:docname="driving_dark.svg">
  <defs
     id="defs13820" />
  <sodipodi:namedview
     id="base"
     pagecolor="#ffffff"
     bordercolor="#666666"
     borderopacity="1.0"
     inkscape:pageopacity="0.0"
     inkscape:pageshadow="2"
     inkscape:zoom="20.285322"
     inkscape:cx="7.3371728"
     inkscape:cy="7.4973999"
     inkscape:document-units="mm"
     inkscape:current-layer="layer1"
     showgrid="false"
     inkscape:window-width="561"
     inkscape:window-height="558"
     inkscape:window-x="687"
     inkscape:window-y="78"
     inkscape:window-maximized="0"
     showguides="true"
     inkscape:guide-bbox="true"
     gridtolerance="10"
     guidetolerance="2">
    <inkscape:grid
       type="xygrid"
       id="grid13828" />
    <sodipodi:guide
       position="0.13043093,3.8477124"
       orientation="1,0"
       id="guide20533"
       inkscape:locked="false" />
    <sodipodi:guide
       position="1.9173346,3.6129367"
       orientation="0,1"
       id="guide20535"
       inkscape:locked="false" />
  </sodipodi:namedview>
  <metadata
     id="metadata13823">
    <rdf:RDF>
      <cc:Work
         rdf:about="">
        <dc:format>image/svg+xml</dc:format>
        <dc:type
           rdf:resource="http://purl.org/dc/dcmitype/StillImage" />
        <dc:title></dc:title>
      </cc:Work>
    </rdf:RDF>
  </metadata>
  <g
     inkscape:label="Layer 1"
     inkscape:groupmode="layer"
     id="layer1"
     transform="translate(0,-293.25)">
    <path
       inkscape:connector-curvature="0"
       id="path4233"
       d="m 0.53742316,293.46052 c -0.1901684,0 -0.34588803,0.15572 -0.34588803,0.34589 v 2.65686 c 0,0.19016 0.15571963,0.34588 0.34588803,0.34588 H 3.1929047 c 0.1901685,0 0.3458845,-0.15572 0.3458845,-0.34588 v -2.65686 c 0,-0.19017 -0.155716,-0.34589 -0.3458845,-0.34589 z m 0,0"
       style="fill:#ffffff;fill-opacity:1;fill-rule:nonzero;stroke:none;stroke-width:0.35277775" />
    <path
       inkscape:connector-curvature="0"
       id="path4235"
       d="m 0.53742316,296.87943 c -0.23013106,0 -0.41616842,-0.18603 -0.41616842,-0.41754 v -2.65411 c 0,-0.23013 0.18603736,-0.41754 0.41616842,-0.41754 H 3.1929047 c 0.2301312,0 0.416165,0.18741 0.416165,0.41754 v 2.65411 c 0,0.23151 -0.1860338,0.41754 -0.416165,0.41754 z m 0,0"
       style="fill:#211e1e;fill-opacity:1;fill-rule:nonzero;stroke:none;stroke-width:0.35277775" />
    <path
       inkscape:connector-curvature="0"
       id="path4237"
       d="m 2.1001192,293.61348 -0.2163515,0.21498 0.2163515,0.21772 H 1.9168406 l -0.2177309,-0.21772 0.2177309,-0.21498 z m 0,0"
       style="fill:#ffffff;fill-opacity:1;fill-rule:nonzero;stroke:none;stroke-width:0.35277775" />
    <path
       inkscape:connector-curvature="0"
       id="path4239"
       d="m 1.6288293,296.22762 0.2177309,0.21635 -0.2177309,0.21773 h 0.184658 l 0.2177309,-0.21773 -0.2177309,-0.21635 z m 0,0"
       style="fill:#ffffff;fill-opacity:1;fill-rule:nonzero;stroke:none;stroke-width:0.35277775" />
    <path
       inkscape:connector-curvature="0"
       id="path4241"
       d="M 2.4239587,294.90746 2.291667,294.58775 c -0.0055,-0.0165 -0.020673,-0.0276 -0.039963,-0.0276 h -0.77446 c -0.016545,0 -0.033055,0.011 -0.038583,0.0276 l -0.133671,0.31971 z m 0.1240225,0.25769 c 0,-0.062 -0.049608,-0.11162 -0.1116224,-0.11162 -0.062011,0 -0.1116189,0.0496 -0.1116189,0.11162 0,0.0606 0.049608,0.11162 0.1116189,0.11162 0.062015,0 0.1116224,-0.051 0.1116224,-0.11162 m -1.2636605,0.11162 c 0.062011,0 0.1116224,-0.051 0.1116224,-0.11162 0,-0.062 -0.049611,-0.11162 -0.1116224,-0.11162 -0.060635,0 -0.1116224,0.0496 -0.1116224,0.11162 0,0.0606 0.050987,0.11162 0.1116224,0.11162 m 0.1364262,0.27285 v 0.13505 c 0,0.073 -0.059256,0.13367 -0.133671,0.13367 -0.073036,0 -0.1322917,-0.0606 -0.1322917,-0.13367 v -0.13505 H 1.0197374 v -0.43545 c 0,-0.0951 0.064767,-0.17502 0.151585,-0.19982 l 0.1557161,-0.36931 c 0.022048,-0.0551 0.075794,-0.0937 0.1378056,-0.0937 h 0.7992604 c 0.063391,0 0.115757,0.0386 0.1391814,0.0937 l 0.1557196,0.36931 c 0.088195,0.0248 0.1515851,0.10473 0.1515851,0.19982 v 0.43545 H 2.5755437 v 0.13505 c 0,0.073 -0.059256,0.13367 -0.133671,0.13367 -0.073036,0 -0.1322916,-0.0606 -0.1322916,-0.13367 v -0.13505 z m 0,0"
       style="fill:#ffffff;fill-opacity:1;fill-rule:nonzero;stroke:none;stroke-width:0.35277775" />
    <path
       inkscape:connector-curvature="0"
       id="path4243"
       d="m 3.044075,293.8381 c 0,0.0648 0.052366,0.11576 0.1171327,0.11576 0.063391,0 0.115757,-0.051 0.115757,-0.11576 0,-0.0634 -0.052366,-0.11438 -0.115757,-0.11438 -0.064766,0 -0.1171327,0.051 -0.1171327,0.11438"
       style="fill:#ffffff;fill-opacity:1;fill-rule:nonzero;stroke:none;stroke-width:0.35277775" />
    <path
       inkscape:connector-curvature="0"
       id="path4245"
       d="m 0.68487368,296.43157 c 0,-0.0648 -0.0496076,-0.11575 -0.11575344,-0.11575 -0.0633907,0 -0.11437763,0.051 -0.11437763,0.11575 0,0.0634 0.050987,0.11438 0.11437763,0.11438 0.0661458,0 0.11575344,-0.051 0.11575344,-0.11438"
       style="fill:#ffffff;fill-opacity:1;fill-rule:nonzero;stroke:none;stroke-width:0.35277775" />
    <path
       inkscape:connector-curvature="0"
       id="path4247"
       d="m 1.0018233,296.55697 c 0.063391,0 0.1143776,-0.051 0.1143776,-0.11575 0,-0.0648 -0.050987,-0.11576 -0.1143776,-0.11576 -0.0633906,0 -0.11575694,0.051 -0.11575694,0.11576 0,0.0648 0.0523663,0.11575 0.11575694,0.11575"
       style="fill:#ffffff;fill-opacity:1;fill-rule:nonzero;stroke:none;stroke-width:0.35277775" />
    <path
       inkscape:connector-curvature="0"
       id="path4249"
       d="m 1.433147,296.55835 c 0.06477,0 0.115757,-0.051 0.115757,-0.11576 0,-0.0634 -0.050987,-0.11437 -0.115757,-0.11437 -0.063387,0 -0.1157534,0.051 -0.1157534,0.11437 0,0.0648 0.052366,0.11576 0.1157534,0.11576"
       style="fill:#ffffff;fill-opacity:1;fill-rule:nonzero;stroke:none;stroke-width:0.35277775" />
    <path
       inkscape:connector-curvature="0"
       id="path4251"
       d="m 2.2971774,296.55835 c 0.06477,0 0.115757,-0.051 0.115757,-0.11576 0,-0.0634 -0.050987,-0.11437 -0.115757,-0.11437 -0.064767,0 -0.1157534,0.051 -0.1157534,0.11437 0,0.0648 0.050987,0.11576 0.1157534,0.11576"
       style="fill:#ffffff;fill-opacity:1;fill-rule:nonzero;stroke:none;stroke-width:0.35277775" />
    <path
       inkscape:connector-curvature="0"
       id="path4253"
       d="m 2.7285047,296.55835 c 0.063391,0 0.1157533,-0.051 0.1157533,-0.11576 0,-0.0634 -0.052363,-0.11437 -0.1157533,-0.11437 -0.064767,0 -0.115757,0.051 -0.115757,0.11437 0,0.0648 0.05099,0.11576 0.115757,0.11576"
       style="fill:#ffffff;fill-opacity:1;fill-rule:nonzero;stroke:none;stroke-width:0.35277775" />
    <path
       inkscape:connector-curvature="0"
       id="path4255"
       d="m 3.1598318,296.55697 c 0.066146,0 0.1171329,-0.051 0.1171329,-0.11575 0,-0.0634 -0.050987,-0.11438 -0.1171329,-0.11438 -0.06339,0 -0.1157568,0.051 -0.1157568,0.11438 0,0.0648 0.052366,0.11575 0.1157568,0.11575"
       style="fill:#ffffff;fill-opacity:1;fill-rule:nonzero;stroke:none;stroke-width:0.35277775" />
    <path
       inkscape:connector-curvature="0"
       id="path4257"
       d="m 0.68487368,295.99749 c 0,-0.0634 -0.0496076,-0.11438 -0.11575344,-0.11438 -0.0633907,0 -0.11437763,0.051 -0.11437763,0.11438 0,0.0648 0.050987,0.11575 0.11437763,0.11575 0.0661458,0 0.11575344,-0.051 0.11575344,-0.11575"
       style="fill:#ffffff;fill-opacity:1;fill-rule:nonzero;stroke:none;stroke-width:0.35277775" />
    <path
       inkscape:connector-curvature="0"
       id="path4259"
       d="m 0.68487368,295.5634 c 0,-0.0648 -0.0496076,-0.11575 -0.11437761,-0.11575 -0.0647665,0 -0.11575346,0.051 -0.11575346,0.11575 0,0.0634 0.050987,0.11576 0.11575346,0.11576 0.06477,0 0.11437761,-0.0524 0.11437761,-0.11576"
       style="fill:#ffffff;fill-opacity:1;fill-rule:nonzero;stroke:none;stroke-width:0.35277775" />
    <path
       inkscape:connector-curvature="0"
       id="path4261"
       d="m 0.68487368,295.12933 c 0,-0.0634 -0.0496076,-0.11576 -0.11437761,-0.11576 -0.0647665,0 -0.11575346,0.0524 -0.11575346,0.11576 0,0.0648 0.050987,0.11575 0.11575346,0.11575 0.06477,0 0.11437761,-0.051 0.11437761,-0.11575"
       style="fill:#ffffff;fill-opacity:1;fill-rule:nonzero;stroke:none;stroke-width:0.35277775" />
    <path
       inkscape:connector-curvature="0"
       id="path4263"
       d="m 0.68487368,294.69524 c 0,-0.0648 -0.0496076,-0.11575 -0.11437761,-0.11575 -0.0647665,0 -0.11575346,0.051 -0.11575346,0.11575 0,0.0634 0.050987,0.11576 0.11575346,0.11576 0.06477,0 0.11437761,-0.0524 0.11437761,-0.11576"
       style="fill:#ffffff;fill-opacity:1;fill-rule:nonzero;stroke:none;stroke-width:0.35277775" />
    <path
       inkscape:connector-curvature="0"
       id="path4265"
       d="m 0.68487368,294.26116 c 0,-0.0648 -0.0496076,-0.11576 -0.11437761,-0.11576 -0.0647665,0 -0.11575346,0.051 -0.11575346,0.11576 0,0.062 0.050987,0.11438 0.11575346,0.11438 0.06477,0 0.11437761,-0.0524 0.11437761,-0.11438"
       style="fill:#ffffff;fill-opacity:1;fill-rule:nonzero;stroke:none;stroke-width:0.35277775" />
    <path
       inkscape:connector-curvature="0"
       id="path4267"
       d="m 0.68487368,293.82708 c 0,-0.0648 -0.0496076,-0.11576 -0.11437761,-0.11576 -0.0633906,0 -0.11575346,0.051 -0.11575346,0.11576 0,0.0634 0.0523628,0.11438 0.11575346,0.11438 0.06477,0 0.11437761,-0.051 0.11437761,-0.11438"
       style="fill:#ffffff;fill-opacity:1;fill-rule:nonzero;stroke:none;stroke-width:0.35277775" />
    <path
       inkscape:connector-curvature="0"
       id="path4269"
       d="m 2.7285047,293.71132 c -0.064767,0 -0.115757,0.051 -0.115757,0.11576 0,0.0634 0.05099,0.11438 0.115757,0.11438 0.063391,0 0.1157533,-0.051 0.1157533,-0.11438 0,-0.0648 -0.052363,-0.11576 -0.1157533,-0.11576"
       style="fill:#ffffff;fill-opacity:1;fill-rule:nonzero;stroke:none;stroke-width:0.35277775" />
    <path
       inkscape:connector-curvature="0"
       id="path4271"
       d="m 2.2958016,293.71132 c -0.063391,0 -0.1143776,0.051 -0.1143776,0.11576 0,0.0634 0.050987,0.11438 0.1143776,0.11438 0.066146,0 0.1171328,-0.051 0.1171328,-0.11438 0,-0.0648 -0.050987,-0.11576 -0.1171328,-0.11576"
       style="fill:#ffffff;fill-opacity:1;fill-rule:nonzero;stroke:none;stroke-width:0.35277775" />
    <path
       inkscape:connector-curvature="0"
       id="path4273"
       d="m 1.433147,293.71132 c -0.063387,0 -0.1157534,0.051 -0.1157534,0.11576 0,0.0634 0.052366,0.11438 0.1157534,0.11438 0.06477,0 0.115757,-0.051 0.115757,-0.11438 0,-0.0648 -0.050987,-0.11576 -0.115757,-0.11576"
       style="fill:#ffffff;fill-opacity:1;fill-rule:nonzero;stroke:none;stroke-width:0.35277775" />
    <path
       inkscape:connector-curvature="0"
       id="path4275"
       d="m 1.0018233,293.71132 c -0.0633906,0 -0.11575694,0.051 -0.11575694,0.11576 0,0.0634 0.0523663,0.11438 0.11575694,0.11438 0.066146,0 0.1157535,-0.051 0.1157535,-0.11438 0,-0.0648 -0.049608,-0.11576 -0.1157535,-0.11576"
       style="fill:#ffffff;fill-opacity:1;fill-rule:nonzero;stroke:none;stroke-width:0.35277775" />
    <path
       inkscape:connector-curvature="0"
       id="path4277"
       d="m 3.044075,294.27218 c 0,0.0634 0.052366,0.11576 0.1171327,0.11576 0.063391,0 0.115757,-0.0524 0.115757,-0.11576 0,-0.0648 -0.052366,-0.11575 -0.115757,-0.11575 -0.064766,0 -0.1171327,0.051 -0.1171327,0.11575"
       style="fill:#ffffff;fill-opacity:1;fill-rule:nonzero;stroke:none;stroke-width:0.35277775" />
    <path
       inkscape:connector-curvature="0"
       id="path4279"
       d="m 3.044075,294.70627 c 0,0.062 0.052366,0.11575 0.1157568,0.11575 0.064767,0 0.1171329,-0.0537 0.1171329,-0.11575 0,-0.0648 -0.052366,-0.11714 -0.1171329,-0.11714 -0.06339,0 -0.1157568,0.0524 -0.1157568,0.11714"
       style="fill:#ffffff;fill-opacity:1;fill-rule:nonzero;stroke:none;stroke-width:0.35277775" />
    <path
       inkscape:connector-curvature="0"
       id="path4281"
       d="m 3.044075,295.13897 c 0,0.0634 0.052366,0.11713 0.1157568,0.11713 0.064767,0 0.1171329,-0.0537 0.1171329,-0.11713 0,-0.062 -0.052366,-0.11576 -0.1171329,-0.11576 -0.06339,0 -0.1157568,0.0537 -0.1157568,0.11576"
       style="fill:#ffffff;fill-opacity:1;fill-rule:nonzero;stroke:none;stroke-width:0.35277775" />
    <path
       inkscape:connector-curvature="0"
       id="path4283"
       d="m 3.044075,295.57443 c 0,0.0634 0.052366,0.11438 0.1157568,0.11438 0.064767,0 0.1171329,-0.051 0.1171329,-0.11438 0,-0.0648 -0.052366,-0.11576 -0.1171329,-0.11576 -0.06339,0 -0.1157568,0.051 -0.1157568,0.11576"
       style="fill:#ffffff;fill-opacity:1;fill-rule:nonzero;stroke:none;stroke-width:0.35277775" />
    <path
       inkscape:connector-curvature="0"
       id="path4285"
       d="m 3.044075,296.00713 c 0,0.0634 0.052366,0.11714 0.1157568,0.11714 0.064767,0 0.1171329,-0.0538 0.1171329,-0.11714 0,-0.062 -0.052366,-0.11575 -0.1171329,-0.11575 -0.06339,0 -0.1157568,0.0537 -0.1157568,0.11575"
       style="fill:#ffffff;fill-opacity:1;fill-rule:nonzero;stroke:none;stroke-width:0.35277775" />
  </g>
</svg>
