<?xml version="1.0" encoding="UTF-8" standalone="no"?>
<!-- Created with Inkscape (http://www.inkscape.org/) -->

<svg
   xmlns:dc="http://purl.org/dc/elements/1.1/"
   xmlns:cc="http://creativecommons.org/ns#"
   xmlns:rdf="http://www.w3.org/1999/02/22-rdf-syntax-ns#"
   xmlns:svg="http://www.w3.org/2000/svg"
   xmlns="http://www.w3.org/2000/svg"
   xmlns:sodipodi="http://sodipodi.sourceforge.net/DTD/sodipodi-0.dtd"
   xmlns:inkscape="http://www.inkscape.org/namespaces/inkscape"
   width="3.75mm"
   height="3.75mm"
   viewBox="0 0 3.75 3.75"
   version="1.1"
   id="svg13826"
   inkscape:version="0.92.1 r15371"
   sodipodi:docname="information_dark.svg">
  <defs
     id="defs13820" />
  <sodipodi:namedview
     id="base"
     pagecolor="#ffffff"
     bordercolor="#666666"
     borderopacity="1.0"
     inkscape:pageopacity="0.0"
     inkscape:pageshadow="2"
     inkscape:zoom="20.285322"
     inkscape:cx="7.3371728"
     inkscape:cy="7.4973999"
     inkscape:document-units="mm"
     inkscape:current-layer="layer1"
     showgrid="false"
     inkscape:window-width="561"
     inkscape:window-height="558"
     inkscape:window-x="687"
     inkscape:window-y="78"
     inkscape:window-maximized="0"
     showguides="true"
     inkscape:guide-bbox="true"
     gridtolerance="10"
     guidetolerance="2">
    <inkscape:grid
       type="xygrid"
       id="grid13828" />
    <sodipodi:guide
       position="0.13043093,3.8477124"
       orientation="1,0"
       id="guide20533"
       inkscape:locked="false" />
    <sodipodi:guide
       position="1.9173346,3.6129367"
       orientation="0,1"
       id="guide20535"
       inkscape:locked="false" />
  </sodipodi:namedview>
  <metadata
     id="metadata13823">
    <rdf:RDF>
      <cc:Work
         rdf:about="">
        <dc:format>image/svg+xml</dc:format>
        <dc:type
           rdf:resource="http://purl.org/dc/dcmitype/StillImage" />
        <dc:title></dc:title>
      </cc:Work>
    </rdf:RDF>
  </metadata>
  <g
     inkscape:label="Layer 1"
     inkscape:groupmode="layer"
     id="layer1"
     transform="translate(0,-293.25)">
    <path
       inkscape:connector-curvature="0"
       id="path11991"
       d="m 0.53811281,293.47494 c -0.1901684,0 -0.34588803,0.15434 -0.34588803,0.34589 v 2.65272 c 0,0.19155 0.15571963,0.34589 0.34588803,0.34589 H 3.1922152 c 0.1901684,0 0.3458845,-0.15434 0.3458845,-0.34589 v -2.65272 c 0,-0.19155 -0.1557161,-0.34589 -0.3458845,-0.34589 z m 0,0"
       style="fill:#ffffff;fill-opacity:1;fill-rule:nonzero;stroke:none;stroke-width:0.35277775" />
    <path
       inkscape:connector-curvature="0"
       id="path11993"
       d="m 3.1922152,296.8911 c 0.2301311,0 0.4161649,-0.18742 0.4161649,-0.41755 v -2.65272 c 0,-0.23014 -0.1860338,-0.41617 -0.4161649,-0.41617 H 0.53948864 c -0.23151042,0 -0.41754425,0.18603 -0.41754425,0.41617 v 2.65272 c 0,0.23013 0.18603383,0.41755 0.41754425,0.41755 z m 0,0"
       style="fill:#211e1e;fill-opacity:1;fill-rule:nonzero;stroke:none;stroke-width:0.35277775" />
    <path
       inkscape:connector-curvature="0"
       id="path11995"
       d="m 0.41409024,295.1465 c 0,-0.80064 0.65043406,-1.44969 1.45107376,-1.44969 0.8020156,0 1.4510738,0.64905 1.4510738,1.44969 0,0.80202 -0.6490582,1.45107 -1.4510738,1.45107 -0.8006397,0 -1.45107376,-0.64905 -1.45107376,-1.45107 m 1.45107376,1.23886 c 0.6835069,0 1.2388568,-0.55397 1.2388568,-1.23886 0,-0.68351 -0.5553499,-1.23748 -1.2388568,-1.23748 -0.6835069,0 -1.23885676,0.55397 -1.23885676,1.23748 0,0.68489 0.55534986,1.23886 1.23885676,1.23886"
       style="fill:#ffffff;fill-opacity:1;fill-rule:nonzero;stroke:none;stroke-width:0.35277775" />
    <path
       inkscape:connector-curvature="0"
       id="path11997"
       d="m 1.703934,295.59023 h 0.2962768 v -0.23013 c 0,-0.062 0.028928,-0.12127 0.1061085,-0.17226 0.07717,-0.051 0.2949011,-0.15434 0.2949011,-0.42581 0,-0.27285 -0.2273759,-0.45889 -0.4189236,-0.49885 -0.1915477,-0.04 -0.3996302,-0.0138 -0.5470807,0.14745 -0.1322917,0.14469 -0.1598542,0.25907 -0.1598542,0.51125 h 0.2962804 v -0.0593 c 0,-0.13366 0.015169,-0.2756 0.2067031,-0.31419 0.1061085,-0.0221 0.2039514,0.011 0.2618281,0.0689 0.067525,0.0648 0.067525,0.21222 -0.038583,0.28388 l -0.1667439,0.113 c -0.097839,0.0634 -0.1309123,0.13367 -0.1309123,0.23426 z m 0,0"
       style="fill:#ffffff;fill-opacity:1;fill-rule:nonzero;stroke:none;stroke-width:0.35277775" />
    <path
       inkscape:connector-curvature="0"
       id="path11999"
       d="m 1.7025546,295.7239 h 0.2990356 v 0.30454 H 1.7025546 Z m 0,0"
       style="fill:#ffffff;fill-opacity:1;fill-rule:nonzero;stroke:none;stroke-width:0.35277775" />
  </g>
</svg>
