<?xml version="1.0" encoding="UTF-8" standalone="no"?>
<!-- Created with Inkscape (http://www.inkscape.org/) -->

<svg
   xmlns:dc="http://purl.org/dc/elements/1.1/"
   xmlns:cc="http://creativecommons.org/ns#"
   xmlns:rdf="http://www.w3.org/1999/02/22-rdf-syntax-ns#"
   xmlns:svg="http://www.w3.org/2000/svg"
   xmlns="http://www.w3.org/2000/svg"
   xmlns:sodipodi="http://sodipodi.sourceforge.net/DTD/sodipodi-0.dtd"
   xmlns:inkscape="http://www.inkscape.org/namespaces/inkscape"
   width="3.75mm"
   height="3.75mm"
   viewBox="0 0 3.75 3.75"
   version="1.1"
   id="svg13826"
   inkscape:version="0.92.1 r15371"
   sodipodi:docname="information_light.svg">
  <defs
     id="defs13820" />
  <sodipodi:namedview
     id="base"
     pagecolor="#ffffff"
     bordercolor="#666666"
     borderopacity="1.0"
     inkscape:pageopacity="0.0"
     inkscape:pageshadow="2"
     inkscape:zoom="20.285322"
     inkscape:cx="7.3371728"
     inkscape:cy="7.4973999"
     inkscape:document-units="mm"
     inkscape:current-layer="layer1"
     showgrid="false"
     inkscape:window-width="561"
     inkscape:window-height="558"
     inkscape:window-x="687"
     inkscape:window-y="78"
     inkscape:window-maximized="0"
     showguides="true"
     inkscape:guide-bbox="true"
     gridtolerance="10"
     guidetolerance="2">
    <inkscape:grid
       type="xygrid"
       id="grid13828" />
    <sodipodi:guide
       position="0.13043093,3.8477124"
       orientation="1,0"
       id="guide20533"
       inkscape:locked="false" />
    <sodipodi:guide
       position="1.9173346,3.6129367"
       orientation="0,1"
       id="guide20535"
       inkscape:locked="false" />
  </sodipodi:namedview>
  <metadata
     id="metadata13823">
    <rdf:RDF>
      <cc:Work
         rdf:about="">
        <dc:format>image/svg+xml</dc:format>
        <dc:type
           rdf:resource="http://purl.org/dc/dcmitype/StillImage" />
        <dc:title></dc:title>
      </cc:Work>
    </rdf:RDF>
  </metadata>
  <g
     inkscape:label="Layer 1"
     inkscape:groupmode="layer"
     id="layer1"
     transform="translate(0,-293.25)">
    <path
       inkscape:connector-curvature="0"
       id="path12719"
       d="m 3.2045686,296.8911 c 0.2301311,0 0.4175442,-0.18604 0.4175442,-0.41617 v -2.6541 c 0,-0.23014 -0.1874131,-0.41617 -0.4175442,-0.41617 h -2.652723 c -0.23013458,0 -0.41754777,0.18603 -0.41754777,0.41617 v 2.6541 c 0,0.23013 0.18741319,0.41617 0.41754777,0.41617 z m 0,0"
       style="fill:#211e1e;fill-opacity:1;fill-rule:nonzero;stroke:none;stroke-width:0.35277775" />
    <path
       inkscape:connector-curvature="0"
       id="path12721"
       d="m 0.5518456,293.47494 c -0.19154775,0 -0.34588802,0.15572 -0.34588802,0.34589 v 2.6541 c 0,0.19017 0.15434027,0.34589 0.34588802,0.34589 h 2.652723 c 0.1915477,0 0.3458879,-0.15572 0.3458879,-0.34589 v -2.6541 c 0,-0.19017 -0.1543402,-0.34589 -0.3458879,-0.34589 z m 0,0"
       style="fill:#ffffff;fill-opacity:1;fill-rule:nonzero;stroke:none;stroke-width:0.35277775" />
    <path
       inkscape:connector-curvature="0"
       id="path12723"
       d="m 0.42782303,295.14788 c 0,-0.80202 0.64905467,-1.45107 1.44969437,-1.45107 0.8020191,0 1.4524531,0.64905 1.4524531,1.45107 0,0.80064 -0.650434,1.45107 -1.4524531,1.45107 -0.8006397,0 -1.44969437,-0.65043 -1.44969437,-1.45107 m 1.44969437,1.23748 c 0.6848863,0 1.2388568,-0.55397 1.2388568,-1.23748 0,-0.68351 -0.5539705,-1.23748 -1.2388568,-1.23748 -0.6835069,0 -1.23747737,0.55397 -1.23747737,1.23748 0,0.68351 0.55397047,1.23748 1.23747737,1.23748"
       style="fill:#211e1e;fill-opacity:1;fill-rule:nonzero;stroke:none;stroke-width:0.35277775" />
    <path
       inkscape:connector-curvature="0"
       id="path12725"
       d="m 1.7176667,295.59161 0.2948975,-10e-4 v -0.22876 c 0,-0.0634 0.028928,-0.12264 0.1061085,-0.17363 0.07855,-0.0496 0.2949011,-0.15434 0.2949011,-0.42581 0,-0.27148 -0.2273759,-0.45889 -0.4189236,-0.49886 -0.1915477,-0.0386 -0.3996302,-0.0124 -0.5470807,0.14883 -0.1322917,0.1447 -0.1584748,0.2577 -0.1584748,0.50988 h 0.294901 v -0.0579 c 0,-0.13367 0.016545,-0.2756 0.2080824,-0.31557 0.1047327,-0.0207 0.2025721,0.0124 0.2604488,0.0689 0.067525,0.0661 0.067525,0.21222 -0.038583,0.28526 l -0.1667439,0.113 c -0.09646,0.0634 -0.129533,0.13229 -0.129533,0.23426 z m 0,0"
       style="fill:#211e1e;fill-opacity:1;fill-rule:nonzero;stroke:none;stroke-width:0.35277775" />
    <path
       inkscape:connector-curvature="0"
       id="path12727"
       d="m 1.714908,295.72528 h 0.300415 v 0.30454 H 1.714908 Z m 0,0"
       style="fill:#211e1e;fill-opacity:1;fill-rule:nonzero;stroke:none;stroke-width:0.35277775" />
  </g>
</svg>
