<?xml version="1.0" encoding="UTF-8" standalone="no"?>
<!-- Created with Inkscape (http://www.inkscape.org/) -->

<svg
   xmlns:dc="http://purl.org/dc/elements/1.1/"
   xmlns:cc="http://creativecommons.org/ns#"
   xmlns:rdf="http://www.w3.org/1999/02/22-rdf-syntax-ns#"
   xmlns:svg="http://www.w3.org/2000/svg"
   xmlns="http://www.w3.org/2000/svg"
   xmlns:sodipodi="http://sodipodi.sourceforge.net/DTD/sodipodi-0.dtd"
   xmlns:inkscape="http://www.inkscape.org/namespaces/inkscape"
   width="3.75mm"
   height="3.75mm"
   viewBox="0 0 3.75 3.75"
   version="1.1"
   id="svg13826"
   inkscape:version="0.92.1 r15371"
   sodipodi:docname="library_light.svg">
  <defs
     id="defs13820" />
  <sodipodi:namedview
     id="base"
     pagecolor="#ffffff"
     bordercolor="#666666"
     borderopacity="1.0"
     inkscape:pageopacity="0.0"
     inkscape:pageshadow="2"
     inkscape:zoom="20.285322"
     inkscape:cx="7.3371728"
     inkscape:cy="7.4973999"
     inkscape:document-units="mm"
     inkscape:current-layer="layer1"
     showgrid="false"
     inkscape:window-width="561"
     inkscape:window-height="558"
     inkscape:window-x="687"
     inkscape:window-y="78"
     inkscape:window-maximized="0"
     showguides="true"
     inkscape:guide-bbox="true"
     gridtolerance="10"
     guidetolerance="2">
    <inkscape:grid
       type="xygrid"
       id="grid13828" />
    <sodipodi:guide
       position="0.13043093,3.8477124"
       orientation="1,0"
       id="guide20533"
       inkscape:locked="false" />
    <sodipodi:guide
       position="1.9173346,3.6129367"
       orientation="0,1"
       id="guide20535"
       inkscape:locked="false" />
  </sodipodi:namedview>
  <metadata
     id="metadata13823">
    <rdf:RDF>
      <cc:Work
         rdf:about="">
        <dc:format>image/svg+xml</dc:format>
        <dc:type
           rdf:resource="http://purl.org/dc/dcmitype/StillImage" />
        <dc:title></dc:title>
      </cc:Work>
    </rdf:RDF>
  </metadata>
  <g
     inkscape:label="Layer 1"
     inkscape:groupmode="layer"
     id="layer1"
     transform="translate(0,-293.25)">
    <path
       inkscape:connector-curvature="0"
       id="path4725"
       d="m 3.2045687,296.86501 c 0.2301311,0 0.4175442,-0.18604 0.4175442,-0.41617 v -2.65273 c 0,-0.23151 -0.1874131,-0.41754 -0.4175442,-0.41754 H 0.5518456 c -0.23013458,0 -0.41754777,0.18603 -0.41754777,0.41754 v 2.65273 c 0,0.23013 0.18741319,0.41617 0.41754777,0.41617 z m 0,0"
       style="fill:#211e1e;fill-opacity:1;fill-rule:nonzero;stroke:none;stroke-width:0.35277775" />
    <path
       inkscape:connector-curvature="0"
       id="path4727"
       d="m 0.5518456,293.44885 c -0.19154775,0 -0.34588802,0.15572 -0.34588802,0.34589 v 2.6541 c 0,0.19017 0.15434027,0.34589 0.34588802,0.34589 h 2.6527231 c 0.1915477,0 0.3458879,-0.15572 0.3458879,-0.34589 v -2.6541 c 0,-0.19017 -0.1543402,-0.34589 -0.3458879,-0.34589 z m 0,0"
       style="fill:#ffffff;fill-opacity:1;fill-rule:nonzero;stroke:none;stroke-width:0.35277775" />
    <path
       inkscape:connector-curvature="0"
       id="path4729"
       d="m 1.8844072,294.54577 c 0.212217,0 0.3830955,-0.17088 0.3830955,-0.3831 0,-0.21222 -0.1708785,-0.38309 -0.3830955,-0.38309 -0.212217,0 -0.3830955,0.17087 -0.3830955,0.38309 0,0.21222 0.1708785,0.3831 0.3830955,0.3831"
       style="fill:#211e1e;fill-opacity:1;fill-rule:nonzero;stroke:none;stroke-width:0.35277775" />
    <path
       inkscape:connector-curvature="0"
       id="path4731"
       d="m 1.8761381,295.89349 0.4409722,-0.14607 -0.00826,-0.003 c -0.3059253,-0.0896 -0.1874131,-0.49196 0.1171329,-0.40238 l 0.042718,0.0138 v -0.45476 l -0.5925573,0.19293 -0.5925537,-0.19293 v 0.45476 l 0.041338,-0.0138 c 0.3059253,-0.0896 0.4244375,0.31281 0.1185121,0.40238 l -0.00963,0.003 z m 0.3803403,-1.25401 c 0.1750095,0.007 0.2480451,0.14607 0.2480451,0.14607 l 0.5663742,0.77583 c 0.023424,0.0345 0.037207,0.0758 0.037207,0.12127 0,0.12127 -0.097839,0.21911 -0.2191067,0.21911 -0.028928,0 -0.055121,-0.007 -0.079925,-0.0165 l -0.3403775,-0.0937 v 0.34038 h -1.185111 v -0.34038 l -0.34037772,0.0937 c -0.0248002,0.01 -0.0523628,0.0165 -0.0813047,0.0165 -0.119888,0 -0.21772737,-0.0978 -0.21772737,-0.21911 0,-0.0455 0.0137935,-0.0868 0.0385833,-0.12127 l 0.56361889,-0.77583 c 0,0 0.074415,-0.13918 0.2494245,-0.14607 z m 0,0"
       style="fill:#211e1e;fill-opacity:1;fill-rule:nonzero;stroke:none;stroke-width:0.35277775" />
    <path
       inkscape:connector-curvature="0"
       id="path4733"
       d="m 3.0929463,296.39923 c 0.030304,0 0.053746,-0.0248 0.053746,-0.0551 0,-0.0303 -0.023424,-0.0537 -0.053746,-0.0537 H 0.70343068 c -0.0303036,0 -0.0551215,0.0234 -0.0551215,0.0537 0,0.0303 0.0248002,0.0551 0.0551215,0.0551 z m 0,0"
       style="fill:#211e1e;fill-opacity:1;fill-rule:nonzero;stroke:none;stroke-width:0.35277775" />
  </g>
</svg>
