<?xml version="1.0" encoding="UTF-8" standalone="no"?>
<!-- Created with Inkscape (http://www.inkscape.org/) -->

<svg
   xmlns:dc="http://purl.org/dc/elements/1.1/"
   xmlns:cc="http://creativecommons.org/ns#"
   xmlns:rdf="http://www.w3.org/1999/02/22-rdf-syntax-ns#"
   xmlns:svg="http://www.w3.org/2000/svg"
   xmlns="http://www.w3.org/2000/svg"
   xmlns:sodipodi="http://sodipodi.sourceforge.net/DTD/sodipodi-0.dtd"
   xmlns:inkscape="http://www.inkscape.org/namespaces/inkscape"
   width="3.75mm"
   height="3.75mm"
   viewBox="0 0 3.75 3.75"
   version="1.1"
   id="svg13826"
   inkscape:version="0.92.1 r15371"
   sodipodi:docname="newspaper_dark.svg">
  <defs
     id="defs13820" />
  <sodipodi:namedview
     id="base"
     pagecolor="#ffffff"
     bordercolor="#666666"
     borderopacity="1.0"
     inkscape:pageopacity="0.0"
     inkscape:pageshadow="2"
     inkscape:zoom="28.687777"
     inkscape:cx="6.6609097"
     inkscape:cy="7.1784903"
     inkscape:document-units="mm"
     inkscape:current-layer="layer1"
     showgrid="false"
     inkscape:window-width="561"
     inkscape:window-height="558"
     inkscape:window-x="687"
     inkscape:window-y="78"
     inkscape:window-maximized="0"
     showguides="true"
     inkscape:guide-bbox="true"
     gridtolerance="10"
     guidetolerance="2">
    <inkscape:grid
       type="xygrid"
       id="grid13828" />
    <sodipodi:guide
       position="0.13043093,3.8477124"
       orientation="1,0"
       id="guide20533"
       inkscape:locked="false" />
    <sodipodi:guide
       position="1.9173346,3.6129367"
       orientation="0,1"
       id="guide20535"
       inkscape:locked="false" />
  </sodipodi:namedview>
  <metadata
     id="metadata13823">
    <rdf:RDF>
      <cc:Work
         rdf:about="">
        <dc:format>image/svg+xml</dc:format>
        <dc:type
           rdf:resource="http://purl.org/dc/dcmitype/StillImage" />
        <dc:title></dc:title>
      </cc:Work>
    </rdf:RDF>
  </metadata>
  <g
     inkscape:label="Layer 1"
     inkscape:groupmode="layer"
     id="layer1"
     transform="translate(0,-293.25)">
    <path
       inkscape:connector-curvature="0"
       id="path9499"
       d="m 0.55635197,293.46328 c -0.19154776,0 -0.34588803,0.15434 -0.34588803,0.34589 v 2.6541 c 0,0.19017 0.15434027,0.34451 0.34588803,0.34451 H 3.2090749 c 0.1901719,0 0.345888,-0.15434 0.345888,-0.34451 v -2.6541 c 0,-0.19155 -0.1557161,-0.34589 -0.345888,-0.34589 z m 0,0"
       style="fill:#ffffff;fill-opacity:1;fill-rule:nonzero;stroke:none;stroke-width:0.35277775" />
    <path
       inkscape:connector-curvature="0"
       id="path9501"
       d="m 3.2090749,296.87806 c 0.2301346,0 0.4161684,-0.18466 0.4161684,-0.41617 v -2.65272 c 0,-0.23014 -0.1860338,-0.41755 -0.4161684,-0.41755 H 0.55635197 c -0.23151042,0 -0.41754425,0.18741 -0.41754425,0.41755 v 2.65272 c 0,0.23151 0.18603383,0.41617 0.41754425,0.41617 z m 0,0"
       style="fill:#211e1e;fill-opacity:1;fill-rule:nonzero;stroke:none;stroke-width:0.35277775" />
    <path
       inkscape:connector-curvature="0"
       id="path9503"
       d="m 0.53843791,296.33924 c 0.44235156,0.011 1.25539129,-0.25218 1.25539129,-0.25218 v -2.15525 c -0.99494253,0.25769 -1.25539129,0.25356 -1.25539129,0.25356 z m 0,0"
       style="fill:#ffffff;fill-opacity:1;fill-rule:nonzero;stroke:none;stroke-width:0.35277775" />
    <path
       inkscape:connector-curvature="0"
       id="path9505"
       d="m 3.2269888,296.33924 c -0.4423479,0.011 -1.2664156,-0.25218 -1.2664156,-0.25218 v -2.15525 c 1.0059669,0.25769 1.2664156,0.25356 1.2664156,0.25356 z m 0,0"
       style="fill:#ffffff;fill-opacity:1;fill-rule:nonzero;stroke:none;stroke-width:0.35277775" />
    <path
       inkscape:connector-curvature="0"
       id="path9507"
       d="m 3.0698935,294.44444 v -0.11162 c -0.286632,-0.0358 -0.7386285,-0.14607 -0.9618698,-0.20257 v 0.113 c 0.2370208,0.0606 0.6766172,0.16674 0.9618698,0.20119"
       style="fill:#211e1e;fill-opacity:1;fill-rule:nonzero;stroke:none;stroke-width:0.35277775" />
    <path
       inkscape:connector-curvature="0"
       id="path9509"
       d="M 3.0698935,294.55055 C 2.7818857,294.51475 2.331265,294.4031 2.1080237,294.34522 v 0.11438 c 0.2356449,0.0606 0.6752378,0.16812 0.9618698,0.20119 z m 0,0"
       style="fill:#211e1e;fill-opacity:1;fill-rule:nonzero;stroke:none;stroke-width:0.35277775" />
    <path
       inkscape:connector-curvature="0"
       id="path9511"
       d="m 3.0698935,294.7669 c -0.2893872,-0.0345 -0.7400044,-0.14745 -0.9618698,-0.20532 v 0.11437 c 0.2356449,0.062 0.6724826,0.1695 0.9618698,0.2012 z m 0,0"
       style="fill:#211e1e;fill-opacity:1;fill-rule:nonzero;stroke:none;stroke-width:0.35277775" />
    <path
       inkscape:connector-curvature="0"
       id="path9513"
       d="m 3.0698935,294.98325 c -0.2907665,-0.0331 -0.7400044,-0.14607 -0.9618698,-0.20532 v 0.11437 c 0.2356449,0.062 0.6711033,0.17088 0.9618698,0.2012 z m 0,0"
       style="fill:#211e1e;fill-opacity:1;fill-rule:nonzero;stroke:none;stroke-width:0.35277775" />
    <path
       inkscape:connector-curvature="0"
       id="path9515"
       d="m 3.0698935,295.19961 c -0.2935217,-0.0317 -0.7400044,-0.14608 -0.9618698,-0.20671 v 0.11576 c 0.2342656,0.062 0.6683481,0.17225 0.9618698,0.20119 z m 0,0"
       style="fill:#211e1e;fill-opacity:1;fill-rule:nonzero;stroke:none;stroke-width:0.35277775" />
    <path
       inkscape:connector-curvature="0"
       id="path9517"
       d="m 3.0698935,295.63231 c -0.2976563,-0.0289 -0.7413837,-0.14469 -0.9618698,-0.2067 v 0.11437 c 0.2342656,0.0648 0.6642135,0.17639 0.9618698,0.20257 z m 0,0"
       style="fill:#211e1e;fill-opacity:1;fill-rule:nonzero;stroke:none;stroke-width:0.35277775" />
    <path
       inkscape:connector-curvature="0"
       id="path9519"
       d="m 3.0698935,295.84866 c -0.2990321,-0.0276 -0.7427631,-0.14469 -0.9618698,-0.2067 v 0.11438 c 0.2328898,0.0661 0.6614583,0.17776 0.9618698,0.20257 z m 0,0"
       style="fill:#211e1e;fill-opacity:1;fill-rule:nonzero;stroke:none;stroke-width:0.35277775" />
    <path
       inkscape:connector-curvature="0"
       id="path9521"
       d="m 2.1080237,295.85831 v 0.11438 c 0.2328898,0.0661 0.6587031,0.17914 0.9618698,0.20257 v -0.11024 c -0.3017909,-0.0248 -0.7427631,-0.1447 -0.9618698,-0.20671"
       style="fill:#211e1e;fill-opacity:1;fill-rule:nonzero;stroke:none;stroke-width:0.35277775" />
    <path
       inkscape:connector-curvature="0"
       id="path9523"
       d="m 0.68450907,294.44444 v -0.11162 c 0.2866319,-0.0358 0.73862833,-0.14607 0.96187313,-0.20257 v 0.113 c -0.2356449,0.0606 -0.67661703,0.16674 -0.96187313,0.20119"
       style="fill:#211e1e;fill-opacity:1;fill-rule:nonzero;stroke:none;stroke-width:0.35277775" />
    <path
       inkscape:connector-curvature="0"
       id="path9525"
       d="m 0.68450907,294.55055 c 0.2880113,-0.0358 0.74000773,-0.14745 0.96187313,-0.20533 v 0.11438 c -0.2356449,0.0606 -0.67386183,0.16812 -0.96187313,0.20119 z m 0,0"
       style="fill:#211e1e;fill-opacity:1;fill-rule:nonzero;stroke:none;stroke-width:0.35277775" />
    <path
       inkscape:connector-curvature="0"
       id="path9527"
       d="m 0.68450907,294.98325 c 0.2921458,-0.0331 0.74000773,-0.14607 0.96187313,-0.20532 v 0.11437 c -0.2342691,0.062 -0.66972733,0.17088 -0.96187313,0.2012 z m 0,0"
       style="fill:#211e1e;fill-opacity:1;fill-rule:nonzero;stroke:none;stroke-width:0.35277775" />
    <path
       inkscape:connector-curvature="0"
       id="path9529"
       d="m 0.68450907,295.19961 c 0.2935217,-0.0317 0.74138703,-0.14608 0.96187313,-0.20671 v 0.11576 c -0.2342691,0.062 -0.66835143,0.17225 -0.96187313,0.20119 z m 0,0"
       style="fill:#211e1e;fill-opacity:1;fill-rule:nonzero;stroke:none;stroke-width:0.35277775" />
    <path
       inkscape:connector-curvature="0"
       id="path9531"
       d="m 0.68450907,295.41596 c 0.2962804,-0.0289 0.74138703,-0.14607 0.96187313,-0.20671 v 0.11438 c -0.2328898,0.0648 -0.66559273,0.17501 -0.96187313,0.20257 z m 0,0"
       style="fill:#211e1e;fill-opacity:1;fill-rule:nonzero;stroke:none;stroke-width:0.35277775" />
    <path
       inkscape:connector-curvature="0"
       id="path9533"
       d="m 0.68450907,295.63231 c 0.2976562,-0.0289 0.74276283,-0.14469 0.96187313,-0.2067 v 0.11437 c -0.2328898,0.0648 -0.66283753,0.17639 -0.96187313,0.20257 z m 0,0"
       style="fill:#211e1e;fill-opacity:1;fill-rule:nonzero;stroke:none;stroke-width:0.35277775" />
    <path
       inkscape:connector-curvature="0"
       id="path9535"
       d="m 0.68450907,295.84866 c 0.300415,-0.0276 0.74276283,-0.14469 0.96187313,-0.2067 v 0.11438 c -0.2328898,0.0661 -0.66145813,0.17776 -0.96187313,0.20257 z m 0,0"
       style="fill:#211e1e;fill-opacity:1;fill-rule:nonzero;stroke:none;stroke-width:0.35277775" />
    <path
       inkscape:connector-curvature="0"
       id="path9537"
       d="m 1.6463822,295.85831 v 0.11438 c -0.2315104,0.0661 -0.65870293,0.17914 -0.96187313,0.20257 v -0.11024 c 0.3017908,-0.0248 0.74414223,-0.1447 0.96187313,-0.20671"
       style="fill:#211e1e;fill-opacity:1;fill-rule:nonzero;stroke:none;stroke-width:0.35277775" />
  </g>
</svg>
