<?xml version="1.0" encoding="UTF-8" standalone="no"?>
<!-- Created with Inkscape (http://www.inkscape.org/) -->

<svg
   xmlns:dc="http://purl.org/dc/elements/1.1/"
   xmlns:cc="http://creativecommons.org/ns#"
   xmlns:rdf="http://www.w3.org/1999/02/22-rdf-syntax-ns#"
   xmlns:svg="http://www.w3.org/2000/svg"
   xmlns="http://www.w3.org/2000/svg"
   xmlns:sodipodi="http://sodipodi.sourceforge.net/DTD/sodipodi-0.dtd"
   xmlns:inkscape="http://www.inkscape.org/namespaces/inkscape"
   width="3.75mm"
   height="3.75mm"
   viewBox="0 0 3.75 3.75"
   version="1.1"
   id="svg13826"
   inkscape:version="0.92.1 r15371"
   sodipodi:docname="newspaper_light.svg">
  <defs
     id="defs13820" />
  <sodipodi:namedview
     id="base"
     pagecolor="#ffffff"
     bordercolor="#666666"
     borderopacity="1.0"
     inkscape:pageopacity="0.0"
     inkscape:pageshadow="2"
     inkscape:zoom="20.285322"
     inkscape:cx="7.3371728"
     inkscape:cy="7.4973999"
     inkscape:document-units="mm"
     inkscape:current-layer="layer1"
     showgrid="false"
     inkscape:window-width="561"
     inkscape:window-height="558"
     inkscape:window-x="687"
     inkscape:window-y="78"
     inkscape:window-maximized="0"
     showguides="true"
     inkscape:guide-bbox="true"
     gridtolerance="10"
     guidetolerance="2">
    <inkscape:grid
       type="xygrid"
       id="grid13828" />
    <sodipodi:guide
       position="0.13043093,3.8477124"
       orientation="1,0"
       id="guide20533"
       inkscape:locked="false" />
    <sodipodi:guide
       position="1.9173346,3.6129367"
       orientation="0,1"
       id="guide20535"
       inkscape:locked="false" />
  </sodipodi:namedview>
  <metadata
     id="metadata13823">
    <rdf:RDF>
      <cc:Work
         rdf:about="">
        <dc:format>image/svg+xml</dc:format>
        <dc:type
           rdf:resource="http://purl.org/dc/dcmitype/StillImage" />
        <dc:title></dc:title>
      </cc:Work>
    </rdf:RDF>
  </metadata>
  <g
     inkscape:label="Layer 1"
     inkscape:groupmode="layer"
     id="layer1"
     transform="translate(0,-293.25)">
    <path
       inkscape:connector-curvature="0"
       id="path9539"
       d="m 0.53673351,296.87875 c -0.23013106,0 -0.41616842,-0.18604 -0.41616842,-0.41755 v -2.6541 c 0,-0.22876 0.18603736,-0.41617 0.41616842,-0.41617 H 3.1922117 c 0.2301346,0 0.4175477,0.18741 0.4175477,0.41617 v 2.6541 c 0,0.23151 -0.1874131,0.41755 -0.4175477,0.41755 z m 0,0"
       style="fill:#211e1e;fill-opacity:1;fill-rule:nonzero;stroke:none;stroke-width:0.35277775" />
    <path
       inkscape:connector-curvature="0"
       id="path9541"
       d="m 0.53673351,293.46121 c -0.1901684,0 -0.34588803,0.15572 -0.34588803,0.34589 v 2.6541 c 0,0.19155 0.15571963,0.34726 0.34588803,0.34726 H 3.1922117 c 0.1915478,0 0.3472675,-0.15571 0.3472675,-0.34726 v -2.6541 c 0,-0.19017 -0.1557197,-0.34589 -0.3472675,-0.34589 z m 0,0"
       style="fill:#ffffff;fill-opacity:1;fill-rule:nonzero;stroke:none;stroke-width:0.35277775" />
    <path
       inkscape:connector-curvature="0"
       id="path9543"
       d="M 0.51881944,296.33717 C 0.9611675,296.34817 1.7755903,296.085 1.7755903,296.085 v -2.15388 c -0.99494274,0.25632 -1.25677086,0.25218 -1.25677086,0.25218 z m 0,0"
       style="fill:#211e1e;fill-opacity:1;fill-rule:nonzero;stroke:none;stroke-width:0.35277775" />
    <path
       inkscape:connector-curvature="0"
       id="path9545"
       d="M 3.20875,296.33717 C 2.7663984,296.34817 1.9409548,296.085 1.9409548,296.085 v -2.15388 c 1.0073463,0.25632 1.2677952,0.25218 1.2677952,0.25218 z m 0,0"
       style="fill:#211e1e;fill-opacity:1;fill-rule:nonzero;stroke:none;stroke-width:0.35277775" />
    <path
       inkscape:connector-curvature="0"
       id="path9547"
       d="m 3.0516545,294.44237 v -0.11024 c -0.286632,-0.0358 -0.7386285,-0.14745 -0.9618733,-0.20395 v 0.11438 c 0.2370243,0.0593 0.6766172,0.16536 0.9618733,0.19981"
       style="fill:#ffffff;fill-opacity:1;fill-rule:nonzero;stroke:none;stroke-width:0.35277775" />
    <path
       inkscape:connector-curvature="0"
       id="path9549"
       d="m 3.0516545,294.54848 c -0.2880113,-0.0344 -0.7386285,-0.14607 -0.9618733,-0.20395 v 0.113 c 0.2356449,0.062 0.673862,0.16812 0.9618733,0.2012 z m 0,0"
       style="fill:#ffffff;fill-opacity:1;fill-rule:nonzero;stroke:none;stroke-width:0.35277775" />
    <path
       inkscape:connector-curvature="0"
       id="path9551"
       d="m 3.0516545,294.76483 c -0.2893907,-0.0344 -0.7400079,-0.14607 -0.9618733,-0.20532 v 0.11437 c 0.2356449,0.062 0.6724826,0.1695 0.9618733,0.2012 z m 0,0"
       style="fill:#ffffff;fill-opacity:1;fill-rule:nonzero;stroke:none;stroke-width:0.35277775" />
    <path
       inkscape:connector-curvature="0"
       id="path9553"
       d="m 3.0516545,294.98119 c -0.2907665,-0.0317 -0.7400079,-0.14608 -0.9618733,-0.20533 v 0.11438 c 0.2356449,0.062 0.6697274,0.17087 0.9618733,0.20257 z m 0,0"
       style="fill:#ffffff;fill-opacity:1;fill-rule:nonzero;stroke:none;stroke-width:0.35277775" />
    <path
       inkscape:connector-curvature="0"
       id="path9555"
       d="m 3.0516545,295.19754 c -0.2935252,-0.0303 -0.7413872,-0.14607 -0.9618733,-0.20533 v 0.11438 c 0.2342691,0.0634 0.6683481,0.17225 0.9618733,0.20257 z m 0,0"
       style="fill:#ffffff;fill-opacity:1;fill-rule:nonzero;stroke:none;stroke-width:0.35277775" />
    <path
       inkscape:connector-curvature="0"
       id="path9557"
       d="m 3.0516545,295.63024 c -0.2976563,-0.0275 -0.742763,-0.14469 -0.9618733,-0.2067 v 0.11575 c 0.2328898,0.0648 0.6628377,0.17501 0.9618733,0.20257 z m 0,0"
       style="fill:#ffffff;fill-opacity:1;fill-rule:nonzero;stroke:none;stroke-width:0.35277775" />
    <path
       inkscape:connector-curvature="0"
       id="path9559"
       d="m 3.0516545,295.84659 c -0.2990356,-0.0262 -0.742763,-0.14469 -0.9618733,-0.2067 v 0.11438 c 0.2328898,0.0661 0.6614583,0.17776 0.9618733,0.20395 z m 0,0"
       style="fill:#ffffff;fill-opacity:1;fill-rule:nonzero;stroke:none;stroke-width:0.35277775" />
    <path
       inkscape:connector-curvature="0"
       id="path9561"
       d="m 2.0897812,295.85624 v 0.11576 c 0.2315104,0.0661 0.6587031,0.17776 0.9618733,0.20257 v -0.11024 c -0.3017908,-0.0262 -0.742763,-0.1447 -0.9618733,-0.20809"
       style="fill:#ffffff;fill-opacity:1;fill-rule:nonzero;stroke:none;stroke-width:0.35277775" />
    <path
       inkscape:connector-curvature="0"
       id="path9563"
       d="m 0.66626996,294.44237 v -0.11024 c 0.28663194,-0.0358 0.73862844,-0.14745 0.96186974,-0.20395 v 0.11438 c -0.2370243,0.0593 -0.6766172,0.16536 -0.96186974,0.19981"
       style="fill:#ffffff;fill-opacity:1;fill-rule:nonzero;stroke:none;stroke-width:0.35277775" />
    <path
       inkscape:connector-curvature="0"
       id="path9565"
       d="m 0.66626996,294.54848 c 0.28800774,-0.0344 0.73862844,-0.14607 0.96186974,-0.20395 v 0.113 c -0.2356449,0.062 -0.673862,0.16812 -0.96186974,0.2012 z m 0,0"
       style="fill:#ffffff;fill-opacity:1;fill-rule:nonzero;stroke:none;stroke-width:0.35277775" />
    <path
       inkscape:connector-curvature="0"
       id="path9567"
       d="m 0.66626996,294.98119 c 0.29076654,-0.0317 0.74000434,-0.14608 0.96186974,-0.20533 v 0.11438 c -0.2356449,0.062 -0.6697274,0.17087 -0.96186974,0.20257 z m 0,0"
       style="fill:#ffffff;fill-opacity:1;fill-rule:nonzero;stroke:none;stroke-width:0.35277775" />
    <path
       inkscape:connector-curvature="0"
       id="path9569"
       d="m 0.66626996,295.19754 c 0.29352164,-0.0303 0.74138364,-0.14607 0.96186974,-0.20533 v 0.11438 c -0.2342656,0.0634 -0.6683481,0.17225 -0.96186974,0.20257 z m 0,0"
       style="fill:#ffffff;fill-opacity:1;fill-rule:nonzero;stroke:none;stroke-width:0.35277775" />
    <path
       inkscape:connector-curvature="0"
       id="path9571"
       d="m 0.66626996,295.41389 c 0.29627694,-0.0289 0.74138364,-0.14469 0.96186974,-0.20533 v 0.11438 c -0.2342656,0.0634 -0.6655928,0.17363 -0.96186974,0.20257 z m 0,0"
       style="fill:#ffffff;fill-opacity:1;fill-rule:nonzero;stroke:none;stroke-width:0.35277775" />
    <path
       inkscape:connector-curvature="0"
       id="path9573"
       d="m 0.66626996,295.63024 c 0.29765624,-0.0275 0.74276304,-0.14469 0.96186974,-0.2067 v 0.11575 c -0.2328898,0.0648 -0.6628377,0.17501 -0.96186974,0.20257 z m 0,0"
       style="fill:#ffffff;fill-opacity:1;fill-rule:nonzero;stroke:none;stroke-width:0.35277775" />
    <path
       inkscape:connector-curvature="0"
       id="path9575"
       d="M 0.66626996,295.84659 C 0.965302,295.82039 1.409033,295.7019 1.6281397,295.63989 v 0.11438 c -0.2328898,0.0661 -0.6614583,0.17776 -0.96186974,0.20395 z m 0,0"
       style="fill:#ffffff;fill-opacity:1;fill-rule:nonzero;stroke:none;stroke-width:0.35277775" />
    <path
       inkscape:connector-curvature="0"
       id="path9577"
       d="m 1.6281397,295.85624 v 0.11576 c -0.2315104,0.0661 -0.6587031,0.17776 -0.96186974,0.20257 v -0.11024 c 0.30179084,-0.0262 0.74413884,-0.1447 0.96186974,-0.20809"
       style="fill:#ffffff;fill-opacity:1;fill-rule:nonzero;stroke:none;stroke-width:0.35277775" />
  </g>
</svg>
