<?xml version="1.0" encoding="UTF-8" standalone="no"?>
<!-- Created with Inkscape (http://www.inkscape.org/) -->

<svg
   xmlns:dc="http://purl.org/dc/elements/1.1/"
   xmlns:cc="http://creativecommons.org/ns#"
   xmlns:rdf="http://www.w3.org/1999/02/22-rdf-syntax-ns#"
   xmlns:svg="http://www.w3.org/2000/svg"
   xmlns="http://www.w3.org/2000/svg"
   xmlns:sodipodi="http://sodipodi.sourceforge.net/DTD/sodipodi-0.dtd"
   xmlns:inkscape="http://www.inkscape.org/namespaces/inkscape"
   width="3.75mm"
   height="3.75mm"
   viewBox="0 0 3.75 3.75"
   version="1.1"
   id="svg13826"
   inkscape:version="0.92.1 r15371"
   sodipodi:docname="passport_light.svg">
  <defs
     id="defs13820" />
  <sodipodi:namedview
     id="base"
     pagecolor="#ffffff"
     bordercolor="#666666"
     borderopacity="1.0"
     inkscape:pageopacity="0.0"
     inkscape:pageshadow="2"
     inkscape:zoom="20.285322"
     inkscape:cx="7.7306236"
     inkscape:cy="6.3112302"
     inkscape:document-units="mm"
     inkscape:current-layer="layer1"
     showgrid="false"
     inkscape:window-width="561"
     inkscape:window-height="558"
     inkscape:window-x="687"
     inkscape:window-y="78"
     inkscape:window-maximized="0"
     showguides="true"
     inkscape:guide-bbox="true"
     gridtolerance="10"
     guidetolerance="2">
    <inkscape:grid
       type="xygrid"
       id="grid13828" />
    <sodipodi:guide
       position="0.13043093,3.8477124"
       orientation="1,0"
       id="guide20533"
       inkscape:locked="false" />
    <sodipodi:guide
       position="1.9173346,3.6129367"
       orientation="0,1"
       id="guide20535"
       inkscape:locked="false" />
  </sodipodi:namedview>
  <metadata
     id="metadata13823">
    <rdf:RDF>
      <cc:Work
         rdf:about="">
        <dc:format>image/svg+xml</dc:format>
        <dc:type
           rdf:resource="http://purl.org/dc/dcmitype/StillImage" />
        <dc:title></dc:title>
      </cc:Work>
    </rdf:RDF>
  </metadata>
  <g
     inkscape:label="Layer 1"
     inkscape:groupmode="layer"
     id="layer1"
     transform="translate(0,-293.25)">
    <path
       inkscape:connector-curvature="0"
       id="path10643"
       d="m 3.2052548,296.87806 c 0.2301346,0 0.4161684,-0.18604 0.4161684,-0.41617 v -2.65273 c 0,-0.23013 -0.1860338,-0.41754 -0.4161684,-0.41754 H 0.55253174 c -0.23013106,0 -0.41754425,0.18741 -0.41754425,0.41754 v 2.65273 c 0,0.23013 0.18741319,0.41617 0.41754425,0.41617 z m 0,0"
       style="fill:#211e1e;fill-opacity:1;fill-rule:nonzero;stroke:none;stroke-width:0.35277775" />
    <path
       inkscape:connector-curvature="0"
       id="path10645"
       d="m 0.54977653,293.4619 c -0.19016838,0 -0.34588801,0.15572 -0.34588801,0.34589 v 2.65548 c 0,0.19017 0.15571963,0.34588 0.34588801,0.34588 H 3.2052548 c 0.1915478,0 0.3472672,-0.15571 0.3472672,-0.34588 v -2.65548 c 0,-0.19017 -0.1557194,-0.34589 -0.3472672,-0.34589 z m 0,0"
       style="fill:#ffffff;fill-opacity:1;fill-rule:nonzero;stroke:none;stroke-width:0.35277775" />
    <path
       inkscape:connector-curvature="0"
       id="path10647"
       d="m 1.0872123,295.82661 -0.26734208,-0.75241 0.1584749,-0.0565 0.30868048,0.25494 c 0.07855,0.0662 0.1529645,0.13643 0.217731,0.20671 l 0.00141,-0.001 c -0.045476,-0.0965 -0.081304,-0.19293 -0.1226459,-0.30868 l -0.092329,-0.26183 0.1267812,-0.0455 0.2659592,0.75378 -0.1419366,0.0496 -0.3141945,-0.26183 c -0.07717,-0.0661 -0.1598507,-0.14056 -0.2259965,-0.21221 l -0.00413,0.003 c 0.039963,0.0951 0.07717,0.1943 0.12126728,0.31833 l 0.095084,0.26871 z m 0,0"
       style="fill:#211e1e;fill-opacity:1;fill-rule:nonzero;stroke:none;stroke-width:0.35277775" />
    <path
       inkscape:connector-curvature="0"
       id="path10649"
       d="m 1.8685586,295.10728 c 0.019297,0 0.041342,-0.007 0.068901,-0.0165 0.1033532,-0.0358 0.1474505,-0.11024 0.1171327,-0.19706 -0.030304,-0.0841 -0.1033497,-0.10748 -0.1984375,-0.073 -0.038583,0.0138 -0.063387,0.0262 -0.07717,0.0345 z m -0.2604488,-0.30041 c 0.048232,-0.0276 0.1129983,-0.0579 0.2053273,-0.091 0.099219,-0.0358 0.1805234,-0.04 0.2425347,-0.0165 0.057877,0.0207 0.1074879,0.0703 0.1322917,0.14056 0.026176,0.0717 0.023424,0.1378 -0.00282,0.19155 -0.037207,0.0744 -0.1129983,0.13229 -0.2094619,0.16674 -0.026176,0.008 -0.048232,0.0152 -0.068901,0.0179 l 0.1005946,0.28525 -0.1364262,0.0469 z m 0,0"
       style="fill:#211e1e;fill-opacity:1;fill-rule:nonzero;stroke:none;stroke-width:0.35277775" />
    <path
       inkscape:connector-curvature="0"
       id="path10651"
       d="m 2.4404431,295.17893 c 0.053746,0.01 0.1295365,0.008 0.1998169,-0.0165 0.086815,-0.0303 0.1212674,-0.0896 0.099219,-0.15021 -0.019297,-0.0579 -0.068901,-0.0772 -0.1763888,-0.0786 -0.1405608,0 -0.2439141,-0.0386 -0.2824974,-0.14607 -0.044097,-0.1254 0.026176,-0.25356 0.1901684,-0.31143 0.082684,-0.0289 0.1474505,-0.0317 0.1929271,-0.0262 l 0.00688,0.12264 c -0.033055,-0.005 -0.092329,-0.008 -0.1626094,0.0165 -0.086815,0.0317 -0.1088637,0.091 -0.092329,0.13505 0.020673,0.0579 0.073036,0.0689 0.1874131,0.073 0.1488299,0.003 0.2342656,0.0469 0.2728525,0.15434 0.042718,0.12265 -0.011007,0.26045 -0.2039514,0.32797 -0.081301,0.0289 -0.170875,0.0358 -0.221862,0.0248 z m 0,0"
       style="fill:#211e1e;fill-opacity:1;fill-rule:nonzero;stroke:none;stroke-width:0.35277775" />
    <path
       inkscape:connector-curvature="0"
       id="path10653"
       d="m 1.8547791,293.87669 c -0.6945312,0 -1.25952599,0.56499 -1.25952599,1.25953 0,0.69591 0.56499479,1.2609 1.25952599,1.2609 0.6959071,0 1.259526,-0.56499 1.259526,-1.2609 0,-0.69454 -0.5636189,-1.25953 -1.259526,-1.25953 m 0,2.6858 c -0.7854809,0 -1.42489057,-0.63941 -1.42489057,-1.42627 0,-0.78549 0.63940967,-1.4249 1.42489057,-1.4249 0.7868603,0 1.4262699,0.63941 1.4262699,1.4249 0,0.78686 -0.6394096,1.42627 -1.4262699,1.42627"
       style="fill:#211e1e;fill-opacity:1;fill-rule:nonzero;stroke:none;stroke-width:0.35277775" />
  </g>
</svg>
