<?xml version="1.0" encoding="UTF-8" standalone="no"?>
<!-- Created with Inkscape (http://www.inkscape.org/) -->

<svg
   xmlns:dc="http://purl.org/dc/elements/1.1/"
   xmlns:cc="http://creativecommons.org/ns#"
   xmlns:rdf="http://www.w3.org/1999/02/22-rdf-syntax-ns#"
   xmlns:svg="http://www.w3.org/2000/svg"
   xmlns="http://www.w3.org/2000/svg"
   xmlns:sodipodi="http://sodipodi.sourceforge.net/DTD/sodipodi-0.dtd"
   xmlns:inkscape="http://www.inkscape.org/namespaces/inkscape"
   width="3.75mm"
   height="3.75mm"
   viewBox="0 0 3.75 3.75"
   version="1.1"
   id="svg13826"
   inkscape:version="0.92.1 r15371"
   sodipodi:docname="ranger_dark.svg">
  <defs
     id="defs13820" />
  <sodipodi:namedview
     id="base"
     pagecolor="#ffffff"
     bordercolor="#666666"
     borderopacity="1.0"
     inkscape:pageopacity="0.0"
     inkscape:pageshadow="2"
     inkscape:zoom="20.285322"
     inkscape:cx="7.7306236"
     inkscape:cy="6.3112302"
     inkscape:document-units="mm"
     inkscape:current-layer="layer1"
     showgrid="false"
     inkscape:window-width="561"
     inkscape:window-height="558"
     inkscape:window-x="687"
     inkscape:window-y="78"
     inkscape:window-maximized="0"
     showguides="true"
     inkscape:guide-bbox="true"
     gridtolerance="10"
     guidetolerance="2">
    <inkscape:grid
       type="xygrid"
       id="grid13828" />
    <sodipodi:guide
       position="0.13043093,3.8477124"
       orientation="1,0"
       id="guide20533"
       inkscape:locked="false" />
    <sodipodi:guide
       position="1.9173346,3.6129367"
       orientation="0,1"
       id="guide20535"
       inkscape:locked="false" />
  </sodipodi:namedview>
  <metadata
     id="metadata13823">
    <rdf:RDF>
      <cc:Work
         rdf:about="">
        <dc:format>image/svg+xml</dc:format>
        <dc:type
           rdf:resource="http://purl.org/dc/dcmitype/StillImage" />
        <dc:title></dc:title>
      </cc:Work>
    </rdf:RDF>
  </metadata>
  <g
     inkscape:label="Layer 1"
     inkscape:groupmode="layer"
     id="layer1"
     transform="translate(0,-293.25)">
    <path
       inkscape:connector-curvature="0"
       id="path9357"
       d="m 0.54977661,293.46053 c -0.1901684,0 -0.34588803,0.15572 -0.34588803,0.34589 v 2.65548 c 0,0.19017 0.15571963,0.34588 0.34588803,0.34588 H 3.2052548 c 0.1915478,0 0.3458879,-0.15571 0.3458879,-0.34588 v -2.65548 c 0,-0.19017 -0.1543401,-0.34589 -0.3458879,-0.34589 z m 0,0"
       style="fill:#ffffff;fill-opacity:1;fill-rule:nonzero;stroke:none;stroke-width:0.35277775" />
    <path
       inkscape:connector-curvature="0"
       id="path9359"
       d="m 0.54977661,296.87944 c -0.23013106,0 -0.41616842,-0.18741 -0.41616842,-0.41754 v -2.65548 c 0,-0.23013 0.18603736,-0.41617 0.41616842,-0.41617 H 3.2052548 c 0.2301346,0 0.4175477,0.18604 0.4175477,0.41617 v 2.65548 c 0,0.23013 -0.1874131,0.41754 -0.4175477,0.41754 z m 0,0"
       style="fill:#211e1e;fill-opacity:1;fill-rule:nonzero;stroke:none;stroke-width:0.35277775" />
    <path
       inkscape:connector-curvature="0"
       id="path9361"
       d="m 0.40094671,295.64748 c 0,-0.1006 0.66145829,-0.18191 1.47725689,-0.18191 0.8157986,0 1.477257,0.0813 1.477257,0.18191 0,0.0992 -0.6614584,0.18052 -1.477257,0.18052 -0.8157986,0 -1.47725689,-0.0813 -1.47725689,-0.18052"
       style="fill:#ffffff;fill-opacity:1;fill-rule:nonzero;stroke:none;stroke-width:0.35277775" />
    <path
       inkscape:connector-curvature="0"
       id="path9363"
       d="m 1.7376464,295.29608 c 0.046852,-0.003 0.093705,-0.003 0.1405572,-0.003 0.045477,0 0.092329,0 0.139185,0.003 0.2356414,0.003 0.4575069,0.0124 0.654565,0.0276 v -0.47404 c 0,-0.0606 -0.011007,-0.0648 -0.074411,-0.10473 -0.066146,-0.04 -0.2976562,-0.13643 -0.3899852,-0.27424 -0.086819,-0.13091 -0.2425348,-0.13504 -0.304546,-0.13229 h -0.050987 c -0.060636,-0.003 -0.2177309,0.001 -0.3045495,0.13229 -0.092326,0.13781 -0.3238359,0.23427 -0.3886059,0.27424 -0.064766,0.04 -0.074415,0.0441 -0.074415,0.10473 v 0.47404 c 0.1956823,-0.0152 0.4189237,-0.0248 0.6531927,-0.0276"
       style="fill:#ffffff;fill-opacity:1;fill-rule:nonzero;stroke:none;stroke-width:0.35277775" />
  </g>
</svg>
