<?xml version="1.0" encoding="UTF-8" standalone="no"?>
<!-- Created with Inkscape (http://www.inkscape.org/) -->

<svg
   xmlns:dc="http://purl.org/dc/elements/1.1/"
   xmlns:cc="http://creativecommons.org/ns#"
   xmlns:rdf="http://www.w3.org/1999/02/22-rdf-syntax-ns#"
   xmlns:svg="http://www.w3.org/2000/svg"
   xmlns="http://www.w3.org/2000/svg"
   xmlns:sodipodi="http://sodipodi.sourceforge.net/DTD/sodipodi-0.dtd"
   xmlns:inkscape="http://www.inkscape.org/namespaces/inkscape"
   width="3.75mm"
   height="3.75mm"
   viewBox="0 0 3.75 3.75"
   version="1.1"
   id="svg13826"
   inkscape:version="0.92.1 r15371"
   sodipodi:docname="trailhead_dark.svg">
  <defs
     id="defs13820" />
  <sodipodi:namedview
     id="base"
     pagecolor="#ffffff"
     bordercolor="#666666"
     borderopacity="1.0"
     inkscape:pageopacity="0.0"
     inkscape:pageshadow="2"
     inkscape:zoom="20.285322"
     inkscape:cx="7.7306236"
     inkscape:cy="6.3112302"
     inkscape:document-units="mm"
     inkscape:current-layer="layer1"
     showgrid="false"
     inkscape:window-width="561"
     inkscape:window-height="558"
     inkscape:window-x="687"
     inkscape:window-y="78"
     inkscape:window-maximized="0"
     showguides="true"
     inkscape:guide-bbox="true"
     gridtolerance="10"
     guidetolerance="2">
    <inkscape:grid
       type="xygrid"
       id="grid13828" />
    <sodipodi:guide
       position="0.13043093,3.8477124"
       orientation="1,0"
       id="guide20533"
       inkscape:locked="false" />
    <sodipodi:guide
       position="1.9173346,3.6129367"
       orientation="0,1"
       id="guide20535"
       inkscape:locked="false" />
  </sodipodi:namedview>
  <metadata
     id="metadata13823">
    <rdf:RDF>
      <cc:Work
         rdf:about="">
        <dc:format>image/svg+xml</dc:format>
        <dc:type
           rdf:resource="http://purl.org/dc/dcmitype/StillImage" />
        <dc:title></dc:title>
      </cc:Work>
    </rdf:RDF>
  </metadata>
  <g
     inkscape:label="Layer 1"
     inkscape:groupmode="layer"
     id="layer1"
     transform="translate(0,-293.25)">
    <path
       inkscape:connector-curvature="0"
       id="path5285"
       d="m 0.55184209,293.44886 c -0.19154776,0 -0.34726386,0.15572 -0.34726386,0.34589 v 2.6541 c 0,0.19017 0.1557161,0.34589 0.34726386,0.34589 H 3.2045651 c 0.1915478,0 0.345888,-0.15572 0.345888,-0.34589 v -2.6541 c 0,-0.19017 -0.1543402,-0.34589 -0.345888,-0.34589 z m 0,0"
       style="fill:#ffffff;fill-opacity:1;fill-rule:nonzero;stroke:none;stroke-width:0.35277775" />
    <path
       inkscape:connector-curvature="0"
       id="path5287"
       d="m 3.2045651,296.86502 c 0.2301346,0 0.4175477,-0.18604 0.4175477,-0.41617 v -2.6541 c 0,-0.23013 -0.1874131,-0.41617 -0.4175477,-0.41617 H 0.55184209 c -0.23151042,0 -0.41754425,0.18604 -0.41754425,0.41617 v 2.6541 c 0,0.23013 0.18603383,0.41617 0.41754425,0.41617 z m 0,0"
       style="fill:#211e1e;fill-opacity:1;fill-rule:nonzero;stroke:none;stroke-width:0.35277775" />
    <path
       inkscape:connector-curvature="0"
       id="path5289"
       d="m 1.7755399,293.86227 v 2.51906 h 0.194303 v -2.52044 z m 0,0"
       style="fill:#ffffff;fill-opacity:1;fill-rule:nonzero;stroke:none;stroke-width:0.35277775" />
    <path
       inkscape:connector-curvature="0"
       id="path5291"
       d="m 3.1329088,296.38133 h 0.1943029 v -2.51906 H 3.1329088 Z m 0,0"
       style="fill:#ffffff;fill-opacity:1;fill-rule:nonzero;stroke:none;stroke-width:0.35277775" />
    <path
       inkscape:connector-curvature="0"
       id="path5293"
       d="M 2.9537647,294.09929 H 2.1489905 v -0.0992 h 0.8047742 z m 0,0.19018 H 2.1489905 v -0.1006 h 0.8047742 z m 0,0.18879 H 2.1489905 v -0.1006 h 0.8047742 z m 0,0.18879 H 2.1489905 v -0.1006 h 0.8047742 z m -0.894348,0.14056 h 0.9839182 v -0.95223 H 2.0594167 Z m 0,0"
       style="fill:#ffffff;fill-opacity:1;fill-rule:nonzero;stroke:none;stroke-width:0.35277775" />
    <path
       inkscape:connector-curvature="0"
       id="path5295"
       d="m 1.1099471,294.25363 c 0.110243,0 0.1984374,-0.0896 0.1984374,-0.19981 0,-0.10887 -0.088194,-0.19844 -0.1984374,-0.19844 -0.1088637,0 -0.19843749,0.0896 -0.19843749,0.19844 0,0.11024 0.0895738,0.19981 0.19843749,0.19981"
       style="fill:#ffffff;fill-opacity:1;fill-rule:nonzero;stroke:none;stroke-width:0.35277775" />
    <path
       inkscape:connector-curvature="0"
       id="path5297"
       d="m 0.77508338,294.28533 c 0.006879,-0.0303 -0.0124177,-0.0606 -0.0413385,-0.0675 l -0.16536459,-0.04 c -0.0316794,-0.007 -0.0620113,0.011 -0.0689045,0.0414 l -0.13918143,0.57464 c -0.006879,0.0303 0.0110067,0.0606 0.041342,0.0689 l 0.16674393,0.04 c 0.0303036,0.008 0.0606319,-0.011 0.0675217,-0.0413 z m 0,0"
       style="fill:#ffffff;fill-opacity:1;fill-rule:nonzero;stroke:none;stroke-width:0.35277775" />
    <path
       inkscape:connector-curvature="0"
       id="path5299"
       d="m 0.43057471,296.21321 c -0.00141,0.01 -0.002822,0.0193 -0.002822,0.0276 0,0.0772 0.0620113,0.14056 0.13918142,0.14056 0.0633906,0 0.11713279,-0.0427 0.13367102,-0.1006 l 0.239776,-0.99219 0.22875515,0.98668 c 0.015169,0.0606 0.07028,0.10611 0.1350469,0.10611 0.07717,0 0.1391849,-0.0634 0.1391849,-0.14056 0,-0.01 0,-0.0207 -0.00282,-0.0303 L 1.1277332,294.9 l 0.026176,-0.11576 0.019297,0.091 c 0.019297,0.0593 0.073036,0.0648 0.073036,0.0648 l 0.3238394,0.0827 c 0.00688,10e-4 0.012418,10e-4 0.019297,10e-4 0.052366,0 0.095084,-0.0413 0.095084,-0.0951 0,-0.0455 -0.030304,-0.0827 -0.073036,-0.0923 l -0.2796116,-0.0717 -0.07717,-0.31144 c -0.035828,-0.17363 -0.202572,-0.1695 -0.202572,-0.1695 -0.16123003,-0.004 -0.20257208,0.16537 -0.20257208,0.16537 z m 0,0"
       style="fill:#ffffff;fill-opacity:1;fill-rule:nonzero;stroke:none;stroke-width:0.35277775" />
  </g>
</svg>
