<?xml version="1.0" encoding="UTF-8" standalone="no"?>
<!-- Created with Inkscape (http://www.inkscape.org/) -->

<svg
   xmlns:dc="http://purl.org/dc/elements/1.1/"
   xmlns:cc="http://creativecommons.org/ns#"
   xmlns:rdf="http://www.w3.org/1999/02/22-rdf-syntax-ns#"
   xmlns:svg="http://www.w3.org/2000/svg"
   xmlns="http://www.w3.org/2000/svg"
   xmlns:sodipodi="http://sodipodi.sourceforge.net/DTD/sodipodi-0.dtd"
   xmlns:inkscape="http://www.inkscape.org/namespaces/inkscape"
   width="3.75mm"
   height="3.75mm"
   viewBox="0 0 3.75 3.75"
   version="1.1"
   id="svg13826"
   inkscape:version="0.92.1 r15371"
   sodipodi:docname="automobile_light.svg">
  <defs
     id="defs13820" />
  <sodipodi:namedview
     id="base"
     pagecolor="#ffffff"
     bordercolor="#666666"
     borderopacity="1.0"
     inkscape:pageopacity="0.0"
     inkscape:pageshadow="2"
     inkscape:zoom="28.687777"
     inkscape:cx="8.0356309"
     inkscape:cy="6.4105833"
     inkscape:document-units="mm"
     inkscape:current-layer="layer1"
     showgrid="false"
     inkscape:window-width="644"
     inkscape:window-height="699"
     inkscape:window-x="714"
     inkscape:window-y="32"
     inkscape:window-maximized="0"
     showguides="true"
     inkscape:guide-bbox="true"
     gridtolerance="10"
     guidetolerance="2">
    <inkscape:grid
       type="xygrid"
       id="grid13828" />
    <sodipodi:guide
       position="0.13043093,3.8477124"
       orientation="1,0"
       id="guide20533"
       inkscape:locked="false" />
    <sodipodi:guide
       position="1.9173346,3.6129367"
       orientation="0,1"
       id="guide20535"
       inkscape:locked="false" />
  </sodipodi:namedview>
  <metadata
     id="metadata13823">
    <rdf:RDF>
      <cc:Work
         rdf:about="">
        <dc:format>image/svg+xml</dc:format>
        <dc:type
           rdf:resource="http://purl.org/dc/dcmitype/StillImage" />
        <dc:title></dc:title>
      </cc:Work>
    </rdf:RDF>
  </metadata>
  <g
     inkscape:label="Layer 1"
     inkscape:groupmode="layer"
     id="layer1"
     transform="translate(0,-293.25)">
    <path
       inkscape:connector-curvature="0"
       id="path4763"
       d="m 3.1992934,296.88021 c 0.2287516,0 0.4161649,-0.18604 0.4161649,-0.41617 v -2.65273 c 0,-0.23013 -0.1874133,-0.41754 -0.4161649,-0.41754 H 0.54519099 c -0.23013459,0 -0.41616842,0.18741 -0.41616842,0.41754 v 2.65273 c 0,0.23013 0.18603383,0.41617 0.41616842,0.41617 z m 0,0"
       style="fill:#211e1e;fill-opacity:1;fill-rule:nonzero;stroke:none;stroke-width:0.35277775" />
    <path
       inkscape:connector-curvature="0"
       id="path4765"
       d="m 0.54519099,293.46543 c -0.1901684,0 -0.34588803,0.15434 -0.34588803,0.34588 v 2.65273 c 0,0.19155 0.15571963,0.34589 0.34588803,0.34589 H 3.1992934 c 0.1901684,0 0.3445086,-0.15434 0.3445086,-0.34589 v -2.65273 c 0,-0.19154 -0.1543402,-0.34588 -0.3445086,-0.34588 z m 0,0"
       style="fill:#ffffff;fill-opacity:1;fill-rule:nonzero;stroke:none;stroke-width:0.35277775" />
    <path
       inkscape:connector-curvature="0"
       id="path4767"
       d="m 2.6659922,294.87654 -0.2094618,-0.50023 c -0.00825,-0.0248 -0.033055,-0.0427 -0.062011,-0.0427 H 1.1859766 c -0.027552,0 -0.052363,0.0179 -0.060632,0.0427 l -0.20946181,0.50023 z m 0.2108376,0.41892 c 0,-0.11713 -0.095084,-0.20946 -0.2108376,-0.20946 -0.1171328,0 -0.2122206,0.0923 -0.2122206,0.20946 0,0.11714 0.095088,0.21084 0.2122206,0.21084 0.1157535,0 0.2108376,-0.0937 0.2108376,-0.21084 m -1.97472651,0.21084 c 0.11713281,0 0.21083771,-0.0937 0.21083771,-0.21084 0,-0.11713 -0.093705,-0.20946 -0.21083771,-0.20946 -0.11713278,0 -0.21084116,0.0923 -0.21084116,0.20946 0,0.11714 0.0937084,0.21084 0.21084116,0.21084 m 0.19567881,0.37483 v 0.20946 c 0,0.11576 -0.093705,0.20808 -0.20808251,0.20808 -0.11437757,0 -0.2080824,-0.0923 -0.2080824,-0.20808 v -0.20946 H 0.47077602 V 295.199 c 0,-0.14883 0.10059813,-0.27285 0.23702434,-0.31006 l 0.24253473,-0.58015 c 0.035828,-0.0841 0.11988801,-0.1447 0.21635161,-0.1447 H 2.413809 c 0.097843,0 0.1819028,0.0606 0.2163515,0.1447 l 0.2439142,0.58015 c 0.136426,0.0372 0.2370243,0.16123 0.2370243,0.31006 v 0.68213 H 2.8988783 l 0.0014,0.20946 c 0,0.11576 -0.093708,0.20808 -0.2080825,0.20808 -0.115757,0 -0.208086,-0.0923 -0.208086,-0.20808 v -0.20946 z m 0,0"
       style="fill:#211e1e;fill-opacity:1;fill-rule:nonzero;stroke:none;stroke-width:0.35277775" />
  </g>
</svg>
