<?xml version="1.0" encoding="UTF-8" standalone="no"?>
<!-- Created with Inkscape (http://www.inkscape.org/) -->

<svg
   xmlns:dc="http://purl.org/dc/elements/1.1/"
   xmlns:cc="http://creativecommons.org/ns#"
   xmlns:rdf="http://www.w3.org/1999/02/22-rdf-syntax-ns#"
   xmlns:svg="http://www.w3.org/2000/svg"
   xmlns="http://www.w3.org/2000/svg"
   xmlns:sodipodi="http://sodipodi.sourceforge.net/DTD/sodipodi-0.dtd"
   xmlns:inkscape="http://www.inkscape.org/namespaces/inkscape"
   width="3.75mm"
   height="3.75mm"
   viewBox="0 0 3.75 3.75"
   version="1.1"
   id="svg13826"
   inkscape:version="0.92.1 r15371"
   sodipodi:docname="automobile_dark.svg">
  <defs
     id="defs13820" />
  <sodipodi:namedview
     id="base"
     pagecolor="#ffffff"
     bordercolor="#666666"
     borderopacity="1.0"
     inkscape:pageopacity="0.0"
     inkscape:pageshadow="2"
     inkscape:zoom="28.687777"
     inkscape:cx="8.0356309"
     inkscape:cy="6.4105833"
     inkscape:document-units="mm"
     inkscape:current-layer="layer1"
     showgrid="false"
     inkscape:window-width="644"
     inkscape:window-height="699"
     inkscape:window-x="714"
     inkscape:window-y="32"
     inkscape:window-maximized="0"
     showguides="true"
     inkscape:guide-bbox="true"
     gridtolerance="10"
     guidetolerance="2">
    <inkscape:grid
       type="xygrid"
       id="grid13828" />
    <sodipodi:guide
       position="0.13043093,3.8477124"
       orientation="1,0"
       id="guide20533"
       inkscape:locked="false" />
    <sodipodi:guide
       position="1.9173346,3.6129367"
       orientation="0,1"
       id="guide20535"
       inkscape:locked="false" />
  </sodipodi:namedview>
  <metadata
     id="metadata13823">
    <rdf:RDF>
      <cc:Work
         rdf:about="">
        <dc:format>image/svg+xml</dc:format>
        <dc:type
           rdf:resource="http://purl.org/dc/dcmitype/StillImage" />
        <dc:title></dc:title>
      </cc:Work>
    </rdf:RDF>
  </metadata>
  <g
     inkscape:label="Layer 1"
     inkscape:groupmode="layer"
     id="layer1"
     transform="translate(0,-293.25)">
    <path
       inkscape:connector-curvature="0"
       id="path3817"
       d="m 0.54656859,293.44698 c -0.19154775,0 -0.34726738,0.15434 -0.34726738,0.34588 v 2.65273 c 0,0.19155 0.15571963,0.34589 0.34726738,0.34589 H 3.1992917 c 0.1901684,0 0.3458879,-0.15434 0.3458879,-0.34589 v -2.65273 c 0,-0.19154 -0.1557195,-0.34588 -0.3458879,-0.34588 z m 0,0"
       style="fill:#ffffff;fill-opacity:1;fill-rule:nonzero;stroke:none;stroke-width:0.35277775" />
    <path
       inkscape:connector-curvature="0"
       id="path3819"
       d="m 3.1992917,296.86176 c 0.2301311,0 0.4161684,-0.18604 0.4161684,-0.41617 v -2.65273 c 0,-0.23013 -0.1860373,-0.41754 -0.4161684,-0.41754 H 0.54656859 c -0.23151041,0 -0.41754777,0.18741 -0.41754777,0.41754 v 2.65273 c 0,0.23013 0.18603736,0.41617 0.41754777,0.41617 z m 0,0"
       style="fill:#211e1e;fill-opacity:1;fill-rule:nonzero;stroke:none;stroke-width:0.35277775" />
    <path
       inkscape:connector-curvature="0"
       id="path3821"
       d="M 2.6673698,294.85809 2.457908,294.35786 c -0.00826,-0.0248 -0.033055,-0.0427 -0.062011,-0.0427 H 1.1873542 c -0.027552,0 -0.052363,0.0179 -0.062011,0.0427 l -0.20808253,0.50023 z m 0.2108376,0.41892 c 0,-0.11713 -0.095084,-0.20946 -0.2122169,-0.20946 -0.1157535,0 -0.2108412,0.0923 -0.2108412,0.20946 0,0.11714 0.095088,0.21084 0.2108412,0.21084 0.1171328,0 0.2122169,-0.0937 0.2122169,-0.21084 m -1.97472643,0.21084 c 0.11575343,0 0.21083763,-0.0937 0.21083763,-0.21084 0,-0.11713 -0.095084,-0.20946 -0.21083763,-0.20946 -0.11713286,0 -0.21222059,0.0923 -0.21222059,0.20946 0,0.11714 0.0950877,0.21084 0.21222059,0.21084 m 0.19567873,0.37483 v 0.20946 c 0,0.11576 -0.093705,0.20808 -0.20808243,0.20808 -0.11575348,0 -0.20808248,-0.0923 -0.20808248,-0.20808 v -0.20946 H 0.47215365 v -0.68213 c 0,-0.14883 0.0992188,-0.27285 0.23564496,-0.31006 l 0.24391406,-0.58015 c 0.035828,-0.0841 0.11850863,-0.1447 0.21635163,-0.1447 h 1.2471224 c 0.097843,0 0.1819027,0.0606 0.2163515,0.1447 l 0.2439141,0.58015 c 0.1364263,0.0372 0.2370243,0.16123 0.2370243,0.31006 l -0.0014,0.001 v 0.68075 H 2.9002244 v 0.20947 c 0,0.11575 -0.092329,0.20808 -0.2067031,0.20808 -0.115757,0 -0.2094619,-0.0923 -0.2094619,-0.20808 l 0.00141,-0.20947 z m 0,0"
       style="fill:#ffffff;fill-opacity:1;fill-rule:nonzero;stroke:none;stroke-width:0.35277775" />
  </g>
</svg>
