<?xml version="1.0" encoding="UTF-8" standalone="no"?>
<!-- Created with Inkscape (http://www.inkscape.org/) -->

<svg
   xmlns:dc="http://purl.org/dc/elements/1.1/"
   xmlns:cc="http://creativecommons.org/ns#"
   xmlns:rdf="http://www.w3.org/1999/02/22-rdf-syntax-ns#"
   xmlns:svg="http://www.w3.org/2000/svg"
   xmlns="http://www.w3.org/2000/svg"
   xmlns:sodipodi="http://sodipodi.sourceforge.net/DTD/sodipodi-0.dtd"
   xmlns:inkscape="http://www.inkscape.org/namespaces/inkscape"
   width="3.75mm"
   height="3.75mm"
   viewBox="0 0 3.75 3.75"
   version="1.1"
   id="svg13826"
   inkscape:version="0.92.1 r15371"
   sodipodi:docname="bicycle_light.svg">
  <defs
     id="defs13820" />
  <sodipodi:namedview
     id="base"
     pagecolor="#ffffff"
     bordercolor="#666666"
     borderopacity="1.0"
     inkscape:pageopacity="0.0"
     inkscape:pageshadow="2"
     inkscape:zoom="28.687777"
     inkscape:cx="8.0356309"
     inkscape:cy="6.4105833"
     inkscape:document-units="mm"
     inkscape:current-layer="layer1"
     showgrid="false"
     inkscape:window-width="644"
     inkscape:window-height="699"
     inkscape:window-x="714"
     inkscape:window-y="32"
     inkscape:window-maximized="0"
     showguides="true"
     inkscape:guide-bbox="true"
     gridtolerance="10"
     guidetolerance="2">
    <inkscape:grid
       type="xygrid"
       id="grid13828" />
    <sodipodi:guide
       position="0.13043093,3.8477124"
       orientation="1,0"
       id="guide20533"
       inkscape:locked="false" />
    <sodipodi:guide
       position="1.9173346,3.6129367"
       orientation="0,1"
       id="guide20535"
       inkscape:locked="false" />
  </sodipodi:namedview>
  <metadata
     id="metadata13823">
    <rdf:RDF>
      <cc:Work
         rdf:about="">
        <dc:format>image/svg+xml</dc:format>
        <dc:type
           rdf:resource="http://purl.org/dc/dcmitype/StillImage" />
        <dc:title></dc:title>
      </cc:Work>
    </rdf:RDF>
  </metadata>
  <g
     inkscape:label="Layer 1"
     inkscape:groupmode="layer"
     id="layer1"
     transform="translate(0,-293.25)">
    <path
       inkscape:connector-curvature="0"
       id="path13041"
       d="m 3.1709352,296.87098 c 0.2301311,0 0.4175442,-0.18604 0.4175442,-0.41617 v -2.65273 c 0,-0.23013 -0.1874131,-0.41754 -0.4175442,-0.41754 H 0.51821212 c -0.23013458,0 -0.41754777,0.18741 -0.41754777,0.41754 v 2.65273 c 0,0.23013 0.18741319,0.41617 0.41754777,0.41617 z m 0,0"
       style="fill:#211e1e;fill-opacity:1;fill-rule:nonzero;stroke:none;stroke-width:0.35277775" />
    <path
       inkscape:connector-curvature="0"
       id="path13043"
       d="m 0.51821212,293.4562 c -0.19154775,0 -0.34726738,0.15434 -0.34726738,0.34451 v 2.6541 c 0,0.19155 0.15571963,0.34589 0.34726738,0.34589 H 3.1709352 c 0.1915477,0 0.3472637,-0.15434 0.3472637,-0.34589 v -2.6541 c 0,-0.19017 -0.155716,-0.34451 -0.3472637,-0.34451 z m 0,0"
       style="fill:#ffffff;fill-opacity:1;fill-rule:nonzero;stroke:none;stroke-width:0.35277775" />
    <path
       inkscape:connector-curvature="0"
       id="path13045"
       d="m 0.31150551,295.74374 c 0,-0.34313 0.27836284,-0.62149 0.62011629,-0.62149 0.3431329,0 0.6201199,0.27836 0.6201199,0.62149 0,0.34313 -0.276987,0.62012 -0.6201199,0.62012 -0.34175345,0 -0.62011629,-0.27699 -0.62011629,-0.62012 m 0.62011629,0.50574 c 0.2797422,0 0.5057423,-0.226 0.5057423,-0.50574 0,-0.27974 -0.2260001,-0.50574 -0.5057423,-0.50574 -0.27836283,0 -0.50573868,0.226 -0.50573868,0.50574 0,0.27974 0.22737585,0.50574 0.50573868,0.50574"
       style="fill:#211e1e;fill-opacity:1;fill-rule:nonzero;stroke:none;stroke-width:0.35277775" />
    <path
       inkscape:connector-curvature="0"
       id="path13047"
       d="m 2.1374057,295.74925 c 0,-0.34313 0.2783628,-0.62011 0.6214957,-0.62011 0.3417533,0 0.6201161,0.27698 0.6201161,0.62011 0,0.34313 -0.2783628,0.6215 -0.6201161,0.6215 -0.3431329,0 -0.6214957,-0.27837 -0.6214957,-0.6215 m 0.6214957,0.50574 c 0.2783628,0 0.5057386,-0.226 0.5057386,-0.50574 0,-0.27836 -0.2273758,-0.50574 -0.5057386,-0.50574 -0.2797423,0 -0.5057387,0.22738 -0.5057387,0.50574 0,0.27974 0.2259964,0.50574 0.5057387,0.50574"
       style="fill:#211e1e;fill-opacity:1;fill-rule:nonzero;stroke:none;stroke-width:0.35277775" />
    <path
       inkscape:connector-curvature="0"
       id="path13049"
       d="m 2.138785,294.23479 c 0.1295365,0 0.2342657,-0.10335 0.2342657,-0.23289 0,-0.12816 -0.1047292,-0.23289 -0.2342657,-0.23289 -0.1281571,0 -0.2328897,0.10473 -0.2328897,0.23289 0,0.12954 0.1047326,0.23289 0.2328897,0.23289"
       style="fill:#211e1e;fill-opacity:1;fill-rule:nonzero;stroke:none;stroke-width:0.35277775" />
    <path
       inkscape:connector-curvature="0"
       id="path13051"
       d="m 2.14843,294.80116 c -0.033055,0.001 -0.07028,-0.0165 -0.096464,-0.0579 l -0.1515815,-0.23702 -0.3128151,0.30868 0.2893871,0.15297 c 0.119888,0.0579 0.1019739,0.1626 0.1019739,0.1626 v 0.65595 c 0,0.0744 -0.060632,0.13505 -0.1350468,0.13505 -0.074415,0 -0.133671,-0.0606 -0.133671,-0.13505 v -0.52503 l -0.5029835,-0.27975 c -0.060632,-0.0331 -0.1005946,-0.0978 -0.1005946,-0.17087 0,-0.0496 0.017921,-0.0965 0.049608,-0.13092 l 0.4933386,-0.49471 c 0.062011,-0.0689 0.1474505,-0.0579 0.1474505,-0.0579 0.1033533,0 0.1570955,0.091 0.1570955,0.091 l 0.2563142,0.40101 h 0.3899852 c 0.1391814,0 0.1391814,0.1819 0,0.1819 z m 0,0"
       style="fill:#211e1e;fill-opacity:1;fill-rule:nonzero;stroke:none;stroke-width:0.35277775" />
  </g>
</svg>
