<?xml version="1.0" encoding="UTF-8" standalone="no"?>
<!-- Created with Inkscape (http://www.inkscape.org/) -->

<svg
   xmlns:dc="http://purl.org/dc/elements/1.1/"
   xmlns:cc="http://creativecommons.org/ns#"
   xmlns:rdf="http://www.w3.org/1999/02/22-rdf-syntax-ns#"
   xmlns:svg="http://www.w3.org/2000/svg"
   xmlns="http://www.w3.org/2000/svg"
   xmlns:sodipodi="http://sodipodi.sourceforge.net/DTD/sodipodi-0.dtd"
   xmlns:inkscape="http://www.inkscape.org/namespaces/inkscape"
   width="3.75mm"
   height="3.75mm"
   viewBox="0 0 3.75 3.75"
   version="1.1"
   id="svg13826"
   inkscape:version="0.92.1 r15371"
   sodipodi:docname="bikerack_light.svg">
  <defs
     id="defs13820" />
  <sodipodi:namedview
     id="base"
     pagecolor="#ffffff"
     bordercolor="#666666"
     borderopacity="1.0"
     inkscape:pageopacity="0.0"
     inkscape:pageshadow="2"
     inkscape:zoom="28.687777"
     inkscape:cx="8.0356309"
     inkscape:cy="6.4105833"
     inkscape:document-units="mm"
     inkscape:current-layer="layer1"
     showgrid="false"
     inkscape:window-width="644"
     inkscape:window-height="699"
     inkscape:window-x="714"
     inkscape:window-y="32"
     inkscape:window-maximized="0"
     showguides="true"
     inkscape:guide-bbox="true"
     gridtolerance="10"
     guidetolerance="2">
    <inkscape:grid
       type="xygrid"
       id="grid13828" />
    <sodipodi:guide
       position="0.13043093,3.8477124"
       orientation="1,0"
       id="guide20533"
       inkscape:locked="false" />
    <sodipodi:guide
       position="1.9173346,3.6129367"
       orientation="0,1"
       id="guide20535"
       inkscape:locked="false" />
  </sodipodi:namedview>
  <metadata
     id="metadata13823">
    <rdf:RDF>
      <cc:Work
         rdf:about="">
        <dc:format>image/svg+xml</dc:format>
        <dc:type
           rdf:resource="http://purl.org/dc/dcmitype/StillImage" />
        <dc:title></dc:title>
      </cc:Work>
    </rdf:RDF>
  </metadata>
  <g
     inkscape:label="Layer 1"
     inkscape:groupmode="layer"
     id="layer1"
     transform="translate(0,-293.25)">
    <path
       inkscape:connector-curvature="0"
       id="path10511"
       d="m 3.1979141,296.86176 c 0.2301309,0 0.4175442,-0.18604 0.4175442,-0.41617 v -2.6541 c 0,-0.23014 -0.1874133,-0.41617 -0.4175442,-0.41617 H 0.54519099 c -0.23013459,0 -0.41616842,0.18603 -0.41616842,0.41617 v 2.6541 c 0,0.23013 0.18603383,0.41617 0.41616842,0.41617 z m 0,0"
       style="fill:#211e1e;fill-opacity:1;fill-rule:nonzero;stroke:none;stroke-width:0.35277775" />
    <path
       inkscape:connector-curvature="0"
       id="path10513"
       d="m 0.54243577,293.4456 c -0.1901719,0 -0.34588801,0.15572 -0.34588801,0.34589 v 2.6541 c 0,0.19155 0.15571611,0.34726 0.34588801,0.34726 H 3.1979141 c 0.1915477,0 0.3472638,-0.15571 0.3472638,-0.34726 v -2.6541 c 0,-0.19017 -0.1557161,-0.34589 -0.3472638,-0.34589 z m 0,0"
       style="fill:#ffffff;fill-opacity:1;fill-rule:nonzero;stroke:none;stroke-width:0.35277775" />
    <path
       inkscape:connector-curvature="0"
       id="path10515"
       d="M 3.1565719,295.99359 H 2.8919886 v -1.31327 c 0,-0.16812 -0.1129983,-0.30454 -0.2521796,-0.30454 -0.1391814,0 -0.2521832,0.0951 -0.2521832,0.21083 v 0.68903 c 0,0.2632 -0.2315104,0.4768 -0.5153836,0.4768 -0.2852561,0 -0.5167665,-0.2136 -0.5167665,-0.4768 v -0.68903 c 0,-0.11575 -0.1129983,-0.21083 -0.2521797,-0.21083 -0.13918141,0 -0.25217966,0.13642 -0.25217966,0.30454 v 1.31327 H 0.58653301 v -1.31327 c 0,-0.31419 0.23151041,-0.56913 0.51676299,-0.56913 0.2852526,0 0.516763,0.2136 0.516763,0.47542 v 0.68903 c 0,0.11713 0.1130018,0.21221 0.2521832,0.21221 0.1378021,0 0.2508003,-0.0951 0.2508003,-0.21221 v -0.68903 c 0,-0.26182 0.2315104,-0.47542 0.5167665,-0.47542 0.2852525,0 0.5167629,0.25494 0.5167629,0.56913 z m 0,0"
       style="fill:#211e1e;fill-opacity:1;fill-rule:nonzero;stroke:none;stroke-width:0.35277775" />
  </g>
</svg>
