<?xml version="1.0" encoding="UTF-8" standalone="no"?>
<!-- Created with Inkscape (http://www.inkscape.org/) -->

<svg
   xmlns:dc="http://purl.org/dc/elements/1.1/"
   xmlns:cc="http://creativecommons.org/ns#"
   xmlns:rdf="http://www.w3.org/1999/02/22-rdf-syntax-ns#"
   xmlns:svg="http://www.w3.org/2000/svg"
   xmlns="http://www.w3.org/2000/svg"
   xmlns:sodipodi="http://sodipodi.sourceforge.net/DTD/sodipodi-0.dtd"
   xmlns:inkscape="http://www.inkscape.org/namespaces/inkscape"
   width="3.75mm"
   height="3.75mm"
   viewBox="0 0 3.75 3.75"
   version="1.1"
   id="svg13826"
   inkscape:version="0.92.1 r15371"
   sodipodi:docname="bike_repairs_dark.svg">
  <defs
     id="defs13820" />
  <sodipodi:namedview
     id="base"
     pagecolor="#ffffff"
     bordercolor="#666666"
     borderopacity="1.0"
     inkscape:pageopacity="0.0"
     inkscape:pageshadow="2"
     inkscape:zoom="28.687777"
     inkscape:cx="6.277535"
     inkscape:cy="6.4105833"
     inkscape:document-units="mm"
     inkscape:current-layer="layer1"
     showgrid="false"
     inkscape:window-width="644"
     inkscape:window-height="699"
     inkscape:window-x="714"
     inkscape:window-y="32"
     inkscape:window-maximized="0"
     showguides="true"
     inkscape:guide-bbox="true"
     gridtolerance="10"
     guidetolerance="2">
    <inkscape:grid
       type="xygrid"
       id="grid13828" />
    <sodipodi:guide
       position="0.13043093,3.8477124"
       orientation="1,0"
       id="guide20533"
       inkscape:locked="false" />
    <sodipodi:guide
       position="1.9173346,3.6129367"
       orientation="0,1"
       id="guide20535"
       inkscape:locked="false" />
  </sodipodi:namedview>
  <metadata
     id="metadata13823">
    <rdf:RDF>
      <cc:Work
         rdf:about="">
        <dc:format>image/svg+xml</dc:format>
        <dc:type
           rdf:resource="http://purl.org/dc/dcmitype/StillImage" />
        <dc:title></dc:title>
      </cc:Work>
    </rdf:RDF>
  </metadata>
  <g
     inkscape:label="Layer 1"
     inkscape:groupmode="layer"
     id="layer1"
     transform="translate(0,-293.25)">
    <path
       inkscape:connector-curvature="0"
       id="path9863"
       d="m 0.55372421,293.45482 c -0.1901684,0 -0.34588803,0.15572 -0.34588803,0.34726 v 2.65273 c 0,0.19017 0.15571963,0.34589 0.34588803,0.34589 H 3.2078266 c 0.1915477,0 0.3458879,-0.15572 0.3458879,-0.34589 v -2.65273 c 0,-0.19154 -0.1543402,-0.34726 -0.3458879,-0.34726 z m 0,0"
       style="fill:#ffffff;fill-opacity:1;fill-rule:nonzero;stroke:none;stroke-width:0.35277775" />
    <path
       inkscape:connector-curvature="0"
       id="path9865"
       d="m 3.2078266,296.87098 c 0.2301311,0 0.4175442,-0.18604 0.4175442,-0.41617 v -2.6541 c 0,-0.22876 -0.1874131,-0.41617 -0.4175442,-0.41617 H 0.55372421 c -0.23013106,0 -0.41616842,0.18741 -0.41616842,0.41617 v 2.6541 c 0,0.23013 0.18603736,0.41617 0.41616842,0.41617 z m 0,0"
       style="fill:#211e1e;fill-opacity:1;fill-rule:nonzero;stroke:none;stroke-width:0.35277775" />
    <path
       inkscape:connector-curvature="0"
       id="path9867"
       d="m 1.7126556,296.3735 c -0.3059253,0 -0.5525946,-0.24666 -0.5525946,-0.55259 0,-0.20808 0.1171328,-0.3886 0.2880113,-0.48231 l 0.1626094,0.51676 c 0.016545,0.0537 0.074411,0.0827 0.1281571,0.0661 0.053742,-0.0165 0.08406,-0.0744 0.067522,-0.12816 l -0.1639853,-0.51676 c 0.023424,-0.003 0.045477,-0.007 0.07028,-0.007 0.304546,0 0.5512153,0.24667 0.5512153,0.55121 0,0.30593 -0.2466693,0.55259 -0.5512153,0.55259 m 0,-1.29673 c -0.044097,0 -0.088194,0.005 -0.1295365,0.0124 l -0.3169496,-1.00459 c -0.041338,-0.1323 -0.1915478,-0.22049 -0.32383941,-0.22187 -0.0840599,0 -0.24391058,-0.0262 -0.24391058,0.10198 0,0.13642 0.17225434,0.0965 0.25493488,0.1006 0.046856,0.003 0.10886721,0.0496 0.12264671,0.0937 l 0.079925,0.25218 H 0.47241949 v 0.20395 H 1.2206964 l 0.00963,0.0303 -0.75792191,0.76343 c 0.008255,0.0909 0,0.19017 0,0.2825 l 0.82682291,-0.82821 0.090953,0.28801 c -0.249428,0.11989 -0.42168241,0.37483 -0.42168241,0.66973 0,0.41204 0.33210861,0.74414 0.74414241,0.74414 0.4106545,0 0.7441388,-0.3321 0.7441388,-0.74414 0,-0.41065 -0.3334843,-0.74414 -0.7441388,-0.74414"
       style="fill:#ffffff;fill-opacity:1;fill-rule:nonzero;stroke:none;stroke-width:0.35277775" />
    <path
       inkscape:connector-curvature="0"
       id="path9869"
       d="m 2.5904655,294.15349 -0.235645,0.0813 -0.2632039,-0.17226 c -0.00967,0.0896 0.0248,0.27699 0.1998133,0.34865 0.046856,0.0262 0.1874132,0.0661 0.2425347,0.12402 0.07166,0.0758 0.068905,0.0841 0.1419401,0.3073 l 0.3486431,1.10381 c 0.019296,0.0717 0.093705,0.11438 0.1667405,0.0937 0.07166,-0.0193 0.1130019,-0.0937 0.093708,-0.16537 l -0.445107,-1.3863 c -0.028928,-0.0882 -0.023423,-0.21222 0.00688,-0.30317 0.045477,-0.15848 -0.013794,-0.33762 -0.1598505,-0.4327 -0.1185122,-0.0772 -0.2742318,-0.0813 -0.378961,-0.022 l 0.2590694,0.1695 z m 0,0"
       style="fill:#ffffff;fill-opacity:1;fill-rule:nonzero;stroke:none;stroke-width:0.35277775" />
  </g>
</svg>
