<?xml version="1.0" encoding="UTF-8" standalone="no"?>
<!-- Created with Inkscape (http://www.inkscape.org/) -->

<svg
   xmlns:dc="http://purl.org/dc/elements/1.1/"
   xmlns:cc="http://creativecommons.org/ns#"
   xmlns:rdf="http://www.w3.org/1999/02/22-rdf-syntax-ns#"
   xmlns:svg="http://www.w3.org/2000/svg"
   xmlns="http://www.w3.org/2000/svg"
   xmlns:sodipodi="http://sodipodi.sourceforge.net/DTD/sodipodi-0.dtd"
   xmlns:inkscape="http://www.inkscape.org/namespaces/inkscape"
   width="3.75mm"
   height="3.75mm"
   viewBox="0 0 3.75 3.75"
   version="1.1"
   id="svg13826"
   inkscape:version="0.92.1 r15371"
   sodipodi:docname="bike_repairs_light.svg">
  <defs
     id="defs13820" />
  <sodipodi:namedview
     id="base"
     pagecolor="#ffffff"
     bordercolor="#666666"
     borderopacity="1.0"
     inkscape:pageopacity="0.0"
     inkscape:pageshadow="2"
     inkscape:zoom="28.687777"
     inkscape:cx="6.277535"
     inkscape:cy="6.4105833"
     inkscape:document-units="mm"
     inkscape:current-layer="layer1"
     showgrid="false"
     inkscape:window-width="644"
     inkscape:window-height="699"
     inkscape:window-x="714"
     inkscape:window-y="32"
     inkscape:window-maximized="0"
     showguides="true"
     inkscape:guide-bbox="true"
     gridtolerance="10"
     guidetolerance="2">
    <inkscape:grid
       type="xygrid"
       id="grid13828" />
    <sodipodi:guide
       position="0.13043093,3.8477124"
       orientation="1,0"
       id="guide20533"
       inkscape:locked="false" />
    <sodipodi:guide
       position="1.9173346,3.6129367"
       orientation="0,1"
       id="guide20535"
       inkscape:locked="false" />
  </sodipodi:namedview>
  <metadata
     id="metadata13823">
    <rdf:RDF>
      <cc:Work
         rdf:about="">
        <dc:format>image/svg+xml</dc:format>
        <dc:type
           rdf:resource="http://purl.org/dc/dcmitype/StillImage" />
        <dc:title></dc:title>
      </cc:Work>
    </rdf:RDF>
  </metadata>
  <g
     inkscape:label="Layer 1"
     inkscape:groupmode="layer"
     id="layer1"
     transform="translate(0,-293.25)">
    <path
       inkscape:connector-curvature="0"
       id="path10517"
       d="m 3.1979141,296.86175 c 0.2301309,0 0.4175442,-0.18604 0.4175442,-0.41617 v -2.6541 c 0,-0.22876 -0.1874133,-0.41617 -0.4175442,-0.41617 H 0.545191 c -0.23013459,0 -0.41616842,0.18741 -0.41616842,0.41617 v 2.6541 c 0,0.23013 0.18603383,0.41617 0.41616842,0.41617 z m 0,0"
       style="fill:#211e1e;fill-opacity:1;fill-rule:nonzero;stroke:none;stroke-width:0.35277775" />
    <path
       inkscape:connector-curvature="0"
       id="path10519"
       d="m 0.54243578,293.44559 c -0.1901719,0 -0.34588801,0.15572 -0.34588801,0.34589 v 2.6541 c 0,0.19155 0.15571611,0.34726 0.34588801,0.34726 H 3.1979141 c 0.1915477,0 0.3472638,-0.15571 0.3472638,-0.34726 v -2.6541 c 0,-0.19017 -0.1557161,-0.34589 -0.3472638,-0.34589 z m 0,0"
       style="fill:#ffffff;fill-opacity:1;fill-rule:nonzero;stroke:none;stroke-width:0.35277775" />
    <path
       inkscape:connector-curvature="0"
       id="path10521"
       d="m 1.7027431,296.36427 c -0.304546,0 -0.5512153,-0.24666 -0.5512153,-0.55259 0,-0.20808 0.1171328,-0.3886 0.2880078,-0.48231 l 0.1626093,0.51676 c 0.016545,0.0537 0.074415,0.0827 0.1281571,0.0661 0.052366,-0.0165 0.082684,-0.0744 0.066146,-0.12816 l -0.1639852,-0.51676 c 0.023424,-0.003 0.046852,-0.007 0.07028,-0.007 0.3045459,0 0.5512152,0.24667 0.5512152,0.55121 0,0.30593 -0.2466693,0.55259 -0.5512152,0.55259 m 0,-1.29673 c -0.044097,0 -0.086819,0.005 -0.1281572,0.0124 l -0.318329,-1.00459 c -0.041338,-0.1323 -0.1915478,-0.22049 -0.32383939,-0.22187 -0.0826805,0 -0.24253473,-0.0262 -0.24253473,0.10198 0,0.13642 0.1708785,0.0965 0.25493843,0.1006 0.045477,0.003 0.10748779,0.0496 0.12126729,0.0937 l 0.079925,0.25218 H 0.46250693 v 0.20395 H 1.2107839 l 0.00963,0.0303 -0.75792187,0.76343 c 0.009666,0.0909 0,0.19017 0,0.2825 l 0.82820227,-0.82821 0.089574,0.28801 c -0.249428,0.11989 -0.42168239,0.37483 -0.42168239,0.66973 0,0.41204 0.33348799,0.74414 0.74414239,0.74414 0.4106545,0 0.7441389,-0.3321 0.7441389,-0.74414 0,-0.41065 -0.3334844,-0.74414 -0.7441389,-0.74414"
       style="fill:#211e1e;fill-opacity:1;fill-rule:nonzero;stroke:none;stroke-width:0.35277775" />
    <path
       inkscape:connector-curvature="0"
       id="path10523"
       d="m 2.5805529,294.14426 -0.2356449,0.0813 -0.263204,-0.17226 c -0.00967,0.0896 0.026176,0.27699 0.1998133,0.34865 0.048232,0.0262 0.1887926,0.0661 0.2425347,0.12402 0.07166,0.0758 0.068905,0.0841 0.1419402,0.3073 l 0.3486432,1.10381 c 0.020672,0.0717 0.095084,0.11438 0.1667404,0.0937 0.07166,-0.0193 0.1130017,-0.0937 0.093708,-0.16537 l -0.4437275,-1.3863 c -0.028928,-0.0882 -0.024799,-0.21222 0.0055,-0.30317 0.045477,-0.15848 -0.013793,-0.33762 -0.1598506,-0.4327 -0.1171328,-0.0772 -0.2728524,-0.0813 -0.3775851,-0.022 l 0.259073,0.1695 z m 0,0"
       style="fill:#211e1e;fill-opacity:1;fill-rule:nonzero;stroke:none;stroke-width:0.35277775" />
  </g>
</svg>
