<?xml version="1.0" encoding="UTF-8" standalone="no"?>
<!-- Created with Inkscape (http://www.inkscape.org/) -->

<svg
   xmlns:dc="http://purl.org/dc/elements/1.1/"
   xmlns:cc="http://creativecommons.org/ns#"
   xmlns:rdf="http://www.w3.org/1999/02/22-rdf-syntax-ns#"
   xmlns:svg="http://www.w3.org/2000/svg"
   xmlns="http://www.w3.org/2000/svg"
   xmlns:sodipodi="http://sodipodi.sourceforge.net/DTD/sodipodi-0.dtd"
   xmlns:inkscape="http://www.inkscape.org/namespaces/inkscape"
   width="3.75mm"
   height="3.75mm"
   viewBox="0 0 3.75 3.75"
   version="1.1"
   id="svg13826"
   inkscape:version="0.92.1 r15371"
   sodipodi:docname="ferry_light.svg">
  <defs
     id="defs13820" />
  <sodipodi:namedview
     id="base"
     pagecolor="#ffffff"
     bordercolor="#666666"
     borderopacity="1.0"
     inkscape:pageopacity="0.0"
     inkscape:pageshadow="2"
     inkscape:zoom="28.687777"
     inkscape:cx="7.288884"
     inkscape:cy="6.4105833"
     inkscape:document-units="mm"
     inkscape:current-layer="layer1"
     showgrid="false"
     inkscape:window-width="644"
     inkscape:window-height="699"
     inkscape:window-x="714"
     inkscape:window-y="32"
     inkscape:window-maximized="0"
     showguides="true"
     inkscape:guide-bbox="true"
     gridtolerance="10"
     guidetolerance="2">
    <inkscape:grid
       type="xygrid"
       id="grid13828" />
    <sodipodi:guide
       position="0.13043093,3.8477124"
       orientation="1,0"
       id="guide20533"
       inkscape:locked="false" />
    <sodipodi:guide
       position="1.9173346,3.6129367"
       orientation="0,1"
       id="guide20535"
       inkscape:locked="false" />
  </sodipodi:namedview>
  <metadata
     id="metadata13823">
    <rdf:RDF>
      <cc:Work
         rdf:about="">
        <dc:format>image/svg+xml</dc:format>
        <dc:type
           rdf:resource="http://purl.org/dc/dcmitype/StillImage" />
        <dc:title></dc:title>
      </cc:Work>
    </rdf:RDF>
  </metadata>
  <g
     inkscape:label="Layer 1"
     inkscape:groupmode="layer"
     id="layer1"
     transform="translate(0,-293.25)">
    <path
       inkscape:connector-curvature="0"
       id="path4433"
       d="m 3.1986038,296.86176 c 0.2301311,0 0.4175442,-0.18604 0.4175442,-0.41617 v -2.65273 c 0,-0.23013 -0.1874131,-0.41754 -0.4175442,-0.41754 H 0.54588069 c -0.23013458,0 -0.41754777,0.18741 -0.41754777,0.41754 v 2.65273 c 0,0.23013 0.18741319,0.41617 0.41754777,0.41617 z m 0,0"
       style="fill:#211e1e;fill-opacity:1;fill-rule:nonzero;stroke:none;stroke-width:0.35277775" />
    <path
       inkscape:connector-curvature="0"
       id="path4435"
       d="m 0.54588069,293.44698 c -0.19154775,0 -0.34588802,0.15434 -0.34588802,0.34588 v 2.65273 c 0,0.19155 0.15434027,0.34589 0.34588802,0.34589 H 3.1986038 c 0.1915477,0 0.3472637,-0.15434 0.3472637,-0.34589 v -2.65273 c 0,-0.19154 -0.155716,-0.34588 -0.3472637,-0.34588 z m 0,0"
       style="fill:#ffffff;fill-opacity:1;fill-rule:nonzero;stroke:none;stroke-width:0.35277775" />
    <path
       inkscape:connector-curvature="0"
       id="path4437"
       d="m 3.2578599,296.10797 c -0.059256,0 -0.1185122,-0.0138 -0.1694993,-0.0372 -0.053742,-0.0248 -0.1129982,-0.04 -0.1763887,-0.04 -0.062011,0 -0.1212675,0.0152 -0.1750096,0.04 -0.052366,0.0234 -0.110243,0.0372 -0.1708785,0.0372 -0.060632,0 -0.1185121,-0.0138 -0.1694991,-0.0372 -0.053742,-0.0248 -0.1129983,-0.04 -0.1763889,-0.04 -0.062011,0 -0.1212674,0.0152 -0.1750095,0.04 -0.052366,0.0234 -0.1102431,0.0372 -0.1708785,0.0372 -0.060632,0 -0.1185086,-0.0138 -0.1694991,-0.0372 -0.053742,-0.0248 -0.1129983,-0.04 -0.1763889,-0.04 -0.062011,0 -0.1226432,0.0152 -0.1750096,0.04 -0.052366,0.0234 -0.110243,0.0372 -0.1708749,0.0372 -0.060635,0 -0.1185122,-0.0138 -0.1694992,-0.0372 -0.0537457,-0.0248 -0.11437764,-0.04 -0.17638891,-0.04 -0.0620113,0 -0.12264673,0.0152 -0.17501307,0.04 -0.0523628,0.0234 -0.11024303,0.0372 -0.17087495,0.0372 v -0.25632 c 0.0606319,0 0.11851217,-0.0124 0.17087495,-0.0358 0.0523663,-0.0248 0.11300177,-0.04 0.17501307,-0.04 0.0620113,0 0.12264318,0.0152 0.17638891,0.04 0.050987,0.0234 0.1088637,0.0358 0.1694992,0.0358 0.060632,0 0.1185086,-0.0124 0.1708749,-0.0358 0.052366,-0.0248 0.1129983,-0.04 0.1750096,-0.04 0.063391,0 0.1226467,0.0152 0.1763889,0.04 0.05099,0.0234 0.1088672,0.0358 0.1694991,0.0358 0.060635,0 0.1185121,-0.0124 0.1708785,-0.0358 0.053742,-0.0248 0.1129982,-0.04 0.1750095,-0.04 0.063391,0 0.1226467,0.0152 0.1763889,0.04 0.050987,0.0234 0.1088672,0.0358 0.1694991,0.0358 0.060636,0 0.1185122,-0.0124 0.1708785,-0.0358 0.053742,-0.0248 0.1129982,-0.04 0.1750096,-0.04 0.06339,0 0.1226466,0.0152 0.1763887,0.04 0.050987,0.0234 0.1102432,0.0358 0.1694993,0.0358 z m 0,0"
       style="fill:#211e1e;fill-opacity:1;fill-rule:nonzero;stroke:none;stroke-width:0.35277775" />
    <path
       inkscape:connector-curvature="0"
       id="path4439"
       d="m 2.1581845,294.55492 0.085439,-0.20395 c 0.00413,-0.011 0.013794,-0.0179 0.0248,-0.0179 h 0.4947144 c 0.012418,0 0.022049,0.007 0.0248,0.0179 l 0.085436,0.20395 z m 0.7110694,0.26734 c -0.046856,0 -0.085439,-0.0386 -0.085439,-0.0854 0,-0.0482 0.038583,-0.0854 0.085439,-0.0854 0.046852,0 0.086815,0.0372 0.086815,0.0854 0,0.0469 -0.039963,0.0854 -0.086815,0.0854 m -0.7923741,-0.0854 c 0,-0.0482 0.038587,-0.0854 0.086819,-0.0854 0.046852,0 0.085436,0.0372 0.085436,0.0854 0,0.0469 -0.038583,0.0854 -0.085436,0.0854 -0.048232,0 -0.086819,-0.0386 -0.086819,-0.0854 m -1.19613541,-0.1819 0.0854357,-0.20395 c 0.002822,-0.011 0.0124177,-0.0179 0.0248002,-0.0179 H 1.4856948 c 0.011007,0 0.020673,0.007 0.0248,0.0179 l 0.085439,0.20395 z m 0.71106601,0.26734 c -0.048232,0 -0.086815,-0.0386 -0.086815,-0.0854 0,-0.0482 0.038583,-0.0854 0.086815,-0.0854 0.046852,0 0.086819,0.0372 0.086819,0.0854 0,0.0469 -0.039966,0.0854 -0.086819,0.0854 m -0.79237069,-0.0854 c 0,-0.0482 0.0385833,-0.0854 0.0854393,-0.0854 0.0468524,0 0.0868151,0.0372 0.0868151,0.0854 0,0.0469 -0.0399627,0.0854 -0.0868151,0.0854 -0.0468559,0 -0.0854393,-0.0386 -0.0854393,-0.0854 m 1.38354859,0.39136 c 0.028928,-0.0138 0.049611,-0.0427 0.049611,-0.0772 v -0.0854 h 0.56775 v 0.0854 c 0,0.0344 0.019296,0.0634 0.048232,0.0772 z m -1.27744009,0 c 0.0289278,-0.0138 0.0496076,-0.0427 0.0496076,-0.0772 l -0.00141,-0.0854 H 1.5214956 v 0.0854 c 0,0.0344 0.020673,0.0634 0.049611,0.0772 z m 2.01469269,0 c 0.028928,-0.0138 0.049608,-0.0427 0.049608,-0.0772 v -0.0854 h 0.086819 v -0.27837 c 0,-0.0606 -0.041342,-0.11162 -0.097843,-0.12678 l -0.099219,-0.23702 c -0.013793,-0.0358 -0.048232,-0.0593 -0.088195,-0.0593 H 2.2615378 c -0.039963,0 -0.074415,0.0234 -0.089574,0.0593 l -0.099219,0.23702 c -0.055122,0.0152 -0.09646,0.0661 -0.09646,0.12678 v 0.27837 h 0.086815 v 0.0854 c 0,0.0344 0.019297,0.0634 0.048232,0.0772 H 1.6427974 c 0.028928,-0.0138 0.049611,-0.0427 0.049611,-0.0772 l -0.00141,-0.0854 h 0.086819 v -0.27837 c 0,-0.0606 -0.041342,-0.11162 -0.096464,-0.12678 l -0.099219,-0.23702 c -0.01517,-0.0358 -0.049612,-0.0593 -0.089575,-0.0593 H 0.98268661 c -0.0399627,0 -0.074415,0.0234 -0.0881945,0.0593 l -0.0992188,0.23702 c -0.0565009,0.0152 -0.0978394,0.0661 -0.0978394,0.12678 v 0.27837 h 0.0868151 v 0.0854 c 0,0.0344 0.0206727,0.0634 0.0496076,0.0772 H 0.49072742 v 0.21636 h 0.2342656 l 0.19154775,0.22324 c 0.0330553,0.007 0.0661458,0.0179 0.0964635,0.0317 0.050987,0.0234 0.1088637,0.0372 0.1694992,0.0372 0.060632,0 0.1185087,-0.0138 0.170875,-0.0372 0.052366,-0.0248 0.1129982,-0.04 0.1750095,-0.04 0.063391,0 0.1226467,0.0152 0.1763889,0.04 0.050991,0.0234 0.1088672,0.0372 0.1694991,0.0372 0.060636,0 0.1185122,-0.0138 0.1708785,-0.0372 0.053742,-0.0248 0.1129983,-0.04 0.1750095,-0.04 0.063391,0 0.1226468,0.0152 0.1763889,0.04 0.050987,0.0234 0.1088673,0.0372 0.1694992,0.0372 0.060635,0 0.1185121,-0.0138 0.1708785,-0.0372 0.037204,-0.0179 0.07717,-0.0289 0.1185086,-0.0358 l 0.1860373,-0.22049 h 0.2177274 v -0.21497 z m 0,0"
       style="fill:#211e1e;fill-opacity:1;fill-rule:nonzero;stroke:none;stroke-width:0.35277775" />
  </g>
</svg>
