<?xml version="1.0" encoding="UTF-8" standalone="no"?>
<!-- Created with Inkscape (http://www.inkscape.org/) -->

<svg
   xmlns:dc="http://purl.org/dc/elements/1.1/"
   xmlns:cc="http://creativecommons.org/ns#"
   xmlns:rdf="http://www.w3.org/1999/02/22-rdf-syntax-ns#"
   xmlns:svg="http://www.w3.org/2000/svg"
   xmlns="http://www.w3.org/2000/svg"
   xmlns:sodipodi="http://sodipodi.sourceforge.net/DTD/sodipodi-0.dtd"
   xmlns:inkscape="http://www.inkscape.org/namespaces/inkscape"
   width="3.75mm"
   height="3.75mm"
   viewBox="0 0 3.75 3.75"
   version="1.1"
   id="svg13826"
   inkscape:version="0.92.1 r15371"
   sodipodi:docname="gas_station_light.svg">
  <defs
     id="defs13820" />
  <sodipodi:namedview
     id="base"
     pagecolor="#ffffff"
     bordercolor="#666666"
     borderopacity="1.0"
     inkscape:pageopacity="0.0"
     inkscape:pageshadow="2"
     inkscape:zoom="28.687777"
     inkscape:cx="6.277535"
     inkscape:cy="6.4105833"
     inkscape:document-units="mm"
     inkscape:current-layer="layer1"
     showgrid="false"
     inkscape:window-width="644"
     inkscape:window-height="699"
     inkscape:window-x="714"
     inkscape:window-y="32"
     inkscape:window-maximized="0"
     showguides="true"
     inkscape:guide-bbox="true"
     gridtolerance="10"
     guidetolerance="2">
    <inkscape:grid
       type="xygrid"
       id="grid13828" />
    <sodipodi:guide
       position="0.13043093,3.8477124"
       orientation="1,0"
       id="guide20533"
       inkscape:locked="false" />
    <sodipodi:guide
       position="1.9173346,3.6129367"
       orientation="0,1"
       id="guide20535"
       inkscape:locked="false" />
  </sodipodi:namedview>
  <metadata
     id="metadata13823">
    <rdf:RDF>
      <cc:Work
         rdf:about="">
        <dc:format>image/svg+xml</dc:format>
        <dc:type
           rdf:resource="http://purl.org/dc/dcmitype/StillImage" />
        <dc:title></dc:title>
      </cc:Work>
    </rdf:RDF>
  </metadata>
  <g
     inkscape:label="Layer 1"
     inkscape:groupmode="layer"
     id="layer1"
     transform="translate(0,-293.25)">
    <path
       inkscape:connector-curvature="0"
       id="path13257"
       d="M 3.2078266,293.38706 H 0.55510355 c -0.23013458,0 -0.41754777,0.18603 -0.41754777,0.41754 v 2.65273 c 0,0.23013 0.18741319,0.41755 0.41754777,0.41755 H 3.2078266 c 0.2301311,0 0.4175442,-0.18742 0.4175442,-0.41755 v -2.65273 c 0,-0.23151 -0.1874131,-0.41754 -0.4175442,-0.41754 m -0.5208976,3.04271 c -0.1460747,0 -0.2728524,-0.11989 -0.2728524,-0.2577 v -1.01975 c 0,-0.0469 -0.038587,-0.0841 -0.085439,-0.0841 h -0.202572 l -0.00141,1.35324 -1.0734922,-0.0165 v -2.31923 c 0,-0.12127 0.097839,-0.21912 0.2191068,-0.21912 h 0.6352746 c 0.1198916,0 0.2191103,0.0978 0.2191103,0.21912 v 0.0262 c 0,0.14194 0,0.81167 -0.015169,0.81167 H 2.327217 c 0.1240226,0 0.2246172,0.10197 0.2246172,0.22599 l -0.00141,1.02251 c 0,0.0675 0.073036,0.11989 0.1364263,0.11989 0.068901,0 0.155716,-0.0565 0.1515814,-0.15159 l -0.1088636,-0.58428 -0.023424,-0.19707 0.016545,-0.57602 -0.048232,-10e-4 c -0.1074879,0 -0.194303,-0.0868 -0.194303,-0.1943 l 0.0055,-0.30179 c 0,0 -0.1791441,-0.17776 -0.1791441,-0.20257 0,0 0.068901,-0.0689 0.093708,-0.0689 l 0.3610415,0.35966 c 0.056501,0.0565 0.082684,0.12403 0.082684,0.20809 v 0.77721 c 0,0 0.022048,0.16812 0.022048,0.1695 0,0 0.1116224,0.60909 0.1129982,0.64355 0,0.14745 -0.1543401,0.25769 -0.2921423,0.25769"
       style="fill:#211e1e;fill-opacity:1;fill-rule:nonzero;stroke:none;stroke-width:0.35277775" />
    <path
       inkscape:connector-curvature="0"
       id="path13259"
       d="m 0.55510355,293.45734 c -0.19154775,0 -0.34588802,0.15572 -0.34588802,0.34726 v 2.65273 c 0,0.19155 0.15434027,0.34589 0.34588802,0.34589 H 3.2078266 c 0.1915477,0 0.3472637,-0.15434 0.3472637,-0.34589 v -2.65273 c 0,-0.19154 -0.155716,-0.34726 -0.3472637,-0.34726 z m 0,0"
       style="fill:#ffffff;fill-opacity:1;fill-rule:nonzero;stroke:none;stroke-width:0.35277775" />
    <path
       inkscape:connector-curvature="0"
       id="path13261"
       d="m 2.8674525,295.52853 c 0,-10e-4 -0.023423,-0.1695 -0.023423,-0.1695 v -0.77859 c 0,-0.0827 -0.027552,-0.15021 -0.082684,-0.20671 l -0.3610434,-0.35828 c -0.0248,0 -0.093708,0.0675 -0.093708,0.0675 0,0.0248 0.1791441,0.20257 0.1791441,0.20257 l -0.0055,0.30179 c 0,0.10749 0.086815,0.1943 0.1943029,0.1943 l 0.048232,10e-4 -0.016545,0.57602 0.023424,0.19844 0.1088636,0.58291 c 0.00413,0.0951 -0.08268,0.15158 -0.1515815,0.15158 -0.063391,0 -0.1364262,-0.0524 -0.1364262,-0.11988 l 0.00141,-1.02251 c 0,-0.12402 -0.1005946,-0.226 -0.2246171,-0.226 H 2.1095661 c 0.015169,0 0.015169,-0.66972 0.015169,-0.81166 v -0.0262 c 0,-0.12126 -0.097843,-0.21911 -0.2204861,-0.21911 H 1.2703499 c -0.1212674,0 -0.2191067,0.0979 -0.2191067,0.21911 v 2.31924 l 1.0734921,0.0165 0.00141,-1.35461 h 0.202572 c 0.046852,0 0.085439,0.0386 0.085439,0.0854 v 1.01975 c 0,0.13643 0.1267777,0.2577 0.2728524,0.2577 0.1378022,0 0.2921424,-0.11025 0.2921424,-0.2577 -0.00282,-0.0345 -0.1116182,-0.64354 -0.1116182,-0.64354 m -0.1626093,-0.83923 c -0.079925,-0.0179 -0.1088672,-0.0593 -0.1088672,-0.0965 v -0.13918 c 0,0 0.053746,0.0124 0.066146,0.0152 0.026176,0.007 0.042721,0.0469 0.042721,0.0827 0.00141,0.0345 0,0.1378 0,0.1378 m -0.7400078,-0.0689 c 0,0.0345 -0.026176,0.0606 -0.060632,0.0606 H 1.2703852 c -0.033055,0 -0.060632,-0.0262 -0.060632,-0.0606 v -0.53468 c 0,-0.0331 0.027552,-0.0593 0.060632,-0.0593 h 0.6338993 c 0.034431,0 0.060632,0.0262 0.060632,0.0593 z m 0,0"
       style="fill:#211e1e;fill-opacity:1;fill-rule:nonzero;stroke:none;stroke-width:0.35277775" />
  </g>
</svg>
