<?xml version="1.0" encoding="UTF-8" standalone="no"?>
<!-- Created with Inkscape (http://www.inkscape.org/) -->

<svg
   xmlns:dc="http://purl.org/dc/elements/1.1/"
   xmlns:cc="http://creativecommons.org/ns#"
   xmlns:rdf="http://www.w3.org/1999/02/22-rdf-syntax-ns#"
   xmlns:svg="http://www.w3.org/2000/svg"
   xmlns="http://www.w3.org/2000/svg"
   xmlns:sodipodi="http://sodipodi.sourceforge.net/DTD/sodipodi-0.dtd"
   xmlns:inkscape="http://www.inkscape.org/namespaces/inkscape"
   width="3.75mm"
   height="3.75mm"
   viewBox="0 0 3.75 3.75"
   version="1.1"
   id="svg13826"
   inkscape:version="0.92.1 r15371"
   sodipodi:docname="mechanic_dark.svg">
  <defs
     id="defs13820" />
  <sodipodi:namedview
     id="base"
     pagecolor="#ffffff"
     bordercolor="#666666"
     borderopacity="1.0"
     inkscape:pageopacity="0.0"
     inkscape:pageshadow="2"
     inkscape:zoom="28.687777"
     inkscape:cx="6.277535"
     inkscape:cy="6.4105833"
     inkscape:document-units="mm"
     inkscape:current-layer="layer1"
     showgrid="false"
     inkscape:window-width="644"
     inkscape:window-height="699"
     inkscape:window-x="714"
     inkscape:window-y="32"
     inkscape:window-maximized="0"
     showguides="true"
     inkscape:guide-bbox="true"
     gridtolerance="10"
     guidetolerance="2">
    <inkscape:grid
       type="xygrid"
       id="grid13828" />
    <sodipodi:guide
       position="0.13043093,3.8477124"
       orientation="1,0"
       id="guide20533"
       inkscape:locked="false" />
    <sodipodi:guide
       position="1.9173346,3.6129367"
       orientation="0,1"
       id="guide20535"
       inkscape:locked="false" />
  </sodipodi:namedview>
  <metadata
     id="metadata13823">
    <rdf:RDF>
      <cc:Work
         rdf:about="">
        <dc:format>image/svg+xml</dc:format>
        <dc:type
           rdf:resource="http://purl.org/dc/dcmitype/StillImage" />
        <dc:title></dc:title>
      </cc:Work>
    </rdf:RDF>
  </metadata>
  <g
     inkscape:label="Layer 1"
     inkscape:groupmode="layer"
     id="layer1"
     transform="translate(0,-293.25)">
    <path
       inkscape:connector-curvature="0"
       id="path2041"
       d="m 0.5544121,293.45413 c -0.1901684,0 -0.34450867,0.15572 -0.34450867,0.34726 v 2.65273 c 0,0.19155 0.15434027,0.34589 0.34450867,0.34589 h 2.6541024 c 0.1901684,0 0.3458879,-0.15434 0.3458879,-0.34589 v -2.65273 c 0,-0.19154 -0.1557195,-0.34726 -0.3458879,-0.34726 z m 0,0"
       style="fill:#ffffff;fill-opacity:1;fill-rule:nonzero;stroke:none;stroke-width:0.35277775" />
    <path
       inkscape:connector-curvature="0"
       id="path2043"
       d="m 3.2085145,296.87167 c 0.2301311,0 0.4161684,-0.18742 0.4161684,-0.41755 v -2.65273 c 0,-0.23151 -0.1860373,-0.41754 -0.4161684,-0.41754 H 0.5544121 c -0.23013106,0 -0.41616842,0.18603 -0.41616842,0.41754 v 2.65273 c 0,0.23013 0.18603736,0.41755 0.41616842,0.41755 z m 0,0"
       style="fill:#211e1e;fill-opacity:1;fill-rule:nonzero;stroke:none;stroke-width:0.35277775" />
    <path
       inkscape:connector-curvature="0"
       id="path2045"
       d="m 2.4629963,294.43391 -0.2549384,-0.19843 v -0.4079 c -0.1033533,0.0524 -0.2824974,0.22324 -0.235645,0.46302 0.00413,0.0717 0.059256,0.25356 0.035832,0.35278 -0.031715,0.13229 -0.042721,0.13504 -0.2328898,0.37069 l -0.95360418,1.16306 c -0.0647665,0.073 -0.0578767,0.18466 0.0151693,0.24805 0.0716598,0.0648 0.18190288,0.0579 0.24666928,-0.0152 l 1.1933803,-1.46623 c 0.074415,-0.0937 0.2135964,-0.17639 0.3334879,-0.20809 0.2053273,-0.0634 0.3582882,-0.25355 0.3582882,-0.48093 0,-0.1819 -0.1061085,-0.35553 -0.2439106,-0.42719 l -0.00141,0.40239 z m 0,0"
       style="fill:#ffffff;fill-opacity:1;fill-rule:nonzero;stroke:none;stroke-width:0.35277775" />
  </g>
</svg>
