<?xml version="1.0" encoding="UTF-8" standalone="no"?>
<!-- Created with Inkscape (http://www.inkscape.org/) -->

<svg
   xmlns:dc="http://purl.org/dc/elements/1.1/"
   xmlns:cc="http://creativecommons.org/ns#"
   xmlns:rdf="http://www.w3.org/1999/02/22-rdf-syntax-ns#"
   xmlns:svg="http://www.w3.org/2000/svg"
   xmlns="http://www.w3.org/2000/svg"
   xmlns:sodipodi="http://sodipodi.sourceforge.net/DTD/sodipodi-0.dtd"
   xmlns:inkscape="http://www.inkscape.org/namespaces/inkscape"
   width="3.75mm"
   height="3.75mm"
   viewBox="0 0 3.75 3.75"
   version="1.1"
   id="svg13826"
   inkscape:version="0.92.1 r15371"
   sodipodi:docname="motor_bike_light.svg">
  <defs
     id="defs13820" />
  <sodipodi:namedview
     id="base"
     pagecolor="#ffffff"
     bordercolor="#666666"
     borderopacity="1.0"
     inkscape:pageopacity="0.0"
     inkscape:pageshadow="2"
     inkscape:zoom="28.687777"
     inkscape:cx="6.277535"
     inkscape:cy="6.4105833"
     inkscape:document-units="mm"
     inkscape:current-layer="layer1"
     showgrid="false"
     inkscape:window-width="644"
     inkscape:window-height="699"
     inkscape:window-x="714"
     inkscape:window-y="32"
     inkscape:window-maximized="0"
     showguides="true"
     inkscape:guide-bbox="true"
     gridtolerance="10"
     guidetolerance="2">
    <inkscape:grid
       type="xygrid"
       id="grid13828" />
    <sodipodi:guide
       position="0.13043093,3.8477124"
       orientation="1,0"
       id="guide20533"
       inkscape:locked="false" />
    <sodipodi:guide
       position="1.9173346,3.6129367"
       orientation="0,1"
       id="guide20535"
       inkscape:locked="false" />
  </sodipodi:namedview>
  <metadata
     id="metadata13823">
    <rdf:RDF>
      <cc:Work
         rdf:about="">
        <dc:format>image/svg+xml</dc:format>
        <dc:type
           rdf:resource="http://purl.org/dc/dcmitype/StillImage" />
        <dc:title></dc:title>
      </cc:Work>
    </rdf:RDF>
  </metadata>
  <g
     inkscape:label="Layer 1"
     inkscape:groupmode="layer"
     id="layer1"
     transform="translate(0,-293.25)">
    <path
       inkscape:connector-curvature="0"
       id="path13161"
       d="m 3.2078266,296.87029 c 0.2301311,0 0.4175442,-0.18603 0.4175442,-0.41617 v -2.65272 c 0,-0.23151 -0.1874131,-0.41617 -0.4175442,-0.41617 H 0.55510355 c -0.23013458,0 -0.41754777,0.18466 -0.41754777,0.41617 v 2.65272 c 0,0.23014 0.18741319,0.41617 0.41754777,0.41617 z m 0,0"
       style="fill:#211e1e;fill-opacity:1;fill-rule:nonzero;stroke:none;stroke-width:0.35277775" />
    <path
       inkscape:connector-curvature="0"
       id="path13163"
       d="m 0.55510355,293.45551 c -0.19154775,0 -0.34588802,0.15434 -0.34588802,0.34451 v 2.6541 c 0,0.19017 0.15434027,0.34451 0.34588802,0.34451 H 3.2078266 c 0.1915477,0 0.3458879,-0.15434 0.3458879,-0.34451 v -2.6541 c 0,-0.19017 -0.1543402,-0.34451 -0.3458879,-0.34451 z m 0,0"
       style="fill:#ffffff;fill-opacity:1;fill-rule:nonzero;stroke:none;stroke-width:0.35277775" />
    <path
       inkscape:connector-curvature="0"
       id="path13165"
       d="m 2.0792129,293.87306 c -0.038583,-0.14883 -0.1750095,-0.26045 -0.3362396,-0.26045 -0.1929271,0 -0.3486467,0.15572 -0.3486467,0.34726 0,0.0331 0.00413,0.062 0.012418,0.091 H 1.545926 c 0.011007,0.0248 0.022048,0.0386 0.022048,0.0386 0.041342,0.0606 0.1116225,0.0992 0.1915478,0.0992 0.1281571,0 0.2328898,-0.10473 0.2328898,-0.23427 0,-0.0289 0.00825,-0.0551 -0.00413,-0.0813 z m 0,0"
       style="fill:#211e1e;fill-opacity:1;fill-rule:nonzero;stroke:none;stroke-width:0.35277775" />
    <path
       inkscape:connector-curvature="0"
       id="path13167"
       d="m 2.069568,295.94976 c -0.035832,0.0358 -0.086819,0.0648 -0.143316,0.0648 l -0.00141,-0.75654 0.5236563,-0.15021 0.1322917,0.25907 z m 0,0"
       style="fill:#211e1e;fill-opacity:1;fill-rule:nonzero;stroke:none;stroke-width:0.35277775" />
    <path
       inkscape:connector-curvature="0"
       id="path13169"
       d="m 1.6299716,294.21895 c -0.034431,-0.0386 -0.08406,-0.0634 -0.1405573,-0.0634 -0.059256,0 -0.1130018,0.0276 -0.1460747,0.0703 l -0.41616487,0.63527 c -0.0165452,0.0289 -0.026176,0.062 -0.026176,0.0965 0,0.0661 0.0330553,0.12265 0.0826805,0.1571 l 0.55810507,0.30868 v 0.52641 c 0,0.0744 0.059256,0.13505 0.133671,0.13505 0.074415,0 0.1350468,-0.0606 0.1350468,-0.13505 v -0.65733 c 0,0 0.017921,-0.10472 -0.1005945,-0.16123 l -0.3486468,-0.18189 0.253559,-0.38723 0.1350503,0.21084 c 0.026176,0.0427 0.063387,0.0592 0.09646,0.0592 l 0.3445121,-0.003 c 0.1405573,0 0.1405573,-0.1819 0,-0.18052 h -0.279742 z m 0,0"
       style="fill:#211e1e;fill-opacity:1;fill-rule:nonzero;stroke:none;stroke-width:0.35277775" />
    <path
       inkscape:connector-curvature="0"
       id="path13171"
       d="m 3.1582153,295.0816 c 0.0055,0.005 0.00826,0.0124 0.00826,0.0207 0,0.0165 -0.013793,0.0303 -0.030304,0.0303 -0.00413,0 -0.00688,0 -0.011007,-0.001 -0.059253,-0.0248 -0.09784,-0.0413 -0.1667405,-0.0413 -0.045476,0 -0.1019738,0.0165 -0.1681197,0.0689 l -0.060636,-0.1199 c 0.075791,-0.0234 0.1378055,-0.0427 0.2025721,-0.0427 0.1033534,0 0.1584748,0.022 0.2259965,0.0854"
       style="fill:#211e1e;fill-opacity:1;fill-rule:nonzero;stroke:none;stroke-width:0.35277775" />
    <path
       inkscape:connector-curvature="0"
       id="path13173"
       d="m 0.84035613,295.17393 0.58428817,0.32246 0.00141,0.12953 -0.66697223,-0.36793 c -0.0496067,-0.0248 -0.1143767,-0.04 -0.15984974,-0.04 -0.0689011,0 -0.10748788,0.0165 -0.16674396,0.0413 -0.004128,10e-4 -0.006879,10e-4 -0.0110067,10e-4 -0.0165452,0 -0.0303036,-0.0138 -0.0303036,-0.0303 0,-0.008 0.002822,-0.0152 0.008255,-0.0207 0.0675252,-0.0634 0.13780558,-0.0854 0.2411589,-0.0854 0.0523628,0 0.11713278,0.007 0.1998133,0.0496"
       style="fill:#211e1e;fill-opacity:1;fill-rule:nonzero;stroke:none;stroke-width:0.35277775" />
    <path
       inkscape:connector-curvature="0"
       id="path13175"
       d="m 0.39662872,296.01453 c 0,-0.27423 0.22324131,-0.49747 0.4974731,-0.49747 0.27560768,0 0.49884898,0.22324 0.49884898,0.49747 0,0.27561 -0.2232413,0.49885 -0.49884898,0.49885 -0.27423179,0 -0.4974731,-0.22324 -0.4974731,-0.49885 m 0.4974731,0.34589 c 0.19016838,0 0.34588448,-0.15434 0.34588448,-0.34589 0,-0.19017 -0.1557161,-0.34451 -0.34588448,-0.34451 -0.19017192,0 -0.34451219,0.15434 -0.34451219,0.34451 0,0.19155 0.15434027,0.34589 0.34451219,0.34589"
       style="fill:#211e1e;fill-opacity:1;fill-rule:nonzero;stroke:none;stroke-width:0.35277775" />
    <path
       inkscape:connector-curvature="0"
       id="path13177"
       d="m 2.4554186,296.01453 c 0,-0.27423 0.221862,-0.49747 0.4974695,-0.49747 0.2756077,0 0.4974733,0.22324 0.4974733,0.49747 0,0.27561 -0.2218656,0.49885 -0.4974733,0.49885 -0.2756075,0 -0.4974695,-0.22324 -0.4974695,-0.49885 m 0.4974695,0.34589 c 0.1901719,0 0.3458882,-0.15434 0.3458882,-0.34589 0,-0.19017 -0.1557163,-0.34451 -0.3458882,-0.34451 -0.1901683,0 -0.3445086,0.15434 -0.3445086,0.34451 0,0.19155 0.1543403,0.34589 0.3445086,0.34589"
       style="fill:#211e1e;fill-opacity:1;fill-rule:nonzero;stroke:none;stroke-width:0.35277775" />
    <path
       inkscape:connector-curvature="0"
       id="path13179"
       d="m 2.8426452,295.4454 -0.2411554,-0.48369 c -0.03168,-0.0579 -0.093708,-0.0978 -0.1639852,-0.0978 H 2.2790297 c -0.030304,0 -0.056501,0.0262 -0.056501,0.0565 0,0.0317 0.026176,0.0565 0.056501,0.0565 l 0.1584749,-10e-4 c 0.026176,0 0.055121,0.0179 0.067522,0.0441 l 0.2273759,0.4644 z m 0,0"
       style="fill:#211e1e;fill-opacity:1;fill-rule:nonzero;stroke:none;stroke-width:0.35277775" />
  </g>
</svg>
