<?xml version="1.0" encoding="UTF-8" standalone="no"?>
<!-- Created with Inkscape (http://www.inkscape.org/) -->

<svg
   xmlns:dc="http://purl.org/dc/elements/1.1/"
   xmlns:cc="http://creativecommons.org/ns#"
   xmlns:rdf="http://www.w3.org/1999/02/22-rdf-syntax-ns#"
   xmlns:svg="http://www.w3.org/2000/svg"
   xmlns="http://www.w3.org/2000/svg"
   xmlns:sodipodi="http://sodipodi.sourceforge.net/DTD/sodipodi-0.dtd"
   xmlns:inkscape="http://www.inkscape.org/namespaces/inkscape"
   width="3.75mm"
   height="3.75mm"
   viewBox="0 0 3.75 3.75"
   version="1.1"
   id="svg13826"
   inkscape:version="0.92.1 r15371"
   sodipodi:docname="radiator_dark.svg">
  <defs
     id="defs13820" />
  <sodipodi:namedview
     id="base"
     pagecolor="#ffffff"
     bordercolor="#666666"
     borderopacity="1.0"
     inkscape:pageopacity="0.0"
     inkscape:pageshadow="2"
     inkscape:zoom="28.687777"
     inkscape:cx="7.288884"
     inkscape:cy="6.4105833"
     inkscape:document-units="mm"
     inkscape:current-layer="layer1"
     showgrid="false"
     inkscape:window-width="644"
     inkscape:window-height="699"
     inkscape:window-x="714"
     inkscape:window-y="32"
     inkscape:window-maximized="0"
     showguides="true"
     inkscape:guide-bbox="true"
     gridtolerance="10"
     guidetolerance="2">
    <inkscape:grid
       type="xygrid"
       id="grid13828" />
    <sodipodi:guide
       position="0.13043093,3.8477124"
       orientation="1,0"
       id="guide20533"
       inkscape:locked="false" />
    <sodipodi:guide
       position="1.9173346,3.6129367"
       orientation="0,1"
       id="guide20535"
       inkscape:locked="false" />
  </sodipodi:namedview>
  <metadata
     id="metadata13823">
    <rdf:RDF>
      <cc:Work
         rdf:about="">
        <dc:format>image/svg+xml</dc:format>
        <dc:type
           rdf:resource="http://purl.org/dc/dcmitype/StillImage" />
        <dc:title></dc:title>
      </cc:Work>
    </rdf:RDF>
  </metadata>
  <g
     inkscape:label="Layer 1"
     inkscape:groupmode="layer"
     id="layer1"
     transform="translate(0,-293.25)">
    <path
       inkscape:connector-curvature="0"
       id="path12461"
       d="m 0.54243228,293.45069 c -0.1901684,0 -0.34588803,0.15572 -0.34588803,0.34726 v 2.65962 c 0,0.19154 0.15571963,0.34726 0.34588803,0.34726 H 3.2020451 c 0.1915477,0 0.3472672,-0.15572 0.3472672,-0.34726 v -2.65962 c 0,-0.19154 -0.1557195,-0.34726 -0.3472672,-0.34726 z m 0,0"
       style="fill:#ffffff;fill-opacity:1;fill-rule:nonzero;stroke:none;stroke-width:0.35277775" />
    <path
       inkscape:connector-curvature="0"
       id="path12463"
       d="m 3.2020451,296.87511 c 0.2301346,0 0.4175477,-0.18603 0.4175477,-0.41754 v -2.65962 c 0,-0.23013 -0.1874131,-0.41754 -0.4175477,-0.41754 H 0.54243228 c -0.23013106,0 -0.41754425,0.18741 -0.41754425,0.41754 v 2.65962 c 0,0.23151 0.18741319,0.41754 0.41754425,0.41754 z m 0,0"
       style="fill:#211e1e;fill-opacity:1;fill-rule:nonzero;stroke:none;stroke-width:0.35277775" />
    <path
       inkscape:connector-curvature="0"
       id="path12465"
       d="m 1.8033376,296.44655 c -0.2108412,0 -0.3817161,-0.17088 -0.3817161,-0.3831 0,-0.21084 0.1708749,-0.38309 0.3817161,-0.38309 0.212217,0 0.3844713,0.17225 0.3844713,0.38309 0,0.21222 -0.1722543,0.3831 -0.3844713,0.3831 m 0.1667404,-0.3831 c 0,-0.091 -0.074411,-0.16536 -0.1667404,-0.16536 -0.09095,0 -0.1653646,0.0744 -0.1653646,0.16536 0,0.091 0.074415,0.16537 0.1653646,0.16537 0.092329,0 0.1667404,-0.0744 0.1667404,-0.16537"
       style="fill:#ffffff;fill-opacity:1;fill-rule:nonzero;stroke:none;stroke-width:0.35277775" />
    <path
       inkscape:connector-curvature="0"
       id="path12467"
       d="m 0.9944288,295.7024 c 0.0275519,-0.19292 0.1047291,-0.28938 0.1598506,-0.30316 0.3224636,-0.073 0.8819444,-0.11163 1.1106996,-0.12678 l -0.5732638,-0.94671 h 0.1722543 l 0.5567292,0.92052 0.3582882,-0.58429 c 0.016544,-0.0275 0.07717,-0.0937 0.2011961,-0.0937 h 0.3720676 v 0.14745 H 2.980183 c 0,0 -0.041342,-0.003 -0.073039,0.0275 -0.01792,0.0165 -0.030304,0.0413 -0.063387,0.0937 l -0.2521832,0.42443 h 0.7041797 v 0.76757 H 2.3338801 c -0.017921,-0.27974 -0.2480451,-0.5016 -0.5319219,-0.5016 -0.2838767,0 -0.5140077,0.22186 -0.5305425,0.5016 H 1.0605746 c -0.055122,0 -0.1005981,-0.0441 -0.1005981,-0.0992 z m 0,0"
       style="fill:#ffffff;fill-opacity:1;fill-rule:nonzero;stroke:none;stroke-width:0.35277775" />
    <path
       inkscape:connector-curvature="0"
       id="path12469"
       d="m 0.42529947,293.70838 c 0.16536458,0 0.69315183,0.23427 0.90536883,0.59945 l -0.2218619,0.18052 c 0,0 -0.23564498,-0.3197 -0.68350693,-0.40238 z m 0,0"
       style="fill:#ffffff;fill-opacity:1;fill-rule:nonzero;stroke:none;stroke-width:0.35277775" />
    <path
       inkscape:connector-curvature="0"
       id="path12471"
       d="m 1.0950269,295.01752 c 0,0.10749 0.086815,0.1943 0.1929236,0.1943 0.1074878,0 0.1943029,-0.0868 0.1943029,-0.1943 0,-0.10611 -0.1943029,-0.54984 -0.1943029,-0.54984 0,0 -0.1929236,0.44373 -0.1929236,0.54984"
       style="fill:#ffffff;fill-opacity:1;fill-rule:nonzero;stroke:none;stroke-width:0.35277775" />
  </g>
</svg>
