<?xml version="1.0" encoding="UTF-8" standalone="no"?>
<!-- Created with Inkscape (http://www.inkscape.org/) -->

<svg
   xmlns:dc="http://purl.org/dc/elements/1.1/"
   xmlns:cc="http://creativecommons.org/ns#"
   xmlns:rdf="http://www.w3.org/1999/02/22-rdf-syntax-ns#"
   xmlns:svg="http://www.w3.org/2000/svg"
   xmlns="http://www.w3.org/2000/svg"
   xmlns:sodipodi="http://sodipodi.sourceforge.net/DTD/sodipodi-0.dtd"
   xmlns:inkscape="http://www.inkscape.org/namespaces/inkscape"
   width="3.75mm"
   height="3.75mm"
   viewBox="0 0 3.75 3.75"
   version="1.1"
   id="svg13826"
   inkscape:version="0.92.1 r15371"
   sodipodi:docname="seaplane_dark.svg">
  <defs
     id="defs13820" />
  <sodipodi:namedview
     id="base"
     pagecolor="#ffffff"
     bordercolor="#666666"
     borderopacity="1.0"
     inkscape:pageopacity="0.0"
     inkscape:pageshadow="2"
     inkscape:zoom="28.687777"
     inkscape:cx="7.288884"
     inkscape:cy="6.4105833"
     inkscape:document-units="mm"
     inkscape:current-layer="layer1"
     showgrid="false"
     inkscape:window-width="644"
     inkscape:window-height="699"
     inkscape:window-x="714"
     inkscape:window-y="32"
     inkscape:window-maximized="0"
     showguides="true"
     inkscape:guide-bbox="true"
     gridtolerance="10"
     guidetolerance="2">
    <inkscape:grid
       type="xygrid"
       id="grid13828" />
    <sodipodi:guide
       position="0.13043093,3.8477124"
       orientation="1,0"
       id="guide20533"
       inkscape:locked="false" />
    <sodipodi:guide
       position="1.9173346,3.6129367"
       orientation="0,1"
       id="guide20535"
       inkscape:locked="false" />
  </sodipodi:namedview>
  <metadata
     id="metadata13823">
    <rdf:RDF>
      <cc:Work
         rdf:about="">
        <dc:format>image/svg+xml</dc:format>
        <dc:type
           rdf:resource="http://purl.org/dc/dcmitype/StillImage" />
        <dc:title></dc:title>
      </cc:Work>
    </rdf:RDF>
  </metadata>
  <g
     inkscape:label="Layer 1"
     inkscape:groupmode="layer"
     id="layer1"
     transform="translate(0,-293.25)">
    <path
       inkscape:connector-curvature="0"
       id="path4199"
       d="m 0.55441208,293.45413 c -0.19154776,0 -0.34726386,0.15572 -0.34726386,0.34589 v 2.65548 c 0,0.19017 0.1557161,0.34588 0.34726386,0.34588 H 3.2098937 c 0.1901685,0 0.3458845,-0.15571 0.3458845,-0.34588 v -2.65548 c 0,-0.19017 -0.155716,-0.34589 -0.3458845,-0.34589 z m 0,0"
       style="fill:#ffffff;fill-opacity:1;fill-rule:nonzero;stroke:none;stroke-width:0.35277775" />
    <path
       inkscape:connector-curvature="0"
       id="path4201"
       d="m 3.2098937,296.87167 c 0.2301311,0 0.416165,-0.18604 0.416165,-0.41617 v -2.65548 c 0,-0.23014 -0.1860339,-0.41617 -0.416165,-0.41617 H 0.55441208 c -0.23013106,0 -0.41754425,0.18603 -0.41754425,0.41617 v 2.65548 c 0,0.23013 0.18741319,0.41617 0.41754425,0.41617 z m 0,0"
       style="fill:#211e1e;fill-opacity:1;fill-rule:nonzero;stroke:none;stroke-width:0.35277775" />
    <path
       inkscape:connector-curvature="0"
       id="path4203"
       d="m 3.2677705,296.32458 c -0.060635,0 -0.1198915,-0.0138 -0.1708785,-0.0358 -0.053742,-0.0248 -0.1129983,-0.04 -0.176389,-0.04 -0.062011,0 -0.1226431,0.0152 -0.1750094,0.04 -0.052366,0.022 -0.1102431,0.0358 -0.1708785,0.0358 -0.060632,0 -0.1185086,-0.0138 -0.170875,-0.0358 -0.053742,-0.0248 -0.1129982,-0.04 -0.1750095,-0.04 -0.063391,0 -0.1226467,0.0152 -0.1763889,0.04 -0.052366,0.022 -0.110243,0.0358 -0.1708785,0.0358 -0.060632,0 -0.1185121,-0.0138 -0.1708749,-0.0358 -0.052366,-0.0248 -0.1130018,-0.04 -0.1750131,-0.04 -0.063391,0 -0.1226432,0.0152 -0.1763889,0.04 -0.050987,0.022 -0.110243,0.0358 -0.1708749,0.0358 -0.060635,0 -0.1185122,-0.0138 -0.1694991,-0.0358 -0.053746,-0.0248 -0.11437769,-0.04 -0.17638893,-0.04 -0.0620113,0 -0.12264673,0.0152 -0.17501307,0.04 -0.0523628,0.022 -0.11024303,0.0358 -0.17087495,0.0358 v -0.25493 c 0.0606319,0 0.11851217,-0.0138 0.17087495,-0.0372 0.0523663,-0.0248 0.1130018,-0.0386 0.17501307,-0.0386 0.0620113,0 0.12264314,0.0138 0.17638893,0.0386 0.050987,0.0234 0.1088636,0.0372 0.1694991,0.0372 0.060632,0 0.119888,-0.0138 0.1708749,-0.0372 0.053746,-0.0248 0.1129983,-0.0386 0.1763889,-0.0386 0.062011,0 0.1226467,0.0138 0.1750131,0.0386 0.052363,0.0234 0.110243,0.0372 0.1708749,0.0372 0.060636,0 0.1185122,-0.0138 0.1708785,-0.0372 0.053742,-0.0248 0.1129983,-0.0386 0.1763889,-0.0386 0.062011,0 0.1212674,0.0138 0.1750095,0.0386 0.052366,0.0234 0.1102431,0.0372 0.170875,0.0372 0.060635,0 0.1185122,-0.0138 0.1708785,-0.0372 0.052366,-0.0248 0.1129982,-0.0386 0.1750094,-0.0386 0.063391,0 0.1226468,0.0138 0.176389,0.0386 0.050987,0.0234 0.1102431,0.0372 0.1708785,0.0372 z m 0,0"
       style="fill:#ffffff;fill-opacity:1;fill-rule:nonzero;stroke:none;stroke-width:0.35277775" />
    <path
       inkscape:connector-curvature="0"
       id="path4205"
       d="m 2.6448955,294.76464 c -0.00826,0.0138 -0.055121,0.0937 -0.055121,0.0937 0,0 -0.00963,0.0193 -0.041339,0.0193 h -0.157099 l -0.09095,-0.26734 c 0.00688,-10e-4 0.015169,-0.003 0.019297,-0.004 0.056497,-0.01 0.075791,-0.01 0.1185122,0.011 0,0 0.179144,0.0937 0.1915442,0.1006 0.015169,0.007 0.0248,0.0289 0.015169,0.0469 M 2.212206,294.627 2.297645,294.8778 H 1.6692604 c -0.013794,0 -0.028928,-0.008 -0.028928,-0.0289 v -0.0344 c 0,-0.0179 0.00826,-0.0289 0.0248,-0.0372 0.019297,-0.01 0.1322916,-0.0551 0.2011926,-0.073 0.1240226,-0.0303 0.2549384,-0.0593 0.3458881,-0.0772 m -0.5567253,0.97955 0.1019739,-0.27423 h 0.7055556 l 0.1019739,0.27285 z m 1.7032536,-0.003 -0.7124454,10e-4 -0.1019739,-0.27561 c 0.081305,-0.0124 0.2356449,-0.0372 0.3252153,-0.0634 0.038587,-0.01 0.07717,-0.0496 0.088194,-0.0717 l 0.212217,-0.32384 v 0.40515 c 0,0.0455 0.067525,0.0455 0.067525,0 v -0.41755 h 0.028928 c 0.081305,0 0.081305,-0.12264 0,-0.12264 h -0.028928 v -0.40377 c 0,-0.0455 -0.067525,-0.0455 -0.067525,0 v 0.40377 h -0.019296 c -0.073036,-0.007 -0.412034,-0.0427 -0.4781798,-0.0772 -0.066146,-0.0345 -0.1350468,-0.073 -0.1998168,-0.10611 -0.059256,-0.0303 -0.093705,-0.0275 -0.1570955,-0.0165 -0.037208,0.007 -0.2508038,0.0469 -0.4575104,0.0992 -0.2563143,0.0648 -0.5718845,0.2136 -0.5718845,0.2136 l -0.36104689,10e-4 c -0.0826813,-0.0248 -0.11437842,-0.17914 -0.15020653,-0.24667 l -0.0909496,-0.18328 c -0.006879,-0.0152 -0.0234244,-0.0207 -0.0399626,-0.0207 l -0.23013459,-0.0138 c -0.0344664,-0.003 -0.0206728,0.0262 -0.0165453,0.0427 l 0.15847482,0.61873 c 0.0165452,0.0689 0.1116189,0.13505 0.17914408,0.14194 l 0.92879691,0.14332 h 0.012418 l -0.1019739,0.27423 -0.73036287,10e-4 c -0.017921,0 -0.0330553,0.01 -0.0330553,0.0262 v 0.0469 c 0,0.0193 0.0124177,0.0331 0.0330553,0.0386 0.0592561,0.0179 0.23977947,0.0675 0.45475527,0.1199 0.00826,-0.003 0.015169,-0.004 0.023424,-0.007 0.067525,-0.0317 0.1391814,-0.0482 0.2135964,-0.0482 0.073036,0 0.1460711,0.0165 0.2122169,0.0468 0.042721,0.0193 0.088194,0.0289 0.1336711,0.0289 0.045477,0 0.09095,-0.01 0.1322917,-0.0275 0.067525,-0.0317 0.1419366,-0.0482 0.2149757,-0.0482 0.071656,0 0.1460711,0.0165 0.212217,0.0468 0.042718,0.0193 0.088194,0.0289 0.1336675,0.0289 0.045476,0 0.090953,-0.01 0.1322916,-0.0275 0.067525,-0.0317 0.1405607,-0.0482 0.2135963,-0.0482 0.068905,0 0.1391814,0.0152 0.2025721,0.0427 0.1777683,-0.0579 0.2397795,-0.10611 0.2397795,-0.10611 0.013793,-0.011 0.023423,-0.0234 0.023423,-0.0413 v -0.0482 c 0,-0.0179 -0.00967,-0.0275 -0.027552,-0.0275"
       style="fill:#ffffff;fill-opacity:1;fill-rule:nonzero;stroke:none;stroke-width:0.35277775" />
  </g>
</svg>
