<?xml version="1.0" encoding="UTF-8" standalone="no"?>
<!-- Created with Inkscape (http://www.inkscape.org/) -->

<svg
   xmlns:dc="http://purl.org/dc/elements/1.1/"
   xmlns:cc="http://creativecommons.org/ns#"
   xmlns:rdf="http://www.w3.org/1999/02/22-rdf-syntax-ns#"
   xmlns:svg="http://www.w3.org/2000/svg"
   xmlns="http://www.w3.org/2000/svg"
   xmlns:sodipodi="http://sodipodi.sourceforge.net/DTD/sodipodi-0.dtd"
   xmlns:inkscape="http://www.inkscape.org/namespaces/inkscape"
   width="3.75mm"
   height="3.75mm"
   viewBox="0 0 3.75 3.75"
   version="1.1"
   id="svg13826"
   inkscape:version="0.92.1 r15371"
   sodipodi:docname="seaplane_light.svg">
  <defs
     id="defs13820" />
  <sodipodi:namedview
     id="base"
     pagecolor="#ffffff"
     bordercolor="#666666"
     borderopacity="1.0"
     inkscape:pageopacity="0.0"
     inkscape:pageshadow="2"
     inkscape:zoom="28.687777"
     inkscape:cx="7.288884"
     inkscape:cy="6.4105833"
     inkscape:document-units="mm"
     inkscape:current-layer="layer1"
     showgrid="false"
     inkscape:window-width="644"
     inkscape:window-height="699"
     inkscape:window-x="714"
     inkscape:window-y="32"
     inkscape:window-maximized="0"
     showguides="true"
     inkscape:guide-bbox="true"
     gridtolerance="10"
     guidetolerance="2">
    <inkscape:grid
       type="xygrid"
       id="grid13828" />
    <sodipodi:guide
       position="0.13043093,3.8477124"
       orientation="1,0"
       id="guide20533"
       inkscape:locked="false" />
    <sodipodi:guide
       position="1.9173346,3.6129367"
       orientation="0,1"
       id="guide20535"
       inkscape:locked="false" />
  </sodipodi:namedview>
  <metadata
     id="metadata13823">
    <rdf:RDF>
      <cc:Work
         rdf:about="">
        <dc:format>image/svg+xml</dc:format>
        <dc:type
           rdf:resource="http://purl.org/dc/dcmitype/StillImage" />
        <dc:title></dc:title>
      </cc:Work>
    </rdf:RDF>
  </metadata>
  <g
     inkscape:label="Layer 1"
     inkscape:groupmode="layer"
     id="layer1"
     transform="translate(0,-293.25)">
    <path
       inkscape:connector-curvature="0"
       id="path5069"
       d="m 3.1900704,296.87167 c 0.2301312,0 0.4175443,-0.18604 0.4175443,-0.41617 v -2.65548 c 0,-0.23014 -0.1874131,-0.41617 -0.4175443,-0.41617 H 0.53458884 c -0.23013106,0 -0.41616842,0.18603 -0.41616842,0.41617 v 2.65548 c 0,0.23013 0.18603736,0.41617 0.41616842,0.41617 z m 0,0"
       style="fill:#211e1e;fill-opacity:1;fill-rule:nonzero;stroke:none;stroke-width:0.35277775" />
    <path
       inkscape:connector-curvature="0"
       id="path5071"
       d="m 0.53458884,293.45413 c -0.1901684,0 -0.34588803,0.15572 -0.34588803,0.34589 v 2.65548 c 0,0.19017 0.15571963,0.34588 0.34588803,0.34588 H 3.1900704 c 0.1901685,0 0.3458845,-0.15571 0.3458845,-0.34588 v -2.65548 c 0,-0.19017 -0.155716,-0.34589 -0.3458845,-0.34589 z m 0,0"
       style="fill:#ffffff;fill-opacity:1;fill-rule:nonzero;stroke:none;stroke-width:0.35277775" />
    <path
       inkscape:connector-curvature="0"
       id="path5073"
       d="m 3.2479473,296.32458 c -0.060635,0 -0.1185122,-0.0138 -0.1708785,-0.0358 -0.053742,-0.0248 -0.1129983,-0.04 -0.1750095,-0.04 -0.063391,0 -0.1226468,0.0152 -0.1763889,0.04 -0.050987,0.022 -0.1102431,0.0358 -0.1708785,0.0358 -0.060632,0 -0.1185087,-0.0138 -0.1694956,-0.0358 -0.055122,-0.0248 -0.1143776,-0.04 -0.1763889,-0.04 -0.062015,0 -0.1226467,0.0152 -0.1750131,0.04 -0.052366,0.022 -0.110243,0.0358 -0.1722543,0.0358 -0.060632,0 -0.1185122,-0.0138 -0.1694991,-0.0358 -0.053742,-0.0248 -0.1129983,-0.04 -0.1763889,-0.04 -0.062011,0 -0.1226432,0.0152 -0.1750095,0.04 -0.052366,0.022 -0.1116225,0.0358 -0.1722544,0.0358 -0.060635,0 -0.1171328,-0.0138 -0.16949909,-0.0358 -0.053746,-0.0248 -0.11299824,-0.04 -0.17501305,-0.04 -0.0633871,0 -0.12402257,0.0152 -0.17638887,0.04 -0.0523628,0.022 -0.11024307,0.0358 -0.17087498,0.0358 v -0.25493 c 0.0606319,0 0.11851216,-0.0138 0.17087498,-0.0372 0.0523663,-0.0248 0.11300177,-0.0386 0.17638887,-0.0386 0.0620148,0 0.12126735,0.0138 0.17501305,0.0386 0.052366,0.0234 0.10886369,0.0372 0.16949909,0.0372 0.060632,0 0.119888,-0.0138 0.1722544,-0.0372 0.052366,-0.0248 0.1129982,-0.0386 0.1750095,-0.0386 0.063391,0 0.1226467,0.0138 0.1763889,0.0386 0.050987,0.0234 0.1088672,0.0372 0.1694991,0.0372 0.062011,0 0.119888,-0.0138 0.1722543,-0.0372 0.052366,-0.0248 0.1129983,-0.0386 0.1750131,-0.0386 0.062011,0 0.1212673,0.0138 0.1763889,0.0386 0.050987,0.0234 0.1088636,0.0372 0.1694956,0.0372 0.060635,0 0.1198915,-0.0138 0.1708785,-0.0372 0.053742,-0.0248 0.1129982,-0.0386 0.1763889,-0.0386 0.062011,0 0.1212673,0.0138 0.1750095,0.0386 0.052366,0.0234 0.1102431,0.0372 0.1708785,0.0372 z m 0,0"
       style="fill:#211e1e;fill-opacity:1;fill-rule:nonzero;stroke:none;stroke-width:0.35277775" />
    <path
       inkscape:connector-curvature="0"
       id="path5075"
       d="m 2.6250723,294.76464 c -0.00826,0.0138 -0.053742,0.0937 -0.053742,0.0937 0,0 -0.011007,0.0193 -0.042718,0.0193 h -0.157099 l -0.09095,-0.26734 c 0.00826,-10e-4 0.015169,-0.003 0.020673,-0.004 0.056501,-0.01 0.075794,-0.01 0.1171363,0.011 0,0 0.1805199,0.0937 0.1929236,0.1006 0.015169,0.007 0.023424,0.0289 0.013793,0.0469 m -0.4327029,-0.1378 0.085439,0.2508 H 1.6494406 c -0.013794,0 -0.028928,-0.008 -0.028928,-0.0289 v -0.0344 c 0,-0.0179 0.00825,-0.0289 0.0248,-0.0372 0.019297,-0.01 0.133671,-0.0551 0.202572,-0.073 0.1226432,-0.0303 0.253559,-0.0593 0.3445087,-0.0772 m -0.5567256,0.97978 0.1019739,-0.27423 h 0.7055556 l 0.1019739,0.27285 z m 1.7032534,-0.003 -0.7110659,10e-4 -0.1033533,-0.27561 c 0.081305,-0.0124 0.2370208,-0.0372 0.3252152,-0.0634 0.038587,-0.01 0.07717,-0.0496 0.089574,-0.0717 l 0.212217,-0.32384 v 0.40515 c 0,0.0455 0.067525,0.0455 0.067525,0 v -0.41755 h 0.028928 c 0.081305,0 0.081305,-0.12264 0,-0.12264 h -0.028928 v -0.40377 c 0,-0.0455 -0.067525,-0.0455 -0.067525,0 v 0.40377 h -0.020672 c -0.073036,-0.007 -0.4120338,-0.0427 -0.4768038,-0.0772 -0.066146,-0.0345 -0.1364226,-0.073 -0.1998133,-0.10611 -0.059256,-0.0303 -0.093708,-0.0275 -0.1584748,-0.0165 -0.035828,0.007 -0.2508038,0.0469 -0.4575105,0.0992 -0.2549348,0.0648 -0.5718845,0.2136 -0.5718845,0.2136 l -0.35966745,0.001 c -0.0826851,-0.0248 -0.11575804,-0.17914 -0.15158614,-0.24667 l -0.0909496,-0.18328 c -0.006879,-0.0152 -0.0234244,-0.0207 -0.0385868,-0.0207 l -0.23013103,-0.0138 c -0.0344664,-0.003 -0.0220486,0.0262 -0.0165453,0.0427 l 0.15709547,0.61873 c 0.0165452,0.0689 0.11161887,0.13505 0.18052344,0.14194 l 0.92879681,0.14332 h 0.011007 l -0.101974,0.27423 -0.73036283,10e-4 c -0.017921,0 -0.0316794,0.01 -0.0316794,0.0262 v 0.0469 c 0,0.0193 0.0110067,0.0331 0.0316794,0.0386 0.0592561,0.0179 0.24115893,0.0675 0.45475523,0.1199 0.00825,-0.003 0.015169,-0.004 0.023424,-0.007 0.067525,-0.0317 0.1391814,-0.0482 0.2135963,-0.0482 0.073036,0 0.1460712,0.0165 0.2135964,0.0468 0.041342,0.0193 0.088194,0.0289 0.133671,0.0289 0.045473,0 0.08957,-0.01 0.1322917,-0.0275 0.066146,-0.0317 0.1405572,-0.0482 0.2135963,-0.0482 0.071656,0 0.1460712,0.0165 0.212217,0.0468 0.042718,0.0193 0.08957,0.0289 0.1336675,0.0289 0.045477,0 0.090953,-0.01 0.1322917,-0.0275 0.067525,-0.0317 0.1419402,-0.0482 0.2149758,-0.0482 0.067525,0 0.1378021,0.0152 0.2011926,0.0427 0.1777682,-0.0579 0.241159,-0.10611 0.241159,-0.10611 0.013793,-0.011 0.022048,-0.0234 0.022048,-0.0413 v -0.0482 c 0,-0.0179 -0.00967,-0.0275 -0.027552,-0.0275"
       style="fill:#211e1e;fill-opacity:1;fill-rule:nonzero;stroke:none;stroke-width:0.35277775" />
  </g>
</svg>
