<?xml version="1.0" encoding="UTF-8" standalone="no"?>
<!-- Created with Inkscape (http://www.inkscape.org/) -->

<svg
   xmlns:dc="http://purl.org/dc/elements/1.1/"
   xmlns:cc="http://creativecommons.org/ns#"
   xmlns:rdf="http://www.w3.org/1999/02/22-rdf-syntax-ns#"
   xmlns:svg="http://www.w3.org/2000/svg"
   xmlns="http://www.w3.org/2000/svg"
   xmlns:sodipodi="http://sodipodi.sourceforge.net/DTD/sodipodi-0.dtd"
   xmlns:inkscape="http://www.inkscape.org/namespaces/inkscape"
   width="3.75mm"
   height="3.75mm"
   viewBox="0 0 3.75 3.75"
   version="1.1"
   id="svg13826"
   inkscape:version="0.92.1 r15371"
   sodipodi:docname="dam_light.svg">
  <defs
     id="defs13820" />
  <sodipodi:namedview
     id="base"
     pagecolor="#ffffff"
     bordercolor="#666666"
     borderopacity="1.0"
     inkscape:pageopacity="0.0"
     inkscape:pageshadow="2"
     inkscape:zoom="28.687777"
     inkscape:cx="7.5166686"
     inkscape:cy="6.238671"
     inkscape:document-units="mm"
     inkscape:current-layer="layer1"
     showgrid="false"
     inkscape:window-width="691"
     inkscape:window-height="712"
     inkscape:window-x="674"
     inkscape:window-y="27"
     inkscape:window-maximized="0"
     showguides="true"
     inkscape:guide-bbox="true"
     gridtolerance="10"
     guidetolerance="2">
    <inkscape:grid
       type="xygrid"
       id="grid13828" />
    <sodipodi:guide
       position="0.13043093,3.8477124"
       orientation="1,0"
       id="guide20533"
       inkscape:locked="false" />
    <sodipodi:guide
       position="1.9173346,3.6129367"
       orientation="0,1"
       id="guide20535"
       inkscape:locked="false" />
  </sodipodi:namedview>
  <metadata
     id="metadata13823">
    <rdf:RDF>
      <cc:Work
         rdf:about="">
        <dc:format>image/svg+xml</dc:format>
        <dc:type
           rdf:resource="http://purl.org/dc/dcmitype/StillImage" />
        <dc:title></dc:title>
      </cc:Work>
    </rdf:RDF>
  </metadata>
  <g
     inkscape:label="Layer 1"
     inkscape:groupmode="layer"
     id="layer1"
     transform="translate(0,-293.25)">
    <path
       inkscape:connector-curvature="0"
       id="path4809"
       d="m 3.1992916,296.86176 c 0.2301311,0 0.4161684,-0.18604 0.4161684,-0.41617 v -2.6541 c 0,-0.23014 -0.1860373,-0.41617 -0.4161684,-0.41617 H 0.54518924 c -0.23013106,0 -0.41616842,0.18603 -0.41616842,0.41617 v 2.6541 c 0,0.23013 0.18603736,0.41617 0.41616842,0.41617 z m 0,0"
       style="fill:#211e1e;fill-opacity:1;fill-rule:nonzero;stroke:none;stroke-width:0.35277775" />
    <path
       inkscape:connector-curvature="0"
       id="path4811"
       d="m 0.54518924,293.4456 c -0.1901684,0 -0.34588803,0.15572 -0.34588803,0.34589 v 2.6541 c 0,0.19017 0.15571963,0.34451 0.34588803,0.34451 H 3.1992916 c 0.1901684,0 0.3458879,-0.15434 0.3458879,-0.34451 v -2.6541 c 0,-0.19017 -0.1557195,-0.34589 -0.3458879,-0.34589 z m 0,0"
       style="fill:#ffffff;fill-opacity:1;fill-rule:nonzero;stroke:none;stroke-width:0.35277775" />
    <path
       inkscape:connector-curvature="0"
       id="path4813"
       d="M 1.4781206,296.1314 H 0.4928229 l 0.00141,-0.19293 h 0.9839186 z m 0,0"
       style="fill:#211e1e;fill-opacity:1;fill-rule:nonzero;stroke:none;stroke-width:0.35277775" />
    <path
       inkscape:connector-curvature="0"
       id="path4815"
       d="M 1.4781206,295.83925 H 0.4928229 l 0.00141,-0.19292 h 0.9839186 z m 0,0"
       style="fill:#211e1e;fill-opacity:1;fill-rule:nonzero;stroke:none;stroke-width:0.35277775" />
    <path
       inkscape:connector-curvature="0"
       id="path4817"
       d="M 1.4781206,295.54711 H 0.4928229 l 0.00141,-0.19293 h 0.9839186 z m 0,0"
       style="fill:#211e1e;fill-opacity:1;fill-rule:nonzero;stroke:none;stroke-width:0.35277775" />
    <path
       inkscape:connector-curvature="0"
       id="path4819"
       d="M 1.4781206,295.25359 H 0.4928229 l 0.00141,-0.19293 h 0.9839186 z m 0,0"
       style="fill:#211e1e;fill-opacity:1;fill-rule:nonzero;stroke:none;stroke-width:0.35277775" />
    <path
       inkscape:connector-curvature="0"
       id="path4821"
       d="m 1.8777543,294.0795 c -0.017921,-0.0427 -0.060635,-0.073 -0.1102431,-0.073 l -0.1584748,10e-4 v 2.12356 H 2.360065 Z m 0,0"
       style="fill:#211e1e;fill-opacity:1;fill-rule:nonzero;stroke:none;stroke-width:0.35277775" />
    <path
       inkscape:connector-curvature="0"
       id="path4823"
       d="M 1.4781206,294.96144 H 0.4928229 l 0.00141,-0.19292 h 0.9839186 z m 0,0"
       style="fill:#211e1e;fill-opacity:1;fill-rule:nonzero;stroke:none;stroke-width:0.35277775" />
    <path
       inkscape:connector-curvature="0"
       id="path4825"
       d="M 1.4781206,294.6693 H 0.4928229 l 0.00141,-0.19293 h 0.9839186 z m 0,0"
       style="fill:#211e1e;fill-opacity:1;fill-rule:nonzero;stroke:none;stroke-width:0.35277775" />
    <path
       inkscape:connector-curvature="0"
       id="path4827"
       d="M 1.4781206,294.37578 H 0.4928229 l 0.00141,-0.19293 h 0.9839186 z m 0,0"
       style="fill:#211e1e;fill-opacity:1;fill-rule:nonzero;stroke:none;stroke-width:0.35277775" />
    <path
       inkscape:connector-curvature="0"
       id="path4829"
       d="m 2.4510182,295.96328 c 0.015169,0.003 0.028928,0.004 0.044097,0.004 0.038583,0 0.074411,-0.008 0.1074843,-0.0234 0.033055,-0.0152 0.07028,-0.0248 0.1102431,-0.0248 0.039963,0 0.07717,0.01 0.110243,0.0248 0.033055,0.0152 0.07028,0.0234 0.1074878,0.0234 0.038587,0 0.074415,-0.008 0.107488,-0.0234 0.033055,-0.0152 0.071656,-0.0248 0.1102429,-0.0248 0.039963,0 0.07717,0.01 0.111619,0.0248 0.031715,0.0152 0.068905,0.0234 0.1074878,0.0234 v 0.16123 c -0.038583,0 -0.075791,-0.008 -0.1074878,-0.0234 -0.034431,-0.0152 -0.071656,-0.0248 -0.111619,-0.0248 -0.038587,0 -0.07717,0.01 -0.1102429,0.0248 -0.033055,0.0152 -0.068901,0.0234 -0.107488,0.0234 -0.037207,0 -0.074415,-0.008 -0.1074878,-0.0234 -0.033055,-0.0152 -0.07028,-0.0248 -0.110243,-0.0248 -0.039963,0 -0.07717,0.01 -0.1102431,0.0248 -0.033055,0.0152 -0.068901,0.0234 -0.1074843,0.0234 h -0.00688 z m 0,0"
       style="fill:#211e1e;fill-opacity:1;fill-rule:nonzero;stroke:none;stroke-width:0.35277775" />
    <path
       inkscape:connector-curvature="0"
       id="path4831"
       d="m 2.3876276,295.64908 c 0.033055,0.0138 0.068901,0.0234 0.1074878,0.0234 0.038583,0 0.074411,-0.01 0.1074843,-0.0234 0.033055,-0.0165 0.07028,-0.0248 0.1102431,-0.0248 0.039963,0 0.07717,0.008 0.110243,0.0248 0.033055,0.0138 0.07028,0.0234 0.1074878,0.0234 0.038587,0 0.074415,-0.01 0.107488,-0.0234 0.033055,-0.0165 0.071656,-0.0248 0.1102429,-0.0248 0.039963,0 0.07717,0.008 0.111619,0.0248 0.031715,0.0138 0.068905,0.0234 0.1074878,0.0234 v 0.15985 c -0.038583,0 -0.075791,-0.008 -0.1074878,-0.022 -0.034431,-0.0166 -0.071656,-0.0248 -0.111619,-0.0248 -0.038587,0 -0.07717,0.008 -0.1102429,0.0248 -0.033055,0.0138 -0.068901,0.022 -0.107488,0.022 -0.037207,0 -0.074415,-0.008 -0.1074878,-0.022 -0.033055,-0.0166 -0.07028,-0.0248 -0.110243,-0.0248 -0.039963,0 -0.07717,0.008 -0.1102431,0.0248 -0.033055,0.0138 -0.068901,0.022 -0.1074843,0.022 -0.023424,0 -0.046856,-0.003 -0.068905,-0.008 z m 0,0"
       style="fill:#211e1e;fill-opacity:1;fill-rule:nonzero;stroke:none;stroke-width:0.35277775" />
  </g>
</svg>
