<?xml version="1.0" encoding="UTF-8" standalone="no"?>
<!-- Created with Inkscape (http://www.inkscape.org/) -->

<svg
   xmlns:dc="http://purl.org/dc/elements/1.1/"
   xmlns:cc="http://creativecommons.org/ns#"
   xmlns:rdf="http://www.w3.org/1999/02/22-rdf-syntax-ns#"
   xmlns:svg="http://www.w3.org/2000/svg"
   xmlns="http://www.w3.org/2000/svg"
   xmlns:sodipodi="http://sodipodi.sourceforge.net/DTD/sodipodi-0.dtd"
   xmlns:inkscape="http://www.inkscape.org/namespaces/inkscape"
   width="3.75mm"
   height="3.75mm"
   viewBox="0 0 3.75 3.75"
   version="1.1"
   id="svg13826"
   inkscape:version="0.92.1 r15371"
   sodipodi:docname="poi_dark.svg">
  <defs
     id="defs13820" />
  <sodipodi:namedview
     id="base"
     pagecolor="#ffffff"
     bordercolor="#666666"
     borderopacity="1.0"
     inkscape:pageopacity="0.0"
     inkscape:pageshadow="2"
     inkscape:zoom="28.687777"
     inkscape:cx="6.2597362"
     inkscape:cy="6.238671"
     inkscape:document-units="mm"
     inkscape:current-layer="layer1"
     showgrid="false"
     inkscape:window-width="691"
     inkscape:window-height="712"
     inkscape:window-x="674"
     inkscape:window-y="27"
     inkscape:window-maximized="0"
     showguides="true"
     inkscape:guide-bbox="true"
     gridtolerance="10"
     guidetolerance="2">
    <inkscape:grid
       type="xygrid"
       id="grid13828" />
    <sodipodi:guide
       position="0.13043093,3.8477124"
       orientation="1,0"
       id="guide20533"
       inkscape:locked="false" />
    <sodipodi:guide
       position="1.9173346,3.6129367"
       orientation="0,1"
       id="guide20535"
       inkscape:locked="false" />
  </sodipodi:namedview>
  <metadata
     id="metadata13823">
    <rdf:RDF>
      <cc:Work
         rdf:about="">
        <dc:format>image/svg+xml</dc:format>
        <dc:type
           rdf:resource="http://purl.org/dc/dcmitype/StillImage" />
        <dc:title></dc:title>
      </cc:Work>
    </rdf:RDF>
  </metadata>
  <g
     inkscape:label="Layer 1"
     inkscape:groupmode="layer"
     id="layer1"
     transform="translate(0,-293.25)">
    <path
       inkscape:connector-curvature="0"
       id="path1777"
       d="m 0.53458875,293.4562 c -0.19016838,0 -0.34450865,0.15434 -0.34450865,0.34589 v 2.65272 c 0,0.19155 0.15434027,0.34589 0.34450865,0.34589 H 3.1886912 c 0.1915477,0 0.3458879,-0.15434 0.3458879,-0.34589 v -2.65272 c 0,-0.19155 -0.1543402,-0.34589 -0.3458879,-0.34589 z m 0,0"
       style="fill:#ffffff;fill-opacity:1;fill-rule:nonzero;stroke:none;stroke-width:0.35277775" />
    <path
       inkscape:connector-curvature="0"
       id="path1779"
       d="m 3.1886912,296.87098 c 0.2301309,0 0.4175442,-0.18604 0.4175442,-0.41617 v -2.65272 c 0,-0.23014 -0.1874133,-0.41755 -0.4175442,-0.41755 H 0.53458875 c -0.23013105,0 -0.41478904,0.18741 -0.41478904,0.41755 v 2.65272 c 0,0.23013 0.18465799,0.41617 0.41478904,0.41617 z m 0,0"
       style="fill:#211e1e;fill-opacity:1;fill-rule:nonzero;stroke:none;stroke-width:0.35277775" />
    <path
       inkscape:connector-curvature="0"
       id="path1781"
       d="m 1.9098717,295.35514 c -0.050987,-0.0496 -0.050987,-0.13092 0,-0.18053 0.049608,-0.0496 0.1309123,-0.0496 0.1805234,0 l 0.2549349,0.25494 v -0.36105 c 0,-0.0703 0.057877,-0.12815 0.1295365,-0.12815 0.07028,0 0.1281571,0.0579 0.1281571,0.12815 v 0.36105 l 0.2535589,-0.25494 c 0.050987,-0.0496 0.1322917,-0.0496 0.1819029,0 0.050987,0.0496 0.050987,0.13092 0,0.18053 l -0.2549385,0.25493 0.361047,10e-4 c 0.07028,0 0.1267777,0.0565 0.1267777,0.12816 0,0.0703 -0.056497,0.12816 -0.1267777,0.12816 h -0.361047 l 0.2549385,0.25494 c 0.050987,0.0496 0.050987,0.13091 0,0.18052 -0.049611,0.0496 -0.1309158,0.0496 -0.1819029,0 l -0.2535589,-0.25493 v 0.36104 c 0,0.0703 -0.057877,0.12816 -0.1281571,0.12816 -0.07166,0 -0.1295365,-0.0579 -0.1295365,-0.12816 v -0.36104 l -0.2549349,0.25493 c -0.049611,0.0496 -0.1309158,0.0496 -0.1805234,0 -0.050987,-0.0496 -0.050987,-0.13091 0,-0.18052 l 0.2549349,-0.25494 H 1.8037632 c -0.07028,0 -0.1281606,-0.0579 -0.1281606,-0.12815 0,-0.0717 0.05788,-0.12817 0.1281606,-0.12817 h 0.3610434 z m 0,0"
       style="fill:#ffffff;fill-opacity:1;fill-rule:nonzero;stroke:none;stroke-width:0.35277775" />
    <path
       inkscape:connector-curvature="0"
       id="path1783"
       d="m 1.7665557,294.06392 c 0,-0.0703 -0.056501,-0.12679 -0.1281571,-0.12679 -0.07028,0 -0.1281606,0.0565 -0.1281606,0.12679 v 0.53054 l -0.74965275,-0.74828 c -0.0482282,-0.051 -0.13091229,-0.051 -0.17914409,0 -0.050987,0.0496 -0.050987,0.13092 0,0.18053 l 0.74827694,0.74827 H 0.79917208 c -0.0702804,0 -0.1281571,0.0579 -0.1281571,0.12816 0,0.0703 0.0578767,0.12816 0.1281571,0.12816 H 1.6383986 c 0.033055,0 0.064766,-0.0124 0.09095,-0.0372 0.0248,-0.0248 0.037207,-0.0579 0.037207,-0.091 z m 0,0"
       style="fill:#ffffff;fill-opacity:1;fill-rule:nonzero;stroke:none;stroke-width:0.35277775" />
  </g>
</svg>
