<?xml version="1.0" encoding="UTF-8" standalone="no"?>
<!-- Created with Inkscape (http://www.inkscape.org/) -->

<svg
   xmlns:dc="http://purl.org/dc/elements/1.1/"
   xmlns:cc="http://creativecommons.org/ns#"
   xmlns:rdf="http://www.w3.org/1999/02/22-rdf-syntax-ns#"
   xmlns:svg="http://www.w3.org/2000/svg"
   xmlns="http://www.w3.org/2000/svg"
   xmlns:sodipodi="http://sodipodi.sourceforge.net/DTD/sodipodi-0.dtd"
   xmlns:inkscape="http://www.inkscape.org/namespaces/inkscape"
   width="3.75mm"
   height="3.75mm"
   viewBox="0 0 3.75 3.75"
   version="1.1"
   id="svg13826"
   inkscape:version="0.92.1 r15371"
   sodipodi:docname="poi_light.svg">
  <defs
     id="defs13820" />
  <sodipodi:namedview
     id="base"
     pagecolor="#ffffff"
     bordercolor="#666666"
     borderopacity="1.0"
     inkscape:pageopacity="0.0"
     inkscape:pageshadow="2"
     inkscape:zoom="28.687777"
     inkscape:cx="6.2597362"
     inkscape:cy="6.238671"
     inkscape:document-units="mm"
     inkscape:current-layer="layer1"
     showgrid="false"
     inkscape:window-width="691"
     inkscape:window-height="712"
     inkscape:window-x="674"
     inkscape:window-y="27"
     inkscape:window-maximized="0"
     showguides="true"
     inkscape:guide-bbox="true"
     gridtolerance="10"
     guidetolerance="2">
    <inkscape:grid
       type="xygrid"
       id="grid13828" />
    <sodipodi:guide
       position="0.13043093,3.8477124"
       orientation="1,0"
       id="guide20533"
       inkscape:locked="false" />
    <sodipodi:guide
       position="1.9173346,3.6129367"
       orientation="0,1"
       id="guide20535"
       inkscape:locked="false" />
  </sodipodi:namedview>
  <metadata
     id="metadata13823">
    <rdf:RDF>
      <cc:Work
         rdf:about="">
        <dc:format>image/svg+xml</dc:format>
        <dc:type
           rdf:resource="http://purl.org/dc/dcmitype/StillImage" />
        <dc:title></dc:title>
      </cc:Work>
    </rdf:RDF>
  </metadata>
  <g
     inkscape:label="Layer 1"
     inkscape:groupmode="layer"
     id="layer1"
     transform="translate(0,-293.25)">
    <path
       inkscape:connector-curvature="0"
       id="path4361"
       d="m 3.2085145,296.86176 c 0.2301311,0 0.4161684,-0.18604 0.4161684,-0.41617 v -2.65272 c 0,-0.23151 -0.1860373,-0.41755 -0.4161684,-0.41755 H 0.5544121 c -0.23013106,0 -0.41616842,0.18604 -0.41616842,0.41755 v 2.65272 c 0,0.23013 0.18603736,0.41617 0.41616842,0.41617 z m 0,0"
       style="fill:#211e1e;fill-opacity:1;fill-rule:nonzero;stroke:none;stroke-width:0.35277775" />
    <path
       inkscape:connector-curvature="0"
       id="path4363"
       d="m 0.5544121,293.4456 c -0.1901684,0 -0.34450867,0.15572 -0.34450867,0.34589 v 2.6541 c 0,0.19017 0.15434027,0.34589 0.34450867,0.34589 h 2.6541024 c 0.1901684,0 0.3458879,-0.15572 0.3458879,-0.34589 v -2.6541 c 0,-0.19017 -0.1557195,-0.34589 -0.3458879,-0.34589 z m 0,0"
       style="fill:#ffffff;fill-opacity:1;fill-rule:nonzero;stroke:none;stroke-width:0.35277775" />
    <path
       inkscape:connector-curvature="0"
       id="path4365"
       d="m 1.9296951,295.34592 c -0.050987,-0.0496 -0.050987,-0.13092 0,-0.18053 0.049608,-0.0496 0.1309123,-0.0496 0.1805234,0 l 0.2549349,0.25494 v -0.36105 c 0,-0.0703 0.05788,-0.12815 0.1281606,-0.12815 0.070277,0 0.1281571,0.0579 0.1281571,0.12815 v 0.36105 l 0.2549349,-0.25494 c 0.050987,-0.0496 0.1309159,-0.0496 0.1819027,0 0.049608,0.0496 0.049608,0.13092 0,0.18053 l -0.2549383,0.25493 0.3610468,0.001 c 0.07028,0 0.1267777,0.0565 0.1267777,0.12816 0,0.0689 -0.056497,0.12678 -0.1267777,0.12678 H 2.8033704 l 0.2549383,0.25632 c 0.049608,0.0496 0.049608,0.13091 0,0.18052 -0.050987,0.0496 -0.1309159,0.0496 -0.1819027,0 l -0.2535591,-0.25493 -0.00141,0.35966 c 0,0.0717 -0.05788,0.12954 -0.1281571,0.12954 -0.07028,0 -0.1281606,-0.0579 -0.1281606,-0.12954 v -0.35966 l -0.2549349,0.25493 c -0.049611,0.0496 -0.1309158,0.0496 -0.1805234,0 -0.050987,-0.0496 -0.050987,-0.13091 0,-0.18052 l 0.2549375,-0.25632 H 1.8235513 c -0.07028,0 -0.1281571,-0.0579 -0.1281571,-0.12677 0,-0.0717 0.057877,-0.12817 0.1281571,-0.12817 h 0.3610469 z m 0,0"
       style="fill:#211e1e;fill-opacity:1;fill-rule:nonzero;stroke:none;stroke-width:0.35277775" />
    <path
       inkscape:connector-curvature="0"
       id="path4367"
       d="m 1.7863791,294.0547 c 0,-0.0703 -0.057877,-0.12679 -0.1281571,-0.12679 -0.07166,0 -0.1281571,0.0565 -0.1281571,0.12679 v 0.53054 l -0.74965278,-0.74828 c -0.0496111,-0.051 -0.13091584,-0.051 -0.18052344,0 -0.0496112,0.0482 -0.0496112,0.13092 0,0.17915 l 0.74827342,0.74965 H 0.8189954 c -0.0702804,0 -0.1281571,0.0579 -0.1281571,0.12816 0,0.0703 0.0578767,0.12816 0.1281571,0.12816 l 0.8378472,-0.001 c 0.033055,0 0.066146,-0.0124 0.09095,-0.0358 0.0248,-0.0262 0.037207,-0.0579 0.037207,-0.091 z m 0,0"
       style="fill:#211e1e;fill-opacity:1;fill-rule:nonzero;stroke:none;stroke-width:0.35277775" />
  </g>
</svg>
