<?xml version="1.0" encoding="UTF-8" standalone="no"?>
<!-- Created with Inkscape (http://www.inkscape.org/) -->

<svg
   xmlns:dc="http://purl.org/dc/elements/1.1/"
   xmlns:cc="http://creativecommons.org/ns#"
   xmlns:rdf="http://www.w3.org/1999/02/22-rdf-syntax-ns#"
   xmlns:svg="http://www.w3.org/2000/svg"
   xmlns="http://www.w3.org/2000/svg"
   xmlns:sodipodi="http://sodipodi.sourceforge.net/DTD/sodipodi-0.dtd"
   xmlns:inkscape="http://www.inkscape.org/namespaces/inkscape"
   width="3.75mm"
   height="3.75mm"
   viewBox="0 0 3.75 3.75"
   version="1.1"
   id="svg13826"
   inkscape:version="0.92.1 r15371"
   sodipodi:docname="shipwreck_dark.svg">
  <defs
     id="defs13820" />
  <sodipodi:namedview
     id="base"
     pagecolor="#ffffff"
     bordercolor="#666666"
     borderopacity="1.0"
     inkscape:pageopacity="0.0"
     inkscape:pageshadow="2"
     inkscape:zoom="28.687777"
     inkscape:cx="6.2597362"
     inkscape:cy="6.238671"
     inkscape:document-units="mm"
     inkscape:current-layer="layer1"
     showgrid="false"
     inkscape:window-width="691"
     inkscape:window-height="712"
     inkscape:window-x="674"
     inkscape:window-y="27"
     inkscape:window-maximized="0"
     showguides="true"
     inkscape:guide-bbox="true"
     gridtolerance="10"
     guidetolerance="2">
    <inkscape:grid
       type="xygrid"
       id="grid13828" />
    <sodipodi:guide
       position="0.13043093,3.8477124"
       orientation="1,0"
       id="guide20533"
       inkscape:locked="false" />
    <sodipodi:guide
       position="1.9173346,3.6129367"
       orientation="0,1"
       id="guide20535"
       inkscape:locked="false" />
  </sodipodi:namedview>
  <metadata
     id="metadata13823">
    <rdf:RDF>
      <cc:Work
         rdf:about="">
        <dc:format>image/svg+xml</dc:format>
        <dc:type
           rdf:resource="http://purl.org/dc/dcmitype/StillImage" />
        <dc:title></dc:title>
      </cc:Work>
    </rdf:RDF>
  </metadata>
  <g
     inkscape:label="Layer 1"
     inkscape:groupmode="layer"
     id="layer1"
     transform="translate(0,-293.25)">
    <path
       inkscape:connector-curvature="0"
       id="path957"
       d="m 0.54519099,293.45734 c -0.19154776,0 -0.34588803,0.15572 -0.34588803,0.34589 v 2.6541 c 0,0.19155 0.15434027,0.34589 0.34588803,0.34589 H 3.1992899 c 0.1901719,0 0.3445121,-0.15434 0.3445121,-0.34589 v -2.6541 c 0,-0.19017 -0.1543402,-0.34589 -0.3445121,-0.34589 z m 0,0"
       style="fill:#ffffff;fill-opacity:1;fill-rule:nonzero;stroke:none;stroke-width:0.35277775" />
    <path
       inkscape:connector-curvature="0"
       id="path959"
       d="M 3.1979141,293.38706 H 0.54519099 c -0.23013459,0 -0.41616842,0.18604 -0.41616842,0.41755 v 2.65272 c 0,0.23013 0.18603383,0.41755 0.41616842,0.41755 H 3.1979141 c 0.2301309,0 0.4175442,-0.18742 0.4175442,-0.41755 v -2.65272 c 0,-0.23151 -0.1874133,-0.41755 -0.4175442,-0.41755"
       style="fill:#211e1e;fill-opacity:1;fill-rule:nonzero;stroke:none;stroke-width:0.35277775" />
    <path
       inkscape:connector-curvature="0"
       id="path961"
       d="m 3.3219365,296.25751 c -0.063391,0 -0.1240224,-0.0138 -0.1777683,-0.0386 -0.055121,-0.0262 -0.1185084,-0.0413 -0.1846543,-0.0413 -0.066146,0 -0.1281607,0.0152 -0.184658,0.0413 -0.053746,0.0248 -0.1143776,0.0386 -0.1791441,0.0386 -0.062015,0 -0.1226467,-0.0138 -0.1777683,-0.0386 -0.056501,-0.0262 -0.1185121,-0.0413 -0.184658,-0.0413 -0.064766,0 -0.1281571,0.0152 -0.184658,0.0413 -0.053742,0.0248 -0.1157534,0.0386 -0.1777647,0.0386 -0.06477,0 -0.1254019,-0.0138 -0.1805234,-0.0386 -0.055122,-0.0262 -0.1185122,-0.0413 -0.1832786,-0.0413 -0.066146,0 -0.1295365,0.0152 -0.184658,0.0413 -0.053742,0.0248 -0.1143776,0.0386 -0.1791441,0.0386 -0.063391,0 -0.1240226,-0.0138 -0.17914414,-0.0386 -0.055122,-0.0262 -0.1185121,-0.0413 -0.1832821,-0.0413 -0.066146,0 -0.12815714,0.0152 -0.18465452,0.0413 -0.0551215,0.0248 -0.11575695,0.0386 -0.1791476,0.0386 v -0.26733 c 0.0633906,0 0.12402608,-0.0152 0.1791476,-0.0386 0.0564974,-0.0262 0.11850862,-0.0413 0.18465452,-0.0413 0.06477,0 0.1281606,0.0152 0.1832821,0.0413 0.055122,0.0234 0.11575354,0.0386 0.17914414,0.0386 0.064766,0 0.1254019,-0.0152 0.1791441,-0.0386 0.055122,-0.0262 0.1185121,-0.0413 0.184658,-0.0413 0.064766,0 0.1281571,0.0152 0.1832786,0.0413 0.055122,0.0234 0.1157534,0.0386 0.1805234,0.0386 0.062011,0 0.1240226,-0.0152 0.1777647,-0.0386 0.056501,-0.0262 0.1198916,-0.0413 0.184658,-0.0413 0.066146,0 0.1281571,0.0152 0.184658,0.0413 0.055122,0.0234 0.1157535,0.0386 0.1777683,0.0386 0.064767,0 0.1253984,-0.0152 0.1791441,-0.0386 0.056497,-0.0262 0.1185122,-0.0413 0.184658,-0.0413 0.066146,0 0.1295329,0.0152 0.1846543,0.0413 0.053746,0.0234 0.1143778,0.0386 0.1777683,0.0386 z m 0,0"
       style="fill:#ffffff;fill-opacity:1;fill-rule:nonzero;stroke:none;stroke-width:0.35277775" />
    <path
       inkscape:connector-curvature="0"
       id="path963"
       d="m 1.9769713,295.1413 -0.2618281,-0.62563 0.2645833,-0.11162 -0.067522,-0.1626 -0.1777683,0.0758 c 0,0 -0.035828,0.0138 -0.088194,0.0358 l -0.1309123,-0.31282 -0.1626094,0.0675 0.1309123,0.3142 c -0.1391814,0.0579 -0.2824974,0.11851 -0.2824974,0.11851 l 0.067525,0.16261 0.2838732,-0.11851 0.2618281,0.62425 c -0.5401909,0.22737 -1.06660244,0.45062 -1.03490534,0.45062 0.066146,0 0.1295365,0.0152 0.184658,0.0413 0.055121,0.0234 0.11575354,0.0386 0.18051994,0.0386 0.062015,0 0.1226467,-0.0152 0.1777683,-0.0386 0.056501,-0.0262 0.1185121,-0.0413 0.184658,-0.0413 0.066146,0 0.1281571,0.0152 0.184658,0.0413 0.053742,0.0234 0.1157534,0.0386 0.1777647,0.0386 0.063391,0 0.1254019,-0.0152 0.179144,-0.0386 0.056501,-0.0262 0.1185122,-0.0413 0.184658,-0.0413 0.06477,0 0.1281571,0.0152 0.1832787,0.0413 0.055122,0.0234 0.1157569,0.0386 0.1805234,0.0386 0.017921,0 0.034466,-0.004 0.052366,-0.005 0.031679,-0.007 0.064766,-0.011 0.095084,-0.0234 0.00141,0 0.00141,0 0.00282,-0.001 0.056501,-0.32108 0.1901718,-0.96601 0.1901718,-0.96601 0,0 -0.4630208,0.19018 -0.9604939,0.39826"
       style="fill:#ffffff;fill-opacity:1;fill-rule:nonzero;stroke:none;stroke-width:0.35277775" />
  </g>
</svg>
