<?xml version="1.0" encoding="UTF-8" standalone="no"?>
<!-- Created with Inkscape (http://www.inkscape.org/) -->

<svg
   xmlns:dc="http://purl.org/dc/elements/1.1/"
   xmlns:cc="http://creativecommons.org/ns#"
   xmlns:rdf="http://www.w3.org/1999/02/22-rdf-syntax-ns#"
   xmlns:svg="http://www.w3.org/2000/svg"
   xmlns="http://www.w3.org/2000/svg"
   xmlns:sodipodi="http://sodipodi.sourceforge.net/DTD/sodipodi-0.dtd"
   xmlns:inkscape="http://www.inkscape.org/namespaces/inkscape"
   width="3.75mm"
   height="3.75mm"
   viewBox="0 0 3.75 3.75"
   version="1.1"
   id="svg13826"
   inkscape:version="0.92.1 r15371"
   sodipodi:docname="statue_dark.svg">
  <defs
     id="defs13820" />
  <sodipodi:namedview
     id="base"
     pagecolor="#ffffff"
     bordercolor="#666666"
     borderopacity="1.0"
     inkscape:pageopacity="0.0"
     inkscape:pageshadow="2"
     inkscape:zoom="28.687777"
     inkscape:cx="6.2597362"
     inkscape:cy="6.238671"
     inkscape:document-units="mm"
     inkscape:current-layer="layer1"
     showgrid="false"
     inkscape:window-width="691"
     inkscape:window-height="712"
     inkscape:window-x="674"
     inkscape:window-y="27"
     inkscape:window-maximized="0"
     showguides="true"
     inkscape:guide-bbox="true"
     gridtolerance="10"
     guidetolerance="2">
    <inkscape:grid
       type="xygrid"
       id="grid13828" />
    <sodipodi:guide
       position="0.13043093,3.8477124"
       orientation="1,0"
       id="guide20533"
       inkscape:locked="false" />
    <sodipodi:guide
       position="1.9173346,3.6129367"
       orientation="0,1"
       id="guide20535"
       inkscape:locked="false" />
  </sodipodi:namedview>
  <metadata
     id="metadata13823">
    <rdf:RDF>
      <cc:Work
         rdf:about="">
        <dc:format>image/svg+xml</dc:format>
        <dc:type
           rdf:resource="http://purl.org/dc/dcmitype/StillImage" />
        <dc:title></dc:title>
      </cc:Work>
    </rdf:RDF>
  </metadata>
  <g
     inkscape:label="Layer 1"
     inkscape:groupmode="layer"
     id="layer1"
     transform="translate(0,-293.25)">
    <path
       inkscape:connector-curvature="0"
       id="path10385"
       d="M 2.4682409,296.62821 H 1.2762401 v -0.19844 h 0.2025721 v -0.60082 h -0.099219 v -0.20258 h 0.2480451 v -0.81993 c -0.1543403,0 -0.1378021,-0.18603 -0.1378021,-0.18603 v -0.38999 c 0,-0.21084 0.2191067,-0.1943 0.2191067,-0.1943 h 0.3265946 c 0,0 0.2191103,-0.0165 0.2191103,0.1943 v 0.38999 c 0,0 0.016545,0.18603 -0.1378056,0.18603 v 0.81993 h 0.2480487 v 0.20258 h -0.099219 v 0.60082 h 0.2025685 z m -0.5953124,-2.99448 c 0.1019774,0 0.1860373,0.0827 0.1860373,0.18604 0,0.10335 -0.08406,0.18603 -0.1860373,0.18603 -0.1033498,0 -0.1874132,-0.0827 -0.1874132,-0.18603 0,-0.10336 0.084063,-0.18604 0.1874132,-0.18604 m 1.3256754,-0.24667 H 0.54588075 c -0.23013459,0 -0.41616842,0.18741 -0.41616842,0.41755 v 2.65272 c 0,0.23013 0.18603383,0.41617 0.41616842,0.41617 H 3.1986039 c 0.2301309,0 0.4161647,-0.18604 0.4161647,-0.41617 v -2.65272 c 0,-0.23014 -0.1860338,-0.41755 -0.4161647,-0.41755"
       style="fill:#211e1e;fill-opacity:1;fill-rule:nonzero;stroke:none;stroke-width:0.35277775" />
  </g>
</svg>
