<?xml version="1.0" encoding="UTF-8" standalone="no"?>
<!-- Created with Inkscape (http://www.inkscape.org/) -->

<svg
   xmlns:dc="http://purl.org/dc/elements/1.1/"
   xmlns:cc="http://creativecommons.org/ns#"
   xmlns:rdf="http://www.w3.org/1999/02/22-rdf-syntax-ns#"
   xmlns:svg="http://www.w3.org/2000/svg"
   xmlns="http://www.w3.org/2000/svg"
   xmlns:sodipodi="http://sodipodi.sourceforge.net/DTD/sodipodi-0.dtd"
   xmlns:inkscape="http://www.inkscape.org/namespaces/inkscape"
   width="3.75mm"
   height="3.75mm"
   viewBox="0 0 3.75 3.75"
   version="1.1"
   id="svg13826"
   inkscape:version="0.92.1 r15371"
   sodipodi:docname="trailhead_dark.svg">
  <defs
     id="defs13820" />
  <sodipodi:namedview
     id="base"
     pagecolor="#ffffff"
     bordercolor="#666666"
     borderopacity="1.0"
     inkscape:pageopacity="0.0"
     inkscape:pageshadow="2"
     inkscape:zoom="28.687777"
     inkscape:cx="6.2597362"
     inkscape:cy="6.238671"
     inkscape:document-units="mm"
     inkscape:current-layer="layer1"
     showgrid="false"
     inkscape:window-width="691"
     inkscape:window-height="712"
     inkscape:window-x="674"
     inkscape:window-y="27"
     inkscape:window-maximized="0"
     showguides="true"
     inkscape:guide-bbox="true"
     gridtolerance="10"
     guidetolerance="2">
    <inkscape:grid
       type="xygrid"
       id="grid13828" />
    <sodipodi:guide
       position="0.13043093,3.8477124"
       orientation="1,0"
       id="guide20533"
       inkscape:locked="false" />
    <sodipodi:guide
       position="1.9173346,3.6129367"
       orientation="0,1"
       id="guide20535"
       inkscape:locked="false" />
  </sodipodi:namedview>
  <metadata
     id="metadata13823">
    <rdf:RDF>
      <cc:Work
         rdf:about="">
        <dc:format>image/svg+xml</dc:format>
        <dc:type
           rdf:resource="http://purl.org/dc/dcmitype/StillImage" />
        <dc:title></dc:title>
      </cc:Work>
    </rdf:RDF>
  </metadata>
  <g
     inkscape:label="Layer 1"
     inkscape:groupmode="layer"
     id="layer1"
     transform="translate(0,-293.25)">
    <path
       inkscape:connector-curvature="0"
       id="path12827"
       d="m 0.54519099,293.45482 c -0.19154776,0 -0.34588803,0.15572 -0.34588803,0.34589 v 2.6541 c 0,0.19017 0.15434027,0.34589 0.34588803,0.34589 H 3.1992898 c 0.1901719,0 0.3445121,-0.15572 0.3445121,-0.34589 v -2.6541 c 0,-0.19017 -0.1543402,-0.34589 -0.3445121,-0.34589 z m 0,0"
       style="fill:#ffffff;fill-opacity:1;fill-rule:nonzero;stroke:none;stroke-width:0.35277775" />
    <path
       inkscape:connector-curvature="0"
       id="path12829"
       d="m 3.197914,296.87098 c 0.2301309,0 0.4175442,-0.18604 0.4175442,-0.41617 v -2.6541 c 0,-0.23013 -0.1874133,-0.41617 -0.4175442,-0.41617 H 0.54519099 c -0.23013459,0 -0.41616842,0.18604 -0.41616842,0.41617 v 2.6541 c 0,0.23013 0.18603383,0.41617 0.41616842,0.41617 z m 0,0"
       style="fill:#211e1e;fill-opacity:1;fill-rule:nonzero;stroke:none;stroke-width:0.35277775" />
    <path
       inkscape:connector-curvature="0"
       id="path12831"
       d="m 1.9108254,294.11077 c 0.1281571,0 0.2328898,-0.10473 0.2328898,-0.23289 0,-0.12954 -0.1047327,-0.23289 -0.2328898,-0.23289 -0.1281571,0 -0.2328898,0.10335 -0.2328898,0.23289 0,0.12816 0.1047327,0.23289 0.2328898,0.23289"
       style="fill:#ffffff;fill-opacity:1;fill-rule:nonzero;stroke:none;stroke-width:0.35277775" />
    <path
       inkscape:connector-curvature="0"
       id="path12833"
       d="m 1.5167056,294.14935 c 0.00825,-0.0358 -0.013794,-0.0717 -0.049608,-0.0799 l -0.1929271,-0.0469 c -0.037208,-0.008 -0.073036,0.0124 -0.081305,0.0482 l -0.1639852,0.67661 c -0.00825,0.0358 0.013794,0.0717 0.049608,0.0799 l 0.1956823,0.0469 c 0.034466,0.01 0.07166,-0.0124 0.078549,-0.0482 z m 0,0"
       style="fill:#ffffff;fill-opacity:1;fill-rule:nonzero;stroke:none;stroke-width:0.35277775" />
    <path
       inkscape:connector-curvature="0"
       id="path12835"
       d="m 2.4138089,296.55403 c 0,10e-4 -0.00141,0.003 -0.00141,0.003 0,0.0303 0.0248,0.0538 0.053746,0.0538 0.027552,0 0.049608,-0.0207 0.053742,-0.0469 l 0.3913636,-2.12218 v -0.004 c 0,-0.0289 -0.023424,-0.0537 -0.053746,-0.0537 -0.026175,0 -0.046852,0.0207 -0.052363,0.0469 z m 0,0"
       style="fill:#ffffff;fill-opacity:1;fill-rule:nonzero;stroke:none;stroke-width:0.35277775" />
    <path
       inkscape:connector-curvature="0"
       id="path12837"
       d="m 1.1115615,296.41485 c -0.00282,0.011 -0.00282,0.0221 -0.00282,0.0331 0,0.091 0.073036,0.16399 0.1639887,0.16399 0.074411,0 0.1378021,-0.0496 0.1570955,-0.11713 l 0.281118,-1.1672 0.2700973,1.16031 c 0.016545,0.0716 0.081305,0.12402 0.1570954,0.12402 0.092329,0 0.1653646,-0.073 0.1653646,-0.16399 0,-0.0124 -0.00141,-0.0248 -0.00413,-0.0358 l -0.3693124,-1.54065 0.031679,-0.13643 0.023424,0.10749 c 0.023424,0.0689 0.086815,0.0758 0.086815,0.0758 l 0.3789609,0.0965 c 0.00688,10e-4 0.015169,0.003 0.022049,0.003 0.062011,0 0.1129982,-0.0496 0.1129982,-0.11163 0,-0.0537 -0.037208,-0.0978 -0.086815,-0.11024 l -0.3279739,-0.0827 -0.089574,-0.36656 c -0.042718,-0.20395 -0.239776,-0.19981 -0.239776,-0.19981 -0.190172,-0.004 -0.2370244,0.19568 -0.2370244,0.19568 z m 0,0"
       style="fill:#ffffff;fill-opacity:1;fill-rule:nonzero;stroke:none;stroke-width:0.35277775" />
  </g>
</svg>
