<?xml version="1.0" encoding="UTF-8" standalone="no"?>
<!-- Created with Inkscape (http://www.inkscape.org/) -->

<svg
   xmlns:dc="http://purl.org/dc/elements/1.1/"
   xmlns:cc="http://creativecommons.org/ns#"
   xmlns:rdf="http://www.w3.org/1999/02/22-rdf-syntax-ns#"
   xmlns:svg="http://www.w3.org/2000/svg"
   xmlns="http://www.w3.org/2000/svg"
   xmlns:sodipodi="http://sodipodi.sourceforge.net/DTD/sodipodi-0.dtd"
   xmlns:inkscape="http://www.inkscape.org/namespaces/inkscape"
   width="3.75mm"
   height="3.75mm"
   viewBox="0 0 3.75 3.75"
   version="1.1"
   id="svg13826"
   inkscape:version="0.92.1 r15371"
   sodipodi:docname="waterfall_dark.svg">
  <defs
     id="defs13820" />
  <sodipodi:namedview
     id="base"
     pagecolor="#ffffff"
     bordercolor="#666666"
     borderopacity="1.0"
     inkscape:pageopacity="0.0"
     inkscape:pageshadow="2"
     inkscape:zoom="28.687777"
     inkscape:cx="6.2597362"
     inkscape:cy="6.238671"
     inkscape:document-units="mm"
     inkscape:current-layer="layer1"
     showgrid="false"
     inkscape:window-width="691"
     inkscape:window-height="712"
     inkscape:window-x="674"
     inkscape:window-y="27"
     inkscape:window-maximized="0"
     showguides="true"
     inkscape:guide-bbox="true"
     gridtolerance="10"
     guidetolerance="2">
    <inkscape:grid
       type="xygrid"
       id="grid13828" />
    <sodipodi:guide
       position="0.13043093,3.8477124"
       orientation="1,0"
       id="guide20533"
       inkscape:locked="false" />
    <sodipodi:guide
       position="1.9173346,3.6129367"
       orientation="0,1"
       id="guide20535"
       inkscape:locked="false" />
  </sodipodi:namedview>
  <metadata
     id="metadata13823">
    <rdf:RDF>
      <cc:Work
         rdf:about="">
        <dc:format>image/svg+xml</dc:format>
        <dc:type
           rdf:resource="http://purl.org/dc/dcmitype/StillImage" />
        <dc:title></dc:title>
      </cc:Work>
    </rdf:RDF>
  </metadata>
  <g
     inkscape:label="Layer 1"
     inkscape:groupmode="layer"
     id="layer1"
     transform="translate(0,-293.25)">
    <path
       inkscape:connector-curvature="0"
       id="path9455"
       d="m 0.545191,293.45482 c -0.19017193,0 -0.34588803,0.15572 -0.34588803,0.34589 v 2.6541 c 0,0.19017 0.1557161,0.34589 0.34588803,0.34589 h 2.6540988 c 0.1901719,0 0.3445121,-0.15572 0.3445121,-0.34589 v -2.6541 c 0,-0.19017 -0.1543402,-0.34589 -0.3445121,-0.34589 z m 0,0"
       style="fill:#ffffff;fill-opacity:1;fill-rule:nonzero;stroke:none;stroke-width:0.35277775" />
    <path
       inkscape:connector-curvature="0"
       id="path9457"
       d="m 3.197914,296.87098 c 0.2301309,0 0.4175442,-0.18604 0.4175442,-0.41617 v -2.6541 c 0,-0.23013 -0.1874133,-0.41617 -0.4175442,-0.41617 H 0.545191 c -0.23013459,0 -0.41616842,0.18604 -0.41616842,0.41617 v 2.6541 c 0,0.23013 0.18603383,0.41617 0.41616842,0.41617 z m 0,0"
       style="fill:#211e1e;fill-opacity:1;fill-rule:nonzero;stroke:none;stroke-width:0.35277775" />
    <path
       inkscape:connector-curvature="0"
       id="path9459"
       d="m 1.1336101,294.15487 c 0.1639888,0.16398 0.2439141,0.51814 0.2439141,1.08313 0,0.008 0,0.19017 0.015169,0.38447 0.011007,0.12265 0.0248,0.21498 0.042718,0.28526 0.031715,-0.008 0.06477,-0.0124 0.097843,-0.0124 0.027552,0 0.055122,0.003 0.08268,0.008 -0.037207,-0.12265 -0.06339,-0.39412 -0.062011,-0.66422 0,-0.5705 -0.07855,-0.93982 -0.2466693,-1.15341 0.048232,0.0207 0.093708,0.0469 0.1350468,0.0827 0.07028,0.0606 0.2880113,0.24391 0.31006,1.07349 0.011007,0.39136 0.049611,0.60772 0.093708,0.73036 0.016545,0.001 0.033055,0.003 0.050987,0.003 0.045473,0 0.08957,-0.007 0.1309123,-0.0207 -0.038583,-0.0758 -0.086815,-0.30041 -0.099219,-0.71796 -0.016545,-0.5898 -0.1295364,-0.93017 -0.2976562,-1.12724 0.2990356,0.12816 0.4740451,0.42995 0.4974731,1.13275 0.00826,0.2825 0.035828,0.50161 0.081305,0.65595 0.016545,-0.001 0.033055,-0.003 0.050987,-0.003 0.049608,0 0.097839,0.01 0.143316,0.0248 -0.039963,-0.0978 -0.086819,-0.30178 -0.1005981,-0.6835 -0.017921,-0.55948 -0.1364262,-0.89573 -0.3252152,-1.09692 0.038583,0.0179 0.075791,0.0372 0.1116188,0.062 0.2604488,0.17501 0.3927405,0.50574 0.4134133,1.04042 0.00826,0.2384 0.031679,0.53468 0.1143776,0.73312 0.00141,0 0.00413,0 0.0055,0 0.060636,0 0.119888,-0.0124 0.1722543,-0.0358 -0.045473,-0.0909 -0.1005945,-0.28663 -0.1171328,-0.70418 -0.019297,-0.52779 -0.1460711,-0.85576 -0.3445086,-1.06109 0.026176,0.0124 0.052366,0.0262 0.078546,0.0427 0.2935253,0.17915 0.4423516,0.50574 0.4657797,1.02664 0.012382,0.29214 0.039963,0.50298 0.086815,0.65319 0.00688,0 0.013793,-0.001 0.020672,-0.001 0.066146,0 0.1281608,0.0152 0.1832822,0.04 -0.052366,-0.10197 -0.096463,-0.29903 -0.1143767,-0.70004 -0.026176,-0.57602 -0.2067068,-0.95911 -0.5498395,-1.16858 -0.3238394,-0.19843 -0.7661875,-0.226 -1.1961354,-0.226 H 0.53003918 v 0.11438 h 0.0702804 c 0.21497219,0 0.39963017,0.0675 0.53329762,0.19982"
       style="fill:#ffffff;fill-opacity:1;fill-rule:nonzero;stroke:none;stroke-width:0.35277775" />
    <path
       inkscape:connector-curvature="0"
       id="path9461"
       d="m 3.3494954,296.37351 c -0.063387,0 -0.1240224,-0.0152 -0.1791441,-0.0386 -0.055121,-0.0262 -0.1185122,-0.0413 -0.1832785,-0.0413 -0.066146,0 -0.1295365,0.0152 -0.184658,0.0413 -0.055122,0.0234 -0.1157535,0.0386 -0.1791441,0.0386 -0.063391,0 -0.1240226,-0.0152 -0.1791441,-0.0386 -0.056501,-0.0262 -0.1185122,-0.0413 -0.184658,-0.0413 -0.064766,0 -0.1281571,0.0152 -0.1832786,0.0413 -0.055122,0.0234 -0.115757,0.0386 -0.1791441,0.0386 -0.063391,0 -0.1254019,-0.0152 -0.1791476,-0.0386 -0.056497,-0.0262 -0.1185086,-0.0413 -0.1846545,-0.0413 -0.066146,0 -0.1281571,0.0152 -0.184658,0.0413 -0.053742,0.0234 -0.1143776,0.0386 -0.1777682,0.0386 -0.063387,0 -0.1254019,-0.0152 -0.18052335,-0.0386 -0.055121,-0.0262 -0.11850865,-0.0413 -0.18327865,-0.0413 -0.0661458,0 -0.12815713,0.0152 -0.18465448,0.0413 -0.0537457,0.0234 -0.11575696,0.0386 -0.17776825,0.0386 v -0.26872 c 0.0620113,0 0.12402256,-0.0138 0.17776825,-0.0386 0.0564974,-0.0248 0.11850865,-0.0413 0.18465448,-0.0413 0.06477,0 0.12815705,0.0166 0.18327865,0.0413 0.0551219,0.0248 0.11713625,0.0386 0.18052335,0.0386 0.063391,0 0.1240261,-0.0138 0.1777682,-0.0386 0.056501,-0.0248 0.1185122,-0.0413 0.184658,-0.0413 0.066146,0 0.1281571,0.0166 0.1846545,0.0413 0.053746,0.0248 0.115757,0.0386 0.1791476,0.0386 0.063387,0 0.1240225,-0.0138 0.1791441,-0.0386 0.055122,-0.0248 0.1185121,-0.0413 0.1832786,-0.0413 0.066146,0 0.1281571,0.0166 0.184658,0.0413 0.055121,0.0248 0.1157534,0.0386 0.1791441,0.0386 0.063391,0 0.1240225,-0.0138 0.1791441,-0.0386 0.055121,-0.0248 0.1185122,-0.0413 0.184658,-0.0413 0.064766,0 0.1281571,0.0166 0.1832785,0.0413 0.055122,0.0248 0.1157571,0.0386 0.1791441,0.0386 z m 0,0"
       style="fill:#ffffff;fill-opacity:1;fill-rule:nonzero;stroke:none;stroke-width:0.35277775" />
  </g>
</svg>
