<?xml version="1.0" encoding="UTF-8" standalone="no"?>
<!-- Created with Inkscape (http://www.inkscape.org/) -->

<svg
   xmlns:dc="http://purl.org/dc/elements/1.1/"
   xmlns:cc="http://creativecommons.org/ns#"
   xmlns:rdf="http://www.w3.org/1999/02/22-rdf-syntax-ns#"
   xmlns:svg="http://www.w3.org/2000/svg"
   xmlns="http://www.w3.org/2000/svg"
   xmlns:sodipodi="http://sodipodi.sourceforge.net/DTD/sodipodi-0.dtd"
   xmlns:inkscape="http://www.inkscape.org/namespaces/inkscape"
   width="3.75mm"
   height="3.75mm"
   viewBox="0 0 3.75 3.75"
   version="1.1"
   id="svg13826"
   inkscape:version="0.92.1 r15371"
   sodipodi:docname="wilderness_dark.svg">
  <defs
     id="defs13820" />
  <sodipodi:namedview
     id="base"
     pagecolor="#ffffff"
     bordercolor="#666666"
     borderopacity="1.0"
     inkscape:pageopacity="0.0"
     inkscape:pageshadow="2"
     inkscape:zoom="28.687777"
     inkscape:cx="6.2597362"
     inkscape:cy="6.238671"
     inkscape:document-units="mm"
     inkscape:current-layer="layer1"
     showgrid="false"
     inkscape:window-width="691"
     inkscape:window-height="712"
     inkscape:window-x="674"
     inkscape:window-y="27"
     inkscape:window-maximized="0"
     showguides="true"
     inkscape:guide-bbox="true"
     gridtolerance="10"
     guidetolerance="2">
    <inkscape:grid
       type="xygrid"
       id="grid13828" />
    <sodipodi:guide
       position="0.13043093,3.8477124"
       orientation="1,0"
       id="guide20533"
       inkscape:locked="false" />
    <sodipodi:guide
       position="1.9173346,3.6129367"
       orientation="0,1"
       id="guide20535"
       inkscape:locked="false" />
  </sodipodi:namedview>
  <metadata
     id="metadata13823">
    <rdf:RDF>
      <cc:Work
         rdf:about="">
        <dc:format>image/svg+xml</dc:format>
        <dc:type
           rdf:resource="http://purl.org/dc/dcmitype/StillImage" />
        <dc:title></dc:title>
      </cc:Work>
    </rdf:RDF>
  </metadata>
  <g
     inkscape:label="Layer 1"
     inkscape:groupmode="layer"
     id="layer1"
     transform="translate(0,-293.25)">
    <path
       inkscape:connector-curvature="0"
       id="path9487"
       d="m 0.52674528,293.4456 c -0.19017193,0 -0.34588803,0.15434 -0.34588803,0.34589 v 2.6541 c 0,0.19017 0.1557161,0.34451 0.34588803,0.34451 H 3.1808442 c 0.1901719,0 0.3445121,-0.15434 0.3445121,-0.34451 v -2.6541 c 0,-0.19155 -0.1543402,-0.34589 -0.3445121,-0.34589 z m 0,0"
       style="fill:#ffffff;fill-opacity:1;fill-rule:nonzero;stroke:none;stroke-width:0.35277775" />
    <path
       inkscape:connector-curvature="0"
       id="path9489"
       d="m 3.1794684,296.86176 c 0.2301309,0 0.4175442,-0.18604 0.4175442,-0.41617 v -2.6541 c 0,-0.23013 -0.1874133,-0.41617 -0.4175442,-0.41617 H 0.52674528 c -0.23013459,0 -0.41616842,0.18604 -0.41616842,0.41617 v 2.6541 c 0,0.23013 0.18603383,0.41617 0.41616842,0.41617 z m 0,0"
       style="fill:#211e1e;fill-opacity:1;fill-rule:nonzero;stroke:none;stroke-width:0.35277775" />
    <path
       inkscape:connector-curvature="0"
       id="path9491"
       d="m 2.7247131,296.06663 -0.3210807,-0.3831 h 0.2384002 l -0.2824974,-0.3445 h 0.1984375 l -0.2618282,-0.3266 h 0.1791441 l -0.2549348,-0.32797 h 0.1708749 l -0.2452899,-0.3266 h 0.16123 l -0.4533758,-0.63665 -0.4547518,0.63665 h 0.1626094 l -0.2452899,0.3266 h 0.170875 l -0.2549348,0.32797 h 0.1777647 l -0.2618282,0.3266 h 0.1984375 l -0.281118,0.3445 h 0.2370208 l -0.32108074,0.3831 0.79512584,-0.062 v 0.55121 h 0.1529645 v -0.55121 z m 0,0"
       style="fill:#ffffff;fill-opacity:1;fill-rule:nonzero;stroke:none;stroke-width:0.35277775" />
  </g>
</svg>
