<?xml version="1.0" encoding="UTF-8" standalone="no"?>
<!-- Created with Inkscape (http://www.inkscape.org/) -->

<svg
   xmlns:dc="http://purl.org/dc/elements/1.1/"
   xmlns:cc="http://creativecommons.org/ns#"
   xmlns:rdf="http://www.w3.org/1999/02/22-rdf-syntax-ns#"
   xmlns:svg="http://www.w3.org/2000/svg"
   xmlns="http://www.w3.org/2000/svg"
   xmlns:sodipodi="http://sodipodi.sourceforge.net/DTD/sodipodi-0.dtd"
   xmlns:inkscape="http://www.inkscape.org/namespaces/inkscape"
   width="3.75mm"
   height="3.75mm"
   viewBox="0 0 3.75 3.75"
   version="1.1"
   id="svg13826"
   inkscape:version="0.92.1 r15371"
   sodipodi:docname="wilderness_light.svg">
  <defs
     id="defs13820" />
  <sodipodi:namedview
     id="base"
     pagecolor="#ffffff"
     bordercolor="#666666"
     borderopacity="1.0"
     inkscape:pageopacity="0.0"
     inkscape:pageshadow="2"
     inkscape:zoom="28.687777"
     inkscape:cx="6.2597362"
     inkscape:cy="6.238671"
     inkscape:document-units="mm"
     inkscape:current-layer="layer1"
     showgrid="false"
     inkscape:window-width="691"
     inkscape:window-height="712"
     inkscape:window-x="674"
     inkscape:window-y="27"
     inkscape:window-maximized="0"
     showguides="true"
     inkscape:guide-bbox="true"
     gridtolerance="10"
     guidetolerance="2">
    <inkscape:grid
       type="xygrid"
       id="grid13828" />
    <sodipodi:guide
       position="0.13043093,3.8477124"
       orientation="1,0"
       id="guide20533"
       inkscape:locked="false" />
    <sodipodi:guide
       position="1.9173346,3.6129367"
       orientation="0,1"
       id="guide20535"
       inkscape:locked="false" />
  </sodipodi:namedview>
  <metadata
     id="metadata13823">
    <rdf:RDF>
      <cc:Work
         rdf:about="">
        <dc:format>image/svg+xml</dc:format>
        <dc:type
           rdf:resource="http://purl.org/dc/dcmitype/StillImage" />
        <dc:title></dc:title>
      </cc:Work>
    </rdf:RDF>
  </metadata>
  <g
     inkscape:label="Layer 1"
     inkscape:groupmode="layer"
     id="layer1"
     transform="translate(0,-293.25)">
    <path
       inkscape:connector-curvature="0"
       id="path9493"
       d="m 0.5260539,296.83547 c -0.23013106,0 -0.41754425,-0.18603 -0.41754425,-0.41754 v -2.65411 c 0,-0.23013 0.18741319,-0.41754 0.41754425,-0.41754 h 2.6554816 c 0.2301311,0 0.4175442,0.18741 0.4175442,0.41754 v 2.65411 c 0,0.23151 -0.1874131,0.41754 -0.4175442,0.41754 z m 0,0"
       style="fill:#211e1e;fill-opacity:1;fill-rule:nonzero;stroke:none;stroke-width:0.35277775" />
    <path
       inkscape:connector-curvature="0"
       id="path9495"
       d="m 0.5260539,293.41794 c -0.1901684,0 -0.34588803,0.15434 -0.34588803,0.34588 v 2.65411 c 0,0.19154 0.15571963,0.34726 0.34588803,0.34726 h 2.6554816 c 0.1901685,0 0.347264,-0.15572 0.347264,-0.34726 v -2.65411 c 0,-0.19154 -0.1570955,-0.34588 -0.347264,-0.34588 z m 0,0"
       style="fill:#ffffff;fill-opacity:1;fill-rule:nonzero;stroke:none;stroke-width:0.35277775" />
    <path
       inkscape:connector-curvature="0"
       id="path9497"
       d="m 2.7254045,296.01967 -0.3210842,-0.38309 h 0.2384002 l -0.2824974,-0.34451 h 0.1984375 l -0.2618282,-0.3266 H 2.47598 L 2.2210416,294.6375 h 0.170875 l -0.2452899,-0.3266 h 0.16123 l -0.4533723,-0.63803 -0.4547552,0.63803 h 0.1626093 l -0.2452899,0.3266 h 0.170875 l -0.2549349,0.32797 h 0.1791441 l -0.2618281,0.3266 h 0.1970616 l -0.2811215,0.34451 h 0.2370243 l -0.32108414,0.38309 0.79650514,-0.062 v 0.55122 h 0.1515851 v -0.55122 z m 0,0"
       style="fill:#211e1e;fill-opacity:1;fill-rule:nonzero;stroke:none;stroke-width:0.35277775" />
  </g>
</svg>
