<?xml version="1.0" encoding="UTF-8" standalone="no"?>
<!-- Created with Inkscape (http://www.inkscape.org/) -->

<svg
   xmlns:dc="http://purl.org/dc/elements/1.1/"
   xmlns:cc="http://creativecommons.org/ns#"
   xmlns:rdf="http://www.w3.org/1999/02/22-rdf-syntax-ns#"
   xmlns:svg="http://www.w3.org/2000/svg"
   xmlns="http://www.w3.org/2000/svg"
   xmlns:sodipodi="http://sodipodi.sourceforge.net/DTD/sodipodi-0.dtd"
   xmlns:inkscape="http://www.inkscape.org/namespaces/inkscape"
   width="3.75mm"
   height="3.75mm"
   viewBox="0 0 3.75 3.75"
   version="1.1"
   id="svg13826"
   inkscape:version="0.92.1 r15371"
   sodipodi:docname="mobile_device_charging_dark.svg">
  <defs
     id="defs13820" />
  <sodipodi:namedview
     id="base"
     pagecolor="#ffffff"
     bordercolor="#666666"
     borderopacity="1.0"
     inkscape:pageopacity="0.0"
     inkscape:pageshadow="2"
     inkscape:zoom="20.285322"
     inkscape:cx="7.2558826"
     inkscape:cy="7.2894483"
     inkscape:document-units="mm"
     inkscape:current-layer="layer1"
     showgrid="false"
     inkscape:window-width="561"
     inkscape:window-height="558"
     inkscape:window-x="720"
     inkscape:window-y="146"
     inkscape:window-maximized="0"
     showguides="true"
     inkscape:guide-bbox="true"
     gridtolerance="10"
     guidetolerance="2">
    <inkscape:grid
       type="xygrid"
       id="grid13828" />
    <sodipodi:guide
       position="0.13043093,3.8477124"
       orientation="1,0"
       id="guide20533"
       inkscape:locked="false" />
    <sodipodi:guide
       position="1.9173346,3.6129367"
       orientation="0,1"
       id="guide20535"
       inkscape:locked="false" />
  </sodipodi:namedview>
  <metadata
     id="metadata13823">
    <rdf:RDF>
      <cc:Work
         rdf:about="">
        <dc:format>image/svg+xml</dc:format>
        <dc:type
           rdf:resource="http://purl.org/dc/dcmitype/StillImage" />
        <dc:title></dc:title>
      </cc:Work>
    </rdf:RDF>
  </metadata>
  <g
     inkscape:label="Layer 1"
     inkscape:groupmode="layer"
     id="layer1"
     transform="translate(0,-293.25)">
    <path
       inkscape:connector-curvature="0"
       id="path9839"
       d="m 0.55115418,293.4619 c -0.1901684,0 -0.3458881,0.15572 -0.3458881,0.34589 v 2.6541 c 0,0.19017 0.1557197,0.34451 0.3458881,0.34451 H 3.2052566 c 0.1901684,0 0.3458879,-0.15434 0.3458879,-0.34451 v -2.6541 c 0,-0.19017 -0.1557195,-0.34589 -0.3458879,-0.34589 z m 0,0"
       style="fill:#ffffff;fill-opacity:1;fill-rule:nonzero;stroke:none;stroke-width:0.35277775" />
    <path
       inkscape:connector-curvature="0"
       id="path9841"
       d="m 3.2052566,296.87806 c 0.2301311,0 0.4161684,-0.18604 0.4161684,-0.41617 v -2.6541 c 0,-0.23013 -0.1860373,-0.41617 -0.4161684,-0.41617 H 0.55115418 c -0.2301311,0 -0.4161684,0.18604 -0.4161684,0.41617 v 2.6541 c 0,0.23013 0.1860373,0.41617 0.4161684,0.41617 z m 0,0"
       style="fill:#211e1e;fill-opacity:1;fill-rule:nonzero;stroke:none;stroke-width:0.35277775" />
    <path
       inkscape:connector-curvature="0"
       id="path9843"
       d="m 2.0091177,294.92813 v -0.56499 c 0,-0.0276 0.023424,-0.051 0.05099,-0.051 h 0.719335 c 0.028928,0 0.050987,0.0234 0.050987,0.051 v 0.56499 c 0,0.0276 -0.022048,0.051 -0.050987,0.051 h -0.719335 c -0.027552,0 -0.05099,-0.0234 -0.05099,-0.051 m 0.00141,0.59532 v -0.10887 c 0,-0.0276 0.022049,-0.0496 0.049611,-0.0496 h 0.1088641 c 0.027552,0 0.049608,0.0221 0.049608,0.0496 v 0.10887 c 0,0.0276 -0.022048,0.0496 -0.049608,0.0496 H 2.06014 c -0.027552,0 -0.049611,-0.022 -0.049611,-0.0496 m 0,0.30179 v -0.10749 c 0,-0.0276 0.022049,-0.051 0.049611,-0.051 h 0.1088636 c 0.027552,0 0.049608,0.0234 0.049608,0.051 v 0.10749 c 0,0.0276 -0.022048,0.051 -0.049608,0.051 H 2.06014 c -0.027552,0 -0.049611,-0.0234 -0.049611,-0.051 m 0,0.30179 v -0.10749 c 0,-0.0276 0.022049,-0.0496 0.049611,-0.0496 h 0.1088636 c 0.027552,0 0.049608,0.0221 0.049608,0.0496 v 0.10749 c 0,0.0289 -0.022048,0.051 -0.049608,0.051 H 2.06014 c -0.027552,0 -0.049611,-0.022 -0.049611,-0.051 m 0.3059254,-0.71107 c 0,-0.0289 0.022048,-0.051 0.049608,-0.051 h 0.1088672 c 0.027552,0 0.049608,0.0221 0.049608,0.0496 v 0.10887 c 0,0.0276 -0.022048,0.0496 -0.049608,0.0496 H 2.3660618 c -0.027552,0 -0.049608,-0.022 -0.049608,-0.0496 z m 0,0.30179 c 0,-0.0276 0.022048,-0.051 0.049608,-0.051 h 0.1088672 c 0.027552,0 0.049608,0.0234 0.049608,0.051 v 0.10749 c 0,0.0276 -0.022048,0.051 -0.049608,0.051 H 2.3660618 c -0.027552,0 -0.049608,-0.0234 -0.049608,-0.051 z m 0,0.30179 c 0,-0.0276 0.022048,-0.0496 0.049608,-0.0496 h 0.1088672 c 0.027552,0 0.049608,0.0221 0.049608,0.0496 v 0.10749 c 0,0.0276 -0.022048,0.051 -0.049608,0.051 H 2.3660618 c -0.027552,0 -0.049608,-0.022 -0.049608,-0.051 z m 0.3059253,-0.60496 c 0,-0.0276 0.022048,-0.0496 0.049608,-0.0496 h 0.1088638 c 0.027552,0 0.049611,0.0221 0.049611,0.0496 v 0.10887 c 0,0.0276 -0.022048,0.0496 -0.049611,0.0496 H 2.6719871 c -0.027552,0 -0.049608,-0.022 -0.049608,-0.0496 z m 0,0.30317 c 0,-0.0276 0.022048,-0.051 0.049608,-0.051 h 0.1088638 c 0.027552,0 0.049611,0.0234 0.049611,0.051 v 0.10749 c 0,0.0276 -0.022048,0.051 -0.049611,0.051 H 2.6719871 c -0.027552,0 -0.049608,-0.0234 -0.049608,-0.051 z m 0,0.30179 c 0,-0.0276 0.022048,-0.0496 0.049608,-0.0496 h 0.1088638 c 0.027552,0 0.049611,0.0221 0.049611,0.0496 v 0.10749 c 0,0.0289 -0.022048,0.051 -0.049611,0.051 H 2.6719871 c -0.027552,0 -0.049608,-0.022 -0.049608,-0.051 z m 0.2411553,-2.24069 v 0.29628 H 1.9126894 c -0.092329,0 -0.1653646,0.0717 -0.1653646,0.16123 v 2.09186 c 0,0.0896 0.073036,0.16123 0.1653646,0.16123 h 0.9770285 c 0.092329,0 0.1653646,-0.0717 0.1653646,-0.16123 v -2.54937 z m 0,0"
       style="fill:#ffffff;fill-opacity:1;fill-rule:evenodd;stroke:none;stroke-width:0.35277775" />
    <path
       inkscape:connector-curvature="0"
       id="path9845"
       d="m 1.4206985,295.21752 -0.73311812,0.97703 0.2246206,-0.70418 h -0.3004114 l 0.45061712,-0.97703 h 0.3582918 l -0.3141945,0.70418 z m 0,0"
       style="fill:#ffffff;fill-opacity:1;fill-rule:nonzero;stroke:none;stroke-width:0.35277775" />
  </g>
</svg>
