<?xml version="1.0" encoding="UTF-8" standalone="no"?>
<!-- Created with Inkscape (http://www.inkscape.org/) -->

<svg
   xmlns:dc="http://purl.org/dc/elements/1.1/"
   xmlns:cc="http://creativecommons.org/ns#"
   xmlns:rdf="http://www.w3.org/1999/02/22-rdf-syntax-ns#"
   xmlns:svg="http://www.w3.org/2000/svg"
   xmlns="http://www.w3.org/2000/svg"
   xmlns:sodipodi="http://sodipodi.sourceforge.net/DTD/sodipodi-0.dtd"
   xmlns:inkscape="http://www.inkscape.org/namespaces/inkscape"
   width="3.75mm"
   height="3.75mm"
   viewBox="0 0 3.75 3.75"
   version="1.1"
   id="svg13826"
   inkscape:version="0.92.1 r15371"
   sodipodi:docname="no_mobile_device_dark.svg">
  <defs
     id="defs13820" />
  <sodipodi:namedview
     id="base"
     pagecolor="#ffffff"
     bordercolor="#666666"
     borderopacity="1.0"
     inkscape:pageopacity="0.0"
     inkscape:pageshadow="2"
     inkscape:zoom="20.285322"
     inkscape:cx="7.2558826"
     inkscape:cy="7.2894483"
     inkscape:document-units="mm"
     inkscape:current-layer="layer1"
     showgrid="false"
     inkscape:window-width="561"
     inkscape:window-height="558"
     inkscape:window-x="720"
     inkscape:window-y="146"
     inkscape:window-maximized="0"
     showguides="true"
     inkscape:guide-bbox="true"
     gridtolerance="10"
     guidetolerance="2">
    <inkscape:grid
       type="xygrid"
       id="grid13828" />
    <sodipodi:guide
       position="0.13043093,3.8477124"
       orientation="1,0"
       id="guide20533"
       inkscape:locked="false" />
    <sodipodi:guide
       position="1.9173346,3.6129367"
       orientation="0,1"
       id="guide20535"
       inkscape:locked="false" />
  </sodipodi:namedview>
  <metadata
     id="metadata13823">
    <rdf:RDF>
      <cc:Work
         rdf:about="">
        <dc:format>image/svg+xml</dc:format>
        <dc:type
           rdf:resource="http://purl.org/dc/dcmitype/StillImage" />
        <dc:title></dc:title>
      </cc:Work>
    </rdf:RDF>
  </metadata>
  <g
     inkscape:label="Layer 1"
     inkscape:groupmode="layer"
     id="layer1"
     transform="translate(0,-293.25)">
    <path
       inkscape:connector-curvature="0"
       id="path9067"
       d="m 0.53811106,293.45734 c -0.0950842,0 -0.18189929,0.0386 -0.24391056,0.1006 -0.0633906,0.0634 -0.10197747,0.1502 -0.10197747,0.24529 v 2.6541 c 0,0.0937 0.0385868,0.18052 0.10197747,0.24253 0.0620113,0.0634 0.14882634,0.10198 0.24391056,0.10198 H 3.1922135 c 0.095084,0 0.1818992,-0.0386 0.2439141,-0.10198 0.063387,-0.062 0.1019738,-0.14883 0.1019738,-0.24253 v -2.6541 c 0,-0.0951 -0.038587,-0.1819 -0.1019738,-0.24529 -0.062015,-0.062 -0.14883,-0.1006 -0.2439141,-0.1006 z m 0,0"
       style="fill:#ffffff;fill-opacity:1;fill-rule:nonzero;stroke:none;stroke-width:0.35277775" />
    <path
       inkscape:connector-curvature="0"
       id="path9069"
       d="M 3.1922135,293.38706 H 0.53811106 c -0.23013106,0 -0.41616842,0.18604 -0.41616842,0.41617 v 2.65272 c 0,0.23014 0.18603736,0.41755 0.41616842,0.41755 H 3.1922135 c 0.2301311,0 0.4161684,-0.18741 0.4161684,-0.41755 v -2.65272 c 0,-0.23013 -0.1860373,-0.41617 -0.4161684,-0.41617"
       style="fill:#211e1e;fill-opacity:1;fill-rule:nonzero;stroke:none;stroke-width:0.35277775" />
    <path
       inkscape:connector-curvature="0"
       id="path9071"
       d="m 1.8651623,296.4904 c -0.060632,0 -0.1102431,-0.0482 -0.1102431,-0.10886 0,-0.062 0.049611,-0.11162 0.1102431,-0.11162 0.060635,0 0.1102431,0.0496 0.1102431,0.11162 0,0.0606 -0.049608,0.10886 -0.1102431,0.10886 m 0.6600789,-0.62012 v 0.29077 H 1.2037039 v -1.42076 l -0.1805234,-0.15434 v 1.82728 c 0,0.0868 0.055122,0.15848 0.1226467,0.15848 h 1.4386701 c 0.067525,0 0.1212674,-0.0717 0.1212674,-0.15848 v -0.3886 z m 0,0"
       style="fill:#ffffff;fill-opacity:1;fill-rule:nonzero;stroke:none;stroke-width:0.35277775" />
    <path
       inkscape:connector-curvature="0"
       id="path9073"
       d="m 1.6956632,293.85835 h 0.3389982 c 0.046852,0 0.046852,0.0854 0,0.0854 H 1.6956632 c -0.048232,0 -0.048232,-0.0854 0,-0.0854 m -0.4919593,0.44648 v -0.2067 h 1.3215373 v 1.33807 l 0.1805235,0.15297 v -1.74322 c 0,-0.0868 -0.053742,-0.15848 -0.1212674,-0.15848 H 1.1458272 c -0.067525,0 -0.1226467,0.0717 -0.1226467,0.15848 v 0.30454 z m 0,0"
       style="fill:#ffffff;fill-opacity:1;fill-rule:nonzero;stroke:none;stroke-width:0.35277775" />
    <path
       inkscape:connector-curvature="0"
       id="path9075"
       d="m 3.3644678,296.45733 -3.08267097,-2.63757 0.0868151,-0.10059 3.08129517,2.63756 z m 0,0"
       style="fill:#ffffff;fill-opacity:1;fill-rule:nonzero;stroke:none;stroke-width:0.35277775" />
    <path
       inkscape:connector-curvature="0"
       id="path9077"
       d="m 3.5381014,296.45733 c 0,0.18879 -0.1557195,0.34451 -0.3458879,0.34451 H 0.53811106 c -0.1901684,0 -0.34588803,-0.15572 -0.34588803,-0.34451 v -2.6541 c 0,-0.19155 0.15571963,-0.34727 0.34588803,-0.34727 H 3.1922135 c 0.1901684,0 0.3458879,0.15572 0.3458879,0.34727 z M 3.1922135,293.38706 H 0.53811106 c -0.23013106,0 -0.41616842,0.18604 -0.41616842,0.41617 v 2.6541 c 0,0.22876 0.18603736,0.41617 0.41616842,0.41617 H 3.1922135 c 0.2301311,0 0.4161684,-0.18741 0.4161684,-0.41617 v -2.6541 c 0,-0.23013 -0.1860373,-0.41617 -0.4161684,-0.41617"
       style="fill:#211e1e;fill-opacity:1;fill-rule:nonzero;stroke:none;stroke-width:0.35277775" />
  </g>
</svg>
