<?xml version="1.0" encoding="UTF-8" standalone="no"?>
<!-- Created with Inkscape (http://www.inkscape.org/) -->

<svg
   xmlns:dc="http://purl.org/dc/elements/1.1/"
   xmlns:cc="http://creativecommons.org/ns#"
   xmlns:rdf="http://www.w3.org/1999/02/22-rdf-syntax-ns#"
   xmlns:svg="http://www.w3.org/2000/svg"
   xmlns="http://www.w3.org/2000/svg"
   xmlns:sodipodi="http://sodipodi.sourceforge.net/DTD/sodipodi-0.dtd"
   xmlns:inkscape="http://www.inkscape.org/namespaces/inkscape"
   width="3.75mm"
   height="3.75mm"
   viewBox="0 0 3.75 3.75"
   version="1.1"
   id="svg13826"
   inkscape:version="0.92.1 r15371"
   sodipodi:docname="silent_mobile_device_light.svg">
  <defs
     id="defs13820" />
  <sodipodi:namedview
     id="base"
     pagecolor="#ffffff"
     bordercolor="#666666"
     borderopacity="1.0"
     inkscape:pageopacity="0.0"
     inkscape:pageshadow="2"
     inkscape:zoom="20.285322"
     inkscape:cx="7.2558826"
     inkscape:cy="7.2894483"
     inkscape:document-units="mm"
     inkscape:current-layer="layer1"
     showgrid="false"
     inkscape:window-width="561"
     inkscape:window-height="558"
     inkscape:window-x="720"
     inkscape:window-y="146"
     inkscape:window-maximized="0"
     showguides="true"
     inkscape:guide-bbox="true"
     gridtolerance="10"
     guidetolerance="2">
    <inkscape:grid
       type="xygrid"
       id="grid13828" />
    <sodipodi:guide
       position="0.13043093,3.8477124"
       orientation="1,0"
       id="guide20533"
       inkscape:locked="false" />
    <sodipodi:guide
       position="1.9173346,3.6129367"
       orientation="0,1"
       id="guide20535"
       inkscape:locked="false" />
  </sodipodi:namedview>
  <metadata
     id="metadata13823">
    <rdf:RDF>
      <cc:Work
         rdf:about="">
        <dc:format>image/svg+xml</dc:format>
        <dc:type
           rdf:resource="http://purl.org/dc/dcmitype/StillImage" />
        <dc:title></dc:title>
      </cc:Work>
    </rdf:RDF>
  </metadata>
  <g
     inkscape:label="Layer 1"
     inkscape:groupmode="layer"
     id="layer1"
     transform="translate(0,-293.25)">
    <path
       inkscape:connector-curvature="0"
       id="path9103"
       d="m 3.5511444,296.45733 c 0,0.19017 -0.1543402,0.34589 -0.3458879,0.34589 H 0.55115416 c -0.1901684,0 -0.34588803,-0.15572 -0.34588803,-0.34589 v -2.65273 c 0,-0.19154 0.15571963,-0.34726 0.34588803,-0.34726 H 3.2052565 c 0.1915477,0 0.3458879,0.15572 0.3458879,0.34726 z M 3.2052565,293.38706 H 0.55115416 c -0.22875523,0 -0.41616842,0.18741 -0.41616842,0.41754 v 2.65273 c 0,0.23013 0.18741319,0.41755 0.41616842,0.41755 H 3.2052565 c 0.2301311,0 0.4161684,-0.18742 0.4161684,-0.41755 v -2.65273 c 0,-0.23013 -0.1860373,-0.41754 -0.4161684,-0.41754"
       style="fill:#211e1e;fill-opacity:1;fill-rule:nonzero;stroke:none;stroke-width:0.35277775" />
    <path
       inkscape:connector-curvature="0"
       id="path9105"
       d="m 0.55115416,293.45734 c -0.1901684,0 -0.34588803,0.15572 -0.34588803,0.34726 v 2.65273 c 0,0.19017 0.15571963,0.34589 0.34588803,0.34589 H 3.2052565 c 0.1915477,0 0.3458879,-0.15572 0.3458879,-0.34589 v -2.65273 c 0,-0.19154 -0.1543402,-0.34726 -0.3458879,-0.34726 z m 0,0"
       style="fill:#ffffff;fill-opacity:1;fill-rule:nonzero;stroke:none;stroke-width:0.35277775" />
    <path
       inkscape:connector-curvature="0"
       id="path9107"
       d="M 2.6829796,296.18172 H 1.073431 v -2.10151 h 1.6095486 z m -0.8047743,0.30592 c -0.049608,0 -0.089574,-0.0413 -0.089574,-0.0909 0,-0.0496 0.039966,-0.0909 0.089574,-0.0909 0.049611,0 0.09095,0.0413 0.09095,0.0909 0,0.0496 -0.041338,0.0909 -0.09095,0.0909 m -0.1391814,-2.63618 h 0.276987 c 0.039963,0 0.039963,0.0703 0,0.0703 h -0.276987 c -0.038587,0 -0.038587,-0.0703 0,-0.0703 m 0.9081276,-0.17363 H 1.1092591 c -0.066146,0 -0.11988792,0.0689 -0.11988792,0.15434 v 2.5976 c 0,0.0854 0.0537421,0.15434 0.11988792,0.15434 h 1.5378924 c 0.066146,0 0.119888,-0.0689 0.119888,-0.15434 v -2.5976 c 0,-0.0854 -0.053742,-0.15434 -0.119888,-0.15434"
       style="fill:#211e1e;fill-opacity:1;fill-rule:nonzero;stroke:none;stroke-width:0.35277775" />
    <path
       inkscape:connector-curvature="0"
       id="path9109"
       d="m 2.0022279,294.76785 -0.068901,0.0675 c 0.030304,0.0634 0.049611,0.1378 0.059256,0.21773 l 0.086815,0.0717 c -0.00141,-0.1323 -0.028928,-0.25494 -0.07717,-0.35692"
       style="fill:#211e1e;fill-opacity:1;fill-rule:nonzero;stroke:none;stroke-width:0.35277775" />
    <path
       inkscape:connector-curvature="0"
       id="path9111"
       d="m 1.9333268,295.43069 0.068901,0.0675 c 0.027552,-0.0579 0.048232,-0.12127 0.060635,-0.19018 l -0.074415,-0.0606 c -0.00963,0.0661 -0.028928,0.12954 -0.055122,0.18328"
       style="fill:#211e1e;fill-opacity:1;fill-rule:nonzero;stroke:none;stroke-width:0.35277775" />
    <path
       inkscape:connector-curvature="0"
       id="path9113"
       d="m 2.1124709,295.55747 0.067525,0.0675 c 0.026176,-0.0524 0.045477,-0.10886 0.062011,-0.1695 l -0.071656,-0.0592 c -0.015169,0.0579 -0.034466,0.11162 -0.05788,0.16123"
       style="fill:#211e1e;fill-opacity:1;fill-rule:nonzero;stroke:none;stroke-width:0.35277775" />
    <path
       inkscape:connector-curvature="0"
       id="path9115"
       d="m 2.2847252,295.13303 c 0,-0.1819 -0.038583,-0.35139 -0.1047291,-0.49195 l -0.067525,0.0675 c 0.05788,0.12126 0.090953,0.26734 0.090953,0.42443 0,0.0303 -0.00141,0.0606 -0.00413,0.0896 l 0.07717,0.0634 c 0.0055,-0.0496 0.00825,-0.1006 0.00825,-0.15297"
       style="fill:#211e1e;fill-opacity:1;fill-rule:nonzero;stroke:none;stroke-width:0.35277775" />
    <path
       inkscape:connector-curvature="0"
       id="path9117"
       d="m 2.2902391,295.68563 0.067525,0.0661 c 0.023424,-0.0482 0.044097,-0.0992 0.060632,-0.15159 l -0.071656,-0.0593 c -0.016545,0.051 -0.034466,0.0992 -0.056501,0.1447"
       style="fill:#211e1e;fill-opacity:1;fill-rule:nonzero;stroke:none;stroke-width:0.35277775" />
    <path
       inkscape:connector-curvature="0"
       id="path9119"
       d="m 2.490056,295.13441 c 0,-0.22875 -0.049611,-0.44373 -0.1322917,-0.62012 l -0.067525,0.0675 c 0.074415,0.15709 0.1185122,0.34726 0.1185122,0.55259 0,0.0827 -0.00826,0.16399 -0.022048,0.24254 l 0.074411,0.0593 c 0.019297,-0.0965 0.028928,-0.19706 0.028928,-0.30179"
       style="fill:#211e1e;fill-opacity:1;fill-rule:nonzero;stroke:none;stroke-width:0.35277775" />
    <path
       inkscape:connector-curvature="0"
       id="path9121"
       d="m 1.8134388,294.70171 -0.1281571,0.0992 0.1281571,0.10473 z m 0,0"
       style="fill:#211e1e;fill-opacity:1;fill-rule:nonzero;stroke:none;stroke-width:0.35277775" />
    <path
       inkscape:connector-curvature="0"
       id="path9123"
       d="M 1.5130239,294.9346 H 1.2484405 c -0.016545,0 -0.030304,0.0179 -0.030304,0.04 v 0.31833 c 0,0.0207 0.013794,0.0386 0.030304,0.0386 H 1.48822 c 0.00141,0 0.00282,0 0.00413,0 h 0.019297 l 0.3017909,0.23427 v -0.46164 l -0.2521832,-0.20671 z m 0,0"
       style="fill:#211e1e;fill-opacity:1;fill-rule:nonzero;stroke:none;stroke-width:0.35277775" />
    <path
       inkscape:connector-curvature="0"
       id="path9125"
       d="m 1.2057227,294.46606 -0.038583,0.0496 1.4138662,1.15894 0.039963,-0.0482 z m 0,0"
       style="fill:#211e1e;fill-opacity:1;fill-rule:nonzero;stroke:none;stroke-width:0.35277775" />
  </g>
</svg>
