<?xml version="1.0" encoding="UTF-8" standalone="no"?>
<!-- Created with Inkscape (http://www.inkscape.org/) -->

<svg
   xmlns:dc="http://purl.org/dc/elements/1.1/"
   xmlns:cc="http://creativecommons.org/ns#"
   xmlns:rdf="http://www.w3.org/1999/02/22-rdf-syntax-ns#"
   xmlns:svg="http://www.w3.org/2000/svg"
   xmlns="http://www.w3.org/2000/svg"
   xmlns:sodipodi="http://sodipodi.sourceforge.net/DTD/sodipodi-0.dtd"
   xmlns:inkscape="http://www.inkscape.org/namespaces/inkscape"
   width="3.75mm"
   height="3.75mm"
   viewBox="0 0 3.75 3.75"
   version="1.1"
   id="svg13826"
   inkscape:version="0.92.1 r15371"
   sodipodi:docname="silent_mobile_device_dark.svg">
  <defs
     id="defs13820" />
  <sodipodi:namedview
     id="base"
     pagecolor="#ffffff"
     bordercolor="#666666"
     borderopacity="1.0"
     inkscape:pageopacity="0.0"
     inkscape:pageshadow="2"
     inkscape:zoom="20.285322"
     inkscape:cx="7.2558826"
     inkscape:cy="7.2894483"
     inkscape:document-units="mm"
     inkscape:current-layer="layer1"
     showgrid="false"
     inkscape:window-width="561"
     inkscape:window-height="558"
     inkscape:window-x="410"
     inkscape:window-y="119"
     inkscape:window-maximized="0"
     showguides="true"
     inkscape:guide-bbox="true"
     gridtolerance="10"
     guidetolerance="2">
    <inkscape:grid
       type="xygrid"
       id="grid13828" />
    <sodipodi:guide
       position="0.13043093,3.8477124"
       orientation="1,0"
       id="guide20533"
       inkscape:locked="false" />
    <sodipodi:guide
       position="1.9173346,3.6129367"
       orientation="0,1"
       id="guide20535"
       inkscape:locked="false" />
  </sodipodi:namedview>
  <metadata
     id="metadata13823">
    <rdf:RDF>
      <cc:Work
         rdf:about="">
        <dc:format>image/svg+xml</dc:format>
        <dc:type
           rdf:resource="http://purl.org/dc/dcmitype/StillImage" />
        <dc:title></dc:title>
      </cc:Work>
    </rdf:RDF>
  </metadata>
  <g
     inkscape:label="Layer 1"
     inkscape:groupmode="layer"
     id="layer1"
     transform="translate(0,-293.25)">
    <path
       inkscape:connector-curvature="0"
       id="path9079"
       d="m 0.53811105,293.45734 c -0.1915477,0 -0.345888,0.15572 -0.345888,0.34726 v 2.65273 c 0,0.19017 0.1543403,0.34451 0.345888,0.34451 H 3.1922134 c 0.1901684,0 0.3458879,-0.15434 0.3458879,-0.34451 v -2.65273 c 0,-0.19154 -0.1557195,-0.34726 -0.3458879,-0.34726 z m 0,0"
       style="fill:#ffffff;fill-opacity:1;fill-rule:nonzero;stroke:none;stroke-width:0.35277775" />
    <path
       inkscape:connector-curvature="0"
       id="path9081"
       d="M 3.1922134,293.38706 H 0.53811105 c -0.230131,0 -0.4161684,0.18741 -0.4161684,0.41754 v 2.65273 c 0,0.23013 0.1860374,0.41617 0.4161684,0.41617 H 3.1922134 c 0.2301311,0 0.4161684,-0.18604 0.4161684,-0.41617 v -2.65273 c 0,-0.23013 -0.1860373,-0.41754 -0.4161684,-0.41754"
       style="fill:#211e1e;fill-opacity:1;fill-rule:nonzero;stroke:none;stroke-width:0.35277775" />
    <path
       inkscape:connector-curvature="0"
       id="path9083"
       d="m 2.6699365,296.18172 h -1.610928 v -2.10289 h 1.610928 z m -0.8047743,0.30592 c -0.050987,0 -0.09095,-0.0413 -0.09095,-0.0909 0,-0.0496 0.039963,-0.091 0.09095,-0.091 0.049611,0 0.089574,0.0413 0.089574,0.091 0,0.0496 -0.039963,0.0909 -0.089574,0.0909 m -0.1391814,-2.63618 h 0.276987 c 0.039963,0 0.039963,0.0703 0,0.0703 h -0.276987 c -0.038587,0 -0.038587,-0.0703 0,-0.0703 m 0.9081276,-0.17363 H 1.096216 c -0.066146,0 -0.11988795,0.0689 -0.11988795,0.15434 v 2.5976 c 0,0.0854 0.053742,0.15434 0.11988795,0.15434 h 1.5378924 c 0.066146,0 0.119888,-0.0689 0.119888,-0.15434 v -2.5976 c 0,-0.0854 -0.053742,-0.15434 -0.119888,-0.15434"
       style="fill:#ffffff;fill-opacity:1;fill-rule:nonzero;stroke:none;stroke-width:0.35277775" />
    <path
       inkscape:connector-curvature="0"
       id="path9085"
       d="m 1.9878089,294.76785 -0.068904,0.0675 c 0.030304,0.0634 0.05099,0.1378 0.060635,0.21635 l 0.086815,0.0717 c -0.00141,-0.13092 -0.030304,-0.25356 -0.078546,-0.35554"
       style="fill:#ffffff;fill-opacity:1;fill-rule:nonzero;stroke:none;stroke-width:0.35277775" />
    <path
       inkscape:connector-curvature="0"
       id="path9087"
       d="m 1.9202837,295.43069 0.068901,0.0675 c 0.027552,-0.0579 0.048232,-0.12126 0.060635,-0.19017 l -0.074415,-0.0606 c -0.011007,0.0661 -0.028928,0.12816 -0.055122,0.18328"
       style="fill:#ffffff;fill-opacity:1;fill-rule:nonzero;stroke:none;stroke-width:0.35277775" />
    <path
       inkscape:connector-curvature="0"
       id="path9089"
       d="m 2.0994278,295.55747 0.067525,0.0675 c 0.0248,-0.0524 0.045477,-0.11024 0.062011,-0.1695 l -0.071656,-0.0592 c -0.015169,0.0565 -0.034466,0.11162 -0.05788,0.16123"
       style="fill:#ffffff;fill-opacity:1;fill-rule:nonzero;stroke:none;stroke-width:0.35277775" />
    <path
       inkscape:connector-curvature="0"
       id="path9091"
       d="m 2.2716821,295.13303 c 0,-0.1819 -0.038583,-0.3514 -0.1047291,-0.49196 l -0.068901,0.0661 c 0.057877,0.12127 0.09095,0.26872 0.09095,0.42581 0,0.0303 -0.00141,0.0593 -0.00282,0.0882 l 0.075791,0.0634 c 0.00688,-0.0496 0.00963,-0.0992 0.00963,-0.15159"
       style="fill:#ffffff;fill-opacity:1;fill-rule:nonzero;stroke:none;stroke-width:0.35277775" />
    <path
       inkscape:connector-curvature="0"
       id="path9093"
       d="m 2.277196,295.68563 0.067525,0.0661 c 0.023424,-0.0482 0.042718,-0.0992 0.060632,-0.15158 l -0.071656,-0.0593 c -0.016545,0.051 -0.034466,0.0992 -0.056501,0.1447"
       style="fill:#ffffff;fill-opacity:1;fill-rule:nonzero;stroke:none;stroke-width:0.35277775" />
    <path
       inkscape:connector-curvature="0"
       id="path9095"
       d="m 2.4770129,295.13303 c 0,-0.22875 -0.049611,-0.44235 -0.1322917,-0.61874 l -0.067525,0.0675 c 0.074415,0.15709 0.1171329,0.34726 0.1171329,0.55121 0,0.0841 -0.00688,0.16537 -0.020673,0.24254 l 0.074411,0.0606 c 0.017921,-0.0965 0.028928,-0.19706 0.028928,-0.30317"
       style="fill:#ffffff;fill-opacity:1;fill-rule:nonzero;stroke:none;stroke-width:0.35277775" />
    <path
       inkscape:connector-curvature="0"
       id="path9097"
       d="m 1.8003957,294.70033 -0.1281571,0.1006 0.1281571,0.10473 z m 0,0"
       style="fill:#ffffff;fill-opacity:1;fill-rule:nonzero;stroke:none;stroke-width:0.35277775" />
    <path
       inkscape:connector-curvature="0"
       id="path9099"
       d="M 1.4999808,294.9346 H 1.2353974 c -0.016545,0 -0.030304,0.0179 -0.030304,0.0386 v 0.31833 c 0,0.022 0.013794,0.04 0.030304,0.04 h 0.2397795 c 0.00141,0 0.00282,0 0.00413,0 h 0.019297 l 0.3017908,0.23289 v -0.46027 l -0.2521832,-0.2067 z m 0,0"
       style="fill:#ffffff;fill-opacity:1;fill-rule:nonzero;stroke:none;stroke-width:0.35277775" />
    <path
       inkscape:connector-curvature="0"
       id="path9101"
       d="m 2.5665832,295.65944 -1.3987074,-1.14653 0.026176,-0.0317 1.397328,1.14652 z m 0,0"
       style="fill:#ffffff;fill-opacity:1;fill-rule:nonzero;stroke:none;stroke-width:0.35277775" />
  </g>
</svg>
