<?xml version="1.0" encoding="UTF-8" standalone="no"?>
<!-- Created with Inkscape (http://www.inkscape.org/) -->

<svg
   xmlns:dc="http://purl.org/dc/elements/1.1/"
   xmlns:cc="http://creativecommons.org/ns#"
   xmlns:rdf="http://www.w3.org/1999/02/22-rdf-syntax-ns#"
   xmlns:svg="http://www.w3.org/2000/svg"
   xmlns="http://www.w3.org/2000/svg"
   xmlns:sodipodi="http://sodipodi.sourceforge.net/DTD/sodipodi-0.dtd"
   xmlns:inkscape="http://www.inkscape.org/namespaces/inkscape"
   width="3.75mm"
   height="3.75mm"
   viewBox="0 0 3.75 3.75"
   version="1.1"
   id="svg13826"
   inkscape:version="0.92.1 r15371"
   sodipodi:docname="telephone_dark.svg">
  <defs
     id="defs13820" />
  <sodipodi:namedview
     id="base"
     pagecolor="#ffffff"
     bordercolor="#666666"
     borderopacity="1.0"
     inkscape:pageopacity="0.0"
     inkscape:pageshadow="2"
     inkscape:zoom="30.586462"
     inkscape:cx="6.3901835"
     inkscape:cy="7.883262"
     inkscape:document-units="mm"
     inkscape:current-layer="layer1"
     showgrid="false"
     inkscape:window-width="742"
     inkscape:window-height="651"
     inkscape:window-x="577"
     inkscape:window-y="81"
     inkscape:window-maximized="0"
     showguides="true"
     inkscape:guide-bbox="true"
     gridtolerance="10"
     guidetolerance="2">
    <inkscape:grid
       type="xygrid"
       id="grid13828" />
    <sodipodi:guide
       position="0.13043093,3.8477124"
       orientation="1,0"
       id="guide20533"
       inkscape:locked="false" />
    <sodipodi:guide
       position="1.9173346,3.6129367"
       orientation="0,1"
       id="guide20535"
       inkscape:locked="false" />
  </sodipodi:namedview>
  <metadata
     id="metadata13823">
    <rdf:RDF>
      <cc:Work
         rdf:about="">
        <dc:format>image/svg+xml</dc:format>
        <dc:type
           rdf:resource="http://purl.org/dc/dcmitype/StillImage" />
        <dc:title></dc:title>
      </cc:Work>
    </rdf:RDF>
  </metadata>
  <g
     inkscape:label="Layer 1"
     inkscape:groupmode="layer"
     id="layer1"
     transform="translate(0,-293.25)">
    <path
       inkscape:connector-curvature="0"
       id="path12027"
       d="m 0.55007461,293.45859 c -0.1901684,0 -0.34450867,0.15434 -0.34450867,0.34589 v 2.65272 c 0,0.19155 0.15434027,0.34589 0.34450867,0.34589 H 3.204177 c 0.1915477,0 0.3458879,-0.15434 0.3458879,-0.34589 v -2.65272 c 0,-0.19155 -0.1543402,-0.34589 -0.3458879,-0.34589 z m 0,0"
       style="fill:#ffffff;fill-opacity:1;fill-rule:nonzero;stroke:none;stroke-width:0.35277775" />
    <path
       inkscape:connector-curvature="0"
       id="path12029"
       d="m 3.204177,296.87475 c 0.2301311,0 0.4161649,-0.18742 0.4161649,-0.41755 v -2.65272 c 0,-0.23013 -0.1860338,-0.41617 -0.4161649,-0.41617 H 0.55007461 c -0.22875523,0 -0.41616842,0.18604 -0.41616842,0.41617 v 2.65272 c 0,0.23013 0.18741319,0.41755 0.41616842,0.41755 z m 0,0"
       style="fill:#211e1e;fill-opacity:1;fill-rule:nonzero;stroke:none;stroke-width:0.35277775" />
    <path
       inkscape:connector-curvature="0"
       id="path12031"
       d="m 1.8151145,293.65289 c -0.1405607,0.0152 -0.6518133,0.24943 -0.6669722,1.45521 -0.01517,1.26918 0.5264115,1.53651 0.6683481,1.53376 v -0.83785 c -0.1171329,0 -0.1405573,-0.12815 -0.1667405,-0.39136 -0.017921,-0.17363 -0.023424,-0.38861 0,-0.60358 0.016545,-0.15021 0.044097,-0.29628 0.1667405,-0.29628 z m 0,0"
       style="fill:#ffffff;fill-opacity:1;fill-rule:nonzero;stroke:none;stroke-width:0.35277775" />
    <path
       inkscape:connector-curvature="0"
       id="path12033"
       d="m 2.2037204,296.64324 c 0.053742,0 0.092329,-0.0441 0.092329,-0.0937 h 0.00141 c 0,0 -0.00141,-0.65319 -0.00141,-0.65457 0,-0.051 -0.041342,-0.0923 -0.092329,-0.0923 H 1.9653202 v 0.84061 c 0,0 0.2370208,10e-4 0.2370208,0 z m 0,0"
       style="fill:#ffffff;fill-opacity:1;fill-rule:nonzero;stroke:none;stroke-width:0.35277775" />
    <path
       inkscape:connector-curvature="0"
       id="path12035"
       d="m 2.2037204,294.51279 c 0.053742,0 0.092329,-0.0441 0.092329,-0.0937 h 0.00141 c 0,0 -0.00141,-0.67248 -0.00141,-0.67386 0,-0.051 -0.041342,-0.0923 -0.092329,-0.0923 H 1.9653202 v 0.8599 z m 0,0"
       style="fill:#ffffff;fill-opacity:1;fill-rule:nonzero;stroke:none;stroke-width:0.35277775" />
  </g>
</svg>
