<?xml version="1.0" encoding="UTF-8" standalone="no"?>
<!-- Created with Inkscape (http://www.inkscape.org/) -->

<svg
   xmlns:dc="http://purl.org/dc/elements/1.1/"
   xmlns:cc="http://creativecommons.org/ns#"
   xmlns:rdf="http://www.w3.org/1999/02/22-rdf-syntax-ns#"
   xmlns:svg="http://www.w3.org/2000/svg"
   xmlns="http://www.w3.org/2000/svg"
   xmlns:sodipodi="http://sodipodi.sourceforge.net/DTD/sodipodi-0.dtd"
   xmlns:inkscape="http://www.inkscape.org/namespaces/inkscape"
   width="3.75mm"
   height="3.75mm"
   viewBox="0 0 3.75 3.75"
   version="1.1"
   id="svg13826"
   inkscape:version="0.92.1 r15371"
   sodipodi:docname="webcam_light.svg">
  <defs
     id="defs13820" />
  <sodipodi:namedview
     id="base"
     pagecolor="#ffffff"
     bordercolor="#666666"
     borderopacity="1.0"
     inkscape:pageopacity="0.0"
     inkscape:pageshadow="2"
     inkscape:zoom="30.586462"
     inkscape:cx="6.3901835"
     inkscape:cy="6.5754939"
     inkscape:document-units="mm"
     inkscape:current-layer="layer1"
     showgrid="false"
     inkscape:window-width="742"
     inkscape:window-height="651"
     inkscape:window-x="577"
     inkscape:window-y="81"
     inkscape:window-maximized="0"
     showguides="true"
     inkscape:guide-bbox="true"
     gridtolerance="10"
     guidetolerance="2">
    <inkscape:grid
       type="xygrid"
       id="grid13828" />
    <sodipodi:guide
       position="0.13043093,3.8477124"
       orientation="1,0"
       id="guide20533"
       inkscape:locked="false" />
    <sodipodi:guide
       position="1.9173346,3.6129367"
       orientation="0,1"
       id="guide20535"
       inkscape:locked="false" />
  </sodipodi:namedview>
  <metadata
     id="metadata13823">
    <rdf:RDF>
      <cc:Work
         rdf:about="">
        <dc:format>image/svg+xml</dc:format>
        <dc:type
           rdf:resource="http://purl.org/dc/dcmitype/StillImage" />
        <dc:title></dc:title>
      </cc:Work>
    </rdf:RDF>
  </metadata>
  <g
     inkscape:label="Layer 1"
     inkscape:groupmode="layer"
     id="layer1"
     transform="translate(0,-293.25)">
    <path
       inkscape:connector-curvature="0"
       id="path10707"
       d="m 3.2027977,296.87475 c 0.2301309,0 0.4175442,-0.18604 0.4175442,-0.41617 v -2.65272 c 0,-0.23014 -0.1874133,-0.41755 -0.4175442,-0.41755 H 0.55007461 c -0.23013459,0 -0.41616842,0.18741 -0.41616842,0.41755 v 2.65272 c 0,0.23013 0.18603383,0.41617 0.41616842,0.41617 z m 0,0"
       style="fill:#211e1e;fill-opacity:1;fill-rule:nonzero;stroke:none;stroke-width:0.35277775" />
    <path
       inkscape:connector-curvature="0"
       id="path10709"
       d="m 0.54731588,293.45859 c -0.19016839,0 -0.34588803,0.15572 -0.34588803,0.34727 v 2.6541 c 0,0.19017 0.15571964,0.34588 0.34588803,0.34588 H 3.2027977 c 0.1915477,0 0.3472638,-0.15571 0.3472638,-0.34588 v -2.6541 c 0,-0.19155 -0.1557161,-0.34727 -0.3472638,-0.34727 z m 0,0"
       style="fill:#ffffff;fill-opacity:1;fill-rule:nonzero;stroke:none;stroke-width:0.35277775" />
    <path
       inkscape:connector-curvature="0"
       id="path10711"
       d="m 1.1536527,294.89588 c 0,-0.39825 0.3238394,-0.72209 0.7220937,-0.72209 0.3996302,0 0.7234696,0.32384 0.7234696,0.72209 0,0.39963 -0.3238394,0.7221 -0.7234696,0.7221 -0.3982543,0 -0.7220937,-0.32247 -0.7220937,-0.7221 m 0.9632491,1.05696 c 0.4823142,-0.10887 0.8433611,-0.54432 0.8433611,-1.06385 0,-0.6022 -0.4850694,-1.09002 -1.0845165,-1.09002 -0.5980676,0 -1.08313709,0.48782 -1.08313709,1.09002 0,0.51953 0.36104339,0.95498 0.84335759,1.06385 v 0.2701 H 1.0337647 v 0.24253 H 2.719104 v -0.24253 H 2.1169018 Z m 0,0"
       style="fill:#211e1e;fill-opacity:1;fill-rule:nonzero;stroke:none;stroke-width:0.35277775" />
    <path
       inkscape:connector-curvature="0"
       id="path10713"
       d="m 1.8757464,294.53484 c -0.1984375,0 -0.3610469,0.16123 -0.3610469,0.36104 0,0.19982 0.1626094,0.36105 0.3610469,0.36105 0.1998133,0 0.3624227,-0.16123 0.3624227,-0.36105 0,-0.19981 -0.1626094,-0.36104 -0.3624227,-0.36104"
       style="fill:#211e1e;fill-opacity:1;fill-rule:nonzero;stroke:none;stroke-width:0.35277775" />
  </g>
</svg>
