<?xml version="1.0" encoding="UTF-8" standalone="no"?>
<!-- Created with Inkscape (http://www.inkscape.org/) -->

<svg
   xmlns:dc="http://purl.org/dc/elements/1.1/"
   xmlns:cc="http://creativecommons.org/ns#"
   xmlns:rdf="http://www.w3.org/1999/02/22-rdf-syntax-ns#"
   xmlns:svg="http://www.w3.org/2000/svg"
   xmlns="http://www.w3.org/2000/svg"
   xmlns:sodipodi="http://sodipodi.sourceforge.net/DTD/sodipodi-0.dtd"
   xmlns:inkscape="http://www.inkscape.org/namespaces/inkscape"
   width="3.75mm"
   height="3.75mm"
   viewBox="0 0 3.75 3.75"
   version="1.1"
   id="svg13826"
   inkscape:version="0.92.1 r15371"
   sodipodi:docname="wifi_dark.svg">
  <defs
     id="defs13820" />
  <sodipodi:namedview
     id="base"
     pagecolor="#ffffff"
     bordercolor="#666666"
     borderopacity="1.0"
     inkscape:pageopacity="0.0"
     inkscape:pageshadow="2"
     inkscape:zoom="30.586462"
     inkscape:cx="6.3901835"
     inkscape:cy="6.5754939"
     inkscape:document-units="mm"
     inkscape:current-layer="layer1"
     showgrid="false"
     inkscape:window-width="742"
     inkscape:window-height="651"
     inkscape:window-x="577"
     inkscape:window-y="81"
     inkscape:window-maximized="0"
     showguides="true"
     inkscape:guide-bbox="true"
     gridtolerance="10"
     guidetolerance="2">
    <inkscape:grid
       type="xygrid"
       id="grid13828" />
    <sodipodi:guide
       position="0.13043093,3.8477124"
       orientation="1,0"
       id="guide20533"
       inkscape:locked="false" />
    <sodipodi:guide
       position="1.9173346,3.6129367"
       orientation="0,1"
       id="guide20535"
       inkscape:locked="false" />
  </sodipodi:namedview>
  <metadata
     id="metadata13823">
    <rdf:RDF>
      <cc:Work
         rdf:about="">
        <dc:format>image/svg+xml</dc:format>
        <dc:type
           rdf:resource="http://purl.org/dc/dcmitype/StillImage" />
        <dc:title></dc:title>
      </cc:Work>
    </rdf:RDF>
  </metadata>
  <g
     inkscape:label="Layer 1"
     inkscape:groupmode="layer"
     id="layer1"
     transform="translate(0,-293.25)">
    <path
       inkscape:connector-curvature="0"
       id="path13727"
       d="m 0.55330447,293.45753 c -0.1901684,0 -0.34450867,0.15572 -0.34450867,0.34589 v 2.6541 c 0,0.19017 0.15434027,0.34589 0.34450867,0.34589 H 3.2074068 c 0.1915477,0 0.3458879,-0.15572 0.3458879,-0.34589 v -2.6541 c 0,-0.19017 -0.1543402,-0.34589 -0.3458879,-0.34589 z m 0,0"
       style="fill:#ffffff;fill-opacity:1;fill-rule:nonzero;stroke:none;stroke-width:0.35277775" />
    <path
       inkscape:connector-curvature="0"
       id="path13729"
       d="m 3.2074068,296.87369 c 0.2301311,0 0.4175442,-0.18604 0.4175442,-0.41755 v -2.65272 c 0,-0.23013 -0.1874131,-0.41617 -0.4175442,-0.41617 H 0.55468382 c -0.23013458,0 -0.41754777,0.18604 -0.41754777,0.41617 v 2.65272 c 0,0.23151 0.18741319,0.41755 0.41754777,0.41755 z m 0,0"
       style="fill:#211e1e;fill-opacity:1;fill-rule:nonzero;stroke:none;stroke-width:0.35277775" />
    <path
       inkscape:connector-curvature="0"
       id="path13731"
       d="m 1.8803556,295.3234 c -0.2273759,0 -0.4340825,0.0937 -0.5856675,0.24391 l 0.2011926,0.19981 c 0.099219,-0.0978 0.235645,-0.15847 0.3844749,-0.15847 0.1502057,0 0.2866319,0.0606 0.3844713,0.15847 l 0.2011927,-0.19981 C 2.3158139,295.4171 2.1091108,295.3234 1.8803556,295.3234"
       style="fill:#ffffff;fill-opacity:1;fill-rule:nonzero;stroke:none;stroke-width:0.35277775" />
    <path
       inkscape:connector-curvature="0"
       id="path13733"
       d="m 1.8803556,294.72533 c -0.3762058,0 -0.7179592,0.15434 -0.96600426,0.40101 l 0.20119266,0.20119 c 0.1956823,-0.19568 0.4671553,-0.31695 0.7648116,-0.31695 0.2990321,0 0.5705087,0.12127 0.7661874,0.31695 l 0.2011963,-0.20119 c -0.2480487,-0.24667 -0.5898021,-0.40101 -0.9673837,-0.40101"
       style="fill:#ffffff;fill-opacity:1;fill-rule:nonzero;stroke:none;stroke-width:0.35277775" />
    <path
       inkscape:connector-curvature="0"
       id="path13735"
       d="m 1.8803556,294.41113 c 0.4478619,0 0.8530061,0.18328 1.1465278,0.4768 l 0.2011926,-0.20119 c -0.3445086,-0.34589 -0.821309,-0.55948 -1.3477204,-0.55948 -0.5250321,0 -1.00183591,0.21359 -1.34772038,0.55948 l 0.20119268,0.20119 c 0.2935217,-0.29352 0.7000416,-0.4768 1.1465277,-0.4768"
       style="fill:#ffffff;fill-opacity:1;fill-rule:nonzero;stroke:none;stroke-width:0.35277775" />
    <path
       inkscape:connector-curvature="0"
       id="path13737"
       d="m 1.6846733,296.09923 c 0,-0.10749 0.088194,-0.19568 0.1956823,-0.19568 0.1088637,0 0.1970581,0.0882 0.1970581,0.19568 0,0.10887 -0.088194,0.19568 -0.1970581,0.19568 -0.1074879,0 -0.1956823,-0.0868 -0.1956823,-0.19568"
       style="fill:#ffffff;fill-opacity:1;fill-rule:nonzero;stroke:none;stroke-width:0.35277775" />
  </g>
</svg>
