<?xml version="1.0" encoding="UTF-8" standalone="no"?>
<!-- Created with Inkscape (http://www.inkscape.org/) -->

<svg
   xmlns:dc="http://purl.org/dc/elements/1.1/"
   xmlns:cc="http://creativecommons.org/ns#"
   xmlns:rdf="http://www.w3.org/1999/02/22-rdf-syntax-ns#"
   xmlns:svg="http://www.w3.org/2000/svg"
   xmlns="http://www.w3.org/2000/svg"
   xmlns:sodipodi="http://sodipodi.sourceforge.net/DTD/sodipodi-0.dtd"
   xmlns:inkscape="http://www.inkscape.org/namespaces/inkscape"
   width="3.75mm"
   height="3.75mm"
   viewBox="0 0 3.75 3.75"
   version="1.1"
   id="svg13826"
   inkscape:version="0.92.1 r15371"
   sodipodi:docname="lighthouse_dark.svg">
  <defs
     id="defs13820" />
  <sodipodi:namedview
     id="base"
     pagecolor="#ffffff"
     bordercolor="#666666"
     borderopacity="1.0"
     inkscape:pageopacity="0.0"
     inkscape:pageshadow="2"
     inkscape:zoom="28.687777"
     inkscape:cx="7.5166686"
     inkscape:cy="6.238671"
     inkscape:document-units="mm"
     inkscape:current-layer="layer1"
     showgrid="false"
     inkscape:window-width="691"
     inkscape:window-height="712"
     inkscape:window-x="674"
     inkscape:window-y="27"
     inkscape:window-maximized="0"
     showguides="true"
     inkscape:guide-bbox="true"
     gridtolerance="10"
     guidetolerance="2">
    <inkscape:grid
       type="xygrid"
       id="grid13828" />
    <sodipodi:guide
       position="0.13043093,3.8477124"
       orientation="1,0"
       id="guide20533"
       inkscape:locked="false" />
    <sodipodi:guide
       position="1.9173346,3.6129367"
       orientation="0,1"
       id="guide20535"
       inkscape:locked="false" />
  </sodipodi:namedview>
  <metadata
     id="metadata13823">
    <rdf:RDF>
      <cc:Work
         rdf:about="">
        <dc:format>image/svg+xml</dc:format>
        <dc:type
           rdf:resource="http://purl.org/dc/dcmitype/StillImage" />
        <dc:title></dc:title>
      </cc:Work>
    </rdf:RDF>
  </metadata>
  <g
     inkscape:label="Layer 1"
     inkscape:groupmode="layer"
     id="layer1"
     transform="translate(0,-293.25)">
    <path
       inkscape:connector-curvature="0"
       id="path3935"
       d="m 0.53527849,293.45482 c -0.1901684,0 -0.34588803,0.15572 -0.34588803,0.34589 v 2.6541 c 0,0.19017 0.15571963,0.34451 0.34588803,0.34451 H 3.1893808 c 0.1915477,0 0.3458879,-0.15434 0.3458879,-0.34451 v -2.6541 c 0,-0.19017 -0.1543402,-0.34589 -0.3458879,-0.34589 z m 0,0"
       style="fill:#ffffff;fill-opacity:1;fill-rule:nonzero;stroke:none;stroke-width:0.35277775" />
    <path
       inkscape:connector-curvature="0"
       id="path3937"
       d="m 3.1893808,296.87098 c 0.2301311,0 0.4175442,-0.18604 0.4175442,-0.41617 v -2.6541 c 0,-0.23014 -0.1874131,-0.41617 -0.4175442,-0.41617 H 0.53527849 c -0.23013106,0 -0.41616842,0.18603 -0.41616842,0.41617 v 2.6541 c 0,0.23013 0.18603736,0.41617 0.41616842,0.41617 z m 0,0"
       style="fill:#211e1e;fill-opacity:1;fill-rule:nonzero;stroke:none;stroke-width:0.35277775" />
    <path
       inkscape:connector-curvature="0"
       id="path3939"
       d="m 0.39334186,294.47319 -0.00141,-0.51125 1.20440434,0.15434 0.00141,0.20395 z m 0,0"
       style="fill:#ffffff;fill-opacity:1;fill-rule:nonzero;stroke:none;stroke-width:0.35277775" />
    <path
       inkscape:connector-curvature="0"
       id="path3941"
       d="m 3.3285622,293.96194 v 0.51125 l -1.2044045,-0.15434 v -0.20395 z m 0,0"
       style="fill:#ffffff;fill-opacity:1;fill-rule:nonzero;stroke:none;stroke-width:0.35277775" />
    <path
       inkscape:connector-curvature="0"
       id="path3943"
       d="m 1.4351369,293.98123 c -0.00825,0.003 -0.011007,0.01 -0.011007,0.0165 0,0.011 0.00688,0.0193 0.017921,0.0193 h 0.8364714 c 0.00963,0 0.017921,-0.008 0.017921,-0.0193 0,-0.007 -0.00413,-0.0138 -0.011007,-0.0165 l -0.4258626,-0.23978 z m 0,0"
       style="fill:#ffffff;fill-opacity:1;fill-rule:nonzero;stroke:none;stroke-width:0.35277775" />
    <path
       inkscape:connector-curvature="0"
       id="path3945"
       d="m 2.508629,296.52509 -0.2852525,-2.03536 h 0.073036 c 0.022049,0 0.039963,-0.0165 0.039963,-0.0372 0,-0.022 -0.017921,-0.0386 -0.039963,-0.0386 H 1.4241126 c -0.022048,0 -0.038583,0.0165 -0.038583,0.0386 0,0.0207 0.016545,0.0372 0.038583,0.0372 h 0.073036 l -0.2852526,2.03536 z m 0,0"
       style="fill:#ffffff;fill-opacity:1;fill-rule:nonzero;stroke:none;stroke-width:0.35277775" />
  </g>
</svg>
