<?xml version="1.0" encoding="UTF-8" standalone="no"?>
<!-- Created with Inkscape (http://www.inkscape.org/) -->

<svg
   xmlns:dc="http://purl.org/dc/elements/1.1/"
   xmlns:cc="http://creativecommons.org/ns#"
   xmlns:rdf="http://www.w3.org/1999/02/22-rdf-syntax-ns#"
   xmlns:svg="http://www.w3.org/2000/svg"
   xmlns="http://www.w3.org/2000/svg"
   xmlns:sodipodi="http://sodipodi.sourceforge.net/DTD/sodipodi-0.dtd"
   xmlns:inkscape="http://www.inkscape.org/namespaces/inkscape"
   width="3.75mm"
   height="3.75mm"
   viewBox="0 0 3.75 3.75"
   version="1.1"
   id="svg13826"
   inkscape:version="0.92.1 r15371"
   sodipodi:docname="scenic_dark.svg">
  <defs
     id="defs13820" />
  <sodipodi:namedview
     id="base"
     pagecolor="#ffffff"
     bordercolor="#666666"
     borderopacity="1.0"
     inkscape:pageopacity="0.0"
     inkscape:pageshadow="2"
     inkscape:zoom="28.687777"
     inkscape:cx="6.2597362"
     inkscape:cy="6.238671"
     inkscape:document-units="mm"
     inkscape:current-layer="layer1"
     showgrid="false"
     inkscape:window-width="691"
     inkscape:window-height="712"
     inkscape:window-x="674"
     inkscape:window-y="27"
     inkscape:window-maximized="0"
     showguides="true"
     inkscape:guide-bbox="true"
     gridtolerance="10"
     guidetolerance="2">
    <inkscape:grid
       type="xygrid"
       id="grid13828" />
    <sodipodi:guide
       position="0.13043093,3.8477124"
       orientation="1,0"
       id="guide20533"
       inkscape:locked="false" />
    <sodipodi:guide
       position="1.9173346,3.6129367"
       orientation="0,1"
       id="guide20535"
       inkscape:locked="false" />
  </sodipodi:namedview>
  <metadata
     id="metadata13823">
    <rdf:RDF>
      <cc:Work
         rdf:about="">
        <dc:format>image/svg+xml</dc:format>
        <dc:type
           rdf:resource="http://purl.org/dc/dcmitype/StillImage" />
        <dc:title></dc:title>
      </cc:Work>
    </rdf:RDF>
  </metadata>
  <g
     inkscape:label="Layer 1"
     inkscape:groupmode="layer"
     id="layer1"
     transform="translate(0,-293.25)">
    <path
       inkscape:connector-curvature="0"
       id="path1055"
       d="m 0.5352785,293.43637 c -0.19016838,0 -0.34450865,0.15572 -0.34450865,0.34589 v 2.6541 c 0,0.19155 0.15434027,0.34589 0.34450865,0.34589 H 3.189381 c 0.1915477,0 0.3458879,-0.15434 0.3458879,-0.34589 v -2.6541 c 0,-0.19017 -0.1543402,-0.34589 -0.3458879,-0.34589 z m 0,0"
       style="fill:#ffffff;fill-opacity:1;fill-rule:nonzero;stroke:none;stroke-width:0.35277775" />
    <path
       inkscape:connector-curvature="0"
       id="path1057"
       d="M 3.1122108,295.32566 1.486124,295.20577 v -0.19292 l 1.6260868,-0.11989 z m -0.6614583,0.89848 -1.0845165,-0.76619 0.096464,-0.16812 1.2044044,0.55811 z m -0.85852,0.41893 -0.4561311,-1.02664 0.1694992,-0.0978 0.6628376,0.90813 z m -0.95773525,-1.53376 c 0,-0.17777 0.14469533,-0.32108 0.32108423,-0.32108 0.17776472,0 0.32108072,0.14331 0.32108072,0.32108 0,0.17639 -0.143316,0.3197 -0.32108072,0.3197 -0.1763889,0 -0.32108423,-0.14331 -0.32108423,-0.3197 m 0.95773525,-1.53513 0.3762057,0.21773 -0.6628376,0.90675 -0.1694992,-0.0965 z m 1.0748715,0.7965 -1.2044044,0.55811 -0.096464,-0.16812 1.0845165,-0.76619 z m 0.522277,-1.00459 H 0.5352785 c -0.22875521,0 -0.41478904,0.18741 -0.41478904,0.41617 v 2.6541 c 0,0.23013 0.18603383,0.41617 0.41478904,0.41617 H 3.189381 c 0.2301309,0 0.4161647,-0.18604 0.4161647,-0.41617 v -2.6541 c 0,-0.22876 -0.1860338,-0.41617 -0.4161647,-0.41617"
       style="fill:#211e1e;fill-opacity:1;fill-rule:nonzero;stroke:none;stroke-width:0.35277775" />
  </g>
</svg>
