<?xml version="1.0" encoding="UTF-8" standalone="no"?>
<!-- Created with Inkscape (http://www.inkscape.org/) -->

<svg
   xmlns:dc="http://purl.org/dc/elements/1.1/"
   xmlns:cc="http://creativecommons.org/ns#"
   xmlns:rdf="http://www.w3.org/1999/02/22-rdf-syntax-ns#"
   xmlns:svg="http://www.w3.org/2000/svg"
   xmlns="http://www.w3.org/2000/svg"
   xmlns:sodipodi="http://sodipodi.sourceforge.net/DTD/sodipodi-0.dtd"
   xmlns:inkscape="http://www.inkscape.org/namespaces/inkscape"
   width="3.75mm"
   height="3.75mm"
   viewBox="0 0 3.75 3.75"
   version="1.1"
   id="svg13826"
   inkscape:version="0.92.1 r15371"
   sodipodi:docname="shipwreck_light.svg">
  <defs
     id="defs13820" />
  <sodipodi:namedview
     id="base"
     pagecolor="#ffffff"
     bordercolor="#666666"
     borderopacity="1.0"
     inkscape:pageopacity="0.0"
     inkscape:pageshadow="2"
     inkscape:zoom="28.687777"
     inkscape:cx="6.2597362"
     inkscape:cy="6.238671"
     inkscape:document-units="mm"
     inkscape:current-layer="layer1"
     showgrid="false"
     inkscape:window-width="691"
     inkscape:window-height="712"
     inkscape:window-x="674"
     inkscape:window-y="27"
     inkscape:window-maximized="0"
     showguides="true"
     inkscape:guide-bbox="true"
     gridtolerance="10"
     guidetolerance="2">
    <inkscape:grid
       type="xygrid"
       id="grid13828" />
    <sodipodi:guide
       position="0.13043093,3.8477124"
       orientation="1,0"
       id="guide20533"
       inkscape:locked="false" />
    <sodipodi:guide
       position="1.9173346,3.6129367"
       orientation="0,1"
       id="guide20535"
       inkscape:locked="false" />
  </sodipodi:namedview>
  <metadata
     id="metadata13823">
    <rdf:RDF>
      <cc:Work
         rdf:about="">
        <dc:format>image/svg+xml</dc:format>
        <dc:type
           rdf:resource="http://purl.org/dc/dcmitype/StillImage" />
        <dc:title></dc:title>
      </cc:Work>
    </rdf:RDF>
  </metadata>
  <g
     inkscape:label="Layer 1"
     inkscape:groupmode="layer"
     id="layer1"
     transform="translate(0,-293.25)">
    <path
       inkscape:connector-curvature="0"
       id="path949"
       d="m 3.198602,296.86176 c 0.2301309,0 0.4161684,-0.18741 0.4161684,-0.41755 v -2.65272 c 0,-0.23013 -0.1860375,-0.41617 -0.4161684,-0.41617 H 0.5458789 c -0.23013459,0 -0.41616842,0.18604 -0.41616842,0.41617 v 2.65272 c 0,0.23014 0.18603383,0.41755 0.41616842,0.41755 z m 0,0"
       style="fill:#211e1e;fill-opacity:1;fill-rule:nonzero;stroke:none;stroke-width:0.35277775" />
    <path
       inkscape:connector-curvature="0"
       id="path951"
       d="m 0.5458789,293.4456 c -0.1901684,0 -0.34588803,0.15572 -0.34588803,0.34589 v 2.65272 c 0,0.19155 0.15571963,0.34589 0.34588803,0.34589 H 3.198602 c 0.1901682,0 0.3458879,-0.15434 0.3458879,-0.34589 v -2.65272 c 0,-0.19017 -0.1557197,-0.34589 -0.3458879,-0.34589 z m 0,0"
       style="fill:#ffffff;fill-opacity:1;fill-rule:nonzero;stroke:none;stroke-width:0.35277775" />
    <path
       inkscape:connector-curvature="0"
       id="path953"
       d="m 3.3240039,296.24577 c -0.063391,0 -0.1254019,-0.0138 -0.1791441,-0.0386 -0.056501,-0.0262 -0.1185121,-0.0413 -0.184658,-0.0413 -0.06477,0 -0.1295365,0.0152 -0.1832787,0.0413 -0.055121,0.0248 -0.1157569,0.0386 -0.1805234,0.0386 -0.062011,0 -0.1240226,-0.0138 -0.1777683,-0.0386 -0.056497,-0.0262 -0.1185121,-0.0413 -0.184658,-0.0413 -0.066146,0 -0.1281571,0.0152 -0.1846544,0.0413 -0.055122,0.0248 -0.115757,0.0386 -0.1791476,0.0386 -0.063387,0 -0.1253984,-0.0138 -0.1777647,-0.0386 -0.056501,-0.0262 -0.1198916,-0.0413 -0.184658,-0.0413 -0.066146,0 -0.1295365,0.0152 -0.184658,0.0413 -0.053742,0.0248 -0.1157535,0.0386 -0.1791441,0.0386 -0.063391,0 -0.1240226,-0.0138 -0.17914408,-0.0386 -0.055122,-0.0262 -0.1185122,-0.0413 -0.18327867,-0.0413 -0.0661458,0 -0.12953645,0.0152 -0.184658,0.0413 -0.0551215,0.0248 -0.11575695,0.0386 -0.17914408,0.0386 v -0.26733 c 0.0633871,0 0.12402256,-0.0152 0.17914408,-0.0386 0.0551216,-0.0262 0.11851217,-0.0413 0.184658,-0.0413 0.0647665,0 0.12815707,0.0152 0.18327867,0.0413 0.055122,0.0234 0.11575338,0.0386 0.17914408,0.0386 0.063391,0 0.1254019,-0.0152 0.1791441,-0.0386 0.055122,-0.0262 0.1185121,-0.0413 0.184658,-0.0413 0.064766,0 0.1281571,0.0152 0.184658,0.0413 0.052366,0.0234 0.1143776,0.0386 0.1777647,0.0386 0.063391,0 0.124026,-0.0152 0.1791476,-0.0386 0.056497,-0.0262 0.1185086,-0.0413 0.1846544,-0.0413 0.066146,0 0.1281607,0.0152 0.184658,0.0413 0.053746,0.0234 0.115757,0.0386 0.1777683,0.0386 0.064767,0 0.1254019,-0.0152 0.1805234,-0.0386 0.053742,-0.0262 0.1185087,-0.0413 0.1832787,-0.0413 0.066146,0 0.1281571,0.0152 0.184658,0.0413 0.053742,0.0234 0.1157534,0.0386 0.1791441,0.0386 z m 0,0"
       style="fill:#211e1e;fill-opacity:1;fill-rule:nonzero;stroke:none;stroke-width:0.35277775" />
    <path
       inkscape:connector-curvature="0"
       id="path955"
       d="m 1.9776592,295.12956 -0.2618281,-0.62563 0.2645833,-0.11162 -0.067522,-0.1626 -0.1791441,0.0758 c 0,0 -0.034466,0.0138 -0.086819,0.0358 l -0.1309123,-0.31282 -0.1626094,0.0675 0.1309123,0.3142 c -0.1391814,0.0579 -0.2838732,0.11851 -0.2838732,0.11851 l 0.068901,0.16261 0.2838767,-0.11851 0.2618246,0.62425 c -0.5401909,0.22737 -1.06659887,0.45062 -1.0349053,0.45062 0.0661458,0 0.12953642,0.0152 0.18465802,0.0413 0.055122,0.0248 0.11575338,0.0386 0.17914408,0.0386 0.063391,0 0.1254019,-0.0138 0.1791441,-0.0386 0.055122,-0.0262 0.1185121,-0.0413 0.184658,-0.0413 0.064766,0 0.1267812,0.0152 0.184658,0.0413 0.053742,0.0248 0.1143776,0.0386 0.1777647,0.0386 0.063391,0 0.1254019,-0.0138 0.1791476,-0.0386 0.055122,-0.0262 0.1185086,-0.0413 0.1846544,-0.0413 0.066146,0 0.1281607,0.0152 0.184658,0.0413 0.053746,0.0248 0.115757,0.0386 0.1791441,0.0386 0.017921,0 0.034466,-0.004 0.05099,-0.005 0.033055,-0.007 0.066146,-0.011 0.09646,-0.0234 0.00141,0 0.00141,0 0.00282,-10e-4 0.056497,-0.32108 0.1901681,-0.966 0.1901681,-0.966 0,0 -0.4630206,0.19017 -0.9604937,0.39825"
       style="fill:#211e1e;fill-opacity:1;fill-rule:nonzero;stroke:none;stroke-width:0.35277775" />
  </g>
</svg>
