<?xml version="1.0" encoding="UTF-8" standalone="no"?>
<!-- Created with Inkscape (http://www.inkscape.org/) -->

<svg
   xmlns:dc="http://purl.org/dc/elements/1.1/"
   xmlns:cc="http://creativecommons.org/ns#"
   xmlns:rdf="http://www.w3.org/1999/02/22-rdf-syntax-ns#"
   xmlns:svg="http://www.w3.org/2000/svg"
   xmlns="http://www.w3.org/2000/svg"
   xmlns:sodipodi="http://sodipodi.sourceforge.net/DTD/sodipodi-0.dtd"
   xmlns:inkscape="http://www.inkscape.org/namespaces/inkscape"
   width="3.75mm"
   height="3.75mm"
   viewBox="0 0 3.75 3.75"
   version="1.1"
   id="svg13826"
   inkscape:version="0.92.1 r15371"
   sodipodi:docname="waterfall_light.svg">
  <defs
     id="defs13820" />
  <sodipodi:namedview
     id="base"
     pagecolor="#ffffff"
     bordercolor="#666666"
     borderopacity="1.0"
     inkscape:pageopacity="0.0"
     inkscape:pageshadow="2"
     inkscape:zoom="28.687777"
     inkscape:cx="6.2597362"
     inkscape:cy="6.238671"
     inkscape:document-units="mm"
     inkscape:current-layer="layer1"
     showgrid="false"
     inkscape:window-width="691"
     inkscape:window-height="712"
     inkscape:window-x="674"
     inkscape:window-y="27"
     inkscape:window-maximized="0"
     showguides="true"
     inkscape:guide-bbox="true"
     gridtolerance="10"
     guidetolerance="2">
    <inkscape:grid
       type="xygrid"
       id="grid13828" />
    <sodipodi:guide
       position="0.13043093,3.8477124"
       orientation="1,0"
       id="guide20533"
       inkscape:locked="false" />
    <sodipodi:guide
       position="1.9173346,3.6129367"
       orientation="0,1"
       id="guide20535"
       inkscape:locked="false" />
  </sodipodi:namedview>
  <metadata
     id="metadata13823">
    <rdf:RDF>
      <cc:Work
         rdf:about="">
        <dc:format>image/svg+xml</dc:format>
        <dc:type
           rdf:resource="http://purl.org/dc/dcmitype/StillImage" />
        <dc:title></dc:title>
      </cc:Work>
    </rdf:RDF>
  </metadata>
  <g
     inkscape:label="Layer 1"
     inkscape:groupmode="layer"
     id="layer1"
     transform="translate(0,-293.25)">
    <path
       inkscape:connector-curvature="0"
       id="path9463"
       d="m 0.54449962,296.87236 c -0.23013106,0 -0.41754425,-0.18741 -0.41754425,-0.41754 v -2.6541 c 0,-0.23014 0.18741319,-0.41755 0.41754425,-0.41755 H 3.1999813 c 0.2301311,0 0.4175442,0.18741 0.4175442,0.41755 v 2.6541 c 0,0.23013 -0.1874131,0.41754 -0.4175442,0.41754 z m 0,0"
       style="fill:#211e1e;fill-opacity:1;fill-rule:nonzero;stroke:none;stroke-width:0.35277775" />
    <path
       inkscape:connector-curvature="0"
       id="path9465"
       d="m 0.54449962,293.45345 c -0.1901684,0 -0.34588803,0.15572 -0.34588803,0.34727 v 2.6541 c 0,0.19017 0.15571963,0.34588 0.34588803,0.34588 H 3.1999813 c 0.1901685,0 0.347264,-0.15571 0.347264,-0.34588 v -2.6541 c 0,-0.19155 -0.1570955,-0.34727 -0.347264,-0.34727 z m 0,0"
       style="fill:#ffffff;fill-opacity:1;fill-rule:nonzero;stroke:none;stroke-width:0.35277775" />
    <path
       inkscape:connector-curvature="0"
       id="path9467"
       d="m 1.1081186,294.15487 c 0.1639852,0.16399 0.2452899,0.51814 0.2452899,1.08314 -0.00141,0.008 -0.00141,0.19017 0.015169,0.38447 0.00963,0.12265 0.0248,0.21498 0.041342,0.28526 0.031679,-0.008 0.064766,-0.0124 0.097839,-0.0124 0.028928,0 0.056501,0.003 0.082684,0.008 -0.035832,-0.12264 -0.063391,-0.39412 -0.060635,-0.66422 0,-0.5705 -0.079925,-0.93982 -0.2480451,-1.15341 0.049608,0.0207 0.093705,0.0482 0.1350468,0.0827 0.071656,0.0606 0.2880078,0.24391 0.3114357,1.07349 0.00963,0.39136 0.049611,0.60772 0.092329,0.73036 0.016545,10e-4 0.033055,0.003 0.050987,0.003 0.045477,0 0.089574,-0.007 0.1309123,-0.0207 -0.038583,-0.0758 -0.086815,-0.30041 -0.099219,-0.71795 -0.01517,-0.58981 -0.1281572,-0.93018 -0.2962769,-1.12724 0.2976562,0.12816 0.4726657,0.42995 0.4960937,1.13275 0.00963,0.28249 0.035828,0.5016 0.081305,0.65595 0.016545,-0.001 0.033055,-0.003 0.050987,-0.003 0.049611,0 0.097839,0.01 0.1433159,0.0248 -0.038583,-0.0978 -0.086815,-0.30179 -0.099219,-0.6835 -0.019297,-0.55949 -0.137802,-0.89573 -0.3265946,-1.09692 0.038583,0.0179 0.07717,0.0372 0.1116224,0.062 0.2604488,0.17501 0.3927404,0.50574 0.4134097,1.04042 0.00963,0.2384 0.031679,0.53468 0.115757,0.73311 0.00141,0 0.00282,0 0.00413,0 0.062015,0 0.1198915,-0.0124 0.1722578,-0.0358 -0.045477,-0.091 -0.1005981,-0.28664 -0.1157569,-0.70418 -0.020673,-0.52779 -0.1474506,-0.85576 -0.3458881,-1.06109 0.027552,0.0124 0.053746,0.0262 0.078549,0.0427 0.2949011,0.17914 0.4423481,0.50574 0.4657759,1.02664 0.013793,0.29214 0.039963,0.50298 0.086815,0.65319 0.00688,0 0.015169,-10e-4 0.022048,-10e-4 0.06477,0 0.1267811,0.0152 0.1832821,0.04 -0.053746,-0.1006 -0.097843,-0.29904 -0.115757,-0.70005 -0.026175,-0.57602 -0.2053273,-0.95911 -0.5498359,-1.16857 -0.3238394,-0.19844 -0.766191,-0.226 -1.1947595,-0.226 H 0.50454293 v 0.11438 h 0.0702804 c 0.21497223,0 0.39963023,0.0675 0.53330127,0.19981"
       style="fill:#211e1e;fill-opacity:1;fill-rule:nonzero;stroke:none;stroke-width:0.35277775" />
    <path
       inkscape:connector-curvature="0"
       id="path9469"
       d="m 3.3240039,296.37351 c -0.063391,0 -0.1240226,-0.0152 -0.1777682,-0.0386 -0.056497,-0.0262 -0.119888,-0.0413 -0.184658,-0.0413 -0.066146,0 -0.1295329,0.0152 -0.1846546,0.0413 -0.053746,0.0234 -0.1157568,0.0386 -0.1791475,0.0386 -0.063387,0 -0.1240225,-0.0152 -0.1791441,-0.0386 -0.055122,-0.0262 -0.1185121,-0.0413 -0.1832786,-0.0413 -0.066146,0 -0.1281571,0.0152 -0.184658,0.0413 -0.055122,0.0234 -0.1157534,0.0386 -0.1791441,0.0386 -0.063391,0 -0.1254019,-0.0152 -0.1791441,-0.0386 -0.055122,-0.0262 -0.1185121,-0.0413 -0.1832786,-0.0413 -0.066146,0 -0.1295365,0.0152 -0.184658,0.0413 -0.055121,0.0234 -0.115757,0.0386 -0.1791441,0.0386 -0.063391,0 -0.124026,-0.0152 -0.17914764,-0.0386 -0.056497,-0.0262 -0.1185086,-0.0413 -0.1846544,-0.0413 -0.06477,0 -0.12815714,0.0152 -0.18327865,0.0413 -0.0551215,0.0234 -0.11575699,0.0386 -0.17914761,0.0386 v -0.26871 c 0.0633906,0 0.12402609,-0.0138 0.17914761,-0.0386 0.0551215,-0.0248 0.11850865,-0.04 0.18327865,-0.04 0.066146,0 0.1281571,0.0152 0.1846544,0.04 0.055122,0.0248 0.11575704,0.0386 0.17914764,0.0386 0.063387,0 0.1240226,-0.0138 0.1791441,-0.0386 0.055122,-0.0248 0.1185122,-0.04 0.184658,-0.04 0.064767,0 0.1281571,0.0152 0.1832786,0.04 0.053742,0.0248 0.1157535,0.0386 0.1791441,0.0386 0.063391,0 0.1240226,-0.0138 0.1791441,-0.0386 0.056501,-0.0248 0.1185122,-0.04 0.184658,-0.04 0.064766,0 0.1281571,0.0152 0.1832786,0.04 0.055122,0.0248 0.115757,0.0386 0.1791441,0.0386 0.063391,0 0.1254019,-0.0138 0.1791475,-0.0386 0.055122,-0.0248 0.1185087,-0.04 0.1846546,-0.04 0.06477,0 0.1281607,0.0152 0.184658,0.04 0.053746,0.0248 0.1143775,0.0386 0.1777682,0.0386 z m 0,0"
       style="fill:#211e1e;fill-opacity:1;fill-rule:nonzero;stroke:none;stroke-width:0.35277775" />
  </g>
</svg>
