<?xml version="1.0" encoding="UTF-8" standalone="no"?>
<!-- Created with Inkscape (http://www.inkscape.org/) -->

<svg
   xmlns:dc="http://purl.org/dc/elements/1.1/"
   xmlns:cc="http://creativecommons.org/ns#"
   xmlns:rdf="http://www.w3.org/1999/02/22-rdf-syntax-ns#"
   xmlns:svg="http://www.w3.org/2000/svg"
   xmlns="http://www.w3.org/2000/svg"
   xmlns:sodipodi="http://sodipodi.sourceforge.net/DTD/sodipodi-0.dtd"
   xmlns:inkscape="http://www.inkscape.org/namespaces/inkscape"
   width="3.75mm"
   height="3.75mm"
   viewBox="0 0 3.75 3.75"
   version="1.1"
   id="svg13826"
   inkscape:version="0.92.1 r15371"
   sodipodi:docname="ais_inspection_light.svg">
  <defs
     id="defs13820" />
  <sodipodi:namedview
     id="base"
     pagecolor="#ffffff"
     bordercolor="#666666"
     borderopacity="1.0"
     inkscape:pageopacity="0.0"
     inkscape:pageshadow="2"
     inkscape:zoom="28.687777"
     inkscape:cx="7.3622402"
     inkscape:cy="6.238671"
     inkscape:document-units="mm"
     inkscape:current-layer="layer1"
     showgrid="false"
     inkscape:window-width="691"
     inkscape:window-height="712"
     inkscape:window-x="674"
     inkscape:window-y="27"
     inkscape:window-maximized="0"
     showguides="true"
     inkscape:guide-bbox="true"
     gridtolerance="10"
     guidetolerance="2">
    <inkscape:grid
       type="xygrid"
       id="grid13828" />
    <sodipodi:guide
       position="0.13043093,3.8477124"
       orientation="1,0"
       id="guide20533"
       inkscape:locked="false" />
    <sodipodi:guide
       position="1.9173346,3.6129367"
       orientation="0,1"
       id="guide20535"
       inkscape:locked="false" />
  </sodipodi:namedview>
  <metadata
     id="metadata13823">
    <rdf:RDF>
      <cc:Work
         rdf:about="">
        <dc:format>image/svg+xml</dc:format>
        <dc:type
           rdf:resource="http://purl.org/dc/dcmitype/StillImage" />
        <dc:title></dc:title>
      </cc:Work>
    </rdf:RDF>
  </metadata>
  <g
     inkscape:label="Layer 1"
     inkscape:groupmode="layer"
     id="layer1"
     transform="translate(0,-293.25)">
    <path
       inkscape:connector-curvature="0"
       id="path10723"
       d="m 3.1992916,296.87098 c 0.2301311,0 0.4161684,-0.18604 0.4161684,-0.41617 v -2.65411 c 0,-0.23013 -0.1860373,-0.41616 -0.4161684,-0.41616 H 0.54518924 c -0.22875523,0 -0.41616842,0.18603 -0.41616842,0.41616 v 2.65411 c 0,0.23013 0.18741319,0.41617 0.41616842,0.41617 z m 0,0"
       style="fill:#211e1e;fill-opacity:1;fill-rule:nonzero;stroke:none;stroke-width:0.35277775" />
    <path
       inkscape:connector-curvature="0"
       id="path10725"
       d="m 0.54380986,293.45482 c -0.19016838,0 -0.34588449,0.15572 -0.34588449,0.34588 v 2.65411 c 0,0.19155 0.15571611,0.34726 0.34588449,0.34726 H 3.1992916 c 0.1901684,0 0.3472637,-0.15571 0.3472637,-0.34726 v -2.65411 c 0,-0.19016 -0.1570953,-0.34588 -0.3472637,-0.34588 z m 0,0"
       style="fill:#ffffff;fill-opacity:1;fill-rule:nonzero;stroke:none;stroke-width:0.35277775" />
    <path
       inkscape:connector-curvature="0"
       id="path10727"
       d="M 2.969157,294.00879 H 0.77669963 v -0.14194 H 2.969157 Z m 0,0"
       style="fill:#211e1e;fill-opacity:1;fill-rule:nonzero;stroke:none;stroke-width:0.35277775" />
    <path
       inkscape:connector-curvature="0"
       id="path10729"
       d="M 2.969157,294.37259 H 0.77669963 v -0.14194 H 2.969157 Z m 0,0"
       style="fill:#211e1e;fill-opacity:1;fill-rule:nonzero;stroke:none;stroke-width:0.35277775" />
    <path
       inkscape:connector-curvature="0"
       id="path10731"
       d="M 2.4606631,294.73639 H 0.77669963 v -0.14194 H 2.4606631 Z m 0,0"
       style="fill:#211e1e;fill-opacity:1;fill-rule:nonzero;stroke:none;stroke-width:0.35277775" />
    <path
       inkscape:connector-curvature="0"
       id="path10733"
       d="m 2.6673697,295.87879 c -0.07166,0 -0.1295364,-0.0579 -0.1295364,-0.12954 0,-0.0716 0.057877,-0.12953 0.1295364,-0.12953 0.071656,0 0.129533,0.0579 0.129533,0.12953 0,0.0717 -0.057877,0.12954 -0.129533,0.12954 M 2.5626371,295.48191 2.2746258,295.1374 v 0.30593 c -0.055122,-0.004 -0.1074844,-0.0124 -0.1653646,-0.0124 l -0.2315104,-0.29628 -0.016545,0.31144 c -0.067525,0.006 -0.1364262,0.01 -0.1998168,0.0207 l -0.1860339,-0.22738 -0.00688,0.27561 c -0.073036,0.0193 -0.1419403,0.0413 -0.2067068,0.0689 L 1.0743552,295.3593 v 0.30868 c -0.049608,0.0275 -0.0868151,0.0592 -0.12953648,0.0909 -0.0413385,-0.0331 -0.0771702,-0.0689 -0.12264321,-0.0992 -0.0895738,-0.0593 -0.31005989,-0.11437 -0.41754777,-0.16261 l 0.24253473,0.35416 -0.24253473,0.35415 c 0.10748788,-0.0482 0.32797398,-0.10335 0.41754777,-0.16261 0.0454731,-0.0303 0.0813047,-0.0661 0.12264321,-0.0992 0.26734198,0.19843 0.66972738,0.33072 1.13688278,0.33072 0.345888,0 0.6531892,-0.0758 0.9026136,-0.19292 l 0.090953,0.27423 0.1061085,-0.38447 c 0.056498,-0.0386 0.1143778,-0.0758 0.1584749,-0.11989 -0.1722578,-0.17226 -0.4492414,-0.30179 -0.7772152,-0.36932"
       style="fill:#211e1e;fill-opacity:1;fill-rule:nonzero;stroke:none;stroke-width:0.35277775" />
  </g>
</svg>
