<?xml version="1.0" encoding="UTF-8" standalone="no"?>
<!-- Created with Inkscape (http://www.inkscape.org/) -->

<svg
   xmlns:dc="http://purl.org/dc/elements/1.1/"
   xmlns:cc="http://creativecommons.org/ns#"
   xmlns:rdf="http://www.w3.org/1999/02/22-rdf-syntax-ns#"
   xmlns:svg="http://www.w3.org/2000/svg"
   xmlns="http://www.w3.org/2000/svg"
   xmlns:sodipodi="http://sodipodi.sourceforge.net/DTD/sodipodi-0.dtd"
   xmlns:inkscape="http://www.inkscape.org/namespaces/inkscape"
   width="3.75mm"
   height="3.75mm"
   viewBox="0 0 3.75 3.75"
   version="1.1"
   id="svg13826"
   inkscape:version="0.92.1 r15371"
   sodipodi:docname="ais_inspection_dark.svg">
  <defs
     id="defs13820" />
  <sodipodi:namedview
     id="base"
     pagecolor="#ffffff"
     bordercolor="#666666"
     borderopacity="1.0"
     inkscape:pageopacity="0.0"
     inkscape:pageshadow="2"
     inkscape:zoom="28.687777"
     inkscape:cx="7.3622402"
     inkscape:cy="6.238671"
     inkscape:document-units="mm"
     inkscape:current-layer="layer1"
     showgrid="false"
     inkscape:window-width="691"
     inkscape:window-height="712"
     inkscape:window-x="674"
     inkscape:window-y="27"
     inkscape:window-maximized="0"
     showguides="true"
     inkscape:guide-bbox="true"
     gridtolerance="10"
     guidetolerance="2">
    <inkscape:grid
       type="xygrid"
       id="grid13828" />
    <sodipodi:guide
       position="0.13043093,3.8477124"
       orientation="1,0"
       id="guide20533"
       inkscape:locked="false" />
    <sodipodi:guide
       position="1.9173346,3.6129367"
       orientation="0,1"
       id="guide20535"
       inkscape:locked="false" />
  </sodipodi:namedview>
  <metadata
     id="metadata13823">
    <rdf:RDF>
      <cc:Work
         rdf:about="">
        <dc:format>image/svg+xml</dc:format>
        <dc:type
           rdf:resource="http://purl.org/dc/dcmitype/StillImage" />
        <dc:title></dc:title>
      </cc:Work>
    </rdf:RDF>
  </metadata>
  <g
     inkscape:label="Layer 1"
     inkscape:groupmode="layer"
     id="layer1"
     transform="translate(0,-293.25)">
    <path
       inkscape:connector-curvature="0"
       id="path10347"
       d="m 0.54518924,293.43637 c -0.1901684,0 -0.34588803,0.15572 -0.34588803,0.34588 v 2.65411 c 0,0.19017 0.15571963,0.34589 0.34588803,0.34589 H 3.1992916 c 0.1901684,0 0.3458879,-0.15572 0.3458879,-0.34589 v -2.65411 c 0,-0.19016 -0.1557195,-0.34588 -0.3458879,-0.34588 z m 0,0"
       style="fill:#ffffff;fill-opacity:1;fill-rule:nonzero;stroke:none;stroke-width:0.35277775" />
    <path
       inkscape:connector-curvature="0"
       id="path10349"
       d="m 3.1992916,296.85253 c 0.2301311,0 0.4161684,-0.18604 0.4161684,-0.41617 v -2.65411 c 0,-0.23013 -0.1860373,-0.41616 -0.4161684,-0.41616 H 0.54518924 c -0.23013106,0 -0.41616842,0.18603 -0.41616842,0.41616 v 2.65411 c 0,0.23013 0.18603736,0.41617 0.41616842,0.41617 z m 0,0"
       style="fill:#211e1e;fill-opacity:1;fill-rule:nonzero;stroke:none;stroke-width:0.35277775" />
    <path
       inkscape:connector-curvature="0"
       id="path10351"
       d="M 2.969157,293.99034 H 0.77532024 v -0.14056 H 2.969157 Z m 0,0"
       style="fill:#ffffff;fill-opacity:1;fill-rule:nonzero;stroke:none;stroke-width:0.35277775" />
    <path
       inkscape:connector-curvature="0"
       id="path10353"
       d="M 2.969157,294.35414 H 0.77532024 v -0.14056 H 2.969157 Z m 0,0"
       style="fill:#ffffff;fill-opacity:1;fill-rule:nonzero;stroke:none;stroke-width:0.35277775" />
    <path
       inkscape:connector-curvature="0"
       id="path10355"
       d="M 2.4606631,294.71794 H 0.77669964 v -0.14056 H 2.4606631 Z m 0,0"
       style="fill:#ffffff;fill-opacity:1;fill-rule:nonzero;stroke:none;stroke-width:0.35277775" />
    <path
       inkscape:connector-curvature="0"
       id="path10357"
       d="m 2.6673697,295.86034 c -0.07166,0 -0.1295364,-0.0579 -0.1295364,-0.12954 0,-0.0716 0.057877,-0.12953 0.1295364,-0.12953 0.070277,0 0.1281571,0.0579 0.1281571,0.12953 0,0.0717 -0.05788,0.12954 -0.1281571,0.12954 m -0.1047326,-0.3955 -0.2893872,-0.34589 v 0.30731 c -0.053746,-0.004 -0.1074878,-0.0124 -0.1639887,-0.0138 l -0.2328862,-0.29628 -0.015169,0.31144 c -0.067525,0.007 -0.1364262,0.011 -0.2011927,0.022 l -0.184658,-0.22876 -0.00688,0.27561 c -0.073036,0.0207 -0.1419403,0.0427 -0.2080861,0.0689 L 1.072976,295.34213 v 0.30868 c -0.048228,0.0262 -0.086815,0.0593 -0.12815706,0.0896 -0.041339,-0.0331 -0.07717,-0.0689 -0.1240226,-0.0992 -0.0895738,-0.0593 -0.30868052,-0.11299 -0.4161684,-0.16123 l 0.2411589,0.35278 -0.2411589,0.35416 c 0.10748788,-0.0482 0.3265946,-0.10198 0.4161684,-0.16123 0.046852,-0.0303 0.082684,-0.0661 0.1240226,-0.0992 0.26596266,0.19706 0.66972736,0.32935 1.13688276,0.32935 0.3445086,0 0.6531892,-0.0744 0.9012377,-0.19155 l 0.092329,0.27285 0.1061085,-0.38309 c 0.056498,-0.0386 0.1143778,-0.0772 0.1584749,-0.12127 -0.1722578,-0.17087 -0.4492414,-0.30041 -0.7772152,-0.36794"
       style="fill:#ffffff;fill-opacity:1;fill-rule:nonzero;stroke:none;stroke-width:0.35277775" />
  </g>
</svg>
