<?xml version="1.0" encoding="UTF-8" standalone="no"?>
<!-- Created with Inkscape (http://www.inkscape.org/) -->

<svg
   xmlns:dc="http://purl.org/dc/elements/1.1/"
   xmlns:cc="http://creativecommons.org/ns#"
   xmlns:rdf="http://www.w3.org/1999/02/22-rdf-syntax-ns#"
   xmlns:svg="http://www.w3.org/2000/svg"
   xmlns="http://www.w3.org/2000/svg"
   xmlns:sodipodi="http://sodipodi.sourceforge.net/DTD/sodipodi-0.dtd"
   xmlns:inkscape="http://www.inkscape.org/namespaces/inkscape"
   width="3.75mm"
   height="3.75mm"
   viewBox="0 0 3.75 3.75"
   version="1.1"
   id="svg13826"
   inkscape:version="0.92.1 r15371"
   sodipodi:docname="boating_permit_dark.svg">
  <defs
     id="defs13820" />
  <sodipodi:namedview
     id="base"
     pagecolor="#ffffff"
     bordercolor="#666666"
     borderopacity="1.0"
     inkscape:pageopacity="0.0"
     inkscape:pageshadow="2"
     inkscape:zoom="28.687777"
     inkscape:cx="6.7191129"
     inkscape:cy="6.238671"
     inkscape:document-units="mm"
     inkscape:current-layer="layer1"
     showgrid="false"
     inkscape:window-width="691"
     inkscape:window-height="712"
     inkscape:window-x="674"
     inkscape:window-y="27"
     inkscape:window-maximized="0"
     showguides="true"
     inkscape:guide-bbox="true"
     gridtolerance="10"
     guidetolerance="2">
    <inkscape:grid
       type="xygrid"
       id="grid13828" />
    <sodipodi:guide
       position="0.13043093,3.8477124"
       orientation="1,0"
       id="guide20533"
       inkscape:locked="false" />
    <sodipodi:guide
       position="1.9173346,3.6129367"
       orientation="0,1"
       id="guide20535"
       inkscape:locked="false" />
  </sodipodi:namedview>
  <metadata
     id="metadata13823">
    <rdf:RDF>
      <cc:Work
         rdf:about="">
        <dc:format>image/svg+xml</dc:format>
        <dc:type
           rdf:resource="http://purl.org/dc/dcmitype/StillImage" />
        <dc:title></dc:title>
      </cc:Work>
    </rdf:RDF>
  </metadata>
  <g
     inkscape:label="Layer 1"
     inkscape:groupmode="layer"
     id="layer1"
     transform="translate(0,-293.25)">
    <path
       inkscape:connector-curvature="0"
       id="path10145"
       d="m 0.54518924,293.4456 c -0.1901684,0 -0.34588803,0.15572 -0.34588803,0.34588 v 2.65411 c 0,0.19017 0.15571963,0.34589 0.34588803,0.34589 H 3.1992916 c 0.1901684,0 0.3458879,-0.15572 0.3458879,-0.34589 v -2.65411 c 0,-0.19016 -0.1557195,-0.34588 -0.3458879,-0.34588 z m 0,0"
       style="fill:#ffffff;fill-opacity:1;fill-rule:nonzero;stroke:none;stroke-width:0.35277775" />
    <path
       inkscape:connector-curvature="0"
       id="path10147"
       d="m 3.1992916,296.86176 c 0.2301311,0 0.4161684,-0.18604 0.4161684,-0.41755 v -2.65273 c 0,-0.23013 -0.1860373,-0.41616 -0.4161684,-0.41616 H 0.54518924 c -0.23013106,0 -0.41616842,0.18603 -0.41616842,0.41616 v 2.65273 c 0,0.23151 0.18603736,0.41755 0.41616842,0.41755 z m 0,0"
       style="fill:#211e1e;fill-opacity:1;fill-rule:nonzero;stroke:none;stroke-width:0.35277775" />
    <path
       inkscape:connector-curvature="0"
       id="path10149"
       d="m 2.6618558,295.8048 0.5043629,0.04 -0.038587,-0.25769 -0.3693124,-0.0262 c -0.1005981,-0.004 -0.085439,0.0951 -0.085439,0.0951 z m 0,0"
       style="fill:#ffffff;fill-opacity:1;fill-rule:nonzero;stroke:none;stroke-width:0.35277775" />
    <path
       inkscape:connector-curvature="0"
       id="path10151"
       d="m 1.7564834,295.73039 c 0.092329,0 0.166744,-0.0744 0.166744,-0.16675 0,-0.0923 -0.074415,-0.16674 -0.166744,-0.16674 -0.092325,0 -0.1667404,0.0744 -0.1667404,0.16674 0,0.0923 0.074415,0.16675 0.1667404,0.16675"
       style="fill:#ffffff;fill-opacity:1;fill-rule:nonzero;stroke:none;stroke-width:0.35277775" />
    <path
       inkscape:connector-curvature="0"
       id="path10153"
       d="m 0.69952951,296.38909 c 0.0220485,-0.007 0.0427178,-0.0138 0.0620113,-0.0234 0.0537457,-0.0248 0.11299825,-0.0386 0.17501308,-0.0386 0.063387,0 0.12264321,0.0138 0.17638891,0.0386 0.050987,0.0234 0.1088636,0.0372 0.1694955,0.0372 0.060636,0 0.1185122,-0.0138 0.1708785,-0.0372 0.052366,-0.0248 0.1116224,-0.0386 0.1750095,-0.0386 0.063391,0 0.1226467,0.0138 0.1763889,0.0386 0.050987,0.0234 0.1088672,0.0372 0.1694991,0.0372 0.060636,0 0.1185122,-0.0138 0.1708785,-0.0372 0.052363,-0.0248 0.1129983,-0.0386 0.1750095,-0.0386 0.063391,0 0.1226468,0.0138 0.1763889,0.0386 0.050987,0.0234 0.1088637,0.0372 0.1694992,0.0372 0.060632,0 0.118512,-0.0138 0.1708749,-0.0372 0.052366,-0.0248 0.1130017,-0.0386 0.176389,-0.0386 0.060635,0 0.1212673,0.0138 0.1750129,0.0386 0.050987,0.0234 0.1088638,0.0372 0.1694992,0.0372 l -0.056501,-0.45613 -2.14836,-0.18052 0.3155702,-0.31833 -0.1543402,-0.0138 -0.31557021,0.3197 -0.61185075,-0.0496 c -0.004127,0.23289 0.25631421,0.62149 0.31281511,0.68488"
       style="fill:#ffffff;fill-opacity:1;fill-rule:nonzero;stroke:none;stroke-width:0.35277775" />
    <path
       inkscape:connector-curvature="0"
       id="path10155"
       d="M 2.969157,294.0354 H 0.77532027 v -0.14056 H 2.969157 Z m 0,0"
       style="fill:#ffffff;fill-opacity:1;fill-rule:nonzero;stroke:none;stroke-width:0.35277775" />
    <path
       inkscape:connector-curvature="0"
       id="path10157"
       d="M 2.969157,294.40058 H 0.77532027 v -0.14194 H 2.969157 Z m 0,0"
       style="fill:#ffffff;fill-opacity:1;fill-rule:nonzero;stroke:none;stroke-width:0.35277775" />
    <path
       inkscape:connector-curvature="0"
       id="path10159"
       d="M 2.4606631,294.76438 H 0.77669963 v -0.14056 H 2.4606631 Z m 0,0"
       style="fill:#ffffff;fill-opacity:1;fill-rule:nonzero;stroke:none;stroke-width:0.35277775" />
  </g>
</svg>
