<?xml version="1.0" encoding="UTF-8" standalone="no"?>
<!-- Created with Inkscape (http://www.inkscape.org/) -->

<svg
   xmlns:dc="http://purl.org/dc/elements/1.1/"
   xmlns:cc="http://creativecommons.org/ns#"
   xmlns:rdf="http://www.w3.org/1999/02/22-rdf-syntax-ns#"
   xmlns:svg="http://www.w3.org/2000/svg"
   xmlns="http://www.w3.org/2000/svg"
   xmlns:sodipodi="http://sodipodi.sourceforge.net/DTD/sodipodi-0.dtd"
   xmlns:inkscape="http://www.inkscape.org/namespaces/inkscape"
   width="3.75mm"
   height="3.75mm"
   viewBox="0 0 3.75 3.75"
   version="1.1"
   id="svg13826"
   inkscape:version="0.92.1 r15371"
   sodipodi:docname="boating_permit_light.svg">
  <defs
     id="defs13820" />
  <sodipodi:namedview
     id="base"
     pagecolor="#ffffff"
     bordercolor="#666666"
     borderopacity="1.0"
     inkscape:pageopacity="0.0"
     inkscape:pageshadow="2"
     inkscape:zoom="28.687777"
     inkscape:cx="6.7191129"
     inkscape:cy="6.238671"
     inkscape:document-units="mm"
     inkscape:current-layer="layer1"
     showgrid="false"
     inkscape:window-width="691"
     inkscape:window-height="712"
     inkscape:window-x="674"
     inkscape:window-y="27"
     inkscape:window-maximized="0"
     showguides="true"
     inkscape:guide-bbox="true"
     gridtolerance="10"
     guidetolerance="2">
    <inkscape:grid
       type="xygrid"
       id="grid13828" />
    <sodipodi:guide
       position="0.13043093,3.8477124"
       orientation="1,0"
       id="guide20533"
       inkscape:locked="false" />
    <sodipodi:guide
       position="1.9173346,3.6129367"
       orientation="0,1"
       id="guide20535"
       inkscape:locked="false" />
  </sodipodi:namedview>
  <metadata
     id="metadata13823">
    <rdf:RDF>
      <cc:Work
         rdf:about="">
        <dc:format>image/svg+xml</dc:format>
        <dc:type
           rdf:resource="http://purl.org/dc/dcmitype/StillImage" />
        <dc:title></dc:title>
      </cc:Work>
    </rdf:RDF>
  </metadata>
  <g
     inkscape:label="Layer 1"
     inkscape:groupmode="layer"
     id="layer1"
     transform="translate(0,-293.25)">
    <path
       inkscape:connector-curvature="0"
       id="path10627"
       d="m 3.1716231,296.87167 c 0.2301311,0 0.4161684,-0.18604 0.4161684,-0.41755 v -2.65273 c 0,-0.23013 -0.1860373,-0.41754 -0.4161684,-0.41754 H 0.51752066 c -0.22875523,0 -0.41616842,0.18741 -0.41616842,0.41754 v 2.65273 c 0,0.23151 0.18741319,0.41755 0.41616842,0.41755 z m 0,0"
       style="fill:#211e1e;fill-opacity:1;fill-rule:nonzero;stroke:none;stroke-width:0.35277775" />
    <path
       inkscape:connector-curvature="0"
       id="path10629"
       d="m 0.51614128,293.45413 c -0.19016838,0 -0.34588449,0.15572 -0.34588449,0.34726 v 2.65411 c 0,0.19154 0.15571611,0.34588 0.34588449,0.34588 H 3.1716231 c 0.1901684,0 0.3472637,-0.15434 0.3472637,-0.34588 v -2.65411 c 0,-0.19154 -0.1570953,-0.34726 -0.3472637,-0.34726 z m 0,0"
       style="fill:#ffffff;fill-opacity:1;fill-rule:nonzero;stroke:none;stroke-width:0.35277775" />
    <path
       inkscape:connector-curvature="0"
       id="path10631"
       d="m 2.6355667,295.81471 0.5029835,0.0386 -0.038587,-0.25631 -0.3693124,-0.0262 c -0.099219,-0.006 -0.085439,0.0951 -0.085439,0.0951 z m 0,0"
       style="fill:#211e1e;fill-opacity:1;fill-rule:nonzero;stroke:none;stroke-width:0.35277775" />
    <path
       inkscape:connector-curvature="0"
       id="path10633"
       d="m 1.7288149,295.7403 c 0.093708,0 0.1681233,-0.0758 0.1681233,-0.16812 0,-0.091 -0.074415,-0.16537 -0.1681233,-0.16537 -0.092325,0 -0.1667404,0.0744 -0.1667404,0.16537 0,0.0923 0.074415,0.16812 0.1667404,0.16812"
       style="fill:#211e1e;fill-opacity:1;fill-rule:nonzero;stroke:none;stroke-width:0.35277775" />
    <path
       inkscape:connector-curvature="0"
       id="path10635"
       d="m 0.67324028,296.399 c 0.0206727,-0.007 0.0413385,-0.0152 0.0606319,-0.0234 0.0537457,-0.0262 0.11299825,-0.04 0.1763889,-0.04 0.0620113,0 0.12126742,0.0138 0.17501302,0.04 0.050987,0.0234 0.1088638,0.0372 0.1694957,0.0372 0.060636,0 0.1185122,-0.0138 0.1708785,-0.0372 0.053742,-0.0262 0.1129982,-0.04 0.1750095,-0.04 0.063391,0 0.1226467,0.0138 0.1763889,0.04 0.050987,0.0234 0.1088672,0.0372 0.1694991,0.0372 0.060636,0 0.1185122,-0.0138 0.1708785,-0.0372 0.053742,-0.0262 0.1129983,-0.04 0.1750095,-0.04 0.063391,0 0.1226468,0.0138 0.1763889,0.04 0.050987,0.0234 0.1102431,0.0372 0.1694992,0.0372 0.060632,0 0.118512,-0.0138 0.1708749,-0.0372 0.053746,-0.0262 0.1130017,-0.04 0.176389,-0.04 0.062015,0 0.1212673,0.0138 0.1750129,0.04 0.050987,0.0234 0.1088638,0.0372 0.1694992,0.0372 l -0.056501,-0.45613 -2.1469842,-0.1819 0.3141944,-0.31695 -0.1543402,-0.0138 -0.31557038,0.31833 -0.61185071,-0.0496 c -0.002822,0.23427 0.25769359,0.62149 0.31419446,0.68626"
       style="fill:#211e1e;fill-opacity:1;fill-rule:nonzero;stroke:none;stroke-width:0.35277775" />
    <path
       inkscape:connector-curvature="0"
       id="path10637"
       d="M 2.9414885,294.04531 H 0.74903105 v -0.14194 H 2.9414885 Z m 0,0"
       style="fill:#211e1e;fill-opacity:1;fill-rule:nonzero;stroke:none;stroke-width:0.35277775" />
    <path
       inkscape:connector-curvature="0"
       id="path10639"
       d="M 2.9414885,294.40911 H 0.74903105 v -0.14056 H 2.9414885 Z m 0,0"
       style="fill:#211e1e;fill-opacity:1;fill-rule:nonzero;stroke:none;stroke-width:0.35277775" />
    <path
       inkscape:connector-curvature="0"
       id="path10641"
       d="M 2.4329946,294.77291 H 0.74903105 v -0.14056 H 2.4329946 Z m 0,0"
       style="fill:#211e1e;fill-opacity:1;fill-rule:nonzero;stroke:none;stroke-width:0.35277775" />
  </g>
</svg>
