<?xml version="1.0" encoding="UTF-8" standalone="no"?>
<!-- Created with Inkscape (http://www.inkscape.org/) -->

<svg
   xmlns:dc="http://purl.org/dc/elements/1.1/"
   xmlns:cc="http://creativecommons.org/ns#"
   xmlns:rdf="http://www.w3.org/1999/02/22-rdf-syntax-ns#"
   xmlns:svg="http://www.w3.org/2000/svg"
   xmlns="http://www.w3.org/2000/svg"
   xmlns:sodipodi="http://sodipodi.sourceforge.net/DTD/sodipodi-0.dtd"
   xmlns:inkscape="http://www.inkscape.org/namespaces/inkscape"
   width="3.75mm"
   height="3.75mm"
   viewBox="0 0 3.75 3.75"
   version="1.1"
   id="svg13826"
   inkscape:version="0.92.1 r15371"
   sodipodi:docname="fishing_license_light.svg">
  <defs
     id="defs13820" />
  <sodipodi:namedview
     id="base"
     pagecolor="#ffffff"
     bordercolor="#666666"
     borderopacity="1.0"
     inkscape:pageopacity="0.0"
     inkscape:pageshadow="2"
     inkscape:zoom="28.687777"
     inkscape:cx="6.7191129"
     inkscape:cy="6.238671"
     inkscape:document-units="mm"
     inkscape:current-layer="layer1"
     showgrid="false"
     inkscape:window-width="691"
     inkscape:window-height="712"
     inkscape:window-x="674"
     inkscape:window-y="27"
     inkscape:window-maximized="0"
     showguides="true"
     inkscape:guide-bbox="true"
     gridtolerance="10"
     guidetolerance="2">
    <inkscape:grid
       type="xygrid"
       id="grid13828" />
    <sodipodi:guide
       position="0.13043093,3.8477124"
       orientation="1,0"
       id="guide20533"
       inkscape:locked="false" />
    <sodipodi:guide
       position="1.9173346,3.6129367"
       orientation="0,1"
       id="guide20535"
       inkscape:locked="false" />
  </sodipodi:namedview>
  <metadata
     id="metadata13823">
    <rdf:RDF>
      <cc:Work
         rdf:about="">
        <dc:format>image/svg+xml</dc:format>
        <dc:type
           rdf:resource="http://purl.org/dc/dcmitype/StillImage" />
        <dc:title></dc:title>
      </cc:Work>
    </rdf:RDF>
  </metadata>
  <g
     inkscape:label="Layer 1"
     inkscape:groupmode="layer"
     id="layer1"
     transform="translate(0,-293.25)">
    <path
       inkscape:connector-curvature="0"
       id="path10613"
       d="m 3.1992916,296.87098 c 0.2301311,0 0.4161684,-0.18604 0.4161684,-0.41617 v -2.65272 c 0,-0.23014 -0.1860373,-0.41755 -0.4161684,-0.41755 H 0.54518925 c -0.22875523,0 -0.41616842,0.18741 -0.41616842,0.41755 v 2.65272 c 0,0.23013 0.18741319,0.41617 0.41616842,0.41617 z m 0,0"
       style="fill:#211e1e;fill-opacity:1;fill-rule:nonzero;stroke:none;stroke-width:0.35277775" />
    <path
       inkscape:connector-curvature="0"
       id="path10615"
       d="m 0.54380987,293.45482 c -0.19016838,0 -0.34588449,0.15572 -0.34588449,0.34727 v 2.6541 c 0,0.19017 0.15571611,0.34588 0.34588449,0.34588 H 3.1992916 c 0.1901684,0 0.3472637,-0.15571 0.3472637,-0.34588 v -2.6541 c 0,-0.19155 -0.1570953,-0.34727 -0.3472637,-0.34727 z m 0,0"
       style="fill:#ffffff;fill-opacity:1;fill-rule:nonzero;stroke:none;stroke-width:0.35277775" />
    <path
       inkscape:connector-curvature="0"
       id="path10617"
       d="m 3.297131,296.48926 c -0.6711033,0.01 -1.3739036,-0.11713 -1.9113394,-0.54984 -0.00282,-0.003 -0.00413,-0.007 -0.00413,-0.0124 0,-0.01 0.00826,-0.0179 0.017921,-0.0179 l 0.5291667,0.001 c 0.026176,0 0.046852,-0.022 0.046852,-0.0469 0,-0.0193 -0.00826,-0.0331 -0.028928,-0.0441 l -0.4795589,-0.22738 c -0.00825,-0.007 -0.015169,-0.0165 -0.015169,-0.0276 0,-0.008 0.00413,-0.0165 0.00967,-0.022 0,0 0.5829089,-0.51539 1.835545,-0.50437 z m -1.1230998,-0.81717 c 0.063391,0 0.1129982,-0.0496 0.1129982,-0.11301 0,-0.062 -0.049608,-0.11299 -0.1129982,-0.11299 -0.062011,0 -0.1129982,0.051 -0.1129982,0.11299 0,0.0634 0.050987,0.11301 0.1129982,0.11301"
       style="fill:#211e1e;fill-opacity:1;fill-rule:nonzero;stroke:none;stroke-width:0.35277775" />
    <path
       inkscape:connector-curvature="0"
       id="path10619"
       d="m 1.1666849,295.26281 c 0,-0.0841 -0.067525,-0.15159 -0.1515851,-0.15159 -0.0840599,0 -0.15158508,0.0675 -0.15158508,0.15159 0,0.062 0.0372075,0.11437 0.0895738,0.1378 0,0.0372 -0.009631,0.7345 -0.009631,0.7345 -0.00141,0.0441 -0.0192969,0.0854 -0.0523663,0.11713 -0.0316794,0.0303 -0.0744149,0.0469 -0.11851217,0.0455 -0.0427179,-10e-4 -0.0813047,-0.0193 -0.11024306,-0.0469 -0.0330553,-0.0317 -0.0537421,-0.0758 -0.0523663,-0.12402 0,0 0.008255,-0.0289 0.0137935,-0.0524 0.0248002,0.0179 0.10059459,0.073 0.10059459,0.073 l -0.0661458,-0.46027 -0.14193652,0.30317 c -0.0372075,0.0799 -0.0303036,0.13367 -0.0289278,0.13643 -0.004127,0.15709 0.12126738,0.29076 0.28111802,0.2949 0.16123005,0.004 0.29490112,-0.12265 0.29903562,-0.28388 v -0.004 c 0,0 0.00413,-0.69866 0.00413,-0.73036 0.055122,-0.022 0.095084,-0.0758 0.095084,-0.14056"
       style="fill:#211e1e;fill-opacity:1;fill-rule:nonzero;stroke:none;stroke-width:0.35277775" />
    <path
       inkscape:connector-curvature="0"
       id="path10621"
       d="M 2.969157,293.88201 H 0.77669964 v -0.14056 H 2.969157 Z m 0,0"
       style="fill:#211e1e;fill-opacity:1;fill-rule:nonzero;stroke:none;stroke-width:0.35277775" />
    <path
       inkscape:connector-curvature="0"
       id="path10623"
       d="M 2.969157,294.24582 H 0.77669964 v -0.14057 H 2.969157 Z m 0,0"
       style="fill:#211e1e;fill-opacity:1;fill-rule:nonzero;stroke:none;stroke-width:0.35277775" />
    <path
       inkscape:connector-curvature="0"
       id="path10625"
       d="M 2.4606631,294.60962 H 0.77669964 v -0.14056 H 2.4606631 Z m 0,0"
       style="fill:#211e1e;fill-opacity:1;fill-rule:nonzero;stroke:none;stroke-width:0.35277775" />
  </g>
</svg>
