<?xml version="1.0" encoding="UTF-8" standalone="no"?>
<!-- Created with Inkscape (http://www.inkscape.org/) -->

<svg
   xmlns:dc="http://purl.org/dc/elements/1.1/"
   xmlns:cc="http://creativecommons.org/ns#"
   xmlns:rdf="http://www.w3.org/1999/02/22-rdf-syntax-ns#"
   xmlns:svg="http://www.w3.org/2000/svg"
   xmlns="http://www.w3.org/2000/svg"
   xmlns:sodipodi="http://sodipodi.sourceforge.net/DTD/sodipodi-0.dtd"
   xmlns:inkscape="http://www.inkscape.org/namespaces/inkscape"
   width="3.75mm"
   height="3.75mm"
   viewBox="0 0 3.75 3.75"
   version="1.1"
   id="svg13826"
   inkscape:version="0.92.1 r15371"
   sodipodi:docname="atm_light.svg">
  <defs
     id="defs13820" />
  <sodipodi:namedview
     id="base"
     pagecolor="#ffffff"
     bordercolor="#666666"
     borderopacity="1.0"
     inkscape:pageopacity="0.0"
     inkscape:pageshadow="2"
     inkscape:zoom="20.285322"
     inkscape:cx="7.2558826"
     inkscape:cy="6.7152255"
     inkscape:document-units="mm"
     inkscape:current-layer="layer1"
     showgrid="false"
     inkscape:window-width="608"
     inkscape:window-height="712"
     inkscape:window-x="790"
     inkscape:window-y="47"
     inkscape:window-maximized="0"
     showguides="true"
     inkscape:guide-bbox="true"
     gridtolerance="10"
     guidetolerance="2">
    <inkscape:grid
       type="xygrid"
       id="grid13828" />
    <sodipodi:guide
       position="0.13043093,3.8477124"
       orientation="1,0"
       id="guide20533"
       inkscape:locked="false" />
    <sodipodi:guide
       position="1.9173346,3.6129367"
       orientation="0,1"
       id="guide20535"
       inkscape:locked="false" />
  </sodipodi:namedview>
  <metadata
     id="metadata13823">
    <rdf:RDF>
      <cc:Work
         rdf:about="">
        <dc:format>image/svg+xml</dc:format>
        <dc:type
           rdf:resource="http://purl.org/dc/dcmitype/StillImage" />
        <dc:title></dc:title>
      </cc:Work>
    </rdf:RDF>
  </metadata>
  <g
     inkscape:label="Layer 1"
     inkscape:groupmode="layer"
     id="layer1"
     transform="translate(0,-293.25)">
    <path
       inkscape:connector-curvature="0"
       id="path6209"
       d="m 0.53948864,293.45872 c -0.19154776,0 -0.34588803,0.15434 -0.34588803,0.34589 v 2.65272 c 0,0.19155 0.15434027,0.34589 0.34588803,0.34589 H 3.1922117 c 0.1901682,0 0.345888,-0.15434 0.345888,-0.34589 v -2.65272 c 0,-0.19155 -0.1557198,-0.34589 -0.345888,-0.34589 z m 0,0"
       style="fill:#ffffff;fill-opacity:1;fill-rule:nonzero;stroke:none;stroke-width:0.35277775" />
    <path
       inkscape:connector-curvature="0"
       id="path6211"
       d="M 3.1922117,293.38706 H 0.53948864 c -0.23013106,0 -0.41754425,0.18741 -0.41754425,0.41755 v 2.65272 c 0,0.23013 0.18741319,0.41755 0.41754425,0.41755 H 3.1922117 c 0.2301309,0 0.4161684,-0.18742 0.4161684,-0.41755 v -2.65272 c 0,-0.23014 -0.1860375,-0.41755 -0.4161684,-0.41755 m 0.345888,3.07027 c 0,0.19155 -0.1557198,0.34726 -0.345888,0.34726 H 0.53948864 c -0.19154776,0 -0.34588803,-0.15571 -0.34588803,-0.34726 v -2.65272 c 0,-0.19155 0.15434027,-0.34727 0.34588803,-0.34727 H 3.1922117 c 0.1901682,0 0.345888,0.15572 0.345888,0.34727 z m 0,0"
       style="fill:#211e1e;fill-opacity:1;fill-rule:nonzero;stroke:none;stroke-width:0.35277775" />
    <path
       inkscape:connector-curvature="0"
       id="path6213"
       d="m 1.9409548,295.96675 c 0.08957,-0.011 0.1543402,-0.0317 0.1943029,-0.062 0.071656,-0.051 0.1061085,-0.14194 0.1061085,-0.2701 0,-0.0978 -0.033055,-0.17363 -0.099219,-0.23151 -0.038587,-0.0317 -0.1061084,-0.0661 -0.2011926,-0.10198 z m -0.166744,-1.77905 c -0.096464,10e-4 -0.1694991,0.0289 -0.2163515,0.0786 -0.046852,0.051 -0.07166,0.11989 -0.07166,0.20808 0,0.0951 0.035832,0.17088 0.1061085,0.226 0.039966,0.0317 0.1005981,0.0593 0.1819028,0.0854 z m 0.166744,2.5039 h -0.166744 v -0.339 c -0.2232413,-0.0262 -0.3899852,-0.0744 -0.5016076,-0.14745 -0.194303,-0.13091 -0.28938717,-0.35416 -0.28663196,-0.66973 H 1.4476162 c 0.016545,0.1447 0.038583,0.23978 0.066146,0.28939 0.044097,0.0758 0.1309123,0.1254 0.2604487,0.14883 v -0.72761 l -0.1378056,-0.0413 c -0.2163515,-0.0634 -0.3693124,-0.15296 -0.4588862,-0.26596 -0.088195,-0.113 -0.1336675,-0.24942 -0.1336675,-0.41065 0,-0.10474 0.017921,-0.2012 0.052363,-0.28801 0.034466,-0.0854 0.082684,-0.15985 0.1460747,-0.22187 0.079925,-0.0813 0.1694991,-0.13642 0.2687179,-0.16674 0.060632,-0.0207 0.147447,-0.0345 0.2632039,-0.0427 v -0.22738 h 0.166744 v 0.23014 c 0.1846544,0.0152 0.3293498,0.0606 0.4340789,0.13642 0.1915477,0.12127 0.2907665,0.31833 0.2976562,0.59118 h -0.449238 c -0.00825,-0.1006 -0.026176,-0.17501 -0.049611,-0.22186 -0.042718,-0.0799 -0.119888,-0.12541 -0.2328862,-0.13367 v 0.65043 c 0.2700937,0.0923 0.4519965,0.17501 0.544322,0.24667 0.1529644,0.11851 0.2287552,0.28801 0.2287552,0.50436 0,0.28663 -0.1047292,0.49472 -0.3155703,0.62425 -0.1281571,0.0799 -0.281118,0.12678 -0.4575069,0.13918 z m 0,0"
       style="fill:#211e1e;fill-opacity:1;fill-rule:nonzero;stroke:none;stroke-width:0.35277775" />
  </g>
</svg>
