<?xml version="1.0" encoding="UTF-8" standalone="no"?>
<!-- Created with Inkscape (http://www.inkscape.org/) -->

<svg
   xmlns:dc="http://purl.org/dc/elements/1.1/"
   xmlns:cc="http://creativecommons.org/ns#"
   xmlns:rdf="http://www.w3.org/1999/02/22-rdf-syntax-ns#"
   xmlns:svg="http://www.w3.org/2000/svg"
   xmlns="http://www.w3.org/2000/svg"
   xmlns:sodipodi="http://sodipodi.sourceforge.net/DTD/sodipodi-0.dtd"
   xmlns:inkscape="http://www.inkscape.org/namespaces/inkscape"
   width="3.75mm"
   height="3.75mm"
   viewBox="0 0 3.75 3.75"
   version="1.1"
   id="svg13826"
   inkscape:version="0.92.1 r15371"
   sodipodi:docname="bottle_filling_dark.svg">
  <defs
     id="defs13820" />
  <sodipodi:namedview
     id="base"
     pagecolor="#ffffff"
     bordercolor="#666666"
     borderopacity="1.0"
     inkscape:pageopacity="0.0"
     inkscape:pageshadow="2"
     inkscape:zoom="20.285322"
     inkscape:cx="6.1728815"
     inkscape:cy="6.7152255"
     inkscape:document-units="mm"
     inkscape:current-layer="layer1"
     showgrid="false"
     inkscape:window-width="608"
     inkscape:window-height="712"
     inkscape:window-x="790"
     inkscape:window-y="47"
     inkscape:window-maximized="0"
     showguides="true"
     inkscape:guide-bbox="true"
     gridtolerance="10"
     guidetolerance="2">
    <inkscape:grid
       type="xygrid"
       id="grid13828" />
    <sodipodi:guide
       position="0.13043093,3.8477124"
       orientation="1,0"
       id="guide20533"
       inkscape:locked="false" />
    <sodipodi:guide
       position="1.9173346,3.6129367"
       orientation="0,1"
       id="guide20535"
       inkscape:locked="false" />
  </sodipodi:namedview>
  <metadata
     id="metadata13823">
    <rdf:RDF>
      <cc:Work
         rdf:about="">
        <dc:format>image/svg+xml</dc:format>
        <dc:type
           rdf:resource="http://purl.org/dc/dcmitype/StillImage" />
        <dc:title></dc:title>
      </cc:Work>
    </rdf:RDF>
  </metadata>
  <g
     inkscape:label="Layer 1"
     inkscape:groupmode="layer"
     id="layer1"
     transform="translate(0,-293.25)">
    <path
       inkscape:connector-curvature="0"
       id="path9797"
       d="m 0.54839719,293.45777 c -0.19154776,0 -0.34726386,0.15572 -0.34726386,0.34726 v 2.65962 c 0,0.19017 0.1557161,0.34589 0.34726386,0.34589 H 3.20801 c 0.1915477,0 0.3472672,-0.15572 0.3472672,-0.34589 v -2.65962 c 0,-0.19154 -0.1557195,-0.34726 -0.3472672,-0.34726 z m 0,0"
       style="fill:#ffffff;fill-opacity:1;fill-rule:nonzero;stroke:none;stroke-width:0.35277775" />
    <path
       inkscape:connector-curvature="0"
       id="path9799"
       d="m 3.20801,296.88219 c 0.2301346,0 0.4175477,-0.18741 0.4175477,-0.41754 v -2.65962 c 0,-0.23013 -0.1874131,-0.41754 -0.4175477,-0.41754 H 0.54839719 c -0.23013106,0 -0.41754425,0.18741 -0.41754425,0.41754 v 2.65962 c 0,0.23013 0.18741319,0.41754 0.41754425,0.41754 z m 0,0"
       style="fill:#211e1e;fill-opacity:1;fill-rule:nonzero;stroke:none;stroke-width:0.35277775" />
    <path
       inkscape:connector-curvature="0"
       id="path9801"
       d="m 0.43126438,293.71408 c 0.16536458,0 0.79237062,0.23427 1.00459112,0.59945 l -0.2218655,0.1819 c 0,0 -0.33624302,-0.3197 -0.78272562,-0.40376 z m 0,0"
       style="fill:#ffffff;fill-opacity:1;fill-rule:nonzero;stroke:none;stroke-width:0.35277775" />
    <path
       inkscape:connector-curvature="0"
       id="path9803"
       d="m 1.2002105,295.09074 c 0,0.10611 0.085436,0.19293 0.1929236,0.19293 0.1074879,0 0.1943029,-0.0868 0.1943029,-0.19293 0,-0.10611 -0.1943029,-0.55121 -0.1943029,-0.55121 0,0 -0.1929236,0.4451 -0.1929236,0.55121"
       style="fill:#ffffff;fill-opacity:1;fill-rule:nonzero;stroke:none;stroke-width:0.35277775" />
    <path
       inkscape:connector-curvature="0"
       id="path9805"
       d="m 2.302641,294.01312 c -0.0248,-0.004 -0.044097,-0.0248 -0.044097,-0.0496 0,-0.0193 0.011007,-0.0358 0.026176,-0.0441 -0.015169,-0.01 -0.026176,-0.0262 -0.026176,-0.0441 0,-0.0289 0.023424,-0.051 0.050987,-0.051 h 0.2521796 c 0.028928,0 0.050987,0.022 0.050987,0.051 0,0.0193 -0.011007,0.0358 -0.027552,0.0441 0.016545,0.008 0.027552,0.0248 0.027552,0.0441 0,0.0248 -0.019297,0.0455 -0.042718,0.0496 l 0.3059254,0.82682 c 0.019296,0.0537 0.028928,0.11438 0.028928,0.17363 v 1.46899 c 0,0.0551 -0.045477,0.0992 -0.1005981,0.0992 H 2.0669855 c -0.055122,0 -0.099219,-0.0441 -0.099219,-0.0992 v -1.46899 c 0,-0.0593 0.00963,-0.11988 0.027552,-0.17363 z m 0,0"
       style="fill:#ffffff;fill-opacity:1;fill-rule:nonzero;stroke:none;stroke-width:0.35277775" />
  </g>
</svg>
