<?xml version="1.0" encoding="UTF-8" standalone="no"?>
<!-- Created with Inkscape (http://www.inkscape.org/) -->

<svg
   xmlns:dc="http://purl.org/dc/elements/1.1/"
   xmlns:cc="http://creativecommons.org/ns#"
   xmlns:rdf="http://www.w3.org/1999/02/22-rdf-syntax-ns#"
   xmlns:svg="http://www.w3.org/2000/svg"
   xmlns="http://www.w3.org/2000/svg"
   xmlns:sodipodi="http://sodipodi.sourceforge.net/DTD/sodipodi-0.dtd"
   xmlns:inkscape="http://www.inkscape.org/namespaces/inkscape"
   width="3.75mm"
   height="3.75mm"
   viewBox="0 0 3.75 3.75"
   version="1.1"
   id="svg13826"
   inkscape:version="0.92.1 r15371"
   sodipodi:docname="drinking_water_dark.svg">
  <defs
     id="defs13820" />
  <sodipodi:namedview
     id="base"
     pagecolor="#ffffff"
     bordercolor="#666666"
     borderopacity="1.0"
     inkscape:pageopacity="0.0"
     inkscape:pageshadow="2"
     inkscape:zoom="20.285322"
     inkscape:cx="6.1728815"
     inkscape:cy="6.7152255"
     inkscape:document-units="mm"
     inkscape:current-layer="layer1"
     showgrid="false"
     inkscape:window-width="608"
     inkscape:window-height="712"
     inkscape:window-x="790"
     inkscape:window-y="47"
     inkscape:window-maximized="0"
     showguides="true"
     inkscape:guide-bbox="true"
     gridtolerance="10"
     guidetolerance="2">
    <inkscape:grid
       type="xygrid"
       id="grid13828" />
    <sodipodi:guide
       position="0.13043093,3.8477124"
       orientation="1,0"
       id="guide20533"
       inkscape:locked="false" />
    <sodipodi:guide
       position="1.9173346,3.6129367"
       orientation="0,1"
       id="guide20535"
       inkscape:locked="false" />
  </sodipodi:namedview>
  <metadata
     id="metadata13823">
    <rdf:RDF>
      <cc:Work
         rdf:about="">
        <dc:format>image/svg+xml</dc:format>
        <dc:type
           rdf:resource="http://purl.org/dc/dcmitype/StillImage" />
        <dc:title></dc:title>
      </cc:Work>
    </rdf:RDF>
  </metadata>
  <g
     inkscape:label="Layer 1"
     inkscape:groupmode="layer"
     id="layer1"
     transform="translate(0,-293.25)">
    <path
       inkscape:connector-curvature="0"
       id="path11959"
       d="m 0.53948864,293.46259 c -0.19154776,0 -0.34726386,0.15434 -0.34726386,0.34451 v 2.6541 c 0,0.19155 0.1557161,0.34589 0.34726386,0.34589 H 3.1922117 c 0.1901719,0 0.345888,-0.15434 0.345888,-0.34589 v -2.6541 c 0,-0.19017 -0.1557161,-0.34451 -0.345888,-0.34451 z m 0,0"
       style="fill:#ffffff;fill-opacity:1;fill-rule:nonzero;stroke:none;stroke-width:0.35277775" />
    <path
       inkscape:connector-curvature="0"
       id="path11961"
       d="m 3.1922117,296.87875 c 0.2301346,0 0.4161684,-0.18742 0.4161684,-0.41755 v -2.65273 c 0,-0.23013 -0.1860338,-0.41754 -0.4161684,-0.41754 H 0.53948864 c -0.23151042,0 -0.41754425,0.18741 -0.41754425,0.41754 v 2.65273 c 0,0.23013 0.18603383,0.41755 0.41754425,0.41755 z m 0,0"
       style="fill:#211e1e;fill-opacity:1;fill-rule:nonzero;stroke:none;stroke-width:0.35277775" />
    <path
       inkscape:connector-curvature="0"
       id="path11963"
       d="m 2.4673662,294.34315 c -0.045477,0.0441 -0.1074878,0.0606 -0.175013,0.0606 -0.086815,0 -0.1653646,-0.0344 -0.2108377,-0.10198 -0.044097,0.0689 -0.124026,0.10198 -0.2108411,0.10198 -0.086815,0 -0.1639852,-0.0358 -0.2094618,-0.10198 -0.045477,0.0689 -0.1240226,0.10198 -0.212217,0.10198 -0.06477,0 -0.1226467,-0.0138 -0.166744,-0.0537 l -0.033055,-0.23977 c 0.045477,0.0606 0.1185121,0.10059 0.1998168,0.10059 0.088194,0 0.1667404,-0.0441 0.212217,-0.113 0.045477,0.0675 0.1226467,0.113 0.2094618,0.113 0.086815,0 0.166744,-0.0441 0.2108412,-0.11162 0.045473,0.0661 0.1240225,0.11162 0.2108376,0.11162 0.088194,0 0.1653646,-0.0455 0.2108412,-0.11437 z m 0,0"
       style="fill:#ffffff;fill-opacity:1;fill-rule:nonzero;stroke:none;stroke-width:0.35277775" />
    <path
       inkscape:connector-curvature="0"
       id="path11965"
       d="m 2.5307533,296.36887 0.3817161,-2.43913 -0.2563141,0.003 -0.3486433,2.17869 H 1.4421058 l -0.3472673,-2.17869 -0.25769364,-0.003 0.38309554,2.43913 z m 0,0"
       style="fill:#ffffff;fill-opacity:1;fill-rule:nonzero;stroke:none;stroke-width:0.35277775" />
  </g>
</svg>
