<?xml version="1.0" encoding="UTF-8" standalone="no"?>
<!-- Created with Inkscape (http://www.inkscape.org/) -->

<svg
   xmlns:dc="http://purl.org/dc/elements/1.1/"
   xmlns:cc="http://creativecommons.org/ns#"
   xmlns:rdf="http://www.w3.org/1999/02/22-rdf-syntax-ns#"
   xmlns:svg="http://www.w3.org/2000/svg"
   xmlns="http://www.w3.org/2000/svg"
   xmlns:sodipodi="http://sodipodi.sourceforge.net/DTD/sodipodi-0.dtd"
   xmlns:inkscape="http://www.inkscape.org/namespaces/inkscape"
   width="3.75mm"
   height="3.75mm"
   viewBox="0 0 3.75 3.75"
   version="1.1"
   id="svg13826"
   inkscape:version="0.92.1 r15371"
   sodipodi:docname="souvenir_light.svg">
  <defs
     id="defs13820" />
  <sodipodi:namedview
     id="base"
     pagecolor="#ffffff"
     bordercolor="#666666"
     borderopacity="1.0"
     inkscape:pageopacity="0.0"
     inkscape:pageshadow="2"
     inkscape:zoom="20.285322"
     inkscape:cx="8.0003469"
     inkscape:cy="6.7152255"
     inkscape:document-units="mm"
     inkscape:current-layer="layer1"
     showgrid="false"
     inkscape:window-width="608"
     inkscape:window-height="712"
     inkscape:window-x="790"
     inkscape:window-y="47"
     inkscape:window-maximized="0"
     showguides="true"
     inkscape:guide-bbox="true"
     gridtolerance="10"
     guidetolerance="2">
    <inkscape:grid
       type="xygrid"
       id="grid13828" />
    <sodipodi:guide
       position="0.13043093,3.8477124"
       orientation="1,0"
       id="guide20533"
       inkscape:locked="false" />
    <sodipodi:guide
       position="1.9173346,3.6129367"
       orientation="0,1"
       id="guide20535"
       inkscape:locked="false" />
  </sodipodi:namedview>
  <metadata
     id="metadata13823">
    <rdf:RDF>
      <cc:Work
         rdf:about="">
        <dc:format>image/svg+xml</dc:format>
        <dc:type
           rdf:resource="http://purl.org/dc/dcmitype/StillImage" />
        <dc:title></dc:title>
      </cc:Work>
    </rdf:RDF>
  </metadata>
  <g
     inkscape:label="Layer 1"
     inkscape:groupmode="layer"
     id="layer1"
     transform="translate(0,-293.25)">
    <path
       inkscape:connector-curvature="0"
       id="path885"
       d="m 0.53948864,293.45734 c -0.19154776,0 -0.34588803,0.15572 -0.34588803,0.34588 v 2.65411 c 0,0.19017 0.15434027,0.34589 0.34588803,0.34589 H 3.193591 c 0.1887926,0 0.3445087,-0.15572 0.3445087,-0.34589 v -2.65411 c 0,-0.19016 -0.1557161,-0.34588 -0.3445087,-0.34588 z m 0,0"
       style="fill:#ffffff;fill-opacity:1;fill-rule:nonzero;stroke:none;stroke-width:0.35277775" />
    <path
       inkscape:connector-curvature="0"
       id="path887"
       d="M 3.1922117,293.38706 H 0.53948864 c -0.23013106,0 -0.41754425,0.18603 -0.41754425,0.41616 v 2.65411 c 0,0.23013 0.18741319,0.41617 0.41754425,0.41617 H 3.1922117 c 0.2301346,0 0.4161684,-0.18604 0.4161684,-0.41617 v -2.65411 c 0,-0.23013 -0.1860338,-0.41616 -0.4161684,-0.41616 m 0.345888,3.07027 c 0,0.19017 -0.1557161,0.34589 -0.345888,0.34589 H 0.53948864 c -0.19154776,0 -0.34588803,-0.15572 -0.34588803,-0.34589 v -2.65411 c 0,-0.19016 0.15434027,-0.34588 0.34588803,-0.34588 H 3.1922117 c 0.1901719,0 0.345888,0.15572 0.345888,0.34588 z m 0,0"
       style="fill:#211e1e;fill-opacity:1;fill-rule:nonzero;stroke:none;stroke-width:0.35277775" />
    <path
       inkscape:connector-curvature="0"
       id="path889"
       d="M 2.5996579,294.31999 H 2.2179382 l 0.3073047,-0.12402 c 0.033055,-0.0138 0.048232,-0.051 0.035828,-0.0827 -0.013794,-0.0331 -0.050987,-0.0496 -0.08406,-0.0358 0,0 -0.1736337,0.0703 -0.3445087,0.13918 0.1391814,-0.13918 0.2824974,-0.27974 0.2824974,-0.27974 0.012418,-0.0124 0.017921,-0.0303 0.017921,-0.0469 0,-0.0152 -0.0055,-0.0317 -0.017921,-0.0441 -0.0248,-0.0248 -0.066146,-0.0248 -0.09095,-10e-4 l -0.3982544,0.39549 0.00282,-0.56086 c 0,-0.0358 -0.028928,-0.0648 -0.064766,-0.0648 -0.035828,0 -0.063391,0.0289 -0.063391,0.0648 0,0 -0.00141,0.37069 -0.00282,0.56086 -0.1281571,-0.12953 -0.3569123,-0.35967 -0.3569123,-0.35967 -0.023424,-0.0248 -0.064766,-0.0248 -0.089574,0 -0.026176,0.0248 -0.026176,0.0648 -0.00141,0.091 l 0.2494236,0.24942 -0.3582916,-0.14194 c -0.033055,-0.0138 -0.07028,0.003 -0.082681,0.0358 -0.013794,0.0331 0.00282,0.0703 0.035828,0.0827 l 0.3073012,0.12265 H 1.1320106 c -0.052366,0 -0.095084,0.0427 -0.095084,0.0965 v 2.04501 c 0,0.0537 0.042718,0.0965 0.095084,0.0965 h 1.467612 c 0.053742,0 0.09646,-0.0427 0.09646,-0.0965 v -2.04501 c 0,-0.0537 -0.042718,-0.0965 -0.09646,-0.0965 m -0.096464,0.85576 H 1.92714 v -0.66284 h 0.5760191 z m -0.7028004,0 h -0.571884 v -0.66284 h 0.5718845 z m -0.5718845,0.12816 h 0.5718845 v 1.06109 h -0.571884 z m 0.7000416,0 h 0.5746433 v 1.06109 H 1.9285158 Z m 0,0"
       style="fill:#211e1e;fill-opacity:1;fill-rule:nonzero;stroke:none;stroke-width:0.35277775" />
  </g>
</svg>
