<?xml version="1.0" encoding="UTF-8" standalone="no"?>
<!-- Created with Inkscape (http://www.inkscape.org/) -->

<svg
   xmlns:dc="http://purl.org/dc/elements/1.1/"
   xmlns:cc="http://creativecommons.org/ns#"
   xmlns:rdf="http://www.w3.org/1999/02/22-rdf-syntax-ns#"
   xmlns:svg="http://www.w3.org/2000/svg"
   xmlns="http://www.w3.org/2000/svg"
   xmlns:sodipodi="http://sodipodi.sourceforge.net/DTD/sodipodi-0.dtd"
   xmlns:inkscape="http://www.inkscape.org/namespaces/inkscape"
   width="3.75mm"
   height="3.75mm"
   viewBox="0 0 3.75 3.75"
   version="1.1"
   id="svg13826"
   inkscape:version="0.92.1 r15371"
   sodipodi:docname="store_dark.svg">
  <defs
     id="defs13820" />
  <sodipodi:namedview
     id="base"
     pagecolor="#ffffff"
     bordercolor="#666666"
     borderopacity="1.0"
     inkscape:pageopacity="0.0"
     inkscape:pageshadow="2"
     inkscape:zoom="20.285322"
     inkscape:cx="8.0003469"
     inkscape:cy="6.7152255"
     inkscape:document-units="mm"
     inkscape:current-layer="layer1"
     showgrid="false"
     inkscape:window-width="608"
     inkscape:window-height="712"
     inkscape:window-x="790"
     inkscape:window-y="47"
     inkscape:window-maximized="0"
     showguides="true"
     inkscape:guide-bbox="true"
     gridtolerance="10"
     guidetolerance="2">
    <inkscape:grid
       type="xygrid"
       id="grid13828" />
    <sodipodi:guide
       position="0.13043093,3.8477124"
       orientation="1,0"
       id="guide20533"
       inkscape:locked="false" />
    <sodipodi:guide
       position="1.9173346,3.6129367"
       orientation="0,1"
       id="guide20535"
       inkscape:locked="false" />
  </sodipodi:namedview>
  <metadata
     id="metadata13823">
    <rdf:RDF>
      <cc:Work
         rdf:about="">
        <dc:format>image/svg+xml</dc:format>
        <dc:type
           rdf:resource="http://purl.org/dc/dcmitype/StillImage" />
        <dc:title></dc:title>
      </cc:Work>
    </rdf:RDF>
  </metadata>
  <g
     inkscape:label="Layer 1"
     inkscape:groupmode="layer"
     id="layer1"
     transform="translate(0,-293.25)">
    <path
       inkscape:connector-curvature="0"
       id="path12645"
       d="m 0.53879899,293.4612 c -0.19154776,0 -0.34726386,0.15572 -0.34726386,0.34726 v 2.65273 c 0,0.19155 0.1557161,0.34589 0.34726386,0.34589 H 3.191522 c 0.1915478,0 0.345888,-0.15434 0.345888,-0.34589 v -2.65273 c 0,-0.19154 -0.1543402,-0.34726 -0.345888,-0.34726 z m 0,0"
       style="fill:#ffffff;fill-opacity:1;fill-rule:nonzero;stroke:none;stroke-width:0.35277775" />
    <path
       inkscape:connector-curvature="0"
       id="path12647"
       d="m 3.191522,296.87874 c 0.2301346,0 0.4175477,-0.18742 0.4175477,-0.41755 v -2.65273 c 0,-0.23013 -0.1874131,-0.41754 -0.4175477,-0.41754 H 0.53879899 c -0.23013106,0 -0.41754425,0.18741 -0.41754425,0.41754 v 2.65273 c 0,0.23013 0.18741319,0.41755 0.41754425,0.41755 z m 0,0"
       style="fill:#211e1e;fill-opacity:1;fill-rule:nonzero;stroke:none;stroke-width:0.35277775" />
    <path
       inkscape:connector-curvature="0"
       id="path12649"
       d="m 3.0137572,294.79376 c 0,0 -0.028928,0.57051 -0.530546,0.52366 0,0 -0.055121,-0.47818 0.530546,-0.52366"
       style="fill:#ffffff;fill-opacity:1;fill-rule:nonzero;stroke:none;stroke-width:0.35277775" />
    <path
       inkscape:connector-curvature="0"
       id="path12651"
       d="m 2.6141235,295.5379 c 0.066146,-0.0648 0.1557196,-0.10335 0.2549384,-0.10335 0.2011926,0 0.3638021,0.16261 0.3638021,0.3638 0,0.007 0,0.0138 0,0.0207 -0.00688,0.0786 -0.031679,0.17638 -0.09095,0.29765 0,0 -0.1019738,0.19568 -0.184658,0.28526 l -0.00688,0.007 c -0.039963,0.04 -0.095084,0.0648 -0.1557195,0.0648 -0.074412,0 -0.1405573,-0.0358 -0.1791441,-0.0923 h -0.00141 c -0.039963,0.0565 -0.1061085,0.0923 -0.1791441,0.0923 -0.062011,0 -0.1171328,-0.0248 -0.1570955,-0.0648 l -0.00688,-0.007 c -0.081305,-0.0896 -0.1832795,-0.28526 -0.1832795,-0.28526 -0.059256,-0.12127 -0.085439,-0.2191 -0.090953,-0.29765 h -0.00141 c 0,-0.007 0,-0.0138 0,-0.0207 0,-0.20119 0.1626094,-0.3638 0.3638021,-0.3638 0.1005946,0 0.1901684,0.0386 0.2549349,0.10335"
       style="fill:#ffffff;fill-opacity:1;fill-rule:nonzero;stroke:none;stroke-width:0.35277775" />
    <path
       inkscape:connector-curvature="0"
       id="path12653"
       d="M 1.4193675,293.8002 H 0.97701601 v 0.16536 H 1.4193675 Z m 0,0"
       style="fill:#ffffff;fill-opacity:1;fill-rule:nonzero;stroke:none;stroke-width:0.35277775" />
    <path
       inkscape:connector-curvature="0"
       id="path12655"
       d="m 0.55809241,294.46441 c 0,-0.0317 0.008255,-0.0593 0.0248002,-0.0841 l 0.1984375,-0.24942 c 0.0578768,-0.0703 0.11713286,-0.062 0.11713286,-0.062 H 1.4097155 c 0.318329,0.0303 0.318329,0.3321 0.318329,0.3321 v 1.95819 c 0,0.0524 -0.042721,0.0937 -0.093708,0.0937 H 0.65317305 c -0.0523663,0 -0.0950842,-0.0413 -0.0950842,-0.0937 z m 0.10335328,0.52228 c 0,0.0537 0.0744149,0.113 0.1336675,0.0441 l 0.16398875,-0.21222 c 0.006879,-0.01 0.0165452,-0.0303 0.0165452,-0.0524 v -0.50987 c 0,-0.14332 -0.13229166,-0.0248 -0.18327862,0.0262 l -0.11299825,0.14331 c -0.017921,0.0234 -0.017921,0.0331 -0.017921,0.0455 z m 0,0"
       style="fill:#ffffff;fill-opacity:1;fill-rule:nonzero;stroke:none;stroke-width:0.35277775" />
  </g>
</svg>
