<?xml version="1.0" encoding="UTF-8" standalone="no"?>
<!-- Created with Inkscape (http://www.inkscape.org/) -->

<svg
   xmlns:dc="http://purl.org/dc/elements/1.1/"
   xmlns:cc="http://creativecommons.org/ns#"
   xmlns:rdf="http://www.w3.org/1999/02/22-rdf-syntax-ns#"
   xmlns:svg="http://www.w3.org/2000/svg"
   xmlns="http://www.w3.org/2000/svg"
   xmlns:sodipodi="http://sodipodi.sourceforge.net/DTD/sodipodi-0.dtd"
   xmlns:inkscape="http://www.inkscape.org/namespaces/inkscape"
   width="3.75mm"
   height="3.75mm"
   viewBox="0 0 3.75 3.75"
   version="1.1"
   id="svg13826"
   inkscape:version="0.92.1 r15371"
   sodipodi:docname="archery_light.svg">
  <defs
     id="defs13820" />
  <sodipodi:namedview
     id="base"
     pagecolor="#ffffff"
     bordercolor="#666666"
     borderopacity="1.0"
     inkscape:pageopacity="0.0"
     inkscape:pageshadow="2"
     inkscape:zoom="30.586462"
     inkscape:cx="6.9619327"
     inkscape:cy="6.5754939"
     inkscape:document-units="mm"
     inkscape:current-layer="layer1"
     showgrid="false"
     inkscape:window-width="742"
     inkscape:window-height="651"
     inkscape:window-x="624"
     inkscape:window-y="54"
     inkscape:window-maximized="0"
     showguides="true"
     inkscape:guide-bbox="true"
     gridtolerance="10"
     guidetolerance="2">
    <inkscape:grid
       type="xygrid"
       id="grid13828" />
    <sodipodi:guide
       position="0.13043093,3.8477124"
       orientation="1,0"
       id="guide20533"
       inkscape:locked="false" />
    <sodipodi:guide
       position="1.9173346,3.6129367"
       orientation="0,1"
       id="guide20535"
       inkscape:locked="false" />
  </sodipodi:namedview>
  <metadata
     id="metadata13823">
    <rdf:RDF>
      <cc:Work
         rdf:about="">
        <dc:format>image/svg+xml</dc:format>
        <dc:type
           rdf:resource="http://purl.org/dc/dcmitype/StillImage" />
        <dc:title></dc:title>
      </cc:Work>
    </rdf:RDF>
  </metadata>
  <g
     inkscape:label="Layer 1"
     inkscape:groupmode="layer"
     id="layer1"
     transform="translate(0,-293.25)">
    <path
       inkscape:connector-curvature="0"
       id="path4853"
       d="m 3.2041752,296.86897 c 0.2301311,0 0.4175443,-0.18741 0.4175443,-0.41754 v -2.65548 c 0,-0.23013 -0.1874132,-0.41617 -0.4175443,-0.41617 H 0.55007284 c -0.23151042,0 -0.41754425,0.18604 -0.41754425,0.41617 v 2.65548 c 0,0.23013 0.18603383,0.41754 0.41754425,0.41754 z m 0,0"
       style="fill:#211e1e;fill-opacity:1;fill-rule:nonzero;stroke:none;stroke-width:0.35277775" />
    <path
       inkscape:connector-curvature="0"
       id="path4855"
       d="M 1.6897108,294.30444 H 1.106802 c -0.14194012,0 -0.14194012,0.18328 0,0.18328 h 0.5829088 c 0.1391815,0 0.1391815,-0.18328 0,-0.18328"
       style="fill:#211e1e;fill-opacity:1;fill-rule:nonzero;stroke:none;stroke-width:0.35277775" />
    <path
       inkscape:connector-curvature="0"
       id="path4857"
       d="M 1.6897108,294.30444 H 1.106802 c -0.14194012,0 -0.14194012,0.18328 0,0.18328 h 0.5829088 c 0.1391815,0 0.1391815,-0.18328 0,-0.18328"
       style="fill:#211e1e;fill-opacity:1;fill-rule:nonzero;stroke:none;stroke-width:0.35277775" />
    <path
       inkscape:connector-curvature="0"
       id="path4859"
       d="m 0.55007284,293.45006 c -0.19154776,0 -0.34726386,0.15572 -0.34726386,0.34589 v 2.65548 c 0,0.19154 0.1557161,0.34588 0.34726386,0.34588 H 3.2041752 c 0.1915478,0 0.3472638,-0.15434 0.3472638,-0.34588 v -2.65548 c 0,-0.19017 -0.155716,-0.34589 -0.3472638,-0.34589 z m 0,0"
       style="fill:#ffffff;fill-opacity:1;fill-rule:nonzero;stroke:none;stroke-width:0.35277775" />
    <path
       inkscape:connector-curvature="0"
       id="path4861"
       d="m 1.6221857,294.25759 c 0.1350503,0 0.243914,-0.11024 0.243914,-0.24529 0,-0.13505 -0.1088637,-0.24529 -0.243914,-0.24529 -0.1364228,0 -0.24529,0.11024 -0.24529,0.24529 0,0.13505 0.1088672,0.24529 0.24529,0.24529"
       style="fill:#211e1e;fill-opacity:1;fill-rule:nonzero;stroke:none;stroke-width:0.35277775" />
    <path
       inkscape:connector-curvature="0"
       id="path4863"
       d="M 1.6786865,294.3196 H 1.0668393 c -0.14745049,0 -0.14745049,0.19293 0,0.19293 h 0.6118472 c 0.1474505,0 0.1474505,-0.19293 0,-0.19293"
       style="fill:#211e1e;fill-opacity:1;fill-rule:nonzero;stroke:none;stroke-width:0.35277775" />
    <path
       inkscape:connector-curvature="0"
       id="path4865"
       d="M 2.7191058,294.3196 H 1.928111 c 0.1446953,-0.14469 0.4161684,-0.41617 0.5567292,-0.55535 0.1336675,0.1571 0.2149722,0.3514 0.2342656,0.55535 m 0,0.19293 c -0.020673,0.20257 -0.1005981,0.39549 -0.2342656,0.55259 -0.1226467,-0.12264 -0.3500226,-0.35002 -0.5002283,-0.50161 v -0.051 z m -1.0101015,0.97703 v -0.008 c 0,10e-4 0,10e-4 0,0.004 z m 1.1355035,-1.07487 c 0,-0.27148 -0.097843,-0.53055 -0.2756077,-0.73588 0.00141,0 -0.044097,-0.0496 -0.044097,-0.0496 l -0.7028003,0.7028 c 0.00282,0.003 0.0055,0.004 0.00688,0.008 0.011007,0.0179 0.016545,0.04 0.019297,0.0606 0,0.008 0,0.0179 -0.00141,0.0262 -0.00141,0.0179 -0.0055,0.0372 -0.012382,0.0537 l -0.00141,0.001 c -0.00141,0.003 -0.00282,0.007 -0.00413,0.01 -0.00141,0.003 -0.00282,0.004 -0.00413,0.007 -0.030305,0.0469 -0.082682,0.073 -0.1460729,0.073 H 1.3424082 v 0.89986 c 0,0.001 0,0.001 0,0.003 l -0.1901719,0.9536 c -0.013794,0.0744 0.034466,0.14745 0.1088672,0.16261 0.074411,0.0138 0.1460712,-0.0331 0.16123,-0.10886 l 0.1970582,-0.98943 v -0.001 h 0.089574 v 0.001 l 0.1956824,0.98943 c 0.016545,0.0758 0.086815,0.12264 0.1626058,0.10886 0.074415,-0.0152 0.1226467,-0.0882 0.1074879,-0.16261 L 1.983194,295.46472 v -0.80615 l 0.5415703,0.54157 c 0,0 0.045473,-0.0496 0.045473,-0.0496 0.1763889,-0.20533 0.2742318,-0.4644 0.2742318,-0.73587"
       style="fill:#211e1e;fill-opacity:1;fill-rule:nonzero;stroke:none;stroke-width:0.35277775" />
  </g>
</svg>
