<?xml version="1.0" encoding="UTF-8" standalone="no"?>
<!-- Created with Inkscape (http://www.inkscape.org/) -->

<svg
   xmlns:dc="http://purl.org/dc/elements/1.1/"
   xmlns:cc="http://creativecommons.org/ns#"
   xmlns:rdf="http://www.w3.org/1999/02/22-rdf-syntax-ns#"
   xmlns:svg="http://www.w3.org/2000/svg"
   xmlns="http://www.w3.org/2000/svg"
   xmlns:sodipodi="http://sodipodi.sourceforge.net/DTD/sodipodi-0.dtd"
   xmlns:inkscape="http://www.inkscape.org/namespaces/inkscape"
   width="3.75mm"
   height="3.75mm"
   viewBox="0 0 3.75 3.75"
   version="1.1"
   id="svg13826"
   inkscape:version="0.92.1 r15371"
   sodipodi:docname="baseball_dark.svg">
  <defs
     id="defs13820" />
  <sodipodi:namedview
     id="base"
     pagecolor="#ffffff"
     bordercolor="#666666"
     borderopacity="1.0"
     inkscape:pageopacity="0.0"
     inkscape:pageshadow="2"
     inkscape:zoom="30.586462"
     inkscape:cx="6.9619327"
     inkscape:cy="6.5754939"
     inkscape:document-units="mm"
     inkscape:current-layer="layer1"
     showgrid="false"
     inkscape:window-width="742"
     inkscape:window-height="651"
     inkscape:window-x="560"
     inkscape:window-y="62"
     inkscape:window-maximized="0"
     showguides="true"
     inkscape:guide-bbox="true"
     gridtolerance="10"
     guidetolerance="2">
    <inkscape:grid
       type="xygrid"
       id="grid13828" />
    <sodipodi:guide
       position="0.13043093,3.8477124"
       orientation="1,0"
       id="guide20533"
       inkscape:locked="false" />
    <sodipodi:guide
       position="1.9173346,3.6129367"
       orientation="0,1"
       id="guide20535"
       inkscape:locked="false" />
  </sodipodi:namedview>
  <metadata
     id="metadata13823">
    <rdf:RDF>
      <cc:Work
         rdf:about="">
        <dc:format>image/svg+xml</dc:format>
        <dc:type
           rdf:resource="http://purl.org/dc/dcmitype/StillImage" />
        <dc:title></dc:title>
      </cc:Work>
    </rdf:RDF>
  </metadata>
  <g
     inkscape:label="Layer 1"
     inkscape:groupmode="layer"
     id="layer1"
     transform="translate(0,-293.25)">
    <path
       inkscape:connector-curvature="0"
       id="path2739"
       d="m 0.53346013,293.46793 c -0.19016838,0 -0.34588448,0.15434 -0.34588448,0.34589 v 2.65272 c 0,0.19155 0.1557161,0.34589 0.34588448,0.34589 H 3.1861868 c 0.1901682,0 0.3458845,-0.15434 0.3458845,-0.34589 v -2.65272 c 0,-0.19155 -0.1557163,-0.34589 -0.3458845,-0.34589 z m 0,0"
       style="fill:#ffffff;fill-opacity:1;fill-rule:nonzero;stroke:none;stroke-width:0.35277775" />
    <path
       inkscape:connector-curvature="0"
       id="path2741"
       d="m 3.1861868,296.88409 c 0.2301309,0 0.4161647,-0.18742 0.4161647,-0.41755 v -2.65272 c 0,-0.23014 -0.1860338,-0.41755 -0.4161647,-0.41755 H 0.53346013 c -0.2315104,0 -0.41616487,0.18741 -0.41616487,0.41755 v 2.65272 c 0,0.23013 0.18465447,0.41755 0.41616487,0.41755 z m 0,0"
       style="fill:#211e1e;fill-opacity:1;fill-rule:nonzero;stroke:none;stroke-width:0.35277775" />
    <path
       inkscape:connector-curvature="0"
       id="path2743"
       d="m 2.0327657,294.40086 c 0.1281606,0 0.2328898,-0.10473 0.2328898,-0.23289 0,-0.12953 -0.1047292,-0.23426 -0.2328898,-0.23426 -0.129533,0 -0.2342656,0.10473 -0.2342656,0.23426 0,0.12816 0.1047326,0.23289 0.2342656,0.23289"
       style="fill:#ffffff;fill-opacity:1;fill-rule:nonzero;stroke:none;stroke-width:0.35277775" />
    <path
       inkscape:connector-curvature="0"
       id="path2745"
       d="m 2.666665,296.44036 -0.3445087,-1.04593 v -0.83647 c 0,-0.11025 -0.1088672,-0.10473 -0.1088672,-0.10473 H 1.7681824 c 0,0 -0.019297,-0.003 -0.057877,0.0276 l -0.2590692,0.15153 -0.2700972,-0.27009 c -0.044097,-0.0524 -0.1226433,-0.0606 -0.1736338,-0.0165 -0.053742,0.0441 -0.0564974,0.12402 -0.0124178,0.17777 l 0.34450875,0.34451 c 0.023424,0.0248 0.056501,0.0413 0.092329,0.0413 0.027552,0 0.052366,-0.008 0.073036,-0.0221 l 0.2273758,-0.1254 v 0.6146 l -0.3486432,1.06247 c -0.0248,0.0923 0.030304,0.18741 0.1226467,0.21222 0.092329,0.0248 0.1874132,-0.0303 0.212217,-0.12265 l 0.304546,-0.91777 0.3086806,0.91915 c 0.0248,0.0937 0.119888,0.14745 0.212217,0.12265 0.092329,-0.0248 0.1474505,-0.11989 0.1226467,-0.21222"
       style="fill:#ffffff;fill-opacity:1;fill-rule:nonzero;stroke:none;stroke-width:0.35277775" />
    <path
       inkscape:connector-curvature="0"
       id="path2747"
       d="m 0.93309386,294.64064 c 0.0123825,0.0124 0.0330553,0.0124 0.0440972,0 l 0.005503,-0.003 c 0.0110067,-0.0124 0.0124177,-0.0331 0,-0.0455 l -0.068901,-0.0689 c -0.0124177,-0.0124 -0.0316794,-0.0124 -0.0440972,0 l -0.002822,0.004 c -0.0137935,0.0124 -0.0137935,0.0317 -0.00141,0.0441 z m 0,0"
       style="fill:#ffffff;fill-opacity:1;fill-rule:nonzero;stroke:none;stroke-width:0.35277775" />
    <path
       inkscape:connector-curvature="0"
       id="path2749"
       d="m 1.5793934,293.85654 -0.3982544,0.43132 0.048232,0.0496 0.4451067,-0.38447 0.2949011,-0.27147 c 0.012382,-0.0138 0.019297,-0.0303 0.019297,-0.0496 0,-0.0413 -0.033055,-0.0744 -0.073036,-0.0758 -0.020673,0 -0.037208,0.008 -0.050987,0.0193 z m 0,0"
       style="fill:#ffffff;fill-opacity:1;fill-rule:nonzero;stroke:none;stroke-width:0.35277775" />
  </g>
</svg>
