<?xml version="1.0" encoding="UTF-8" standalone="no"?>
<!-- Created with Inkscape (http://www.inkscape.org/) -->

<svg
   xmlns:dc="http://purl.org/dc/elements/1.1/"
   xmlns:cc="http://creativecommons.org/ns#"
   xmlns:rdf="http://www.w3.org/1999/02/22-rdf-syntax-ns#"
   xmlns:svg="http://www.w3.org/2000/svg"
   xmlns="http://www.w3.org/2000/svg"
   xmlns:sodipodi="http://sodipodi.sourceforge.net/DTD/sodipodi-0.dtd"
   xmlns:inkscape="http://www.inkscape.org/namespaces/inkscape"
   width="3.75mm"
   height="3.75mm"
   viewBox="0 0 3.75 3.75"
   version="1.1"
   id="svg13826"
   inkscape:version="0.92.1 r15371"
   sodipodi:docname="climbing_light.svg">
  <defs
     id="defs13820" />
  <sodipodi:namedview
     id="base"
     pagecolor="#ffffff"
     bordercolor="#666666"
     borderopacity="1.0"
     inkscape:pageopacity="0.0"
     inkscape:pageshadow="2"
     inkscape:zoom="30.586462"
     inkscape:cx="6.9619327"
     inkscape:cy="6.5754939"
     inkscape:document-units="mm"
     inkscape:current-layer="layer1"
     showgrid="false"
     inkscape:window-width="742"
     inkscape:window-height="651"
     inkscape:window-x="560"
     inkscape:window-y="62"
     inkscape:window-maximized="0"
     showguides="true"
     inkscape:guide-bbox="true"
     gridtolerance="10"
     guidetolerance="2">
    <inkscape:grid
       type="xygrid"
       id="grid13828" />
    <sodipodi:guide
       position="0.13043093,3.8477124"
       orientation="1,0"
       id="guide20533"
       inkscape:locked="false" />
    <sodipodi:guide
       position="1.9173346,3.6129367"
       orientation="0,1"
       id="guide20535"
       inkscape:locked="false" />
  </sodipodi:namedview>
  <metadata
     id="metadata13823">
    <rdf:RDF>
      <cc:Work
         rdf:about="">
        <dc:format>image/svg+xml</dc:format>
        <dc:type
           rdf:resource="http://purl.org/dc/dcmitype/StillImage" />
        <dc:title></dc:title>
      </cc:Work>
    </rdf:RDF>
  </metadata>
  <g
     inkscape:label="Layer 1"
     inkscape:groupmode="layer"
     id="layer1"
     transform="translate(0,-293.25)">
    <path
       inkscape:connector-curvature="0"
       id="path4533"
       d="m 3.2041752,296.87474 c 0.2301311,0 0.4161684,-0.18604 0.4161684,-0.41617 v -2.6541 c 0,-0.22876 -0.1860373,-0.41617 -0.4161684,-0.41617 H 0.55007286 c -0.22875523,0 -0.41616842,0.18741 -0.41616842,0.41617 v 2.6541 c 0,0.23013 0.18741319,0.41617 0.41616842,0.41617 z m 0,0"
       style="fill:#211e1e;fill-opacity:1;fill-rule:nonzero;stroke:none;stroke-width:0.35277775" />
    <path
       inkscape:connector-curvature="0"
       id="path4535"
       d="m 0.55007286,293.45996 c -0.1901684,0 -0.34588803,0.15434 -0.34588803,0.34451 v 2.6541 c 0,0.19017 0.15571963,0.34589 0.34588803,0.34589 H 3.2041752 c 0.1901684,0 0.3458879,-0.15572 0.3458879,-0.34589 v -2.6541 c 0,-0.19017 -0.1557195,-0.34451 -0.3458879,-0.34451 z m 0,0"
       style="fill:#ffffff;fill-opacity:1;fill-rule:nonzero;stroke:none;stroke-width:0.35277775" />
    <path
       inkscape:connector-curvature="0"
       id="path4537"
       d="m 0.82154591,294.92895 c -0.0123825,0.0262 -0.0220485,0.0537 -0.026176,0.0841 -0.002822,0.0152 -0.004128,0.0303 -0.004128,0.0455 l 0.0110067,0.69454 -0.23977952,0.51676 c -0.008255,0.0152 -0.0137935,0.0331 -0.0165452,0.0524 -0.0137935,0.0854 0.0454766,0.16399 0.13091581,0.17777 0.0647665,0.01 0.12953296,-0.0234 0.15985066,-0.0786 l 0.26320754,-0.56637 c 0.0055,-0.0124 0.00963,-0.0262 0.012382,-0.0413 0.00141,-0.007 0.00141,-0.0152 0.00141,-0.022 l -0.00282,-0.42857 0.4065199,0.17639 0.064766,0.4203 c 0.013794,0.0606 0.063391,0.11024 0.1295365,0.12127 0.085439,0.011 0.1639852,-0.0469 0.1777682,-0.13092 0.00141,-0.0152 0.00141,-0.0303 0,-0.0441 l -0.079929,-0.50574 c -0.00963,-0.0496 -0.041338,-0.0909 -0.086815,-0.11162 l -0.3624227,-0.16261 0.230131,-0.40101 0.1143776,0.14469 c 0.012418,0.0138 0.027552,0.0248 0.044097,0.0317 l 0.4368377,0.12678 c 0.057877,0.0124 0.1171328,-0.0179 0.1391814,-0.073 0.026176,-0.0634 -0.00413,-0.13504 -0.067522,-0.16123 -0.00141,0 -0.00413,-0.001 -0.0055,-0.001 l -0.378963,-0.11223 -0.2852526,-0.34313 c -0.042721,-0.0455 -0.1005981,-0.0772 -0.1667439,-0.0882 -0.1157535,-0.0165 -0.2259965,0.0386 -0.2838768,0.13229 z m 0,0"
       style="fill:#211e1e;fill-opacity:1;fill-rule:nonzero;stroke:none;stroke-width:0.35277775" />
    <path
       inkscape:connector-curvature="0"
       id="path4539"
       d="m 2.0728063,295.92527 -0.027552,0.20808 -0.7510285,0.1819 0.00688,0.12954 h 1.8300347 c 0.064767,0 0.1171329,-0.0524 0.1171329,-0.11713 l -0.00141,-2.46669 -0.2508001,-0.0593 -0.1446954,0.64906 -0.2411554,0.1006 -0.2122205,0.59806 0.202572,0.45889 -0.057877,0.17501 z m 0,0"
       style="fill:#211e1e;fill-opacity:1;fill-rule:nonzero;stroke:none;stroke-width:0.35277775" />
    <path
       inkscape:connector-curvature="0"
       id="path4541"
       d="m 1.5629331,294.21926 c 0.1281571,0 0.2328862,-0.10473 0.2328862,-0.23289 0,-0.12954 -0.1047291,-0.23427 -0.2328862,-0.23427 -0.1295365,0 -0.2342692,0.10473 -0.2342692,0.23427 0,0.12816 0.1047327,0.23289 0.2342692,0.23289"
       style="fill:#211e1e;fill-opacity:1;fill-rule:nonzero;stroke:none;stroke-width:0.35277775" />
    <path
       inkscape:connector-curvature="0"
       id="path4543"
       d="m 1.0985329,294.25646 c 0.017921,-0.0317 0.00688,-0.073 -0.0248,-0.0909 l -0.11437759,-0.0661 c -0.0316795,-0.0179 -0.0730356,-0.008 -0.0909496,0.0248 l -0.34864675,0.60083 c -0.017921,0.0317 -0.006879,0.073 0.0248002,0.091 l 0.11437761,0.0661 c 0.0316794,0.0179 0.0716562,0.007 0.0909496,-0.0248 z m 0,0"
       style="fill:#211e1e;fill-opacity:1;fill-rule:nonzero;stroke:none;stroke-width:0.35277775" />
  </g>
</svg>
