<?xml version="1.0" encoding="UTF-8" standalone="no"?>
<!-- Created with Inkscape (http://www.inkscape.org/) -->

<svg
   xmlns:dc="http://purl.org/dc/elements/1.1/"
   xmlns:cc="http://creativecommons.org/ns#"
   xmlns:rdf="http://www.w3.org/1999/02/22-rdf-syntax-ns#"
   xmlns:svg="http://www.w3.org/2000/svg"
   xmlns="http://www.w3.org/2000/svg"
   xmlns:sodipodi="http://sodipodi.sourceforge.net/DTD/sodipodi-0.dtd"
   xmlns:inkscape="http://www.inkscape.org/namespaces/inkscape"
   width="3.75mm"
   height="3.75mm"
   viewBox="0 0 3.75 3.75"
   version="1.1"
   id="svg13826"
   inkscape:version="0.92.1 r15371"
   sodipodi:docname="fitness_dark.svg">
  <defs
     id="defs13820" />
  <sodipodi:namedview
     id="base"
     pagecolor="#ffffff"
     bordercolor="#666666"
     borderopacity="1.0"
     inkscape:pageopacity="0.0"
     inkscape:pageshadow="2"
     inkscape:zoom="30.586462"
     inkscape:cx="6.9619327"
     inkscape:cy="6.2487963"
     inkscape:document-units="mm"
     inkscape:current-layer="layer1"
     showgrid="false"
     inkscape:window-width="742"
     inkscape:window-height="651"
     inkscape:window-x="608"
     inkscape:window-y="54"
     inkscape:window-maximized="0"
     showguides="true"
     inkscape:guide-bbox="true"
     gridtolerance="10"
     guidetolerance="2">
    <inkscape:grid
       type="xygrid"
       id="grid13828" />
    <sodipodi:guide
       position="0.13043093,3.8477124"
       orientation="1,0"
       id="guide20533"
       inkscape:locked="false" />
    <sodipodi:guide
       position="1.9173346,3.6129367"
       orientation="0,1"
       id="guide20535"
       inkscape:locked="false" />
  </sodipodi:namedview>
  <metadata
     id="metadata13823">
    <rdf:RDF>
      <cc:Work
         rdf:about="">
        <dc:format>image/svg+xml</dc:format>
        <dc:type
           rdf:resource="http://purl.org/dc/dcmitype/StillImage" />
        <dc:title></dc:title>
      </cc:Work>
    </rdf:RDF>
  </metadata>
  <g
     inkscape:label="Layer 1"
     inkscape:groupmode="layer"
     id="layer1"
     transform="translate(0,-293.25)">
    <path
       inkscape:connector-curvature="0"
       id="path2769"
       d="m 0.55007106,293.45859 c -0.19016838,0 -0.34588448,0.15572 -0.34588448,0.34589 v 2.6541 c 0,0.19017 0.1557161,0.34589 0.34588448,0.34589 H 3.2027977 c 0.191544,0 0.3472638,-0.15572 0.3472638,-0.34589 v -2.6541 c 0,-0.19017 -0.1557198,-0.34589 -0.3472638,-0.34589 z m 0,0"
       style="fill:#ffffff;fill-opacity:1;fill-rule:nonzero;stroke:none;stroke-width:0.35277775" />
    <path
       inkscape:connector-curvature="0"
       id="path2771"
       d="m 3.2027977,296.87475 c 0.2301309,0 0.4175442,-0.18604 0.4175442,-0.41755 v -2.65272 c 0,-0.23013 -0.1874133,-0.41617 -0.4175442,-0.41617 H 0.55007106 c -0.23013104,0 -0.41616487,0.18604 -0.41616487,0.41617 v 2.65272 c 0,0.23151 0.18603383,0.41755 0.41616487,0.41755 z m 0,0"
       style="fill:#211e1e;fill-opacity:1;fill-rule:nonzero;stroke:none;stroke-width:0.35277775" />
    <path
       inkscape:connector-curvature="0"
       id="path2773"
       d="m 2.5261804,294.22478 c 0.1157535,0 0.2094618,-0.0937 0.2094618,-0.20946 0,-0.11438 -0.093708,-0.20946 -0.2094618,-0.20946 -0.1157569,0 -0.2094618,0.0951 -0.2094618,0.20946 0,0.11575 0.093705,0.20946 0.2094618,0.20946"
       style="fill:#ffffff;fill-opacity:1;fill-rule:nonzero;stroke:none;stroke-width:0.35277775" />
    <path
       inkscape:connector-curvature="0"
       id="path2775"
       d="M 2.6818966,294.27163 H 2.3759747 L 1.856453,293.75074 c -0.041342,-0.0414 -0.1088637,-0.0441 -0.1515851,-0.003 -0.042718,0.0413 -0.044097,0.10887 -0.00413,0.15021 l 0.5443256,0.54433 v 1.80522 c 0,0.0648 0.052366,0.11714 0.1171327,0.11714 0.06477,0 0.1171329,-0.0524 0.1171329,-0.11714 v -0.9784 h 0.095088 l 0.00141,0.9784 c 0,0.0648 0.052366,0.11714 0.1171328,0.11714 0.06477,0 0.1171329,-0.0524 0.1171329,-0.11714 v -1.80522 l 0.5429504,-0.54433 c 0.041339,-0.0413 0.038583,-0.10887 -0.00413,-0.15021 -0.042721,-0.0413 -0.1102429,-0.0386 -0.1502056,0.003 z m 0,0"
       style="fill:#ffffff;fill-opacity:1;fill-rule:nonzero;stroke:none;stroke-width:0.35277775" />
    <path
       inkscape:connector-curvature="0"
       id="path2777"
       d="m 1.5753315,295.06814 c -0.031679,-0.0331 -0.074411,-0.0524 -0.1226432,-0.0524 H 1.0144712 c -0.048232,0 -0.092329,0.0193 -0.12264666,0.0524 l -0.43959285,0.43822 c -0.0399627,0.0427 -0.0385833,0.11024 0.004128,0.15158 0.0427179,0.04 0.11162242,0.0386 0.15158508,-0.004 l 0.34037416,-0.34037 v 0.45475 h -0.3817167 c -0.0716598,0 -0.1281571,0.0565 -0.1281571,0.12678 0,0.0372 0.0137935,0.0689 0.0399627,0.0923 l 0.42856854,0.42995 c 0.0385868,0.0551 0.11300173,0.0744 0.17225433,0.04 0.062015,-0.0358 0.082684,-0.11575 0.048232,-0.17777 L 0.88079316,296.03553 H 1.5904833 l -0.2452899,0.24529 c -0.035828,0.0606 -0.015169,0.14056 0.046852,0.17639 0.059256,0.0345 0.1350504,0.0165 0.1722543,-0.0386 l 0.4299479,-0.43133 c 0.0248,-0.0221 0.038587,-0.0551 0.038587,-0.091 0,-0.0717 -0.056501,-0.12816 -0.1267813,-0.12816 H 1.5257239 v -0.44924 l 0.3334843,0.33624 c 0.041342,0.0427 0.1088672,0.0441 0.1515851,0.003 0.042718,-0.04 0.044097,-0.10749 0.00282,-0.15021 z m 0,0"
       style="fill:#ffffff;fill-opacity:1;fill-rule:nonzero;stroke:none;stroke-width:0.35277775" />
    <path
       inkscape:connector-curvature="0"
       id="path2779"
       d="m 1.2377126,294.97168 c 0.1157569,0 0.2080859,-0.0951 0.2080859,-0.20946 0,-0.11576 -0.092329,-0.20946 -0.2080859,-0.20946 -0.1143777,0 -0.2094619,0.0937 -0.2094619,0.20946 0,0.11437 0.095084,0.20946 0.2094619,0.20946"
       style="fill:#ffffff;fill-opacity:1;fill-rule:nonzero;stroke:none;stroke-width:0.35277775" />
  </g>
</svg>
