<?xml version="1.0" encoding="UTF-8" standalone="no"?>
<!-- Created with Inkscape (http://www.inkscape.org/) -->

<svg
   xmlns:dc="http://purl.org/dc/elements/1.1/"
   xmlns:cc="http://creativecommons.org/ns#"
   xmlns:rdf="http://www.w3.org/1999/02/22-rdf-syntax-ns#"
   xmlns:svg="http://www.w3.org/2000/svg"
   xmlns="http://www.w3.org/2000/svg"
   xmlns:sodipodi="http://sodipodi.sourceforge.net/DTD/sodipodi-0.dtd"
   xmlns:inkscape="http://www.inkscape.org/namespaces/inkscape"
   width="3.75mm"
   height="3.75mm"
   viewBox="0 0 3.75 3.75"
   version="1.1"
   id="svg13826"
   inkscape:version="0.92.1 r15371"
   sodipodi:docname="fitness_light.svg">
  <defs
     id="defs13820" />
  <sodipodi:namedview
     id="base"
     pagecolor="#ffffff"
     bordercolor="#666666"
     borderopacity="1.0"
     inkscape:pageopacity="0.0"
     inkscape:pageshadow="2"
     inkscape:zoom="30.586462"
     inkscape:cx="6.9619327"
     inkscape:cy="6.5754939"
     inkscape:document-units="mm"
     inkscape:current-layer="layer1"
     showgrid="false"
     inkscape:window-width="742"
     inkscape:window-height="651"
     inkscape:window-x="608"
     inkscape:window-y="54"
     inkscape:window-maximized="0"
     showguides="true"
     inkscape:guide-bbox="true"
     gridtolerance="10"
     guidetolerance="2">
    <inkscape:grid
       type="xygrid"
       id="grid13828" />
    <sodipodi:guide
       position="0.13043093,3.8477124"
       orientation="1,0"
       id="guide20533"
       inkscape:locked="false" />
    <sodipodi:guide
       position="1.9173346,3.6129367"
       orientation="0,1"
       id="guide20535"
       inkscape:locked="false" />
  </sodipodi:namedview>
  <metadata
     id="metadata13823">
    <rdf:RDF>
      <cc:Work
         rdf:about="">
        <dc:format>image/svg+xml</dc:format>
        <dc:type
           rdf:resource="http://purl.org/dc/dcmitype/StillImage" />
        <dc:title></dc:title>
      </cc:Work>
    </rdf:RDF>
  </metadata>
  <g
     inkscape:label="Layer 1"
     inkscape:groupmode="layer"
     id="layer1"
     transform="translate(0,-293.25)">
    <path
       inkscape:connector-curvature="0"
       id="path4597"
       d="m 3.1955249,296.8834 c 0.2301311,0 0.4161684,-0.18604 0.4161684,-0.41755 v -2.65272 c 0,-0.23013 -0.1860373,-0.41617 -0.4161684,-0.41617 H 0.54142253 c -0.22875523,0 -0.41616842,0.18604 -0.41616842,0.41617 v 2.65272 c 0,0.23151 0.18741319,0.41755 0.41616842,0.41755 z m 0,0"
       style="fill:#211e1e;fill-opacity:1;fill-rule:nonzero;stroke:none;stroke-width:0.35277775" />
    <path
       inkscape:connector-curvature="0"
       id="path4599"
       d="m 0.54280188,293.46724 c -0.19154775,0 -0.34726738,0.15572 -0.34726738,0.34589 v 2.6541 c 0,0.19017 0.15571963,0.34589 0.34726738,0.34589 H 3.1955249 c 0.1901684,0 0.3458879,-0.15572 0.3458879,-0.34589 v -2.6541 c 0,-0.19017 -0.1557195,-0.34589 -0.3458879,-0.34589 z m 0,0"
       style="fill:#ffffff;fill-opacity:1;fill-rule:nonzero;stroke:none;stroke-width:0.35277775" />
    <path
       inkscape:connector-curvature="0"
       id="path4601"
       d="m 2.5175283,294.23343 c 0.115757,0 0.2094618,-0.0937 0.2094618,-0.20946 0,-0.11438 -0.093705,-0.20946 -0.2094618,-0.20946 -0.114374,0 -0.2080824,0.0951 -0.2080824,0.20946 0,0.11575 0.093708,0.20946 0.2080824,0.20946"
       style="fill:#211e1e;fill-opacity:1;fill-rule:nonzero;stroke:none;stroke-width:0.35277775" />
    <path
       inkscape:connector-curvature="0"
       id="path4603"
       d="M 2.673248,294.28028 H 2.368702 l -0.5208976,-0.52089 c -0.039963,-0.0414 -0.1074878,-0.0441 -0.1502057,-0.003 -0.042721,0.0413 -0.045477,0.10887 -0.00413,0.15021 l 0.5429462,0.54433 v 1.80522 c 0,0.0648 0.052366,0.11714 0.1171328,0.11714 0.066146,0 0.1185121,-0.0524 0.1185121,-0.11714 v -0.9784 h 0.095077 v 0.9784 c 0,0.0648 0.053742,0.11714 0.1185121,0.11714 0.064766,0 0.1171329,-0.0524 0.1171329,-0.11714 l -0.00141,-1.80522 0.5443257,-0.54433 c 0.039963,-0.0413 0.038587,-0.10887 -0.00413,-0.15021 -0.042718,-0.0413 -0.1102431,-0.0386 -0.1515851,0.003 z m 0,0"
       style="fill:#211e1e;fill-opacity:1;fill-rule:nonzero;stroke:none;stroke-width:0.35277775" />
    <path
       inkscape:connector-curvature="0"
       id="path4605"
       d="m 1.5680623,295.07679 c -0.03168,-0.0331 -0.075794,-0.0524 -0.1240226,-0.0524 H 1.0071985 c -0.049608,0 -0.092326,0.0193 -0.12402252,0.0524 l -0.43821702,0.43822 c -0.0399627,0.0427 -0.0385833,0.11024 0.004128,0.15158 0.0427214,0.04 0.11024307,0.0386 0.15020573,-0.004 l 0.34037762,-0.34037 v 0.45475 H 0.55795369 c -0.0702804,0 -0.12678129,0.0565 -0.12678129,0.12678 0,0.0372 0.0137935,0.0689 0.0385868,0.0923 l 0.42994791,0.42995 c 0.038583,0.0551 0.11299829,0.0744 0.17225429,0.04 0.062011,-0.0358 0.08268,-0.11575 0.046852,-0.17777 L 0.87352398,296.04418 H 1.5832141 l -0.2466693,0.24529 c -0.034466,0.0606 -0.013794,0.14056 0.048232,0.17639 0.059256,0.0345 0.1336675,0.0165 0.1722543,-0.0386 l 0.4299479,-0.43133 c 0.0248,-0.0221 0.038583,-0.0551 0.038583,-0.091 0,-0.0717 -0.056497,-0.12816 -0.1267777,-0.12816 H 1.5170682 v -0.44924 l 0.3348637,0.33624 c 0.039963,0.0427 0.1074844,0.0441 0.1502058,0.003 0.042718,-0.04 0.044097,-0.10749 0.00413,-0.15021 z m 0,0"
       style="fill:#211e1e;fill-opacity:1;fill-rule:nonzero;stroke:none;stroke-width:0.35277775" />
    <path
       inkscape:connector-curvature="0"
       id="path4607"
       d="m 1.2304433,294.98033 c 0.1143777,0 0.2080825,-0.0951 0.2080825,-0.20946 0,-0.11576 -0.093705,-0.20946 -0.2080825,-0.20946 -0.1157569,0 -0.2094618,0.0937 -0.2094618,0.20946 0,0.11437 0.093705,0.20946 0.2094618,0.20946"
       style="fill:#211e1e;fill-opacity:1;fill-rule:nonzero;stroke:none;stroke-width:0.35277775" />
  </g>
</svg>
