<?xml version="1.0" encoding="UTF-8" standalone="no"?>
<!-- Created with Inkscape (http://www.inkscape.org/) -->

<svg
   xmlns:dc="http://purl.org/dc/elements/1.1/"
   xmlns:cc="http://creativecommons.org/ns#"
   xmlns:rdf="http://www.w3.org/1999/02/22-rdf-syntax-ns#"
   xmlns:svg="http://www.w3.org/2000/svg"
   xmlns="http://www.w3.org/2000/svg"
   xmlns:sodipodi="http://sodipodi.sourceforge.net/DTD/sodipodi-0.dtd"
   xmlns:inkscape="http://www.inkscape.org/namespaces/inkscape"
   width="3.75mm"
   height="3.75mm"
   viewBox="0 0 3.75 3.75"
   version="1.1"
   id="svg13826"
   inkscape:version="0.92.1 r15371"
   sodipodi:docname="hang_gliding_dark.svg">
  <defs
     id="defs13820" />
  <sodipodi:namedview
     id="base"
     pagecolor="#ffffff"
     bordercolor="#666666"
     borderopacity="1.0"
     inkscape:pageopacity="0.0"
     inkscape:pageshadow="2"
     inkscape:zoom="30.586462"
     inkscape:cx="6.9619327"
     inkscape:cy="6.2487963"
     inkscape:document-units="mm"
     inkscape:current-layer="layer1"
     showgrid="false"
     inkscape:window-width="742"
     inkscape:window-height="651"
     inkscape:window-x="488"
     inkscape:window-y="68"
     inkscape:window-maximized="0"
     showguides="true"
     inkscape:guide-bbox="true"
     gridtolerance="10"
     guidetolerance="2">
    <inkscape:grid
       type="xygrid"
       id="grid13828" />
    <sodipodi:guide
       position="0.13043093,3.8477124"
       orientation="1,0"
       id="guide20533"
       inkscape:locked="false" />
    <sodipodi:guide
       position="1.9173346,3.6129367"
       orientation="0,1"
       id="guide20535"
       inkscape:locked="false" />
  </sodipodi:namedview>
  <metadata
     id="metadata13823">
    <rdf:RDF>
      <cc:Work
         rdf:about="">
        <dc:format>image/svg+xml</dc:format>
        <dc:type
           rdf:resource="http://purl.org/dc/dcmitype/StillImage" />
        <dc:title></dc:title>
      </cc:Work>
    </rdf:RDF>
  </metadata>
  <g
     inkscape:label="Layer 1"
     inkscape:groupmode="layer"
     id="layer1"
     transform="translate(0,-293.25)">
    <path
       inkscape:connector-curvature="0"
       id="path4155"
       d="m 0.54869532,293.45722 c -0.1901684,0 -0.34588803,0.15572 -0.34588803,0.34727 v 2.65548 c 0,0.19016 0.15571963,0.34588 0.34588803,0.34588 H 3.2041735 c 0.1901685,0 0.3458879,-0.15572 0.3458879,-0.34588 v -2.65548 c 0,-0.19155 -0.1557194,-0.34727 -0.3458879,-0.34727 z m 0,0"
       style="fill:#ffffff;fill-opacity:1;fill-rule:nonzero;stroke:none;stroke-width:0.35277775" />
    <path
       inkscape:connector-curvature="0"
       id="path4157"
       d="m 3.2041735,296.87613 c 0.2301346,0 0.4175477,-0.18603 0.4175477,-0.41754 v -2.6541 c 0,-0.23014 -0.1874131,-0.41755 -0.4175477,-0.41755 H 0.54869532 c -0.23013459,0 -0.41616842,0.18741 -0.41616842,0.41755 v 2.6541 c 0,0.23151 0.18603383,0.41754 0.41616842,0.41754 z m 0,0"
       style="fill:#211e1e;fill-opacity:1;fill-rule:nonzero;stroke:none;stroke-width:0.35277775" />
    <path
       inkscape:connector-curvature="0"
       id="path4159"
       d="m 2.1334401,295.1839 c 0.079925,0.0262 0.1653646,-0.0138 0.1929236,-0.0937 0.027552,-0.0786 -0.013794,-0.16537 -0.093705,-0.19293 -0.07855,-0.0276 -0.1653646,0.0138 -0.1929271,0.0937 -0.027552,0.0785 0.013794,0.16536 0.093708,0.19292"
       style="fill:#ffffff;fill-opacity:1;fill-rule:nonzero;stroke:none;stroke-width:0.35277775" />
    <path
       inkscape:connector-curvature="0"
       id="path4161"
       d="m 2.5385806,295.43746 c -0.075791,0 -0.1998133,-10e-4 -0.2384001,-10e-4 -0.035828,-0.04 -0.1777647,-0.2012 -0.1777647,-0.2012 -0.00141,-0.003 -0.0055,-0.003 -0.00688,-0.006 -0.037204,-0.0413 -0.093705,-0.0634 -0.1515815,-0.051 l -0.088194,0.0234 0.048232,-0.48369 0.3748264,-0.113 z m 0.8364714,-1.24161 c 0,0 -0.5112525,-0.062 -1.5764757,-0.062 -0.7854843,0 -1.42626988,0.062 -1.42626988,0.062 0,0 0.26595917,0.11713 0.21910675,0.48093 0,0 0.38171612,-0.0455 0.54157033,0.28113 l 0.7179557,-0.21774 -0.048228,0.47818 -0.3017908,0.0744 c -0.027552,0.006 -0.050987,0.0193 -0.068905,0.0358 l -0.66558939,0.64216 c -0.0385868,0.0372 -0.0399662,0.1006 -0.00141,0.13918 0.0372075,0.0386 0.0992187,0.04 0.13780206,0.003 l 0.50022823,-0.48231 0.6146059,-0.15021 -0.00413,0.001 0.101974,-0.0262 0.093708,0.10611 c 0.013794,0.0165 0.034466,0.0262 0.056501,0.0262 l 0.3293498,10e-4 c 0.041342,0 0.07717,-0.0331 0.07717,-0.0758 0,-0.0358 -0.026176,-0.0648 -0.059256,-0.073 l -0.2466702,-0.85576 1.0238846,-0.31006 c 0.049608,-0.022 0.045473,-0.0717 -0.015169,-0.0786"
       style="fill:#ffffff;fill-opacity:1;fill-rule:nonzero;stroke:none;stroke-width:0.35277775" />
  </g>
</svg>
