<?xml version="1.0" encoding="UTF-8" standalone="no"?>
<!-- Created with Inkscape (http://www.inkscape.org/) -->

<svg
   xmlns:dc="http://purl.org/dc/elements/1.1/"
   xmlns:cc="http://creativecommons.org/ns#"
   xmlns:rdf="http://www.w3.org/1999/02/22-rdf-syntax-ns#"
   xmlns:svg="http://www.w3.org/2000/svg"
   xmlns="http://www.w3.org/2000/svg"
   xmlns:sodipodi="http://sodipodi.sourceforge.net/DTD/sodipodi-0.dtd"
   xmlns:inkscape="http://www.inkscape.org/namespaces/inkscape"
   width="3.75mm"
   height="3.75mm"
   viewBox="0 0 3.75 3.75"
   version="1.1"
   id="svg13826"
   inkscape:version="0.92.1 r15371"
   sodipodi:docname="hanggliding_lightsvg.svg">
  <defs
     id="defs13820" />
  <sodipodi:namedview
     id="base"
     pagecolor="#ffffff"
     bordercolor="#666666"
     borderopacity="1.0"
     inkscape:pageopacity="0.0"
     inkscape:pageshadow="2"
     inkscape:zoom="30.586462"
     inkscape:cx="6.9619327"
     inkscape:cy="6.2487963"
     inkscape:document-units="mm"
     inkscape:current-layer="layer1"
     showgrid="false"
     inkscape:window-width="742"
     inkscape:window-height="651"
     inkscape:window-x="608"
     inkscape:window-y="54"
     inkscape:window-maximized="0"
     showguides="true"
     inkscape:guide-bbox="true"
     gridtolerance="10"
     guidetolerance="2">
    <inkscape:grid
       type="xygrid"
       id="grid13828" />
    <sodipodi:guide
       position="0.13043093,3.8477124"
       orientation="1,0"
       id="guide20533"
       inkscape:locked="false" />
    <sodipodi:guide
       position="1.9173346,3.6129367"
       orientation="0,1"
       id="guide20535"
       inkscape:locked="false" />
  </sodipodi:namedview>
  <metadata
     id="metadata13823">
    <rdf:RDF>
      <cc:Work
         rdf:about="">
        <dc:format>image/svg+xml</dc:format>
        <dc:type
           rdf:resource="http://purl.org/dc/dcmitype/StillImage" />
        <dc:title></dc:title>
      </cc:Work>
    </rdf:RDF>
  </metadata>
  <g
     inkscape:label="Layer 1"
     inkscape:groupmode="layer"
     id="layer1"
     transform="translate(0,-293.25)">
    <path
       inkscape:connector-curvature="0"
       id="path5051"
       d="m 3.2142048,296.87612 c 0.2301311,0 0.416165,-0.18603 0.416165,-0.41754 v -2.6541 c 0,-0.23014 -0.1860339,-0.41755 -0.416165,-0.41755 H 0.55872318 c -0.23013106,0 -0.41754425,0.18741 -0.41754425,0.41755 v 2.6541 c 0,0.23151 0.18741319,0.41754 0.41754425,0.41754 z m 0,0"
       style="fill:#211e1e;fill-opacity:1;fill-rule:nonzero;stroke:none;stroke-width:0.35277775" />
    <path
       inkscape:connector-curvature="0"
       id="path5053"
       d="m 0.55872318,293.45721 c -0.19154776,0 -0.34726386,0.15572 -0.34726386,0.34589 v 2.65686 c 0,0.19016 0.1557161,0.34588 0.34726386,0.34588 H 3.2128255 c 0.1915478,0 0.3472638,-0.15572 0.3472638,-0.34588 v -2.65686 c 0,-0.19017 -0.155716,-0.34589 -0.3472638,-0.34589 z m 0,0"
       style="fill:#ffffff;fill-opacity:1;fill-rule:nonzero;stroke:none;stroke-width:0.35277775" />
    <path
       inkscape:connector-curvature="0"
       id="path5055"
       d="m 2.1434679,295.18389 c 0.078549,0.0262 0.1653646,-0.0138 0.1929236,-0.0937 0.027552,-0.0786 -0.015169,-0.16537 -0.093705,-0.19293 -0.079925,-0.0276 -0.1653646,0.0138 -0.194303,0.0937 -0.026176,0.0785 0.015169,0.16536 0.095084,0.19292"
       style="fill:#211e1e;fill-opacity:1;fill-rule:nonzero;stroke:none;stroke-width:0.35277775" />
    <path
       inkscape:connector-curvature="0"
       id="path5057"
       d="m 2.548612,295.43745 c -0.075794,0 -0.2011962,-0.001 -0.2384002,-0.001 -0.035832,-0.04 -0.1777682,-0.2012 -0.1777682,-0.2012 -0.00282,-0.003 -0.0055,-0.003 -0.00826,-0.006 -0.035828,-0.0413 -0.092329,-0.0634 -0.1502057,-0.0496 l -0.088195,0.022 0.046852,-0.48369 0.3762058,-0.113 z m 0.8364678,-1.24161 c 0,0 -0.5126283,-0.062 -1.577855,-0.062 -0.7841015,0 -1.42626635,0.062 -1.42626635,0.062 0,0 0.26595917,0.11713 0.2204861,0.48093 0,0 0.38171618,-0.0455 0.54156675,0.28113 l 0.7165799,-0.21774 -0.046852,0.47818 -0.3031701,0.0744 c -0.027552,0.006 -0.049608,0.0193 -0.067522,0.0358 l -0.66559283,0.64216 c -0.0399627,0.0372 -0.0399627,0.1006 -0.002822,0.13918 0.0372075,0.0386 0.10059458,0.04 0.13918142,0.003 l 0.50022821,-0.48231 0.6132266,-0.15021 -0.00413,10e-4 0.1019739,-0.0262 0.093708,0.10749 c 0.013793,0.0152 0.035828,0.0248 0.057877,0.0248 l 0.3293498,0.001 c 0.041342,0 0.075794,-0.0331 0.075794,-0.0758 0,-0.0358 -0.0248,-0.0648 -0.059256,-0.073 l -0.2452899,-0.85576 1.0238812,-0.31143 c 0.049608,-0.0207 0.045477,-0.0703 -0.015169,-0.0772"
       style="fill:#211e1e;fill-opacity:1;fill-rule:nonzero;stroke:none;stroke-width:0.35277775" />
  </g>
</svg>
