<?xml version="1.0" encoding="UTF-8" standalone="no"?>
<!-- Created with Inkscape (http://www.inkscape.org/) -->

<svg
   xmlns:dc="http://purl.org/dc/elements/1.1/"
   xmlns:cc="http://creativecommons.org/ns#"
   xmlns:rdf="http://www.w3.org/1999/02/22-rdf-syntax-ns#"
   xmlns:svg="http://www.w3.org/2000/svg"
   xmlns="http://www.w3.org/2000/svg"
   xmlns:sodipodi="http://sodipodi.sourceforge.net/DTD/sodipodi-0.dtd"
   xmlns:inkscape="http://www.inkscape.org/namespaces/inkscape"
   width="3.75mm"
   height="3.75mm"
   viewBox="0 0 3.75 3.75"
   version="1.1"
   id="svg13826"
   inkscape:version="0.92.1 r15371"
   sodipodi:docname="hiking_light.svg">
  <defs
     id="defs13820" />
  <sodipodi:namedview
     id="base"
     pagecolor="#ffffff"
     bordercolor="#666666"
     borderopacity="1.0"
     inkscape:pageopacity="0.0"
     inkscape:pageshadow="2"
     inkscape:zoom="30.586462"
     inkscape:cx="6.9619327"
     inkscape:cy="6.2487963"
     inkscape:document-units="mm"
     inkscape:current-layer="layer1"
     showgrid="false"
     inkscape:window-width="742"
     inkscape:window-height="651"
     inkscape:window-x="615"
     inkscape:window-y="47"
     inkscape:window-maximized="0"
     showguides="true"
     inkscape:guide-bbox="true"
     gridtolerance="10"
     guidetolerance="2">
    <inkscape:grid
       type="xygrid"
       id="grid13828" />
    <sodipodi:guide
       position="0.13043093,3.8477124"
       orientation="1,0"
       id="guide20533"
       inkscape:locked="false" />
    <sodipodi:guide
       position="1.9173346,3.6129367"
       orientation="0,1"
       id="guide20535"
       inkscape:locked="false" />
  </sodipodi:namedview>
  <metadata
     id="metadata13823">
    <rdf:RDF>
      <cc:Work
         rdf:about="">
        <dc:format>image/svg+xml</dc:format>
        <dc:type
           rdf:resource="http://purl.org/dc/dcmitype/StillImage" />
        <dc:title></dc:title>
      </cc:Work>
    </rdf:RDF>
  </metadata>
  <g
     inkscape:label="Layer 1"
     inkscape:groupmode="layer"
     id="layer1"
     transform="translate(0,-293.25)">
    <path
       inkscape:connector-curvature="0"
       id="path12793"
       d="m 3.1868728,296.86609 c 0.2301346,0 0.4161684,-0.18604 0.4161684,-0.41617 v -2.6541 c 0,-0.23013 -0.1860338,-0.41617 -0.4161684,-0.41617 H 0.53414976 c -0.23013106,0 -0.41754425,0.18604 -0.41754425,0.41617 v 2.6541 c 0,0.23013 0.18741319,0.41617 0.41754425,0.41617 z m 0,0"
       style="fill:#211e1e;fill-opacity:1;fill-rule:nonzero;stroke:none;stroke-width:0.35277775" />
    <path
       inkscape:connector-curvature="0"
       id="path12795"
       d="m 0.53414976,293.44993 c -0.19154776,0 -0.34588803,0.15434 -0.34588803,0.34589 v 2.6541 c 0,0.19017 0.15434027,0.34451 0.34588803,0.34451 H 3.1868728 c 0.1915478,0 0.345888,-0.15434 0.345888,-0.34451 v -2.6541 c 0,-0.19155 -0.1543402,-0.34589 -0.345888,-0.34589 z m 0,0"
       style="fill:#ffffff;fill-opacity:1;fill-rule:nonzero;stroke:none;stroke-width:0.35277775" />
    <path
       inkscape:connector-curvature="0"
       id="path12797"
       d="m 1.8997878,294.10588 c 0.1281571,0 0.2328862,-0.10473 0.2328862,-0.23427 0,-0.12816 -0.1047291,-0.23289 -0.2328862,-0.23289 -0.1295365,0 -0.2342692,0.10473 -0.2342692,0.23289 0,0.12954 0.1047327,0.23427 0.2342692,0.23427"
       style="fill:#211e1e;fill-opacity:1;fill-rule:nonzero;stroke:none;stroke-width:0.35277775" />
    <path
       inkscape:connector-curvature="0"
       id="path12799"
       d="m 1.505668,294.14446 c 0.00825,-0.0358 -0.013794,-0.0717 -0.049611,-0.0813 l -0.1943029,-0.0469 c -0.035828,-0.008 -0.071656,0.0138 -0.079925,0.0496 l -0.1639853,0.67523 c -0.00825,0.0358 0.013794,0.0717 0.049608,0.0813 l 0.194303,0.0469 c 0.035828,0.008 0.07166,-0.0138 0.079925,-0.0496 z m 0,0"
       style="fill:#211e1e;fill-opacity:1;fill-rule:nonzero;stroke:none;stroke-width:0.35277775" />
    <path
       inkscape:connector-curvature="0"
       id="path12801"
       d="m 2.4013919,296.54776 c 0,0.001 0,0.003 0,0.004 0,0.0289 0.023424,0.0537 0.053742,0.0537 0.027552,0 0.049611,-0.0207 0.052366,-0.0469 L 2.8988644,294.435 v -0.004 c 0,-0.0289 -0.023424,-0.0524 -0.052366,-0.0524 -0.027552,0 -0.048232,0.0207 -0.053742,0.0469 z m 0,0"
       style="fill:#211e1e;fill-opacity:1;fill-rule:nonzero;stroke:none;stroke-width:0.35277775" />
    <path
       inkscape:connector-curvature="0"
       id="path12803"
       d="m 1.1005238,296.40858 c -0.00282,0.011 -0.00282,0.022 -0.00282,0.0331 0,0.091 0.073036,0.16399 0.1639853,0.16399 0.074415,0 0.1364262,-0.0496 0.1570954,-0.11713 l 0.2811217,-1.16582 0.2687179,1.15893 c 0.017921,0.0717 0.08268,0.12402 0.1584748,0.12402 0.09095,0 0.1639852,-0.073 0.1639852,-0.16399 0,-0.0124 -0.00141,-0.0234 -0.00282,-0.0358 l -0.369316,-1.54065 0.031715,-0.13505 0.023424,0.10611 c 0.022048,0.0703 0.085439,0.0772 0.085439,0.0772 l 0.3803403,0.0965 c 0.00688,10e-4 0.015169,10e-4 0.022048,10e-4 0.062011,0 0.1129983,-0.0496 0.1129983,-0.11161 0,-0.0524 -0.037208,-0.0978 -0.086819,-0.10887 l -0.3279702,-0.0827 -0.090953,-0.36656 c -0.042718,-0.20533 -0.2384001,-0.19982 -0.2384001,-0.19982 -0.1901684,-0.005 -0.2370208,0.19431 -0.2370208,0.19431 z m 0,0"
       style="fill:#211e1e;fill-opacity:1;fill-rule:nonzero;stroke:none;stroke-width:0.35277775" />
  </g>
</svg>
