<?xml version="1.0" encoding="UTF-8" standalone="no"?>
<!-- Created with Inkscape (http://www.inkscape.org/) -->

<svg
   xmlns:dc="http://purl.org/dc/elements/1.1/"
   xmlns:cc="http://creativecommons.org/ns#"
   xmlns:rdf="http://www.w3.org/1999/02/22-rdf-syntax-ns#"
   xmlns:svg="http://www.w3.org/2000/svg"
   xmlns="http://www.w3.org/2000/svg"
   xmlns:sodipodi="http://sodipodi.sourceforge.net/DTD/sodipodi-0.dtd"
   xmlns:inkscape="http://www.inkscape.org/namespaces/inkscape"
   width="3.75mm"
   height="3.75mm"
   viewBox="0 0 3.75 3.75"
   version="1.1"
   id="svg13826"
   inkscape:version="0.92.1 r15371"
   sodipodi:docname="horseback_riding_dark.svg">
  <defs
     id="defs13820" />
  <sodipodi:namedview
     id="base"
     pagecolor="#ffffff"
     bordercolor="#666666"
     borderopacity="1.0"
     inkscape:pageopacity="0.0"
     inkscape:pageshadow="2"
     inkscape:zoom="30.586462"
     inkscape:cx="6.9619327"
     inkscape:cy="6.2487963"
     inkscape:document-units="mm"
     inkscape:current-layer="layer1"
     showgrid="false"
     inkscape:window-width="742"
     inkscape:window-height="651"
     inkscape:window-x="488"
     inkscape:window-y="89"
     inkscape:window-maximized="0"
     showguides="true"
     inkscape:guide-bbox="true"
     gridtolerance="10"
     guidetolerance="2">
    <inkscape:grid
       type="xygrid"
       id="grid13828" />
    <sodipodi:guide
       position="0.13043093,3.8477124"
       orientation="1,0"
       id="guide20533"
       inkscape:locked="false" />
    <sodipodi:guide
       position="1.9173346,3.6129367"
       orientation="0,1"
       id="guide20535"
       inkscape:locked="false" />
    <sodipodi:guide
       position="0.16435648,3.6129367"
       orientation="0,1"
       id="guide27414"
       inkscape:locked="false" />
  </sodipodi:namedview>
  <metadata
     id="metadata13823">
    <rdf:RDF>
      <cc:Work
         rdf:about="">
        <dc:format>image/svg+xml</dc:format>
        <dc:type
           rdf:resource="http://purl.org/dc/dcmitype/StillImage" />
        <dc:title></dc:title>
      </cc:Work>
    </rdf:RDF>
  </metadata>
  <g
     inkscape:label="Layer 1"
     inkscape:groupmode="layer"
     id="layer1"
     transform="translate(0,-293.25)">
    <path
       inkscape:connector-curvature="0"
       id="path12393"
       d="m 0.55007107,293.46723 c -0.19154421,0 -0.34588448,0.15572 -0.34588448,0.34588 v 2.65411 c 0,0.19017 0.15434027,0.34589 0.34588448,0.34589 H 3.2027977 c 0.191544,0 0.3458845,-0.15572 0.3458845,-0.34589 v -2.65411 c 0,-0.19016 -0.1543405,-0.34588 -0.3458845,-0.34588 z m 0,0"
       style="fill:#ffffff;fill-opacity:1;fill-rule:nonzero;stroke:none;stroke-width:0.35277775" />
    <path
       inkscape:connector-curvature="0"
       id="path12395"
       d="m 3.2027977,296.88339 c 0.2301309,0 0.4175442,-0.18604 0.4175442,-0.41617 v -2.65411 c 0,-0.23013 -0.1874133,-0.41616 -0.4175442,-0.41616 H 0.55007107 c -0.23013104,0 -0.41616487,0.18603 -0.41616487,0.41616 v 2.65411 c 0,0.23013 0.18603383,0.41617 0.41616487,0.41617 z m 0,0"
       style="fill:#211e1e;fill-opacity:1;fill-rule:nonzero;stroke:none;stroke-width:0.35277775" />
    <path
       inkscape:connector-curvature="0"
       id="path12397"
       d="m 1.6015146,294.08597 c 0.1102431,0 0.1998169,-0.0896 0.1998169,-0.19844 0,-0.11162 -0.089574,-0.20119 -0.1998169,-0.20119 -0.110243,0 -0.1998133,0.0896 -0.1998133,0.20119 0,0.10886 0.08957,0.19844 0.1998133,0.19844"
       style="fill:#ffffff;fill-opacity:1;fill-rule:nonzero;stroke:none;stroke-width:0.35277775" />
    <path
       inkscape:connector-curvature="0"
       id="path12399"
       d="m 0.4825494,295.07678 c 0,-0.16261 0.13091232,-0.2949 0.29352169,-0.2949 H 1.3975668 v -0.44511 c 0,-0.11162 0.08957,-0.20119 0.1998133,-0.20119 0.1116224,0 0.2011962,0.0896 0.2011962,0.20119 v 0.0689 l 0.2948975,0.0758 c 0.052366,0.0124 0.085439,0.0634 0.073039,0.11576 -0.011007,0.051 -0.063391,0.0841 -0.1157569,0.073 l -0.2521797,-0.0593 v 0.17088 h 0.2976562 l 0.8144192,-0.84198 -0.024799,0.2191 0.4010096,0.26597 c 0.066146,0.0386 0.090949,0.12402 0.052363,0.19016 -0.028928,0.0537 -0.088194,0.0786 -0.1446916,0.0689 l -0.03168,-0.007 c -0.038583,0.15709 -0.1805199,0.27147 -0.3472638,0.27147 -0.033055,0 -0.066146,-0.005 -0.096464,-0.0124 l -0.3031674,0.62011 v 0.85163 c 0,0.073 -0.060636,0.13229 -0.1336711,0.13229 -0.073036,0 -0.1322916,-0.0593 -0.1322916,-0.13229 v -0.87092 H 1.4802684 l -0.119888,0.20533 0.2508039,0.59807 c 0.035828,0.0648 0.013794,0.14469 -0.049611,0.18052 -0.064766,0.0358 -0.1446918,0.0138 -0.1818992,-0.0496 l -0.2921459,-0.6904 v -0.22048 l -0.13091228,0.2067 v 0.64079 c 0,0.073 -0.0592561,0.13229 -0.13229167,0.13229 -0.0730356,0 -0.13367104,-0.0593 -0.13367104,-0.13229 v -0.74 l 0.11024306,-0.17226 v -0.58016 l -0.10886368,0.16675 v 0.48369 H 0.48257057 Z m 2.6058705,-0.41341 -0.2122204,-0.0413 -0.1240226,0.24529 c 0.020673,0.006 0.041342,0.008 0.063391,0.008 0.1309124,0 0.2411552,-0.0896 0.2728523,-0.21222"
       style="fill:#ffffff;fill-opacity:1;fill-rule:nonzero;stroke:none;stroke-width:0.35277775" />
  </g>
</svg>
