<?xml version="1.0" encoding="UTF-8" standalone="no"?>
<!-- Created with Inkscape (http://www.inkscape.org/) -->

<svg
   xmlns:dc="http://purl.org/dc/elements/1.1/"
   xmlns:cc="http://creativecommons.org/ns#"
   xmlns:rdf="http://www.w3.org/1999/02/22-rdf-syntax-ns#"
   xmlns:svg="http://www.w3.org/2000/svg"
   xmlns="http://www.w3.org/2000/svg"
   xmlns:sodipodi="http://sodipodi.sourceforge.net/DTD/sodipodi-0.dtd"
   xmlns:inkscape="http://www.inkscape.org/namespaces/inkscape"
   width="3.75mm"
   height="3.75mm"
   viewBox="0 0 3.75 3.75"
   version="1.1"
   id="svg13826"
   inkscape:version="0.92.1 r15371"
   sodipodi:docname="in-line_skating_light.svg">
  <defs
     id="defs13820" />
  <sodipodi:namedview
     id="base"
     pagecolor="#ffffff"
     bordercolor="#666666"
     borderopacity="1.0"
     inkscape:pageopacity="0.0"
     inkscape:pageshadow="2"
     inkscape:zoom="30.586462"
     inkscape:cx="6.9619327"
     inkscape:cy="6.2487963"
     inkscape:document-units="mm"
     inkscape:current-layer="layer1"
     showgrid="false"
     inkscape:window-width="742"
     inkscape:window-height="651"
     inkscape:window-x="615"
     inkscape:window-y="47"
     inkscape:window-maximized="0"
     showguides="true"
     inkscape:guide-bbox="true"
     gridtolerance="10"
     guidetolerance="2">
    <inkscape:grid
       type="xygrid"
       id="grid13828" />
    <sodipodi:guide
       position="0.13043093,3.8477124"
       orientation="1,0"
       id="guide20533"
       inkscape:locked="false" />
    <sodipodi:guide
       position="1.9173346,3.6129367"
       orientation="0,1"
       id="guide20535"
       inkscape:locked="false" />
  </sodipodi:namedview>
  <metadata
     id="metadata13823">
    <rdf:RDF>
      <cc:Work
         rdf:about="">
        <dc:format>image/svg+xml</dc:format>
        <dc:type
           rdf:resource="http://purl.org/dc/dcmitype/StillImage" />
        <dc:title></dc:title>
      </cc:Work>
    </rdf:RDF>
  </metadata>
  <g
     inkscape:label="Layer 1"
     inkscape:groupmode="layer"
     id="layer1"
     transform="translate(0,-293.25)">
    <path
       inkscape:connector-curvature="0"
       id="path5027"
       d="m 3.2135169,296.87612 c 0.2301312,0 0.416165,-0.18603 0.416165,-0.41616 v -2.65549 c 0,-0.23013 -0.1860338,-0.41754 -0.416165,-0.41754 H 0.55803531 c -0.23013106,0 -0.41616842,0.18741 -0.41616842,0.41754 v 2.65549 c 0,0.23013 0.18603736,0.41616 0.41616842,0.41616 z m 0,0"
       style="fill:#211e1e;fill-opacity:1;fill-rule:nonzero;stroke:none;stroke-width:0.35277775" />
    <path
       inkscape:connector-curvature="0"
       id="path5029"
       d="m 0.55803531,293.45859 c -0.1901684,0 -0.34588803,0.15434 -0.34588803,0.34588 v 2.65549 c 0,0.19016 0.15571963,0.34588 0.34588803,0.34588 H 3.2121377 c 0.1915477,0 0.3472637,-0.15572 0.3472637,-0.34588 v -2.65549 c 0,-0.19154 -0.155716,-0.34588 -0.3472637,-0.34588 z m 0,0"
       style="fill:#ffffff;fill-opacity:1;fill-rule:nonzero;stroke:none;stroke-width:0.35277775" />
    <path
       inkscape:connector-curvature="0"
       id="path5031"
       d="m 2.5107167,293.65013 c -0.1405608,0 -0.253559,0.11438 -0.253559,0.25494 0,0.14056 0.1129982,0.25494 0.253559,0.25494 0.1405608,0 0.2549349,-0.11438 0.2549349,-0.25494 0,-0.14056 -0.1143741,-0.25494 -0.2549349,-0.25494"
       style="fill:#211e1e;fill-opacity:1;fill-rule:nonzero;stroke:none;stroke-width:0.35277775" />
    <path
       inkscape:connector-curvature="0"
       id="path5033"
       d="m 0.58835301,295.40713 c -0.0220486,-0.0358 -0.0675252,-0.0469 -0.10335329,-0.0248 -0.0358281,0.022 -0.0454766,0.0689 -0.0234245,0.10473 0.0220486,0.0345 0.0675252,0.0455 0.10335332,0.0234 0.0344664,-0.022 0.0454766,-0.0689 0.0234244,-0.10336"
       style="fill:#211e1e;fill-opacity:1;fill-rule:nonzero;stroke:none;stroke-width:0.35277775" />
    <path
       inkscape:connector-curvature="0"
       id="path5035"
       d="m 0.64071934,295.61384 c -0.0220486,-0.0345 -0.0675252,-0.0455 -0.10335328,-0.022 -0.0358281,0.0207 -0.0454766,0.0675 -0.0234245,0.10197 0.0220486,0.0358 0.0675252,0.0469 0.10197397,0.0248 0.0358316,-0.022 0.0468559,-0.0689 0.0248003,-0.10473"
       style="fill:#211e1e;fill-opacity:1;fill-rule:nonzero;stroke:none;stroke-width:0.35277775" />
    <path
       inkscape:connector-curvature="0"
       id="path5037"
       d="m 0.69308216,295.8233 c -0.0220486,-0.0358 -0.068901,-0.0469 -0.10334977,-0.0248 -0.0358317,0.0221 -0.046856,0.0689 -0.0248003,0.10473 0.0220486,0.0345 0.0689046,0.0441 0.10335332,0.022 0.0358281,-0.0207 0.0468524,-0.0675 0.0248003,-0.10198"
       style="fill:#211e1e;fill-opacity:1;fill-rule:nonzero;stroke:none;stroke-width:0.35277775" />
    <path
       inkscape:connector-curvature="0"
       id="path5039"
       d="m 0.74407266,296.03138 c -0.0220486,-0.0358 -0.0675252,-0.0469 -0.10197748,-0.0248 -0.0372075,0.0221 -0.0468524,0.0689 -0.0248003,0.10336 0.0220485,0.0358 0.0675252,0.0469 0.10335329,0.0248 0.0358281,-0.0221 0.0454766,-0.0689 0.0234243,-0.10336"
       style="fill:#211e1e;fill-opacity:1;fill-rule:nonzero;stroke:none;stroke-width:0.35277775" />
    <path
       inkscape:connector-curvature="0"
       id="path5041"
       d="m 1.9663912,296.45444 c -0.039963,0.0124 -0.062011,0.0551 -0.049611,0.0951 0.013794,0.04 0.056501,0.0606 0.095088,0.0482 0.039963,-0.0124 0.062011,-0.0551 0.049608,-0.0937 -0.013794,-0.04 -0.055122,-0.062 -0.095084,-0.0496"
       style="fill:#211e1e;fill-opacity:1;fill-rule:nonzero;stroke:none;stroke-width:0.35277775" />
    <path
       inkscape:connector-curvature="0"
       id="path5043"
       d="m 2.1799875,296.45582 c -0.038587,0.0124 -0.060635,0.0551 -0.048232,0.0937 0.012418,0.04 0.055121,0.062 0.095084,0.0496 0.038587,-0.0124 0.060635,-0.0551 0.048232,-0.0951 -0.013794,-0.0386 -0.055122,-0.0606 -0.095084,-0.0482"
       style="fill:#211e1e;fill-opacity:1;fill-rule:nonzero;stroke:none;stroke-width:0.35277775" />
    <path
       inkscape:connector-curvature="0"
       id="path5045"
       d="m 2.3963391,296.45582 c -0.041342,0.0138 -0.063391,0.0551 -0.049611,0.0951 0.012418,0.04 0.055122,0.062 0.095088,0.0482 0.038583,-0.011 0.060632,-0.0538 0.048228,-0.0937 -0.012418,-0.04 -0.055122,-0.062 -0.093705,-0.0496"
       style="fill:#211e1e;fill-opacity:1;fill-rule:nonzero;stroke:none;stroke-width:0.35277775" />
    <path
       inkscape:connector-curvature="0"
       id="path5047"
       d="m 2.6099354,296.4572 c -0.039963,0.0138 -0.062011,0.0551 -0.049611,0.0951 0.013794,0.0386 0.056501,0.0606 0.095084,0.0482 0.039966,-0.0124 0.062015,-0.0537 0.048232,-0.0937 -0.012382,-0.04 -0.055121,-0.062 -0.093705,-0.0496"
       style="fill:#211e1e;fill-opacity:1;fill-rule:nonzero;stroke:none;stroke-width:0.35277775" />
    <path
       inkscape:connector-curvature="0"
       id="path5049"
       d="M 3.1211879,294.77875 H 2.6760813 l -0.2039514,-0.46164 c -0.00282,-0.008 -0.00688,-0.0179 -0.00963,-0.0234 -0.00141,-10e-4 -0.00141,-10e-4 -0.00141,-0.003 l -0.00413,-0.008 v 10e-4 c -0.038583,-0.0813 -0.1185086,-0.1378 -0.212217,-0.14194 -0.017921,-0.001 -0.034431,0 -0.050987,0.004 l -1.1175903,0.26321 c -0.067522,0.0152 -0.11024299,0.0813 -0.0937047,0.15021 0.0137935,0.0675 0.0813046,0.10886 0.14882635,0.0937 l 0.7455182,-0.17776 -0.5663741,0.93568 H 0.70409586 l 0.13367105,0.52779 c 0.004128,0.0165 0.004128,0.0207 0.009631,0.0289 0.0192969,0.0303 0.0592561,0.0413 0.0895738,0.022 0.0165452,-0.01 0.027552,-0.0262 0.0303036,-0.0441 l 0.0799253,-0.24529 0.00413,-0.01 c 0,0 0.3706918,-10e-4 0.373447,-10e-4 0.074415,0 0.1378056,-0.0207 0.1750131,-0.0827 l 0.1722543,-0.28526 0.3830955,0.38172 -0.1626094,0.63803 h 0.5622396 c 0.035828,0 0.066146,-0.0289 0.066146,-0.0648 0,-0.0275 -0.017921,-0.0468 -0.039963,-0.0592 l -0.2425347,-0.13505 0.1171328,-0.45889 c 0,0 0.028928,-0.0965 -0.063391,-0.18603 l -0.3128151,-0.3142 c 0,0 0.1681197,-0.27422 0.2742318,-0.45199 l 0.1253984,0.28249 c 0.00963,0.0234 0.026176,0.0413 0.046856,0.0551 0,0 0,0 0,10e-4 0.020673,0.0124 0.044097,0.0193 0.07028,0.0193 h 0.5222733 c 0.07028,10e-4 0.1267814,-0.0551 0.1267814,-0.12402 0,-0.0703 -0.055122,-0.1254 -0.1240226,-0.12678"
       style="fill:#211e1e;fill-opacity:1;fill-rule:nonzero;stroke:none;stroke-width:0.35277775" />
  </g>
</svg>
