<?xml version="1.0" encoding="UTF-8" standalone="no"?>
<!-- Created with Inkscape (http://www.inkscape.org/) -->

<svg
   xmlns:dc="http://purl.org/dc/elements/1.1/"
   xmlns:cc="http://creativecommons.org/ns#"
   xmlns:rdf="http://www.w3.org/1999/02/22-rdf-syntax-ns#"
   xmlns:svg="http://www.w3.org/2000/svg"
   xmlns="http://www.w3.org/2000/svg"
   xmlns:sodipodi="http://sodipodi.sourceforge.net/DTD/sodipodi-0.dtd"
   xmlns:inkscape="http://www.inkscape.org/namespaces/inkscape"
   width="3.75mm"
   height="3.75mm"
   viewBox="0 0 3.75 3.75"
   version="1.1"
   id="svg13826"
   inkscape:version="0.92.1 r15371"
   sodipodi:docname="metal_detecting_dark.svg">
  <defs
     id="defs13820" />
  <sodipodi:namedview
     id="base"
     pagecolor="#ffffff"
     bordercolor="#666666"
     borderopacity="1.0"
     inkscape:pageopacity="0.0"
     inkscape:pageshadow="2"
     inkscape:zoom="30.586462"
     inkscape:cx="6.9619327"
     inkscape:cy="6.2487963"
     inkscape:document-units="mm"
     inkscape:current-layer="layer1"
     showgrid="false"
     inkscape:window-width="742"
     inkscape:window-height="651"
     inkscape:window-x="533"
     inkscape:window-y="51"
     inkscape:window-maximized="0"
     showguides="true"
     inkscape:guide-bbox="true"
     gridtolerance="10"
     guidetolerance="2">
    <inkscape:grid
       type="xygrid"
       id="grid13828" />
    <sodipodi:guide
       position="0.13043093,3.8477124"
       orientation="1,0"
       id="guide20533"
       inkscape:locked="false" />
    <sodipodi:guide
       position="1.9173346,3.6129367"
       orientation="0,1"
       id="guide20535"
       inkscape:locked="false" />
  </sodipodi:namedview>
  <metadata
     id="metadata13823">
    <rdf:RDF>
      <cc:Work
         rdf:about="">
        <dc:format>image/svg+xml</dc:format>
        <dc:type
           rdf:resource="http://purl.org/dc/dcmitype/StillImage" />
        <dc:title></dc:title>
      </cc:Work>
    </rdf:RDF>
  </metadata>
  <g
     inkscape:label="Layer 1"
     inkscape:groupmode="layer"
     id="layer1"
     transform="translate(0,-293.25)">
    <path
       inkscape:connector-curvature="0"
       id="path1139"
       d="m 0.53203488,293.45854 c -0.19016839,0 -0.34588802,0.15434 -0.34588802,0.34589 v 2.65548 c 0,0.19017 0.15571963,0.34589 0.34588802,0.34589 H 3.1875129 c 0.1901685,0 0.3472675,-0.15572 0.3472675,-0.34589 v -2.65548 c 0,-0.19155 -0.157099,-0.34589 -0.3472675,-0.34589 z m 0,0"
       style="fill:#ffffff;fill-opacity:1;fill-rule:nonzero;stroke:none;stroke-width:0.35277775" />
    <path
       inkscape:connector-curvature="0"
       id="path1141"
       d="M 3.4052438,295.59588 H 0.31016941 v -0.24116 c 0.16260939,-0.003 0.36793664,-0.0413 0.48506942,0.0441 0.24528987,-0.01 0.49058327,0.01 0.72209367,-0.01 0.2604488,-0.0289 0.5071181,0.0275 0.752408,-0.01 0.1584748,-0.0276 0.2604488,-0.007 0.4354583,-0.0165 0.013793,0 0.07166,-0.0303 0.085439,-0.0303 0.1887927,-0.0193 0.6146059,0.01 0.6146059,0.01 z m -0.6394095,0.19568 c -0.00688,0.007 -0.6959107,0.68351 -1.7156571,0.008 -0.00413,-0.004 -0.00413,-0.008 -0.00141,-0.0138 0.00282,-0.004 0.00967,-0.005 0.013794,-0.004 v -0.001 c 0,0 0,0.001 0.00141,0.001 0,0 0.00141,0 0.00141,0 0.1570954,0.0703 0.9784044,0.39825 1.6867187,-0.008 0.00413,-0.003 0.011007,-10e-4 0.013794,0.003 0.00413,0.004 0.00282,0.011 0,0.0152 m -0.276986,0.40377 c -0.00413,0.004 -0.4699106,0.46577 -1.1534176,0.01 -0.0055,-0.003 -0.00413,-0.008 -0.00141,-0.0138 0.00282,-0.004 0.00825,-0.005 0.013794,-0.004 0,0 0.00141,0 0.00141,0 0,0 0,0 0.00141,0.001 0.1019739,0.0441 0.6352751,0.25631 1.1258586,-0.011 0.0055,-0.003 0.00963,-10e-4 0.013793,0.004 0.00413,0.004 0.00282,0.01 -0.00141,0.0138 m -0.2824973,0.35692 c -0.00282,0.003 -0.2108377,0.21772 -0.5608602,0.011 -0.0055,-0.003 -0.00413,-0.008 -0.00282,-0.0124 0.00141,-0.006 0.00963,-0.008 0.015169,-0.007 0.07717,0.0207 0.3431329,0.0813 0.5346806,-0.008 0.00413,-0.003 0.011007,-10e-4 0.013793,0.003 0.00282,0.004 0.00282,0.011 0,0.0138 m -1.0238807,-1.64951 c 0.184658,0 0.3334845,0 0.4382171,0 h 0.1626058 l 0.5925574,-0.50022 0.591178,-0.49886 c 0.01792,0.004 0.053746,0.0289 0.088194,0.0579 0.033055,0.0289 0.063391,0.0634 0.07166,0.0827 l -0.5112526,0.42858 -0.512632,0.42994 h 0.540191 c 0.030304,0 0.067525,0.0634 0.066146,0.12678 -0.00141,0.0648 -0.041339,0.12816 -0.066146,0.12816 H 1.170115 c -0.022048,0 -0.057877,-0.0634 -0.056497,-0.12816 0.00141,-0.0634 0.039963,-0.12678 0.068901,-0.12678 m 2.0050442,-1.51652 H 0.53208428 c -0.23013459,0 -0.41616842,0.18741 -0.41616842,0.41754 v 2.65549 c 0,0.23013 0.18603383,0.41616 0.41616842,0.41616 H 3.1875624 c 0.2301346,0 0.4161684,-0.18603 0.4161684,-0.41616 v -2.65549 c 0,-0.23013 -0.1860338,-0.41754 -0.4161684,-0.41754"
       style="fill:#211e1e;fill-opacity:1;fill-rule:nonzero;stroke:none;stroke-width:0.35277775" />
  </g>
</svg>
