<?xml version="1.0" encoding="UTF-8" standalone="no"?>
<!-- Created with Inkscape (http://www.inkscape.org/) -->

<svg
   xmlns:dc="http://purl.org/dc/elements/1.1/"
   xmlns:cc="http://creativecommons.org/ns#"
   xmlns:rdf="http://www.w3.org/1999/02/22-rdf-syntax-ns#"
   xmlns:svg="http://www.w3.org/2000/svg"
   xmlns="http://www.w3.org/2000/svg"
   xmlns:sodipodi="http://sodipodi.sourceforge.net/DTD/sodipodi-0.dtd"
   xmlns:inkscape="http://www.inkscape.org/namespaces/inkscape"
   width="3.75mm"
   height="3.75mm"
   viewBox="0 0 3.75 3.75"
   version="1.1"
   id="svg13826"
   inkscape:version="0.92.1 r15371"
   sodipodi:docname="rock_climbing_light.svg">
  <defs
     id="defs13820" />
  <sodipodi:namedview
     id="base"
     pagecolor="#ffffff"
     bordercolor="#666666"
     borderopacity="1.0"
     inkscape:pageopacity="0.0"
     inkscape:pageshadow="2"
     inkscape:zoom="30.586462"
     inkscape:cx="6.9619327"
     inkscape:cy="6.2487963"
     inkscape:document-units="mm"
     inkscape:current-layer="layer1"
     showgrid="false"
     inkscape:window-width="742"
     inkscape:window-height="651"
     inkscape:window-x="533"
     inkscape:window-y="51"
     inkscape:window-maximized="0"
     showguides="true"
     inkscape:guide-bbox="true"
     gridtolerance="10"
     guidetolerance="2">
    <inkscape:grid
       type="xygrid"
       id="grid13828" />
    <sodipodi:guide
       position="0.13043093,3.8477124"
       orientation="1,0"
       id="guide20533"
       inkscape:locked="false" />
    <sodipodi:guide
       position="1.9173346,3.6129367"
       orientation="0,1"
       id="guide20535"
       inkscape:locked="false" />
    <sodipodi:guide
       position="0.16435648,3.6129367"
       orientation="0,1"
       id="guide27414"
       inkscape:locked="false" />
  </sodipodi:namedview>
  <metadata
     id="metadata13823">
    <rdf:RDF>
      <cc:Work
         rdf:about="">
        <dc:format>image/svg+xml</dc:format>
        <dc:type
           rdf:resource="http://purl.org/dc/dcmitype/StillImage" />
        <dc:title></dc:title>
      </cc:Work>
    </rdf:RDF>
  </metadata>
  <g
     inkscape:label="Layer 1"
     inkscape:groupmode="layer"
     id="layer1"
     transform="translate(0,-293.25)">
    <path
       inkscape:connector-curvature="0"
       id="path4519"
       d="m 3.1782242,296.88339 c 0.2301311,0 0.4161684,-0.18604 0.4161684,-0.41617 v -2.6541 c 0,-0.23014 -0.1860373,-0.41617 -0.4161684,-0.41617 H 0.52550119 c -0.23013458,0 -0.41754777,0.18603 -0.41754777,0.41617 v 2.6541 c 0,0.23013 0.18741319,0.41617 0.41754777,0.41617 z m 0,0"
       style="fill:#211e1e;fill-opacity:1;fill-rule:nonzero;stroke:none;stroke-width:0.35277775" />
    <path
       inkscape:connector-curvature="0"
       id="path4521"
       d="m 0.52550119,293.46723 c -0.19154775,0 -0.34588802,0.15572 -0.34588802,0.34589 v 2.6541 c 0,0.19017 0.15434027,0.34589 0.34588802,0.34589 H 3.1782242 c 0.1901684,0 0.3458879,-0.15572 0.3458879,-0.34589 v -2.6541 c 0,-0.19017 -0.1557195,-0.34589 -0.3458879,-0.34589 z m 0,0"
       style="fill:#ffffff;fill-opacity:1;fill-rule:nonzero;stroke:none;stroke-width:0.35277775" />
    <path
       inkscape:connector-curvature="0"
       id="path4523"
       d="m 1.851173,295.63902 c -0.030304,0.011 -0.063391,0.0165 -0.096464,0.0165 -0.037207,0 -0.073036,-0.004 -0.1061084,-0.0138 L 1.2737742,296.503 c -0.034431,0.0799 -0.1281571,0.1061 -0.2108376,0.0606 -0.0813047,-0.0469 -0.11989156,-0.14745 -0.0854392,-0.22738 L 1.4377629,295.2834 h 0.5842883 v -0.0992 l 0.2976561,-0.1378 c 0.07717,-0.0372 0.1777647,0.0275 0.1984375,0.10886 l 0.1460712,0.58291 c 0.019297,0.0827 -0.030304,0.16675 -0.1129983,0.18742 -0.082684,0.0207 -0.1667439,-0.0303 -0.1874132,-0.113 l -0.092329,-0.37069 z m 0,0"
       style="fill:#211e1e;fill-opacity:1;fill-rule:nonzero;stroke:none;stroke-width:0.35277775" />
    <path
       inkscape:connector-curvature="0"
       id="path4525"
       d="m 2.1212702,295.03544 c 0.6407856,-0.31833 0.8888343,-1.40836 0.8888343,-1.49931 h -0.088195 c -0.031715,0.22738 -0.3086805,1.13688 -0.8006397,1.40009 z m 0,0"
       style="fill:#211e1e;fill-opacity:1;fill-rule:nonzero;stroke:none;stroke-width:0.35277775" />
    <path
       inkscape:connector-curvature="0"
       id="path4527"
       d="m 0.93615569,294.79704 c 0.0344664,0.0524 0.10197391,0.0758 0.16123001,0.051 l 0.3403776,-0.13366 v 0.47128 h 0.585664 v -0.5457 l 0.5236563,-0.83923 c 0.039963,-0.062 0.022048,-0.14331 -0.039963,-0.18189 -0.062015,-0.0386 -0.143316,-0.0207 -0.1777682,0.0386 l -0.4451068,0.71382 -0.2687179,10e-4 c -0.017921,0 -0.034431,0.003 -0.052366,0.01 l -0.4643966,0.18189 -0.23840021,-0.36242 c -0.0399627,-0.0606 -0.12126735,-0.0786 -0.18190278,-0.04 -0.0620113,0.04 -0.0799253,0.12127 -0.0399627,0.18328 z m 0,0"
       style="fill:#211e1e;fill-opacity:1;fill-rule:nonzero;stroke:none;stroke-width:0.35277775" />
    <path
       inkscape:connector-curvature="0"
       id="path4529"
       d="m 1.689943,294.32437 c 0.1295364,0 0.2342656,-0.10473 0.2342656,-0.23289 0,-0.12954 -0.1047292,-0.23426 -0.2342656,-0.23426 -0.1281571,0 -0.2328898,0.10472 -0.2328898,0.23426 0,0.12816 0.1047327,0.23289 0.2328898,0.23289"
       style="fill:#211e1e;fill-opacity:1;fill-rule:nonzero;stroke:none;stroke-width:0.35277775" />
    <path
       inkscape:connector-curvature="0"
       id="path4531"
       d="m 2.0234273,296.707 v -1.05145 l -0.099219,0.0469 v 1.00459 z m 0,0"
       style="fill:#211e1e;fill-opacity:1;fill-rule:nonzero;stroke:none;stroke-width:0.35277775" />
  </g>
</svg>
