<?xml version="1.0" encoding="UTF-8" standalone="no"?>
<!-- Created with Inkscape (http://www.inkscape.org/) -->

<svg
   xmlns:dc="http://purl.org/dc/elements/1.1/"
   xmlns:cc="http://creativecommons.org/ns#"
   xmlns:rdf="http://www.w3.org/1999/02/22-rdf-syntax-ns#"
   xmlns:svg="http://www.w3.org/2000/svg"
   xmlns="http://www.w3.org/2000/svg"
   xmlns:sodipodi="http://sodipodi.sourceforge.net/DTD/sodipodi-0.dtd"
   xmlns:inkscape="http://www.inkscape.org/namespaces/inkscape"
   width="3.75mm"
   height="3.75mm"
   viewBox="0 0 3.75 3.75"
   version="1.1"
   id="svg13826"
   inkscape:version="0.92.1 r15371"
   sodipodi:docname="rock_collecting_dark.svg">
  <defs
     id="defs13820" />
  <sodipodi:namedview
     id="base"
     pagecolor="#ffffff"
     bordercolor="#666666"
     borderopacity="1.0"
     inkscape:pageopacity="0.0"
     inkscape:pageshadow="2"
     inkscape:zoom="30.586462"
     inkscape:cx="6.9619327"
     inkscape:cy="6.2487963"
     inkscape:document-units="mm"
     inkscape:current-layer="layer1"
     showgrid="false"
     inkscape:window-width="742"
     inkscape:window-height="651"
     inkscape:window-x="533"
     inkscape:window-y="51"
     inkscape:window-maximized="0"
     showguides="true"
     inkscape:guide-bbox="true"
     gridtolerance="10"
     guidetolerance="2">
    <inkscape:grid
       type="xygrid"
       id="grid13828" />
    <sodipodi:guide
       position="0.13043093,3.8477124"
       orientation="1,0"
       id="guide20533"
       inkscape:locked="false" />
    <sodipodi:guide
       position="1.9173346,3.6129367"
       orientation="0,1"
       id="guide20535"
       inkscape:locked="false" />
  </sodipodi:namedview>
  <metadata
     id="metadata13823">
    <rdf:RDF>
      <cc:Work
         rdf:about="">
        <dc:format>image/svg+xml</dc:format>
        <dc:type
           rdf:resource="http://purl.org/dc/dcmitype/StillImage" />
        <dc:title></dc:title>
      </cc:Work>
    </rdf:RDF>
  </metadata>
  <g
     inkscape:label="Layer 1"
     inkscape:groupmode="layer"
     id="layer1"
     transform="translate(0,-293.25)">
    <path
       inkscape:connector-curvature="0"
       id="path2617"
       d="m 0.55007106,293.44266 c -0.19016838,0 -0.34588448,0.15434 -0.34588448,0.34451 v 2.6541 c 0,0.19017 0.1557161,0.34589 0.34588448,0.34589 H 3.2027977 c 0.191544,0 0.3458845,-0.15572 0.3458845,-0.34589 v -2.6541 c 0,-0.19017 -0.1543405,-0.34451 -0.3458845,-0.34451 z m 0,0"
       style="fill:#ffffff;fill-opacity:1;fill-rule:nonzero;stroke:none;stroke-width:0.35277775" />
    <path
       inkscape:connector-curvature="0"
       id="path2619"
       d="m 3.2041735,296.85744 c 0.2287551,0 0.4161684,-0.18604 0.4161684,-0.41617 v -2.6541 c 0,-0.23014 -0.1874133,-0.41617 -0.4161684,-0.41617 H 0.55007106 c -0.23013104,0 -0.41616487,0.18603 -0.41616487,0.41617 v 2.6541 c 0,0.23013 0.18603383,0.41617 0.41616487,0.41617 z m 0,0"
       style="fill:#211e1e;fill-opacity:1;fill-rule:nonzero;stroke:none;stroke-width:0.35277775" />
    <path
       inkscape:connector-curvature="0"
       id="path2621"
       d="m 2.3318775,295.64063 0.1364227,0.11575 0.2370243,-0.27974 -0.2783628,-0.23702 -0.1171328,0.1378 z m 0,0"
       style="fill:#ffffff;fill-opacity:1;fill-rule:nonzero;stroke:none;stroke-width:0.35277775" />
    <path
       inkscape:connector-curvature="0"
       id="path2623"
       d="M 3.1118445,295.8184 H 2.5868124 l -0.00141,0.53605 h 0.3569089 l 0.169499,-0.1819 z m 0,0"
       style="fill:#ffffff;fill-opacity:1;fill-rule:nonzero;stroke:none;stroke-width:0.35277775" />
    <path
       inkscape:connector-curvature="0"
       id="path2625"
       d="m 2.160999,296.38201 0.1791441,-0.0524 -0.1598507,-0.53468 -0.3803403,0.113 -0.073036,0.3197 z m 0,0"
       style="fill:#ffffff;fill-opacity:1;fill-rule:nonzero;stroke:none;stroke-width:0.35277775" />
    <path
       inkscape:connector-curvature="0"
       id="path2627"
       d="M 1.7958176,294.03935 C 1.3851631,293.79819 1.1688115,293.78992 0.7953645,293.7472 l -0.0137935,0.0703 c 0.4644002,0.10749 0.581533,0.21635 0.9012378,0.40928 l 0.044097,0.21084 -1.05419876,1.73495 c -0.009631,0.0207 -0.0165452,0.0441 -0.0165452,0.0689 -0.00141,0.0854 0.0661458,0.15572 0.15158154,0.1571 0.0565009,10e-4 0.1061085,-0.0289 0.13505039,-0.073 l 1.03628463,-1.69498 0.4216789,0.27009 0.2163515,-0.35829 -0.8213125,-0.50298"
       style="fill:#ffffff;fill-opacity:1;fill-rule:nonzero;stroke:none;stroke-width:0.35277775" />
  </g>
</svg>
