<?xml version="1.0" encoding="UTF-8" standalone="no"?>
<!-- Created with Inkscape (http://www.inkscape.org/) -->

<svg
   xmlns:dc="http://purl.org/dc/elements/1.1/"
   xmlns:cc="http://creativecommons.org/ns#"
   xmlns:rdf="http://www.w3.org/1999/02/22-rdf-syntax-ns#"
   xmlns:svg="http://www.w3.org/2000/svg"
   xmlns="http://www.w3.org/2000/svg"
   xmlns:sodipodi="http://sodipodi.sourceforge.net/DTD/sodipodi-0.dtd"
   xmlns:inkscape="http://www.inkscape.org/namespaces/inkscape"
   width="3.75mm"
   height="3.75mm"
   viewBox="0 0 3.75 3.75"
   version="1.1"
   id="svg13826"
   inkscape:version="0.92.1 r15371"
   sodipodi:docname="skate_boarding_light.svg">
  <defs
     id="defs13820" />
  <sodipodi:namedview
     id="base"
     pagecolor="#ffffff"
     bordercolor="#666666"
     borderopacity="1.0"
     inkscape:pageopacity="0.0"
     inkscape:pageshadow="2"
     inkscape:zoom="30.586462"
     inkscape:cx="6.9619327"
     inkscape:cy="6.2487963"
     inkscape:document-units="mm"
     inkscape:current-layer="layer1"
     showgrid="false"
     inkscape:window-width="742"
     inkscape:window-height="651"
     inkscape:window-x="533"
     inkscape:window-y="51"
     inkscape:window-maximized="0"
     showguides="true"
     inkscape:guide-bbox="true"
     gridtolerance="10"
     guidetolerance="2">
    <inkscape:grid
       type="xygrid"
       id="grid13828" />
    <sodipodi:guide
       position="0.13043093,3.8477124"
       orientation="1,0"
       id="guide20533"
       inkscape:locked="false" />
    <sodipodi:guide
       position="1.9173346,3.6129367"
       orientation="0,1"
       id="guide20535"
       inkscape:locked="false" />
  </sodipodi:namedview>
  <metadata
     id="metadata13823">
    <rdf:RDF>
      <cc:Work
         rdf:about="">
        <dc:format>image/svg+xml</dc:format>
        <dc:type
           rdf:resource="http://purl.org/dc/dcmitype/StillImage" />
        <dc:title></dc:title>
      </cc:Work>
    </rdf:RDF>
  </metadata>
  <g
     inkscape:label="Layer 1"
     inkscape:groupmode="layer"
     id="layer1"
     transform="translate(0,-293.25)">
    <path
       inkscape:connector-curvature="0"
       id="path4609"
       d="m 3.1955249,296.88409 c 0.2301311,0 0.4161684,-0.18742 0.4161684,-0.41755 v -2.65272 c 0,-0.23151 -0.1860373,-0.41755 -0.4161684,-0.41755 H 0.54280187 c -0.23013458,0 -0.41754777,0.18604 -0.41754777,0.41755 v 2.65272 c 0,0.23013 0.18741319,0.41755 0.41754777,0.41755 z m 0,0"
       style="fill:#211e1e;fill-opacity:1;fill-rule:nonzero;stroke:none;stroke-width:0.35277775" />
    <path
       inkscape:connector-curvature="0"
       id="path4611"
       d="m 0.54280187,293.46655 c -0.19154775,0 -0.34588802,0.15572 -0.34588802,0.34727 v 2.65272 c 0,0.19017 0.15434027,0.34589 0.34588802,0.34589 H 3.1955249 c 0.1901684,0 0.3458879,-0.15572 0.3458879,-0.34589 v -2.65272 c 0,-0.19155 -0.1557195,-0.34727 -0.3458879,-0.34727 z m 0,0"
       style="fill:#ffffff;fill-opacity:1;fill-rule:nonzero;stroke:none;stroke-width:0.35277775" />
    <path
       inkscape:connector-curvature="0"
       id="path4613"
       d="m 1.5529034,296.66635 c 0.048232,0 0.086815,-0.0386 0.086815,-0.0882 0,-0.0482 -0.038583,-0.0868 -0.086815,-0.0868 -0.049611,0 -0.088194,0.0386 -0.088194,0.0868 0,0.0496 0.038583,0.0882 0.088194,0.0882"
       style="fill:#211e1e;fill-opacity:1;fill-rule:nonzero;stroke:none;stroke-width:0.35277775" />
    <path
       inkscape:connector-curvature="0"
       id="path4615"
       d="m 2.2625935,296.66498 c 0.048232,0 0.088194,-0.04 0.088194,-0.0896 0,-0.0482 -0.039963,-0.0882 -0.088194,-0.0882 -0.048232,0 -0.088195,0.04 -0.088195,0.0882 0,0.0496 0.039963,0.0896 0.088195,0.0896"
       style="fill:#211e1e;fill-opacity:1;fill-rule:nonzero;stroke:none;stroke-width:0.35277775" />
    <path
       inkscape:connector-curvature="0"
       id="path4617"
       d="m 1.3792697,296.40453 c 0,0 -0.052366,-0.003 -0.052366,-0.0551 v -0.006 c 0,-0.0524 0.052366,-0.0551 0.052366,-0.0551 h 1.0528229 c 0,0 0.052363,0.004 0.052363,0.0551 v 0.006 c 0,0.0496 -0.052363,0.0551 -0.052363,0.0551 z m 0,0"
       style="fill:#211e1e;fill-opacity:1;fill-rule:nonzero;stroke:none;stroke-width:0.35277775" />
    <path
       inkscape:connector-curvature="0"
       id="path4619"
       d="m 2.1110084,294.10872 c 0.1295365,0 0.2342656,-0.10473 0.2342656,-0.23289 0,-0.12954 -0.1047291,-0.23289 -0.2342656,-0.23289 -0.1281571,0 -0.2328898,0.10335 -0.2328898,0.23289 0,0.12816 0.1047327,0.23289 0.2328898,0.23289"
       style="fill:#211e1e;fill-opacity:1;fill-rule:nonzero;stroke:none;stroke-width:0.35277775" />
    <path
       inkscape:connector-curvature="0"
       id="path4621"
       d="m 0.84459262,296.14959 c -0.0110067,0.0207 -0.017921,0.0441 -0.017921,0.0689 0,0.0827 0.0675217,0.14883 0.15020576,0.14883 0.059256,0 0.11024302,-0.0345 0.13366752,-0.0827 l 0.5098766,-0.87641 -0.2108411,-0.21084 z m 0,0"
       style="fill:#211e1e;fill-opacity:1;fill-rule:nonzero;stroke:none;stroke-width:0.35277775" />
    <path
       inkscape:connector-curvature="0"
       id="path4623"
       d="m 1.948399,296.111 c -0.023424,0.0496 -0.074411,0.0827 -0.1336675,0.0827 -0.082684,0 -0.1488298,-0.0661 -0.1488298,-0.14883 0,-0.0248 0.0055,-0.0482 0.016545,-0.0689 l 0.221862,-0.38999 -0.4327031,-0.42995 c -0.1653646,-0.16674 -0.046852,-0.34726 -0.046852,-0.34726 l 0.2328862,-0.41203 -0.6187369,10e-4 c -0.067525,0 -0.12264668,-0.0551 -0.12264668,-0.12265 0,-0.0675 0.055121,-0.12265 0.12264668,-0.12265 h 1.869997 c 0.067525,0 0.1212675,0.0551 0.1212675,0.12403 0,0.0661 -0.053742,0.12127 -0.1212675,0.12127 H 2.1964547 l -0.3417534,0.59669 0.3472638,0.34175 c 0.1212674,0.11713 0.042721,0.24805 0.042721,0.24805 z m 0,0"
       style="fill:#211e1e;fill-opacity:1;fill-rule:nonzero;stroke:none;stroke-width:0.35277775" />
  </g>
</svg>
