<?xml version="1.0" encoding="UTF-8" standalone="no"?>
<!-- Created with Inkscape (http://www.inkscape.org/) -->

<svg
   xmlns:dc="http://purl.org/dc/elements/1.1/"
   xmlns:cc="http://creativecommons.org/ns#"
   xmlns:rdf="http://www.w3.org/1999/02/22-rdf-syntax-ns#"
   xmlns:svg="http://www.w3.org/2000/svg"
   xmlns="http://www.w3.org/2000/svg"
   xmlns:sodipodi="http://sodipodi.sourceforge.net/DTD/sodipodi-0.dtd"
   xmlns:inkscape="http://www.inkscape.org/namespaces/inkscape"
   width="3.75mm"
   height="3.75mm"
   viewBox="0 0 3.75 3.75"
   version="1.1"
   id="svg13826"
   inkscape:version="0.92.1 r15371"
   sodipodi:docname="star_gazing_dark.svg">
  <defs
     id="defs13820" />
  <sodipodi:namedview
     id="base"
     pagecolor="#ffffff"
     bordercolor="#666666"
     borderopacity="1.0"
     inkscape:pageopacity="0.0"
     inkscape:pageshadow="2"
     inkscape:zoom="30.586462"
     inkscape:cx="6.9619327"
     inkscape:cy="6.2487963"
     inkscape:document-units="mm"
     inkscape:current-layer="layer1"
     showgrid="false"
     inkscape:window-width="742"
     inkscape:window-height="651"
     inkscape:window-x="533"
     inkscape:window-y="51"
     inkscape:window-maximized="0"
     showguides="true"
     inkscape:guide-bbox="true"
     gridtolerance="10"
     guidetolerance="2">
    <inkscape:grid
       type="xygrid"
       id="grid13828" />
    <sodipodi:guide
       position="0.13043093,3.8477124"
       orientation="1,0"
       id="guide20533"
       inkscape:locked="false" />
    <sodipodi:guide
       position="1.9173346,3.6129367"
       orientation="0,1"
       id="guide20535"
       inkscape:locked="false" />
    <sodipodi:guide
       position="0.16435648,3.6129367"
       orientation="0,1"
       id="guide27414"
       inkscape:locked="false" />
  </sodipodi:namedview>
  <metadata
     id="metadata13823">
    <rdf:RDF>
      <cc:Work
         rdf:about="">
        <dc:format>image/svg+xml</dc:format>
        <dc:type
           rdf:resource="http://purl.org/dc/dcmitype/StillImage" />
        <dc:title></dc:title>
      </cc:Work>
    </rdf:RDF>
  </metadata>
  <g
     inkscape:label="Layer 1"
     inkscape:groupmode="layer"
     id="layer1"
     transform="translate(0,-293.25)">
    <path
       inkscape:connector-curvature="0"
       id="path9333"
       d="m 0.55941116,293.44993 c -0.19016838,0 -0.34588448,0.15572 -0.34588448,0.34589 v 2.6541 c 0,0.19017 0.1557161,0.34589 0.34588448,0.34589 H 3.2121377 c 0.191544,0 0.3458845,-0.15572 0.3458845,-0.34589 v -2.6541 c 0,-0.19017 -0.1543405,-0.34589 -0.3458845,-0.34589 z m 0,0"
       style="fill:#ffffff;fill-opacity:1;fill-rule:nonzero;stroke:none;stroke-width:0.35277775" />
    <path
       inkscape:connector-curvature="0"
       id="path9335"
       d="m 3.2121377,296.86609 c 0.2301309,0 0.4161647,-0.18604 0.4161647,-0.41617 v -2.6541 c 0,-0.23014 -0.1860338,-0.41617 -0.4161647,-0.41617 H 0.56079054 c -0.23151042,0 -0.41754425,0.18603 -0.41754425,0.41617 v 2.6541 c 0,0.23013 0.18603383,0.41617 0.41754425,0.41617 z m 0,0"
       style="fill:#211e1e;fill-opacity:1;fill-rule:nonzero;stroke:none;stroke-width:0.35277775" />
    <path
       inkscape:connector-curvature="0"
       id="path9337"
       d="m 3.1928443,294.59921 -0.3596677,-0.83233 -0.3293532,0.14194 0.039963,0.0923 -1.0087221,0.43821 0.045476,0.10611 -0.90123772,0.38998 0.0647665,0.15021 -0.17225433,0.0744 0.0578767,0.13367 0.17225433,-0.0744 0.06477,0.15021 0.90123772,-0.38999 0.046852,0.10611 1.0087223,-0.43684 0.039963,0.0923 z m 0,0"
       style="fill:#ffffff;fill-opacity:1;fill-rule:nonzero;stroke:none;stroke-width:0.35277775" />
    <path
       inkscape:connector-curvature="0"
       id="path9339"
       d="m 2.0146194,295.43155 h 0.1019774 v -0.15296 H 1.9498529 c -0.012418,-0.0675 -0.071656,-0.11714 -0.1419366,-0.11714 -0.07028,0 -0.1295365,0.0496 -0.1419401,0.11714 H 1.5006116 v 0.15296 H 1.6012097 L 0.96593465,296.5326 H 1.128544 l 0.6090919,-1.05558 v 1.05558 h 0.1405608 v -1.05558 l 0.609092,1.05558 h 0.1626094 z m 0,0"
       style="fill:#ffffff;fill-opacity:1;fill-rule:nonzero;stroke:none;stroke-width:0.35277775" />
    <path
       inkscape:connector-curvature="0"
       id="path9341"
       d="m 0.77989726,293.91709 0.0992187,-0.28939 0.0978429,0.28939 0.29076644,0.0992 -0.29076644,0.0992 -0.0978429,0.28939 -0.0992187,-0.28939 -0.29076295,-0.0992 z m 0,0"
       style="fill:#ffffff;fill-opacity:1;fill-rule:nonzero;stroke:none;stroke-width:0.35277775" />
    <path
       inkscape:connector-curvature="0"
       id="path9343"
       d="m 3.0977599,295.92075 c 0.053742,0.007 0.1061085,0 0.1543405,-0.0179 -0.1653646,-0.0441 -0.2783666,-0.20533 -0.2535592,-0.38034 0.015169,-0.113 0.08406,-0.20532 0.1777648,-0.25631 -0.176389,-0.0193 -0.3376189,0.10473 -0.3610433,0.2825 -0.024799,0.18052 0.1005946,0.34726 0.2824972,0.37206"
       style="fill:#ffffff;fill-opacity:1;fill-rule:nonzero;stroke:none;stroke-width:0.35277775" />
  </g>
</svg>
