<?xml version="1.0" encoding="UTF-8" standalone="no"?>
<!-- Created with Inkscape (http://www.inkscape.org/) -->

<svg
   xmlns:dc="http://purl.org/dc/elements/1.1/"
   xmlns:cc="http://creativecommons.org/ns#"
   xmlns:rdf="http://www.w3.org/1999/02/22-rdf-syntax-ns#"
   xmlns:svg="http://www.w3.org/2000/svg"
   xmlns="http://www.w3.org/2000/svg"
   xmlns:sodipodi="http://sodipodi.sourceforge.net/DTD/sodipodi-0.dtd"
   xmlns:inkscape="http://www.inkscape.org/namespaces/inkscape"
   width="3.75mm"
   height="3.75mm"
   viewBox="0 0 3.75 3.75"
   version="1.1"
   id="svg13826"
   inkscape:version="0.92.1 r15371"
   sodipodi:docname="tennis_light.svg">
  <defs
     id="defs13820" />
  <sodipodi:namedview
     id="base"
     pagecolor="#ffffff"
     bordercolor="#666666"
     borderopacity="1.0"
     inkscape:pageopacity="0.0"
     inkscape:pageshadow="2"
     inkscape:zoom="30.586462"
     inkscape:cx="6.9619327"
     inkscape:cy="6.2487963"
     inkscape:document-units="mm"
     inkscape:current-layer="layer1"
     showgrid="false"
     inkscape:window-width="742"
     inkscape:window-height="651"
     inkscape:window-x="533"
     inkscape:window-y="51"
     inkscape:window-maximized="0"
     showguides="true"
     inkscape:guide-bbox="true"
     gridtolerance="10"
     guidetolerance="2">
    <inkscape:grid
       type="xygrid"
       id="grid13828" />
    <sodipodi:guide
       position="0.13043093,3.8477124"
       orientation="1,0"
       id="guide20533"
       inkscape:locked="false" />
    <sodipodi:guide
       position="1.9173346,3.6129367"
       orientation="0,1"
       id="guide20535"
       inkscape:locked="false" />
    <sodipodi:guide
       position="0.16435648,3.6129367"
       orientation="0,1"
       id="guide27414"
       inkscape:locked="false" />
  </sodipodi:namedview>
  <metadata
     id="metadata13823">
    <rdf:RDF>
      <cc:Work
         rdf:about="">
        <dc:format>image/svg+xml</dc:format>
        <dc:type
           rdf:resource="http://purl.org/dc/dcmitype/StillImage" />
        <dc:title></dc:title>
      </cc:Work>
    </rdf:RDF>
  </metadata>
  <g
     inkscape:label="Layer 1"
     inkscape:groupmode="layer"
     id="layer1"
     transform="translate(0,-293.25)">
    <path
       inkscape:connector-curvature="0"
       id="path4867"
       d="m 0.56798688,293.38706 c -0.23977599,0 -0.43545829,0.19568 -0.43545829,0.43546 v 2.61965 c 0,0.23978 0.1956823,0.43408 0.43545829,0.43408 H 3.1876369 c 0.2384039,0 0.4340826,-0.1943 0.4340826,-0.43408 v -2.61965 c 0,-0.23978 -0.1956787,-0.43546 -0.4340826,-0.43546 z m 0,0"
       style="fill:#211e1e;fill-opacity:1;fill-rule:nonzero;stroke:none;stroke-width:0.35277775" />
    <path
       inkscape:connector-curvature="0"
       id="path4869"
       d="m 0.56798688,293.45734 c -0.20119269,0 -0.36380207,0.16399 -0.36380207,0.36518 v 2.61965 c 0,0.19982 0.16260938,0.3638 0.36380207,0.3638 H 3.1876369 c 0.199817,0 0.3638021,-0.16398 0.3638021,-0.3638 v -2.61965 c 0,-0.20119 -0.1639851,-0.36518 -0.3638021,-0.36518 z m 0,0"
       style="fill:#ffffff;fill-opacity:1;fill-rule:nonzero;stroke:none;stroke-width:0.35277775" />
    <path
       inkscape:connector-curvature="0"
       id="path4871"
       d="m 0.74024121,295.05311 c -0.0564974,0 -0.10334977,0.0469 -0.10334977,0.10473 0,0.0565 0.0468524,0.10335 0.10334977,0.10335 0.0578802,0 0.10335332,-0.0469 0.10335332,-0.10335 0,-0.0579 -0.0454731,-0.10473 -0.10335332,-0.10473"
       style="fill:#211e1e;fill-opacity:1;fill-rule:nonzero;stroke:none;stroke-width:0.35277775" />
    <path
       inkscape:connector-curvature="0"
       id="path4873"
       d="m 2.1830494,294.1877 c 0.1240225,0 0.2259965,-0.1006 0.2259965,-0.226 0,-0.12402 -0.101974,-0.226 -0.2259965,-0.226 -0.1254019,0 -0.226,0.10198 -0.226,0.226 0,0.1254 0.1005981,0.226 0.226,0.226"
       style="fill:#211e1e;fill-opacity:1;fill-rule:nonzero;stroke:none;stroke-width:0.35277775" />
    <path
       inkscape:connector-curvature="0"
       id="path4875"
       d="m 0.9786449,294.64659 c -0.0234244,0.0345 -0.0606354,0.0565 -0.10748786,0.0648 -0.06477,0.011 -0.13642623,-0.008 -0.19706166,-0.0524 -0.0620113,-0.0427 -0.10334977,-0.10473 -0.11437409,-0.1695 l -0.002822,-0.0331 c 0,-0.0331 0.009666,-0.0634 0.0275519,-0.0896 0.0606319,-0.0841 0.19705812,-0.0896 0.30592535,-0.0124 0.10886372,0.0772 0.14882636,0.20808 0.0881944,0.29214 m 2.17454326,1.55029 -0.3665572,-0.4327 c 0,0 -0.1143776,-0.66835 -0.1143776,-0.66973 0,0 -0.017921,-0.0758 -0.017921,-0.0758 0.00141,10e-4 -0.045477,-0.21084 -0.081305,-0.3762 0.056497,0.0331 0.1088637,0.0634 0.1116189,0.0648 0.00282,0.005 0.1943028,0.37069 0.1943028,0.37069 0.013793,0.0262 0.038587,0.0468 0.067525,0.0551 0.028928,0.01 0.060636,0.007 0.086815,-0.008 0.026175,-0.0138 0.046856,-0.0372 0.055122,-0.0675 0.011007,-0.0289 0.00825,-0.0593 -0.00688,-0.0868 l -0.2094619,-0.39963 c 0,0 -0.00826,-0.0152 -0.019296,-0.0262 -0.015169,-0.0152 -0.048232,-0.0331 -0.048232,-0.0331 l -0.4079,-0.23289 c -0.052366,-0.0262 -0.1088672,-0.0344 -0.1667439,-0.022 -0.023424,0.004 -0.045477,0.0138 -0.07028,0.0276 -0.00282,0 -0.092329,0.04 -0.1446918,0.1626 l -0.2094618,0.42169 c 0,0 -0.3197049,0.062 -0.3307292,0.0648 -0.00282,0 -0.0055,10e-4 -0.00688,0.003 l -0.2990321,-0.21083 c -0.066146,-0.0469 -0.074415,-0.18742 -0.075794,-0.19293 -0.00826,-0.0965 -0.063387,-0.18741 -0.15158155,-0.2508 -0.0799289,-0.0565 -0.1763889,-0.0799 -0.26458333,-0.0661 -0.0689046,0.0124 -0.12678127,0.0482 -0.16398875,0.1006 -0.0289278,0.04 -0.0440972,0.0896 -0.0440972,0.14193 0,0 0.004128,0.0455 0.004128,0.0455 0.0151693,0.0882 0.068901,0.17088 0.1488299,0.22876 0.0813047,0.0565 0.17638887,0.0813 0.26458333,0.0661 l 0.0206727,-0.004 c 0.002822,-10e-4 0.1350469,-0.0427 0.1998169,10e-4 0,0.001 0.2232413,0.15848 0.2824974,0.19982 -0.00688,0.01 -0.017921,0.0317 -0.016545,0.0537 0,0.007 0,0.0138 0.00141,0.0207 0.011007,0.062 0.073036,0.10335 0.1350469,0.091 l 0.3955,-0.0772 c 0,0 0.033055,-0.011 0.048228,-0.0207 0.017921,-0.0138 0.031679,-0.0413 0.031679,-0.0413 l 0.1047291,-0.20946 c 0,0 0.07166,0.339 0.07166,0.34451 -0.00688,0.008 -0.3238394,0.34451 -0.3238394,0.34451 l -0.0055,0.007 c -0.030304,0.0275 -0.048228,0.0648 -0.048228,0.10473 v 0.71107 c 0,0.0758 0.062011,0.13642 0.1378021,0.13642 0.075791,0 0.1378055,-0.0606 0.1378055,-0.13642 v -0.59394 c 0.028928,-0.0303 0.2714731,-0.28663 0.3362396,-0.35415 0.00688,0.04 0.068901,0.40101 0.068901,0.40101 0.0055,0.0317 0.020673,0.0606 0.044097,0.0841 0,0 0.4340826,0.51401 0.4340826,0.51401 0.024799,0.0276 0.057877,0.0455 0.095084,0.0482 0.035832,0.003 0.07166,-0.008 0.099219,-0.0317 0.031715,-0.0275 0.048232,-0.0661 0.048232,-0.10473 0,-0.0317 -0.00963,-0.0634 -0.031679,-0.0896"
       style="fill:#211e1e;fill-opacity:1;fill-rule:nonzero;stroke:none;stroke-width:0.35277775" />
  </g>
</svg>
