<?xml version="1.0" encoding="UTF-8" standalone="no"?>
<!-- Created with Inkscape (http://www.inkscape.org/) -->

<svg
   xmlns:dc="http://purl.org/dc/elements/1.1/"
   xmlns:cc="http://creativecommons.org/ns#"
   xmlns:rdf="http://www.w3.org/1999/02/22-rdf-syntax-ns#"
   xmlns:svg="http://www.w3.org/2000/svg"
   xmlns="http://www.w3.org/2000/svg"
   xmlns:sodipodi="http://sodipodi.sourceforge.net/DTD/sodipodi-0.dtd"
   xmlns:inkscape="http://www.inkscape.org/namespaces/inkscape"
   width="3.75mm"
   height="3.75mm"
   viewBox="0 0 3.75 3.75"
   version="1.1"
   id="svg13826"
   inkscape:version="0.92.1 r15371"
   sodipodi:docname="tennis_dark.svg">
  <defs
     id="defs13820" />
  <sodipodi:namedview
     id="base"
     pagecolor="#ffffff"
     bordercolor="#666666"
     borderopacity="1.0"
     inkscape:pageopacity="0.0"
     inkscape:pageshadow="2"
     inkscape:zoom="30.586462"
     inkscape:cx="6.9619327"
     inkscape:cy="6.2487963"
     inkscape:document-units="mm"
     inkscape:current-layer="layer1"
     showgrid="false"
     inkscape:window-width="742"
     inkscape:window-height="651"
     inkscape:window-x="533"
     inkscape:window-y="51"
     inkscape:window-maximized="0"
     showguides="true"
     inkscape:guide-bbox="true"
     gridtolerance="10"
     guidetolerance="2">
    <inkscape:grid
       type="xygrid"
       id="grid13828" />
    <sodipodi:guide
       position="0.13043093,3.8477124"
       orientation="1,0"
       id="guide20533"
       inkscape:locked="false" />
    <sodipodi:guide
       position="1.9173346,3.6129367"
       orientation="0,1"
       id="guide20535"
       inkscape:locked="false" />
    <sodipodi:guide
       position="0.16435648,3.6129367"
       orientation="0,1"
       id="guide27414"
       inkscape:locked="false" />
  </sodipodi:namedview>
  <metadata
     id="metadata13823">
    <rdf:RDF>
      <cc:Work
         rdf:about="">
        <dc:format>image/svg+xml</dc:format>
        <dc:type
           rdf:resource="http://purl.org/dc/dcmitype/StillImage" />
        <dc:title></dc:title>
      </cc:Work>
    </rdf:RDF>
  </metadata>
  <g
     inkscape:label="Layer 1"
     inkscape:groupmode="layer"
     id="layer1"
     transform="translate(0,-293.25)">
    <path
       inkscape:connector-curvature="0"
       id="path4063"
       d="m 0.56729899,293.43991 c -0.19981685,0 -0.36380206,0.16399 -0.36380206,0.36518 v 2.61965 c 0,0.19982 0.16398521,0.3638 0.36380206,0.3638 H 3.186949 c 0.2011928,0 0.363802,-0.16398 0.363802,-0.3638 v -2.61965 c 0,-0.20119 -0.1626092,-0.36518 -0.363802,-0.36518 z m 0,0"
       style="fill:#ffffff;fill-opacity:1;fill-rule:nonzero;stroke:none;stroke-width:0.35277775" />
    <path
       inkscape:connector-curvature="0"
       id="path4065"
       d="m 0.56729899,293.36963 c -0.23977951,0 -0.43408245,0.19568 -0.43408245,0.43546 v 2.61965 c 0,0.23978 0.19430294,0.43408 0.43408245,0.43408 H 3.186949 c 0.2397797,0 0.4340825,-0.1943 0.4340825,-0.43408 v -2.61965 c 0,-0.23978 -0.1943028,-0.43546 -0.4340825,-0.43546 z m 0,0"
       style="fill:#211e1e;fill-opacity:1;fill-rule:nonzero;stroke:none;stroke-width:0.35277775" />
    <path
       inkscape:connector-curvature="0"
       id="path4067"
       d="m 0.74093268,295.03568 c -0.0578802,0 -0.10473264,0.0469 -0.10473264,0.10473 0,0.0565 0.0468524,0.10335 0.10473264,0.10335 0.0564974,0 0.10335331,-0.0469 0.10335331,-0.10335 0,-0.0579 -0.0468559,-0.10473 -0.10335331,-0.10473"
       style="fill:#ffffff;fill-opacity:1;fill-rule:nonzero;stroke:none;stroke-width:0.35277775" />
    <path
       inkscape:connector-curvature="0"
       id="path4069"
       d="m 2.1823579,294.17027 c 0.1254019,0 0.226,-0.1006 0.226,-0.226 0,-0.12402 -0.1005981,-0.226 -0.226,-0.226 -0.1240225,0 -0.2259965,0.10198 -0.2259965,0.226 0,0.1254 0.101974,0.226 0.2259965,0.226"
       style="fill:#ffffff;fill-opacity:1;fill-rule:nonzero;stroke:none;stroke-width:0.35277775" />
    <path
       inkscape:connector-curvature="0"
       id="path4071"
       d="m 0.97933285,294.62916 c -0.0248002,0.0345 -0.0620113,0.0565 -0.10748786,0.0648 -0.0647665,0.011 -0.13780206,-0.008 -0.1984375,-0.0524 -0.0606319,-0.0427 -0.10197393,-0.10473 -0.11299825,-0.1695 l -0.002822,-0.0331 c 0,-0.0331 0.008255,-0.0634 0.0275519,-0.0896 0.0592561,-0.0841 0.19705812,-0.0896 0.30592535,-0.0124 0.10748785,0.0772 0.14745051,0.20808 0.0881944,0.29214 m 2.17316391,1.55029 -0.3665572,-0.4327 c 0,0 -0.1143777,-0.66835 -0.1143777,-0.66973 0,0 -0.017921,-0.0758 -0.017921,-0.0758 0.00141,10e-4 -0.045473,-0.21084 -0.081305,-0.3762 0.05788,0.0331 0.1088672,0.0634 0.1116224,0.0648 0.00282,0.005 0.1943029,0.37069 0.1943029,0.37069 0.015168,0.0262 0.038587,0.0468 0.067525,0.0551 0.028928,0.01 0.060632,0.007 0.086815,-0.008 0.027552,-0.0138 0.046852,-0.0372 0.056501,-0.0675 0.00963,-0.0289 0.00688,-0.0593 -0.00825,-0.0868 l -0.2094619,-0.39963 c 0,0 -0.00825,-0.0152 -0.019296,-0.0262 -0.01517,-0.0152 -0.048233,-0.0331 -0.048233,-0.0331 l -0.4078994,-0.23289 c -0.052363,-0.0262 -0.1088637,-0.0344 -0.1653646,-0.022 -0.0248,0.004 -0.046852,0.0138 -0.07028,0.0276 -0.00282,0 -0.093705,0.04 -0.1460712,0.1626 l -0.2094618,0.42169 c 0,0 -0.3183255,0.062 -0.3307292,0.0648 -0.00282,0 -0.00413,0.001 -0.00688,0.003 l -0.2976563,-0.21083 c -0.067525,-0.0469 -0.075791,-0.18742 -0.075791,-0.19293 -0.00825,-0.0965 -0.063391,-0.18741 -0.15158504,-0.2508 -0.0799253,-0.0565 -0.1763889,-0.0799 -0.26458333,-0.0661 -0.068901,0.0124 -0.1281571,0.0482 -0.16536459,0.1006 -0.0289278,0.04 -0.0440972,0.0896 -0.0440972,0.14193 0,0 0.004128,0.0455 0.004128,0.0455 0.0151694,0.0882 0.0702804,0.17088 0.1502057,0.22876 0.0799253,0.0565 0.1763889,0.0813 0.26458334,0.0661 l 0.0206727,-0.004 c 0.00141,-0.001 0.13367102,-0.0427 0.19843742,10e-4 0,0.001 0.2232449,0.15848 0.2824974,0.19982 -0.0055,0.01 -0.017921,0.0317 -0.016545,0.0537 0,0.007 0,0.0138 0.00141,0.0207 0.012382,0.062 0.073036,0.10335 0.1350469,0.091 l 0.3954965,-0.0772 c 0,0 0.034466,-0.011 0.048232,-0.0207 0.019297,-0.0138 0.033055,-0.0413 0.033055,-0.0413 l 0.1033533,-0.20946 c 0,0 0.071656,0.339 0.073036,0.34451 -0.00826,0.008 -0.3238394,0.34451 -0.3238394,0.34451 l -0.00688,0.007 c -0.030304,0.0275 -0.048232,0.0648 -0.048232,0.10473 v 0.71107 c 0,0.0758 0.062011,0.13642 0.1391815,0.13642 0.074415,0 0.1364262,-0.0606 0.1364262,-0.13642 v -0.59394 c 0.028928,-0.0303 0.271473,-0.28663 0.336243,-0.35415 0.00688,0.04 0.068901,0.40101 0.068901,0.40101 0.00688,0.0317 0.022048,0.0606 0.044097,0.0841 0,0 0.4354584,0.51401 0.4354584,0.51401 0.024799,0.0276 0.056501,0.0455 0.093708,0.0482 0.037208,0.003 0.071656,-0.008 0.099219,-0.0317 0.031679,-0.0275 0.049608,-0.0661 0.049608,-0.10473 0,-0.0317 -0.011007,-0.0634 -0.033055,-0.0896"
       style="fill:#ffffff;fill-opacity:1;fill-rule:nonzero;stroke:none;stroke-width:0.35277775" />
  </g>
</svg>
