<?xml version="1.0" encoding="UTF-8" standalone="no"?>
<!-- Created with Inkscape (http://www.inkscape.org/) -->

<svg
   xmlns:dc="http://purl.org/dc/elements/1.1/"
   xmlns:cc="http://creativecommons.org/ns#"
   xmlns:rdf="http://www.w3.org/1999/02/22-rdf-syntax-ns#"
   xmlns:svg="http://www.w3.org/2000/svg"
   xmlns="http://www.w3.org/2000/svg"
   xmlns:sodipodi="http://sodipodi.sourceforge.net/DTD/sodipodi-0.dtd"
   xmlns:inkscape="http://www.inkscape.org/namespaces/inkscape"
   width="3.75mm"
   height="3.75mm"
   viewBox="0 0 3.75 3.75"
   version="1.1"
   id="svg13826"
   inkscape:version="0.92.1 r15371"
   sodipodi:docname="volleyball_dark.svg">
  <defs
     id="defs13820" />
  <sodipodi:namedview
     id="base"
     pagecolor="#ffffff"
     bordercolor="#666666"
     borderopacity="1.0"
     inkscape:pageopacity="0.0"
     inkscape:pageshadow="2"
     inkscape:zoom="30.586462"
     inkscape:cx="6.9619327"
     inkscape:cy="6.2487963"
     inkscape:document-units="mm"
     inkscape:current-layer="layer1"
     showgrid="false"
     inkscape:window-width="742"
     inkscape:window-height="651"
     inkscape:window-x="488"
     inkscape:window-y="89"
     inkscape:window-maximized="0"
     showguides="true"
     inkscape:guide-bbox="true"
     gridtolerance="10"
     guidetolerance="2">
    <inkscape:grid
       type="xygrid"
       id="grid13828" />
    <sodipodi:guide
       position="0.13043093,3.8477124"
       orientation="1,0"
       id="guide20533"
       inkscape:locked="false" />
    <sodipodi:guide
       position="1.9173346,3.6129367"
       orientation="0,1"
       id="guide20535"
       inkscape:locked="false" />
    <sodipodi:guide
       position="0.16435648,3.6129367"
       orientation="0,1"
       id="guide27414"
       inkscape:locked="false" />
  </sodipodi:namedview>
  <metadata
     id="metadata13823">
    <rdf:RDF>
      <cc:Work
         rdf:about="">
        <dc:format>image/svg+xml</dc:format>
        <dc:type
           rdf:resource="http://purl.org/dc/dcmitype/StillImage" />
        <dc:title></dc:title>
      </cc:Work>
    </rdf:RDF>
  </metadata>
  <g
     inkscape:label="Layer 1"
     inkscape:groupmode="layer"
     id="layer1"
     transform="translate(0,-293.25)">
    <path
       inkscape:connector-curvature="0"
       id="path13771"
       d="m 0.55941114,293.44128 c -0.19154423,0 -0.34726386,0.15434 -0.34726386,0.34589 v 2.6541 c 0,0.19017 0.15571963,0.34451 0.34726386,0.34451 H 3.2121376 c 0.1915443,0 0.3472637,-0.15434 0.3472637,-0.34451 v -2.6541 c 0,-0.19155 -0.1557194,-0.34589 -0.3472637,-0.34589 z m 0,0"
       style="fill:#ffffff;fill-opacity:1;fill-rule:nonzero;stroke:none;stroke-width:0.35277775" />
    <path
       inkscape:connector-curvature="0"
       id="path13773"
       d="m 3.2121376,296.85744 c 0.2301311,0 0.4175442,-0.18604 0.4175442,-0.41755 v -2.65272 c 0,-0.23014 -0.1874131,-0.41617 -0.4175442,-0.41617 H 0.55941114 c -0.23013106,0 -0.41754425,0.18603 -0.41754425,0.41617 v 2.65272 c 0,0.23151 0.18741319,0.41755 0.41754425,0.41755 z m 0,0"
       style="fill:#211e1e;fill-opacity:1;fill-rule:nonzero;stroke:none;stroke-width:0.35277775" />
    <path
       inkscape:connector-curvature="0"
       id="path13775"
       d="m 1.6659761,294.06415 c 0.1267813,-0.04 0.2604488,0.0289 0.300415,0.15297 0.039963,0.12402 -0.030304,0.25769 -0.157099,0.29765 -0.1254019,0.04 -0.2604488,-0.0289 -0.2990321,-0.15296 -0.039963,-0.12402 0.030304,-0.2577 0.1557161,-0.29766"
       style="fill:#ffffff;fill-opacity:1;fill-rule:nonzero;stroke:none;stroke-width:0.35277775" />
    <path
       inkscape:connector-curvature="0"
       id="path13777"
       d="m 0.98384866,293.71413 c 0.12677764,-0.04 0.26044864,0.0289 0.30041134,0.15296 0.039963,0.12403 -0.030304,0.2577 -0.1570954,0.29766 -0.1254019,0.04 -0.26044876,-0.0289 -0.29903559,-0.15296 -0.0399627,-0.12403 0.0303036,-0.25769 0.15571965,-0.29766"
       style="fill:#ffffff;fill-opacity:1;fill-rule:nonzero;stroke:none;stroke-width:0.35277775" />
    <path
       inkscape:connector-curvature="0"
       id="path13779"
       d="m 1.0458599,294.73663 c -0.068901,-0.005 -0.12953645,0.0455 -0.13504682,0.11438 -0.005503,0.0689 0.045473,0.12954 0.11299822,0.13367 l 0.4037647,0.004 0.2301345,-0.0799 0.1116189,0.89986 c 0.00282,0.0207 0.2576936,0.678 0.2576936,0.678 0.039963,0.0661 0.1281571,0.0868 0.1956823,0.0441 0.067522,-0.0413 0.088194,-0.12815 0.046852,-0.1943 l -0.2397795,-0.72485 c 0.00141,0.001 0.1763889,0.11989 0.3830955,0.25908 0.3348637,0.1185 0.4451066,0.15847 0.4451066,0.15847 0.071656,0.0303 0.1557198,-0.003 0.1874134,-0.0758 0.031679,-0.0717 -0.0014,-0.15434 -0.073036,-0.18466 L 2.5410308,295.61582 2.253023,295.42289 2.15518,294.7256 c 0,0 0.2232413,-0.1502 0.3321085,-0.22324 0,0 0.1047292,-0.0606 0.012418,-0.2384 -0.1198879,-0.20395 -0.2273757,-0.38723 -0.2273757,-0.38723 -0.030304,-0.0606 -0.1061085,-0.0854 -0.1681198,-0.0551 -0.060632,0.0303 -0.086815,0.10473 -0.055122,0.16536 l 0.2135964,0.36381 -0.276987,0.18879 c -0.00413,0 -0.6146023,0.20395 -0.6146023,0.20395 z m 0,0"
       style="fill:#ffffff;fill-opacity:1;fill-rule:nonzero;stroke:none;stroke-width:0.35277775" />
  </g>
</svg>
