<?xml version="1.0" encoding="UTF-8" standalone="no"?>
<!-- Created with Inkscape (http://www.inkscape.org/) -->

<svg
   xmlns:dc="http://purl.org/dc/elements/1.1/"
   xmlns:cc="http://creativecommons.org/ns#"
   xmlns:rdf="http://www.w3.org/1999/02/22-rdf-syntax-ns#"
   xmlns:svg="http://www.w3.org/2000/svg"
   xmlns="http://www.w3.org/2000/svg"
   xmlns:sodipodi="http://sodipodi.sourceforge.net/DTD/sodipodi-0.dtd"
   xmlns:inkscape="http://www.inkscape.org/namespaces/inkscape"
   width="3.75mm"
   height="3.75mm"
   viewBox="0 0 3.75 3.75"
   version="1.1"
   id="svg13826"
   inkscape:version="0.92.1 r15371"
   sodipodi:docname="volleyball_light.svg">
  <defs
     id="defs13820" />
  <sodipodi:namedview
     id="base"
     pagecolor="#ffffff"
     bordercolor="#666666"
     borderopacity="1.0"
     inkscape:pageopacity="0.0"
     inkscape:pageshadow="2"
     inkscape:zoom="30.586462"
     inkscape:cx="6.9619327"
     inkscape:cy="6.2487963"
     inkscape:document-units="mm"
     inkscape:current-layer="layer1"
     showgrid="false"
     inkscape:window-width="742"
     inkscape:window-height="651"
     inkscape:window-x="488"
     inkscape:window-y="89"
     inkscape:window-maximized="0"
     showguides="true"
     inkscape:guide-bbox="true"
     gridtolerance="10"
     guidetolerance="2">
    <inkscape:grid
       type="xygrid"
       id="grid13828" />
    <sodipodi:guide
       position="0.13043093,3.8477124"
       orientation="1,0"
       id="guide20533"
       inkscape:locked="false" />
    <sodipodi:guide
       position="1.9173346,3.6129367"
       orientation="0,1"
       id="guide20535"
       inkscape:locked="false" />
    <sodipodi:guide
       position="0.16435648,3.6129367"
       orientation="0,1"
       id="guide27414"
       inkscape:locked="false" />
  </sodipodi:namedview>
  <metadata
     id="metadata13823">
    <rdf:RDF>
      <cc:Work
         rdf:about="">
        <dc:format>image/svg+xml</dc:format>
        <dc:type
           rdf:resource="http://purl.org/dc/dcmitype/StillImage" />
        <dc:title></dc:title>
      </cc:Work>
    </rdf:RDF>
  </metadata>
  <g
     inkscape:label="Layer 1"
     inkscape:groupmode="layer"
     id="layer1"
     transform="translate(0,-293.25)">
    <path
       inkscape:connector-curvature="0"
       id="path13781"
       d="m 3.1955249,296.8834 c 0.2287553,0 0.4161684,-0.18604 0.4161684,-0.41755 v -2.65272 c 0,-0.23014 -0.1874131,-0.41617 -0.4161684,-0.41617 H 0.54280187 c -0.23151041,0 -0.41754777,0.18603 -0.41754777,0.41617 v 2.65272 c 0,0.23151 0.18603736,0.41755 0.41754777,0.41755 z m 0,0"
       style="fill:#211e1e;fill-opacity:1;fill-rule:nonzero;stroke:none;stroke-width:0.35277775" />
    <path
       inkscape:connector-curvature="0"
       id="path13783"
       d="m 0.54142252,293.46724 c -0.1901684,0 -0.34588803,0.15434 -0.34588803,0.34451 v 2.65548 c 0,0.19017 0.15571963,0.34451 0.34588803,0.34451 H 3.1955249 c 0.1901684,0 0.3458879,-0.15434 0.3458879,-0.34451 v -2.65548 c 0,-0.19017 -0.1557195,-0.34451 -0.3458879,-0.34451 z m 0,0"
       style="fill:#ffffff;fill-opacity:1;fill-rule:nonzero;stroke:none;stroke-width:0.35277775" />
    <path
       inkscape:connector-curvature="0"
       id="path13785"
       d="m 1.6493669,294.09011 c 0.125402,-0.04 0.2604488,0.0289 0.2990321,0.15297 0.039963,0.12402 -0.030304,0.25769 -0.1557161,0.29765 -0.1254019,0.04 -0.2604487,-0.0289 -0.300415,-0.15296 -0.038583,-0.12402 0.031679,-0.2577 0.157099,-0.29766"
       style="fill:#211e1e;fill-opacity:1;fill-rule:nonzero;stroke:none;stroke-width:0.35277775" />
    <path
       inkscape:connector-curvature="0"
       id="path13787"
       d="m 0.96723587,293.74009 c 0.12540193,-0.04 0.26044873,0.0289 0.29903563,0.15296 0.039963,0.12403 -0.030304,0.2577 -0.1557197,0.29766 -0.12677773,0.04 -0.26044875,-0.0289 -0.30041141,-0.15296 -0.0385833,-0.12403 0.0316794,-0.25769 0.15709548,-0.29766"
       style="fill:#211e1e;fill-opacity:1;fill-rule:nonzero;stroke:none;stroke-width:0.35277775" />
    <path
       inkscape:connector-curvature="0"
       id="path13789"
       d="m 1.0278713,294.76259 c -0.0675252,-0.005 -0.1281571,0.0455 -0.13367101,0.11438 -0.005503,0.0689 0.0440972,0.12954 0.11299821,0.13367 l 0.4037683,0.004 0.230131,-0.0799 0.1116225,0.89986 c 0.00282,0.0207 0.2563142,0.678 0.2563142,0.678 0.041342,0.0661 0.1295364,0.0868 0.1956823,0.0441 0.067522,-0.0413 0.088194,-0.12815 0.046852,-0.1943 l -0.2397795,-0.72485 c 0.00141,0.001 0.1777682,0.11989 0.3830954,0.25908 0.3348638,0.1185 0.4464825,0.15847 0.4464825,0.15847 0.07166,0.0303 0.1557198,-0.003 0.1874134,-0.0758 0.030304,-0.0717 -0.0014,-0.15434 -0.074411,-0.18466 l -0.4313273,-0.15296 -0.286632,-0.19293 -0.097839,-0.69729 c 0,0 0.2232413,-0.1502 0.332105,-0.22324 0,0 0.1047327,-0.0606 0.011007,-0.2384 -0.119888,-0.20395 -0.2259965,-0.38723 -0.2259965,-0.38723 -0.031715,-0.0606 -0.1061085,-0.0854 -0.1681233,-0.0551 -0.062011,0.0303 -0.086815,0.10473 -0.056497,0.16536 l 0.2149722,0.36381 -0.2783628,0.18879 c -0.00282,0 -0.6132265,0.20395 -0.6132265,0.20395 z m 0,0"
       style="fill:#211e1e;fill-opacity:1;fill-rule:nonzero;stroke:none;stroke-width:0.35277775" />
  </g>
</svg>
