<?xml version="1.0" encoding="UTF-8" standalone="no"?>
<!-- Created with Inkscape (http://www.inkscape.org/) -->

<svg
   xmlns:dc="http://purl.org/dc/elements/1.1/"
   xmlns:cc="http://creativecommons.org/ns#"
   xmlns:rdf="http://www.w3.org/1999/02/22-rdf-syntax-ns#"
   xmlns:svg="http://www.w3.org/2000/svg"
   xmlns="http://www.w3.org/2000/svg"
   xmlns:sodipodi="http://sodipodi.sourceforge.net/DTD/sodipodi-0.dtd"
   xmlns:inkscape="http://www.inkscape.org/namespaces/inkscape"
   width="3.75mm"
   height="3.75mm"
   viewBox="0 0 3.75 3.75"
   version="1.1"
   id="svg13826"
   inkscape:version="0.92.1 r15371"
   sodipodi:docname="event_dark.svg">
  <defs
     id="defs13820" />
  <sodipodi:namedview
     id="base"
     pagecolor="#ffffff"
     bordercolor="#666666"
     borderopacity="1.0"
     inkscape:pageopacity="0.0"
     inkscape:pageshadow="2"
     inkscape:zoom="20.285322"
     inkscape:cx="7.2558826"
     inkscape:cy="7.4973999"
     inkscape:document-units="mm"
     inkscape:current-layer="layer1"
     showgrid="false"
     inkscape:window-width="561"
     inkscape:window-height="558"
     inkscape:window-x="687"
     inkscape:window-y="78"
     inkscape:window-maximized="0"
     showguides="true"
     inkscape:guide-bbox="true"
     gridtolerance="10"
     guidetolerance="2">
    <inkscape:grid
       type="xygrid"
       id="grid13828" />
    <sodipodi:guide
       position="0.13043093,3.8477124"
       orientation="1,0"
       id="guide20533"
       inkscape:locked="false" />
    <sodipodi:guide
       position="1.9173346,3.6129367"
       orientation="0,1"
       id="guide20535"
       inkscape:locked="false" />
  </sodipodi:namedview>
  <metadata
     id="metadata13823">
    <rdf:RDF>
      <cc:Work
         rdf:about="">
        <dc:format>image/svg+xml</dc:format>
        <dc:type
           rdf:resource="http://purl.org/dc/dcmitype/StillImage" />
        <dc:title></dc:title>
      </cc:Work>
    </rdf:RDF>
  </metadata>
  <g
     inkscape:label="Layer 1"
     inkscape:groupmode="layer"
     id="layer1"
     transform="translate(0,-293.25)">
    <path
       inkscape:connector-curvature="0"
       id="path10271"
       d="m 0.55115595,293.44817 c -0.19154775,0 -0.34588802,0.15434 -0.34588802,0.34589 v 2.65548 c 0,0.19016 0.15434027,0.34588 0.34588802,0.34588 H 3.2052582 c 0.1915444,0 0.3472641,-0.15572 0.3472641,-0.34588 v -2.65548 c 0,-0.19155 -0.1557197,-0.34589 -0.3472641,-0.34589 z m 0,0"
       style="fill:#ffffff;fill-opacity:1;fill-rule:nonzero;stroke:none;stroke-width:0.35277775" />
    <path
       inkscape:connector-curvature="0"
       id="path10273"
       d="m 0.55115595,296.86708 c -0.23013458,0 -0.41754777,-0.18741 -0.41754777,-0.41892 v -2.6541 c 0,-0.23014 0.18741319,-0.41755 0.41754777,-0.41755 H 3.2052582 c 0.2301312,0 0.4175443,0.18741 0.4175443,0.41755 v 2.6541 c 0,0.23151 -0.1874131,0.41892 -0.4175443,0.41892 z m 0,0"
       style="fill:#211e1e;fill-opacity:1;fill-rule:nonzero;stroke:none;stroke-width:0.35277775" />
    <path
       inkscape:connector-curvature="0"
       id="path10275"
       d="m 2.4459571,295.10871 v 0.21497 c 0,0.28939 -0.235645,0.52503 -0.5264115,0.52503 h -0.08268 c -0.2907665,0 -0.5264114,-0.23564 -0.5264114,-0.52503 v -0.21497 H 1.1891863 v 0.21497 c 0,0.32797 0.2466693,0.59807 0.5649948,0.63941 v 0.2632 l -0.1915442,0.16261 h -0.088194 v 0.10198 H 2.2819724 V 296.3889 H 2.1937784 L 1.998096,296.22216 v -0.25907 c 0.3197049,-0.0386 0.5705087,-0.30868 0.5705087,-0.63941 v -0.21497 z m 0,0"
       style="fill:#ffffff;fill-opacity:1;fill-rule:nonzero;stroke:none;stroke-width:0.35277775" />
    <path
       inkscape:connector-curvature="0"
       id="path10277"
       d="m 3.2562453,296.49088 h -0.184658 v -2.13183 l -1.1933802,-0.51952 -1.19338365,0.51952 v 2.13183 H 0.50016897 v -2.25309 l 1.37803813,-0.59945 1.3780382,0.59945 z m 0,0"
       style="fill:#ffffff;fill-opacity:1;fill-rule:nonzero;stroke:none;stroke-width:0.35277775" />
    <path
       inkscape:connector-curvature="0"
       id="path10279"
       d="m 2.0504615,295.2906 v -0.12402 h 0.2549348 v -0.15985 H 2.0504615 v -0.12402 h 0.2549348 v -0.15986 H 2.0504615 v -0.12402 h 0.253559 c -0.00688,-0.20808 -0.1763889,-0.37758 -0.3858507,-0.37758 h -0.07855 c -0.2108376,0 -0.3803368,0.1695 -0.3872265,0.37758 h 0.2452899 v 0.12402 H 1.4510144 v 0.15986 h 0.2466693 v 0.12402 H 1.4510144 v 0.15985 h 0.2466693 v 0.12402 H 1.4510144 v 0.011 c 0,0.2136 0.1736337,0.38861 0.3886059,0.38861 h 0.07855 c 0.2135964,0 0.3872265,-0.17501 0.3872265,-0.38861 v -0.011 z m 0,0"
       style="fill:#ffffff;fill-opacity:1;fill-rule:nonzero;stroke:none;stroke-width:0.35277775" />
  </g>
</svg>
