<?xml version="1.0" encoding="UTF-8" standalone="no"?>
<!-- Created with Inkscape (http://www.inkscape.org/) -->

<svg
   xmlns:dc="http://purl.org/dc/elements/1.1/"
   xmlns:cc="http://creativecommons.org/ns#"
   xmlns:rdf="http://www.w3.org/1999/02/22-rdf-syntax-ns#"
   xmlns:svg="http://www.w3.org/2000/svg"
   xmlns="http://www.w3.org/2000/svg"
   xmlns:sodipodi="http://sodipodi.sourceforge.net/DTD/sodipodi-0.dtd"
   xmlns:inkscape="http://www.inkscape.org/namespaces/inkscape"
   width="3.75mm"
   height="3.75mm"
   viewBox="0 0 3.75 3.75"
   version="1.1"
   id="svg13826"
   inkscape:version="0.92.1 r15371"
   sodipodi:docname="ranger_light.svg">
  <defs
     id="defs13820" />
  <sodipodi:namedview
     id="base"
     pagecolor="#ffffff"
     bordercolor="#666666"
     borderopacity="1.0"
     inkscape:pageopacity="0.0"
     inkscape:pageshadow="2"
     inkscape:zoom="20.285322"
     inkscape:cx="7.2558826"
     inkscape:cy="7.4973999"
     inkscape:document-units="mm"
     inkscape:current-layer="layer1"
     showgrid="false"
     inkscape:window-width="561"
     inkscape:window-height="558"
     inkscape:window-x="687"
     inkscape:window-y="78"
     inkscape:window-maximized="0"
     showguides="true"
     inkscape:guide-bbox="true"
     gridtolerance="10"
     guidetolerance="2">
    <inkscape:grid
       type="xygrid"
       id="grid13828" />
    <sodipodi:guide
       position="0.13043093,3.8477124"
       orientation="1,0"
       id="guide20533"
       inkscape:locked="false" />
    <sodipodi:guide
       position="1.9173346,3.6129367"
       orientation="0,1"
       id="guide20535"
       inkscape:locked="false" />
  </sodipodi:namedview>
  <metadata
     id="metadata13823">
    <rdf:RDF>
      <cc:Work
         rdf:about="">
        <dc:format>image/svg+xml</dc:format>
        <dc:type
           rdf:resource="http://purl.org/dc/dcmitype/StillImage" />
        <dc:title></dc:title>
      </cc:Work>
    </rdf:RDF>
  </metadata>
  <g
     inkscape:label="Layer 1"
     inkscape:groupmode="layer"
     id="layer1"
     transform="translate(0,-293.25)">
    <path
       inkscape:connector-curvature="0"
       id="path12913"
       d="m 0.55115596,296.86639 c -0.23013458,0 -0.41754777,-0.18603 -0.41754777,-0.41754 v -2.6541 c 0,-0.23151 0.18741319,-0.41755 0.41754777,-0.41755 H 3.2066341 c 0.2301346,0 0.4161684,0.18604 0.4161684,0.41755 v 2.6541 c 0,0.23151 -0.1860338,0.41754 -0.4161684,0.41754 z m 0,0"
       style="fill:#211e1e;fill-opacity:1;fill-rule:nonzero;stroke:none;stroke-width:0.35277775" />
    <path
       inkscape:connector-curvature="0"
       id="path12915"
       d="m 0.55115596,293.44748 c -0.19154775,0 -0.34588802,0.15572 -0.34588802,0.34727 v 2.6541 c 0,0.19154 0.15434027,0.34726 0.34588802,0.34726 H 3.2066341 c 0.1901685,0 0.3458882,-0.15572 0.3458882,-0.34726 v -2.6541 c 0,-0.19155 -0.1557197,-0.34727 -0.3458882,-0.34727 z m 0,0"
       style="fill:#ffffff;fill-opacity:1;fill-rule:nonzero;stroke:none;stroke-width:0.35277775" />
    <path
       inkscape:connector-curvature="0"
       id="path12917"
       d="m 2.133142,294.8393 v -0.59945 h 0.208086 c 0.085436,0 0.1005946,0.0565 0.110243,0.0675 0.033055,0.0317 0.055122,0.0496 0.1005946,0.0496 h 0.2287552 v -0.5085 H 2.5520656 c -0.045473,0 -0.067522,-0.0179 -0.1005946,-0.0496 -0.00967,-0.01 -0.0248,-0.0675 -0.110243,-0.0675 H 2.0242783 v 1.03766 l -0.1446953,-0.0951 -1.27468487,0.82269 h 0.2990356 v 0.99495 H 1.6274033 v -0.78962 h 0.5029835 v 0.7717 h 0.7234696 v -0.97703 h 0.2976562 z m 0,0"
       style="fill:#211e1e;fill-opacity:1;fill-rule:nonzero;stroke:none;stroke-width:0.35277775" />
  </g>
</svg>
