<?xml version="1.0" encoding="UTF-8" standalone="no"?>
<!-- Created with Inkscape (http://www.inkscape.org/) -->

<svg
   xmlns:dc="http://purl.org/dc/elements/1.1/"
   xmlns:cc="http://creativecommons.org/ns#"
   xmlns:rdf="http://www.w3.org/1999/02/22-rdf-syntax-ns#"
   xmlns:svg="http://www.w3.org/2000/svg"
   xmlns="http://www.w3.org/2000/svg"
   xmlns:sodipodi="http://sodipodi.sourceforge.net/DTD/sodipodi-0.dtd"
   xmlns:inkscape="http://www.inkscape.org/namespaces/inkscape"
   width="3.75mm"
   height="3.75mm"
   viewBox="0 0 3.75 3.75"
   version="1.1"
   id="svg13826"
   inkscape:version="0.92.1 r15371"
   sodipodi:docname="boat_launch_dark.svg">
  <defs
     id="defs13820">
    <clipPath
       id="clip1">
      <rect
         y="0"
         x="0"
         width="5"
         height="5"
         id="rect561" />
    </clipPath>
    <clipPath
       id="clip2">
      <path
         inkscape:connector-curvature="0"
         d="m 0.652344,3 h 3.78125 v 1.042969 h -3.78125 z m 0,0"
         id="path436" />
    </clipPath>
    <clipPath
       id="clip3">
      <rect
         y="0"
         x="0"
         width="5"
         height="2"
         id="rect442" />
    </clipPath>
    <clipPath
       id="clip4">
      <path
         inkscape:connector-curvature="0"
         d="m 0.652344,0.667969 h 3.78125 v 0.375 h -3.78125 z m 0,0"
         id="path439" />
    </clipPath>
    <clipPath
       id="clipPath25695">
      <rect
         y="0"
         x="0"
         width="5"
         height="2"
         id="rect25693" />
    </clipPath>
    <clipPath
       id="clipPath25699">
      <path
         inkscape:connector-curvature="0"
         d="m 0.652344,0.667969 h 3.78125 v 0.375 h -3.78125 z m 0,0"
         id="path25697" />
    </clipPath>
    <clipPath
       id="clip5">
      <rect
         y="0"
         x="0"
         width="5"
         height="2"
         id="rect453" />
    </clipPath>
    <clipPath
       id="clip6">
      <path
         inkscape:connector-curvature="0"
         d="m 0.652344,0.667969 h 3.78125 v 0.375 h -3.78125 z m 0,0"
         id="path450" />
    </clipPath>
    <clipPath
       id="clipPath25707">
      <rect
         y="0"
         x="0"
         width="5"
         height="2"
         id="rect25705" />
    </clipPath>
    <clipPath
       id="clipPath25711">
      <path
         inkscape:connector-curvature="0"
         d="m 0.652344,0.667969 h 3.78125 v 0.375 h -3.78125 z m 0,0"
         id="path25709" />
    </clipPath>
    <clipPath
       id="clip7">
      <path
         inkscape:connector-curvature="0"
         d="m 0.652344,2 h 3.78125 v 2 h -3.78125 z m 0,0"
         id="path461" />
    </clipPath>
    <clipPath
       id="clip8">
      <rect
         y="0"
         x="0"
         width="5"
         height="2"
         id="rect467" />
    </clipPath>
    <clipPath
       id="clip9">
      <path
         inkscape:connector-curvature="0"
         d="m 0.652344,0.902344 h 3.78125 v 0.375 h -3.78125 z m 0,0"
         id="path464" />
    </clipPath>
    <clipPath
       id="clipPath25721">
      <rect
         y="0"
         x="0"
         width="5"
         height="2"
         id="rect25719" />
    </clipPath>
    <clipPath
       id="clipPath25725">
      <path
         inkscape:connector-curvature="0"
         d="m 0.652344,0.902344 h 3.78125 v 0.375 h -3.78125 z m 0,0"
         id="path25723" />
    </clipPath>
    <clipPath
       id="clip10">
      <rect
         y="0"
         x="0"
         width="5"
         height="2"
         id="rect478" />
    </clipPath>
    <clipPath
       id="clip11">
      <path
         inkscape:connector-curvature="0"
         d="m 0.652344,0.902344 h 3.78125 v 0.375 h -3.78125 z m 0,0"
         id="path475" />
    </clipPath>
    <clipPath
       id="clipPath25733">
      <rect
         y="0"
         x="0"
         width="5"
         height="2"
         id="rect25731" />
    </clipPath>
    <clipPath
       id="clipPath25737">
      <path
         inkscape:connector-curvature="0"
         d="m 0.652344,0.902344 h 3.78125 v 0.375 h -3.78125 z m 0,0"
         id="path25735" />
    </clipPath>
    <clipPath
       id="clip12">
      <path
         inkscape:connector-curvature="0"
         d="m 0.652344,2 h 3.78125 v 1 h -3.78125 z m 0,0"
         id="path486" />
    </clipPath>
    <clipPath
       id="clip13">
      <rect
         y="0"
         x="0"
         width="5"
         height="1"
         id="rect492" />
    </clipPath>
    <clipPath
       id="clip14">
      <path
         inkscape:connector-curvature="0"
         d="m 0.652344,0.136719 h 3.78125 v 0.375 h -3.78125 z m 0,0"
         id="path489" />
    </clipPath>
    <clipPath
       id="clipPath25747">
      <rect
         y="0"
         x="0"
         width="5"
         height="1"
         id="rect25745" />
    </clipPath>
    <clipPath
       id="clipPath25751">
      <path
         inkscape:connector-curvature="0"
         d="m 0.652344,0.136719 h 3.78125 v 0.375 h -3.78125 z m 0,0"
         id="path25749" />
    </clipPath>
    <clipPath
       id="clip15">
      <rect
         y="0"
         x="0"
         width="5"
         height="1"
         id="rect503" />
    </clipPath>
    <clipPath
       id="clip16">
      <path
         inkscape:connector-curvature="0"
         d="m 0.652344,0.136719 h 3.78125 v 0.375 h -3.78125 z m 0,0"
         id="path500" />
    </clipPath>
    <clipPath
       id="clipPath25759">
      <rect
         y="0"
         x="0"
         width="5"
         height="1"
         id="rect25757" />
    </clipPath>
    <clipPath
       id="clipPath25763">
      <path
         inkscape:connector-curvature="0"
         d="m 0.652344,0.136719 h 3.78125 v 0.375 h -3.78125 z m 0,0"
         id="path25761" />
    </clipPath>
    <clipPath
       id="clip17">
      <path
         inkscape:connector-curvature="0"
         d="m 0.652344,1 h 3.78125 v 1 h -3.78125 z m 0,0"
         id="path511" />
    </clipPath>
    <clipPath
       id="clip18">
      <rect
         y="0"
         x="0"
         width="5"
         height="1"
         id="rect517" />
    </clipPath>
    <clipPath
       id="clip19">
      <path
         inkscape:connector-curvature="0"
         d="m 0.652344,0.371094 h 3.78125 v 0.375 h -3.78125 z m 0,0"
         id="path514" />
    </clipPath>
    <clipPath
       id="clipPath25773">
      <rect
         y="0"
         x="0"
         width="5"
         height="1"
         id="rect25771" />
    </clipPath>
    <clipPath
       id="clipPath25777">
      <path
         inkscape:connector-curvature="0"
         d="m 0.652344,0.371094 h 3.78125 v 0.375 h -3.78125 z m 0,0"
         id="path25775" />
    </clipPath>
    <clipPath
       id="clip20">
      <rect
         y="0"
         x="0"
         width="5"
         height="1"
         id="rect528" />
    </clipPath>
    <clipPath
       id="clip21">
      <path
         inkscape:connector-curvature="0"
         d="m 0.652344,0.371094 h 3.78125 v 0.375 h -3.78125 z m 0,0"
         id="path525" />
    </clipPath>
    <clipPath
       id="clipPath25785">
      <rect
         y="0"
         x="0"
         width="5"
         height="1"
         id="rect25783" />
    </clipPath>
    <clipPath
       id="clipPath25789">
      <path
         inkscape:connector-curvature="0"
         d="m 0.652344,0.371094 h 3.78125 v 0.375 h -3.78125 z m 0,0"
         id="path25787" />
    </clipPath>
    <clipPath
       id="clip22">
      <path
         inkscape:connector-curvature="0"
         d="m 0.652344,0.605469 h 3.78125 V 1 h -3.78125 z m 0,0"
         id="path536" />
    </clipPath>
    <clipPath
       id="clip23">
      <rect
         y="0"
         x="0"
         width="5"
         height="1"
         id="rect542" />
    </clipPath>
    <clipPath
       id="clip24">
      <path
         inkscape:connector-curvature="0"
         d="m 0.652344,0.605469 h 3.78125 v 0.375 h -3.78125 z m 0,0"
         id="path539" />
    </clipPath>
    <clipPath
       id="clipPath25799">
      <rect
         y="0"
         x="0"
         width="5"
         height="1"
         id="rect25797" />
    </clipPath>
    <clipPath
       id="clipPath25803">
      <path
         inkscape:connector-curvature="0"
         d="m 0.652344,0.605469 h 3.78125 v 0.375 h -3.78125 z m 0,0"
         id="path25801" />
    </clipPath>
    <clipPath
       id="clip25">
      <rect
         y="0"
         x="0"
         width="5"
         height="1"
         id="rect553" />
    </clipPath>
    <clipPath
       id="clip26">
      <path
         inkscape:connector-curvature="0"
         d="m 0.652344,0.605469 h 3.78125 v 0.375 h -3.78125 z m 0,0"
         id="path550" />
    </clipPath>
    <clipPath
       id="clipPath25811">
      <rect
         y="0"
         x="0"
         width="5"
         height="1"
         id="rect25809" />
    </clipPath>
    <clipPath
       id="clipPath25815">
      <path
         inkscape:connector-curvature="0"
         d="m 0.652344,0.605469 h 3.78125 v 0.375 h -3.78125 z m 0,0"
         id="path25813" />
    </clipPath>
    <clipPath
       id="clipPath25819">
      <rect
         y="0"
         x="0"
         width="5"
         height="5"
         id="rect25817" />
    </clipPath>
    <clipPath
       id="clipPath25823">
      <path
         inkscape:connector-curvature="0"
         d="m 0.652344,3 h 3.78125 v 1.042969 h -3.78125 z m 0,0"
         id="path25821" />
    </clipPath>
    <clipPath
       id="clipPath25827">
      <rect
         y="0"
         x="0"
         width="5"
         height="2"
         id="rect25825" />
    </clipPath>
    <clipPath
       id="clipPath25831">
      <path
         inkscape:connector-curvature="0"
         d="m 0.652344,0.667969 h 3.78125 v 0.375 h -3.78125 z m 0,0"
         id="path25829" />
    </clipPath>
    <clipPath
       id="clipPath25835">
      <rect
         y="0"
         x="0"
         width="5"
         height="2"
         id="rect25833" />
    </clipPath>
    <clipPath
       id="clipPath25839">
      <path
         inkscape:connector-curvature="0"
         d="m 0.652344,0.667969 h 3.78125 v 0.375 h -3.78125 z m 0,0"
         id="path25837" />
    </clipPath>
    <clipPath
       id="clipPath25843">
      <path
         inkscape:connector-curvature="0"
         d="m 0.652344,2 h 3.78125 v 2 h -3.78125 z m 0,0"
         id="path25841" />
    </clipPath>
    <clipPath
       id="clipPath25847">
      <rect
         y="0"
         x="0"
         width="5"
         height="2"
         id="rect25845" />
    </clipPath>
    <clipPath
       id="clipPath25851">
      <path
         inkscape:connector-curvature="0"
         d="m 0.652344,0.902344 h 3.78125 v 0.375 h -3.78125 z m 0,0"
         id="path25849" />
    </clipPath>
    <clipPath
       id="clipPath25855">
      <rect
         y="0"
         x="0"
         width="5"
         height="2"
         id="rect25853" />
    </clipPath>
    <clipPath
       id="clipPath25859">
      <path
         inkscape:connector-curvature="0"
         d="m 0.652344,0.902344 h 3.78125 v 0.375 h -3.78125 z m 0,0"
         id="path25857" />
    </clipPath>
    <clipPath
       id="clipPath25863">
      <path
         inkscape:connector-curvature="0"
         d="m 0.652344,2 h 3.78125 v 1 h -3.78125 z m 0,0"
         id="path25861" />
    </clipPath>
    <clipPath
       id="clipPath25867">
      <rect
         y="0"
         x="0"
         width="5"
         height="1"
         id="rect25865" />
    </clipPath>
    <clipPath
       id="clipPath25871">
      <path
         inkscape:connector-curvature="0"
         d="m 0.652344,0.136719 h 3.78125 v 0.375 h -3.78125 z m 0,0"
         id="path25869" />
    </clipPath>
    <clipPath
       id="clipPath25875">
      <rect
         y="0"
         x="0"
         width="5"
         height="1"
         id="rect25873" />
    </clipPath>
    <clipPath
       id="clipPath25879">
      <path
         inkscape:connector-curvature="0"
         d="m 0.652344,0.136719 h 3.78125 v 0.375 h -3.78125 z m 0,0"
         id="path25877" />
    </clipPath>
    <clipPath
       id="clipPath25883">
      <path
         inkscape:connector-curvature="0"
         d="m 0.652344,1 h 3.78125 v 1 h -3.78125 z m 0,0"
         id="path25881" />
    </clipPath>
    <clipPath
       id="clipPath25887">
      <rect
         y="0"
         x="0"
         width="5"
         height="1"
         id="rect25885" />
    </clipPath>
    <clipPath
       id="clipPath25891">
      <path
         inkscape:connector-curvature="0"
         d="m 0.652344,0.371094 h 3.78125 v 0.375 h -3.78125 z m 0,0"
         id="path25889" />
    </clipPath>
    <clipPath
       id="clipPath25895">
      <rect
         y="0"
         x="0"
         width="5"
         height="1"
         id="rect25893" />
    </clipPath>
    <clipPath
       id="clipPath25899">
      <path
         inkscape:connector-curvature="0"
         d="m 0.652344,0.371094 h 3.78125 v 0.375 h -3.78125 z m 0,0"
         id="path25897" />
    </clipPath>
    <clipPath
       id="clipPath25903">
      <path
         inkscape:connector-curvature="0"
         d="m 0.652344,0.605469 h 3.78125 V 1 h -3.78125 z m 0,0"
         id="path25901" />
    </clipPath>
    <clipPath
       id="clipPath25907">
      <rect
         y="0"
         x="0"
         width="5"
         height="1"
         id="rect25905" />
    </clipPath>
    <clipPath
       id="clipPath25911">
      <path
         inkscape:connector-curvature="0"
         d="m 0.652344,0.605469 h 3.78125 v 0.375 h -3.78125 z m 0,0"
         id="path25909" />
    </clipPath>
    <clipPath
       id="clipPath25915">
      <rect
         y="0"
         x="0"
         width="5"
         height="1"
         id="rect25913" />
    </clipPath>
    <clipPath
       id="clipPath25919">
      <path
         inkscape:connector-curvature="0"
         d="m 0.652344,0.605469 h 3.78125 v 0.375 h -3.78125 z m 0,0"
         id="path25917" />
    </clipPath>
  </defs>
  <sodipodi:namedview
     id="base"
     pagecolor="#ffffff"
     bordercolor="#666666"
     borderopacity="1.0"
     inkscape:pageopacity="0.0"
     inkscape:pageshadow="2"
     inkscape:zoom="28.687777"
     inkscape:cx="6.9695445"
     inkscape:cy="6.238671"
     inkscape:document-units="mm"
     inkscape:current-layer="layer1"
     showgrid="false"
     inkscape:window-width="691"
     inkscape:window-height="712"
     inkscape:window-x="674"
     inkscape:window-y="27"
     inkscape:window-maximized="0"
     showguides="true"
     inkscape:guide-bbox="true"
     gridtolerance="10"
     guidetolerance="2">
    <inkscape:grid
       type="xygrid"
       id="grid13828" />
    <sodipodi:guide
       position="0.13043093,3.8477124"
       orientation="1,0"
       id="guide20533"
       inkscape:locked="false" />
    <sodipodi:guide
       position="1.9173346,3.6129367"
       orientation="0,1"
       id="guide20535"
       inkscape:locked="false" />
  </sodipodi:namedview>
  <metadata
     id="metadata13823">
    <rdf:RDF>
      <cc:Work
         rdf:about="">
        <dc:format>image/svg+xml</dc:format>
        <dc:type
           rdf:resource="http://purl.org/dc/dcmitype/StillImage" />
        <dc:title></dc:title>
      </cc:Work>
    </rdf:RDF>
  </metadata>
  <g
     inkscape:label="Layer 1"
     inkscape:groupmode="layer"
     id="layer1"
     transform="translate(0,-293.25)">
    <g
       transform="matrix(0.09333912,0,0,0.09333912,0.9751432,398.26883)"
       clip-path="url(#clip1)"
       id="use9161">
      <g
         style="clip-rule:nonzero"
         id="g26358"
         clip-path="url(#clip2)">
        <g
           id="g26350"
           clip-path="url(#clip3)"
           transform="matrix(0.26458333,0,0,0.26458333,0,296.25)">
          <g
             clip-path="url(#clip4)"
             id="g26348"
             style="clip-rule:nonzero">
            <path
               style="fill:#000000;fill-opacity:1;fill-rule:nonzero;stroke:none"
               d="m 4.433594,1.042969 h -3.78125 v -0.375 h 3.78125 z m 0,0"
               id="path26346"
               inkscape:connector-curvature="0" />
          </g>
        </g>
        <g
           id="g26356"
           clip-path="url(#clip5)"
           transform="matrix(0.26458333,0,0,0.26458333,0,296.25)">
          <g
             clip-path="url(#clip6)"
             id="g26354"
             style="clip-rule:nonzero">
            <path
               style="fill:#211e1e;fill-opacity:1;fill-rule:nonzero;stroke:none"
               d="m 4.433594,1.042969 h -3.78125 v -0.375 h 3.78125 z m 0,0"
               id="path26352"
               inkscape:connector-curvature="0" />
          </g>
        </g>
      </g>
      <g
         style="clip-rule:nonzero"
         id="g26372"
         clip-path="url(#clip7)">
        <g
           id="g26364"
           clip-path="url(#clip8)"
           transform="matrix(0.26458333,0,0,0.26458333,0,295.25)">
          <g
             clip-path="url(#clip9)"
             id="g26362"
             style="clip-rule:nonzero">
            <path
               style="fill:#000000;fill-opacity:1;fill-rule:nonzero;stroke:none"
               d="m 4.433594,1.277344 h -3.78125 v -0.375 h 3.78125 z m 0,0"
               id="path26360"
               inkscape:connector-curvature="0" />
          </g>
        </g>
        <g
           id="g26370"
           clip-path="url(#clip10)"
           transform="matrix(0.26458333,0,0,0.26458333,0,295.25)">
          <g
             clip-path="url(#clip11)"
             id="g26368"
             style="clip-rule:nonzero">
            <path
               style="fill:#211e1e;fill-opacity:1;fill-rule:nonzero;stroke:none"
               d="m 4.433594,1.277344 h -3.78125 v -0.375 h 3.78125 z m 0,0"
               id="path26366"
               inkscape:connector-curvature="0" />
          </g>
        </g>
      </g>
      <g
         style="clip-rule:nonzero"
         id="g26386"
         clip-path="url(#clip12)">
        <g
           id="g26378"
           clip-path="url(#clip13)"
           transform="matrix(0.26458333,0,0,0.26458333,0,295.25)">
          <g
             clip-path="url(#clip14)"
             id="g26376"
             style="clip-rule:nonzero">
            <path
               style="fill:#000000;fill-opacity:1;fill-rule:nonzero;stroke:none"
               d="m 4.433594,0.511719 h -3.78125 v -0.375 h 3.78125 z m 0,0"
               id="path26374"
               inkscape:connector-curvature="0" />
          </g>
        </g>
        <g
           id="g26384"
           clip-path="url(#clip15)"
           transform="matrix(0.26458333,0,0,0.26458333,0,295.25)">
          <g
             clip-path="url(#clip16)"
             id="g26382"
             style="clip-rule:nonzero">
            <path
               style="fill:#211e1e;fill-opacity:1;fill-rule:nonzero;stroke:none"
               d="m 4.433594,0.511719 h -3.78125 v -0.375 h 3.78125 z m 0,0"
               id="path26380"
               inkscape:connector-curvature="0" />
          </g>
        </g>
      </g>
      <g
         style="clip-rule:nonzero"
         id="g26400"
         clip-path="url(#clip17)">
        <g
           id="g26392"
           clip-path="url(#clip18)"
           transform="matrix(0.26458333,0,0,0.26458333,0,294.25)">
          <g
             clip-path="url(#clip19)"
             id="g26390"
             style="clip-rule:nonzero">
            <path
               style="fill:#000000;fill-opacity:1;fill-rule:nonzero;stroke:none"
               d="m 4.433594,0.746094 h -3.78125 v -0.375 h 3.78125 z m 0,0"
               id="path26388"
               inkscape:connector-curvature="0" />
          </g>
        </g>
        <g
           id="g26398"
           clip-path="url(#clip20)"
           transform="matrix(0.26458333,0,0,0.26458333,0,294.25)">
          <g
             clip-path="url(#clip21)"
             id="g26396"
             style="clip-rule:nonzero">
            <path
               style="fill:#211e1e;fill-opacity:1;fill-rule:nonzero;stroke:none"
               d="m 4.433594,0.746094 h -3.78125 v -0.375 h 3.78125 z m 0,0"
               id="path26394"
               inkscape:connector-curvature="0" />
          </g>
        </g>
      </g>
      <g
         style="clip-rule:nonzero"
         id="g26414"
         clip-path="url(#clip22)">
        <g
           id="g26406"
           clip-path="url(#clip23)"
           transform="matrix(0.26458333,0,0,0.26458333,0,293.25)">
          <g
             clip-path="url(#clip24)"
             id="g26404"
             style="clip-rule:nonzero">
            <path
               style="fill:#000000;fill-opacity:1;fill-rule:nonzero;stroke:none"
               d="m 4.433594,0.980469 h -3.78125 v -0.375 h 3.78125 z m 0,0"
               id="path26402"
               inkscape:connector-curvature="0" />
          </g>
        </g>
        <g
           id="g26412"
           clip-path="url(#clip25)"
           transform="matrix(0.26458333,0,0,0.26458333,0,293.25)">
          <g
             clip-path="url(#clip26)"
             id="g26410"
             style="clip-rule:nonzero">
            <path
               style="fill:#211e1e;fill-opacity:1;fill-rule:nonzero;stroke:none"
               d="m 4.433594,0.980469 h -3.78125 v -0.375 h 3.78125 z m 0,0"
               id="path26408"
               inkscape:connector-curvature="0" />
          </g>
        </g>
      </g>
    </g>
    <path
       inkscape:connector-curvature="0"
       id="path12309"
       d="m 0.54518744,293.45482 c -0.19016838,0 -0.34588801,0.15572 -0.34588801,0.34726 v 2.65273 c 0,0.19017 0.15571963,0.34589 0.34588801,0.34589 H 3.1992899 c 0.1901682,0 0.345888,-0.15572 0.345888,-0.34589 v -2.65273 c 0,-0.19154 -0.1557198,-0.34726 -0.345888,-0.34726 z m 0,0"
       style="fill:#ffffff;fill-opacity:1;fill-rule:nonzero;stroke:none;stroke-width:0.35277775" />
    <path
       inkscape:connector-curvature="0"
       id="path12311"
       d="m 3.1992899,296.87098 c 0.2301309,0 0.4161684,-0.18604 0.4161684,-0.41617 v -2.65273 c 0,-0.23013 -0.1860375,-0.41754 -0.4161684,-0.41754 H 0.54656682 c -0.23151042,0 -0.41754425,0.18741 -0.41754425,0.41754 v 2.65273 c 0,0.23013 0.18603383,0.41617 0.41754425,0.41617 z m 0,0"
       style="fill:#211e1e;fill-opacity:1;fill-rule:nonzero;stroke:none;stroke-width:0.35277775" />
    <path
       inkscape:connector-curvature="0"
       id="path12313"
       d="m 0.89383065,294.08596 0.58704695,0.15986 0.3265946,-0.22463 0.1129982,0.0262 -0.32246,0.22738 1.7790478,0.48782 -0.1309159,0.47818 -1.7845581,-0.48782 c -0.69177609,-0.20533 -0.56637415,-0.66698 -0.56637415,-0.66698"
       style="fill:#ffffff;fill-opacity:1;fill-rule:nonzero;stroke:none;stroke-width:0.35277775" />
    <path
       inkscape:connector-curvature="0"
       id="path12315"
       d="m 2.4372334,295.30828 c -0.00141,-0.04 -0.00963,-0.0786 -0.022048,-0.11437 l 0.8047743,0.22462 -0.026175,0.0992 z m 0,0"
       style="fill:#ffffff;fill-opacity:1;fill-rule:nonzero;stroke:none;stroke-width:0.35277775" />
    <path
       inkscape:connector-curvature="0"
       id="path12317"
       d="m 1.7068741,295.10571 c 0.022049,-0.0317 0.046852,-0.0593 0.075794,-0.0841 l -1.34221008,-0.37069 v 0.10611 z m 0,0"
       style="fill:#ffffff;fill-opacity:1;fill-rule:nonzero;stroke:none;stroke-width:0.35277775" />
    <path
       inkscape:connector-curvature="0"
       id="path12319"
       d="m 3.3494955,296.26188 c -0.06339,0 -0.1240224,-0.0152 -0.1791441,-0.04 -0.055121,-0.0248 -0.1185122,-0.04 -0.1832785,-0.04 -0.066146,0 -0.1295365,0.0152 -0.184658,0.04 -0.055122,0.0248 -0.1157535,0.04 -0.1791441,0.04 -0.063391,0 -0.1240226,-0.0152 -0.1791441,-0.04 -0.056501,-0.0248 -0.1185122,-0.04 -0.184658,-0.04 -0.06477,0 -0.1281571,0.0152 -0.1832786,0.04 -0.055122,0.0248 -0.115757,0.04 -0.1791476,0.04 -0.063387,0 -0.1253984,-0.0152 -0.1791441,-0.04 -0.056497,-0.0248 -0.119888,-0.04 -0.184658,-0.04 -0.066146,0 -0.1281571,0.0152 -0.1846545,0.04 -0.053746,0.0248 -0.1157569,0.04 -0.1791476,0.04 -0.062011,0 -0.1240225,-0.0152 -0.17914405,-0.04 -0.055122,-0.0248 -0.1185122,-0.04 -0.18327866,-0.04 -0.0661458,0 -0.12815713,0.0152 -0.184658,0.04 -0.0537422,0.0248 -0.11575344,0.04 -0.17776473,0.04 l -0.005503,-1.0666 1.46898784,0.40515 c -0.1005946,-0.0496 -0.170875,-0.15159 -0.170875,-0.27148 0,-0.16674 0.1350469,-0.30179 0.3017908,-0.30179 0.1653646,0 0.3017908,0.13505 0.3017908,0.30179 0,0.16675 -0.1364262,0.30179 -0.3017908,0.30179 -0.011007,0 -0.020673,-0.003 -0.030304,-0.003 l 1.3380754,0.36793 z m -1.3105129,-0.80202 c 0.071656,0 0.1309123,-0.0579 0.1309123,-0.13091 0,-0.073 -0.059256,-0.13091 -0.1309123,-0.13091 -0.073036,0 -0.1309158,0.0579 -0.1309158,0.13091 0,0.073 0.05788,0.13091 0.1309158,0.13091"
       style="fill:#ffffff;fill-opacity:1;fill-rule:nonzero;stroke:none;stroke-width:0.35277775" />
  </g>
</svg>
