<?xml version="1.0" encoding="UTF-8" standalone="no"?>
<!-- Created with Inkscape (http://www.inkscape.org/) -->

<svg
   xmlns:dc="http://purl.org/dc/elements/1.1/"
   xmlns:cc="http://creativecommons.org/ns#"
   xmlns:rdf="http://www.w3.org/1999/02/22-rdf-syntax-ns#"
   xmlns:svg="http://www.w3.org/2000/svg"
   xmlns="http://www.w3.org/2000/svg"
   xmlns:sodipodi="http://sodipodi.sourceforge.net/DTD/sodipodi-0.dtd"
   xmlns:inkscape="http://www.inkscape.org/namespaces/inkscape"
   width="3.75mm"
   height="3.75mm"
   viewBox="0 0 3.75 3.75"
   version="1.1"
   id="svg13826"
   inkscape:version="0.92.1 r15371"
   sodipodi:docname="swimming_light.svg">
  <defs
     id="defs13820">
    <clipPath
       id="clip1">
      <rect
         y="0"
         x="0"
         width="5"
         height="5"
         id="rect561" />
    </clipPath>
    <clipPath
       id="clip2">
      <path
         inkscape:connector-curvature="0"
         d="m 0.652344,3 h 3.78125 v 1.042969 h -3.78125 z m 0,0"
         id="path436" />
    </clipPath>
    <clipPath
       id="clip3">
      <rect
         y="0"
         x="0"
         width="5"
         height="2"
         id="rect442" />
    </clipPath>
    <clipPath
       id="clip4">
      <path
         inkscape:connector-curvature="0"
         d="m 0.652344,0.667969 h 3.78125 v 0.375 h -3.78125 z m 0,0"
         id="path439" />
    </clipPath>
    <clipPath
       id="clipPath25695">
      <rect
         y="0"
         x="0"
         width="5"
         height="2"
         id="rect25693" />
    </clipPath>
    <clipPath
       id="clipPath25699">
      <path
         inkscape:connector-curvature="0"
         d="m 0.652344,0.667969 h 3.78125 v 0.375 h -3.78125 z m 0,0"
         id="path25697" />
    </clipPath>
    <clipPath
       id="clip5">
      <rect
         y="0"
         x="0"
         width="5"
         height="2"
         id="rect453" />
    </clipPath>
    <clipPath
       id="clip6">
      <path
         inkscape:connector-curvature="0"
         d="m 0.652344,0.667969 h 3.78125 v 0.375 h -3.78125 z m 0,0"
         id="path450" />
    </clipPath>
    <clipPath
       id="clipPath25707">
      <rect
         y="0"
         x="0"
         width="5"
         height="2"
         id="rect25705" />
    </clipPath>
    <clipPath
       id="clipPath25711">
      <path
         inkscape:connector-curvature="0"
         d="m 0.652344,0.667969 h 3.78125 v 0.375 h -3.78125 z m 0,0"
         id="path25709" />
    </clipPath>
    <clipPath
       id="clip7">
      <path
         inkscape:connector-curvature="0"
         d="m 0.652344,2 h 3.78125 v 2 h -3.78125 z m 0,0"
         id="path461" />
    </clipPath>
    <clipPath
       id="clip8">
      <rect
         y="0"
         x="0"
         width="5"
         height="2"
         id="rect467" />
    </clipPath>
    <clipPath
       id="clip9">
      <path
         inkscape:connector-curvature="0"
         d="m 0.652344,0.902344 h 3.78125 v 0.375 h -3.78125 z m 0,0"
         id="path464" />
    </clipPath>
    <clipPath
       id="clipPath25721">
      <rect
         y="0"
         x="0"
         width="5"
         height="2"
         id="rect25719" />
    </clipPath>
    <clipPath
       id="clipPath25725">
      <path
         inkscape:connector-curvature="0"
         d="m 0.652344,0.902344 h 3.78125 v 0.375 h -3.78125 z m 0,0"
         id="path25723" />
    </clipPath>
    <clipPath
       id="clip10">
      <rect
         y="0"
         x="0"
         width="5"
         height="2"
         id="rect478" />
    </clipPath>
    <clipPath
       id="clip11">
      <path
         inkscape:connector-curvature="0"
         d="m 0.652344,0.902344 h 3.78125 v 0.375 h -3.78125 z m 0,0"
         id="path475" />
    </clipPath>
    <clipPath
       id="clipPath25733">
      <rect
         y="0"
         x="0"
         width="5"
         height="2"
         id="rect25731" />
    </clipPath>
    <clipPath
       id="clipPath25737">
      <path
         inkscape:connector-curvature="0"
         d="m 0.652344,0.902344 h 3.78125 v 0.375 h -3.78125 z m 0,0"
         id="path25735" />
    </clipPath>
    <clipPath
       id="clip12">
      <path
         inkscape:connector-curvature="0"
         d="m 0.652344,2 h 3.78125 v 1 h -3.78125 z m 0,0"
         id="path486" />
    </clipPath>
    <clipPath
       id="clip13">
      <rect
         y="0"
         x="0"
         width="5"
         height="1"
         id="rect492" />
    </clipPath>
    <clipPath
       id="clip14">
      <path
         inkscape:connector-curvature="0"
         d="m 0.652344,0.136719 h 3.78125 v 0.375 h -3.78125 z m 0,0"
         id="path489" />
    </clipPath>
    <clipPath
       id="clipPath25747">
      <rect
         y="0"
         x="0"
         width="5"
         height="1"
         id="rect25745" />
    </clipPath>
    <clipPath
       id="clipPath25751">
      <path
         inkscape:connector-curvature="0"
         d="m 0.652344,0.136719 h 3.78125 v 0.375 h -3.78125 z m 0,0"
         id="path25749" />
    </clipPath>
    <clipPath
       id="clip15">
      <rect
         y="0"
         x="0"
         width="5"
         height="1"
         id="rect503" />
    </clipPath>
    <clipPath
       id="clip16">
      <path
         inkscape:connector-curvature="0"
         d="m 0.652344,0.136719 h 3.78125 v 0.375 h -3.78125 z m 0,0"
         id="path500" />
    </clipPath>
    <clipPath
       id="clipPath25759">
      <rect
         y="0"
         x="0"
         width="5"
         height="1"
         id="rect25757" />
    </clipPath>
    <clipPath
       id="clipPath25763">
      <path
         inkscape:connector-curvature="0"
         d="m 0.652344,0.136719 h 3.78125 v 0.375 h -3.78125 z m 0,0"
         id="path25761" />
    </clipPath>
    <clipPath
       id="clip17">
      <path
         inkscape:connector-curvature="0"
         d="m 0.652344,1 h 3.78125 v 1 h -3.78125 z m 0,0"
         id="path511" />
    </clipPath>
    <clipPath
       id="clip18">
      <rect
         y="0"
         x="0"
         width="5"
         height="1"
         id="rect517" />
    </clipPath>
    <clipPath
       id="clip19">
      <path
         inkscape:connector-curvature="0"
         d="m 0.652344,0.371094 h 3.78125 v 0.375 h -3.78125 z m 0,0"
         id="path514" />
    </clipPath>
    <clipPath
       id="clipPath25773">
      <rect
         y="0"
         x="0"
         width="5"
         height="1"
         id="rect25771" />
    </clipPath>
    <clipPath
       id="clipPath25777">
      <path
         inkscape:connector-curvature="0"
         d="m 0.652344,0.371094 h 3.78125 v 0.375 h -3.78125 z m 0,0"
         id="path25775" />
    </clipPath>
    <clipPath
       id="clip20">
      <rect
         y="0"
         x="0"
         width="5"
         height="1"
         id="rect528" />
    </clipPath>
    <clipPath
       id="clip21">
      <path
         inkscape:connector-curvature="0"
         d="m 0.652344,0.371094 h 3.78125 v 0.375 h -3.78125 z m 0,0"
         id="path525" />
    </clipPath>
    <clipPath
       id="clipPath25785">
      <rect
         y="0"
         x="0"
         width="5"
         height="1"
         id="rect25783" />
    </clipPath>
    <clipPath
       id="clipPath25789">
      <path
         inkscape:connector-curvature="0"
         d="m 0.652344,0.371094 h 3.78125 v 0.375 h -3.78125 z m 0,0"
         id="path25787" />
    </clipPath>
    <clipPath
       id="clip22">
      <path
         inkscape:connector-curvature="0"
         d="m 0.652344,0.605469 h 3.78125 V 1 h -3.78125 z m 0,0"
         id="path536" />
    </clipPath>
    <clipPath
       id="clip23">
      <rect
         y="0"
         x="0"
         width="5"
         height="1"
         id="rect542" />
    </clipPath>
    <clipPath
       id="clip24">
      <path
         inkscape:connector-curvature="0"
         d="m 0.652344,0.605469 h 3.78125 v 0.375 h -3.78125 z m 0,0"
         id="path539" />
    </clipPath>
    <clipPath
       id="clipPath25799">
      <rect
         y="0"
         x="0"
         width="5"
         height="1"
         id="rect25797" />
    </clipPath>
    <clipPath
       id="clipPath25803">
      <path
         inkscape:connector-curvature="0"
         d="m 0.652344,0.605469 h 3.78125 v 0.375 h -3.78125 z m 0,0"
         id="path25801" />
    </clipPath>
    <clipPath
       id="clip25">
      <rect
         y="0"
         x="0"
         width="5"
         height="1"
         id="rect553" />
    </clipPath>
    <clipPath
       id="clip26">
      <path
         inkscape:connector-curvature="0"
         d="m 0.652344,0.605469 h 3.78125 v 0.375 h -3.78125 z m 0,0"
         id="path550" />
    </clipPath>
    <clipPath
       id="clipPath25811">
      <rect
         y="0"
         x="0"
         width="5"
         height="1"
         id="rect25809" />
    </clipPath>
    <clipPath
       id="clipPath25815">
      <path
         inkscape:connector-curvature="0"
         d="m 0.652344,0.605469 h 3.78125 v 0.375 h -3.78125 z m 0,0"
         id="path25813" />
    </clipPath>
    <clipPath
       id="clipPath25819">
      <rect
         y="0"
         x="0"
         width="5"
         height="5"
         id="rect25817" />
    </clipPath>
    <clipPath
       id="clipPath25823">
      <path
         inkscape:connector-curvature="0"
         d="m 0.652344,3 h 3.78125 v 1.042969 h -3.78125 z m 0,0"
         id="path25821" />
    </clipPath>
    <clipPath
       id="clipPath25827">
      <rect
         y="0"
         x="0"
         width="5"
         height="2"
         id="rect25825" />
    </clipPath>
    <clipPath
       id="clipPath25831">
      <path
         inkscape:connector-curvature="0"
         d="m 0.652344,0.667969 h 3.78125 v 0.375 h -3.78125 z m 0,0"
         id="path25829" />
    </clipPath>
    <clipPath
       id="clipPath25835">
      <rect
         y="0"
         x="0"
         width="5"
         height="2"
         id="rect25833" />
    </clipPath>
    <clipPath
       id="clipPath25839">
      <path
         inkscape:connector-curvature="0"
         d="m 0.652344,0.667969 h 3.78125 v 0.375 h -3.78125 z m 0,0"
         id="path25837" />
    </clipPath>
    <clipPath
       id="clipPath25843">
      <path
         inkscape:connector-curvature="0"
         d="m 0.652344,2 h 3.78125 v 2 h -3.78125 z m 0,0"
         id="path25841" />
    </clipPath>
    <clipPath
       id="clipPath25847">
      <rect
         y="0"
         x="0"
         width="5"
         height="2"
         id="rect25845" />
    </clipPath>
    <clipPath
       id="clipPath25851">
      <path
         inkscape:connector-curvature="0"
         d="m 0.652344,0.902344 h 3.78125 v 0.375 h -3.78125 z m 0,0"
         id="path25849" />
    </clipPath>
    <clipPath
       id="clipPath25855">
      <rect
         y="0"
         x="0"
         width="5"
         height="2"
         id="rect25853" />
    </clipPath>
    <clipPath
       id="clipPath25859">
      <path
         inkscape:connector-curvature="0"
         d="m 0.652344,0.902344 h 3.78125 v 0.375 h -3.78125 z m 0,0"
         id="path25857" />
    </clipPath>
    <clipPath
       id="clipPath25863">
      <path
         inkscape:connector-curvature="0"
         d="m 0.652344,2 h 3.78125 v 1 h -3.78125 z m 0,0"
         id="path25861" />
    </clipPath>
    <clipPath
       id="clipPath25867">
      <rect
         y="0"
         x="0"
         width="5"
         height="1"
         id="rect25865" />
    </clipPath>
    <clipPath
       id="clipPath25871">
      <path
         inkscape:connector-curvature="0"
         d="m 0.652344,0.136719 h 3.78125 v 0.375 h -3.78125 z m 0,0"
         id="path25869" />
    </clipPath>
    <clipPath
       id="clipPath25875">
      <rect
         y="0"
         x="0"
         width="5"
         height="1"
         id="rect25873" />
    </clipPath>
    <clipPath
       id="clipPath25879">
      <path
         inkscape:connector-curvature="0"
         d="m 0.652344,0.136719 h 3.78125 v 0.375 h -3.78125 z m 0,0"
         id="path25877" />
    </clipPath>
    <clipPath
       id="clipPath25883">
      <path
         inkscape:connector-curvature="0"
         d="m 0.652344,1 h 3.78125 v 1 h -3.78125 z m 0,0"
         id="path25881" />
    </clipPath>
    <clipPath
       id="clipPath25887">
      <rect
         y="0"
         x="0"
         width="5"
         height="1"
         id="rect25885" />
    </clipPath>
    <clipPath
       id="clipPath25891">
      <path
         inkscape:connector-curvature="0"
         d="m 0.652344,0.371094 h 3.78125 v 0.375 h -3.78125 z m 0,0"
         id="path25889" />
    </clipPath>
    <clipPath
       id="clipPath25895">
      <rect
         y="0"
         x="0"
         width="5"
         height="1"
         id="rect25893" />
    </clipPath>
    <clipPath
       id="clipPath25899">
      <path
         inkscape:connector-curvature="0"
         d="m 0.652344,0.371094 h 3.78125 v 0.375 h -3.78125 z m 0,0"
         id="path25897" />
    </clipPath>
    <clipPath
       id="clipPath25903">
      <path
         inkscape:connector-curvature="0"
         d="m 0.652344,0.605469 h 3.78125 V 1 h -3.78125 z m 0,0"
         id="path25901" />
    </clipPath>
    <clipPath
       id="clipPath25907">
      <rect
         y="0"
         x="0"
         width="5"
         height="1"
         id="rect25905" />
    </clipPath>
    <clipPath
       id="clipPath25911">
      <path
         inkscape:connector-curvature="0"
         d="m 0.652344,0.605469 h 3.78125 v 0.375 h -3.78125 z m 0,0"
         id="path25909" />
    </clipPath>
    <clipPath
       id="clipPath25915">
      <rect
         y="0"
         x="0"
         width="5"
         height="1"
         id="rect25913" />
    </clipPath>
    <clipPath
       id="clipPath25919">
      <path
         inkscape:connector-curvature="0"
         d="m 0.652344,0.605469 h 3.78125 v 0.375 h -3.78125 z m 0,0"
         id="path25917" />
    </clipPath>
  </defs>
  <sodipodi:namedview
     id="base"
     pagecolor="#ffffff"
     bordercolor="#666666"
     borderopacity="1.0"
     inkscape:pageopacity="0.0"
     inkscape:pageshadow="2"
     inkscape:zoom="28.687777"
     inkscape:cx="7.8823626"
     inkscape:cy="6.2226078"
     inkscape:document-units="mm"
     inkscape:current-layer="layer1"
     showgrid="false"
     inkscape:window-width="691"
     inkscape:window-height="712"
     inkscape:window-x="674"
     inkscape:window-y="27"
     inkscape:window-maximized="0"
     showguides="true"
     inkscape:guide-bbox="true"
     gridtolerance="10"
     guidetolerance="2">
    <inkscape:grid
       type="xygrid"
       id="grid13828" />
    <sodipodi:guide
       position="0.13043093,3.8477124"
       orientation="1,0"
       id="guide20533"
       inkscape:locked="false" />
    <sodipodi:guide
       position="1.9173346,3.6129367"
       orientation="0,1"
       id="guide20535"
       inkscape:locked="false" />
    <sodipodi:guide
       position="-0.092228593,4.0580581"
       orientation="-0.70710678,0.70710678"
       id="guide27663"
       inkscape:locked="false" />
  </sodipodi:namedview>
  <metadata
     id="metadata13823">
    <rdf:RDF>
      <cc:Work
         rdf:about="">
        <dc:format>image/svg+xml</dc:format>
        <dc:type
           rdf:resource="http://purl.org/dc/dcmitype/StillImage" />
        <dc:title></dc:title>
      </cc:Work>
    </rdf:RDF>
  </metadata>
  <g
     inkscape:label="Layer 1"
     inkscape:groupmode="layer"
     id="layer1"
     transform="translate(0,-293.25)">
    <g
       transform="matrix(0.09333912,0,0,0.09333912,0.9751432,398.26883)"
       clip-path="url(#clip1)"
       id="use9161">
      <g
         style="clip-rule:nonzero"
         id="g26358"
         clip-path="url(#clip2)">
        <g
           id="g26350"
           clip-path="url(#clip3)"
           transform="matrix(0.26458333,0,0,0.26458333,0,296.25)">
          <g
             clip-path="url(#clip4)"
             id="g26348"
             style="clip-rule:nonzero">
            <path
               style="fill:#000000;fill-opacity:1;fill-rule:nonzero;stroke:none"
               d="m 4.433594,1.042969 h -3.78125 v -0.375 h 3.78125 z m 0,0"
               id="path26346"
               inkscape:connector-curvature="0" />
          </g>
        </g>
        <g
           id="g26356"
           clip-path="url(#clip5)"
           transform="matrix(0.26458333,0,0,0.26458333,0,296.25)">
          <g
             clip-path="url(#clip6)"
             id="g26354"
             style="clip-rule:nonzero">
            <path
               style="fill:#211e1e;fill-opacity:1;fill-rule:nonzero;stroke:none"
               d="m 4.433594,1.042969 h -3.78125 v -0.375 h 3.78125 z m 0,0"
               id="path26352"
               inkscape:connector-curvature="0" />
          </g>
        </g>
      </g>
      <g
         style="clip-rule:nonzero"
         id="g26372"
         clip-path="url(#clip7)">
        <g
           id="g26364"
           clip-path="url(#clip8)"
           transform="matrix(0.26458333,0,0,0.26458333,0,295.25)">
          <g
             clip-path="url(#clip9)"
             id="g26362"
             style="clip-rule:nonzero">
            <path
               style="fill:#000000;fill-opacity:1;fill-rule:nonzero;stroke:none"
               d="m 4.433594,1.277344 h -3.78125 v -0.375 h 3.78125 z m 0,0"
               id="path26360"
               inkscape:connector-curvature="0" />
          </g>
        </g>
        <g
           id="g26370"
           clip-path="url(#clip10)"
           transform="matrix(0.26458333,0,0,0.26458333,0,295.25)">
          <g
             clip-path="url(#clip11)"
             id="g26368"
             style="clip-rule:nonzero">
            <path
               style="fill:#211e1e;fill-opacity:1;fill-rule:nonzero;stroke:none"
               d="m 4.433594,1.277344 h -3.78125 v -0.375 h 3.78125 z m 0,0"
               id="path26366"
               inkscape:connector-curvature="0" />
          </g>
        </g>
      </g>
      <g
         style="clip-rule:nonzero"
         id="g26386"
         clip-path="url(#clip12)">
        <g
           id="g26378"
           clip-path="url(#clip13)"
           transform="matrix(0.26458333,0,0,0.26458333,0,295.25)">
          <g
             clip-path="url(#clip14)"
             id="g26376"
             style="clip-rule:nonzero">
            <path
               style="fill:#000000;fill-opacity:1;fill-rule:nonzero;stroke:none"
               d="m 4.433594,0.511719 h -3.78125 v -0.375 h 3.78125 z m 0,0"
               id="path26374"
               inkscape:connector-curvature="0" />
          </g>
        </g>
        <g
           id="g26384"
           clip-path="url(#clip15)"
           transform="matrix(0.26458333,0,0,0.26458333,0,295.25)">
          <g
             clip-path="url(#clip16)"
             id="g26382"
             style="clip-rule:nonzero">
            <path
               style="fill:#211e1e;fill-opacity:1;fill-rule:nonzero;stroke:none"
               d="m 4.433594,0.511719 h -3.78125 v -0.375 h 3.78125 z m 0,0"
               id="path26380"
               inkscape:connector-curvature="0" />
          </g>
        </g>
      </g>
      <g
         style="clip-rule:nonzero"
         id="g26400"
         clip-path="url(#clip17)">
        <g
           id="g26392"
           clip-path="url(#clip18)"
           transform="matrix(0.26458333,0,0,0.26458333,0,294.25)">
          <g
             clip-path="url(#clip19)"
             id="g26390"
             style="clip-rule:nonzero">
            <path
               style="fill:#000000;fill-opacity:1;fill-rule:nonzero;stroke:none"
               d="m 4.433594,0.746094 h -3.78125 v -0.375 h 3.78125 z m 0,0"
               id="path26388"
               inkscape:connector-curvature="0" />
          </g>
        </g>
        <g
           id="g26398"
           clip-path="url(#clip20)"
           transform="matrix(0.26458333,0,0,0.26458333,0,294.25)">
          <g
             clip-path="url(#clip21)"
             id="g26396"
             style="clip-rule:nonzero">
            <path
               style="fill:#211e1e;fill-opacity:1;fill-rule:nonzero;stroke:none"
               d="m 4.433594,0.746094 h -3.78125 v -0.375 h 3.78125 z m 0,0"
               id="path26394"
               inkscape:connector-curvature="0" />
          </g>
        </g>
      </g>
      <g
         style="clip-rule:nonzero"
         id="g26414"
         clip-path="url(#clip22)">
        <g
           id="g26406"
           clip-path="url(#clip23)"
           transform="matrix(0.26458333,0,0,0.26458333,0,293.25)">
          <g
             clip-path="url(#clip24)"
             id="g26404"
             style="clip-rule:nonzero">
            <path
               style="fill:#000000;fill-opacity:1;fill-rule:nonzero;stroke:none"
               d="m 4.433594,0.980469 h -3.78125 v -0.375 h 3.78125 z m 0,0"
               id="path26402"
               inkscape:connector-curvature="0" />
          </g>
        </g>
        <g
           id="g26412"
           clip-path="url(#clip25)"
           transform="matrix(0.26458333,0,0,0.26458333,0,293.25)">
          <g
             clip-path="url(#clip26)"
             id="g26410"
             style="clip-rule:nonzero">
            <path
               style="fill:#211e1e;fill-opacity:1;fill-rule:nonzero;stroke:none"
               d="m 4.433594,0.980469 h -3.78125 v -0.375 h 3.78125 z m 0,0"
               id="path26408"
               inkscape:connector-curvature="0" />
          </g>
        </g>
      </g>
    </g>
    <path
       inkscape:connector-curvature="0"
       id="path12967"
       d="m 3.180158,296.87098 c 0.2301311,0 0.4175442,-0.18604 0.4175442,-0.41617 v -2.6541 c 0,-0.23013 -0.1874131,-0.41617 -0.4175442,-0.41617 H 0.52743497 c -0.23013458,0 -0.41754777,0.18604 -0.41754777,0.41617 v 2.6541 c 0,0.23013 0.18741319,0.41617 0.41754777,0.41617 z m 0,0"
       style="fill:#211e1e;fill-opacity:1;fill-rule:nonzero;stroke:none;stroke-width:0.35277775" />
    <path
       inkscape:connector-curvature="0"
       id="path12969"
       d="m 0.52743497,293.45482 c -0.19154775,0 -0.34588802,0.15572 -0.34588802,0.34589 v 2.6541 c 0,0.19017 0.15434027,0.34451 0.34588802,0.34451 H 3.180158 c 0.1915477,0 0.3458879,-0.15434 0.3458879,-0.34451 v -2.6541 c 0,-0.19017 -0.1543402,-0.34589 -0.3458879,-0.34589 z m 0,0"
       style="fill:#ffffff;fill-opacity:1;fill-rule:nonzero;stroke:none;stroke-width:0.35277775" />
    <path
       inkscape:connector-curvature="0"
       id="path12971"
       d="m 3.2628384,296.26051 c -0.060632,0 -0.1185085,-0.0138 -0.1708748,-0.0372 -0.052366,-0.0248 -0.1129982,-0.0386 -0.1750131,-0.0386 -0.063387,0 -0.1226431,0.0138 -0.1763889,0.0386 -0.050987,0.0234 -0.1088637,0.0372 -0.1694956,0.0372 -0.060635,0 -0.1185122,-0.0138 -0.1708785,-0.0372 -0.053742,-0.0248 -0.1129983,-0.0386 -0.1750095,-0.0386 -0.063391,0 -0.1226468,0.0138 -0.1763889,0.0386 -0.050987,0.0234 -0.1102431,0.0372 -0.1694991,0.0372 -0.060635,0 -0.1185122,-0.0138 -0.1708785,-0.0372 -0.053742,-0.0248 -0.1129983,-0.0386 -0.1750096,-0.0386 -0.063391,0 -0.1226467,0.0138 -0.1763889,0.0386 -0.050987,0.0234 -0.110243,0.0372 -0.1708784,0.0372 -0.059253,0 -0.1185087,-0.0138 -0.1694957,-0.0372 -0.0537457,-0.0248 -0.11300173,-0.0386 -0.17638883,-0.0386 -0.0620148,0 -0.12126735,0.0138 -0.17501306,0.0386 -0.0523663,0.0234 -0.11024304,0.0372 -0.17087496,0.0372 v -0.25632 c 0.0606319,0 0.11850865,-0.0138 0.17087496,-0.0358 0.0537457,-0.0248 0.11299825,-0.0386 0.17501306,-0.0386 0.0633871,0 0.12264319,0.0138 0.17638883,0.0386 0.050987,0.022 0.1102431,0.0358 0.1694957,0.0358 0.060635,0 0.1198915,-0.0138 0.1708784,-0.0358 0.053742,-0.0248 0.1129983,-0.0386 0.1763889,-0.0386 0.062011,0 0.1212674,0.0138 0.1750096,0.0386 0.052366,0.022 0.110243,0.0358 0.1708785,0.0358 0.059256,0 0.1185121,-0.0138 0.1694991,-0.0358 0.053742,-0.0248 0.1129982,-0.0386 0.1763889,-0.0386 0.062011,0 0.1212673,0.0138 0.1750095,0.0386 0.052366,0.022 0.1102431,0.0358 0.1708785,0.0358 0.060632,0 0.1185086,-0.0138 0.1694956,-0.0358 0.053746,-0.0248 0.1130018,-0.0386 0.1763889,-0.0386 0.062015,0 0.1226468,0.0138 0.1750131,0.0386 0.052366,0.022 0.1102429,0.0358 0.1708748,0.0358 z m 0,0"
       style="fill:#211e1e;fill-opacity:1;fill-rule:nonzero;stroke:none;stroke-width:0.35277775" />
    <path
       inkscape:connector-curvature="0"
       id="path12973"
       d="m 2.861829,295.53704 c 0.1819027,0 0.3293534,-0.14745 0.3293534,-0.32936 0,-0.18189 -0.1474507,-0.32934 -0.3293534,-0.32934 -0.1818993,0 -0.3293498,0.14745 -0.3293498,0.32934 0,0.18191 0.133671,0.32936 0.3293498,0.32936"
       style="fill:#211e1e;fill-opacity:1;fill-rule:nonzero;stroke:none;stroke-width:0.35277775" />
    <path
       inkscape:connector-curvature="0"
       id="path12975"
       d="m 0.94359984,295.72307 c 0.026176,0.007 0.0496112,0.0152 0.0730391,0.0248 0.050987,0.0248 0.1102431,0.0386 0.1694957,0.0386 0.060635,0 0.1198915,-0.0138 0.1708784,-0.0386 0.053742,-0.0234 0.1129983,-0.0386 0.1763889,-0.0386 0.062011,0 0.1212674,0.0152 0.1750096,0.0386 0.052366,0.0248 0.110243,0.0386 0.1708785,0.0386 0.059256,0 0.1185121,-0.0138 0.1694991,-0.0386 0.053742,-0.0234 0.1129982,-0.0386 0.1763889,-0.0386 0.062011,0 0.1212673,0.0152 0.1750095,0.0386 0.052366,0.0248 0.1102431,0.0386 0.1708785,0.0386 0.044097,0 0.086815,-0.008 0.1267777,-0.0207 l -0.5498359,-0.99081 0.6394098,-0.11713 c 0.093705,-0.0179 0.16123,-0.0909 0.16123,-0.18604 0,-0.10473 -0.08406,-0.18742 -0.1874132,-0.18742 -0.00826,0 -0.01517,0 -0.022049,0 l -0.986677,0.18053 c -0.068901,0.0165 -0.16123,0.11713 -0.1088637,0.24116 0.00282,0.008 0.0055,0.0138 0.00825,0.0207 l 0.2576936,0.4644 z m 0,0"
       style="fill:#211e1e;fill-opacity:1;fill-rule:nonzero;stroke:none;stroke-width:0.35277775" />
  </g>
</svg>
