<?xml version="1.0" encoding="UTF-8" standalone="no"?>
<!-- Created with Inkscape (http://www.inkscape.org/) -->

<svg
   xmlns:dc="http://purl.org/dc/elements/1.1/"
   xmlns:cc="http://creativecommons.org/ns#"
   xmlns:rdf="http://www.w3.org/1999/02/22-rdf-syntax-ns#"
   xmlns:svg="http://www.w3.org/2000/svg"
   xmlns="http://www.w3.org/2000/svg"
   xmlns:sodipodi="http://sodipodi.sourceforge.net/DTD/sodipodi-0.dtd"
   xmlns:inkscape="http://www.inkscape.org/namespaces/inkscape"
   width="3.75mm"
   height="3.75mm"
   viewBox="0 0 3.75 3.75"
   version="1.1"
   id="svg13826"
   inkscape:version="0.92.1 r15371"
   sodipodi:docname="mobile_device_charging_light.svg">
  <defs
     id="defs13820" />
  <sodipodi:namedview
     id="base"
     pagecolor="#ffffff"
     bordercolor="#666666"
     borderopacity="1.0"
     inkscape:pageopacity="0.0"
     inkscape:pageshadow="2"
     inkscape:zoom="20.285322"
     inkscape:cx="7.2558826"
     inkscape:cy="7.2894483"
     inkscape:document-units="mm"
     inkscape:current-layer="layer1"
     showgrid="false"
     inkscape:window-width="561"
     inkscape:window-height="558"
     inkscape:window-x="711"
     inkscape:window-y="101"
     inkscape:window-maximized="0"
     showguides="true"
     inkscape:guide-bbox="true"
     gridtolerance="10"
     guidetolerance="2">
    <inkscape:grid
       type="xygrid"
       id="grid13828" />
    <sodipodi:guide
       position="0.13043093,3.8477124"
       orientation="1,0"
       id="guide20533"
       inkscape:locked="false" />
    <sodipodi:guide
       position="1.9173346,3.6129367"
       orientation="0,1"
       id="guide20535"
       inkscape:locked="false" />
  </sodipodi:namedview>
  <metadata
     id="metadata13823">
    <rdf:RDF>
      <cc:Work
         rdf:about="">
        <dc:format>image/svg+xml</dc:format>
        <dc:type
           rdf:resource="http://purl.org/dc/dcmitype/StillImage" />
        <dc:title></dc:title>
      </cc:Work>
    </rdf:RDF>
  </metadata>
  <g
     inkscape:label="Layer 1"
     inkscape:groupmode="layer"
     id="layer1"
     transform="translate(0,-293.25)">
    <path
       inkscape:connector-curvature="0"
       id="path8687"
       d="m 0.5497767,293.46052 c -0.19016944,0 -0.34450971,0.15572 -0.34450971,0.34589 v 2.65548 c 0,0.19154 0.15434027,0.34588 0.34450971,0.34588 h 2.6568576 c 0.1915473,0 0.3472657,-0.15434 0.3472657,-0.34588 v -2.65548 c 0,-0.19017 -0.1557184,-0.34589 -0.3472657,-0.34589 z m 0,0"
       style="fill:#ffffff;fill-opacity:1;fill-rule:nonzero;stroke:none;stroke-width:0.35277775" />
    <path
       inkscape:connector-curvature="0"
       id="path8691"
       d="m 1.8272178,294.4968 h 0.06339 c 0.3541557,10e-4 0.5581053,0.33762 0.5594836,0.56638 -0.00138,0.0455 -0.012404,0.0827 -0.06339,0.0813 -0.1061089,0.001 -0.067524,-0.1695 -0.1557182,-0.31419 -0.041341,-0.0717 -0.175011,-0.20119 -0.325217,-0.19982 h -0.0565 c -0.081304,-10e-4 -0.2342663,0.0455 -0.3376192,0.19982 -0.1281575,0.18604 -0.044097,0.32246 -0.1502061,0.32246 -0.016535,0 -0.064768,-0.004 -0.064768,-0.0813 0.00551,-0.3514 0.3265953,-0.57327 0.5305446,-0.57465"
       style="fill:#ffffff;fill-opacity:1;fill-rule:nonzero;stroke:none;stroke-width:0.35277775" />
    <path
       inkscape:connector-curvature="0"
       id="path8693"
       d="m 1.8754492,296.43433 c 0.13367,0.001 0.2356447,-0.13367 0.2370226,-0.226 v -0.19293 c -0.00138,-0.39412 0.4134114,-0.54983 0.4120335,-0.94395 0.00138,-0.3707 -0.3334854,-0.64906 -0.6490561,-0.64906 -0.261827,0 -0.4395939,0.16812 -0.507118,0.25632 -0.2039497,0.24942 -0.086816,0.4892 -0.2301321,0.4892 -0.039963,0 -0.079926,-0.0234 -0.081304,-0.10473 -0.00689,-0.39136 0.3169486,-0.80615 0.8254446,-0.80753 0.4120335,10e-4 0.8157986,0.32797 0.8157986,0.83096 0,0.46439 -0.4078993,0.56223 -0.4078993,0.97013 v 0.17364 c 0,0.18052 -0.159852,0.38447 -0.4216795,0.38585 -0.011024,-0.003 -0.020669,-0.007 -0.033073,-0.008 -0.049609,-0.0138 -0.082682,-0.0648 -0.07028,-0.11438 0.013779,-0.0427 0.053743,-0.0537 0.1061088,-0.0593 z m 0,0"
       style="fill:#ffffff;fill-opacity:1;fill-rule:nonzero;stroke:none;stroke-width:0.35277775" />
    <path
       inkscape:connector-curvature="0"
       id="path8695"
       d="M 3.2052559,293.52253 H 2.9957942 l -0.7096894,0.76481 c 0.074414,0.0386 0.143316,0.0868 0.2053276,0.14607 0.1005967,0.0951 0.1763889,0.21222 0.221864,0.34176 L 3.49051,293.9387 v -0.13091 c 0,-0.1571 -0.1281575,-0.28526 -0.2852541,-0.28526"
       style="fill:#ffffff;fill-opacity:1;fill-rule:nonzero;stroke:none;stroke-width:0.35277775" />
    <path
       inkscape:connector-curvature="0"
       id="path8697"
       d="m 0.55115465,296.74576 h 0.3183269 l 0.92741955,-0.99632 -0.5443251,-0.3638 -0.98529703,1.05971 v 0.0152 c 0,0.15709 0.12677915,0.28525 0.28387568,0.28525"
       style="fill:#ffffff;fill-opacity:1;fill-rule:nonzero;stroke:none;stroke-width:0.35277775" />
    <path
       inkscape:connector-curvature="0"
       id="path10459"
       d="m 3.2052549,296.87668 c 0.2301311,0 0.4161684,-0.18604 0.4161684,-0.41617 v -2.6541 c 0,-0.23013 -0.1860373,-0.41617 -0.4161684,-0.41617 H 0.55115254 c -0.23013106,0 -0.41616842,0.18604 -0.41616842,0.41617 v 2.6541 c 0,0.23013 0.18603736,0.41617 0.41616842,0.41617 z m 0,0"
       style="fill:#211e1e;fill-opacity:1;fill-rule:nonzero;stroke:none;stroke-width:0.35277775" />
    <path
       inkscape:connector-curvature="0"
       id="path10461"
       d="m 0.5497767,293.46052 c -0.19154775,0 -0.34588803,0.15572 -0.34588803,0.34589 v 2.6541 c 0,0.19155 0.15434028,0.34726 0.34588803,0.34726 h 2.6554782 c 0.1901684,0 0.3458879,-0.15571 0.3458879,-0.34726 v -2.6541 c 0,-0.19017 -0.1557195,-0.34589 -0.3458879,-0.34589 z m 0,0"
       style="fill:#ffffff;fill-opacity:1;fill-rule:nonzero;stroke:none;stroke-width:0.35277775" />
    <path
       inkscape:connector-curvature="0"
       id="path10463"
       d="m 2.009116,294.92675 v -0.56499 c 0,-0.0276 0.023424,-0.051 0.05099,-0.051 h 0.719335 c 0.028928,0 0.050987,0.0234 0.050987,0.051 v 0.56499 c 0,0.0276 -0.022048,0.051 -0.050987,0.051 H 2.060106 c -0.027552,0 -0.05099,-0.0234 -0.05099,-0.051 m 0.00141,0.59532 v -0.10887 c 0,-0.0276 0.022049,-0.0496 0.049611,-0.0496 h 0.1088641 c 0.027552,0 0.049608,0.0221 0.049608,0.0496 v 0.10887 c 0,0.0276 -0.022048,0.0496 -0.049608,0.0496 H 2.0601383 c -0.027552,0 -0.049611,-0.022 -0.049611,-0.0496 m 0,0.30179 v -0.10749 c 0,-0.0276 0.022049,-0.051 0.049611,-0.051 h 0.1088636 c 0.027552,0 0.049608,0.0234 0.049608,0.051 v 0.10749 c 0,0.0276 -0.022048,0.051 -0.049608,0.051 H 2.0601383 c -0.027552,0 -0.049611,-0.0234 -0.049611,-0.051 m 0,0.30179 v -0.10749 c 0,-0.0276 0.022049,-0.0496 0.049611,-0.0496 h 0.1088636 c 0.027552,0 0.049608,0.0221 0.049608,0.0496 v 0.10749 c 0,0.0289 -0.022048,0.051 -0.049608,0.051 H 2.0601383 c -0.027552,0 -0.049611,-0.022 -0.049611,-0.051 m 0.3059254,-0.71107 c 0,-0.0289 0.022048,-0.051 0.049608,-0.051 h 0.1088672 c 0.027552,0 0.049608,0.0221 0.049608,0.0496 v 0.10887 c 0,0.0276 -0.022048,0.0496 -0.049608,0.0496 H 2.3660601 c -0.027552,0 -0.049608,-0.022 -0.049608,-0.0496 z m 0,0.30179 c 0,-0.0276 0.022048,-0.051 0.049608,-0.051 h 0.1088672 c 0.027552,0 0.049608,0.0234 0.049608,0.051 v 0.10749 c 0,0.0276 -0.022048,0.051 -0.049608,0.051 H 2.3660601 c -0.027552,0 -0.049608,-0.0234 -0.049608,-0.051 z m 0,0.30179 c 0,-0.0276 0.022048,-0.0496 0.049608,-0.0496 h 0.1088672 c 0.027552,0 0.049608,0.0221 0.049608,0.0496 v 0.10749 c 0,0.0276 -0.022048,0.051 -0.049608,0.051 H 2.3660601 c -0.027552,0 -0.049608,-0.022 -0.049608,-0.051 z M 2.622378,295.4132 c 0,-0.0276 0.022048,-0.0496 0.050987,-0.0496 h 0.1074844 c 0.027552,0 0.049611,0.0221 0.049611,0.0496 v 0.10887 c 0,0.0276 -0.022048,0.0496 -0.049611,0.0496 H 2.6733648 c -0.028928,0 -0.050987,-0.022 -0.050987,-0.0496 z m 0,0.30317 c 0,-0.0276 0.022048,-0.051 0.050987,-0.051 h 0.1074844 c 0.027552,0 0.049611,0.0234 0.049611,0.051 v 0.10749 c 0,0.0276 -0.022048,0.051 -0.049611,0.051 H 2.6733648 c -0.028928,0 -0.050987,-0.0234 -0.050987,-0.051 z m 0,0.30179 c 0,-0.0276 0.022048,-0.0496 0.050987,-0.0496 h 0.1074844 c 0.027552,0 0.049611,0.0221 0.049611,0.0496 v 0.10749 c 0,0.0289 -0.022048,0.051 -0.049611,0.051 H 2.6733648 c -0.028928,0 -0.050987,-0.022 -0.050987,-0.051 z m 0.2411553,-2.24069 v 0.29628 H 1.9126877 c -0.090953,0 -0.1653646,0.0717 -0.1653646,0.16123 v 2.09186 c 0,0.0896 0.074411,0.16123 0.1653646,0.16123 h 0.9784044 c 0.090953,0 0.1653645,-0.0717 0.1653645,-0.16123 v -2.54937 z m 0,0"
       style="fill:#211e1e;fill-opacity:1;fill-rule:evenodd;stroke:none;stroke-width:0.35277775" />
    <path
       inkscape:connector-curvature="0"
       id="path10465"
       d="m 1.4206968,295.21614 -0.73311806,0.97703 0.22462067,-0.70418 H 0.61178797 l 0.45061713,-0.97703 h 0.3582917 l -0.3141945,0.70418 z m 0,0"
       style="fill:#211e1e;fill-opacity:1;fill-rule:nonzero;stroke:none;stroke-width:0.35277775" />
  </g>
</svg>
